<svg width="14" height="14" viewBox="0 0 14 14" fill="none" xmlns="http://www.w3.org/2000/svg">
<path fill-rule="evenodd" clip-rule="evenodd" d="M0.591854 12.5909C0.29896 12.298 0.29896 11.8231 0.591854 11.5302L11.5919 0.530216C11.8847 0.237323 12.3596 0.237323 12.6525 0.530216C12.9454 0.823109 12.9454 1.29798 12.6525 1.59088L1.65251 12.5909C1.35962 12.8838 0.884747 12.8838 0.591854 12.5909Z" fill="white"/>
<path fill-rule="evenodd" clip-rule="evenodd" d="M0.531193 0.590877C0.824087 0.297984 1.29896 0.297984 1.59185 0.590877L12.5919 11.5909C12.8847 11.8838 12.8847 12.3586 12.5919 12.6515C12.299 12.9444 11.8241 12.9444 11.5312 12.6515L0.531193 1.65154C0.2383 1.35864 0.2383 0.88377 0.531193 0.590877Z" fill="white"/>
</svg>
