<svg width="18" height="13" viewBox="0 0 18 13" fill="none" xmlns="http://www.w3.org/2000/svg">
<path fill-rule="evenodd" clip-rule="evenodd" d="M-1.63918e-08 0.75C-7.33885e-09 0.335786 0.335786 7.33885e-09 0.75 1.63918e-08L16.3064 3.56387e-07C16.7206 3.6544e-07 17.0564 0.335787 17.0564 0.75C17.0564 1.16421 16.7206 1.5 16.3064 1.5L0.75 1.5C0.335786 1.5 -2.54447e-08 1.16421 -1.63918e-08 0.75Z" fill="white"/>
<path fill-rule="evenodd" clip-rule="evenodd" d="M-1.63918e-08 11.75C-7.33885e-09 11.3358 0.335786 11 0.75 11L16.3064 11C16.7206 11 17.0564 11.3358 17.0564 11.75C17.0564 12.1642 16.7206 12.5 16.3064 12.5L0.75 12.5C0.335786 12.5 -2.54447e-08 12.1642 -1.63918e-08 11.75Z" fill="white"/>
<path fill-rule="evenodd" clip-rule="evenodd" d="M-1.63918e-08 6.25C-7.33885e-09 5.83579 0.335786 5.5 0.75 5.5L16.3064 5.5C16.7206 5.5 17.0564 5.83579 17.0564 6.25C17.0564 6.66421 16.7206 7 16.3064 7L0.75 7C0.335786 7 -2.54447e-08 6.66421 -1.63918e-08 6.25Z" fill="white"/>
</svg>
