<svg width="186" height="40" viewBox="0 0 186 40" fill="none" xmlns="http://www.w3.org/2000/svg">
<path d="M15.3684 23.8142C16.7146 26.2261 19.2942 27.768 22.0634 27.768C24.8325 27.768 27.4121 26.2261 28.7583 23.8142C28.8775 23.6006 28.7834 23.3349 28.5626 23.2298L27.0065 22.4888C26.7861 22.3838 26.5241 22.4792 26.4013 22.6901C25.4999 24.2386 23.8655 25.1736 22.0634 25.1736C20.2601 25.1736 18.6369 24.2255 17.7265 22.6847C17.6032 22.476 17.3429 22.3827 17.124 22.487L15.5641 23.2298C15.3433 23.3349 15.2492 23.6006 15.3684 23.8142Z" fill="#2F2B24"/>
<path fill-rule="evenodd" clip-rule="evenodd" d="M43.0435 17.4322L41.3185 16.4926C40.5612 12.7762 38.7521 9.45243 36.2137 6.82991C34.7833 5.34335 33.1284 4.09521 31.2913 3.11351V2.01963C31.2913 1.44464 30.1974 0.925747 28.4303 0.561119C26.7755 0.210515 24.5316 0.000152588 22.0634 0.000152588C21.1939 0.000152588 20.3524 0.0282009 19.539 0.0702734C15.6684 0.308684 12.8355 1.09404 12.8355 2.00561V3.09949C11.6014 3.75863 10.4514 4.54398 9.38554 5.44152C6.08986 8.24635 3.71978 12.103 2.80821 16.4926L1.08324 17.4322C0.29789 17.8529 -0.122834 18.7364 0.0314314 19.6059L1.60214 28.4271C1.7564 29.3247 2.48566 29.9978 3.3832 30.11L6.01974 30.4326C7.45021 31.9752 9.25932 33.1813 11.3489 34.0648C14.1537 35.2569 17.4494 35.888 20.9975 35.9861C21.3481 36.0002 21.7128 36.0002 22.0634 36.0002C24.77 36.0002 27.3505 35.7056 29.7065 35.1026C32.7918 34.3032 35.4845 32.9569 37.518 31.0216C37.7564 30.7972 37.9948 30.5588 38.2192 30.3063L40.7015 30.0679C41.6271 29.9838 42.3703 29.2966 42.5386 28.371L44.0953 19.5919C44.2496 18.7364 43.8289 17.8529 43.0435 17.4322ZM22.0636 31.1899C17.3795 31.1899 13.5369 30.2222 10.9565 28.3851C8.44616 26.604 7.22606 24.0095 7.22606 20.4614C7.22606 12.2713 13.8875 5.60983 22.0776 5.60983C30.2677 5.60983 36.9292 12.2713 36.9292 20.4614C36.9292 24.0095 35.7091 26.59 33.1988 28.3851C30.5903 30.2222 26.7477 31.1899 22.0636 31.1899Z" fill="#2F2B24"/>
<path d="M60.1796 32.5906C58.381 32.5906 56.7166 32.2416 55.1864 31.5436C53.683 30.8188 52.4481 29.8121 51.4817 28.5235L54.4615 24.9396C56.0186 27.0872 57.8843 28.1611 60.0588 28.1611C62.985 28.1611 64.4481 26.4295 64.4481 22.9664V8.38926V4H69.683V22.6846C69.683 25.9866 68.8776 28.4698 67.2669 30.1342C65.6562 31.7718 63.2937 32.5906 60.1796 32.5906Z" fill="#2F2B24"/>
<path d="M83.2467 10.443C86.4145 10.443 88.8306 11.2081 90.4951 12.7383C92.1863 14.2416 93.032 16.5235 93.032 19.5839V32.1879H88.2803V29.5705C87.6628 30.5101 86.7769 31.2349 85.6226 31.745C84.4951 32.2282 83.1259 32.4698 81.5152 32.4698C79.9045 32.4698 78.4951 32.2013 77.287 31.6644C76.0789 31.1007 75.1394 30.3356 74.4682 29.3691C73.8239 28.3758 73.5018 27.2617 73.5018 26.0268C73.5018 24.094 74.2132 22.5503 75.636 21.396C77.0857 20.2148 79.3541 19.6242 82.4414 19.6242H87.9984V19.302C87.9984 17.7987 87.542 16.6443 86.6293 15.8389C85.7434 15.0336 84.4145 14.6309 82.6427 14.6309C81.4347 14.6309 80.24 14.8188 79.0588 15.1946C77.9045 15.5705 76.9246 16.094 76.1192 16.7651L74.1461 13.1007C75.2736 12.2416 76.6293 11.5839 78.2132 11.1275C79.7971 10.6711 81.4749 10.443 83.2467 10.443ZM82.5622 28.8054C83.8239 28.8054 84.938 28.5235 85.9045 27.9597C86.8977 27.3691 87.5957 26.5369 87.9984 25.4631V22.9664H82.8038C79.9045 22.9664 78.4548 23.9195 78.4548 25.8255C78.4548 26.7383 78.8172 27.4631 79.542 28C80.2669 28.5369 81.2736 28.8054 82.5622 28.8054Z" fill="#2F2B24"/>
<path d="M106.136 32.4698C104.391 32.4698 102.687 32.2416 101.022 31.7852C99.3577 31.3289 98.0288 30.7517 97.0355 30.0537L98.9684 26.2282C99.9349 26.8725 101.089 27.396 102.432 27.7987C103.801 28.1745 105.143 28.3624 106.458 28.3624C109.465 28.3624 110.968 27.5705 110.968 25.9866C110.968 25.2349 110.579 24.7114 109.801 24.4161C109.049 24.1208 107.827 23.8389 106.136 23.5705C104.364 23.302 102.915 22.9933 101.787 22.6443C100.687 22.2953 99.7201 21.6913 98.8879 20.8322C98.0825 19.9463 97.6798 18.7248 97.6798 17.1678C97.6798 15.1275 98.5255 13.5034 100.217 12.2953C101.935 11.0604 104.244 10.443 107.143 10.443C108.619 10.443 110.096 10.6175 111.572 10.9664C113.049 11.2886 114.257 11.7315 115.197 12.2953L113.264 16.1208C111.438 15.047 109.385 14.5101 107.103 14.5101C105.626 14.5101 104.499 14.7383 103.72 15.1946C102.968 15.6242 102.593 16.2013 102.593 16.9262C102.593 17.7315 102.995 18.3087 103.801 18.6577C104.633 18.9799 105.908 19.2886 107.626 19.5839C109.344 19.8523 110.754 20.1611 111.854 20.5101C112.955 20.8591 113.895 21.4497 114.673 22.2819C115.478 23.1141 115.881 24.2953 115.881 25.8255C115.881 27.8389 115.009 29.4497 113.264 30.6577C111.519 31.8658 109.143 32.4698 106.136 32.4698Z" fill="#2F2B24"/>
<path d="M132.135 10.443C134.229 10.443 136.095 10.8993 137.733 11.8121C139.397 12.7248 140.699 14.0134 141.639 15.6779C142.578 17.3423 143.048 19.2617 143.048 21.4362C143.048 23.6107 142.578 25.5436 141.639 27.2349C140.699 28.8993 139.397 30.1879 137.733 31.1007C136.095 32.0134 134.229 32.4698 132.135 32.4698C129.236 32.4698 126.941 31.5034 125.25 29.5705V40H120.216V10.6846H125.008V13.5034C125.84 12.4832 126.86 11.7181 128.068 11.2081C129.303 10.698 130.659 10.443 132.135 10.443ZM131.572 28.1611C133.424 28.1611 134.941 27.5436 136.122 26.3087C137.33 25.0738 137.934 23.4497 137.934 21.4362C137.934 19.4228 137.33 17.7987 136.122 16.5638C134.941 15.3289 133.424 14.7114 131.572 14.7114C130.364 14.7114 129.276 14.9933 128.31 15.557C127.344 16.094 126.578 16.8725 126.015 17.8926C125.451 18.9127 125.169 20.094 125.169 21.4362C125.169 22.7785 125.451 23.9597 126.015 24.9799C126.578 26 127.344 26.7919 128.31 27.3557C129.276 27.8926 130.364 28.1611 131.572 28.1611Z" fill="#2F2B24"/>
<path d="M168.397 21.557C168.397 21.906 168.37 22.4027 168.316 23.047H151.444C151.739 24.6309 152.504 25.8926 153.739 26.8322C155.001 27.745 156.558 28.2013 158.41 28.2013C160.773 28.2013 162.719 27.4228 164.249 25.8658L166.947 28.9664C165.981 30.1208 164.759 30.9933 163.283 31.5839C161.806 32.1745 160.142 32.4698 158.289 32.4698C155.927 32.4698 153.846 32 152.048 31.0604C150.249 30.1208 148.853 28.8188 147.86 27.1544C146.893 25.4631 146.41 23.557 146.41 21.4362C146.41 19.3423 146.88 17.4631 147.819 15.7987C148.786 14.1074 150.115 12.7919 151.806 11.8523C153.497 10.9128 155.403 10.443 157.524 10.443C159.618 10.443 161.484 10.9128 163.122 11.8523C164.786 12.7651 166.075 14.0671 166.987 15.7584C167.927 17.4228 168.397 19.3557 168.397 21.557ZM157.524 14.4698C155.913 14.4698 154.544 14.953 153.417 15.9195C152.316 16.8591 151.645 18.1208 151.403 19.7047H163.605C163.39 18.1476 162.732 16.8859 161.632 15.9195C160.531 14.953 159.162 14.4698 157.524 14.4698Z" fill="#2F2B24"/>
<path d="M177.664 13.8255C179.113 11.5705 181.664 10.443 185.315 10.443V15.2349C184.885 15.1544 184.496 15.1141 184.147 15.1141C182.187 15.1141 180.657 15.6913 179.556 16.8456C178.456 17.9732 177.905 19.6107 177.905 21.7584V32.1879H172.872V10.6846H177.664V13.8255Z" fill="#2F2B24"/>
</svg>
