<svg width="24" height="24" viewBox="0 0 24 24" fill="none" xmlns="http://www.w3.org/2000/svg">
<path opacity="0.12" d="M2 6.2C2 5.07989 2 4.51984 2.21799 4.09202C2.40973 3.71569 2.71569 3.40973 3.09202 3.21799C3.51984 3 4.07989 3 5.2 3H5.6C7.84021 3 8.96031 3 9.81596 3.43597C10.5686 3.81947 11.1805 4.43139 11.564 5.18404C12 6.03968 12 7.15979 12 9.4V21L11.8999 20.8499C11.2053 19.808 10.858 19.287 10.3991 18.9098C9.99286 18.5759 9.52476 18.3254 9.02161 18.1726C8.45325 18 7.82711 18 6.57482 18H5.2C4.07989 18 3.51984 18 3.09202 17.782C2.71569 17.5903 2.40973 17.2843 2.21799 16.908C2 16.4802 2 15.9201 2 14.8V6.2Z" fill="#2F2B23"/>
<path d="M12 21V10.4M12 21L12.1255 20.8745C12.8173 20.1827 13.1632 19.8368 13.5669 19.5894C13.9247 19.3701 14.3149 19.2085 14.7231 19.1105C15.1834 19 15.6726 19 16.651 19H18.8C19.9201 19 20.4802 19 20.908 18.782C21.2843 18.5903 21.5903 18.2843 21.782 17.908C22 17.4802 22 16.9201 22 15.8V7.2C22 6.07989 22 5.51984 21.782 5.09202C21.5903 4.71569 21.2843 4.40973 20.908 4.21799C20.4802 4 19.9201 4 18.8 4H18.4C16.1598 4 15.0397 4 14.184 4.43597C13.4314 4.81947 12.8195 5.43139 12.436 6.18404C12 7.03968 12 8.15979 12 10.4M12 21L11.8745 20.8745C11.1827 20.1827 10.8368 19.8368 10.4331 19.5894C10.0753 19.3701 9.68507 19.2085 9.27693 19.1105C8.81658 19 8.3274 19 7.34903 19H5.2C4.07989 19 3.51984 19 3.09202 18.782C2.71569 18.5903 2.40973 18.2843 2.21799 17.908C2 17.4802 2 16.9201 2 15.8V7.2C2 6.07989 2 5.51984 2.21799 5.09202C2.40973 4.71569 2.71569 4.40973 3.09202 4.21799C3.51984 4 4.07989 4 5.2 4H5.6C7.84021 4 8.96031 4 9.81596 4.43597C10.5686 4.81947 11.1805 5.43139 11.564 6.18404C12 7.03968 12 8.15979 12 10.4" stroke="#2F2B23" stroke-width="1.75" stroke-linecap="square" stroke-linejoin="bevel"/>
</svg>
