<svg width="24" height="24" viewBox="0 0 24 24" fill="none" xmlns="http://www.w3.org/2000/svg">
<path d="M19 21V15M16 18H22M15.5 3.29076C16.9659 3.88415 18 5.32131 18 7C18 8.67869 16.9659 10.1159 15.5 10.7092M12 15H6.8C5.11984 15 4.27976 15 3.63803 15.327C3.07354 15.6146 2.6146 16.0735 2.32698 16.638C2 17.2798 2 18.1198 2 19.8V21M13.5 7C13.5 9.20914 11.7091 11 9.5 11C7.29086 11 5.5 9.20914 5.5 7C5.5 4.79086 7.29086 3 9.5 3C11.7091 3 13.5 4.79086 13.5 7Z" stroke="#2F2B23" stroke-width="1.75" stroke-linecap="square"/>
</svg>
