<svg width="24" height="24" viewBox="0 0 24 24" fill="none" xmlns="http://www.w3.org/2000/svg">
<path opacity="0.12" d="M7.5 4.5C7.5 3.11929 8.61929 2 10 2V2C11.3807 2 12.5 3.11929 12.5 4.5V6H18V10.5H19.5C20.8807 10.5 22 11.6193 22 13V13C22 14.3807 20.8807 15.5 19.5 15.5H18V22H12.5V20.25C12.5 19.0074 11.4926 18 10.25 18V18C9.00736 18 8 19.0074 8 20.25V22H2V15.5H3.5C4.88071 15.5 6 14.3807 6 13V13C6 11.6193 4.88071 10.5 3.5 10.5H2V6H7.5V4.5Z" fill="#2F2B23"/>
<path d="M7.5 4.5C7.5 3.11929 8.61929 2 10 2V2C11.3807 2 12.5 3.11929 12.5 4.5V6H18V10.5H19.5C20.8807 10.5 22 11.6193 22 13V13C22 14.3807 20.8807 15.5 19.5 15.5H18V22H12.5V20.25C12.5 19.0074 11.4926 18 10.25 18V18C9.00736 18 8 19.0074 8 20.25V22H2V15.5H3.5C4.88071 15.5 6 14.3807 6 13V13C6 11.6193 4.88071 10.5 3.5 10.5H2V6H7.5V4.5Z" stroke="#2F2B23" stroke-width="1.75" stroke-linecap="square" stroke-linejoin="round"/>
</svg>
