<svg width="24" height="24" viewBox="0 0 24 24" fill="none" xmlns="http://www.w3.org/2000/svg">
<path opacity="0.12" d="M22 13.2C22 12.0799 22 11.5198 21.782 11.092C21.5903 10.7157 21.2843 10.4097 20.908 10.218C20.4802 10 19.9201 10 18.8 10H13.2C12.0799 10 11.5198 10 11.092 10.218C10.7157 10.4097 10.4097 10.7157 10.218 11.092C10 11.5198 10 12.0799 10 13.2V15.7143C10 16.8344 10 17.3944 10.218 17.8223C10.4097 18.1986 10.7157 18.5046 11.092 18.6963C11.5198 18.9143 12.0799 18.9143 13.2 18.9143H13.9969C14.3695 18.9143 14.5558 18.9143 14.7356 18.9474C14.8951 18.9768 15.0504 19.0255 15.1982 19.0924C15.3647 19.1678 15.5177 19.2742 15.8236 19.4869L19 21.5V18.9143C19.9319 18.9143 20.3978 18.9143 20.7654 18.762C21.2554 18.5591 21.6448 18.1697 21.8478 17.6797C22 17.3121 22 16.8462 22 15.9143V13.2Z" fill="#2F2B23"/>
<path d="M5.55556 18.5H4.68056C4.68056 18.8549 4.89492 19.1746 5.22322 19.3094C5.55152 19.4442 5.92872 19.3674 6.1781 19.1149L5.55556 18.5ZM5.55556 14H6.43056V13.125H5.55556V14ZM10.6225 14.6149C10.9621 14.271 10.9587 13.717 10.6149 13.3775C10.271 13.0379 9.71703 13.0413 9.37745 13.3851L10.6225 14.6149ZM18.125 10V10.875H19.875V10H18.125ZM2.03168 11.4348L1.16591 11.5616L1.16591 11.5616L2.03168 11.4348ZM4.5652 13.9683L4.69202 13.1026L4.69202 13.1026L4.5652 13.9683ZM17.362 1.32698L17.7592 0.54735L17.7592 0.54735L17.362 1.32698ZM18.673 2.63803L19.4527 2.24079L19.4526 2.24079L18.673 2.63803ZM3.63803 1.32698L4.03527 2.10661L4.03527 2.10661L3.63803 1.32698ZM2.32698 2.63803L3.10661 3.03527L3.10661 3.03527L2.32698 2.63803ZM19 22L18.4655 22.6928C18.7297 22.8966 19.0866 22.9324 19.386 22.7853C19.6853 22.6381 19.875 22.3336 19.875 22H19ZM15 18.9143L15.5345 18.2215L15.2983 18.0393H15V18.9143ZM19 18.9143V18.0393H18.125V18.9143H19ZM10.218 17.8223L10.9976 17.425L10.9976 17.425L10.218 17.8223ZM11.092 18.6963L11.4893 17.9167L11.4893 17.9167L11.092 18.6963ZM11.092 10.218L11.4893 10.9976L11.4893 10.9976L11.092 10.218ZM10.218 11.092L10.9976 11.4893L10.9976 11.4893L10.218 11.092ZM21.8478 17.6797L21.0394 17.3448L21.8478 17.6797ZM20.908 10.218L20.5107 10.9976L20.5107 10.9976L20.908 10.218ZM21.782 11.092L21.0024 11.4893L21.0024 11.4893L21.782 11.092ZM6.8 1.875H14.2V0.125H6.8V1.875ZM2.875 10.4444V5.8H1.125V10.4444H2.875ZM6.43056 18.5V14H4.68056V18.5H6.43056ZM9.37745 13.3851L4.93301 17.8851L6.1781 19.1149L10.6225 14.6149L9.37745 13.3851ZM18.125 5.8V10H19.875V5.8H18.125ZM1.125 10.4444C1.125 10.9296 1.12267 11.2664 1.16591 11.5616L2.89744 11.308C2.87733 11.1707 2.875 10.9914 2.875 10.4444H1.125ZM5.55556 13.125C5.00855 13.125 4.82929 13.1227 4.69202 13.1026L4.43839 14.8341C4.7336 14.8773 5.07042 14.875 5.55556 14.875V13.125ZM1.16591 11.5616C1.41404 13.2556 2.74442 14.586 4.43839 14.8341L4.69202 13.1026C3.76307 12.9665 3.03351 12.2369 2.89744 11.308L1.16591 11.5616ZM14.2 1.875C15.0545 1.875 15.6428 1.87568 16.0991 1.91297C16.5453 1.94942 16.7878 2.01645 16.9647 2.10661L17.7592 0.54735C17.2944 0.310534 16.796 0.214072 16.2416 0.168779C15.6975 0.12432 15.0256 0.125 14.2 0.125V1.875ZM19.875 5.8C19.875 4.97436 19.8757 4.30251 19.8312 3.75835C19.7859 3.20399 19.6895 2.70556 19.4527 2.24079L17.8934 3.03527C17.9836 3.21223 18.0506 3.45471 18.087 3.90086C18.1243 4.35722 18.125 4.94548 18.125 5.8H19.875ZM16.9647 2.10661C17.3646 2.31034 17.6897 2.63543 17.8934 3.03527L19.4526 2.24079C19.0811 1.51166 18.4883 0.918859 17.7592 0.54735L16.9647 2.10661ZM6.8 0.125C5.97436 0.125 5.30251 0.12432 4.75835 0.168779C4.20399 0.214072 3.70556 0.310534 3.24079 0.54735L4.03527 2.10661C4.21223 2.01645 4.45471 1.94942 4.90086 1.91297C5.35722 1.87568 5.94548 1.875 6.8 1.875V0.125ZM2.875 5.8C2.875 4.94548 2.87568 4.35722 2.91297 3.90086C2.94942 3.45471 3.01645 3.21223 3.10661 3.03527L1.54735 2.24079C1.31053 2.70556 1.21407 3.20399 1.16878 3.75835C1.12432 4.30251 1.125 4.97436 1.125 5.8H2.875ZM3.24079 0.54735C2.51166 0.918859 1.91886 1.51166 1.54735 2.24079L3.10661 3.03527C3.31034 2.63543 3.63543 2.31034 4.03527 2.10661L3.24079 0.54735ZM18.8 9.125H13.2V10.875H18.8V9.125ZM9.125 13.2V15.7143H10.875V13.2H9.125ZM13.2 19.7893H15V18.0393H13.2V19.7893ZM14.4655 19.6071L18.4655 22.6928L19.5345 21.3072L15.5345 18.2215L14.4655 19.6071ZM22.875 15.9143V13.2H21.125V15.9143H22.875ZM19.875 22V18.9143H18.125V22H19.875ZM9.125 15.7143C9.125 16.2599 9.12432 16.7217 9.15515 17.0991C9.18682 17.4868 9.25604 17.8617 9.43836 18.2195L10.9976 17.425C10.9619 17.355 10.9222 17.236 10.8993 16.9566C10.8757 16.667 10.875 16.2888 10.875 15.7143H9.125ZM13.2 18.0393C12.6255 18.0393 12.2473 18.0386 11.9577 18.0149C11.6783 17.9921 11.5593 17.9523 11.4893 17.9167L10.6948 19.4759C11.0526 19.6582 11.4275 19.7275 11.8152 19.7591C12.1926 19.79 12.6544 19.7893 13.2 19.7893V18.0393ZM9.43836 18.2195C9.71399 18.7605 10.1538 19.2003 10.6948 19.4759L11.4893 17.9167C11.2776 17.8088 11.1055 17.6367 10.9976 17.425L9.43836 18.2195ZM13.2 9.125C12.6544 9.125 12.1926 9.12432 11.8152 9.15515C11.4275 9.18682 11.0526 9.25604 10.6948 9.43836L11.4893 10.9976C11.5593 10.9619 11.6783 10.9222 11.9577 10.8993C12.2473 10.8757 12.6255 10.875 13.2 10.875V9.125ZM10.875 13.2C10.875 12.6255 10.8757 12.2473 10.8993 11.9577C10.9222 11.6783 10.9619 11.5593 10.9976 11.4893L9.43836 10.6948C9.25604 11.0526 9.18682 11.4275 9.15515 11.8152C9.12432 12.1926 9.125 12.6544 9.125 13.2H10.875ZM10.6948 9.43836C10.1538 9.71399 9.71399 10.1538 9.43836 10.6948L10.9976 11.4893C11.1055 11.2776 11.2776 11.1055 11.4893 10.9976L10.6948 9.43836ZM21.125 15.9143C21.125 16.3922 21.1245 16.7068 21.108 16.949C21.092 17.1834 21.064 17.2854 21.0394 17.3448L22.6562 18.0145C22.7838 17.7063 22.8319 17.3916 22.8539 17.0682C22.8755 16.7526 22.875 16.3683 22.875 15.9143H21.125ZM19 19.7893C19.454 19.7893 19.8383 19.7898 20.1539 19.7682C20.4773 19.7462 20.7921 19.6981 21.1002 19.5704L20.4305 17.9537C20.3711 17.9782 20.2691 18.0063 20.0347 18.0223C19.7925 18.0388 19.4779 18.0393 19 18.0393V19.7893ZM21.0394 17.3448C20.9252 17.6205 20.7062 17.8395 20.4305 17.9537L21.1002 19.5704C21.8047 19.2786 22.3644 18.719 22.6562 18.0145L21.0394 17.3448ZM18.8 10.875C19.3745 10.875 19.7527 10.8757 20.0423 10.8993C20.3217 10.9222 20.4407 10.9619 20.5107 10.9976L21.3052 9.43836C20.9474 9.25604 20.5725 9.18682 20.1848 9.15515C19.8074 9.12432 19.3456 9.125 18.8 9.125V10.875ZM22.875 13.2C22.875 12.6544 22.8757 12.1926 22.8448 11.8152C22.8132 11.4275 22.744 11.0526 22.5616 10.6948L21.0024 11.4893C21.0381 11.5593 21.0778 11.6783 21.1007 11.9577C21.1243 12.2473 21.125 12.6255 21.125 13.2H22.875ZM20.5107 10.9976C20.7224 11.1055 20.8945 11.2776 21.0024 11.4893L22.5616 10.6948C22.286 10.1538 21.8462 9.71399 21.3052 9.43836L20.5107 10.9976Z" fill="#2F2B23"/>
</svg>
