<svg width="28" height="29" viewBox="0 0 28 29" fill="none" xmlns="http://www.w3.org/2000/svg">
<path opacity="0.12" d="M8.32614 5.28381C11.3154 4.27176 13.5766 2.43335 13.9993 2.43335V25.7667C13.9993 25.7667 4.66602 21.1 4.66602 14.1V9.66668C4.66602 8.39276 4.66602 7.75579 4.82672 7.34549C5.00642 6.88668 5.11966 6.72879 5.49661 6.41144C5.83371 6.12765 6.66452 5.84637 8.32614 5.28381Z" fill="#2F2B23"/>
<path d="M13.9993 3.01668V25.1833M13.9993 25.7667C13.9993 25.7667 23.3327 21.1 23.3327 14.1V9.66668C23.3327 8.39276 23.3327 7.75579 23.172 7.34549C22.9923 6.88668 22.879 6.72879 22.5021 6.41144C22.165 6.12765 21.3342 5.84637 19.6726 5.28381C16.6833 4.27176 14.4221 2.43335 13.9993 2.43335C13.5766 2.43335 11.3154 4.27176 8.32614 5.28381C6.66452 5.84637 5.83371 6.12765 5.49661 6.41144C5.11966 6.72879 5.00642 6.88668 4.82672 7.34549C4.66602 7.75579 4.66602 8.39276 4.66602 9.66668V14.1C4.66602 21.1 13.9993 25.7667 13.9993 25.7667Z" stroke="#2F2B23" stroke-width="2.1" stroke-linecap="square"/>
</svg>
