<svg width="28" height="28" viewBox="0 0 28 28" fill="none" xmlns="http://www.w3.org/2000/svg">
<path opacity="0.12" d="M14 3.5L16.9167 11.0833L24.5 14L16.9167 16.9167L14 24.5L11.0833 16.9167L3.5 14L11.0833 11.0833L14 3.5Z" fill="#2F2B23"/>
<path d="M14 3.5L16.6188 10.309C16.7285 10.5941 16.7834 10.7367 16.8686 10.8566C16.9442 10.9629 17.0371 11.0558 17.1434 11.1314C17.2633 11.2166 17.4059 11.2715 17.691 11.3812L24.5 14L17.691 16.6188C17.4059 16.7285 17.2633 16.7834 17.1434 16.8686C17.0371 16.9442 16.9442 17.0371 16.8686 17.1434C16.7834 17.2633 16.7285 17.4059 16.6188 17.691L14 24.5L11.3812 17.691C11.2715 17.4059 11.2166 17.2633 11.1314 17.1434C11.0558 17.0371 10.9629 16.9442 10.8566 16.8686C10.7367 16.7834 10.5941 16.7285 10.309 16.6188L3.5 14L10.309 11.3812C10.5941 11.2715 10.7367 11.2166 10.8566 11.1314C10.9629 11.0558 11.0558 10.9629 11.1314 10.8566C11.2166 10.7367 11.2715 10.5941 11.3812 10.309L14 3.5Z" stroke="#2F2B23" stroke-width="2.1" stroke-linecap="square" stroke-linejoin="round"/>
</svg>
