<svg width="160" height="67" viewBox="0 0 160 67" fill="none" xmlns="http://www.w3.org/2000/svg">
<g clip-path="url(#clip0_37_1876)">
<g clip-path="url(#clip1_37_1876)">
<mask id="mask0_37_1876" style="mask-type:luminance" maskUnits="userSpaceOnUse" x="0" y="33" width="148" height="32">
<path d="M147.645 33.9358H0V64.9109H147.645V33.9358Z" fill="white"/>
</mask>
<g mask="url(#mask0_37_1876)">
<path d="M21.7383 33.9358V64.9109H30.8499V40.822L21.7383 33.9358Z" fill="#2F2B24"/>
<path d="M18.1152 36.6713V64.9071H19.9788V35.2637L18.1152 36.6713Z" fill="#2F2B24"/>
<path d="M14.4941 64.9139H16.3577V38.0098L14.4941 39.4174V64.9139Z" fill="#2F2B24"/>
<path d="M10.8691 64.9153H12.7291V40.7468L10.8691 42.1581V64.9153Z" fill="#2F2B24"/>
<path d="M32.6074 47.8198V64.9104H41.7152V54.706L32.6074 47.8198Z" fill="#2F2B24"/>
<path d="M7.24414 50.5282V64.9157H9.10771V49.1206L7.24414 50.5282Z" fill="#2F2B24"/>
<path d="M3.62305 64.9045H5.48662V51.8486L3.62305 53.2563V64.9045Z" fill="#2F2B24"/>
<path d="M0 64.9113H1.86357V54.5947L0 56.0024V64.9113Z" fill="#2F2B24"/>
<path d="M65.2484 51.1827C62.5091 51.1827 60.8301 49.6521 60.8301 46.6486V40.8191H63.0736V46.5907C63.0736 48.2517 63.9059 49.1129 65.2737 49.1129C66.6415 49.1129 67.4738 48.2806 67.4738 46.6631V40.8191H69.7173V46.5763C69.7173 49.6665 67.984 51.1827 65.2411 51.1827H65.2484Z" fill="#2F2B24"/>
<path d="M76.4782 51.1703C74.9331 51.1703 73.3735 50.6312 72.1504 49.5383L73.4784 47.9498C74.3975 48.7061 75.3601 49.1873 76.5253 49.1873C77.4444 49.1873 77.998 48.8219 77.998 48.2248V48.1958C77.998 47.6277 77.647 47.3346 75.9427 46.8968C73.8873 46.3721 72.5593 45.7605 72.5593 43.7341V43.7052C72.5593 41.8525 74.0465 40.6294 76.1308 40.6294C77.6181 40.6294 78.8846 41.0962 79.9195 41.9285L78.7543 43.6183C77.8497 42.9923 76.9631 42.6124 76.1019 42.6124C75.2407 42.6124 74.7883 43.0068 74.7883 43.5025V43.5315C74.7883 44.2009 75.2262 44.4615 76.9884 44.9138C79.0583 45.453 80.2234 46.1948 80.2234 47.9751V48.0041C80.2234 50.0305 78.6783 51.1667 76.4782 51.1667V51.1703Z" fill="#2F2B24"/>
<path d="M89.6508 51.0235V46.9273H85.5111V51.0235H83.2676V40.8191H85.5111V44.8574H89.6508V40.8191H91.8943V51.0235H89.6508Z" fill="#2F2B24"/>
<path d="M128.594 51.0235L123.789 44.6403V51.0235H121.574V40.8191H123.644L128.424 47.3108V40.8191H130.639V51.0235H128.594Z" fill="#2F2B24"/>
<path d="M84.6913 64.9075L81.5286 60.5652L80.349 61.7883V64.9075H78.1055V54.7031H80.349V59.1648L84.4886 54.7031H87.199L83.0448 59.0309L87.3871 64.9039H84.6913V64.9075Z" fill="#2F2B24"/>
<path d="M89.9121 64.9075V54.7031H97.5401V56.7006H92.1412V58.7704H96.8851V60.7679H92.1412V62.9101H97.6125V64.9075H89.9121Z" fill="#2F2B24"/>
<path d="M111.605 64.9075V54.7031H113.849V64.9075H111.605Z" fill="#2F2B24"/>
<path d="M117.16 64.8985V54.6941H124.788V56.6915H119.389V58.7614H124.133V60.7588H119.389V62.901H124.86V64.8985H117.16Z" fill="#2F2B24"/>
<path d="M128.213 64.9075V54.7031H130.456V62.8666H135.544V64.9075H128.213Z" fill="#2F2B24"/>
<path d="M142.221 64.9075H138.24V54.7031H142.221C145.427 54.7031 147.645 56.9032 147.645 59.7764V59.8053C147.645 62.6785 145.43 64.9075 142.221 64.9075ZM145.296 59.8053C145.296 57.996 144.059 56.7295 142.221 56.7295H140.487V62.8811H142.221C144.059 62.8811 145.296 61.6436 145.296 59.8343V59.8053Z" fill="#2F2B24"/>
<path d="M54.1618 49.1124C52.2946 49.145 51.0462 47.7084 51.0173 45.9606V45.9317C50.9847 44.1839 52.215 42.7328 54.0207 42.7003C55.0375 42.6822 55.9313 43.1273 56.5284 43.8293L57.9541 42.1285C56.9771 41.1805 55.6056 40.6015 54.0135 40.6304C50.8653 40.6847 48.6181 43.1019 48.6688 46.0004V46.0294C48.7195 48.9315 51.0209 51.2365 54.1691 51.1822C55.8227 51.1533 57.2231 50.4078 58.1748 49.3186L56.6623 47.8423C56.1014 48.5949 55.2076 49.0907 54.1618 49.1088V49.1124Z" fill="#2F2B24"/>
<path d="M103.31 40.8191H105.712V51.0235H103.574V44.3544L100.679 48.7221H100.614L97.7226 44.3544V51.0235H95.584V40.8191H97.9867L100.646 45.0999L103.31 40.8191Z" fill="#2F2B24"/>
<path d="M112.579 40.8101L108.236 51.0145H110.523L111.457 48.7275H115.77L116.704 51.0145H119.052L114.71 40.8101H112.579ZM112.26 46.7445L113.617 43.4371L114.974 46.7445H112.264H112.26Z" fill="#2F2B24"/>
<path d="M69.1099 54.7031L64.7676 64.9075H67.0545L67.9881 62.6206H72.3015L73.2351 64.9075H75.5835L71.2412 54.7031H69.1099ZM68.7914 60.6376L70.1484 57.3302L71.5054 60.6376H68.7951H68.7914Z" fill="#2F2B24"/>
<path d="M103.013 56.744V58.9152H107.815V60.956H103.013V64.9075H100.77V54.7031H108.542V56.744H103.013Z" fill="#2F2B24"/>
<path d="M62.3616 54.7031L59.9986 61.81L57.6321 54.7031H55.4682L53.1016 61.81L50.7387 54.7031H48.3359L52.0124 64.9075H54.2451L56.5501 57.902L58.8588 64.9075H61.0878L64.7643 54.7031H62.3616Z" fill="#2F2B24"/>
<path d="M144.964 48.5016L146.144 47.1845L144.725 45.6683L143.679 46.8986L142.409 45.3897C143.249 44.8975 143.777 43.9856 143.744 43.0448C143.697 41.6625 142.561 40.6204 141.107 40.6204C140.408 40.6204 139.764 40.8881 139.301 41.3694C138.838 41.8507 138.595 42.4948 138.621 43.1823C138.646 43.9531 139.163 44.5972 139.54 45.0459C138.331 45.5489 137.452 46.8118 137.492 48.0385C137.553 49.7826 139.058 51.2011 140.853 51.2011C141.856 51.2011 142.97 50.6547 143.647 49.902L144.559 51.0165H147.189L144.957 48.4944L144.964 48.5016ZM142.445 48.4148C141.971 49.0299 141.378 49.3665 140.86 49.3665C140.126 49.3665 139.482 48.7513 139.456 48.024C139.442 47.5717 139.789 46.895 140.803 46.4318L142.445 48.4148ZM141.182 44.1702C140.907 43.9205 140.589 43.5731 140.531 43.2221C140.473 42.8711 140.701 42.4369 141.193 42.4043C141.685 42.3718 141.986 42.7445 141.986 43.1534C141.986 43.6238 141.505 43.9965 141.182 44.1702Z" fill="#2F2B24"/>
</g>
</g>
</g>
<defs>
<clipPath id="clip0_37_1876">
<rect width="160" height="67" fill="white"/>
</clipPath>
<clipPath id="clip1_37_1876">
<rect width="148" height="31.1198" fill="white" transform="translate(0 33.9358)"/>
</clipPath>
</defs>
</svg>
