<svg width="160" height="67" viewBox="0 0 160 67" fill="none" xmlns="http://www.w3.org/2000/svg">
<g clip-path="url(#clip0_37_2120)">
<g clip-path="url(#clip1_37_2120)">
<path d="M62.3186 60.3327C62.0469 60.215 61.6425 59.7665 61.5689 59.4944C61.5319 59.3841 61.5098 57.2958 61.5098 54.8472C61.5098 50.5014 61.5174 50.3837 61.6718 49.7587C61.9218 48.7807 62.2306 48.1998 62.8336 47.6042C63.6275 46.8027 64.4219 46.4718 65.9438 46.3027C68.0688 46.06 69.7307 46.9865 70.6352 48.9278C70.966 49.641 71.0987 50.1999 71.1574 51.0749C71.2603 52.7662 70.7674 54.2 69.6941 55.3324C68.856 56.2148 67.9221 56.6119 66.6868 56.6119C65.8558 56.6119 65.1937 56.4428 64.7234 56.0972C64.5541 55.9795 64.3998 55.8766 64.3849 55.8766C64.3628 55.8766 64.3411 56.6781 64.3262 57.6635L64.3041 59.4429L64.1055 59.7885C63.7674 60.3547 62.9437 60.6047 62.3186 60.3327ZM67.1864 53.7368C68.4953 53.1044 68.7896 50.722 67.6942 49.5675C67.3042 49.1484 66.9513 49.0013 66.3189 49.0013C65.826 49.0013 65.7231 49.0234 65.4 49.2219C64.6643 49.6778 64.3041 50.5161 64.3555 51.6411C64.3925 52.4573 64.5763 52.928 65.0393 53.3765C65.6279 53.9574 66.4439 54.0897 67.1864 53.7368Z" fill="#2F2B24"/>
<path d="M25.9941 56.5102C23.8617 56.0249 22.6926 54.7381 22.3543 52.51C22.3028 52.2012 22.2808 50.3555 22.2955 47.5245L22.3175 43.039L22.5161 42.7376C22.972 42.0464 24.0676 41.9361 24.6485 42.539C25.0382 42.9361 25.0603 43.0905 25.0677 45.1641C25.075 46.2009 25.1044 47.054 25.1412 47.054C25.178 47.054 25.2441 47.0025 25.3029 46.9363C25.4647 46.7451 26.0971 46.4583 26.6118 46.348C29.0311 45.8406 31.2591 47.4952 31.8106 50.2158C31.9797 51.0615 31.9209 52.4659 31.6929 53.1939C31.1929 54.7748 30.1781 55.9219 28.8619 56.4073C28.3031 56.6131 26.6927 56.6646 25.9941 56.5102ZM27.656 53.8483C27.9575 53.7601 28.1413 53.6424 28.4281 53.3483C28.8693 52.8924 29.0384 52.4733 29.0972 51.6791C29.2149 50.1349 28.3472 48.9658 27.0972 48.9658C26.5604 48.9658 26.1412 49.1643 25.7441 49.5981C25.2515 50.1349 25.1118 50.5614 25.1118 51.5027C25.1118 52.1571 25.1412 52.2895 25.325 52.7012C25.5824 53.2527 26.053 53.7013 26.5383 53.8483C26.9868 53.988 27.178 53.988 27.656 53.8483Z" fill="#2F2B24"/>
<path d="M36.706 56.4636C35.3898 56.1106 34.2574 55.1988 33.6838 54.0296C33.2353 53.1031 33.125 52.6252 33.125 51.4633C33.125 50.3383 33.2573 49.7794 33.7353 48.853C34.1177 48.1103 35.0736 47.169 35.8089 46.8161C38.9487 45.2793 42.3312 47.0955 42.7063 50.5221C42.7798 51.1986 42.7357 51.6986 42.5739 51.956C42.3386 52.3237 42.1327 52.3457 39.0002 52.3457H36.0884L36.1398 52.5884C36.228 52.9781 36.456 53.3532 36.7281 53.559C37.2869 53.9929 38.4635 54.162 39.3164 53.934C39.5296 53.8752 40.0297 53.6767 40.4267 53.4929C40.9488 53.2502 41.243 53.1546 41.4856 53.1546C42.118 53.1546 42.5886 53.662 42.5886 54.3311C42.5886 55.2209 41.7062 55.9562 40.0959 56.3974C39.2429 56.6253 37.4487 56.6695 36.706 56.4636ZM39.9267 50.2721C39.9267 49.8162 39.2649 49.0074 38.6914 48.7647C37.6767 48.3309 36.4192 49.0589 36.1398 50.2354L36.0884 50.4339H38.0075H39.9267V50.2721Z" fill="#2F2B24"/>
<path d="M46.6192 56.4938C44.8913 56.1261 44.0604 55.3393 44.281 54.3025C44.3839 53.8319 44.7663 53.4128 45.178 53.3393C45.4795 53.2804 45.7882 53.3687 46.9428 53.854C47.4357 54.0599 47.7074 54.1334 48.0531 54.1408C48.7446 54.1555 49.1192 53.8319 48.9576 53.3613C48.8547 53.0672 48.5826 52.9054 47.5237 52.501C45.7661 51.8392 45.0899 51.4054 44.7222 50.6994C44.5457 50.3612 44.5236 50.2435 44.5236 49.5523C44.5236 48.8317 44.5383 48.7435 44.7589 48.2802C45.5603 46.589 47.6194 45.8463 49.7001 46.5007C50.0237 46.6037 50.443 46.7948 50.6344 46.9272C51.5461 47.5375 51.7447 48.5817 51.0681 49.1773C50.6046 49.5818 50.3401 49.5597 49.1562 49.067C48.759 48.8979 48.3325 48.7803 48.0901 48.7582C47.7295 48.7288 47.6487 48.7508 47.4429 48.9273C47.0457 49.2582 47.1486 49.6994 47.6857 49.9788C47.7665 50.023 48.2152 50.1921 48.6782 50.3612C50.2593 50.9421 51.0605 51.4789 51.4577 52.2289C51.6414 52.5745 51.6563 52.6701 51.6563 53.4495C51.6563 54.2584 51.6414 54.3246 51.4211 54.7805C50.9946 55.6482 50.0973 56.31 49.0605 56.5306C48.5311 56.6409 47.2077 56.6262 46.6192 56.4938Z" fill="#2F2B24"/>
<path d="M80.4447 56.5369C79.658 56.3384 78.7391 55.7428 78.1948 55.0809C77.7538 54.5441 77.2609 53.5 77.0993 52.7573C76.9007 51.8749 76.9743 50.3749 77.2388 49.5881C77.5475 48.691 77.9005 48.1101 78.5256 47.4924C79.5845 46.4482 80.9304 46.0365 82.2687 46.3527C82.864 46.4923 83.1068 46.6247 83.5333 47.0218L83.8791 47.3454L84.0772 47.0512C84.7023 46.11 86.2392 46.3306 86.5556 47.4115C86.6071 47.588 86.6215 49.0072 86.607 51.6176L86.5849 55.5516L86.4085 55.8089C86.1805 56.1398 85.967 56.2942 85.5775 56.3972C85.0038 56.5516 84.4008 56.3163 84.0849 55.8236C84.0037 55.6913 83.9156 55.5884 83.8935 55.581C83.8714 55.581 83.7098 55.7207 83.5333 55.8825C83.3569 56.0516 83.026 56.2722 82.8053 56.3825C82.4451 56.5443 82.2831 56.5737 81.5478 56.5884C81.0848 56.5957 80.5847 56.5737 80.4447 56.5369ZM82.6288 53.7353C83.2097 53.4559 83.6141 52.8382 83.7613 52.0146C83.9229 51.0881 83.7098 50.2058 83.1876 49.6249C82.1215 48.441 80.3712 48.9189 79.8932 50.5293C79.7388 51.0587 79.7537 51.8676 79.9302 52.4485C80.3125 53.6765 81.5329 54.2574 82.6288 53.7353Z" fill="#2F2B24"/>
<path d="M91.6369 56.4722C89.7177 55.906 88.4309 54.3177 88.1588 52.1779C87.9602 50.6705 88.3939 49.0602 89.2984 47.9204C89.6956 47.4277 90.5116 46.8248 91.0998 46.6042C92.0413 46.2512 92.9751 46.1704 94.0484 46.3468C95.1886 46.538 95.931 46.9351 96.2104 47.5233C96.3797 47.8836 96.3576 48.4278 96.1662 48.8175C95.843 49.4572 95.2251 49.5896 94.3427 49.2146C93.9383 49.0381 93.7618 49.0087 93.166 49.0087C92.5265 49.0013 92.4385 49.016 92.0706 49.2219C91.3132 49.6411 90.9382 50.3984 90.9454 51.5014C90.9531 52.7588 91.5484 53.6339 92.5852 53.8912C93.0117 54.0015 93.7469 53.8986 94.512 53.6339C95.1515 53.4059 95.4309 53.4059 95.7397 53.6191C96.1147 53.8692 96.2768 54.1339 96.3061 54.5678C96.3725 55.3472 95.7916 55.9575 94.6 56.3619C93.8133 56.634 92.3572 56.6855 91.6369 56.4722Z" fill="#2F2B24"/>
<path d="M101.048 56.4655C99.7317 56.1125 98.5992 55.2008 98.0256 54.0316C97.5774 53.1051 97.4668 52.6271 97.4668 51.4653C97.4668 50.3402 97.5995 49.7814 98.0775 48.8549C98.4598 48.1122 99.4157 47.171 100.151 46.818C102.629 45.6048 105.357 46.4431 106.534 48.7814C107.056 49.8108 107.269 51.4433 106.945 51.8845C106.607 52.3477 106.585 52.3477 103.364 52.3477H100.43L100.482 52.5904C100.695 53.5757 101.607 54.1051 102.96 54.0242C103.629 53.9801 103.974 53.8772 104.894 53.4433C105.6 53.1125 106.004 53.0757 106.386 53.3036C106.739 53.5242 106.916 53.8551 106.916 54.3257C106.916 55.2449 106.07 55.9508 104.438 56.3993C103.585 56.6273 101.791 56.6714 101.048 56.4655ZM104.269 50.2741C104.269 49.8182 103.607 49.0093 103.033 48.7667C102.886 48.7005 102.577 48.649 102.357 48.649C101.526 48.649 100.658 49.3623 100.482 50.2006L100.43 50.4358H102.35H104.269V50.2741Z" fill="#2F2B24"/>
<path d="M110.968 56.4968C109.858 56.2541 109.064 55.8203 108.77 55.2982C108.461 54.7467 108.586 53.9599 109.042 53.5702C109.498 53.1878 109.769 53.2172 111.255 53.8349C112.049 54.1658 112.593 54.2393 112.946 54.0555C113.299 53.8717 113.432 53.5922 113.285 53.3128C113.13 53.0187 112.924 52.901 111.828 52.4819C110.13 51.8422 109.424 51.3862 109.064 50.695C108.887 50.3568 108.865 50.2391 108.865 49.5479C108.865 48.8273 108.88 48.7391 109.101 48.2758C109.579 47.2684 110.49 46.5919 111.689 46.3493C113.292 46.0257 115.218 46.6655 115.674 47.6729C115.968 48.3126 115.755 49.0553 115.196 49.32C115.027 49.4082 114.807 49.4744 114.719 49.4744C114.623 49.4744 114.167 49.32 113.696 49.1288C113.167 48.9229 112.682 48.7759 112.432 48.7538C112.064 48.7244 111.99 48.7464 111.784 48.9229C111.388 49.2612 111.49 49.695 112.042 49.9818C112.13 50.0259 112.601 50.2098 113.086 50.3862C114.645 50.9598 115.358 51.4377 115.777 52.2098C115.983 52.5775 115.998 52.6437 115.998 53.4452C115.998 54.254 115.983 54.3202 115.762 54.7761C115.336 55.6438 114.439 56.3056 113.402 56.5262C112.88 56.6365 111.549 56.6217 110.968 56.4968Z" fill="#2F2B24"/>
<path d="M55.5098 56.3882C55.2011 56.2999 54.9438 56.0941 54.7673 55.8073C54.5981 55.5426 54.5981 55.5058 54.5615 52.3439L54.5245 49.1452L54.2307 49.1232C53.532 49.0864 53.304 49.0202 53.0612 48.807C52.6496 48.4467 52.5539 47.6746 52.841 47.1084C52.9876 46.8216 53.4584 46.6084 54.0542 46.5569L54.5615 46.5128V45.3436C54.5615 44.1083 54.6274 43.8215 54.9804 43.5053C55.4954 43.0421 56.3778 43.0568 56.9072 43.5421C57.2746 43.8803 57.3558 44.1965 57.3558 45.4025V46.5201L58.0762 46.5496C58.885 46.5789 59.1865 46.704 59.4659 47.1231C59.7087 47.4687 59.7087 48.2481 59.4659 48.6011C59.2014 48.9982 58.8999 49.1085 58.0762 49.1085H57.3558V52.1454C57.3558 53.9984 57.326 55.2779 57.2823 55.447C57.0764 56.175 56.2527 56.6162 55.5098 56.3882Z" fill="#2F2B24"/>
<path d="M73.4958 56.3276C73.1356 56.1585 72.9149 55.9232 72.7605 55.5629C72.6653 55.3203 72.6504 54.5408 72.6504 49.2759C72.6504 43.5992 72.6576 43.2462 72.7899 42.9668C73.2606 41.93 74.7239 41.8491 75.2755 42.8197L75.4447 43.1138V49.2759C75.4447 55.3129 75.4447 55.4453 75.2976 55.7247C74.9888 56.335 74.1209 56.6218 73.4958 56.3276Z" fill="#2F2B24"/>
<path fill-rule="evenodd" clip-rule="evenodd" d="M7.90462 46.3144C6.55548 46.3144 5.4002 47.1706 4.9641 48.3769C4.83597 48.7314 4.77273 49.1163 4.78022 49.5037C4.78149 49.5712 4.78 49.6381 4.7758 49.7044C4.79074 49.7688 4.8032 49.8343 4.81299 49.9009C5.03442 51.4074 6.33649 52.5647 7.90462 52.5647C9.63059 52.5647 11.0298 51.1655 11.0298 49.4395C11.0298 47.7136 9.63059 46.3144 7.90462 46.3144ZM0.0632895 50.0939C0.0528037 50.2583 0.059263 50.4263 0.0841839 50.5959C0.645361 54.4142 3.9307 57.3443 7.90462 57.3443C12.2703 57.3443 15.8094 53.8052 15.8094 49.4395C15.8094 45.0739 12.2703 41.5348 7.90462 41.5348C4.47883 41.5348 1.56783 43.7128 0.46918 46.752C0.138339 47.6672 -0.0170858 48.6349 0.0014866 49.596C0.0047929 49.7671 0.0260013 49.9337 0.0632895 50.0939Z" fill="#2F2B24"/>
<path fill-rule="evenodd" clip-rule="evenodd" d="M13.4197 47.053C14.7395 47.053 15.8095 48.123 15.8095 49.4429C15.8095 53.8085 12.2704 57.3476 7.90477 57.3476C3.93083 57.3476 0.64549 54.4174 0.0843109 50.5992C-0.107611 49.2934 0.795384 48.0792 2.10121 47.8873C3.40703 47.6954 4.62118 48.5984 4.8131 49.9042C5.03453 51.4107 6.33659 52.568 7.90477 52.568C9.63069 52.568 11.0299 51.1688 11.0299 49.4429C11.0299 48.123 12.0998 47.053 13.4197 47.053Z" fill="#2F2B24"/>
<path fill-rule="evenodd" clip-rule="evenodd" d="M2.3898 47.1254C3.70966 47.1254 4.77959 48.1954 4.77959 49.5152V63.56C4.77959 64.8798 3.70966 65.9497 2.3898 65.9497C1.06995 65.9497 0 64.8798 0 63.56V49.5152C0 48.1954 1.06995 47.1254 2.3898 47.1254Z" fill="#2F2B24"/>
<path fill-rule="evenodd" clip-rule="evenodd" d="M2.3898 33.0804C3.70966 33.0804 4.77959 34.1504 4.77959 35.4702V49.5149C4.77959 50.8348 3.70966 51.9047 2.3898 51.9047C1.06995 51.9047 0 50.8348 0 49.5149V35.4702C0 34.1504 1.06995 33.0804 2.3898 33.0804Z" fill="#2F2B24"/>
</g>
</g>
<defs>
<clipPath id="clip0_37_2120">
<rect width="116" height="32.9487" fill="white" transform="translate(0 33)"/>
</clipPath>
<clipPath id="clip1_37_2120">
<rect width="115.997" height="32.9487" fill="white" transform="translate(0 33)"/>
</clipPath>
</defs>
</svg>
