<svg width="160" height="67" viewBox="0 0 160 67" fill="none" xmlns="http://www.w3.org/2000/svg">
<g clip-path="url(#clip0_37_1820)">
<g clip-path="url(#clip1_37_1820)">
<path d="M8.85328 28.8593C12.1393 26.5149 16.0953 25.1334 20.1234 24.9127C23.4456 24.7093 26.8133 25.2905 29.8781 26.5911C30.7707 26.9587 31.6298 27.4205 32.3922 28.0166C33.5446 28.8994 34.5055 30.072 35.0068 31.4465C35.4507 32.6207 35.5332 33.9457 35.1574 35.1505C34.8994 35.9752 34.434 36.7386 33.8033 37.3316C32.3662 34.9086 30.3441 32.8382 27.9468 31.3617C23.735 28.6944 18.3631 28.0119 13.5984 29.4398C9.31141 30.6996 5.55312 33.6763 3.35508 37.5735C2.24666 39.5315 1.52968 41.7126 1.26924 43.9486C1.22453 44.4945 1.201 45.0419 1.17119 45.5885C1.38848 45.5116 1.60813 45.4393 1.8364 45.4063C2.85303 45.2642 3.88147 45.2917 4.90437 45.2595C5.49662 45.2068 6.10694 45.2477 6.67565 45.0466C7.63819 44.7293 8.23279 43.7829 9.20628 43.4884C10.3186 43.1012 11.5039 43.0109 12.6712 42.9433C13.5145 42.9182 14.3954 42.9119 15.1681 43.2991C16.0953 43.819 17.119 44.1693 18.1757 44.2958C19.3947 44.434 20.6231 44.4646 21.8492 44.4529C28.8135 44.456 35.7786 44.4474 42.743 44.4576C42.8245 46.0991 42.7886 47.7523 42.5052 49.375C41.9665 52.6289 40.6336 55.7485 38.6575 58.3875C37.0525 60.5388 35.0296 62.3672 32.7625 63.7982C28.7627 66.273 23.939 67.3704 19.2645 66.8958C16.0145 66.5904 12.8422 65.5221 10.059 63.8171C7.57934 62.2611 5.39073 60.2279 3.72377 57.8142C1.79404 55.0573 0.558536 51.8199 0.155329 48.4781C-0.252584 45.1723 0.145916 41.7683 1.31553 38.6487C2.77224 34.7271 5.45977 31.2886 8.85328 28.8593ZM1.17276 46.2695C1.22061 47.1374 1.23473 48.01 1.40495 48.8653C2.17528 53.3908 4.88947 57.5166 8.68071 60.0841C11.3274 61.8991 14.4825 62.9648 17.6869 63.122C18.3678 63.1008 19.0488 63.166 19.7304 63.1204C22.7137 62.9405 25.6522 61.9942 28.1663 60.3722C30.4396 58.9309 32.3592 56.9418 33.747 54.6357C34.2145 53.8612 34.5597 52.9314 34.351 52.0187C34.1619 51.1114 33.4738 50.4063 32.7405 49.891C31.2932 48.9202 29.5864 48.4419 27.9005 48.0751C26.1151 47.7115 24.2967 47.5222 22.4776 47.4539C21.5111 47.3942 20.5384 47.3966 19.5735 47.4751C18.56 47.512 17.5332 47.6063 16.5722 47.9518C16.0576 48.1278 15.565 48.3618 15.0849 48.6147C14.2573 49.0106 13.3223 48.932 12.4327 48.914C11.4545 48.8668 10.47 48.7655 9.52554 48.4914C9.16471 48.3768 8.79524 48.2558 8.48381 48.0335C8.06491 47.7194 7.66092 47.3848 7.23105 47.0863C6.50072 46.6009 5.58842 46.6339 4.74906 46.6072C4.19837 46.6112 3.65004 46.5609 3.09936 46.5546C2.45141 46.5295 1.78227 46.5161 1.17276 46.2695Z" fill="#2F2B24"/>
<path opacity="0.5" d="M11.5019 31.4495C13.777 30.2971 16.3483 29.744 18.8952 29.8344C20.666 29.8917 22.4249 30.2664 24.081 30.8965C26.2446 31.7504 28.2618 32.972 30.0287 34.4859C29.8173 35.7876 29.354 37.0658 28.5565 38.1264C27.7985 39.1665 26.7779 39.9937 25.6828 40.6568C25.5304 40.7785 25.4291 40.568 25.3403 40.4753C23.5012 38.1122 20.5976 36.7272 17.6516 36.4248C15.7332 36.2229 13.7605 36.4955 11.9804 37.2449C8.89608 38.5286 6.56521 41.3293 5.6319 44.5117C4.48651 44.5322 3.34189 44.5714 2.19727 44.6154C2.40545 42.873 2.84932 41.1501 3.60348 39.5609C5.21398 36.0657 8.04999 33.1512 11.5019 31.4495Z" fill="#2F2B24"/>
<path opacity="0.5" d="M2.12695 47.2748C3.11916 47.4241 4.12787 47.3008 5.12168 47.4241C5.0431 49.015 5.14286 50.6231 5.54196 52.1691C6.26 55.1601 8.00797 57.8962 10.4551 59.7652C12.4223 61.2908 14.761 62.2774 17.1689 62.8612C17.3668 62.9209 17.575 62.9217 17.78 62.9162L17.7761 63.0702C14.9283 62.6569 12.1269 61.7457 9.6758 60.2209C7.30014 58.7233 5.27722 56.633 3.98489 54.1308C2.86071 52.0221 2.25265 49.656 2.12695 47.2748Z" fill="#2F2B24"/>
<path opacity="0.3" d="M10.4319 39.6427C11.7226 38.7298 13.2404 38.1469 14.8061 37.9403C15.6435 37.8814 16.4841 37.8869 17.3224 37.9246C18.9289 38.0849 20.4836 38.6057 21.9189 39.3355C22.1138 39.4385 22.3031 39.5539 22.4869 39.6765C22.2088 40.8855 21.4075 41.8966 20.4946 42.7034C20.1113 43.0239 19.7263 43.3515 19.2785 43.5793C19.0963 43.6406 18.9329 43.5008 18.775 43.434C17.3373 42.6751 15.7166 42.313 14.1006 42.2305C12.2702 42.2077 10.3431 42.199 8.66663 43.0381C7.99965 43.339 7.40101 43.7616 6.79297 44.1631C6.82125 44.0382 6.84718 43.9117 6.90059 43.7946C7.67285 42.1213 8.95258 40.7229 10.4319 39.6427Z" fill="#2F2B24"/>
<path opacity="0.3" d="M5.82546 47.491C6.09651 47.5146 6.4131 47.4353 6.63855 47.6277C7.06672 47.9601 7.52393 48.2531 7.94502 48.594C8.20033 48.8014 8.50281 48.9381 8.81469 49.0379C8.82569 49.6452 8.6615 50.2406 8.70076 50.8503C8.63557 52.511 9.03857 54.1733 9.77704 55.6565C10.9413 58.0456 12.943 59.9248 15.1584 61.3396C15.8639 61.7781 16.5874 62.1911 17.3361 62.5533C17.4751 62.6146 17.5883 62.7175 17.6708 62.8464C17.3471 62.8393 17.0533 62.6987 16.7555 62.591C15.8199 62.2445 14.885 61.8865 14.0051 61.4135C12.7733 60.8148 11.602 60.0804 10.5611 59.187C8.32681 57.3731 6.62994 54.8412 6.02344 52.0097C5.87418 51.3971 5.79246 50.7701 5.73591 50.1432C5.72256 49.2586 5.68327 48.367 5.82546 47.491Z" fill="#2F2B24"/>
<path d="M99.7126 33.8516C100.979 33.8399 102.247 33.8659 103.514 33.8399C103.523 35.5928 103.506 37.3469 103.523 39.1011C104.173 38.564 104.807 37.9139 105.679 37.7708C106.829 37.4835 108.175 38.1063 108.568 39.2545C108.803 40.0217 108.805 40.8396 108.824 41.6367C108.823 42.9332 108.82 44.2296 108.824 45.5274C108.817 45.8927 108.896 46.2516 109.031 46.591C109.282 46.669 109.53 46.7523 109.786 46.8173C109.796 46.9356 109.805 47.0552 109.815 47.1762C108.23 47.184 106.643 47.1814 105.057 47.1788L105.062 46.8615C105.343 46.738 105.679 46.6521 105.849 46.3739C106.019 45.8966 105.982 45.383 105.989 44.8876C105.983 43.3246 106.001 41.7616 105.978 40.1986C105.965 39.7668 105.829 39.2246 105.356 39.0933C104.542 38.919 103.914 39.6433 103.545 40.2701C103.481 41.4586 103.533 42.6549 103.516 43.8473C103.533 44.6561 103.462 45.4805 103.628 46.279C103.729 46.7744 104.487 46.6261 104.515 47.1593C102.9 47.1983 101.284 47.1866 99.6699 47.1658C99.6814 46.6807 100.248 46.7692 100.512 46.487C100.745 46.1333 100.661 45.6821 100.698 45.2829C100.704 42.1153 100.702 38.9489 100.698 35.7826C100.667 35.3769 100.745 34.9322 100.515 34.5733C100.323 34.3418 100 34.3067 99.7309 34.2261C99.727 34.1325 99.7178 33.9452 99.7126 33.8516Z" fill="#2F2B24"/>
<path d="M135.337 33.8631C136.725 33.8463 138.114 33.8631 139.503 33.8502C139.515 37.4898 139.5 41.1281 139.511 44.7678C139.533 45.2268 139.467 45.7521 139.788 46.1293C140.034 46.31 140.355 46.3152 140.644 46.3854C140.629 46.5037 140.616 46.6221 140.606 46.743C139.294 46.9394 138 47.2501 136.69 47.4673C136.696 46.9966 136.698 46.5285 136.694 46.059C136.19 46.6299 135.615 47.2202 134.846 47.3984C133.853 47.5973 132.735 47.3776 131.991 46.6585C130.819 45.6052 130.428 43.9434 130.496 42.4207C130.567 41.0709 130.965 39.6445 131.982 38.6978C132.866 37.8214 134.263 37.4599 135.441 37.9033C135.935 38.0879 136.311 38.4689 136.685 38.824C136.703 37.6393 136.709 36.4534 136.666 35.2701C136.668 34.9775 136.584 34.672 136.345 34.4873C136.049 34.2871 135.681 34.3014 135.343 34.2845C135.339 34.1427 135.338 34.0023 135.337 33.8631ZM134.354 38.8591C133.654 39.4221 133.57 40.4143 133.481 41.2478C133.44 42.4675 133.395 43.7171 133.721 44.9069C133.884 45.4232 134.147 46.0057 134.681 46.2242C135.597 46.4764 136.347 45.6013 136.683 44.8588C136.707 43.2841 136.703 41.7068 136.683 40.1321C136.328 39.27 135.326 38.348 134.354 38.8591Z" fill="#2F2B24"/>
<path d="M54.0158 38.1093C54.9975 37.675 56.1289 37.5827 57.1692 37.8518C57.5552 37.9416 57.9298 38.1184 58.3355 38.0911C59.2574 38.082 60.1793 38.1015 61.1015 38.0755C61.1051 38.4526 61.1051 38.8284 61.1091 39.2068C60.5305 39.2068 59.952 39.1964 59.3745 39.2094C60.0884 39.8895 60.4121 40.9206 60.1521 41.8816C59.8427 43.1871 58.5735 43.992 57.3434 44.2924C56.5398 44.5434 55.696 44.3028 54.8806 44.4237C54.3773 44.5954 54.0679 45.1845 54.294 45.6838C54.4333 45.9321 54.7115 46.0778 54.9886 46.1103C56.389 46.1896 57.8114 45.992 59.195 46.2832C59.8739 46.4081 60.5397 46.7865 60.8804 47.4028C61.2625 48.1765 61.2081 49.1544 60.7309 49.8774C60.3354 50.5431 59.6332 50.9735 58.9025 51.1842C57.4188 51.6316 55.8298 51.6496 54.311 51.3856C53.5737 51.2505 52.765 51.0438 52.2747 50.4313C51.9221 50.0282 51.9274 49.3611 52.2865 48.9645C52.6062 48.5861 53.1057 48.4496 53.5567 48.3001C52.9053 47.9035 52.2474 47.2819 52.3331 46.4471C52.4268 45.2833 53.4931 44.5473 54.4786 44.1351C53.9535 43.8698 53.3983 43.6422 52.9548 43.2456C52.3229 42.6826 51.969 41.8244 52.0238 40.9791C51.9976 39.7217 52.9158 38.619 54.0158 38.1093ZM55.9521 38.3616C55.5333 38.4903 55.2017 38.8427 55.0729 39.2588C54.8154 40.0221 54.8636 40.8413 54.8584 41.6371C54.8649 42.2899 54.9469 43.0168 55.4202 43.5109C55.7075 43.8282 56.1847 43.862 56.5762 43.7593C57.0039 43.5551 57.32 43.1494 57.4083 42.6839C57.5903 41.8712 57.5526 41.026 57.5021 40.2003C57.4434 39.6164 57.3421 38.9571 56.8609 38.5618C56.6166 38.3395 56.2667 38.2745 55.9521 38.3616ZM54.5137 48.629C54.1667 48.7188 53.8663 48.9762 53.7298 49.3091C53.6167 49.8449 54.0289 50.3286 54.4852 50.5458C55.207 50.8656 56.0131 50.8318 56.7855 50.8305C57.4748 50.8318 58.1794 50.7369 58.8051 50.4313C59.1744 50.2506 59.5148 49.8839 59.463 49.4444C59.4669 48.8306 58.6932 48.6642 58.2082 48.6069C56.9793 48.5575 55.735 48.4769 54.5137 48.629Z" fill="#2F2B24"/>
<path d="M65.5429 37.8243C66.8237 37.5343 68.249 37.7996 69.2866 38.624C70.1019 39.2157 70.5791 40.1675 70.8314 41.1233C71.2046 42.6967 71.0199 44.4756 70.0485 45.8058C69.349 46.811 68.1539 47.4312 66.9329 47.4598C65.8109 47.5366 64.6145 47.2648 63.7811 46.4716C61.6562 44.4704 61.6926 40.6669 63.846 38.6994C64.3101 38.2482 64.9149 37.9635 65.5429 37.8243ZM66.1788 38.5239C65.6105 38.7671 65.3999 39.3977 65.3193 39.9621C65.1671 41.425 65.132 42.8995 65.1907 44.3689C65.2671 44.9853 65.2698 45.6485 65.6079 46.1946C65.9083 46.6913 66.6 46.9514 67.1254 46.6471C67.6091 46.4222 67.8108 45.8773 67.8797 45.3832C68.0669 44.0127 68.0423 42.6239 68.0371 41.2442C68.0046 40.4315 68.0161 39.5317 67.5078 38.849C67.2152 38.4316 66.6275 38.3354 66.1788 38.5239Z" fill="#2F2B24"/>
<path d="M75.7022 37.8426C76.8646 37.5578 78.1469 37.7346 79.1649 38.3731C79.9205 38.862 80.5355 39.5811 80.8424 40.4328C81.4092 41.9035 81.3911 43.6135 80.7398 45.0556C80.2131 46.1582 79.2236 47.075 78.0102 47.3454C76.6826 47.6237 75.1651 47.4716 74.1041 46.5574C72.1029 44.7513 71.909 41.3951 73.541 39.2885C74.0507 38.5629 74.8414 38.0441 75.7022 37.8426ZM76.3342 38.5539C75.9686 38.7372 75.7449 39.1065 75.6606 39.4966C75.4251 40.451 75.4409 41.4432 75.416 42.4211C75.4084 43.4522 75.3707 44.4951 75.5773 45.5133C75.6672 45.9372 75.8672 46.3728 76.2523 46.6082C76.6619 46.8994 77.2496 46.7954 77.615 46.4781C77.9374 46.1868 78.0636 45.7486 78.1299 45.3351C78.3027 43.8488 78.2886 42.3496 78.265 40.8568C78.2092 40.1247 78.1859 39.2912 77.637 38.7346C77.3106 38.3796 76.7475 38.3666 76.3342 38.5539Z" fill="#2F2B24"/>
<path d="M84.5836 37.864C85.3285 37.6559 86.1477 37.6481 86.8682 37.9537C87.1087 38.0434 87.3376 38.1826 87.5976 38.2164C87.9981 38.2684 88.1634 37.4778 88.5612 37.7626C88.6015 38.8145 88.7238 39.8665 88.6914 40.9198C88.6159 40.9107 88.4664 40.8925 88.391 40.8834C87.885 39.9614 87.3858 38.8405 86.2687 38.5454C85.7187 38.3074 85.0113 38.5909 84.8358 39.1773C84.7188 39.6481 85.1376 39.9991 85.4573 40.2696C86.4625 41.0901 87.6613 41.674 88.5494 42.6349C89.7576 43.9691 89.2244 46.3578 87.621 47.125C86.7784 47.5775 85.7512 47.5359 84.8644 47.2355C84.5367 47.1445 84.2206 46.9573 83.871 46.9924C83.5158 47.0145 83.4391 47.6439 83.0386 47.4085C82.9855 46.3149 82.9543 45.22 82.8789 44.1277C82.9776 44.1342 83.174 44.1485 83.2728 44.1563C83.607 45.233 84.356 46.2408 85.4482 46.6257C85.8824 46.731 86.434 46.757 86.7603 46.3942C87.0581 46.1341 87.0723 45.6998 86.9853 45.3435C86.8135 44.9066 86.4222 44.618 86.0608 44.3462C85.2258 43.7584 84.3455 43.2201 83.6174 42.4984C82.9711 41.8638 82.6031 40.9081 82.8021 40.0069C82.9658 39.0512 83.6381 38.154 84.5836 37.864Z" fill="#2F2B24"/>
<path d="M94.315 37.7694C95.4137 37.5535 96.6048 37.9436 97.3513 38.7837C98.2522 39.6978 98.4785 41.0241 98.5644 42.2543C96.8636 42.2712 95.1628 42.2712 93.4633 42.253C93.4292 43.3674 93.7922 44.5169 94.5751 45.3296C95.0743 45.838 95.8597 46.1189 96.5553 45.8887C97.2821 45.7197 97.7334 45.0643 98.1535 44.5C98.2457 44.5221 98.433 44.5676 98.5254 44.5897C98.065 45.8939 97.0119 47.1045 95.6062 47.3841C94.5059 47.5805 93.2734 47.4608 92.3695 46.7509C91.5451 46.1514 91.0731 45.1839 90.8494 44.2126C90.5867 42.9084 90.6454 41.5118 91.1732 40.2791C91.7494 39.0203 92.9169 37.9736 94.315 37.7694ZM94.0586 38.7356C93.4476 39.547 93.3423 40.6028 93.3695 41.5885C94.272 41.5846 95.1756 41.5833 96.0782 41.5872C95.9909 40.5521 96.1965 39.2544 95.2848 38.5184C94.9066 38.3234 94.32 38.352 94.0586 38.7356Z" fill="#2F2B24"/>
<path d="M114.818 37.7495C115.802 37.5766 116.863 37.8652 117.592 38.5557C118.658 39.4542 118.974 40.9171 119.024 42.25C117.315 42.2604 115.605 42.2552 113.896 42.2513C113.939 43.3709 114.259 44.5529 115.089 45.3513C115.613 45.8792 116.444 46.1159 117.151 45.8454C117.809 45.6243 118.238 45.0457 118.615 44.4982C118.753 44.5242 118.892 44.5542 119.03 44.5919C118.505 45.8168 117.571 47.0118 116.219 47.3434C115.098 47.5879 113.833 47.476 112.889 46.7764C111.876 46.0405 111.362 44.7973 111.219 43.5854C111.139 42.5139 111.168 41.3983 111.595 40.3957C112.135 39.0524 113.37 37.9705 114.818 37.7495ZM114.848 38.4582C113.906 39.176 113.844 40.488 113.831 41.5738C114.732 41.5764 115.634 41.5751 116.535 41.5764C116.517 40.6141 116.605 39.5336 116.003 38.7156C115.757 38.3294 115.237 38.3528 114.848 38.4582Z" fill="#2F2B24"/>
<path d="M121.151 39.0451C121.975 38.1478 123.226 37.8371 124.395 37.72C125.366 37.6771 126.448 37.7629 127.211 38.4352C127.728 38.8474 128.105 39.4547 128.106 40.1321C128.145 41.8486 128.098 43.5676 128.131 45.2854C128.122 45.552 128.227 45.799 128.339 46.037C128.642 46.0591 128.89 45.9135 129.084 45.6911C129.195 45.7665 129.302 45.8471 129.412 45.9304C128.958 46.5415 128.384 47.1592 127.595 47.2866C127.006 47.3672 126.33 47.3516 125.863 46.9329C125.533 46.6911 125.409 46.2841 125.314 45.907C124.612 46.4115 123.918 46.9745 123.067 47.206C122.35 47.4245 121.468 47.3711 120.924 46.8003C120.225 46.1527 120.262 44.9993 120.764 44.2451C121.391 43.2816 122.483 42.807 123.451 42.2608C124.046 41.9175 124.719 41.7043 125.297 41.3389C125.368 40.612 125.362 39.8604 125.208 39.1439C124.769 38.2779 123.439 38.2909 122.818 38.9385C122.6 39.2934 123.009 39.5847 123.17 39.8708C123.491 40.2401 123.49 40.8343 123.165 41.201C122.533 41.9539 121.17 41.768 120.708 40.9201C120.373 40.2869 120.724 39.5418 121.151 39.0451ZM123.499 43.6041C123.154 44.0683 123.002 44.764 123.374 45.2581C123.838 45.9395 124.954 45.6222 125.325 45.0097C125.343 44.0267 125.329 43.0436 125.327 42.0619C124.628 42.4533 123.985 42.963 123.499 43.6041Z" fill="#2F2B24"/>
<g opacity="0.5">
<path d="M76.0833 51.9784C76.8128 51.293 77.9196 51.4777 78.753 51.8522C78.9258 51.7288 79.0976 51.6039 79.2731 51.4855C79.3056 52.2267 79.3213 52.9705 79.26 53.7104C79.0052 53.5389 78.9701 53.2188 78.8582 52.9588C78.6047 52.1696 77.5801 51.678 76.8324 52.089C76.4411 52.3035 76.1522 52.8705 76.5074 53.2476C77.2368 54.0538 78.3758 54.289 79.1783 55.0016C79.6476 55.4086 79.8153 56.0993 79.6256 56.6857C79.3797 57.3138 78.7789 57.7923 78.1003 57.8507C77.4605 57.9625 76.8481 57.7011 76.2316 57.5817C75.9807 57.5243 75.8272 57.7988 75.6334 57.9093C75.6153 57.1472 75.5776 56.3827 75.6635 55.6231C76.0197 56.0199 75.9781 56.6428 76.4058 56.9924C77.0092 57.5594 78.1859 57.6922 78.6906 56.9314C78.9753 56.5529 78.753 56.0288 78.4279 55.7572C77.6516 55.1682 76.6711 54.8691 75.9715 54.1748C75.3825 53.5792 75.4215 52.5065 76.0833 51.9784Z" fill="#2F2B24"/>
<path d="M102.927 51.9282C103.015 51.7566 103.057 51.49 103.307 51.5185C104.144 53.2882 104.828 55.1297 105.651 56.906C105.818 57.3051 106.244 57.4534 106.581 57.6692C105.716 57.7862 104.815 57.8135 103.954 57.6563C104.179 57.5314 104.412 57.4209 104.646 57.3117C104.589 56.7381 104.327 56.2206 104.093 55.7043C103.33 55.6991 102.567 55.6978 101.804 55.7122C101.581 56.2284 101.311 56.7342 101.235 57.2999C101.507 57.4078 101.78 57.5183 102.045 57.6472C101.341 57.8279 100.603 57.7459 99.8867 57.7082C100.26 57.4012 100.711 57.1425 100.883 56.6627C101.542 55.075 102.272 53.5185 102.927 51.9282ZM102.986 53.0816C102.632 53.8084 102.292 54.5446 102.006 55.3026C102.641 55.3104 103.276 55.317 103.911 55.3C103.625 54.5509 103.324 53.8071 102.986 53.0816Z" fill="#2F2B24"/>
<path d="M119.199 52.3115C119.826 51.7353 120.695 51.4467 121.543 51.5221C122.028 51.5365 122.458 51.7822 122.922 51.8901C123.119 51.7717 123.284 51.6119 123.466 51.4752C123.51 52.2112 123.615 52.9461 123.597 53.6873C123.243 53.3725 123.16 52.8769 122.853 52.5286C122.28 51.8406 121.208 51.7405 120.441 52.1384C119.756 52.4896 119.434 53.2698 119.337 53.9966C119.242 54.7991 119.236 55.6754 119.657 56.3946C120.307 57.5803 122.223 57.7754 123.081 56.721C123.28 56.4986 123.482 56.2658 123.77 56.1579C123.476 57.0329 122.649 57.6908 121.742 57.8301C120.721 58.0043 119.575 57.6987 118.898 56.882C117.822 55.5856 117.958 53.4545 119.199 52.3115Z" fill="#2F2B24"/>
<path d="M60.7559 51.6966C61.7037 51.6175 62.6634 51.6264 63.6115 51.6914C63.3773 51.9035 63.0562 51.9399 62.7778 52.0659C62.6414 52.3846 62.6516 52.7395 62.6453 53.0803C62.6516 54.2544 62.6427 55.4301 62.6479 56.6042C62.666 56.842 62.6453 57.1178 62.8077 57.3156C63.073 57.4494 63.3839 57.4989 63.6075 57.7095C62.6581 57.7563 61.6998 57.7718 60.752 57.699C60.9924 57.5261 61.2876 57.4664 61.5463 57.3284C61.7726 57.166 61.6843 56.8407 61.7168 56.6042C61.6972 55.0946 61.7558 53.5834 61.6817 52.0764C61.363 51.9724 61.0212 51.9127 60.7559 51.6966Z" fill="#2F2B24"/>
<path d="M65.8027 51.6915C66.3462 51.6304 66.8949 51.6291 67.4399 51.659C67.6167 51.6435 67.7246 51.801 67.8338 51.9138C68.982 53.2975 70.1184 54.6914 71.2719 56.0698C71.2604 54.8268 71.3201 53.5809 71.246 52.3405C71.2407 51.8384 70.5854 52.0076 70.3473 51.6878C71.1289 51.6278 71.917 51.6226 72.6972 51.6915C72.4722 51.9374 72.1315 51.9479 71.8284 52.0194C71.6503 53.958 71.8104 55.9124 71.7349 57.8565C71.5788 57.763 71.4136 57.681 71.2928 57.5456C70.0417 56.0947 68.8702 54.5746 67.5868 53.1519C67.5868 54.5575 67.4931 55.975 67.6453 57.3741C67.9391 57.4482 68.2343 57.5197 68.5179 57.6342C67.8013 57.8513 67.0418 57.6978 66.3059 57.7434C66.2655 57.6991 66.1838 57.6082 66.1422 57.5626C66.4022 57.5053 66.6699 57.4741 66.9171 57.3701C67.1303 57.0229 67.0615 56.5899 67.0822 56.2039C67.0536 54.9905 67.1186 53.776 67.0536 52.5668C66.9172 51.9738 66.1875 52.0283 65.8027 51.6915Z" fill="#2F2B24"/>
<path d="M82.4375 51.6697C82.9849 51.6307 83.5336 51.6527 84.0836 51.6438C84.4867 51.6477 84.9094 51.5943 85.2878 51.7737C85.0055 51.8764 84.7103 51.9416 84.4204 52.0157C84.241 52.792 84.3204 53.5916 84.3099 54.3797C84.3256 55.0947 84.2695 55.8244 84.4542 56.5226C84.592 57.0401 85.1278 57.3523 85.6362 57.3976C86.3229 57.4731 87.0953 57.2287 87.4892 56.6331C87.8142 55.931 87.6948 55.13 87.7181 54.381C87.6895 53.6228 87.787 52.8543 87.6531 52.104C87.3826 51.9039 87.0041 51.9311 86.7558 51.6891C87.5567 51.6451 88.3865 51.554 89.1732 51.753C88.8545 51.9311 88.2772 51.9052 88.2277 52.3706C88.0965 53.6306 88.2812 54.9064 88.1277 56.1664C88.0601 56.9024 87.4983 57.5485 86.7909 57.7436C86.1278 57.9243 85.4164 57.923 84.7533 57.7475C84.0537 57.5524 83.4854 56.9152 83.4283 56.1832C83.2905 54.9051 83.4516 53.6136 83.3411 52.3355C83.3086 51.8465 82.6507 52.0157 82.4375 51.6697Z" fill="#2F2B24"/>
<path d="M91.4668 51.7678C92.104 51.5481 92.7881 51.6861 93.4473 51.651C94.282 51.6691 95.2626 51.5392 95.9336 52.1528C96.5564 52.6559 96.5578 53.6742 96.0337 54.2476C95.7477 54.5338 95.3496 54.6585 94.9908 54.8224C95.4889 55.5233 95.9569 56.2501 96.5187 56.903C96.8451 57.3166 97.4095 57.3671 97.8034 57.6898C97.2353 57.7561 96.6578 57.7794 96.0884 57.7197C95.3158 56.925 94.7867 55.9172 94.0558 55.0825C93.8947 54.8769 93.6084 54.9563 93.385 54.9186C93.4201 55.6935 93.303 56.4842 93.4565 57.2501C93.6891 57.4973 94.0806 57.4908 94.3758 57.6377C93.9075 57.7925 93.4109 57.7404 92.9272 57.7469C92.4408 57.739 91.944 57.7899 91.4733 57.6429C91.7567 57.5193 92.0689 57.4557 92.3342 57.293C92.5461 56.6521 92.4136 55.9575 92.4474 55.2957C92.4057 54.2049 92.5514 53.0994 92.3369 52.0216C92.043 51.9501 91.7491 51.8734 91.4668 51.7678ZM93.385 52.1046C93.385 52.9409 93.3824 53.7769 93.3874 54.6145C93.8635 54.5663 94.3745 54.5598 94.7867 54.2866C95.4928 53.8681 95.4991 52.6874 94.7983 52.2607C94.3758 51.9915 93.8557 52.0748 93.385 52.1046Z" fill="#2F2B24"/>
<path d="M108.646 51.7527C109.229 51.5822 109.85 51.6251 110.449 51.6785C111.731 53.0517 112.824 54.6043 114.105 55.9851C114.141 55.0179 114.112 54.0491 114.126 53.0816C114.118 52.7605 114.148 52.43 114.053 52.1206C113.793 51.9114 113.437 51.8724 113.153 51.7005C113.956 51.65 114.797 51.5395 115.579 51.772C115.295 51.871 115.005 51.9452 114.715 52.0193C114.559 52.7982 114.632 53.5939 114.619 54.3833C114.61 55.5406 114.637 56.699 114.607 57.8564C114.068 57.6223 113.787 57.0723 113.41 56.6535C112.406 55.4702 111.432 54.261 110.421 53.0842C110.414 54.3013 110.41 55.5184 110.417 56.7355C110.447 56.9463 110.401 57.2257 110.593 57.3727C110.861 57.478 111.148 57.517 111.427 57.5977C110.654 57.881 109.796 57.716 108.991 57.7016C109.277 57.4104 109.947 57.4989 109.921 56.9644C109.971 55.5833 109.925 54.1986 109.951 52.8176C109.99 52.1049 109.152 51.958 108.646 51.7527Z" fill="#2F2B24"/>
<path d="M126.425 51.6969C128.042 51.6112 129.666 51.671 131.287 51.6644C131.298 52.1403 131.422 52.645 131.233 53.1039C131.078 52.8296 130.977 52.5292 130.792 52.277C130.627 52.0819 130.352 52.0845 130.12 52.0701C129.516 52.056 128.911 52.0753 128.306 52.0714C128.3 52.8309 128.295 53.5902 128.309 54.3497C128.891 54.3327 129.482 54.3992 130.06 54.3029C130.493 54.2274 130.458 53.6617 130.735 53.3954C130.795 54.1779 130.805 54.9673 130.729 55.7489C130.453 55.4744 130.516 54.9191 130.086 54.8178C129.5 54.6994 128.896 54.7659 128.303 54.762C128.311 55.6085 128.257 56.4576 128.365 57.3001C129.089 57.33 129.829 57.408 130.544 57.265C131.16 57.1233 131.263 56.3615 131.807 56.1181C131.694 56.6799 131.467 57.2092 131.27 57.7448C129.653 57.7176 128.032 57.8048 126.418 57.7006C126.685 57.5159 127.006 57.4444 127.288 57.2897C127.396 57.0322 127.376 56.7475 127.384 56.477C127.378 55.2573 127.384 54.0389 127.383 52.8205C127.387 52.5332 127.327 52.2521 127.249 51.9792C126.956 51.9363 126.621 51.957 126.425 51.6969Z" fill="#2F2B24"/>
</g>
</g>
</g>
<defs>
<clipPath id="clip0_37_1820">
<rect width="140.644" height="42.1682" fill="white" transform="translate(0 24.8318)"/>
</clipPath>
<clipPath id="clip1_37_1820">
<rect width="140.644" height="42.1671" fill="white" transform="translate(0 24.8318)"/>
</clipPath>
</defs>
</svg>
