<svg width="33" height="32" viewBox="0 0 33 32" fill="none" xmlns="http://www.w3.org/2000/svg">
<path opacity="0.12" d="M20.3886 20.0196C22.0709 18.7489 23.1663 17.3421 23.1663 15C23.1663 11.134 20.1816 8 16.4997 8C12.8178 8 9.83301 11.134 9.83301 15C9.83301 17.3421 10.9285 18.7489 12.6108 20.0196V23.2C12.6108 23.9467 12.6108 24.3201 12.7561 24.6053C12.8839 24.8562 13.0879 25.0602 13.3388 25.188C13.624 25.3333 13.9974 25.3333 14.7441 25.3333H18.2552C19.002 25.3333 19.3753 25.3333 19.6605 25.188C19.9114 25.0602 20.1154 24.8562 20.2432 24.6053C20.3886 24.3201 20.3886 23.9467 20.3886 23.2V20.0196Z" fill="#2F2B23"/>
<path d="M20.3889 20.0197L19.8615 19.3215C19.6426 19.4869 19.5139 19.7453 19.5139 20.0197H20.3889ZM12.6111 20.0197H13.4861C13.4861 19.7453 13.3574 19.4869 13.1385 19.3215L12.6111 20.0197ZM19.6609 25.1881L19.2636 24.4085L19.6609 25.1881ZM20.2436 24.6054L19.4639 24.2082L20.2436 24.6054ZM12.7564 24.6054L13.5361 24.2082L12.7564 24.6054ZM13.3391 25.1881L13.7364 24.4085L13.3391 25.1881ZM17.375 2.66675V1.79175H15.625V2.66675H17.375ZM15.625 4.00008V4.87508H17.375V4.00008H15.625ZM5.83333 15.5417H6.70833V13.7917H5.83333V15.5417ZM4.5 13.7917H3.625V15.5417H4.5V13.7917ZM7.88128 7.28547L8.5 7.90418L9.73744 6.66675L9.11872 6.04803L7.88128 7.28547ZM7.78539 4.7147L7.16667 4.09598L5.92923 5.33341L6.54795 5.95213L7.78539 4.7147ZM23.8813 6.04803L23.2626 6.66675L24.5 7.90418L25.1187 7.28547L23.8813 6.04803ZM26.4521 5.95213L27.0708 5.33341L25.8333 4.09598L25.2146 4.7147L26.4521 5.95213ZM28.5 15.5417H29.375V13.7917H28.5V15.5417ZM27.1667 13.7917H26.2917V15.5417H27.1667V13.7917ZM13.8333 28.4584H12.9583V30.2084H13.8333V28.4584ZM19.1667 30.2084H20.0417V28.4584H19.1667V30.2084ZM20.9163 20.7179C21.8038 20.0475 22.5939 19.2993 23.158 18.3633C23.7301 17.4143 24.0417 16.3189 24.0417 15.0001H22.2917C22.2917 16.0234 22.0555 16.8025 21.6592 17.46C21.255 18.1306 20.6563 18.7212 19.8615 19.3215L20.9163 20.7179ZM24.0417 15.0001C24.0417 10.6916 20.7049 7.12508 16.5 7.12508V8.87508C19.6589 8.87508 22.2917 11.5766 22.2917 15.0001H24.0417ZM16.5 7.12508C12.2951 7.12508 8.95833 10.6916 8.95833 15.0001H10.7083C10.7083 11.5766 13.3411 8.87508 16.5 8.87508V7.12508ZM8.95833 15.0001C8.95833 16.3189 9.26994 17.4143 9.84195 18.3633C10.4061 19.2993 11.1962 20.0475 12.0837 20.7179L13.1385 19.3215C12.3437 18.7212 11.745 18.1306 11.3408 17.46C10.9445 16.8025 10.7083 16.0234 10.7083 15.0001H8.95833ZM13.4861 23.2001V20.0197H11.7361V23.2001H13.4861ZM18.2556 24.4584H14.7444V26.2084H18.2556V24.4584ZM19.5139 20.0197V23.2001H21.2639V20.0197H19.5139ZM18.2556 26.2084C18.6145 26.2084 18.9363 26.2091 19.2025 26.1873C19.479 26.1648 19.7716 26.1137 20.0581 25.9677L19.2636 24.4085C19.2633 24.4086 19.2539 24.4137 19.2254 24.4204C19.1941 24.4278 19.1433 24.4364 19.06 24.4432C18.8816 24.4577 18.6434 24.4584 18.2556 24.4584V26.2084ZM19.5139 23.2001C19.5139 23.5879 19.5132 23.8261 19.4986 24.0046C19.4918 24.0878 19.4833 24.1386 19.4759 24.1699C19.4692 24.1985 19.4641 24.2078 19.4639 24.2082L21.0232 25.0026C21.1692 24.7161 21.2202 24.4235 21.2428 24.1471C21.2646 23.8808 21.2639 23.559 21.2639 23.2001H19.5139ZM20.0581 25.9677C20.4736 25.756 20.8115 25.4182 21.0232 25.0026L19.4639 24.2082C19.42 24.2944 19.3499 24.3645 19.2636 24.4085L20.0581 25.9677ZM11.7361 23.2001C11.7361 23.559 11.7354 23.8808 11.7572 24.1471C11.7798 24.4235 11.8308 24.7161 11.9768 25.0026L13.5361 24.2082C13.5359 24.2078 13.5308 24.1985 13.5241 24.1699C13.5167 24.1386 13.5082 24.0878 13.5014 24.0046C13.4868 23.8261 13.4861 23.5879 13.4861 23.2001H11.7361ZM14.7444 24.4584C14.3566 24.4584 14.1184 24.4577 13.94 24.4432C13.8567 24.4364 13.8059 24.4278 13.7746 24.4204C13.7461 24.4137 13.7367 24.4086 13.7364 24.4085L12.9419 25.9677C13.2284 26.1137 13.521 26.1648 13.7975 26.1873C14.0637 26.2091 14.3855 26.2084 14.7444 26.2084V24.4584ZM11.9768 25.0026C12.1885 25.4182 12.5264 25.756 12.9419 25.9677L13.7364 24.4085C13.6501 24.3645 13.58 24.2944 13.5361 24.2082L11.9768 25.0026ZM15.625 2.66675V4.00008H17.375V2.66675H15.625ZM5.83333 13.7917H4.5V15.5417H5.83333V13.7917ZM9.11872 6.04803L7.78539 4.7147L6.54795 5.95213L7.88128 7.28547L9.11872 6.04803ZM25.1187 7.28547L26.4521 5.95213L25.2146 4.7147L23.8813 6.04803L25.1187 7.28547ZM28.5 13.7917H27.1667V15.5417H28.5V13.7917ZM13.8333 30.2084H19.1667V28.4584H13.8333V30.2084Z" fill="#2F2B23"/>
</svg>
