<svg width="160" height="67" viewBox="0 0 160 67" fill="none" xmlns="http://www.w3.org/2000/svg">
<g clip-path="url(#clip0_37_2182)">
<mask id="mask0_37_2182" style="mask-type:luminance" maskUnits="userSpaceOnUse" x="0" y="40" width="99" height="27">
<path d="M98.8408 40.7539H0.5V66.918H98.8408V40.7539Z" fill="white"/>
</mask>
<g mask="url(#mask0_37_2182)">
<path fill-rule="evenodd" clip-rule="evenodd" d="M18.8951 41.5874L12.5571 53.5281L6.22001 41.5874H0.5V66.5623H5.70124V52.4364L12.42 62.9977H12.5571L19.3426 52.33V66.5623H24.6115V41.5874H18.8951Z" fill="#2F2B24"/>
<path fill-rule="evenodd" clip-rule="evenodd" d="M55.7134 50.1848C55.7134 52.2896 54.2337 53.7187 51.6498 53.7187H46.2763V46.5444H51.547C54.13 46.5444 55.7152 47.7651 55.7152 50.1126L55.7134 50.1848ZM87.2681 61.6699V56.4263H96.9582V51.5426H87.2681V46.4722H98.6832V41.5867H81.9974V51.5399H72.3095V56.4236H77.9979V59.649C76.7939 60.7954 75.2455 61.5127 73.5924 61.6898C69.4856 62.2004 66.2358 59.0138 65.7441 54.7608L65.7351 54.6895C65.2371 50.4428 67.7362 46.6066 71.7763 46.1032C74.1671 45.8055 76.1728 46.6265 78.2217 48.1386L81.1087 43.7169C78.6205 41.7266 75.737 40.5077 71.2241 41.0689C66.2791 41.6878 62.6495 44.7896 61.0481 48.8973C60.8803 46.9522 60.1829 45.3183 59.0272 44.1156C57.4438 42.4745 55.0665 41.584 52.0026 41.584H40.9722V46.4686H29.875V51.5408H39.2715V56.4245H29.875V61.6699H40.9722V66.5536H46.2772V58.5699H50.4445L55.6105 66.5626H61.8123L55.9182 57.6443C57.756 56.9378 59.2383 55.7424 60.1369 54.0363C60.1486 54.5046 60.1775 54.9782 60.2325 55.451V55.5232C61.0599 62.6434 66.9486 67.6245 73.9939 66.7439C77.7155 66.2802 80.0856 64.8619 81.9893 62.7318V66.5536H98.6742V61.6699L87.2672 61.6717L87.2681 61.6699Z" fill="#2F2B24"/>
</g>
</g>
<defs>
<clipPath id="clip0_37_2182">
<rect width="98.3408" height="26.1641" fill="white" transform="translate(0.5 40.7539)"/>
</clipPath>
</defs>
</svg>
