<svg width="160" height="67" viewBox="0 0 160 67" fill="none" xmlns="http://www.w3.org/2000/svg">
<mask id="mask0_37_2165" style="mask-type:luminance" maskUnits="userSpaceOnUse" x="0" y="30" width="156" height="42">
<path d="M155.203 30.7422H0.101562V71.2656H155.203V30.7422Z" fill="white"/>
</mask>
<g mask="url(#mask0_37_2165)">
<path d="M0.101562 57.5153V41.5883C0.101562 41.1469 0.598511 40.8724 0.996884 41.0918L15.3728 49.0546C15.7424 49.2595 15.9696 49.6378 15.9696 50.0464V65.9734C15.9696 66.4146 15.4727 66.6891 15.0743 66.4698L0.698447 58.5083C0.328816 58.3034 0.101562 57.9251 0.101562 57.5166V57.5153Z" fill="#2F2B24"/>
<path d="M1.96841 38.7352L16.1198 30.8959C16.4894 30.691 16.9439 30.691 17.3135 30.8959L31.4649 38.7352C31.9618 39.0111 31.9618 39.6994 31.4649 39.9752L17.3135 47.8146C16.9439 48.0195 16.4894 48.0195 16.1198 47.8146L1.96841 39.9752C1.47147 39.6994 1.47147 39.0111 1.96841 38.7352Z" fill="#464135"/>
<path d="M17.4609 65.9641V51.1943C17.4609 50.7529 17.9579 50.4784 18.3563 50.6978L31.4631 57.9592C31.96 58.235 31.96 58.9233 31.4631 59.1991L18.3563 66.4606C17.9579 66.6812 17.4609 66.4054 17.4609 65.9641Z" fill="#464135"/>
<path d="M79.1124 50.7066C78.9519 52.0096 78.3849 52.535 77.4213 52.535C76.2265 52.535 75.5939 51.7403 75.5939 50.0918V49.9276H81.01C81.0536 49.5085 81.07 49.1487 81.07 48.7651C81.07 46.2825 79.7609 44.8887 77.413 44.8887C74.8916 44.8887 73.5254 46.3534 73.5254 49.012V49.7726C73.5254 52.4299 74.8832 53.8906 77.3526 53.8906C79.5063 53.8906 80.8059 52.9133 81.1111 50.9548L79.1124 50.7078V50.7066ZM77.3952 46.2391C78.4645 46.2391 79.0029 46.9038 79.0029 48.3382V48.5602H75.595C75.6365 47.0101 76.2359 46.2391 77.3952 46.2391Z" fill="#2F2B24"/>
<path d="M39.4563 50.4311L41.5853 50.6859C41.3361 52.7771 40.0547 53.8923 37.8355 53.8923C35.3138 53.8923 34.0078 52.3344 34.0078 49.35V49.3159C34.0078 46.3984 35.3467 44.8721 37.8439 44.8721C40.0972 44.8721 41.3045 46.0214 41.4838 48.1927L39.4072 48.4305C39.3127 46.9304 38.8322 46.2421 37.8355 46.2421C36.6898 46.2421 36.1503 47.1274 36.1503 48.9901V49.6771C36.1503 51.5949 36.7061 52.5078 37.8603 52.5078C38.8431 52.5078 39.3621 51.8195 39.4563 50.4324V50.4311Z" fill="#2F2B24"/>
<path d="M46.364 44.8721C43.8863 44.8721 42.5117 46.5284 42.5117 49.2922V49.4721C42.5117 52.2175 43.8874 53.8923 46.364 53.8923C48.8407 53.8923 50.2163 52.2175 50.2163 49.4721V49.2922C50.2163 46.5284 48.8407 44.8721 46.364 44.8721ZM48.0725 49.7664C48.0725 51.629 47.5058 52.5143 46.3626 52.5143C45.2194 52.5143 44.6527 51.629 44.6527 49.7664V48.998C44.6527 47.1353 45.2074 46.2421 46.3626 46.2421C47.5182 46.2421 48.0725 47.1353 48.0725 48.998V49.7664Z" fill="#2F2B24"/>
<path d="M121.948 44.8721C119.47 44.8721 118.096 46.5284 118.096 49.2922V49.4721C118.096 52.2175 119.47 53.8923 121.948 53.8923C124.426 53.8923 125.803 52.2175 125.803 49.4721V49.2922C125.803 46.5284 124.424 44.8721 121.948 44.8721ZM123.658 49.7664C123.658 51.629 123.095 52.5143 121.948 52.5143C120.801 52.5143 120.241 51.629 120.241 49.7664V48.998C120.241 47.1353 120.795 46.2421 121.948 46.2421C123.101 46.2421 123.658 47.1353 123.658 48.998V49.7664Z" fill="#2F2B24"/>
<path d="M129.019 42.5393H126.934V53.6954H129.019V42.5393Z" fill="#2F2B24"/>
<path d="M92.8257 50.4311L94.9546 50.6859C94.7055 52.7771 93.4251 53.8923 91.2049 53.8923C88.6828 53.8923 87.377 52.3344 87.377 49.35V49.3159C87.377 46.3984 88.7159 44.8721 91.2133 44.8721C93.4666 44.8721 94.6742 46.0214 94.8532 48.1927L92.7766 48.4305C92.682 46.9304 92.2012 46.2421 91.2049 46.2421C90.0588 46.2421 89.5193 47.1274 89.5193 48.9901V49.6771C89.5193 51.5949 90.0755 52.5078 91.2293 52.5078C92.2124 52.5078 92.7311 51.8195 92.8257 50.4324V50.4311Z" fill="#2F2B24"/>
<path d="M137.143 51.3755C137.143 52.9413 135.878 53.8844 133.699 53.8844C131.375 53.8844 130.042 52.9071 129.984 51.168L131.964 50.783C131.948 51.9062 132.564 52.538 133.69 52.538C134.572 52.538 135.058 52.2096 135.058 51.5634C135.058 50.9171 134.624 50.6281 133.478 50.2195L132.332 49.8005C131.189 49.3815 130.207 48.5789 130.207 47.381C130.207 45.7902 131.36 44.8721 133.454 44.8721C135.547 44.8721 136.861 45.7837 136.869 47.381L134.93 47.7093C134.972 46.6913 134.445 46.2407 133.478 46.2407C132.633 46.2407 132.164 46.5455 132.164 47.0946C132.164 47.6436 132.573 48.0036 133.719 48.3976L134.862 48.7983C136.008 49.2015 137.143 49.8242 137.143 51.3741V51.3755Z" fill="#2F2B24"/>
<path d="M113.347 44.8721C110.869 44.8721 109.494 46.5284 109.494 49.2922V49.4721C109.494 52.2175 110.869 53.8923 113.347 53.8923C115.825 53.8923 117.202 52.2175 117.202 49.4721V49.2922C117.202 46.5284 115.823 44.8721 113.347 44.8721ZM115.056 49.7664C115.056 51.629 114.492 52.5143 113.347 52.5143C112.201 52.5143 111.639 51.629 111.639 49.7664V48.998C111.639 47.1353 112.194 46.2421 113.347 46.2421C114.499 46.2421 115.056 47.1353 115.056 48.998V49.7664Z" fill="#2F2B24"/>
<path d="M107.704 52.3082C108.089 52.3082 108.567 52.2097 109.02 52.0219L108.902 53.4826C108.429 53.7203 107.702 53.8832 107.02 53.8832C105.396 53.8832 104.561 53.0964 104.561 51.4085V43.1383L106.645 42.5393V45.0889H108.996V46.5391H106.645V51.1707C106.645 51.9917 106.996 52.3096 107.704 52.3096V52.3082Z" fill="#2F2B24"/>
<path d="M101.46 50.7066C101.299 52.0096 100.734 52.535 99.7694 52.535C98.5723 52.535 97.9412 51.7403 97.9412 50.0918V49.9276H103.357C103.401 49.5085 103.418 49.1487 103.418 48.7651C103.418 46.2825 102.109 44.8887 99.761 44.8887C97.2389 44.8887 95.873 46.3534 95.873 49.012V49.7726C95.873 52.4299 97.2312 53.8906 99.7006 53.8906C101.855 53.8906 103.153 52.9133 103.46 50.9548L101.46 50.7078V50.7066ZM99.7417 46.2391C100.811 46.2391 101.349 46.9038 101.349 48.3382V48.5602H97.9412C97.9827 47.0101 98.5825 46.2391 99.7417 46.2391Z" fill="#2F2B24"/>
<path d="M57.8055 47.3652C58.4475 45.6497 59.4361 44.8721 60.7092 44.8721C62.0848 44.8721 62.7185 45.8152 62.3875 47.3153L62.5588 47.3652C63.2004 45.6497 64.189 44.8721 65.4621 44.8721C66.8381 44.8721 67.4721 45.8152 67.1411 47.3153L67.3117 47.3652C67.9417 45.6431 68.923 44.8721 70.2659 44.8721C71.7267 44.8721 72.4211 45.7088 72.4211 47.3074V53.6861H70.3361V47.645C70.3361 46.7925 69.9935 46.3682 69.3093 46.3682C68.2672 46.3682 67.6692 47.5977 67.6692 49.2436V53.6874H65.5952V47.6621C65.5952 46.8267 65.2046 46.3682 64.556 46.3682C63.5154 46.3682 62.916 47.5977 62.916 49.2436V53.6874H60.8419V47.6621C60.8419 46.8267 60.4833 46.3577 59.8344 46.3577H59.8319V46.3695C59.8319 46.3695 59.8289 46.3695 59.8275 46.3695C58.7868 46.3695 58.1874 47.599 58.1874 49.2449V53.6887H56.1134V47.6634C56.1134 46.828 55.7548 46.359 55.1059 46.359C54.0983 46.359 53.4287 47.5413 53.4287 49.2949V53.6887H51.3438V45.0822H53.437C53.4563 45.6063 53.3519 46.0727 52.9591 47.2365L53.1304 47.31C53.9339 45.5472 54.7621 44.8747 55.9836 44.8747C57.3588 44.8747 57.9917 45.8178 57.66 47.3179L57.8084 47.3679L57.8055 47.3652Z" fill="#2F2B24"/>
<path d="M87.1995 46.6317C84.8727 46.7828 84.3278 47.5289 84.3278 49.9288V53.6908H82.2422V45.0843H84.3355C84.3548 45.6912 84.2696 46.126 83.8495 47.2806L84.0208 47.3541C84.6039 46.0524 85.2816 44.8545 87.3476 44.8137L87.1995 46.6304V46.6317Z" fill="#2F2B24"/>
</g>
</svg>
