<svg width="160" height="67" viewBox="0 0 160 67" fill="none" xmlns="http://www.w3.org/2000/svg">
<g clip-path="url(#clip0_37_2025)">
<mask id="mask0_37_2025" style="mask-type:luminance" maskUnits="userSpaceOnUse" x="12" y="40" width="18" height="25">
<mask id="mask1_37_2025" style="mask-type:luminance" maskUnits="userSpaceOnUse" x="12" y="40" width="18" height="25">
<path d="M17.2101 49.2776V53.3286H21.0919C23.2262 53.3286 24.9599 55.0208 24.9599 57.1137C24.9599 59.2065 23.2227 60.8988 21.085 60.8988C18.9473 60.8988 17.2101 59.1893 17.2101 57.093V45.5167C17.2101 43.7831 16.6161 42.0287 15.5455 40.6852C15.1415 40.2156 15.2727 40.2294 14.7927 40.6231C14.7789 40.6369 14.7685 40.6507 14.7547 40.6542L12.5272 42.8402C12.1542 43.2063 12.1922 43.0751 12.4512 43.4861C12.8483 44.087 13.0659 44.7984 13.0659 45.5202V57.1206C13.0659 61.4513 16.6645 64.9532 21.0885 64.9532C25.5124 64.9532 29.1041 61.4513 29.1041 57.1206C29.1041 52.7899 25.5159 49.2811 21.0885 49.2811H17.2136L17.2101 49.2776Z" fill="white"/>
</mask>
<g mask="url(#mask1_37_2025)">
<path d="M160.097 37.7406H1.23438V65.2998H160.097V37.7406Z" fill="white"/>
</g>
</mask>
<g mask="url(#mask0_37_2025)">
<mask id="mask2_37_2025" style="mask-type:luminance" maskUnits="userSpaceOnUse" x="12" y="40" width="18" height="26">
<path d="M29.2402 40.0095H12.1211V65.2963H29.2402V40.0095Z" fill="white"/>
</mask>
<g mask="url(#mask2_37_2025)">
<path d="M33.1029 66.5065H11.3457V38.5329H33.1029V66.5065Z" fill="#2F2B24"/>
</g>
</g>
<mask id="mask3_37_2025" style="mask-type:luminance" maskUnits="userSpaceOnUse" x="1" y="37" width="14" height="17">
<mask id="mask4_37_2025" style="mask-type:luminance" maskUnits="userSpaceOnUse" x="1" y="37" width="14" height="17">
<path d="M9.21008 41.8003C10.0562 41.8003 10.8056 42.0213 11.4445 42.4599L14.3628 39.5935C12.9123 38.3571 11.189 37.7424 9.20663 37.7424C4.81029 37.7424 1.23242 41.2684 1.23242 45.6026C1.23242 49.9368 4.81029 53.4594 9.21008 53.4594H12.0282V49.4015H9.21008C7.08271 49.4015 5.35249 47.6989 5.35249 45.6026C5.35249 43.5063 7.07926 41.8037 9.21008 41.8037V41.8003Z" fill="white"/>
</mask>
<g mask="url(#mask4_37_2025)">
<path d="M160.095 37.7424H1.23242V65.3015H160.095V37.7424Z" fill="white"/>
</g>
</mask>
<g mask="url(#mask3_37_2025)">
<mask id="mask5_37_2025" style="mask-type:luminance" maskUnits="userSpaceOnUse" x="1" y="37" width="14" height="17">
<path d="M14.4595 37.6719H1.23242V53.6238H14.4595V37.6719Z" fill="white"/>
</mask>
<g mask="url(#mask5_37_2025)">
<path d="M18.653 55.0834H0.00390625V36.4343H18.653V55.0834Z" fill="#2F2B24"/>
</g>
</g>
<path d="M157.523 55.5704C158.548 55.5704 159.374 56.3924 159.374 57.4008C159.374 58.4092 158.552 59.245 157.523 59.245C156.493 59.245 155.678 58.4231 155.678 57.4077C155.678 56.3924 156.5 55.5704 157.523 55.5704ZM157.523 55.9331C156.711 55.9331 156.079 56.5651 156.079 57.4008C156.079 58.2366 156.714 58.8824 157.523 58.8824C158.331 58.8824 158.966 58.2366 158.966 57.4008C158.966 56.5651 158.327 55.9331 157.523 55.9331ZM157.602 56.3889C157.996 56.3889 158.293 56.6618 158.293 57.0175C158.286 57.2903 158.106 57.5286 157.844 57.6115L158.3 58.3885H157.861L157.436 57.6426H157.284V58.3885H156.897V56.3889H157.602ZM157.547 56.717H157.288V57.311H157.547C157.775 57.311 157.899 57.204 157.899 57.0209C157.899 56.8241 157.771 56.717 157.554 56.717H157.547ZM137.285 47.244C141.319 47.244 143.166 50.3522 143.166 53.747C143.166 53.8989 143.159 54.0682 143.145 54.2408L143.132 54.3721L143.118 54.638H134.709C135.05 56.1748 136.135 56.9864 137.658 56.9864C138.777 56.9864 139.595 56.6445 140.514 55.826L140.59 55.75L142.551 57.4733C141.422 58.8582 139.802 59.7078 137.613 59.7078C134.021 59.7078 131.362 57.2316 131.307 53.6296V53.3774C131.359 49.9999 133.8 47.2405 137.278 47.2405L137.285 47.244ZM123.726 47.244C127.753 47.244 129.604 50.3522 129.604 53.747C129.604 53.8989 129.601 54.0682 129.587 54.2408L129.58 54.3721L129.559 54.638H121.157C121.495 56.1748 122.576 56.9864 124.11 56.9864C125.229 56.9864 126.047 56.6445 126.959 55.826L127.038 55.75L128.996 57.4733C127.871 58.8582 126.247 59.7078 124.065 59.7078C120.477 59.7078 117.81 57.2316 117.759 53.6296V53.3774C117.81 49.9999 120.249 47.2405 123.73 47.2405L123.726 47.244ZM66.2596 47.244C69.9652 47.244 72.7142 49.9412 72.7695 53.3291V53.5847C72.7142 56.976 69.9376 59.7147 66.2147 59.7147C62.4918 59.7147 59.7531 57.0244 59.7048 53.6296V53.3774C59.7566 49.9826 62.5367 47.2474 66.2596 47.2474V47.244ZM46.9094 43.5349C49.8346 43.5349 51.6063 44.4915 53.0567 45.8867L53.1258 45.9489L50.9155 48.4734C49.6999 47.3787 48.4601 46.7052 46.8818 46.7052C44.2537 46.7052 42.3473 48.8533 42.3093 51.4987V51.7025C42.3473 54.3513 44.2088 56.5409 46.8818 56.5409C48.574 56.5409 49.6481 55.9123 50.7947 54.9143L50.8776 54.8452L51.0295 54.714L53.2398 56.9242C51.6132 58.6475 49.8139 59.7181 46.7748 59.7181C42.1781 59.7181 38.7522 56.2335 38.6866 51.8095L38.6797 51.6783V51.4987C38.7488 47.1093 42.1125 43.5383 46.906 43.5383L46.9094 43.5349ZM149.22 47.2889C150.754 47.2889 152.425 47.8 153.727 48.6737L152.425 51.0187C151.227 50.328 150.032 49.9032 149.158 49.9032C148.284 49.9032 147.898 50.2589 147.898 50.7251V50.77C147.898 51.44 149.044 51.7577 150.346 52.1998L150.543 52.2689L150.747 52.3379C152.311 52.8836 153.952 53.7124 154.003 55.6706V55.7984C154.003 58.4576 151.997 59.6663 149.383 59.6663C147.69 59.6663 145.805 59.1103 144.202 57.8567L145.667 55.6222C146.975 56.5581 148.35 57.052 149.479 57.052C150.467 57.052 150.916 56.6963 150.916 56.1575V56.1126C150.916 55.3839 149.79 55.1353 148.492 54.752L148.17 54.6518L148.039 54.6138C146.475 54.113 144.862 53.3049 144.814 51.2155V51.0878C144.814 48.653 146.796 47.2889 149.227 47.2889H149.22ZM99.859 43.1343V59.4453H96.44V57.722C95.6042 58.8375 94.4576 59.6663 92.6791 59.6663C89.8852 59.6663 87.2329 57.5217 87.1811 53.595V53.3153C87.2329 49.3921 89.8403 47.244 92.6791 47.244C94.3955 47.244 95.4971 47.9796 96.2949 48.8637L96.3467 48.9224L96.44 49.0295V43.1343H99.8659H99.859ZM77.8289 47.465V54.1441C77.8289 55.7535 78.5956 56.5823 79.9045 56.5823C81.2134 56.5823 82.0146 55.7846 82.0457 54.227V47.465H85.4647V59.4453H82.0457V57.7496C81.2548 58.7511 80.2429 59.6663 78.5058 59.6663C75.9398 59.6663 74.441 58.0086 74.4099 55.3114V47.465H77.8289ZM110.188 43.8077C111.988 43.8077 113.411 44.2947 114.312 45.196C115.01 45.8867 115.369 46.7294 115.396 47.7551V47.9899C115.358 49.6994 114.426 50.6561 113.321 51.2708L113.483 51.333C115.186 52.0168 116.236 53.0425 116.27 55.0179V55.2458C116.225 58.019 113.939 59.4177 110.475 59.4522H102.864V43.8077H110.192H110.188ZM58.1507 43.1343V59.4453H54.7248V43.1343H58.1507ZM93.5528 50.1277C91.9746 50.1277 90.6415 51.3882 90.6035 53.3567V53.5605C90.6415 55.5048 91.978 56.7895 93.5528 56.7895C95.1276 56.7895 96.4469 55.5048 96.4849 53.5605V53.4396C96.4849 51.4435 95.1553 50.1277 93.5528 50.1277ZM66.2181 50.1691C64.2842 50.1691 63.1169 51.63 63.0823 53.3602V53.5501C63.1203 55.2838 64.3947 56.7861 66.2596 56.7861C68.1245 56.7861 69.3574 55.3287 69.3885 53.595V53.412C69.3574 51.6783 68.083 50.1691 66.2147 50.1691H66.2181ZM110.251 52.9872H106.241V56.4269H110.365C111.874 56.4269 112.789 55.9158 112.824 54.7934V54.6345C112.796 53.6157 112.005 52.9872 110.254 52.9872H110.251ZM137.285 49.9757C135.89 49.9757 134.974 50.9462 134.688 52.445L134.667 52.521H139.83C139.626 51.0014 138.728 49.9757 137.285 49.9757ZM123.726 49.9757C122.328 49.9757 121.416 50.9462 121.126 52.445L121.112 52.521H126.275C126.071 51.0014 125.166 49.9757 123.73 49.9757H123.726ZM109.67 46.8226H106.245V50.1277H109.443C110.952 50.1277 111.912 49.6511 111.943 48.5321V48.432C111.943 47.4063 111.131 46.8226 109.67 46.8226Z" fill="#2F2B24"/>
</g>
<defs>
<clipPath id="clip0_37_2025">
<rect width="160" height="67" fill="white"/>
</clipPath>
</defs>
</svg>
