<svg width="160" height="67" viewBox="0 0 160 67" fill="none" xmlns="http://www.w3.org/2000/svg">
<g clip-path="url(#clip0_37_1969)">
<g clip-path="url(#clip1_37_1969)">
<mask id="mask0_37_1969" style="mask-type:luminance" maskUnits="userSpaceOnUse" x="-1" y="32" width="104" height="34">
<path d="M102.034 32.2275H-0.619141V65.4648H102.034V32.2275Z" fill="white"/>
</mask>
<g mask="url(#mask0_37_1969)">
<path d="M20.2656 42.5582C20.2656 39.7081 20.2656 36.8579 20.2656 34.0078C20.2656 32.8562 20.8924 32.2295 22.045 32.2295C27.2481 32.2295 32.4502 32.2295 37.6533 32.2295C38.7618 32.2295 39.4039 32.8717 39.4039 33.9823C39.4039 39.7103 39.4018 45.4394 39.4039 51.1674C39.4039 51.8395 39.1781 52.3898 38.5689 52.7065C38.3343 52.8294 38.0419 52.8948 37.7752 52.8958C32.4901 52.9058 27.204 52.9047 21.9177 52.9025C20.9223 52.9025 20.2679 52.2348 20.2667 51.2205C20.2645 48.3327 20.2667 45.446 20.2656 42.5582ZM30.3263 50.596C31.2655 45.2501 32.2044 39.9107 33.1457 34.5515H29.3353C28.3954 39.9041 27.4575 45.2434 26.5163 50.596H30.3263Z" fill="#2F2B24"/>
<path d="M41.1654 42.5319C41.1654 39.6817 41.1654 36.8305 41.1654 33.9803C41.1654 32.8597 41.7953 32.2275 42.9092 32.2275C48.1211 32.2286 53.3344 32.2308 58.5464 32.2319C59.6437 32.2319 60.2837 32.8708 60.2837 33.9659C60.2837 39.7138 60.2837 45.4606 60.2847 51.2085C60.2847 52.2494 59.6359 52.8983 58.5907 52.8983C53.351 52.8983 48.1102 52.8983 42.8705 52.8983C41.8041 52.8983 41.1664 52.2616 41.1664 51.193C41.1654 48.3052 41.1664 45.4175 41.1664 42.5296H41.1641L41.1654 42.5319ZM47.6628 34.5439C47.6429 34.6336 47.6208 34.72 47.6053 34.8097C47.2631 36.7463 46.9233 38.684 46.5811 40.6207C46.0961 43.3634 45.6056 46.1051 45.125 48.8489C44.9477 49.8588 45.5921 50.6062 46.6197 50.6062C49.3493 50.6062 52.0798 50.6062 54.8091 50.6062H55.1303C55.3229 49.4856 55.5114 48.385 55.7074 47.2445H49.2353C49.9793 42.9925 50.7168 38.7782 51.4576 34.545H47.6628V34.5439Z" fill="#2F2B24"/>
<path d="M102.031 42.5773C102.031 45.5204 102.031 48.4636 102.031 51.4067C102.031 52.1719 101.44 52.8185 100.672 52.8905C100.563 52.9005 100.451 52.8994 100.34 52.8994C95.1181 52.8994 89.8963 52.8994 84.6742 52.8994C83.5813 52.8994 82.9402 52.2582 82.9402 51.1598C82.9392 45.403 82.9392 39.6463 82.9402 33.8884C82.9402 32.9062 83.6114 32.2297 84.5889 32.2297C89.8662 32.2286 95.1435 32.2297 100.421 32.2275C101.056 32.2275 101.555 32.4799 101.862 33.0358C101.967 33.2274 102.025 33.471 102.026 33.6913C102.038 36.6533 102.033 39.6142 102.033 42.5761H102.031V42.5773ZM90.3038 37.8713C89.5474 42.1388 88.801 46.3553 88.0527 50.5862H91.8716C92.6202 46.3398 93.3642 42.1122 94.1115 37.8702H98.192C98.3856 36.7541 98.5761 35.6556 98.77 34.545H86.8136C86.621 35.649 86.4304 36.7441 86.2332 37.8724H90.3038V37.8713Z" fill="#2F2B24"/>
<path d="M18.499 42.5881C18.499 45.4483 18.499 48.3073 18.499 51.1674C18.499 52.2713 17.8767 52.8992 16.7661 52.8992C11.5164 52.9014 6.2679 52.8992 1.01826 52.897C0.0482761 52.897 -0.61831 52.2293 -0.61831 51.2604C-0.619417 45.4682 -0.619417 39.6749 -0.61831 33.8816C-0.61831 32.8994 0.0527036 32.2328 1.03708 32.2328C6.30442 32.2306 11.5729 32.2295 16.8403 32.2295C17.8445 32.2295 18.4978 32.8861 18.499 33.8982C18.5012 36.7948 18.499 39.6915 18.499 42.5881ZM6.89903 45.4106C7.03191 45.4106 7.13267 45.4106 7.23455 45.4106C8.84897 45.4095 10.4634 45.4106 12.0778 45.4051C12.6558 45.4028 13.2205 45.3032 13.7421 45.0507C14.7552 44.5591 15.2712 43.6799 15.486 42.6258C15.7595 41.2804 15.9888 39.9262 16.2069 38.5709C16.3176 37.8822 16.4173 37.1835 16.4228 36.4881C16.4305 35.5691 15.8836 34.9003 14.9977 34.6877C14.5548 34.5814 14.0864 34.5404 13.6291 34.5382C10.8521 34.5249 8.07498 34.5315 5.29791 34.5315C5.19826 34.5315 5.09859 34.5315 4.98676 34.5315C4.04336 39.8997 3.10437 45.2423 2.16209 50.6049C3.39781 50.6049 4.61472 50.6082 5.83162 50.596C5.89583 50.596 5.99994 50.4731 6.01544 50.3945C6.15716 49.6515 6.2834 48.9063 6.41405 48.1611C6.5735 47.2542 6.73406 46.3463 6.89903 45.4106Z" fill="#2F2B24"/>
<path d="M62.0512 42.5596C62.0512 39.6994 62.0512 36.8393 62.0512 33.9781C62.0512 32.862 62.6878 32.2275 63.8007 32.2275C69.0049 32.2275 74.2091 32.2275 79.4122 32.2286C80.5559 32.2286 81.176 32.8509 81.175 33.987C81.175 39.7172 81.1739 45.4473 81.1783 51.1764C81.1783 51.6825 81.0521 52.1243 80.6767 52.4764C80.3423 52.7898 79.9392 52.9016 79.4853 52.9016C75.5822 52.896 71.6788 52.8983 67.7756 52.8983C66.438 52.8983 65.0994 52.8983 63.7618 52.8983C62.6987 52.8983 62.0512 52.2505 62.0512 51.1953C62.0512 48.3163 62.0512 45.4374 62.0512 42.5584H62.0488L62.0512 42.5596ZM70.2105 50.5663C70.2105 50.5663 70.2105 50.5652 70.2105 50.5641C71.4374 50.5641 72.6654 50.6051 73.8889 50.5508C74.8325 50.5099 75.6141 50.0747 76.1877 49.2941C76.646 48.6707 76.8145 47.9465 76.9439 47.209C77.438 44.4054 77.9318 41.6017 78.4134 38.7959C78.5329 38.0983 78.6747 37.3941 78.6947 36.6898C78.7268 35.5682 78.1599 34.8872 77.1002 34.6447C76.8498 34.5871 76.5898 34.5517 76.3339 34.5495C74.3597 34.5373 72.3854 34.534 70.4122 34.5328C70.0988 34.5328 69.7844 34.5373 69.472 34.5616C68.068 34.6735 67.0814 35.36 66.6042 36.7053C66.479 37.0597 66.3862 37.4295 66.3196 37.7993C65.8568 40.3937 65.3983 42.9881 64.9521 45.5857C64.7948 46.5015 64.6188 47.4216 64.5558 48.3462C64.4682 49.6517 65.2445 50.5021 66.5578 50.5552C67.7722 50.6051 68.9914 50.5652 70.2084 50.5652L70.2105 50.5663Z" fill="#2F2B24"/>
<path d="M42.9062 65.2858V59.7216C42.8896 59.7172 42.8741 59.7117 42.8575 59.7073C42.7123 60.0272 42.564 60.346 42.4246 60.6672C41.8963 61.8809 41.3716 63.0967 40.8456 64.3114C40.7326 64.5727 40.6175 64.834 40.5099 65.0974C40.4513 65.2415 40.3694 65.3146 40.1989 65.3035C39.942 65.2869 39.6817 65.2835 39.4248 65.3035C39.22 65.32 39.1337 65.228 39.0596 65.0554C38.3031 63.2893 37.5402 61.5253 36.7784 59.7615C36.7685 59.7395 36.753 59.7195 36.7053 59.6451V65.2646H34.9648V57.4107C35.0545 57.4041 35.1429 57.393 35.2305 57.393C35.8859 57.3919 36.5404 57.3974 37.196 57.3886C37.3741 57.3864 37.4817 57.4306 37.5568 57.6056C38.1282 58.941 38.7086 60.2719 39.2877 61.6051C39.4614 62.0048 39.6397 62.4035 39.8435 62.8628C40.1237 62.2109 40.3738 61.6217 40.6273 61.0348C41.1269 59.8789 41.6251 58.7241 42.1345 57.5724C42.1697 57.4926 42.2828 57.3974 42.3613 57.3963C43.1089 57.3841 43.8563 57.3908 44.6036 57.3941C44.6391 57.3941 44.6733 57.4096 44.7156 57.4196V65.2869H42.9062V65.2858Z" fill="#2F2B24"/>
<path d="M77.0887 65.3002C76.5584 65.3002 76.0433 65.309 75.5285 65.2914C75.4432 65.288 75.3426 65.1851 75.2817 65.1032C73.9705 63.3469 72.6651 61.5863 71.3573 59.8269C71.3207 59.7769 71.2743 59.7349 71.188 59.6431V65.2823H69.4528C69.4483 65.1872 69.4406 65.0975 69.4406 65.0078C69.4385 62.563 69.4395 60.118 69.4297 57.6732C69.4297 57.4384 69.5049 57.3742 69.7296 57.3808C70.2732 57.3974 70.8181 57.3797 71.3617 57.4008C71.4859 57.4052 71.6486 57.4805 71.7217 57.5779C72.8921 59.128 74.0514 60.6883 75.2117 62.2462C75.2482 62.295 75.2672 62.3569 75.2939 62.4134L75.3846 62.3549V57.4041H77.0874V65.3002H77.0887Z" fill="#2F2B24"/>
<path d="M31.6542 61.3338C31.6762 63.5175 30.1473 65.1973 27.9592 65.3987C26.843 65.5019 25.769 65.3777 24.7957 64.7797C23.4968 63.9815 22.9554 62.7624 22.9731 61.2853C22.9886 59.9089 23.499 58.7517 24.6861 57.9789C25.6749 57.3344 26.7776 57.1683 27.9382 57.2935C28.7996 57.3865 29.5814 57.6655 30.258 58.2179C31.1383 58.9378 31.5391 59.8956 31.6353 61.0028C31.6454 61.1124 31.6474 61.2231 31.6531 61.3338H31.6542ZM29.7994 61.3185C29.8173 59.9099 28.7763 58.8847 27.3124 58.8691C25.8564 58.8535 24.8311 59.8702 24.8289 61.3439C24.8267 62.708 25.6936 63.7843 27.2826 63.8286C28.7475 63.8695 29.7808 62.8321 29.7994 61.3185Z" fill="#2F2B24"/>
<path d="M50.2509 65.2869H48.457V57.4184C48.5257 57.4073 48.5877 57.3885 48.6499 57.3885C50.2265 57.3984 51.8034 57.3984 53.38 57.4272C53.9381 57.4372 54.4674 57.6022 54.9304 57.9355C55.5095 58.3518 55.7773 58.9397 55.8382 59.6295C55.9014 60.3416 55.8273 61.0304 55.3765 61.6251C54.8407 62.3325 54.0731 62.5572 53.2384 62.585C52.3358 62.6161 51.4314 62.6026 50.5277 62.6104C50.4468 62.6104 50.3673 62.6205 50.2509 62.6293V65.2856V65.2869ZM50.2742 61.0138C51.2375 61.0138 52.1764 61.0314 53.1132 61.005C53.492 60.9938 53.8209 60.7935 53.9215 60.3992C54.1198 59.6231 53.8673 59.0328 52.9637 58.9773C52.44 58.9454 51.9141 58.9576 51.3881 58.953C51.0215 58.9499 50.655 58.953 50.2732 58.953V61.0138H50.2742Z" fill="#2F2B24"/>
<path d="M57.5332 65.2973C57.7315 64.8423 57.9031 64.4382 58.0812 64.0372C58.8475 62.3066 59.6161 60.576 60.3844 58.8452C60.5749 58.4167 60.7564 57.9837 60.9615 57.5619C61.0001 57.481 61.1274 57.3958 61.216 57.3936C61.7132 57.3791 62.2125 57.3825 62.7097 57.3991C62.7949 57.4024 62.9212 57.4777 62.9544 57.553C64.0929 60.1042 65.221 62.6599 66.3505 65.2154C66.3572 65.2299 66.3505 65.2509 66.3505 65.2973C65.7372 65.2973 65.1225 65.3017 64.5092 65.2895C64.4493 65.2885 64.3684 65.191 64.3376 65.1202C64.1193 64.6342 63.9122 64.1424 63.6963 63.6408H60.1332C59.9282 64.1225 59.7224 64.6197 59.502 65.1114C59.4675 65.1876 59.3724 65.2874 59.3037 65.2885C58.7334 65.303 58.1621 65.2962 57.5342 65.2962L57.5332 65.2973ZM61.9224 59.2649C61.5349 60.2338 61.1652 61.1595 60.7875 62.1018H63.0498C62.6731 61.1551 62.3079 60.2349 61.9224 59.2649Z" fill="#2F2B24"/>
<path d="M19.5069 59.4592C18.9865 59.2819 18.5103 59.086 18.0165 58.9608C17.3709 58.7969 16.7154 58.8324 16.0843 59.0606C15.2892 59.3483 14.7743 59.8999 14.6082 60.7403C14.4588 61.4999 14.5285 62.2262 15.0157 62.8673C15.5262 63.5394 16.2526 63.7587 17.0487 63.8108C17.9844 63.8728 18.8536 63.6457 19.6907 63.1408C19.8457 63.5161 19.9985 63.8749 20.1402 64.237C20.2975 64.6391 20.3019 64.6611 19.8966 64.8405C18.0298 65.6666 16.1629 65.7232 14.3569 64.6956C13.4235 64.1652 12.9252 63.287 12.758 62.2329C12.5576 60.9749 12.717 59.7869 13.5275 58.7549C14.1343 57.9809 14.9626 57.559 15.9126 57.373C17.2768 57.1062 18.5878 57.249 19.8225 57.9277C19.9863 58.0174 20.0251 58.1016 19.9575 58.2699C19.7981 58.6707 19.6508 59.0761 19.5069 59.4569V59.4592Z" fill="#2F2B24"/>
<path d="M85.2853 65.2907H83.4661C83.4594 65.1877 83.4495 65.0913 83.4495 64.9941C83.4485 64.127 83.4174 63.2589 83.4607 62.3951C83.4861 61.9047 83.3155 61.5449 83.0265 61.1773C82.0974 59.9934 81.1917 58.7922 80.2782 57.5951C80.2416 57.5475 80.2216 57.4877 80.1719 57.3914C80.9083 57.3914 81.6059 57.3869 82.3022 57.398C82.3722 57.3991 82.4572 57.4811 82.5072 57.5475C83.1416 58.3779 83.7707 59.2118 84.4226 60.0709C84.8535 59.4975 85.2698 58.9415 85.6874 58.3867C85.9031 58.1 86.1159 57.811 86.3383 57.5298C86.3837 57.4711 86.4635 57.4024 86.5278 57.4014C87.1976 57.3925 87.8675 57.3958 88.6026 57.3958C88.2895 57.811 88.0127 58.1819 87.7314 58.5495C86.9607 59.5584 86.1856 60.5637 85.4227 61.5791C85.3419 61.6867 85.2921 61.8448 85.2898 61.9801C85.2786 62.9664 85.2843 63.9531 85.2843 64.9397C85.2843 65.0483 85.2843 65.1579 85.2843 65.292L85.2853 65.2907Z" fill="#2F2B24"/>
<path d="M7.47266 42.0988C7.72291 40.6825 7.97314 39.2619 8.22451 37.8357C8.30534 37.828 8.36734 37.818 8.43047 37.818C9.63739 37.818 10.8455 37.8158 12.0524 37.818C12.43 37.818 12.5119 37.8922 12.451 38.2565C12.2572 39.4092 12.0469 40.5596 11.8431 41.7101C11.7944 41.9858 11.6316 42.1331 11.3504 42.1331C10.0781 42.1331 8.80694 42.132 7.53466 42.1298C7.51916 42.1298 7.50254 42.1143 7.47266 42.0999V42.0988Z" fill="#2F2B24"/>
<path d="M70.7737 47.2922C70.1647 47.2922 69.5569 47.2933 68.9479 47.2922C68.5503 47.2911 68.4717 47.2025 68.5391 46.8117C68.8017 45.3058 69.0685 43.7999 69.3331 42.294C69.5636 40.9874 69.7927 39.6819 70.0229 38.3753C70.1049 37.908 70.1868 37.836 70.6575 37.836C71.8567 37.8349 73.0559 37.8349 74.254 37.836C74.6981 37.836 74.7621 37.9058 74.6859 38.3421C74.1985 41.1468 73.7081 43.9516 73.2143 46.7552C73.1323 47.218 73.0305 47.2922 72.5719 47.2933C71.9728 47.2933 71.3727 47.2933 70.7737 47.2933V47.2922Z" fill="#2F2B24"/>
</g>
</g>
</g>
<defs>
<clipPath id="clip0_37_1969">
<rect width="160" height="67" fill="white"/>
</clipPath>
<clipPath id="clip1_37_1969">
<rect width="102.653" height="33.44" fill="white" transform="translate(-0.623047 32.2274)"/>
</clipPath>
</defs>
</svg>
