<svg width="160" height="67" viewBox="0 0 160 67" fill="none" xmlns="http://www.w3.org/2000/svg">
<g clip-path="url(#clip0_37_2078)">
<mask id="mask0_37_2078" style="mask-type:luminance" maskUnits="userSpaceOnUse" x="0" y="33" width="102" height="34">
<path d="M102 33H0V66.8162H102V33Z" fill="white"/>
</mask>
<g mask="url(#mask0_37_2078)">
<path d="M20.0794 40.7855V49.0528C20.0794 50.9962 19.5689 52.5318 18.5478 53.6595C17.5267 54.7872 16.1562 55.3511 14.4363 55.3511C13.5805 55.3586 12.735 55.1638 11.9687 54.7827C11.2043 54.3998 10.5427 53.8396 10.0388 53.1489C9.51467 53.8384 8.84239 54.4013 8.07161 54.7963C7.31949 55.1697 6.48965 55.3599 5.64996 55.3511C3.92888 55.3511 2.5561 54.7838 1.53162 53.6493C0.50715 52.5147 -0.00338667 50.9831 1.69052e-05 49.0545V40.7855H2.551V49.5071C2.551 50.518 2.83463 51.3326 3.40188 51.9509C3.96917 52.5692 4.71965 52.8778 5.65336 52.8767C6.07492 52.8914 6.49479 52.8157 6.8846 52.6545C7.27444 52.4934 7.62522 52.2505 7.91334 51.9424C8.49759 51.3207 8.78975 50.5089 8.78975 49.5071V40.7855H11.3254V49.5071C11.3254 50.518 11.609 51.3326 12.1763 51.9509C12.7436 52.5692 13.4941 52.8778 14.4278 52.8767C14.8479 52.8913 15.2662 52.8151 15.6542 52.6533C16.0421 52.4914 16.3906 52.2478 16.6758 51.939C17.2521 51.3173 17.5409 50.5055 17.542 49.5037V40.7855H20.0794Z" fill="#2F2B24"/>
<path d="M32.5459 55.0885V47.958C32.5459 46.4615 32.1227 45.2487 31.2763 44.3196C30.43 43.3904 29.3318 42.9263 27.9817 42.9275C26.6407 42.9275 25.5396 43.387 24.6785 44.3059C23.8174 45.2249 23.3874 46.4082 23.3886 47.8559C23.3886 49.3308 23.831 50.5413 24.716 51.4875C25.6009 52.4337 26.7286 52.9079 28.0991 52.9102C28.718 52.9105 29.3322 52.8016 29.9132 52.5885C30.5498 52.3485 31.1469 52.0147 31.6848 51.5981V54.3533C31.1061 54.6813 30.4855 54.9292 29.84 55.0902C29.1744 55.2524 28.4915 55.333 27.8064 55.3301C27.1188 55.3293 26.4354 55.2238 25.7796 55.017C25.1303 54.818 24.5155 54.52 23.957 54.1338C22.9586 53.4597 22.1462 52.5449 21.5949 51.4739C21.0418 50.3726 20.7616 49.1545 20.778 47.9222C20.778 45.7791 21.4531 44.0098 22.8032 42.6144C24.1532 41.2189 25.8692 40.5217 27.9511 40.5229C29.2767 40.51 30.5795 40.8685 31.712 41.5575C32.8409 42.2357 33.7526 43.2224 34.3395 44.4012C34.6271 44.9636 34.8305 45.5651 34.9437 46.1864C35.0865 47.1438 35.1473 48.1117 35.1259 49.0795V55.0868L32.5459 55.0885Z" fill="#2F2B24"/>
<path d="M39.1796 34.2112H36.6133V55.0905H39.1796V34.2112Z" fill="#2F2B24"/>
<path d="M40.918 55.0905V34.2112H43.484V45.9774H44.6209C45.2479 46.0041 45.869 45.8467 46.4079 45.5247C46.8697 45.2229 47.3674 44.6302 47.9019 43.7464L49.7246 40.787H52.7129L50.6148 44.1905C50.2975 44.7265 49.931 45.2319 49.5203 45.7C49.2333 46.0421 48.8876 46.3302 48.4993 46.5509C49.6757 46.7778 50.5437 47.2617 51.103 48.0025C51.6623 48.7434 51.9414 49.7956 51.9404 51.1593V55.0905H49.3605V51.4742C49.3605 50.4531 49.1341 49.6873 48.6798 49.2074C48.2252 48.7275 47.5123 48.4875 46.532 48.4875H43.484V55.0905H40.918Z" fill="#2F2B24"/>
<path fill-rule="evenodd" clip-rule="evenodd" d="M92.2441 33H63.2761C61.995 33 60.7264 33.2524 59.5429 33.7427C58.359 34.233 57.2836 34.9517 56.3778 35.8577C55.4721 36.7637 54.7537 37.8392 54.2634 39.0229C53.7734 40.2066 53.5211 41.4752 53.5215 42.7563V52.1655C53.5201 53.4474 53.7714 54.7169 54.261 55.9016C54.7506 57.0863 55.469 58.1628 56.3748 59.0697C57.2809 59.9766 58.3566 60.696 59.5408 61.1869C60.7251 61.6777 61.9943 61.9304 63.2761 61.9304H70.7809L77.6526 66.8247L84.5247 61.9304H92.2441C93.5252 61.9304 94.7938 61.678 95.9773 61.1877C97.1608 60.6974 98.2362 59.9787 99.142 59.0727C100.048 58.1667 100.767 57.0912 101.256 55.9075C101.747 54.7238 101.999 53.4552 101.999 52.174V42.7563C101.999 40.1691 100.971 37.6878 99.1417 35.8582C97.3121 34.0285 94.8311 33.0005 92.2441 33ZM60.1671 54.7829V46.5054C60.1671 44.5619 60.6775 43.0264 61.6988 41.8987C62.7198 40.7709 64.0948 40.2071 65.8237 40.2071C66.6734 40.1989 67.5132 40.3913 68.2744 40.7687C69.0394 41.157 69.7031 41.7188 70.2128 42.4092C70.7313 41.7189 71.3997 41.1555 72.1681 40.7619C72.9243 40.3879 73.7579 40.1978 74.6015 40.2071C76.3137 40.2071 77.6819 40.7743 78.7063 41.9088C79.7307 43.0434 80.2414 44.575 80.238 46.5037V54.7829H77.7074V46.0255C77.7074 45.0248 77.4208 44.2176 76.8479 43.6039C76.2484 43.0161 75.4423 42.6868 74.6025 42.6868C73.7627 42.6868 72.9566 43.0161 72.3568 43.6039C71.7829 44.2165 71.4959 45.0237 71.4959 46.0255V54.7829H68.9602V46.0255C68.9602 45.0248 68.6682 44.2176 68.0837 43.6039C67.793 43.3004 67.4414 43.0618 67.0518 42.9037C66.6625 42.7456 66.2439 42.6716 65.8237 42.6866C64.8911 42.6866 64.1407 42.9923 63.5722 43.6039C63.0041 44.2153 62.7202 45.0226 62.7216 46.0255V54.7829H60.1671ZM92.8738 53.287C94.1658 52.1014 94.9923 50.4876 95.3531 48.4454L92.7425 48.0523C92.543 49.4523 92.0326 50.5528 91.2112 51.3538C90.7848 51.757 90.2823 52.071 89.7329 52.2776C89.1838 52.4841 88.5986 52.579 88.0125 52.5566C87.426 52.5343 86.85 52.3952 86.3179 52.1474C85.7861 51.8997 85.3088 51.5483 84.9144 51.1138C84.0297 50.1619 83.587 48.9809 83.587 47.5707C83.587 46.1605 84.0273 44.9772 84.9076 44.0208C85.3122 43.5608 85.8116 43.1942 86.3716 42.9462C86.9316 42.6982 87.5388 42.5748 88.1512 42.5845C88.7533 42.5783 89.3497 42.7026 89.8991 42.9486C90.4499 43.2038 90.9416 43.5713 91.3421 44.0276L84.387 47.9093L85.4675 49.8477L94.8427 44.6538C94.1314 43.196 93.2056 42.0858 92.0652 41.3234C90.9143 40.5605 89.5591 40.1642 88.1784 40.1866C87.2202 40.1824 86.2713 40.3729 85.389 40.7465C84.5067 41.12 83.7097 41.6689 83.0457 42.3598C82.3729 43.056 81.8391 43.8745 81.4736 44.7712C80.8045 46.4318 80.745 48.2757 81.3056 49.9759C81.8663 51.6762 83.0111 53.1229 84.5366 54.0596C85.08 54.3893 85.6665 54.6419 86.2791 54.8101C86.8891 54.9791 87.5188 55.0649 88.1512 55.0654C90.0072 55.0654 91.5814 54.4726 92.8738 53.287Z" fill="#2F2B24"/>
</g>
</g>
<defs>
<clipPath id="clip0_37_2078">
<rect width="102" height="34" fill="white" transform="translate(0 33)"/>
</clipPath>
</defs>
</svg>
