<svg width="28" height="28" viewBox="0 0 28 28" fill="none" xmlns="http://www.w3.org/2000/svg">
<path opacity="0.12" d="M2.33301 13.0667C2.33301 11.7599 2.33301 11.1065 2.58733 10.6074C2.81103 10.1684 3.16799 9.8114 3.60703 9.58769C4.10616 9.33337 4.75955 9.33337 6.06634 9.33337H14.933C16.2398 9.33337 16.8932 9.33337 17.3923 9.58769C17.8314 9.8114 18.1883 10.1684 18.412 10.6074C18.6663 11.1065 18.6663 11.7599 18.6663 13.0667V21.9334C18.6663 23.2402 18.6663 23.8936 18.412 24.3927C18.1883 24.8317 17.8314 25.1887 17.3923 25.4124C16.8932 25.6667 16.2398 25.6667 14.933 25.6667H6.06634C4.75955 25.6667 4.10616 25.6667 3.60703 25.4124C3.16799 25.1887 2.81103 24.8317 2.58733 24.3927C2.33301 23.8936 2.33301 23.2402 2.33301 21.9334V13.0667Z" fill="#2F2B23"/>
<path d="M9.33301 9.33337V6.06671C9.33301 4.75992 9.33301 4.10652 9.58733 3.6074C9.81103 3.16835 10.168 2.8114 10.607 2.58769C11.1062 2.33337 11.7596 2.33337 13.0663 2.33337H21.933C23.2398 2.33337 23.8932 2.33337 24.3923 2.58769C24.8314 2.8114 25.1883 3.16835 25.412 3.6074C25.6663 4.10652 25.6663 4.75992 25.6663 6.06671V14.9334C25.6663 16.2402 25.6663 16.8936 25.412 17.3927C25.1883 17.8317 24.8314 18.1887 24.3923 18.4124C23.8932 18.6667 23.2398 18.6667 21.933 18.6667H18.6663M6.06634 25.6667H14.933C16.2398 25.6667 16.8932 25.6667 17.3923 25.4124C17.8314 25.1887 18.1883 24.8317 18.412 24.3927C18.6663 23.8936 18.6663 23.2402 18.6663 21.9334V13.0667C18.6663 11.7599 18.6663 11.1065 18.412 10.6074C18.1883 10.1684 17.8314 9.8114 17.3923 9.58769C16.8932 9.33337 16.2398 9.33337 14.933 9.33337H6.06634C4.75955 9.33337 4.10616 9.33337 3.60703 9.58769C3.16799 9.8114 2.81103 10.1684 2.58733 10.6074C2.33301 11.1065 2.33301 11.7599 2.33301 13.0667V21.9334C2.33301 23.2402 2.33301 23.8936 2.58733 24.3927C2.81103 24.8317 3.16799 25.1887 3.60703 25.4124C4.10616 25.6667 4.75955 25.6667 6.06634 25.6667Z" stroke="#2F2B23" stroke-width="2.1" stroke-linecap="square"/>
</svg>
