<svg width="127" height="127" viewBox="0 0 127 127" fill="none" xmlns="http://www.w3.org/2000/svg">
<g clip-path="url(#clip0_46_5420)">
<g clip-path="url(#clip1_46_5420)">
<path d="M71.0418 37.5557L119.943 86.4571L53.1426 104.356L4.23914 55.4543L71.0418 37.5557Z" fill="#F5F0FC" stroke="#2F2B24" stroke-width="1.5" stroke-linejoin="bevel"/>
<g filter="url(#filter0_f_46_5420)">
<path d="M69.6219 42.7983L107.67 80.829L55.704 94.7404L17.6528 56.7089L69.6219 42.7983Z" fill="#9146FF"/>
</g>
<path d="M75.5399 20.7685L124.441 69.6699L57.6407 87.5692L8.73719 38.6671L75.5399 20.7685Z" fill="#F5F0FC" stroke="#2F2B24" stroke-width="1.5" stroke-linejoin="bevel"/>
<path d="M124.441 69.6699L119.967 86.3689" stroke="#2F2B24" stroke-width="1.5" stroke-linejoin="bevel"/>
<path d="M57.6406 87.5706L53.1661 104.27" stroke="#2F2B24" stroke-width="1.5" stroke-linejoin="bevel"/>
<path d="M8.71289 38.7548L4.23777 55.4562" stroke="#2F2B24" stroke-width="1.5" stroke-linejoin="bevel"/>
<path d="M59.7001 55.6367C66.4226 62.3626 75.3467 67.5252 78.6576 66.2264C81.7441 65.0157 79.404 58.5118 72.6839 51.7866C65.9614 45.0607 57.3701 40.5676 54.3162 41.8725C51.6984 42.9926 52.9777 48.9108 59.7001 55.6367Z" fill="#F5F0FC" stroke="#2F2B24" stroke-width="1.5" stroke-linejoin="bevel"/>
<path d="M48.4827 54.623L78.4414 46.5965" stroke="#2F2B24" stroke-width="1.5" stroke-linejoin="bevel"/>
<path d="M54.6227 61.448L84.5078 53.442" stroke="#2F2B24" stroke-width="1.5" stroke-linejoin="bevel"/>
<path d="M62.5362 65.556C52.1851 61.9817 45.5734 53.9304 47.7687 47.5728C49.964 41.2153 60.1349 38.9591 70.4861 42.5334C80.8372 46.1077 87.4489 54.159 85.2536 60.5165C83.0583 66.8741 72.8874 69.1303 62.5362 65.556Z" stroke="#2F2B24" stroke-width="1.5" stroke-linejoin="bevel"/>
</g>
</g>
<defs>
<filter id="filter0_f_46_5420" x="7.51901" y="32.665" width="110.284" height="72.2087" filterUnits="userSpaceOnUse" color-interpolation-filters="sRGB">
<feFlood flood-opacity="0" result="BackgroundImageFix"/>
<feBlend mode="normal" in="SourceGraphic" in2="BackgroundImageFix" result="shape"/>
<feGaussianBlur stdDeviation="5.06667" result="effect1_foregroundBlur_46_5420"/>
</filter>
<clipPath id="clip0_46_5420">
<rect width="127" height="127" fill="white"/>
</clipPath>
<clipPath id="clip1_46_5420">
<rect width="120.272" height="86.9587" fill="white" transform="matrix(-0.965926 -0.258819 -0.258819 0.965926 133.68 36.1287)"/>
</clipPath>
</defs>
</svg>
