<svg width="61" height="37" viewBox="0 0 61 37" fill="none" xmlns="http://www.w3.org/2000/svg">
<path d="M34.7998 14L36.7998 16M36.7998 16L34.7998 18M36.7998 16H35.1791C34.5529 16 34.2398 16 33.9557 15.9137C33.7041 15.8373 33.47 15.712 33.2669 15.5451C33.0375 15.3565 32.8638 15.096 32.5165 14.575L32.3554 14.3333M34.7998 6L36.7998 8M36.7998 8L34.7998 10M36.7998 8H35.1791C34.5529 8 34.2398 8 33.9557 8.0863C33.7041 8.1627 33.47 8.28796 33.2669 8.45491C33.0375 8.64349 32.8638 8.90398 32.5165 9.42496L29.0831 14.575C28.7358 15.096 28.5621 15.3565 28.3327 15.5451C28.1296 15.712 27.8955 15.8373 27.6439 15.9137C27.3598 16 27.0467 16 26.4205 16H24.7998M24.7998 8H26.4206C27.0467 8 27.3598 8 27.6439 8.0863C27.8955 8.1627 28.1296 8.28796 28.3327 8.45491C28.5621 8.64349 28.7358 8.90398 29.0831 9.42496L29.2442 9.66667" stroke="#464134" stroke-width="1.5" stroke-linecap="square"/>
<path d="M19.0885 31V24.7H21.8245C23.0125 24.7 23.8225 25.276 23.8225 26.356C23.8225 27.184 23.2285 27.715 22.6435 27.886C23.3005 28.003 23.7055 28.516 23.7055 29.335V31H22.7065V29.506C22.7065 28.633 22.3735 28.345 21.5275 28.345H20.0875V31H19.0885ZM21.6085 27.49C22.3825 27.49 22.7965 27.148 22.7965 26.509C22.7965 25.87 22.3825 25.537 21.6085 25.537H20.0875V27.49H21.6085ZM26.7763 31.144C25.4713 31.144 24.6073 30.316 24.6073 28.804C24.6073 27.445 25.5073 26.491 26.7403 26.491C28.0543 26.491 28.8013 27.409 28.8013 28.822V29.02H25.5523C25.5703 29.866 26.0743 30.415 26.7853 30.415C27.2893 30.415 27.7303 30.172 27.8203 29.614H28.7653C28.6753 30.442 27.9913 31.144 26.7763 31.144ZM27.8203 28.354C27.8113 27.67 27.4063 27.202 26.7313 27.202C26.0743 27.202 25.6243 27.697 25.5613 28.354H27.8203ZM29.7729 31V26.635H30.7089V26.905C30.7089 27.013 30.6999 27.13 30.6909 27.238C30.9249 26.833 31.3479 26.491 31.9599 26.491C32.5179 26.491 32.9769 26.842 33.1839 27.328C33.4629 26.86 33.9759 26.491 34.6059 26.491C35.4879 26.491 36.1179 27.112 36.1179 28.246V31H35.1819V28.399C35.1819 27.67 34.9389 27.229 34.3629 27.229C33.7869 27.229 33.4089 27.751 33.4089 28.426V31H32.4729V28.417C32.4729 27.679 32.2299 27.229 31.6629 27.229C31.0869 27.229 30.7089 27.742 30.7089 28.444V31H29.7729ZM37.3139 31V26.635H38.2499V31H37.3139ZM37.2689 25.888V24.853H38.2949V25.888H37.2689ZM38.9178 31L40.5558 28.768L39.0258 26.635H40.1238L40.8438 27.715C40.9338 27.841 41.0148 27.967 41.0958 28.102C41.1678 27.967 41.2488 27.85 41.3388 27.724L42.0858 26.635H43.1388L41.5728 28.75L43.1928 31H42.0948L41.2938 29.794L41.0418 29.416L40.7988 29.794L39.9708 31H38.9178Z" fill="#464134"/>
</svg>
