<svg width="196" height="48" viewBox="0 0 196 48" fill="none" xmlns="http://www.w3.org/2000/svg">
<path d="M30.096 29.288C26.768 29.288 24.64 27.128 24.64 23.32C24.64 19.72 27.04 17.512 30.208 17.512C32.944 17.512 34.912 19.08 35.2 21.736H33.024C32.816 20.28 31.856 19.288 30.208 19.288C28.224 19.288 26.8 20.808 26.8 23.32C26.8 25.928 28.208 27.512 30.16 27.512C31.824 27.512 32.928 26.44 33.152 24.952H35.248C34.976 27.544 33.104 29.288 30.096 29.288ZM36.7736 29V17.8H38.7256V29H36.7736ZM44.2784 29.288C41.9264 29.288 40.2784 27.72 40.2784 25.128C40.2784 22.568 41.9424 20.936 44.2784 20.936C46.6304 20.936 48.2944 22.568 48.2944 25.128C48.2944 27.72 46.6304 29.288 44.2784 29.288ZM44.2784 27.752C45.4944 27.752 46.3104 26.792 46.3104 25.128C46.3104 23.432 45.4784 22.488 44.2784 22.488C43.0944 22.488 42.2624 23.432 42.2624 25.128C42.2624 26.792 43.0624 27.752 44.2784 27.752ZM52.9557 29.288C50.7478 29.288 49.3878 28.136 49.2598 26.312H51.2438C51.2918 27.24 51.8678 27.832 52.9078 27.832C53.7878 27.832 54.3478 27.416 54.3478 26.824C54.3478 26.296 53.8998 26.056 53.0677 25.896L52.1238 25.704C50.4918 25.384 49.5638 24.616 49.5638 23.32C49.5638 21.96 50.8438 20.936 52.7638 20.936C54.8598 20.936 56.1718 22.024 56.2198 23.656H54.2678C54.2038 22.888 53.6438 22.392 52.7638 22.392C52.0438 22.392 51.4838 22.68 51.4838 23.24C51.4838 23.704 51.7878 23.944 52.7798 24.136L53.7238 24.328C55.2598 24.632 56.2678 25.336 56.2678 26.712C56.2678 28.2 54.9718 29.288 52.9557 29.288ZM57.8361 29V21.192H59.7881V29H57.8361ZM57.7881 20.008V17.96H59.8201V20.008H57.7881ZM61.8049 29V21.192H63.7569V21.544C63.7569 21.768 63.7409 22.008 63.6929 22.312C64.1249 21.528 64.8609 20.936 66.0929 20.936C67.8209 20.936 68.8449 22.152 68.8449 24.072V29H66.8929V24.36C66.8929 23.208 66.3329 22.488 65.4209 22.488C64.4609 22.488 63.7569 23.336 63.7569 24.424V29H61.8049ZM74.2616 32.552C71.9576 32.552 70.6456 31.32 70.6456 29.544H72.6296C72.6616 30.472 73.2536 31.016 74.3096 31.016C75.3336 31.016 76.1976 30.408 76.1976 29.24V28.392C76.1976 28.04 76.2136 27.72 76.2616 27.416C75.7976 28.12 75.0456 28.712 73.8296 28.712C71.7976 28.712 70.3256 27.288 70.3256 24.824C70.3256 22.392 72.0216 20.936 73.7336 20.936C75.1096 20.936 75.7976 21.496 76.2616 22.312C76.2136 22.04 76.1976 21.832 76.1976 21.544V21.192H78.1496V28.76C78.1496 31.32 76.5656 32.552 74.2616 32.552ZM74.3256 27.16C75.4776 27.16 76.3096 26.184 76.3096 24.824C76.3096 23.464 75.4776 22.488 74.3256 22.488C73.1416 22.488 72.3096 23.464 72.3096 24.824C72.3096 26.184 73.1416 27.16 74.3256 27.16ZM87.8913 29.288C84.8832 29.288 83.1233 27.656 82.9473 25.16H85.1233C85.2353 26.712 86.4993 27.512 87.9873 27.512C89.2353 27.512 90.2273 27.064 90.2273 25.976C90.2273 25.128 89.6193 24.664 88.3873 24.424L86.4833 24.056C84.7233 23.72 83.3473 22.68 83.3473 20.888C83.3473 18.904 85.1873 17.512 87.7153 17.512C90.5312 17.512 92.0833 19.016 92.2113 21.192H90.0353C89.9873 20.152 89.2513 19.272 87.6193 19.272C86.3713 19.272 85.4433 19.784 85.4433 20.712C85.4433 21.576 86.1953 21.88 87.3313 22.104L89.2193 22.472C90.9633 22.808 92.3393 23.8 92.3393 25.672C92.3393 27.768 90.7713 29.288 87.8913 29.288ZM97.4499 29.288C95.1139 29.288 93.4659 27.784 93.4659 25.08C93.4659 22.616 95.1139 20.936 97.3859 20.936C99.7699 20.936 101.146 22.6 101.146 25.144V25.576H95.4659C95.4819 26.808 96.2659 27.752 97.4499 27.752C98.2979 27.752 98.9859 27.272 99.1139 26.456H101.098C100.938 28.056 99.5619 29.288 97.4499 29.288ZM99.1459 24.168C99.1139 23.112 98.4259 22.392 97.3699 22.392C96.3139 22.392 95.5619 23.144 95.4499 24.168H99.1459ZM106.199 29.288C103.719 29.288 102.247 27.688 102.247 25.096C102.247 22.488 104.023 20.936 106.295 20.936C108.567 20.936 109.799 22.312 109.991 24.136H108.007C107.943 23.256 107.399 22.488 106.295 22.488C105.159 22.488 104.231 23.416 104.231 25.112C104.231 26.664 105.047 27.752 106.247 27.752C107.431 27.752 107.991 26.952 108.087 26.024H110.071C109.799 28.008 108.519 29.288 106.199 29.288ZM114.934 29.144C113.27 29.144 112.39 28.312 112.39 26.568V22.744H110.614V21.192H112.39V18.376H114.342V21.192H116.262V22.744H114.342V26.28C114.342 27.096 114.662 27.576 115.494 27.576C115.686 27.576 115.894 27.56 116.086 27.528V29C115.894 29.064 115.43 29.144 114.934 29.144ZM117.68 29V21.192H119.632V29H117.68ZM117.632 20.008V17.96H119.664V20.008H117.632ZM125.185 29.288C122.833 29.288 121.185 27.72 121.185 25.128C121.185 22.568 122.849 20.936 125.185 20.936C127.537 20.936 129.201 22.568 129.201 25.128C129.201 27.72 127.537 29.288 125.185 29.288ZM125.185 27.752C126.401 27.752 127.217 26.792 127.217 25.128C127.217 23.432 126.385 22.488 125.185 22.488C124.001 22.488 123.169 23.432 123.169 25.128C123.169 26.792 123.969 27.752 125.185 27.752ZM130.758 29V21.192H132.71V21.544C132.71 21.768 132.694 22.008 132.646 22.312C133.078 21.528 133.814 20.936 135.046 20.936C136.774 20.936 137.798 22.152 137.798 24.072V29H135.846V24.36C135.846 23.208 135.286 22.488 134.374 22.488C133.414 22.488 132.71 23.336 132.71 24.424V29H130.758ZM148.205 29.288C144.877 29.288 142.749 27.128 142.749 23.32C142.749 19.72 145.149 17.512 148.317 17.512C151.053 17.512 153.021 19.08 153.309 21.736H151.133C150.925 20.28 149.965 19.288 148.317 19.288C146.333 19.288 144.909 20.808 144.909 23.32C144.909 25.928 146.317 27.512 148.269 27.512C149.933 27.512 151.037 26.44 151.261 24.952H153.357C153.085 27.544 151.213 29.288 148.205 29.288ZM157.405 29V19.576H153.661V17.8H163.229V19.576H159.501V29H157.405ZM161.858 29L166.466 17.8H168.866L173.474 29H171.122L170.002 25.944H165.234L164.098 29H161.858ZM165.89 24.168H169.346L168.066 20.68C167.89 20.216 167.762 19.848 167.634 19.384C167.49 19.848 167.33 20.232 167.17 20.68L165.89 24.168Z" fill="#464134"/>
</svg>
