<svg width="61" height="37" viewBox="0 0 61 37" fill="none" xmlns="http://www.w3.org/2000/svg">
<g clip-path="url(#clip0_51_6556)">
<path d="M26.304 16.9999H25.554C25.554 17.3041 25.7377 17.5782 26.0191 17.6937C26.3005 17.8093 26.6238 17.7434 26.8376 17.5269L26.304 16.9999ZM26.304 13.9999H27.054V13.2499H26.304V13.9999ZM29.8005 14.5269C30.0916 14.2322 30.0887 13.7574 29.794 13.4663C29.4992 13.1752 29.0244 13.1782 28.7333 13.4729L29.8005 14.5269ZM34.5169 11.3333V12.0833H36.0169V11.3333H34.5169ZM23.9547 12.2898L23.2126 12.3985L23.2126 12.3985L23.9547 12.2898ZM25.6437 13.9788L25.7524 13.2367L25.7524 13.2367L25.6437 13.9788ZM34.1749 5.55124L34.5154 4.88298L34.5154 4.88298L34.1749 5.55124ZM35.0489 6.42527L35.7172 6.08478L35.7172 6.08478L35.0489 6.42527ZM25.0256 5.55124L25.3661 6.21949L25.3661 6.21949L25.0256 5.55124ZM24.1516 6.42527L24.8198 6.76576L24.8198 6.76576L24.1516 6.42527ZM35.2669 19.3333L34.8088 19.9271C35.0352 20.1017 35.3412 20.1325 35.5978 20.0063C35.8544 19.8802 36.0169 19.6192 36.0169 19.3333H35.2669ZM32.6003 17.2761L33.0584 16.6823L32.8559 16.5261H32.6003V17.2761ZM35.2669 17.2761V16.5261H34.5169V17.2761H35.2669ZM29.4123 16.5481L30.0805 16.2076L29.4123 16.5481ZM29.9949 17.1308L30.3354 16.4625L29.9949 17.1308ZM29.9949 11.4786L30.3354 12.1468L29.9949 11.4786ZM29.4123 12.0613L30.0805 12.4018L29.4123 12.0613ZM36.5389 11.4786L36.1984 12.1468L36.5389 11.4786ZM37.1216 12.0613L36.4533 12.4018L37.1216 12.0613ZM27.1336 6.08325H32.0669V4.58325H27.1336V6.08325ZM24.6836 11.6295V8.53325H23.1836V11.6295H24.6836ZM27.054 16.9999V13.9999H25.554V16.9999H27.054ZM28.7333 13.4729L25.7704 16.4729L26.8376 17.5269L29.8005 14.5269L28.7333 13.4729ZM34.5169 8.53325V11.3333H36.0169V8.53325H34.5169ZM23.1836 11.6295C23.1836 11.9471 23.1816 12.1866 23.2126 12.3985L24.6968 12.1811C24.6856 12.1046 24.6836 12.0001 24.6836 11.6295H23.1836ZM26.304 13.2499C25.9334 13.2499 25.8289 13.2479 25.7524 13.2367L25.535 14.7209C25.7469 14.7519 25.9864 14.7499 26.304 14.7499V13.2499ZM23.2126 12.3985C23.3887 13.6007 24.3329 14.5448 25.535 14.7209L25.7524 13.2367C25.206 13.1567 24.7768 12.7275 24.6968 12.1811L23.2126 12.3985ZM32.0669 6.08325C32.6394 6.08325 33.0236 6.08384 33.3194 6.10801C33.6066 6.13147 33.7439 6.17335 33.8344 6.21949L34.5154 4.88298C34.1781 4.71114 33.8215 4.64403 33.4416 4.61299C33.0705 4.58267 32.6146 4.58325 32.0669 4.58325V6.08325ZM36.0169 8.53325C36.0169 7.98558 36.0175 7.52971 35.9872 7.15858C35.9562 6.7787 35.889 6.42204 35.7172 6.08478L34.3807 6.76576C34.4268 6.85632 34.4687 6.99361 34.4922 7.28073C34.5163 7.57661 34.5169 7.96082 34.5169 8.53325H36.0169ZM33.8344 6.21949C34.0696 6.33934 34.2608 6.53056 34.3807 6.76576L35.7172 6.08478C35.4535 5.56733 35.0328 5.14664 34.5154 4.88298L33.8344 6.21949ZM27.1336 4.58325C26.5859 4.58325 26.1301 4.58267 25.7589 4.61299C25.379 4.64403 25.0224 4.71114 24.6851 4.88298L25.3661 6.21949C25.4567 6.17335 25.5939 6.13147 25.8811 6.10801C26.177 6.08384 26.5612 6.08325 27.1336 6.08325V4.58325ZM24.6836 8.53325C24.6836 7.96082 24.6842 7.57661 24.7084 7.28073C24.7318 6.99361 24.7737 6.85632 24.8198 6.76576L23.4833 6.08478C23.3115 6.42204 23.2444 6.7787 23.2133 7.15858C23.183 7.52971 23.1836 7.98558 23.1836 8.53325H24.6836ZM24.6851 4.88298C24.1677 5.14664 23.747 5.56733 23.4833 6.08478L24.8198 6.76576C24.9397 6.53056 25.1309 6.33934 25.3661 6.21949L24.6851 4.88298ZM35.1336 10.5833H31.4003V12.0833H35.1336V10.5833ZM28.5169 13.4666V15.1428H30.0169V13.4666H28.5169ZM31.4003 18.0261H32.6003V16.5261H31.4003V18.0261ZM32.1422 17.8699L34.8088 19.9271L35.725 18.7394L33.0584 16.6823L32.1422 17.8699ZM38.0169 15.2761V13.4666H36.5169V15.2761H38.0169ZM36.0169 19.3333V17.2761H34.5169V19.3333H36.0169ZM28.5169 15.1428C28.5169 15.5038 28.5163 15.8196 28.5376 16.0796C28.5595 16.3483 28.6085 16.6226 28.744 16.8886L30.0805 16.2076C30.0707 16.1883 30.047 16.1334 30.0326 15.9574C30.0175 15.7727 30.0169 15.5285 30.0169 15.1428H28.5169ZM31.4003 16.5261C31.0145 16.5261 30.7703 16.5255 30.5856 16.5104C30.4096 16.4961 30.3547 16.4723 30.3354 16.4625L29.6544 17.799C29.9204 17.9346 30.1947 17.9835 30.4635 18.0055C30.7234 18.0267 31.0393 18.0261 31.4003 18.0261V16.5261ZM28.744 16.8886C28.9437 17.2806 29.2624 17.5993 29.6544 17.799L30.3354 16.4625C30.2257 16.4066 30.1364 16.3174 30.0805 16.2076L28.744 16.8886ZM31.4003 10.5833C31.0393 10.5833 30.7234 10.5827 30.4635 10.6039C30.1947 10.6259 29.9204 10.6748 29.6544 10.8103L30.3354 12.1468C30.3547 12.137 30.4096 12.1133 30.5856 12.0989C30.7703 12.0838 31.0145 12.0833 31.4003 12.0833V10.5833ZM30.0169 13.4666C30.0169 13.0808 30.0175 12.8366 30.0326 12.6519C30.047 12.476 30.0707 12.421 30.0805 12.4018L28.744 11.7208C28.6085 11.9867 28.5595 12.2611 28.5376 12.5298C28.5163 12.7897 28.5169 13.1056 28.5169 13.4666H30.0169ZM29.6544 10.8103C29.2624 11.0101 28.9437 11.3288 28.744 11.7208L30.0805 12.4018C30.1364 12.292 30.2257 12.2028 30.3354 12.1468L29.6544 10.8103ZM36.5169 15.2761C36.5169 15.597 36.5165 15.8001 36.506 15.9546C36.4959 16.1024 36.4791 16.1501 36.4725 16.166L37.8583 16.74C37.9533 16.5109 37.9872 16.2808 38.0025 16.0567C38.0173 15.8393 38.0169 15.5765 38.0169 15.2761H36.5169ZM35.2669 18.0261C35.5673 18.0261 35.8301 18.0265 36.0475 18.0117C36.2717 17.9964 36.5017 17.9624 36.7309 17.8675L36.1568 16.4817C36.1409 16.4883 36.0932 16.5051 35.9454 16.5152C35.7909 16.5257 35.5878 16.5261 35.2669 16.5261V18.0261ZM36.4725 16.166C36.4133 16.3089 36.2998 16.4225 36.1568 16.4817L36.7309 17.8675C37.2413 17.6561 37.6469 17.2505 37.8583 16.74L36.4725 16.166ZM35.1336 12.0833C35.5193 12.0833 35.7635 12.0838 35.9483 12.0989C36.1242 12.1133 36.1792 12.137 36.1984 12.1468L36.8794 10.8103C36.6134 10.6748 36.3391 10.6259 36.0704 10.6039C35.8104 10.5827 35.4946 10.5833 35.1336 10.5833V12.0833ZM38.0169 13.4666C38.0169 13.1056 38.0175 12.7897 37.9963 12.5298C37.9743 12.2611 37.9254 11.9867 37.7899 11.7208L36.4533 12.4018C36.4632 12.421 36.4869 12.476 36.5013 12.6519C36.5163 12.8366 36.5169 13.0808 36.5169 13.4666H38.0169ZM36.1984 12.1468C36.3082 12.2028 36.3974 12.292 36.4533 12.4018L37.7899 11.7208C37.5901 11.3288 37.2714 11.0101 36.8794 10.8103L36.1984 12.1468Z" fill="#464134"/>
</g>
<path d="M24.2822 31.144C22.4462 31.144 21.2402 29.911 21.2402 27.805C21.2402 25.816 22.5632 24.547 24.3272 24.547C25.8572 24.547 26.9282 25.456 27.0722 26.824H26.0102C25.8662 25.951 25.2812 25.393 24.3092 25.393C23.1122 25.393 22.2842 26.302 22.2842 27.805C22.2842 29.335 23.1212 30.298 24.2912 30.298C25.2812 30.298 25.9202 29.704 26.0732 28.84H27.0902C26.9282 30.244 25.8752 31.144 24.2822 31.144ZM28.0482 31V24.7H28.9842V26.842L28.9662 27.238C29.2002 26.815 29.6682 26.491 30.3072 26.491C31.2882 26.491 31.8822 27.148 31.8822 28.246V31H30.9462V28.372C30.9462 27.643 30.6492 27.229 30.0372 27.229C29.3982 27.229 28.9842 27.76 28.9842 28.408V31H28.0482ZM34.3178 31.144C33.5258 31.144 32.8148 30.64 32.8148 29.803C32.8148 28.885 33.5348 28.516 34.3898 28.399L35.1728 28.282C35.5148 28.237 35.6318 28.111 35.6318 27.868C35.6318 27.481 35.3258 27.202 34.8398 27.202C34.2458 27.202 33.9128 27.526 33.8858 28.021H32.9318C32.9768 27.166 33.6608 26.491 34.7768 26.491C35.9828 26.491 36.5588 27.166 36.5588 28.282V31H35.6858V30.802C35.6858 30.667 35.6948 30.541 35.7038 30.406C35.4788 30.847 35.0198 31.144 34.3178 31.144ZM34.5248 30.442C35.1638 30.442 35.6498 29.992 35.6498 29.326V28.768C35.5778 28.858 35.4158 28.912 35.1548 28.957L34.6598 29.056C34.1468 29.155 33.7778 29.353 33.7778 29.776C33.7778 30.199 34.1108 30.442 34.5248 30.442ZM39.4536 31.072C38.6616 31.072 38.1216 30.685 38.1216 29.713V27.391H37.2126V26.635H38.1216V25.123H39.0576V26.635H40.0476V27.391H39.0576V29.587C39.0576 30.073 39.2736 30.289 39.6966 30.289C39.8046 30.289 39.9126 30.28 40.0296 30.262V31.009C39.8946 31.045 39.6786 31.072 39.4536 31.072Z" fill="#464134"/>
<defs>
<clipPath id="clip0_51_6556">
<rect width="16" height="16" fill="white" transform="translate(22.6001 4)"/>
</clipPath>
</defs>
</svg>
