<svg width="72" height="344" viewBox="0 0 72 344" fill="none" xmlns="http://www.w3.org/2000/svg">
<path d="M34 28V23.0667C34 22.6933 34 22.5066 34.0727 22.364C34.1366 22.2386 34.2386 22.1366 34.364 22.0727C34.5066 22 34.6933 22 35.0667 22H36.9333C37.3067 22 37.4934 22 37.636 22.0727C37.7614 22.1366 37.8634 22.2386 37.9273 22.364C38 22.5066 38 22.6933 38 23.0667V28M35.3451 15.8427L30.8236 19.3594C30.5213 19.5945 30.3702 19.712 30.2614 19.8592C30.1649 19.9896 30.0931 20.1365 30.0494 20.2927C30 20.469 30 20.6605 30 21.0434V25.8667C30 26.6134 30 26.9868 30.1453 27.272C30.2732 27.5229 30.4771 27.7268 30.728 27.8547C31.0132 28 31.3866 28 32.1333 28H39.8667C40.6134 28 40.9868 28 41.272 27.8547C41.5229 27.7268 41.7268 27.5229 41.8547 27.272C42 26.9868 42 26.6134 42 25.8667V21.0434C42 20.6605 42 20.469 41.9506 20.2927C41.9069 20.1365 41.8351 19.9896 41.7386 19.8592C41.6298 19.712 41.4787 19.5945 41.1764 19.3594L36.6549 15.8427C36.4207 15.6605 36.3035 15.5694 36.1742 15.5344C36.0601 15.5035 35.9399 15.5035 35.8258 15.5344C35.6965 15.5694 35.5793 15.6605 35.3451 15.8427Z" stroke="#464134" stroke-width="1.5" stroke-linecap="square"/>
<path d="M20.9475 45V36.6H22.2795V40.08H26.4555V36.6H27.7875V45H26.4555V41.208H22.2795V45H20.9475ZM32.0774 45.192C30.3614 45.192 29.1614 43.992 29.1614 42.096C29.1614 40.236 30.3734 38.988 32.0774 38.988C33.7934 38.988 35.0054 40.236 35.0054 42.096C35.0054 43.992 33.7934 45.192 32.0774 45.192ZM32.0774 44.22C33.0854 44.22 33.7334 43.392 33.7334 42.096C33.7334 40.776 33.0734 39.972 32.0774 39.972C31.0934 39.972 30.4334 40.776 30.4334 42.096C30.4334 43.392 31.0694 44.22 32.0774 44.22ZM36.3065 45V39.18H37.5545V39.54C37.5545 39.684 37.5425 39.84 37.5305 39.984C37.8425 39.444 38.4065 38.988 39.2225 38.988C39.9665 38.988 40.5785 39.456 40.8545 40.104C41.2265 39.48 41.9105 38.988 42.7505 38.988C43.9265 38.988 44.7665 39.816 44.7665 41.328V45H43.5185V41.532C43.5185 40.56 43.1945 39.972 42.4265 39.972C41.6585 39.972 41.1545 40.668 41.1545 41.568V45H39.9065V41.556C39.9065 40.572 39.5825 39.972 38.8265 39.972C38.0585 39.972 37.5545 40.656 37.5545 41.592V45H36.3065ZM48.8932 45.192C47.1532 45.192 46.0012 44.088 46.0012 42.072C46.0012 40.26 47.2012 38.988 48.8452 38.988C50.5972 38.988 51.5932 40.212 51.5932 42.096V42.36H47.2612C47.2852 43.488 47.9572 44.22 48.9052 44.22C49.5772 44.22 50.1652 43.896 50.2852 43.152H51.5452C51.4252 44.256 50.5132 45.192 48.8932 45.192ZM50.2852 41.472C50.2732 40.56 49.7332 39.936 48.8332 39.936C47.9572 39.936 47.3572 40.596 47.2732 41.472H50.2852Z" fill="#464134"/>
<g clip-path="url(#clip0_51_6312)">
<path d="M33.9999 77.4815L36.5184 80M33.3165 83.9833C32.4053 84.8945 30.6666 84.6667 29.3333 84.6667C30.0167 83.3334 29.1054 81.5947 30.0167 80.6835C30.9279 79.7722 32.4053 79.7722 33.3165 80.6835C34.2277 81.5947 34.2277 83.0721 33.3165 83.9833ZM35.9477 80.6164L42.0391 74.0377C42.5756 73.4583 42.5583 72.5584 41.9999 72C41.4415 71.4416 40.5416 71.4243 39.9622 71.9609L33.3835 78.0523C33.0435 78.367 32.8735 78.5244 32.7744 78.6923C32.5367 79.0948 32.5271 79.5924 32.7492 80.0037C32.8418 80.1753 33.0056 80.3391 33.3332 80.6667C33.6608 80.9943 33.8246 81.1581 33.9962 81.2507C34.4075 81.4728 34.9051 81.4632 35.3076 81.2255C35.4755 81.1264 35.6329 80.9564 35.9477 80.6164Z" stroke="#464134" stroke-width="1.5" stroke-linecap="square"/>
</g>
<path d="M23.514 101.176C21.27 101.176 19.796 99.669 19.796 97.095C19.796 94.664 21.413 93.113 23.569 93.113C25.439 93.113 26.748 94.224 26.924 95.896H25.626C25.45 94.829 24.735 94.147 23.547 94.147C22.084 94.147 21.072 95.258 21.072 97.095C21.072 98.965 22.095 100.142 23.525 100.142C24.735 100.142 25.516 99.416 25.703 98.36H26.946C26.748 100.076 25.461 101.176 23.514 101.176ZM28.1169 101V95.665H29.2609V95.984L29.2389 96.589C29.5139 95.984 30.0419 95.489 30.8559 95.489C30.9439 95.489 31.0319 95.489 31.1199 95.511V96.622C31.0319 96.611 30.9329 96.589 30.7789 96.589C29.8549 96.589 29.2609 97.084 29.2609 98.261V101H28.1169ZM34.2192 101.176C32.6242 101.176 31.5682 100.164 31.5682 98.316C31.5682 96.655 32.6682 95.489 34.1752 95.489C35.7812 95.489 36.6942 96.611 36.6942 98.338V98.58H32.7232C32.7452 99.614 33.3612 100.285 34.2302 100.285C34.8462 100.285 35.3852 99.988 35.4952 99.306H36.6502C36.5402 100.318 35.7042 101.176 34.2192 101.176ZM35.4952 97.766C35.4842 96.93 34.9892 96.358 34.1642 96.358C33.3612 96.358 32.8112 96.963 32.7342 97.766H35.4952ZM39.4106 101.176C38.4426 101.176 37.5736 100.56 37.5736 99.537C37.5736 98.415 38.4536 97.964 39.4986 97.821L40.4556 97.678C40.8736 97.623 41.0166 97.469 41.0166 97.172C41.0166 96.699 40.6426 96.358 40.0486 96.358C39.3226 96.358 38.9156 96.754 38.8826 97.359H37.7166C37.7716 96.314 38.6076 95.489 39.9716 95.489C41.4456 95.489 42.1496 96.314 42.1496 97.678V101H41.0826V100.758C41.0826 100.593 41.0936 100.439 41.1046 100.274C40.8296 100.813 40.2686 101.176 39.4106 101.176ZM39.6636 100.318C40.4446 100.318 41.0386 99.768 41.0386 98.954V98.272C40.9506 98.382 40.7526 98.448 40.4336 98.503L39.8286 98.624C39.2016 98.745 38.7506 98.987 38.7506 99.504C38.7506 100.021 39.1576 100.318 39.6636 100.318ZM45.6877 101.088C44.7197 101.088 44.0597 100.615 44.0597 99.427V96.589H42.9487V95.665H44.0597V93.817H45.2037V95.665H46.4137V96.589H45.2037V99.273C45.2037 99.867 45.4677 100.131 45.9847 100.131C46.1167 100.131 46.2487 100.12 46.3917 100.098V101.011C46.2267 101.055 45.9627 101.088 45.6877 101.088ZM49.7846 101.176C48.1896 101.176 47.1336 100.164 47.1336 98.316C47.1336 96.655 48.2336 95.489 49.7406 95.489C51.3466 95.489 52.2596 96.611 52.2596 98.338V98.58H48.2886C48.3106 99.614 48.9266 100.285 49.7956 100.285C50.4116 100.285 50.9506 99.988 51.0606 99.306H52.2156C52.1056 100.318 51.2696 101.176 49.7846 101.176ZM51.0606 97.766C51.0496 96.93 50.5546 96.358 49.7296 96.358C48.9266 96.358 48.3766 96.963 48.2996 97.766H51.0606Z" fill="#464134"/>
<path d="M40 136L42 138M42 138L40 140M42 138H40.3793C39.7531 138 39.44 138 39.1559 137.914C38.9043 137.837 38.6702 137.712 38.4671 137.545C38.2377 137.357 38.064 137.096 37.7167 136.575L37.5556 136.333M40 128L42 130M42 130L40 132M42 130H40.3793C39.7531 130 39.44 130 39.1559 130.086C38.9043 130.163 38.6702 130.288 38.4671 130.455C38.2377 130.643 38.064 130.904 37.7167 131.425L34.2833 136.575C33.936 137.096 33.7623 137.357 33.5329 137.545C33.3298 137.712 33.0957 137.837 32.8441 137.914C32.56 138 32.2469 138 31.6207 138H30M30 130H31.6207C32.2469 130 32.56 130 32.8441 130.086C33.0957 130.163 33.3298 130.288 33.5329 130.455C33.7623 130.643 33.936 130.904 34.2833 131.425L34.4444 131.667" stroke="#464134" stroke-width="1.5" stroke-linecap="square"/>
<path d="M21.6862 157V149.3H25.0302C26.4822 149.3 27.4722 150.004 27.4722 151.324C27.4722 152.336 26.7462 152.985 26.0312 153.194C26.8342 153.337 27.3292 153.964 27.3292 154.965V157H26.1082V155.174C26.1082 154.107 25.7012 153.755 24.6672 153.755H22.9072V157H21.6862ZM24.7662 152.71C25.7122 152.71 26.2182 152.292 26.2182 151.511C26.2182 150.73 25.7122 150.323 24.7662 150.323H22.9072V152.71H24.7662ZM31.0824 157.176C29.4874 157.176 28.4314 156.164 28.4314 154.316C28.4314 152.655 29.5314 151.489 31.0384 151.489C32.6444 151.489 33.5574 152.611 33.5574 154.338V154.58H29.5864C29.6084 155.614 30.2244 156.285 31.0934 156.285C31.7094 156.285 32.2484 155.988 32.3584 155.306H33.5134C33.4034 156.318 32.5674 157.176 31.0824 157.176ZM32.3584 153.766C32.3474 152.93 31.8524 152.358 31.0274 152.358C30.2244 152.358 29.6744 152.963 29.5974 153.766H32.3584ZM34.7448 157V151.665H35.8888V151.995C35.8888 152.127 35.8778 152.27 35.8668 152.402C36.1528 151.907 36.6698 151.489 37.4178 151.489C38.0998 151.489 38.6608 151.918 38.9138 152.512C39.2548 151.94 39.8818 151.489 40.6518 151.489C41.7298 151.489 42.4998 152.248 42.4998 153.634V157H41.3558V153.821C41.3558 152.93 41.0588 152.391 40.3548 152.391C39.6508 152.391 39.1888 153.029 39.1888 153.854V157H38.0448V153.843C38.0448 152.941 37.7478 152.391 37.0548 152.391C36.3508 152.391 35.8888 153.018 35.8888 153.876V157H34.7448ZM43.9616 157V151.665H45.1056V157H43.9616ZM43.9066 150.752V149.487H45.1606V150.752H43.9066ZM45.922 157L47.924 154.272L46.054 151.665H47.396L48.276 152.985C48.386 153.139 48.485 153.293 48.584 153.458C48.672 153.293 48.771 153.15 48.881 152.996L49.794 151.665H51.081L49.167 154.25L51.147 157H49.805L48.826 155.526L48.518 155.064L48.221 155.526L47.209 157H45.922Z" fill="#464134"/>
<g clip-path="url(#clip1_51_6312)">
<path d="M31.7036 195H30.9536C30.9536 195.304 31.1374 195.578 31.4188 195.694C31.7002 195.809 32.0235 195.743 32.2372 195.527L31.7036 195ZM31.7036 192H32.4536V191.25H31.7036V192ZM35.2002 192.527C35.4913 192.232 35.4883 191.757 35.1936 191.466C34.8989 191.175 34.424 191.178 34.133 191.473L35.2002 192.527ZM39.9166 189.333V190.083H41.4166V189.333H39.9166ZM29.3544 190.29L28.6123 190.398L28.6123 190.398L29.3544 190.29ZM31.0434 191.979L31.1521 191.237L31.1521 191.237L31.0434 191.979ZM39.5746 183.551L39.9151 182.883L39.9151 182.883L39.5746 183.551ZM40.4486 184.425L41.1169 184.085L41.1169 184.085L40.4486 184.425ZM30.4253 183.551L30.7658 184.219L30.7658 184.219L30.4253 183.551ZM29.5512 184.425L30.2195 184.766L30.2195 184.766L29.5512 184.425ZM40.6666 197.333L40.2085 197.927C40.4349 198.102 40.7408 198.132 40.9974 198.006C41.254 197.88 41.4166 197.619 41.4166 197.333H40.6666ZM37.9999 195.276L38.458 194.682L38.2556 194.526H37.9999V195.276ZM40.6666 195.276V194.526H39.9166V195.276H40.6666ZM34.8119 194.548L35.4802 194.208L34.8119 194.548ZM35.3946 195.131L35.7351 194.463L35.3946 195.131ZM35.3946 189.479L35.7351 190.147L35.3946 189.479ZM34.8119 190.061L35.4802 190.402L34.8119 190.061ZM41.9386 189.479L41.5981 190.147L41.9386 189.479ZM42.5213 190.061L41.853 190.402L42.5213 190.061ZM32.5333 184.083H37.4666V182.583H32.5333V184.083ZM30.0833 189.63V186.533H28.5833V189.63H30.0833ZM32.4536 195V192H30.9536V195H32.4536ZM34.133 191.473L31.17 194.473L32.2372 195.527L35.2002 192.527L34.133 191.473ZM39.9166 186.533V189.333H41.4166V186.533H39.9166ZM28.5833 189.63C28.5833 189.947 28.5813 190.187 28.6123 190.398L30.0964 190.181C30.0852 190.105 30.0833 190 30.0833 189.63H28.5833ZM31.7036 191.25C31.3331 191.25 31.2286 191.248 31.1521 191.237L30.9347 192.721C31.1465 192.752 31.3861 192.75 31.7036 192.75V191.25ZM28.6123 190.398C28.7884 191.601 29.7325 192.545 30.9347 192.721L31.1521 191.237C30.6056 191.157 30.1765 190.728 30.0964 190.181L28.6123 190.398ZM37.4666 184.083C38.039 184.083 38.4232 184.084 38.7191 184.108C39.0062 184.131 39.1435 184.173 39.2341 184.219L39.9151 182.883C39.5778 182.711 39.2211 182.644 38.8413 182.613C38.4701 182.583 38.0143 182.583 37.4666 182.583V184.083ZM41.4166 186.533C41.4166 185.986 41.4172 185.53 41.3868 185.159C41.3558 184.779 41.2887 184.422 41.1169 184.085L39.7803 184.766C39.8265 184.856 39.8684 184.994 39.8918 185.281C39.916 185.577 39.9166 185.961 39.9166 186.533H41.4166ZM39.2341 184.219C39.4693 184.339 39.6605 184.531 39.7803 184.766L41.1169 184.085C40.8532 183.567 40.4325 183.147 39.9151 182.883L39.2341 184.219ZM32.5333 182.583C31.9856 182.583 31.5297 182.583 31.1586 182.613C30.7787 182.644 30.422 182.711 30.0848 182.883L30.7658 184.219C30.8563 184.173 30.9936 184.131 31.2807 184.108C31.5766 184.084 31.9608 184.083 32.5333 184.083V182.583ZM30.0833 186.533C30.0833 185.961 30.0838 185.577 30.108 185.281C30.1315 184.994 30.1734 184.856 30.2195 184.766L28.883 184.085C28.7111 184.422 28.644 184.779 28.613 185.159C28.5827 185.53 28.5833 185.986 28.5833 186.533H30.0833ZM30.0848 182.883C29.5673 183.147 29.1466 183.567 28.883 184.085L30.2195 184.766C30.3393 184.531 30.5306 184.339 30.7658 184.219L30.0848 182.883ZM40.5333 188.583H36.7999V190.083H40.5333V188.583ZM33.9166 191.467V193.143H35.4166V191.467H33.9166ZM36.7999 196.026H37.9999V194.526H36.7999V196.026ZM37.5418 195.87L40.2085 197.927L41.1247 196.739L38.458 194.682L37.5418 195.87ZM43.4166 193.276V191.467H41.9166V193.276H43.4166ZM41.4166 197.333V195.276H39.9166V197.333H41.4166ZM33.9166 193.143C33.9166 193.504 33.916 193.82 33.9372 194.08C33.9592 194.348 34.0081 194.623 34.1437 194.889L35.4802 194.208C35.4704 194.188 35.4466 194.133 35.4323 193.957C35.4172 193.773 35.4166 193.529 35.4166 193.143H33.9166ZM36.7999 194.526C36.4142 194.526 36.17 194.526 35.9853 194.51C35.8093 194.496 35.7543 194.472 35.7351 194.463L35.0541 195.799C35.3201 195.935 35.5944 195.983 35.8631 196.005C36.1231 196.027 36.4389 196.026 36.7999 196.026V194.526ZM34.1437 194.889C34.3434 195.281 34.6621 195.599 35.0541 195.799L35.7351 194.463C35.6253 194.407 35.5361 194.317 35.4802 194.208L34.1437 194.889ZM36.7999 188.583C36.4389 188.583 36.1231 188.583 35.8631 188.604C35.5944 188.626 35.3201 188.675 35.0541 188.81L35.7351 190.147C35.7543 190.137 35.8093 190.113 35.9853 190.099C36.17 190.084 36.4142 190.083 36.7999 190.083V188.583ZM35.4166 191.467C35.4166 191.081 35.4172 190.837 35.4323 190.652C35.4466 190.476 35.4704 190.421 35.4802 190.402L34.1437 189.721C34.0081 189.987 33.9592 190.261 33.9372 190.53C33.916 190.79 33.9166 191.106 33.9166 191.467H35.4166ZM35.0541 188.81C34.6621 189.01 34.3434 189.329 34.1437 189.721L35.4802 190.402C35.5361 190.292 35.6253 190.203 35.7351 190.147L35.0541 188.81ZM41.9166 193.276C41.9166 193.597 41.9162 193.8 41.9056 193.955C41.8956 194.102 41.8788 194.15 41.8722 194.166L43.258 194.74C43.3529 194.511 43.3869 194.281 43.4022 194.057C43.417 193.839 43.4166 193.576 43.4166 193.276H41.9166ZM40.6666 196.026C40.967 196.026 41.2298 196.027 41.4472 196.012C41.6713 195.996 41.9014 195.962 42.1305 195.868L41.5565 194.482C41.5406 194.488 41.4928 194.505 41.3451 194.515C41.1906 194.526 40.9875 194.526 40.6666 194.526V196.026ZM41.8722 194.166C41.813 194.309 41.6994 194.423 41.5565 194.482L42.1305 195.868C42.641 195.656 43.0466 195.251 43.258 194.74L41.8722 194.166ZM40.5333 190.083C40.919 190.083 41.1632 190.084 41.3479 190.099C41.5239 190.113 41.5788 190.137 41.5981 190.147L42.2791 188.81C42.0131 188.675 41.7388 188.626 41.4701 188.604C41.2101 188.583 40.8942 188.583 40.5333 188.583V190.083ZM43.4166 191.467C43.4166 191.106 43.4172 190.79 43.3959 190.53C43.374 190.261 43.325 189.987 43.1895 189.721L41.853 190.402C41.8628 190.421 41.8865 190.476 41.9009 190.652C41.916 190.837 41.9166 191.081 41.9166 191.467H43.4166ZM41.5981 190.147C41.7078 190.203 41.7971 190.292 41.853 190.402L43.1895 189.721C42.9898 189.329 42.6711 189.01 42.2791 188.81L41.5981 190.147Z" fill="#464134"/>
</g>
<path d="M28.2782 213.176C26.0342 213.176 24.5602 211.669 24.5602 209.095C24.5602 206.664 26.1772 205.113 28.3332 205.113C30.2032 205.113 31.5122 206.224 31.6882 207.896H30.3902C30.2142 206.829 29.4992 206.147 28.3112 206.147C26.8482 206.147 25.8362 207.258 25.8362 209.095C25.8362 210.965 26.8592 212.142 28.2892 212.142C29.4992 212.142 30.2802 211.416 30.4672 210.36H31.7102C31.5122 212.076 30.2252 213.176 28.2782 213.176ZM32.8811 213V205.3H34.0251V207.918L34.0031 208.402C34.2891 207.885 34.8611 207.489 35.6421 207.489C36.8411 207.489 37.5671 208.292 37.5671 209.634V213H36.4231V209.788C36.4231 208.897 36.0601 208.391 35.3121 208.391C34.5311 208.391 34.0251 209.04 34.0251 209.832V213H32.8811ZM40.5439 213.176C39.5759 213.176 38.7069 212.56 38.7069 211.537C38.7069 210.415 39.5869 209.964 40.6319 209.821L41.5889 209.678C42.0069 209.623 42.1499 209.469 42.1499 209.172C42.1499 208.699 41.7759 208.358 41.1819 208.358C40.4559 208.358 40.0489 208.754 40.0159 209.359H38.8499C38.9049 208.314 39.7409 207.489 41.1049 207.489C42.5789 207.489 43.2829 208.314 43.2829 209.678V213H42.2159V212.758C42.2159 212.593 42.2269 212.439 42.2379 212.274C41.9629 212.813 41.4019 213.176 40.5439 213.176ZM40.7969 212.318C41.5779 212.318 42.1719 211.768 42.1719 210.954V210.272C42.0839 210.382 41.8859 210.448 41.5669 210.503L40.9619 210.624C40.3349 210.745 39.8839 210.987 39.8839 211.504C39.8839 212.021 40.2909 212.318 40.7969 212.318ZM46.821 213.088C45.853 213.088 45.193 212.615 45.193 211.427V208.589H44.082V207.665H45.193V205.817H46.337V207.665H47.547V208.589H46.337V211.273C46.337 211.867 46.601 212.131 47.118 212.131C47.25 212.131 47.382 212.12 47.525 212.098V213.011C47.36 213.055 47.096 213.088 46.821 213.088Z" fill="#464134"/>
<path d="M35.9999 239.333L38.0599 243.507L42.6666 244.18L39.3333 247.427L40.1199 252.013L35.9999 249.847L31.8799 252.013L32.6666 247.427L29.3333 244.18L33.9399 243.507L35.9999 239.333Z" stroke="#464134" stroke-width="1.5" stroke-linecap="square" stroke-linejoin="round"/>
<path d="M14.1882 269V261.3H19.3692V262.323H15.4092V264.6H19.1712V265.634H15.4092V269H14.1882ZM21.8256 269.176C20.8576 269.176 19.9886 268.56 19.9886 267.537C19.9886 266.415 20.8686 265.964 21.9136 265.821L22.8706 265.678C23.2886 265.623 23.4316 265.469 23.4316 265.172C23.4316 264.699 23.0576 264.358 22.4636 264.358C21.7376 264.358 21.3306 264.754 21.2976 265.359H20.1316C20.1866 264.314 21.0226 263.489 22.3866 263.489C23.8606 263.489 24.5646 264.314 24.5646 265.678V269H23.4976V268.758C23.4976 268.593 23.5086 268.439 23.5196 268.274C23.2446 268.813 22.6836 269.176 21.8256 269.176ZM22.0786 268.318C22.8596 268.318 23.4536 267.768 23.4536 266.954V266.272C23.3656 266.382 23.1676 266.448 22.8486 266.503L22.2436 266.624C21.6166 266.745 21.1656 266.987 21.1656 267.504C21.1656 268.021 21.5726 268.318 22.0786 268.318ZM27.2895 269L25.2655 263.665H26.4975L27.7625 267.35C27.8505 267.581 27.8945 267.746 27.9495 267.955C28.0045 267.746 28.0595 267.581 28.1365 267.35L29.3795 263.665H30.5675L28.5765 269H27.2895ZM33.6826 269.176C32.1096 269.176 31.0096 268.076 31.0096 266.338C31.0096 264.633 32.1206 263.489 33.6826 263.489C35.2556 263.489 36.3666 264.633 36.3666 266.338C36.3666 268.076 35.2556 269.176 33.6826 269.176ZM33.6826 268.285C34.6066 268.285 35.2006 267.526 35.2006 266.338C35.2006 265.128 34.5956 264.391 33.6826 264.391C32.7806 264.391 32.1756 265.128 32.1756 266.338C32.1756 267.526 32.7586 268.285 33.6826 268.285ZM37.5593 269V263.665H38.7033V263.984L38.6813 264.589C38.9563 263.984 39.4843 263.489 40.2983 263.489C40.3863 263.489 40.4743 263.489 40.5623 263.511V264.622C40.4743 264.611 40.3753 264.589 40.2213 264.589C39.2973 264.589 38.7033 265.084 38.7033 266.261V269H37.5593ZM41.5446 269V263.665H42.6886V269H41.5446ZM41.4896 262.752V261.487H42.7436V262.752H41.4896ZM46.343 269.088C45.375 269.088 44.715 268.615 44.715 267.427V264.589H43.604V263.665H44.715V261.817H45.859V263.665H47.069V264.589H45.859V267.273C45.859 267.867 46.123 268.131 46.64 268.131C46.772 268.131 46.904 268.12 47.047 268.098V269.011C46.882 269.055 46.618 269.088 46.343 269.088ZM50.4399 269.176C48.8449 269.176 47.7889 268.164 47.7889 266.316C47.7889 264.655 48.8889 263.489 50.3959 263.489C52.0019 263.489 52.9149 264.611 52.9149 266.338V266.58H48.9439C48.9659 267.614 49.5819 268.285 50.4509 268.285C51.0669 268.285 51.6059 267.988 51.7159 267.306H52.8709C52.7609 268.318 51.9249 269.176 50.4399 269.176ZM51.7159 265.766C51.7049 264.93 51.2099 264.358 50.3849 264.358C49.5819 264.358 49.0319 264.963 48.9549 265.766H51.7159ZM56.0933 269.176C54.6193 269.176 53.7393 268.395 53.6843 267.196H54.8283C54.8613 267.878 55.3013 268.307 56.0823 268.307C56.7533 268.307 57.1933 267.999 57.1933 267.526C57.1933 267.141 56.8963 266.921 56.2913 266.8L55.5653 266.657C54.5093 266.459 53.8713 265.942 53.8713 265.084C53.8713 264.171 54.7403 263.489 56.0053 263.489C57.3583 263.489 58.1943 264.171 58.2493 265.271H57.1053C57.0503 264.688 56.6323 264.358 55.9723 264.358C55.4003 264.358 55.0043 264.611 55.0043 265.029C55.0043 265.403 55.2683 265.59 55.9063 265.711L56.6433 265.854C57.6443 266.052 58.3153 266.525 58.3153 267.438C58.3153 268.428 57.4683 269.176 56.0933 269.176Z" fill="#464134"/>
<path d="M42.6666 308V306.667C42.6666 305.424 41.8167 304.38 40.6666 304.084M38.3333 296.194C39.3105 296.589 39.9999 297.548 39.9999 298.667C39.9999 299.786 39.3105 300.744 38.3333 301.139M39.3333 308V307.2C39.3333 306.08 39.3333 305.52 39.1153 305.092C38.9235 304.716 38.6176 304.41 38.2412 304.218C37.8134 304 37.2534 304 36.1333 304H32.5333C31.4131 304 30.8531 304 30.4253 304.218C30.0489 304.41 29.743 304.716 29.5512 305.092C29.3333 305.52 29.3333 306.08 29.3333 307.2V308M36.9999 298.667C36.9999 300.139 35.806 301.333 34.3333 301.333C32.8605 301.333 31.6666 300.139 31.6666 298.667C31.6666 297.194 32.8605 296 34.3333 296C35.806 296 36.9999 297.194 36.9999 298.667Z" stroke="#464134" stroke-width="1.5" stroke-linecap="square"/>
<path d="M20.7855 325.176C18.5415 325.176 17.0675 323.669 17.0675 321.095C17.0675 318.664 18.6845 317.113 20.8405 317.113C22.7105 317.113 24.0195 318.224 24.1955 319.896H22.8975C22.7215 318.829 22.0065 318.147 20.8185 318.147C19.3555 318.147 18.3435 319.258 18.3435 321.095C18.3435 322.965 19.3665 324.142 20.7965 324.142C22.0065 324.142 22.7875 323.416 22.9745 322.36H24.2175C24.0195 324.076 22.7325 325.176 20.7855 325.176ZM27.2474 325.176C26.0924 325.176 25.3334 324.439 25.3334 323.053V319.665H26.4774V322.855C26.4774 323.735 26.8184 324.274 27.5774 324.274C28.3474 324.274 28.8314 323.691 28.8314 322.723V319.665H29.9754V325H28.8424V324.725C28.8424 324.571 28.8534 324.406 28.8754 324.263C28.6114 324.802 28.0504 325.176 27.2474 325.176ZM33.4702 325.176C31.9962 325.176 31.1162 324.395 31.0612 323.196H32.2052C32.2382 323.878 32.6782 324.307 33.4592 324.307C34.1302 324.307 34.5702 323.999 34.5702 323.526C34.5702 323.141 34.2732 322.921 33.6682 322.8L32.9422 322.657C31.8862 322.459 31.2482 321.942 31.2482 321.084C31.2482 320.171 32.1172 319.489 33.3822 319.489C34.7352 319.489 35.5712 320.171 35.6262 321.271H34.4822C34.4272 320.688 34.0092 320.358 33.3492 320.358C32.7772 320.358 32.3812 320.611 32.3812 321.029C32.3812 321.403 32.6452 321.59 33.2832 321.711L34.0202 321.854C35.0212 322.052 35.6922 322.525 35.6922 323.438C35.6922 324.428 34.8452 325.176 33.4702 325.176ZM38.9631 325.088C37.9951 325.088 37.3351 324.615 37.3351 323.427V320.589H36.2241V319.665H37.3351V317.817H38.4791V319.665H39.6891V320.589H38.4791V323.273C38.4791 323.867 38.7431 324.131 39.2601 324.131C39.3921 324.131 39.5241 324.12 39.6671 324.098V325.011C39.5021 325.055 39.2381 325.088 38.9631 325.088ZM43.082 325.176C41.509 325.176 40.409 324.076 40.409 322.338C40.409 320.633 41.52 319.489 43.082 319.489C44.655 319.489 45.766 320.633 45.766 322.338C45.766 324.076 44.655 325.176 43.082 325.176ZM43.082 324.285C44.006 324.285 44.6 323.526 44.6 322.338C44.6 321.128 43.995 320.391 43.082 320.391C42.18 320.391 41.575 321.128 41.575 322.338C41.575 323.526 42.158 324.285 43.082 324.285ZM46.9587 325V319.665H48.1027V319.995C48.1027 320.127 48.0917 320.27 48.0807 320.402C48.3667 319.907 48.8837 319.489 49.6317 319.489C50.3137 319.489 50.8747 319.918 51.1277 320.512C51.4687 319.94 52.0957 319.489 52.8657 319.489C53.9437 319.489 54.7137 320.248 54.7137 321.634V325H53.5697V321.821C53.5697 320.93 53.2727 320.391 52.5687 320.391C51.8647 320.391 51.4027 321.029 51.4027 321.854V325H50.2587V321.843C50.2587 320.941 49.9617 320.391 49.2687 320.391C48.5647 320.391 48.1027 321.018 48.1027 321.876V325H46.9587Z" fill="#464134"/>
<defs>
<clipPath id="clip0_51_6312">
<rect width="16" height="16" fill="white" transform="translate(28 70)"/>
</clipPath>
<clipPath id="clip1_51_6312">
<rect width="16" height="16" fill="white" transform="translate(28 182)"/>
</clipPath>
</defs>
</svg>
