<svg width="75" height="34" viewBox="0 0 75 34" fill="none" xmlns="http://www.w3.org/2000/svg">
<g clip-path="url(#clip0_51_6488)">
<path d="M11.924 20V12.3H17.105V13.323H13.145V15.6H16.907V16.634H13.145V20H11.924ZM18.2151 20V14.665H19.3591V20H18.2151ZM18.1601 13.752V12.487H19.4141V13.752H18.1601ZM20.8684 20V12.3H22.0124V20H20.8684ZM25.8427 20.176C24.2477 20.176 23.1917 19.164 23.1917 17.316C23.1917 15.655 24.2917 14.489 25.7987 14.489C27.4047 14.489 28.3177 15.611 28.3177 17.338V17.58H24.3467C24.3687 18.614 24.9847 19.285 25.8537 19.285C26.4697 19.285 27.0087 18.988 27.1187 18.306H28.2737C28.1637 19.318 27.3277 20.176 25.8427 20.176ZM27.1187 16.766C27.1077 15.93 26.6127 15.358 25.7877 15.358C24.9847 15.358 24.4347 15.963 24.3577 16.766H27.1187Z" fill="#2F2B23"/>
<rect x="40" y="7" width="1" height="20" fill="#DCD9D0"/>
<path d="M57.0002 17.5832C57.3223 17.5832 57.5835 17.322 57.5835 16.9998C57.5835 16.6777 57.3223 16.4165 57.0002 16.4165C56.678 16.4165 56.4168 16.6777 56.4168 16.9998C56.4168 17.322 56.678 17.5832 57.0002 17.5832Z" fill="#2F2B23"/>
<path d="M61.0835 17.5832C61.4057 17.5832 61.6668 17.322 61.6668 16.9998C61.6668 16.6777 61.4057 16.4165 61.0835 16.4165C60.7613 16.4165 60.5002 16.6777 60.5002 16.9998C60.5002 17.322 60.7613 17.5832 61.0835 17.5832Z" fill="#2F2B23"/>
<path d="M52.9168 17.5832C53.239 17.5832 53.5002 17.322 53.5002 16.9998C53.5002 16.6777 53.239 16.4165 52.9168 16.4165C52.5947 16.4165 52.3335 16.6777 52.3335 16.9998C52.3335 17.322 52.5947 17.5832 52.9168 17.5832Z" fill="#2F2B23"/>
<path d="M57.0002 17.5832C57.3223 17.5832 57.5835 17.322 57.5835 16.9998C57.5835 16.6777 57.3223 16.4165 57.0002 16.4165C56.678 16.4165 56.4168 16.6777 56.4168 16.9998C56.4168 17.322 56.678 17.5832 57.0002 17.5832Z" stroke="#2F2B23" stroke-width="1.75" stroke-linecap="square"/>
<path d="M61.0835 17.5832C61.4057 17.5832 61.6668 17.322 61.6668 16.9998C61.6668 16.6777 61.4057 16.4165 61.0835 16.4165C60.7613 16.4165 60.5002 16.6777 60.5002 16.9998C60.5002 17.322 60.7613 17.5832 61.0835 17.5832Z" stroke="#2F2B23" stroke-width="1.75" stroke-linecap="square"/>
<path d="M52.9168 17.5832C53.239 17.5832 53.5002 17.322 53.5002 16.9998C53.5002 16.6777 53.239 16.4165 52.9168 16.4165C52.5947 16.4165 52.3335 16.6777 52.3335 16.9998C52.3335 17.322 52.5947 17.5832 52.9168 17.5832Z" stroke="#2F2B23" stroke-width="1.75" stroke-linecap="square"/>
</g>
<defs>
<clipPath id="clip0_51_6488">
<rect width="75" height="34" fill="white"/>
</clipPath>
</defs>
</svg>
