<svg width="301" height="34" viewBox="0 0 301 34" fill="none" xmlns="http://www.w3.org/2000/svg">
<path d="M11 8.5C11 6.29086 12.7909 4.5 15 4.5H143C145.209 4.5 147 6.29086 147 8.5V25.5C147 27.7091 145.209 29.5 143 29.5H15C12.7909 29.5 11 27.7091 11 25.5V8.5Z" fill="#F6F5F3"/>
<g clip-path="url(#clip0_51_6514)">
<path d="M22.0608 17.4846C21.9603 17.0828 21.5531 16.8384 21.1513 16.9389C20.7494 17.0394 20.5051 17.4466 20.6056 17.8484L22.0608 17.4846ZM22.2517 21.3407L21.5241 21.5226L21.5241 21.5226L22.2517 21.3407ZM25.5832 17.9582C25.5832 17.544 25.2474 17.2082 24.8332 17.2082C24.419 17.2082 24.0832 17.544 24.0832 17.9582H25.5832ZM23.7791 22.3277L23.7067 21.5812L23.7067 21.5812L23.7791 22.3277ZM24.8277 21.2791L24.0812 21.2067L24.0812 21.2067L24.8277 21.2791ZM22.3057 21.5408L21.5954 21.7814L21.5954 21.7814L22.3057 21.5408ZM23.3156 22.3293L23.3768 21.5818L23.3768 21.5818L23.3156 22.3293ZM29.7915 16.6248H29.0415V18.1248H29.7915V16.6248ZM29.7915 12.5415H29.0415V14.0415H29.7915V12.5415ZM29.7915 19.9998L29.3528 20.6082C29.5812 20.7728 29.8826 20.7957 30.1332 20.6675C30.3838 20.5392 30.5415 20.2814 30.5415 19.9998H29.7915ZM29.7915 10.6665H30.5415C30.5415 10.385 30.3838 10.1271 30.1332 9.99886C29.8826 9.87059 29.5812 9.89349 29.3528 10.0582L29.7915 10.6665ZM20.1665 15.3332L20.9165 15.3332L20.1665 15.3332ZM20.6056 17.8484L21.5241 21.5226L22.9793 21.1588L22.0608 17.4846L20.6056 17.8484ZM25.5832 21.0229V17.9582H24.0832V21.0229H25.5832ZM23.5229 23.0832C23.6387 23.0832 23.7501 23.0841 23.8515 23.0742L23.7067 21.5812C23.7069 21.5812 23.6985 21.5821 23.6673 21.5826C23.6347 21.5831 23.5921 21.5832 23.5229 21.5832V23.0832ZM24.0832 21.0229C24.0832 21.0921 24.0831 21.1347 24.0826 21.1673C24.0821 21.1985 24.0812 21.2069 24.0812 21.2067L25.5742 21.3515C25.5841 21.2501 25.5832 21.1387 25.5832 21.0229H24.0832ZM23.8515 23.0742C24.7638 22.9857 25.4857 22.2638 25.5742 21.3515L24.0812 21.2067C24.062 21.405 23.905 21.562 23.7067 21.5812L23.8515 23.0742ZM21.5241 21.5226C21.5466 21.6126 21.5679 21.7002 21.5954 21.7814L23.0161 21.3002C23.013 21.2912 23.0085 21.2754 22.9793 21.1588L21.5241 21.5226ZM23.5229 21.5832C23.4026 21.5832 23.3863 21.5826 23.3768 21.5818L23.2545 23.0768C23.3399 23.0838 23.4301 23.0832 23.5229 23.0832V21.5832ZM21.5954 21.7814C21.8406 22.5054 22.4926 23.0145 23.2545 23.0768L23.3768 21.5818C23.2112 21.5682 23.0694 21.4576 23.0161 21.3002L21.5954 21.7814ZM31.0832 15.3332C31.0832 16.0465 30.5049 16.6248 29.7915 16.6248V18.1248C31.3333 18.1248 32.5832 16.875 32.5832 15.3332H31.0832ZM29.7915 14.0415C30.5049 14.0415 31.0832 14.6198 31.0832 15.3332H32.5832C32.5832 13.7914 31.3333 12.5415 29.7915 12.5415V14.0415ZM22.7915 13.4582H24.979V11.9582H22.7915V13.4582ZM29.7915 19.9998C30.2302 19.3915 30.2301 19.3914 30.2299 19.3913C30.2299 19.3913 30.2297 19.3912 30.2296 19.3911C30.2294 19.391 30.2292 19.3908 30.2289 19.3906C30.2282 19.3901 30.2275 19.3896 30.2265 19.3889C30.2246 19.3875 30.222 19.3856 30.2187 19.3833C30.2122 19.3787 30.203 19.3721 30.1912 19.3638C30.1677 19.3472 30.1338 19.3236 30.0906 19.2939C30.0041 19.2345 29.8798 19.1507 29.725 19.0508C29.4161 18.8513 28.982 18.5848 28.4815 18.3175C27.5174 17.8025 26.1707 17.2082 24.979 17.2082V18.7082C25.7683 18.7082 26.8279 19.1347 27.7748 19.6405C28.2298 19.8836 28.6274 20.1275 28.9113 20.3109C29.0529 20.4023 29.1653 20.4781 29.2414 20.5304C29.2794 20.5565 29.3083 20.5767 29.3272 20.59C29.3367 20.5966 29.3436 20.6016 29.3479 20.6046C29.3501 20.6062 29.3516 20.6073 29.3524 20.6078C29.3528 20.6081 29.353 20.6083 29.3531 20.6084C29.3532 20.6084 29.3532 20.6084 29.3531 20.6084C29.3531 20.6084 29.353 20.6083 29.353 20.6083C29.3529 20.6082 29.3528 20.6082 29.7915 19.9998ZM29.0415 10.6665V19.9998H30.5415V10.6665H29.0415ZM24.979 13.4582C26.1707 13.4582 27.5174 12.8639 28.4815 12.3489C28.982 12.0815 29.4161 11.815 29.725 11.6156C29.8798 11.5156 30.0041 11.4319 30.0906 11.3725C30.1338 11.3428 30.1677 11.3191 30.1912 11.3025C30.203 11.2942 30.2122 11.2877 30.2187 11.283C30.222 11.2807 30.2246 11.2788 30.2265 11.2775C30.2275 11.2768 30.2282 11.2762 30.2289 11.2758C30.2292 11.2756 30.2294 11.2754 30.2296 11.2752C30.2297 11.2751 30.2299 11.2751 30.2299 11.275C30.2301 11.2749 30.2302 11.2748 29.7915 10.6665C29.3528 10.0582 29.3529 10.0581 29.353 10.058C29.353 10.058 29.3531 10.058 29.3531 10.058C29.3532 10.0579 29.3532 10.0579 29.3531 10.058C29.353 10.058 29.3528 10.0582 29.3524 10.0585C29.3516 10.0591 29.3501 10.0602 29.3479 10.0617C29.3436 10.0648 29.3367 10.0697 29.3272 10.0763C29.3083 10.0897 29.2794 10.1099 29.2414 10.136C29.1653 10.1883 29.0529 10.264 28.9113 10.3555C28.6274 10.5388 28.2298 10.7828 27.7748 11.0258C26.8279 11.5316 25.7683 11.9582 24.979 11.9582V13.4582ZM24.979 17.2082H22.7915V18.7082H24.979V17.2082ZM19.4165 15.3332C19.4165 17.1971 20.9275 18.7082 22.7915 18.7082V17.2082C21.756 17.2082 20.9165 16.3687 20.9165 15.3332L19.4165 15.3332ZM22.7915 11.9582C20.9275 11.9582 19.4165 13.4692 19.4165 15.3332L20.9165 15.3332C20.9165 14.2976 21.756 13.4582 22.7915 13.4582V11.9582Z" fill="#2F2B23"/>
</g>
<path d="M40.651 20.676C38.935 20.676 38.187 19.62 38.187 18.069H39.419C39.43 19.004 39.738 19.653 40.651 19.653C41.619 19.653 41.927 18.993 41.927 18.025V12.8H43.159V18.19C43.159 19.763 42.158 20.676 40.651 20.676ZM46.1962 20.676C45.2282 20.676 44.3592 20.06 44.3592 19.037C44.3592 17.915 45.2392 17.464 46.2842 17.321L47.2412 17.178C47.6592 17.123 47.8022 16.969 47.8022 16.672C47.8022 16.199 47.4282 15.858 46.8342 15.858C46.1082 15.858 45.7012 16.254 45.6682 16.859H44.5022C44.5572 15.814 45.3932 14.989 46.7572 14.989C48.2312 14.989 48.9352 15.814 48.9352 17.178V20.5H47.8682V20.258C47.8682 20.093 47.8792 19.939 47.8902 19.774C47.6152 20.313 47.0542 20.676 46.1962 20.676ZM46.4492 19.818C47.2302 19.818 47.8242 19.268 47.8242 18.454V17.772C47.7362 17.882 47.5382 17.948 47.2192 18.003L46.6142 18.124C45.9872 18.245 45.5362 18.487 45.5362 19.004C45.5362 19.521 45.9432 19.818 46.4492 19.818ZM52.3623 20.676C50.8883 20.676 50.0083 19.895 49.9533 18.696H51.0973C51.1303 19.378 51.5703 19.807 52.3513 19.807C53.0223 19.807 53.4623 19.499 53.4623 19.026C53.4623 18.641 53.1653 18.421 52.5603 18.3L51.8343 18.157C50.7783 17.959 50.1403 17.442 50.1403 16.584C50.1403 15.671 51.0093 14.989 52.2743 14.989C53.6273 14.989 54.4633 15.671 54.5183 16.771H53.3743C53.3193 16.188 52.9013 15.858 52.2413 15.858C51.6693 15.858 51.2733 16.111 51.2733 16.529C51.2733 16.903 51.5373 17.09 52.1753 17.211L52.9123 17.354C53.9133 17.552 54.5843 18.025 54.5843 18.938C54.5843 19.928 53.7373 20.676 52.3623 20.676ZM55.7639 22.766V15.165H56.9079V15.473C56.9079 15.616 56.8969 15.748 56.8859 15.913C57.2049 15.385 57.8209 14.989 58.6349 14.989C60.1089 14.989 61.0329 16.177 61.0329 17.838C61.0329 19.554 60.0099 20.676 58.6019 20.676C57.7659 20.676 57.2269 20.302 56.8859 19.763L56.9079 20.236V22.766H55.7639ZM58.3599 19.785C59.2619 19.785 59.8559 18.982 59.8559 17.827C59.8559 16.694 59.2839 15.891 58.3599 15.891C57.4799 15.891 56.8529 16.639 56.8529 17.827C56.8529 18.993 57.4689 19.785 58.3599 19.785ZM64.5409 20.676C62.9459 20.676 61.8899 19.664 61.8899 17.816C61.8899 16.155 62.9899 14.989 64.4969 14.989C66.1029 14.989 67.0159 16.111 67.0159 17.838V18.08H63.0449C63.0669 19.114 63.6829 19.785 64.5519 19.785C65.1679 19.785 65.7069 19.488 65.8169 18.806H66.9719C66.8619 19.818 66.0259 20.676 64.5409 20.676ZM65.8169 17.266C65.8059 16.43 65.3109 15.858 64.4859 15.858C63.6829 15.858 63.1329 16.463 63.0559 17.266H65.8169ZM68.2033 20.5V15.165H69.3473V15.484L69.3253 16.089C69.6003 15.484 70.1283 14.989 70.9423 14.989C71.0303 14.989 71.1183 14.989 71.2063 15.011V16.122C71.1183 16.111 71.0193 16.089 70.8653 16.089C69.9413 16.089 69.3473 16.584 69.3473 17.761V20.5H68.2033ZM74.5451 20.5V12.8H77.6801C79.1431 12.8 80.2101 13.372 80.2101 14.736C80.2101 15.638 79.5611 16.21 78.8241 16.43C79.7811 16.672 80.4191 17.321 80.4191 18.311C80.4191 19.983 78.9891 20.5 77.4601 20.5H74.5451ZM77.5701 19.466C78.6701 19.466 79.1651 19.037 79.1651 18.223C79.1651 17.442 78.7251 16.991 77.5481 16.991H75.7551V19.466H77.5701ZM77.5151 15.968C78.4831 15.968 78.9561 15.561 78.9561 14.868C78.9561 14.241 78.5601 13.823 77.5591 13.823H75.7551V15.968H77.5151ZM81.6418 20.5V15.165H82.7858V15.484L82.7638 16.089C83.0388 15.484 83.5668 14.989 84.3808 14.989C84.4688 14.989 84.5568 14.989 84.6448 15.011V16.122C84.5568 16.111 84.4578 16.089 84.3038 16.089C83.3798 16.089 82.7858 16.584 82.7858 17.761V20.5H81.6418ZM86.9521 20.676C85.9841 20.676 85.1151 20.06 85.1151 19.037C85.1151 17.915 85.9951 17.464 87.0401 17.321L87.9971 17.178C88.4151 17.123 88.5581 16.969 88.5581 16.672C88.5581 16.199 88.1841 15.858 87.5901 15.858C86.8641 15.858 86.4571 16.254 86.4241 16.859H85.2581C85.3131 15.814 86.1491 14.989 87.5131 14.989C88.9871 14.989 89.6911 15.814 89.6911 17.178V20.5H88.6241V20.258C88.6241 20.093 88.6351 19.939 88.6461 19.774C88.3711 20.313 87.8101 20.676 86.9521 20.676ZM87.2051 19.818C87.9861 19.818 88.5801 19.268 88.5801 18.454V17.772C88.4921 17.882 88.2941 17.948 87.9751 18.003L87.3701 18.124C86.7431 18.245 86.2921 18.487 86.2921 19.004C86.2921 19.521 86.6991 19.818 87.2051 19.818ZM91.1272 20.5V15.165H92.2602V15.462C92.2602 15.605 92.2602 15.737 92.2382 15.902C92.5352 15.407 93.1072 14.989 93.8882 14.989C95.0872 14.989 95.8132 15.792 95.8132 17.134V20.5H94.6692V17.288C94.6692 16.397 94.3062 15.891 93.5802 15.891C92.7882 15.891 92.2712 16.54 92.2712 17.332V20.5H91.1272ZM99.384 20.676C97.976 20.676 96.931 19.686 96.931 17.838C96.931 16.078 98.02 14.989 99.406 14.989C100.264 14.989 100.814 15.44 101.089 15.902C101.067 15.737 101.067 15.583 101.067 15.429V12.8H102.211V20.5H101.067V20.236C101.067 20.06 101.067 19.917 101.089 19.763C100.836 20.203 100.275 20.676 99.384 20.676ZM99.626 19.785C100.495 19.785 101.133 19.004 101.133 17.827C101.133 16.65 100.506 15.891 99.626 15.891C98.746 15.891 98.108 16.683 98.108 17.838C98.108 19.015 98.735 19.785 99.626 19.785ZM108.066 20.5L105.14 12.8H106.493L108.506 18.366C108.638 18.718 108.748 19.026 108.858 19.367C108.957 19.037 109.078 18.718 109.21 18.366L111.223 12.8H112.543L109.573 20.5H108.066ZM114.965 20.676C113.392 20.676 112.292 19.576 112.292 17.838C112.292 16.133 113.403 14.989 114.965 14.989C116.538 14.989 117.649 16.133 117.649 17.838C117.649 19.576 116.538 20.676 114.965 20.676ZM114.965 19.785C115.889 19.785 116.483 19.026 116.483 17.838C116.483 16.628 115.878 15.891 114.965 15.891C114.063 15.891 113.458 16.628 113.458 17.838C113.458 19.026 114.041 19.785 114.965 19.785ZM118.842 20.5V15.165H119.986V20.5H118.842ZM118.787 14.252V12.987H120.041V14.252H118.787ZM123.838 20.676C122.265 20.676 121.165 19.653 121.165 17.827C121.165 16.089 122.353 14.989 123.893 14.989C125.301 14.989 126.192 15.836 126.313 17.068H125.147C125.081 16.419 124.652 15.891 123.882 15.891C122.98 15.891 122.331 16.661 122.331 17.827C122.331 18.993 122.947 19.785 123.871 19.785C124.674 19.785 125.125 19.279 125.213 18.586H126.357C126.214 19.84 125.356 20.676 123.838 20.676ZM129.8 20.676C128.205 20.676 127.149 19.664 127.149 17.816C127.149 16.155 128.249 14.989 129.756 14.989C131.362 14.989 132.275 16.111 132.275 17.838V18.08H128.304C128.326 19.114 128.942 19.785 129.811 19.785C130.427 19.785 130.966 19.488 131.076 18.806H132.231C132.121 19.818 131.285 20.676 129.8 20.676ZM131.076 17.266C131.065 16.43 130.57 15.858 129.745 15.858C128.942 15.858 128.392 16.463 128.315 17.266H131.076Z" fill="#2F2B23"/>
<path d="M151 8C151 5.79086 152.791 4 155 4H252C254.209 4 256 5.79086 256 8V26C256 28.2091 254.209 30 252 30H155C152.791 30 151 28.2091 151 26V8Z" fill="#F6F5F3"/>
<g clip-path="url(#clip1_51_6514)">
<path d="M167.917 10.8237C167.917 10.4095 167.581 10.0737 167.167 10.0737C166.753 10.0737 166.417 10.4095 166.417 10.8237H167.917ZM170.51 14.9165C170.924 14.9165 171.26 14.5808 171.26 14.1665C171.26 13.7523 170.924 13.4165 170.51 13.4165V14.9165ZM167.23 13.848L167.899 13.5075L167.899 13.5075L167.23 13.848ZM167.485 14.103L167.826 13.4347L167.826 13.4347L167.485 14.103ZM167.167 10.6665L167.697 10.1362C167.557 9.99552 167.366 9.9165 167.167 9.9165V10.6665ZM170.667 14.1665H171.417C171.417 13.9676 171.338 13.7768 171.197 13.6362L170.667 14.1665ZM161.971 22.206L162.311 21.5378L161.971 22.206ZM161.461 21.6962L162.129 21.3557L161.461 21.6962ZM170.03 22.206L169.689 21.5378L170.03 22.206ZM170.54 21.6962L169.871 21.3557L170.54 21.6962ZM161.461 11.3035L162.129 11.644L161.461 11.3035ZM161.971 10.7937L162.311 11.4619L161.971 10.7937ZM168.333 17.8332H169.083V16.3332H168.333V17.8332ZM163.667 16.3332H162.917V17.8332H163.667V16.3332ZM168.333 20.1665H169.083V18.6665H168.333V20.1665ZM163.667 18.6665H162.917V20.1665H163.667V18.6665ZM164.833 15.4998H165.583V13.9998H164.833V15.4998ZM163.667 13.9998H162.917V15.4998H163.667V13.9998ZM166.417 10.8237V13.2332H167.917V10.8237H166.417ZM168.1 14.9165H170.51V13.4165H168.1V14.9165ZM166.417 13.2332C166.417 13.3842 166.416 13.5425 166.427 13.6774C166.439 13.8211 166.468 14.0028 166.562 14.1885L167.899 13.5075C167.93 13.5685 167.926 13.6062 167.922 13.5553C167.92 13.5303 167.919 13.4939 167.918 13.4378C167.917 13.3817 167.917 13.3166 167.917 13.2332H166.417ZM168.1 13.4165C168.017 13.4165 167.952 13.4165 167.896 13.4156C167.839 13.4148 167.803 13.4131 167.778 13.4111C167.727 13.4069 167.765 13.4037 167.826 13.4347L167.145 14.7712C167.331 14.8659 167.512 14.8944 167.656 14.9061C167.791 14.9171 167.949 14.9165 168.1 14.9165V13.4165ZM166.562 14.1885C166.69 14.4394 166.894 14.6434 167.145 14.7712L167.826 13.4347C167.857 13.4507 167.883 13.4762 167.899 13.5075L166.562 14.1885ZM168.8 21.5832H163.2V23.0832H168.8V21.5832ZM162.083 20.4665V12.5332H160.583V20.4665H162.083ZM163.2 11.4165H167.167V9.9165H163.2V11.4165ZM169.917 14.1665V20.4665H171.417V14.1665H169.917ZM166.636 11.1968L170.137 14.6968L171.197 13.6362L167.697 10.1362L166.636 11.1968ZM163.2 21.5832C162.861 21.5832 162.652 21.5826 162.495 21.5698C162.347 21.5577 162.312 21.5385 162.311 21.5378L161.63 22.8743C161.878 23.0007 162.132 23.0451 162.373 23.0648C162.605 23.0838 162.886 23.0832 163.2 23.0832V21.5832ZM160.583 20.4665C160.583 20.7808 160.583 21.0617 160.602 21.2938C160.622 21.5348 160.666 21.7885 160.792 22.0367L162.129 21.3557C162.128 21.3542 162.109 21.3199 162.097 21.1717C162.084 21.0148 162.083 20.8056 162.083 20.4665H160.583ZM162.311 21.5378C162.233 21.4978 162.169 21.4341 162.129 21.3557L160.792 22.0367C160.976 22.3973 161.269 22.6905 161.63 22.8743L162.311 21.5378ZM168.8 23.0832C169.114 23.0832 169.395 23.0838 169.628 23.0648C169.868 23.0451 170.122 23.0007 170.37 22.8743L169.689 21.5378C169.688 21.5385 169.654 21.5577 169.505 21.5698C169.348 21.5826 169.139 21.5832 168.8 21.5832V23.0832ZM169.917 20.4665C169.917 20.8056 169.916 21.0148 169.903 21.1717C169.891 21.3199 169.872 21.3542 169.871 21.3557L171.208 22.0367C171.334 21.7885 171.379 21.5348 171.398 21.2938C171.417 21.0617 171.417 20.7808 171.417 20.4665H169.917ZM170.37 22.8743C170.731 22.6905 171.024 22.3973 171.208 22.0367L169.871 21.3557C169.831 21.4341 169.768 21.4978 169.689 21.5378L170.37 22.8743ZM162.083 12.5332C162.083 12.1941 162.084 11.9849 162.097 11.828C162.109 11.6798 162.128 11.6454 162.129 11.644L160.792 10.963C160.666 11.2112 160.622 11.4649 160.602 11.7058C160.583 11.938 160.583 12.2188 160.583 12.5332H162.083ZM163.2 9.9165C162.886 9.9165 162.605 9.91592 162.373 9.93489C162.132 9.95457 161.878 9.99898 161.63 10.1254L162.311 11.4619C162.312 11.4612 162.347 11.442 162.495 11.4299C162.652 11.4171 162.861 11.4165 163.2 11.4165V9.9165ZM162.129 11.644C162.169 11.5656 162.233 11.5019 162.311 11.4619L161.63 10.1254C161.269 10.3092 160.976 10.6024 160.792 10.963L162.129 11.644ZM168.333 16.3332H163.667V17.8332H168.333V16.3332ZM168.333 18.6665H163.667V20.1665H168.333V18.6665ZM164.833 13.9998H163.667V15.4998H164.833V13.9998Z" fill="#2F2B23"/>
</g>
<path d="M181.936 21.192C179.788 21.192 178.468 20.028 178.384 18.204H179.764C179.836 19.392 180.76 20.076 181.984 20.076C183.136 20.076 183.892 19.596 183.892 18.732C183.892 18.012 183.328 17.664 182.368 17.46L181.024 17.172C179.728 16.896 178.684 16.14 178.684 14.832C178.684 13.404 180.016 12.396 181.852 12.396C183.82 12.396 185.008 13.452 185.104 15.048H183.724C183.676 14.16 183.004 13.512 181.804 13.512C180.796 13.512 180.04 13.98 180.04 14.712C180.04 15.396 180.568 15.732 181.48 15.924L182.932 16.236C184.252 16.512 185.26 17.244 185.26 18.588C185.26 20.064 184.048 21.192 181.936 21.192ZM188.999 21.096C187.943 21.096 187.223 20.58 187.223 19.284V16.188H186.011V15.18H187.223V13.164H188.471V15.18H189.791V16.188H188.471V19.116C188.471 19.764 188.759 20.052 189.323 20.052C189.467 20.052 189.611 20.04 189.767 20.016V21.012C189.587 21.06 189.299 21.096 188.999 21.096ZM191.807 23.472L192.815 20.868L190.511 15.18H191.903L193.247 18.912C193.319 19.128 193.403 19.356 193.475 19.62L193.691 18.912L194.927 15.18H196.235L193.139 23.472H191.807ZM197.317 21V12.6H198.565V21H197.317ZM202.863 21.192C201.123 21.192 199.971 20.088 199.971 18.072C199.971 16.26 201.171 14.988 202.815 14.988C204.567 14.988 205.563 16.212 205.563 18.096V18.36H201.231C201.255 19.488 201.927 20.22 202.875 20.22C203.547 20.22 204.135 19.896 204.255 19.152H205.515C205.395 20.256 204.483 21.192 202.863 21.192ZM204.255 17.472C204.243 16.56 203.703 15.936 202.803 15.936C201.927 15.936 201.327 16.596 201.243 17.472H204.255ZM213.443 21.192C211.019 21.192 209.471 19.392 209.471 16.824C209.471 14.076 211.259 12.396 213.623 12.396C215.591 12.396 216.971 13.524 217.139 15.12H215.747C215.615 14.196 214.787 13.524 213.635 13.524C212.015 13.524 210.851 14.7 210.851 16.824C210.851 18.756 211.967 20.076 213.587 20.076C214.979 20.076 215.963 19.248 215.963 17.796V17.688H213.503V16.56H217.175V21H216.011V20.676C216.011 20.412 216.023 20.136 216.047 19.86C215.627 20.616 214.691 21.192 213.443 21.192ZM220.872 21.192C219.612 21.192 218.784 20.388 218.784 18.876V15.18H220.032V18.66C220.032 19.62 220.404 20.208 221.232 20.208C222.072 20.208 222.6 19.572 222.6 18.516V15.18H223.848V21H222.612V20.7C222.612 20.532 222.624 20.352 222.648 20.196C222.36 20.784 221.748 21.192 220.872 21.192ZM225.608 21V15.18H226.856V21H225.608ZM225.548 14.184V12.804H226.916V14.184H225.548ZM230.939 21.192C229.403 21.192 228.263 20.112 228.263 18.096C228.263 16.176 229.451 14.988 230.963 14.988C231.899 14.988 232.499 15.48 232.799 15.984C232.775 15.804 232.775 15.636 232.775 15.468V12.6H234.023V21H232.775V20.712C232.775 20.52 232.775 20.364 232.799 20.196C232.523 20.676 231.911 21.192 230.939 21.192ZM231.203 20.22C232.151 20.22 232.847 19.368 232.847 18.084C232.847 16.8 232.163 15.972 231.203 15.972C230.243 15.972 229.547 16.836 229.547 18.096C229.547 19.38 230.231 20.22 231.203 20.22ZM238.318 21.192C236.578 21.192 235.426 20.088 235.426 18.072C235.426 16.26 236.626 14.988 238.27 14.988C240.022 14.988 241.018 16.212 241.018 18.096V18.36H236.686C236.71 19.488 237.382 20.22 238.33 20.22C239.002 20.22 239.59 19.896 239.71 19.152H240.97C240.85 20.256 239.938 21.192 238.318 21.192ZM239.71 17.472C239.698 16.56 239.158 15.936 238.258 15.936C237.382 15.936 236.782 16.596 236.698 17.472H239.71Z" fill="#2F2B23"/>
<path d="M260 9C260 6.79086 261.791 5 264 5H286C288.209 5 290 6.79086 290 9V25C290 27.2091 288.209 29 286 29H264C261.791 29 260 27.2091 260 25V9Z" fill="#F6F5F3"/>
<path d="M275 17.5835C275.322 17.5835 275.583 17.3223 275.583 17.0002C275.583 16.678 275.322 16.4168 275 16.4168C274.678 16.4168 274.417 16.678 274.417 17.0002C274.417 17.3223 274.678 17.5835 275 17.5835Z" fill="#2F2B23"/>
<path d="M275 13.5002C275.322 13.5002 275.583 13.239 275.583 12.9168C275.583 12.5947 275.322 12.3335 275 12.3335C274.678 12.3335 274.417 12.5947 274.417 12.9168C274.417 13.239 274.678 13.5002 275 13.5002Z" fill="#2F2B23"/>
<path d="M275 21.6668C275.322 21.6668 275.583 21.4057 275.583 21.0835C275.583 20.7613 275.322 20.5002 275 20.5002C274.678 20.5002 274.417 20.7613 274.417 21.0835C274.417 21.4057 274.678 21.6668 275 21.6668Z" fill="#2F2B23"/>
<path d="M275 17.5835C275.322 17.5835 275.583 17.3223 275.583 17.0002C275.583 16.678 275.322 16.4168 275 16.4168C274.678 16.4168 274.417 16.678 274.417 17.0002C274.417 17.3223 274.678 17.5835 275 17.5835Z" stroke="#2F2B23" stroke-width="1.75" stroke-linecap="square"/>
<path d="M275 13.5002C275.322 13.5002 275.583 13.239 275.583 12.9168C275.583 12.5947 275.322 12.3335 275 12.3335C274.678 12.3335 274.417 12.5947 274.417 12.9168C274.417 13.239 274.678 13.5002 275 13.5002Z" stroke="#2F2B23" stroke-width="1.75" stroke-linecap="square"/>
<path d="M275 21.6668C275.322 21.6668 275.583 21.4057 275.583 21.0835C275.583 20.7613 275.322 20.5002 275 20.5002C274.678 20.5002 274.417 20.7613 274.417 21.0835C274.417 21.4057 274.678 21.6668 275 21.6668Z" stroke="#2F2B23" stroke-width="1.75" stroke-linecap="square"/>
<defs>
<clipPath id="clip0_51_6514">
<rect width="14" height="14" fill="white" transform="translate(19 9.5)"/>
</clipPath>
<clipPath id="clip1_51_6514">
<rect width="14" height="14" fill="white" transform="translate(159 9.5)"/>
</clipPath>
</defs>
</svg>
