<svg width="452" height="40" viewBox="0 0 452 40" fill="none" xmlns="http://www.w3.org/2000/svg">
<path d="M15.176 25V15.2H17.514L22.106 23.068C22.092 22.508 22.078 22.06 22.078 21.71V15.2H23.646V25H21.546L16.702 16.712C16.716 17.034 16.73 17.468 16.73 18V25H15.176ZM28.6668 25.224C26.6788 25.224 25.2648 23.81 25.2648 21.612C25.2648 19.47 26.6928 17.986 28.6668 17.986C30.6688 17.986 32.0828 19.47 32.0828 21.612C32.0828 23.81 30.6688 25.224 28.6668 25.224ZM26.7488 21.612C26.7488 23.124 27.4908 24.09 28.6668 24.09C29.8428 24.09 30.5988 23.124 30.5988 21.612C30.5988 20.086 29.8428 19.134 28.6668 19.134C27.5048 19.134 26.7488 20.086 26.7488 21.612ZM33.5868 25V18.21H35.0428V18.616C35.0428 18.966 35.0288 19.218 35.0148 19.386C35.3928 18.546 36.1068 17.986 37.0728 17.986C37.2268 17.986 37.3388 18 37.4088 18.014V19.428C37.2128 19.4 37.0728 19.386 36.9748 19.386C35.7428 19.386 35.0428 20.058 35.0428 21.514V25H33.5868ZM38.5633 25V18.21H40.0193V18.63C40.0193 18.868 40.0053 19.036 39.9913 19.148C40.3973 18.462 41.0833 17.986 41.9653 17.986C42.8193 17.986 43.5473 18.518 43.8833 19.288C44.3313 18.518 45.1433 17.986 46.0813 17.986C47.4953 17.986 48.4473 18.994 48.4473 20.716V25H46.9913V20.954C46.9913 19.792 46.5713 19.134 45.7173 19.134C44.8213 19.134 44.2333 19.932 44.2333 20.996V25H42.7773V20.982C42.7773 19.75 42.3573 19.134 41.5173 19.134C40.6213 19.134 40.0193 19.918 40.0193 21.024V25H38.5633ZM52.2401 25.224C50.9801 25.224 49.9021 24.412 49.9021 23.138C49.9021 21.906 50.7141 21.178 52.3521 20.954L53.5701 20.772C54.0881 20.702 54.2841 20.52 54.2841 20.128C54.2841 19.512 53.7941 19.092 53.0521 19.092C52.1421 19.092 51.6101 19.582 51.5681 20.366H50.0841C50.1681 19.022 51.2321 17.986 52.9541 17.986C54.8021 17.986 55.7261 18.994 55.7261 20.772V25H54.3681V24.692C54.3681 24.566 54.3821 24.356 54.3961 24.076C54.0181 24.79 53.3041 25.224 52.2401 25.224ZM51.4001 23.096C51.4001 23.726 51.8901 24.132 52.5621 24.132C53.5701 24.132 54.3121 23.418 54.3121 22.396V21.528C54.2141 21.654 53.9481 21.752 53.5421 21.822L52.7721 21.976C51.9181 22.144 51.4001 22.48 51.4001 23.096ZM57.5399 25V15.2H58.9959V25H57.5399ZM66.4903 25.112C65.2023 25.112 64.4183 24.454 64.4183 22.998V19.386H63.0043V18.21H64.4183V15.858H65.8743V18.21H67.4143V19.386H65.8743V22.802C65.8743 23.544 66.1963 23.894 66.8683 23.894C67.0363 23.894 67.2043 23.88 67.3863 23.852V25.014C67.1483 25.084 66.8403 25.112 66.4903 25.112ZM71.6505 25.224C69.5785 25.224 68.2765 23.894 68.2765 21.584C68.2765 19.498 69.6765 17.986 71.5945 17.986C73.6105 17.986 74.8005 19.386 74.8005 21.612V21.92H69.7465C69.7605 23.222 70.5445 24.09 71.6645 24.09C72.5045 24.09 73.1485 23.67 73.2745 22.844H74.7445C74.6045 24.16 73.4845 25.224 71.6505 25.224ZM69.7605 20.884H73.2745C73.2605 19.806 72.6305 19.092 71.5805 19.092C70.5725 19.092 69.8585 19.834 69.7605 20.884ZM75.1836 25L77.7316 21.528L75.3656 18.21H77.0596L78.1936 19.89L78.5716 20.492L78.9496 19.904L80.1116 18.21H81.7496L79.3136 21.5L81.8336 25H80.1396L78.8936 23.124C78.6276 22.732 78.5016 22.536 78.5016 22.536L78.1236 23.124L76.8216 25H75.1836ZM85.6309 25.112C84.3429 25.112 83.5589 24.454 83.5589 22.998V19.386H82.1449V18.21H83.5589V15.858H85.0149V18.21H86.5549V19.386H85.0149V22.802C85.0149 23.544 85.3369 23.894 86.0089 23.894C86.1769 23.894 86.3449 23.88 86.5269 23.852V25.014C86.2889 25.084 85.9809 25.112 85.6309 25.112Z" fill="#2F2B23"/>
<path d="M99 18L103 22L107 18" stroke="#2F2B23" stroke-width="1.5" stroke-linecap="square"/>
<rect x="129" y="10" width="1" height="20" fill="#DCD9D0"/>
<path d="M150 19.9998H155.333C156.806 19.9998 158 18.8059 158 17.3332C158 15.8604 156.806 14.6665 155.333 14.6665H150V19.9998ZM150 19.9998H156C157.473 19.9998 158.667 21.1937 158.667 22.6665C158.667 24.1393 157.473 25.3332 156 25.3332H150V19.9998Z" stroke="#464134" stroke-width="1.5" stroke-linecap="square"/>
<path d="M188.667 15.4165H189.417V13.9165H188.667V15.4165ZM182.667 13.9165H181.917V15.4165H182.667V13.9165ZM185.333 26.0832H186.083V24.5832H185.333V26.0832ZM179.333 24.5832H178.583V26.0832H179.333V24.5832ZM186.702 14.9298C186.848 14.542 186.651 14.1097 186.264 13.9643C185.876 13.8188 185.443 14.0153 185.298 14.4032L186.702 14.9298ZM181.298 25.0698C181.152 25.4577 181.349 25.89 181.737 26.0354C182.125 26.1809 182.557 25.9844 182.702 25.5965L181.298 25.0698ZM188.667 13.9165H182.667V15.4165H188.667V13.9165ZM185.333 24.5832H179.333V26.0832H185.333V24.5832ZM185.298 14.4032L181.298 25.0698L182.702 25.5965L186.702 14.9298L185.298 14.4032Z" fill="#464134"/>
<path d="M208.667 25.9998H219.333M218 14.6665V19.3332C218 21.5423 216.209 23.3332 214 23.3332C211.791 23.3332 210 21.5423 210 19.3332V14.6665" stroke="#464134" stroke-width="1.5" stroke-linecap="square"/>
<rect x="238" y="10" width="1" height="20" fill="#DCD9D0"/>
<path d="M269 20.0002L261 20.0002M269 16.0002L261 16.0002M269 24.0002L261 24.0002M258.333 20.0002C258.333 20.3684 258.035 20.6668 257.667 20.6668C257.298 20.6668 257 20.3684 257 20.0002C257 19.632 257.298 19.3335 257.667 19.3335C258.035 19.3335 258.333 19.632 258.333 20.0002ZM258.333 16.0002C258.333 16.3684 258.035 16.6668 257.667 16.6668C257.298 16.6668 257 16.3684 257 16.0002C257 15.632 257.298 15.3335 257.667 15.3335C258.035 15.3335 258.333 15.632 258.333 16.0002ZM258.333 24.0002C258.333 24.3684 258.035 24.6668 257.667 24.6668C257.298 24.6668 257 24.3684 257 24.0002C257 23.632 257.298 23.3335 257.667 23.3335C258.035 23.3335 258.333 23.632 258.333 24.0002Z" stroke="#464134" stroke-width="1.5" stroke-linecap="square"/>
<path d="M287.25 15.3761L286.626 15.7922L287.458 17.0402L288.083 16.6242L287.25 15.3761ZM288.667 15.3335H289.417L288.25 14.7095L288.667 15.3335ZM287.917 18.6668V19.4168H289.417V18.6668H287.917ZM287.833 17.9168H287.083V19.4168H287.833V17.9168ZM289.5 19.4168H290.25V17.9168H289.5V19.4168ZM289 21.3334L288.664 22.0042L288.664 22.0042L289 21.3334ZM289 23.3335L288.47 22.8032L288.47 22.8032L289 23.3335ZM287.667 24.3335L287.331 23.6627L286.917 23.87V24.3335H287.667ZM287.667 24.6672H286.917V25.4172H287.667V24.6672ZM289.667 25.4172H290.417V23.9172H289.667V25.4172ZM299 16.2502L291.667 16.2502L291.667 17.7502L299 17.7502L299 16.2502ZM299 22.2502L291.667 22.2502L291.667 23.7502L299 23.7502L299 22.2502ZM288.083 16.6242L289.083 15.9575L288.25 14.7095L287.25 15.3761L288.083 16.6242ZM287.917 15.3335V18.6668H289.417V15.3335H287.917ZM287.833 19.4168H289.5V17.9168H287.833V19.4168ZM288.417 22.3335C288.417 22.2806 288.429 22.2172 288.458 22.1544C288.486 22.0912 288.523 22.0444 288.556 22.016C288.588 21.9886 288.606 21.9859 288.606 21.9859C288.607 21.9858 288.609 21.9853 288.615 21.9863C288.622 21.9874 288.638 21.991 288.664 22.0042L289.335 20.6626C288.674 20.332 288.018 20.497 287.574 20.8825C287.162 21.2392 286.917 21.7871 286.917 22.3335H288.417ZM288.664 22.0042C288.694 22.0189 288.75 22.0571 288.75 22.2084C288.75 22.3682 288.674 22.5985 288.47 22.8032L289.53 23.8638C289.992 23.4019 290.25 22.7988 290.25 22.2084C290.25 21.6097 289.973 20.9812 289.335 20.6626L288.664 22.0042ZM288.47 22.8032C288.179 23.0936 287.887 23.3131 287.667 23.4595C287.558 23.5322 287.469 23.5857 287.409 23.6198C287.379 23.6368 287.357 23.6489 287.344 23.6561C287.337 23.6597 287.332 23.662 287.33 23.6631C287.329 23.6637 287.329 23.6639 287.329 23.6638C287.329 23.6638 287.329 23.6637 287.329 23.6635C287.33 23.6634 287.33 23.6633 287.33 23.6631C287.33 23.6631 287.33 23.663 287.331 23.6629C287.331 23.6629 287.331 23.6628 287.331 23.6628C287.331 23.6627 287.331 23.6627 287.667 24.3335C288.002 25.0043 288.002 25.0042 288.002 25.0042C288.002 25.0042 288.002 25.0041 288.002 25.004C288.003 25.0039 288.003 25.0038 288.003 25.0037C288.004 25.0035 288.004 25.0033 288.005 25.003C288.006 25.0025 288.007 25.0019 288.008 25.0012C288.011 24.9998 288.014 24.9981 288.018 24.9961C288.026 24.9919 288.037 24.9865 288.049 24.9796C288.075 24.966 288.11 24.9468 288.153 24.9222C288.239 24.8729 288.358 24.8015 288.499 24.7075C288.78 24.5205 289.154 24.2401 289.53 23.8638L288.47 22.8032ZM286.917 24.3335V24.6672H288.417V24.3335H286.917ZM287.667 25.4172H289.667V23.9172H287.667V25.4172Z" fill="#2F2B23"/>
<g clip-path="url(#clip0_50_1639)">
<path d="M321.667 20.6665C321.953 21.0492 322.318 21.3659 322.738 21.5951C323.157 21.8243 323.621 21.9606 324.098 21.9947C324.575 22.0288 325.053 21.9601 325.501 21.793C325.949 21.6259 326.356 21.3645 326.693 21.0265L328.693 19.0265C329.301 18.3978 329.637 17.5558 329.629 16.6818C329.621 15.8078 329.271 14.9718 328.653 14.3538C328.035 13.7357 327.199 13.3852 326.325 13.3776C325.451 13.37 324.609 13.706 323.98 14.3131L322.833 15.4531M324.333 19.3331C324.047 18.9504 323.682 18.6337 323.262 18.4045C322.843 18.1753 322.379 18.0391 321.902 18.0049C321.426 17.9708 320.947 18.0396 320.499 18.2066C320.051 18.3737 319.645 18.6351 319.307 18.9731L317.307 20.9731C316.7 21.6018 316.364 22.4438 316.371 23.3178C316.379 24.1918 316.729 25.0278 317.347 25.6459C317.965 26.2639 318.801 26.6145 319.675 26.6221C320.549 26.6297 321.391 26.2937 322.02 25.6865L323.16 24.5465" stroke="#464134" stroke-width="1.5" stroke-linecap="square"/>
</g>
<path d="M355.667 18.6667L356.197 18.1363C355.904 17.8434 355.429 17.8434 355.136 18.1363L355.667 18.6667ZM347.803 25.4697C347.51 25.7626 347.51 26.2374 347.803 26.5303C348.096 26.8232 348.571 26.8232 348.864 26.5303L347.803 25.4697ZM358.47 22.5303C358.763 22.8232 359.237 22.8232 359.53 22.5303C359.823 22.2374 359.823 21.7626 359.53 21.4697L358.47 22.5303ZM347.728 25.8547L348.069 25.1864L347.728 25.8547ZM347.145 25.272L347.814 24.9315L347.145 25.272ZM358.855 25.272L358.186 24.9315L358.855 25.272ZM358.272 25.8547L357.931 25.1864L358.272 25.8547ZM358.272 14.1453L357.931 14.8136L358.272 14.1453ZM358.855 14.728L358.186 15.0685L358.855 14.728ZM347.728 14.1453L348.069 14.8136L347.728 14.1453ZM347.145 14.728L347.814 15.0685L347.145 14.728ZM355.136 18.1363L347.803 25.4697L348.864 26.5303L356.197 19.197L355.136 18.1363ZM359.53 21.4697L356.197 18.1363L355.136 19.197L358.47 22.5303L359.53 21.4697ZM349.133 14.75H356.867V13.25H349.133V14.75ZM358.25 16.1333V23.8667H359.75V16.1333H358.25ZM356.867 25.25H349.133V26.75H356.867V25.25ZM347.75 23.8667V16.1333H346.25V23.8667H347.75ZM349.133 25.25C348.748 25.25 348.503 25.2494 348.319 25.2343C348.143 25.2199 348.088 25.1962 348.069 25.1864L347.388 26.5229C347.653 26.6584 347.928 26.7074 348.197 26.7293C348.456 26.7506 348.772 26.75 349.133 26.75V25.25ZM346.25 23.8667C346.25 24.2277 346.249 24.5435 346.271 24.8035C346.293 25.0722 346.342 25.3465 346.477 25.6125L347.814 24.9315C347.804 24.9122 347.78 24.8573 347.766 24.6813C347.751 24.4966 347.75 24.2524 347.75 23.8667H346.25ZM348.069 25.1864C347.959 25.1305 347.87 25.0413 347.814 24.9315L346.477 25.6125C346.677 26.0045 346.996 26.3232 347.388 26.5229L348.069 25.1864ZM358.25 23.8667C358.25 24.2524 358.249 24.4966 358.234 24.6813C358.22 24.8573 358.196 24.9122 358.186 24.9315L359.523 25.6125C359.658 25.3465 359.707 25.0722 359.729 24.8035C359.751 24.5435 359.75 24.2277 359.75 23.8667H358.25ZM356.867 26.75C357.228 26.75 357.544 26.7506 357.803 26.7293C358.072 26.7074 358.347 26.6584 358.612 26.5229L357.931 25.1864C357.912 25.1962 357.857 25.2199 357.681 25.2343C357.497 25.2494 357.252 25.25 356.867 25.25V26.75ZM358.186 24.9315C358.13 25.0413 358.041 25.1305 357.931 25.1864L358.612 26.5229C359.004 26.3232 359.323 26.0045 359.523 25.6125L358.186 24.9315ZM356.867 14.75C357.252 14.75 357.497 14.7506 357.681 14.7657C357.857 14.7801 357.912 14.8038 357.931 14.8136L358.612 13.4771C358.347 13.3416 358.072 13.2926 357.803 13.2707C357.544 13.2494 357.228 13.25 356.867 13.25V14.75ZM359.75 16.1333C359.75 15.7723 359.751 15.4565 359.729 15.1965C359.707 14.9278 359.658 14.6535 359.523 14.3875L358.186 15.0685C358.196 15.0878 358.22 15.1427 358.234 15.3187C358.249 15.5034 358.25 15.7476 358.25 16.1333H359.75ZM357.931 14.8136C358.041 14.8695 358.13 14.9587 358.186 15.0685L359.523 14.3875C359.323 13.9955 359.004 13.6768 358.612 13.4771L357.931 14.8136ZM349.133 13.25C348.772 13.25 348.456 13.2494 348.197 13.2707C347.928 13.2926 347.653 13.3416 347.388 13.4771L348.069 14.8136C348.088 14.8038 348.143 14.7801 348.319 14.7657C348.503 14.7506 348.748 14.75 349.133 14.75V13.25ZM347.75 16.1333C347.75 15.7476 347.751 15.5034 347.766 15.3187C347.78 15.1427 347.804 15.0878 347.814 15.0685L346.477 14.3875C346.342 14.6535 346.293 14.9278 346.271 15.1965C346.249 15.4565 346.25 15.7723 346.25 16.1333H347.75ZM347.388 13.4771C346.996 13.6768 346.677 13.9955 346.477 14.3875L347.814 15.0685C347.87 14.9587 347.959 14.8695 348.069 14.8136L347.388 13.4771ZM351.25 17.6667C351.25 17.9888 350.989 18.25 350.667 18.25V19.75C351.817 19.75 352.75 18.8173 352.75 17.6667H351.25ZM350.667 18.25C350.345 18.25 350.083 17.9888 350.083 17.6667H348.583C348.583 18.8173 349.516 19.75 350.667 19.75V18.25ZM350.083 17.6667C350.083 17.3445 350.345 17.0833 350.667 17.0833V15.5833C349.516 15.5833 348.583 16.5161 348.583 17.6667H350.083ZM350.667 17.0833C350.989 17.0833 351.25 17.3445 351.25 17.6667H352.75C352.75 16.5161 351.817 15.5833 350.667 15.5833V17.0833Z" fill="#464134"/>
<rect x="377" y="10" width="1" height="20" fill="#DCD9D0"/>
<path d="M396.667 16.6667H403.333C405.542 16.6667 407.333 18.4575 407.333 20.6667C407.333 22.8758 405.542 24.6667 403.333 24.6667H396.667M396.667 16.6667L399.333 14M396.667 16.6667L399.333 19.3333" stroke="#464134" stroke-width="1.5" stroke-linecap="square"/>
<path d="M437.333 16.6667H430.667C428.457 16.6667 426.667 18.4575 426.667 20.6667C426.667 22.8758 428.457 24.6667 430.667 24.6667H437.333M437.333 16.6667L434.667 14M437.333 16.6667L434.667 19.3333" stroke="#B1A995" stroke-width="1.5" stroke-linecap="square"/>
<defs>
<clipPath id="clip0_50_1639">
<rect width="16" height="16" fill="white" transform="translate(315 12)"/>
</clipPath>
</defs>
</svg>
