<svg width="60" height="37" viewBox="0 0 60 37" fill="none" xmlns="http://www.w3.org/2000/svg">
<g clip-path="url(#clip0_51_6571)">
<path d="M28.0001 11.4815L30.5187 14M27.3167 17.9833C26.4055 18.8945 24.6668 18.6667 23.3335 18.6667C24.0169 17.3334 23.1057 15.5947 24.0169 14.6835C24.9281 13.7722 26.4055 13.7722 27.3167 14.6835C28.228 15.5947 28.228 17.0721 27.3167 17.9833ZM29.9479 14.6164L36.0393 8.03773C36.5758 7.45828 36.5585 6.55843 36.0001 6.00003C35.4417 5.44164 34.5419 5.42434 33.9624 5.96086L27.3837 12.0523C27.0438 12.367 26.8738 12.5244 26.7746 12.6923C26.5369 13.0948 26.5274 13.5924 26.7494 14.0037C26.842 14.1753 27.0059 14.3391 27.3335 14.6667C27.6611 14.9943 27.8249 15.1581 27.9964 15.2507C28.4078 15.4728 28.9054 15.4632 29.3079 15.2255C29.4757 15.1264 29.6331 14.9564 29.9479 14.6164Z" stroke="#464134" stroke-width="1.5" stroke-linecap="square"/>
</g>
<path d="M19.7842 31.144C17.9482 31.144 16.7422 29.911 16.7422 27.805C16.7422 25.816 18.0652 24.547 19.8292 24.547C21.3592 24.547 22.4302 25.456 22.5742 26.824H21.5122C21.3682 25.951 20.7832 25.393 19.8112 25.393C18.6142 25.393 17.7862 26.302 17.7862 27.805C17.7862 29.335 18.6232 30.298 19.7932 30.298C20.7832 30.298 21.4222 29.704 21.5752 28.84H22.5922C22.4302 30.244 21.3772 31.144 19.7842 31.144ZM23.5502 31V26.635H24.4862V26.896L24.4682 27.391C24.6932 26.896 25.1252 26.491 25.7912 26.491C25.8632 26.491 25.9352 26.491 26.0072 26.509V27.418C25.9352 27.409 25.8542 27.391 25.7282 27.391C24.9722 27.391 24.4862 27.796 24.4862 28.759V31H23.5502ZM28.5429 31.144C27.2379 31.144 26.3739 30.316 26.3739 28.804C26.3739 27.445 27.2739 26.491 28.5069 26.491C29.8209 26.491 30.5679 27.409 30.5679 28.822V29.02H27.3189C27.3369 29.866 27.8409 30.415 28.5519 30.415C29.0559 30.415 29.4969 30.172 29.5869 29.614H30.5319C30.4419 30.442 29.7579 31.144 28.5429 31.144ZM29.5869 28.354C29.5779 27.67 29.1729 27.202 28.4979 27.202C27.8409 27.202 27.3909 27.697 27.3279 28.354H29.5869ZM32.7905 31.144C31.9985 31.144 31.2875 30.64 31.2875 29.803C31.2875 28.885 32.0075 28.516 32.8625 28.399L33.6455 28.282C33.9875 28.237 34.1045 28.111 34.1045 27.868C34.1045 27.481 33.7985 27.202 33.3125 27.202C32.7185 27.202 32.3855 27.526 32.3585 28.021H31.4045C31.4495 27.166 32.1335 26.491 33.2495 26.491C34.4555 26.491 35.0315 27.166 35.0315 28.282V31H34.1585V30.802C34.1585 30.667 34.1675 30.541 34.1765 30.406C33.9515 30.847 33.4925 31.144 32.7905 31.144ZM32.9975 30.442C33.6365 30.442 34.1225 29.992 34.1225 29.326V28.768C34.0505 28.858 33.8885 28.912 33.6275 28.957L33.1325 29.056C32.6195 29.155 32.2505 29.353 32.2505 29.776C32.2505 30.199 32.5835 30.442 32.9975 30.442ZM37.9263 31.072C37.1343 31.072 36.5943 30.685 36.5943 29.713V27.391H35.6853V26.635H36.5943V25.123H37.5303V26.635H38.5203V27.391H37.5303V29.587C37.5303 30.073 37.7463 30.289 38.1693 30.289C38.2773 30.289 38.3853 30.28 38.5023 30.262V31.009C38.3673 31.045 38.1513 31.072 37.9263 31.072ZM41.2783 31.144C39.9733 31.144 39.1093 30.316 39.1093 28.804C39.1093 27.445 40.0093 26.491 41.2423 26.491C42.5563 26.491 43.3033 27.409 43.3033 28.822V29.02H40.0543C40.0723 29.866 40.5763 30.415 41.2873 30.415C41.7913 30.415 42.2323 30.172 42.3223 29.614H43.2673C43.1773 30.442 42.4933 31.144 41.2783 31.144ZM42.3223 28.354C42.3133 27.67 41.9083 27.202 41.2333 27.202C40.5763 27.202 40.1263 27.697 40.0633 28.354H42.3223Z" fill="#464134"/>
<defs>
<clipPath id="clip0_51_6571">
<rect width="16" height="16" fill="white" transform="translate(22 4)"/>
</clipPath>
</defs>
</svg>
