<svg width="60" height="33" viewBox="0 0 60 33" fill="none" xmlns="http://www.w3.org/2000/svg">
<path d="M27.5 24.0001V17.8334C27.5 17.3667 27.5 17.1334 27.5908 16.9551C27.6707 16.7983 27.7982 16.6708 27.955 16.5909C28.1333 16.5001 28.3666 16.5001 28.8333 16.5001H31.1667C31.6334 16.5001 31.8667 16.5001 32.045 16.5909C32.2018 16.6708 32.3293 16.7983 32.4092 16.9551C32.5 17.1334 32.5 17.3667 32.5 17.8334V24.0001M29.1814 8.80345L23.5295 13.1994C23.1517 13.4932 22.9628 13.6402 22.8267 13.8242C22.7061 13.9872 22.6163 14.1708 22.5617 14.366C22.5 14.5864 22.5 14.8257 22.5 15.3043V21.3334C22.5 22.2669 22.5 22.7336 22.6817 23.0901C22.8414 23.4037 23.0964 23.6587 23.41 23.8185C23.7665 24.0001 24.2332 24.0001 25.1667 24.0001H34.8333C35.7668 24.0001 36.2335 24.0001 36.59 23.8185C36.9036 23.6587 37.1586 23.4037 37.3183 23.0901C37.5 22.7336 37.5 22.2669 37.5 21.3334V15.3043C37.5 14.8257 37.5 14.5864 37.4383 14.366C37.3837 14.1708 37.2939 13.9872 37.1733 13.8242C37.0372 13.6402 36.8483 13.4932 36.4705 13.1994L30.8186 8.80345C30.5258 8.57574 30.3794 8.46189 30.2178 8.41812C30.0752 8.37951 29.9248 8.37951 29.7822 8.41812C29.6206 8.46189 29.4742 8.57574 29.1814 8.80345Z" stroke="#464134" stroke-width="1.75" stroke-linecap="square"/>
<rect x="58.5" width="1" height="33" fill="#DCD9D0"/>
</svg>
