<svg width="100" height="48" viewBox="0 0 100 48" fill="none" xmlns="http://www.w3.org/2000/svg">
<g clip-path="url(#clip0_51_5413)">
<path d="M27.3748 22.9998L29.1248 24.7498L32.6248 21.2498M35.8332 22.9998C35.8332 26.2215 33.2215 28.8332 29.9998 28.8332C26.7782 28.8332 24.1665 26.2215 24.1665 22.9998C24.1665 19.7782 26.7782 17.1665 29.9998 17.1665C33.2215 17.1665 35.8332 19.7782 35.8332 22.9998Z" stroke="#2F2B23" stroke-width="1.5" stroke-linecap="square"/>
</g>
<path d="M60 9.5H80C81.933 9.5 83.5 11.067 83.5 13V33C83.5 34.933 81.933 36.5 80 36.5H60C58.067 36.5 56.5 34.933 56.5 33V13C56.5 11.067 58.067 9.5 60 9.5Z" fill="#F6F5F3"/>
<path d="M60 9.5H80C81.933 9.5 83.5 11.067 83.5 13V33C83.5 34.933 81.933 36.5 80 36.5H60C58.067 36.5 56.5 34.933 56.5 33V13C56.5 11.067 58.067 9.5 60 9.5Z" stroke="#817A69"/>
<g clip-path="url(#clip1_51_5413)">
<path d="M68.3023 21.2498C68.4395 20.86 68.7102 20.5312 69.0665 20.3218C69.4228 20.1124 69.8417 20.0359 70.249 20.1058C70.6564 20.1756 71.0258 20.3874 71.292 20.7036C71.5581 21.0197 71.7038 21.4199 71.7032 21.8332C71.7032 22.9998 69.9532 23.5832 69.9532 23.5832M69.9998 25.9165H70.0057M75.8332 22.9998C75.8332 26.2215 73.2215 28.8332 69.9998 28.8332C66.7782 28.8332 64.1665 26.2215 64.1665 22.9998C64.1665 19.7782 66.7782 17.1665 69.9998 17.1665C73.2215 17.1665 75.8332 19.7782 75.8332 22.9998Z" stroke="#2F2B23" stroke-width="1.5" stroke-linecap="square"/>
</g>
<defs>
<clipPath id="clip0_51_5413">
<rect width="14" height="14" fill="white" transform="translate(23 16)"/>
</clipPath>
<clipPath id="clip1_51_5413">
<rect width="14" height="14" fill="white" transform="translate(63 16)"/>
</clipPath>
</defs>
</svg>
