<svg width="285" height="44" viewBox="0 0 285 44" fill="none" xmlns="http://www.w3.org/2000/svg">
<path d="M7 12C7 9.79086 8.79086 8 11 8H123C125.209 8 127 9.79086 127 12V32C127 34.2091 125.209 36 123 36H11C8.79086 36 7 34.2091 7 32V12Z" fill="#F6F5F3"/>
<g clip-path="url(#clip0_50_1739)">
<path d="M18.0608 22.9846C17.9603 22.5828 17.5531 22.3384 17.1513 22.4389C16.7494 22.5394 16.5051 22.9466 16.6056 23.3484L18.0608 22.9846ZM18.2517 26.8407L17.5241 27.0226L17.5241 27.0226L18.2517 26.8407ZM21.5832 23.4582C21.5832 23.044 21.2474 22.7082 20.8332 22.7082C20.419 22.7082 20.0832 23.044 20.0832 23.4582H21.5832ZM19.7791 27.8277L19.7067 27.0812L19.7067 27.0812L19.7791 27.8277ZM20.8277 26.7791L20.0812 26.7067L20.0812 26.7067L20.8277 26.7791ZM18.3057 27.0408L17.5954 27.2814L17.5954 27.2814L18.3057 27.0408ZM19.3156 27.8293L19.3768 27.0818L19.3768 27.0818L19.3156 27.8293ZM25.7915 22.1248H25.0415V23.6248H25.7915V22.1248ZM25.7915 18.0415H25.0415V19.5415H25.7915V18.0415ZM25.7915 25.4998L25.3528 26.1082C25.5812 26.2728 25.8826 26.2957 26.1332 26.1675C26.3838 26.0392 26.5415 25.7814 26.5415 25.4998H25.7915ZM25.7915 16.1665H26.5415C26.5415 15.885 26.3838 15.6271 26.1332 15.4989C25.8826 15.3706 25.5812 15.3935 25.3528 15.5582L25.7915 16.1665ZM16.1665 20.8332L16.9165 20.8332L16.1665 20.8332ZM16.6056 23.3484L17.5241 27.0226L18.9793 26.6588L18.0608 22.9846L16.6056 23.3484ZM21.5832 26.5229V23.4582H20.0832V26.5229H21.5832ZM19.5229 28.5832C19.6387 28.5832 19.7501 28.5841 19.8515 28.5742L19.7067 27.0812C19.7069 27.0812 19.6985 27.0821 19.6673 27.0826C19.6347 27.0831 19.5921 27.0832 19.5229 27.0832V28.5832ZM20.0832 26.5229C20.0832 26.5921 20.0831 26.6347 20.0826 26.6673C20.0821 26.6985 20.0812 26.7069 20.0812 26.7067L21.5742 26.8515C21.5841 26.7501 21.5832 26.6387 21.5832 26.5229H20.0832ZM19.8515 28.5742C20.7638 28.4857 21.4857 27.7638 21.5742 26.8515L20.0812 26.7067C20.062 26.905 19.905 27.062 19.7067 27.0812L19.8515 28.5742ZM17.5241 27.0226C17.5466 27.1126 17.5679 27.2002 17.5954 27.2814L19.0161 26.8002C19.013 26.7912 19.0085 26.7754 18.9793 26.6588L17.5241 27.0226ZM19.5229 27.0832C19.4026 27.0832 19.3863 27.0826 19.3768 27.0818L19.2545 28.5768C19.3399 28.5838 19.4301 28.5832 19.5229 28.5832V27.0832ZM17.5954 27.2814C17.8406 28.0054 18.4926 28.5145 19.2545 28.5768L19.3768 27.0818C19.2112 27.0682 19.0694 26.9576 19.0161 26.8002L17.5954 27.2814ZM27.0832 20.8332C27.0832 21.5465 26.5049 22.1248 25.7915 22.1248V23.6248C27.3333 23.6248 28.5832 22.375 28.5832 20.8332H27.0832ZM25.7915 19.5415C26.5049 19.5415 27.0832 20.1198 27.0832 20.8332H28.5832C28.5832 19.2914 27.3333 18.0415 25.7915 18.0415V19.5415ZM18.7915 18.9582H20.979V17.4582H18.7915V18.9582ZM25.7915 25.4998C26.2302 24.8915 26.2301 24.8914 26.2299 24.8913C26.2299 24.8913 26.2297 24.8912 26.2296 24.8911C26.2294 24.891 26.2292 24.8908 26.2289 24.8906C26.2282 24.8901 26.2275 24.8896 26.2265 24.8889C26.2246 24.8875 26.222 24.8856 26.2187 24.8833C26.2122 24.8787 26.203 24.8721 26.1912 24.8638C26.1677 24.8472 26.1338 24.8236 26.0906 24.7939C26.0041 24.7345 25.8798 24.6507 25.725 24.5508C25.4161 24.3513 24.982 24.0848 24.4815 23.8175C23.5174 23.3025 22.1707 22.7082 20.979 22.7082V24.2082C21.7683 24.2082 22.8279 24.6347 23.7748 25.1405C24.2298 25.3836 24.6274 25.6275 24.9113 25.8109C25.0529 25.9023 25.1653 25.9781 25.2414 26.0304C25.2794 26.0565 25.3083 26.0767 25.3272 26.09C25.3367 26.0966 25.3436 26.1016 25.3479 26.1046C25.3501 26.1062 25.3516 26.1073 25.3524 26.1078C25.3528 26.1081 25.353 26.1083 25.3531 26.1084C25.3532 26.1084 25.3532 26.1084 25.3531 26.1084C25.3531 26.1084 25.353 26.1083 25.353 26.1083C25.3529 26.1082 25.3528 26.1082 25.7915 25.4998ZM25.0415 16.1665V25.4998H26.5415V16.1665H25.0415ZM20.979 18.9582C22.1707 18.9582 23.5174 18.3639 24.4815 17.8489C24.982 17.5815 25.4161 17.315 25.725 17.1156C25.8798 17.0156 26.0041 16.9319 26.0906 16.8725C26.1338 16.8428 26.1677 16.8191 26.1912 16.8025C26.203 16.7942 26.2122 16.7877 26.2187 16.783C26.222 16.7807 26.2246 16.7788 26.2265 16.7775C26.2275 16.7768 26.2282 16.7762 26.2289 16.7758C26.2292 16.7756 26.2294 16.7754 26.2296 16.7752C26.2297 16.7751 26.2299 16.7751 26.2299 16.775C26.2301 16.7749 26.2302 16.7748 25.7915 16.1665C25.3528 15.5582 25.3529 15.5581 25.353 15.558C25.353 15.558 25.3531 15.558 25.3531 15.558C25.3532 15.5579 25.3532 15.5579 25.3531 15.558C25.353 15.558 25.3528 15.5582 25.3524 15.5585C25.3516 15.5591 25.3501 15.5602 25.3479 15.5617C25.3436 15.5648 25.3367 15.5697 25.3272 15.5763C25.3083 15.5897 25.2794 15.6099 25.2414 15.636C25.1653 15.6883 25.0529 15.764 24.9113 15.8555C24.6274 16.0388 24.2298 16.2828 23.7748 16.5258C22.8279 17.0316 21.7683 17.4582 20.979 17.4582V18.9582ZM20.979 22.7082H18.7915V24.2082H20.979V22.7082ZM15.4165 20.8332C15.4165 22.6971 16.9275 24.2082 18.7915 24.2082V22.7082C17.756 22.7082 16.9165 21.8687 16.9165 20.8332L15.4165 20.8332ZM18.7915 17.4582C16.9275 17.4582 15.4165 18.9692 15.4165 20.8332L16.9165 20.8332C16.9165 19.7976 17.756 18.9582 18.7915 18.9582V17.4582Z" fill="#2F2B23"/>
</g>
<path d="M38.936 26.192C36.812 26.192 35.456 25.028 35.384 23.204H36.764C36.824 24.368 37.736 25.076 38.984 25.076C40.148 25.076 40.892 24.584 40.892 23.732C40.892 23.048 40.376 22.664 39.368 22.46L38.024 22.172C36.632 21.872 35.684 21.08 35.684 19.832C35.684 18.416 37.016 17.396 38.852 17.396C40.784 17.396 42.008 18.428 42.104 20.048H40.724C40.676 19.136 39.968 18.512 38.804 18.512C37.784 18.512 37.04 18.992 37.04 19.712C37.04 20.372 37.52 20.72 38.48 20.924L39.932 21.236C41.336 21.524 42.26 22.304 42.26 23.588C42.26 25.088 41.012 26.192 38.936 26.192ZM46.2378 26.192C44.4618 26.192 43.3458 25.052 43.3458 23.072C43.3458 21.284 44.5458 19.988 46.1898 19.988C47.9178 19.988 48.9378 21.188 48.9378 23.096V23.36H44.6058C44.6178 24.476 45.2898 25.22 46.2498 25.22C46.9698 25.22 47.5218 24.86 47.6298 24.152H48.8898C48.7698 25.28 47.8098 26.192 46.2378 26.192ZM44.6178 22.472H47.6298C47.6178 21.548 47.0778 20.936 46.1778 20.936C45.3138 20.936 44.7018 21.572 44.6178 22.472ZM50.3529 26V17.6H51.6009V26H50.3529ZM55.8997 26.192C54.1237 26.192 53.0077 25.052 53.0077 23.072C53.0077 21.284 54.2077 19.988 55.8517 19.988C57.5797 19.988 58.5997 21.188 58.5997 23.096V23.36H54.2677C54.2797 24.476 54.9517 25.22 55.9117 25.22C56.6317 25.22 57.1837 24.86 57.2917 24.152H58.5517C58.4317 25.28 57.4717 26.192 55.8997 26.192ZM54.2797 22.472H57.2917C57.2797 21.548 56.7397 20.936 55.8397 20.936C54.9757 20.936 54.3637 21.572 54.2797 22.472ZM62.5827 26.192C60.8547 26.192 59.6667 25.04 59.6667 23.084C59.6667 21.224 60.9507 19.988 62.6427 19.988C64.1427 19.988 65.1507 20.9 65.2827 22.256H64.0107C63.9267 21.5 63.4347 20.972 62.6307 20.972C61.6347 20.972 60.9387 21.824 60.9387 23.084C60.9387 24.368 61.6107 25.22 62.6187 25.22C63.4707 25.22 63.9867 24.692 64.0827 23.912H65.3307C65.1747 25.316 64.2027 26.192 62.5827 26.192ZM68.9315 26.096C67.8275 26.096 67.1555 25.532 67.1555 24.284V21.188H65.9435V20.18H67.1555V18.164H68.4035V20.18H69.7235V21.188H68.4035V24.116C68.4035 24.752 68.6795 25.052 69.2555 25.052C69.3995 25.052 69.5435 25.04 69.6995 25.016V26.012C69.4955 26.072 69.2315 26.096 68.9315 26.096ZM75.4844 26.192C74.4044 26.192 73.4804 25.496 73.4804 24.404C73.4804 23.348 74.1764 22.724 75.5804 22.532L76.6244 22.376C77.0684 22.316 77.2364 22.16 77.2364 21.824C77.2364 21.296 76.8164 20.936 76.1804 20.936C75.4004 20.936 74.9444 21.356 74.9084 22.028H73.6364C73.7084 20.876 74.6204 19.988 76.0964 19.988C77.6804 19.988 78.4724 20.852 78.4724 22.376V26H77.3084V25.736C77.3084 25.628 77.3204 25.448 77.3324 25.208C77.0084 25.82 76.3964 26.192 75.4844 26.192ZM74.7644 24.368C74.7644 24.908 75.1844 25.256 75.7604 25.256C76.6244 25.256 77.2604 24.644 77.2604 23.768V23.024C77.1764 23.132 76.9484 23.216 76.6004 23.276L75.9404 23.408C75.2084 23.552 74.7644 23.84 74.7644 24.368ZM85.0583 26L81.8663 17.6H83.3423L85.5383 23.672C85.6943 24.068 85.8143 24.44 85.9223 24.764C85.9943 24.536 86.1263 24.176 86.3063 23.672L88.5023 17.6H89.9423L86.7023 26H85.0583ZM92.834 26.192C91.13 26.192 89.918 24.98 89.918 23.096C89.918 21.26 91.142 19.988 92.834 19.988C94.55 19.988 95.762 21.26 95.762 23.096C95.762 24.98 94.55 26.192 92.834 26.192ZM91.19 23.096C91.19 24.392 91.826 25.22 92.834 25.22C93.842 25.22 94.49 24.392 94.49 23.096C94.49 21.788 93.842 20.972 92.834 20.972C91.838 20.972 91.19 21.788 91.19 23.096ZM97.1712 26V20.18H98.4192V26H97.1712ZM97.1232 19.184V17.804H98.4792V19.184H97.1232ZM102.742 26.192C101.014 26.192 99.826 25.04 99.826 23.084C99.826 21.224 101.11 19.988 102.802 19.988C104.302 19.988 105.31 20.9 105.442 22.256H104.17C104.086 21.5 103.594 20.972 102.79 20.972C101.794 20.972 101.098 21.824 101.098 23.084C101.098 24.368 101.77 25.22 102.778 25.22C103.63 25.22 104.146 24.692 104.242 23.912H105.49C105.334 25.316 104.362 26.192 102.742 26.192ZM109.354 26.192C107.578 26.192 106.462 25.052 106.462 23.072C106.462 21.284 107.662 19.988 109.306 19.988C111.034 19.988 112.054 21.188 112.054 23.096V23.36H107.722C107.734 24.476 108.406 25.22 109.366 25.22C110.086 25.22 110.638 24.86 110.746 24.152H112.006C111.886 25.28 110.926 26.192 109.354 26.192ZM107.734 22.472H110.746C110.734 21.548 110.194 20.936 109.294 20.936C108.43 20.936 107.818 21.572 107.734 22.472Z" fill="#2F2B23"/>
<path d="M135 12C135 9.79086 136.791 8 139 8H237C239.209 8 241 9.79086 241 12V32C241 34.2091 239.209 36 237 36H139C136.791 36 135 34.2091 135 32V12Z" fill="#F6F5F3"/>
<path d="M151.917 16.3237C151.917 15.9095 151.581 15.5737 151.167 15.5737C150.753 15.5737 150.417 15.9095 150.417 16.3237H151.917ZM154.51 20.4165C154.924 20.4165 155.26 20.0808 155.26 19.6665C155.26 19.2523 154.924 18.9165 154.51 18.9165V20.4165ZM151.23 19.348L151.899 19.0075L151.899 19.0075L151.23 19.348ZM151.485 19.603L151.826 18.9347L151.826 18.9347L151.485 19.603ZM151.167 16.1665L151.697 15.6362C151.557 15.4955 151.366 15.4165 151.167 15.4165V16.1665ZM154.667 19.6665H155.417C155.417 19.4676 155.338 19.2768 155.197 19.1362L154.667 19.6665ZM145.971 27.706L146.311 27.0378L145.971 27.706ZM145.461 27.1962L146.129 26.8557L145.461 27.1962ZM154.03 27.706L153.689 27.0378L154.03 27.706ZM154.54 27.1962L153.871 26.8557L154.54 27.1962ZM145.461 16.8035L146.129 17.144L145.461 16.8035ZM145.971 16.2937L146.311 16.9619L145.971 16.2937ZM152.333 23.3332H153.083V21.8332H152.333V23.3332ZM147.667 21.8332H146.917V23.3332H147.667V21.8332ZM152.333 25.6665H153.083V24.1665H152.333V25.6665ZM147.667 24.1665H146.917V25.6665H147.667V24.1665ZM148.833 20.9998H149.583V19.4998H148.833V20.9998ZM147.667 19.4998H146.917V20.9998H147.667V19.4998ZM150.417 16.3237V18.7332H151.917V16.3237H150.417ZM152.1 20.4165H154.51V18.9165H152.1V20.4165ZM150.417 18.7332C150.417 18.8842 150.416 19.0425 150.427 19.1774C150.439 19.3211 150.468 19.5028 150.562 19.6885L151.899 19.0075C151.93 19.0685 151.926 19.1062 151.922 19.0553C151.92 19.0303 151.919 18.9939 151.918 18.9378C151.917 18.8817 151.917 18.8166 151.917 18.7332H150.417ZM152.1 18.9165C152.017 18.9165 151.952 18.9165 151.896 18.9156C151.839 18.9148 151.803 18.9131 151.778 18.9111C151.727 18.9069 151.765 18.9037 151.826 18.9347L151.145 20.2712C151.331 20.3659 151.512 20.3944 151.656 20.4061C151.791 20.4171 151.949 20.4165 152.1 20.4165V18.9165ZM150.562 19.6885C150.69 19.9394 150.894 20.1434 151.145 20.2712L151.826 18.9347C151.857 18.9507 151.883 18.9762 151.899 19.0075L150.562 19.6885ZM152.8 27.0832H147.2V28.5832H152.8V27.0832ZM146.083 25.9665V18.0332H144.583V25.9665H146.083ZM147.2 16.9165H151.167V15.4165H147.2V16.9165ZM153.917 19.6665V25.9665H155.417V19.6665H153.917ZM150.636 16.6968L154.137 20.1968L155.197 19.1362L151.697 15.6362L150.636 16.6968ZM147.2 27.0832C146.861 27.0832 146.652 27.0826 146.495 27.0698C146.347 27.0577 146.312 27.0385 146.311 27.0378L145.63 28.3743C145.878 28.5007 146.132 28.5451 146.373 28.5648C146.605 28.5838 146.886 28.5832 147.2 28.5832V27.0832ZM144.583 25.9665C144.583 26.2808 144.583 26.5617 144.602 26.7938C144.622 27.0348 144.666 27.2885 144.792 27.5367L146.129 26.8557C146.128 26.8542 146.109 26.8199 146.097 26.6717C146.084 26.5148 146.083 26.3056 146.083 25.9665H144.583ZM146.311 27.0378C146.233 26.9978 146.169 26.9341 146.129 26.8557L144.792 27.5367C144.976 27.8973 145.269 28.1905 145.63 28.3743L146.311 27.0378ZM152.8 28.5832C153.114 28.5832 153.395 28.5838 153.628 28.5648C153.868 28.5451 154.122 28.5007 154.37 28.3743L153.689 27.0378C153.688 27.0385 153.654 27.0577 153.505 27.0698C153.348 27.0826 153.139 27.0832 152.8 27.0832V28.5832ZM153.917 25.9665C153.917 26.3056 153.916 26.5148 153.903 26.6717C153.891 26.8199 153.872 26.8542 153.871 26.8557L155.208 27.5367C155.334 27.2885 155.379 27.0348 155.398 26.7938C155.417 26.5617 155.417 26.2808 155.417 25.9665H153.917ZM154.37 28.3743C154.731 28.1905 155.024 27.8973 155.208 27.5367L153.871 26.8557C153.831 26.9341 153.768 26.9978 153.689 27.0378L154.37 28.3743ZM146.083 18.0332C146.083 17.6941 146.084 17.4849 146.097 17.328C146.109 17.1798 146.128 17.1454 146.129 17.144L144.792 16.463C144.666 16.7112 144.622 16.9649 144.602 17.2058C144.583 17.438 144.583 17.7188 144.583 18.0332H146.083ZM147.2 15.4165C146.886 15.4165 146.605 15.4159 146.373 15.4349C146.132 15.4546 145.878 15.499 145.63 15.6254L146.311 16.9619C146.312 16.9612 146.347 16.942 146.495 16.9299C146.652 16.9171 146.861 16.9165 147.2 16.9165V15.4165ZM146.129 17.144C146.169 17.0656 146.233 17.0019 146.311 16.9619L145.63 15.6254C145.269 15.8092 144.976 16.1024 144.792 16.463L146.129 17.144ZM152.333 21.8332H147.667V23.3332H152.333V21.8332ZM152.333 24.1665H147.667V25.6665H152.333V24.1665ZM148.833 19.4998H147.667V20.9998H148.833V19.4998Z" fill="#2F2B23"/>
<path d="M166.936 26.192C164.812 26.192 163.456 25.028 163.384 23.204H164.764C164.824 24.368 165.736 25.076 166.984 25.076C168.148 25.076 168.892 24.584 168.892 23.732C168.892 23.048 168.376 22.664 167.368 22.46L166.024 22.172C164.632 21.872 163.684 21.08 163.684 19.832C163.684 18.416 165.016 17.396 166.852 17.396C168.784 17.396 170.008 18.428 170.104 20.048H168.724C168.676 19.136 167.968 18.512 166.804 18.512C165.784 18.512 165.04 18.992 165.04 19.712C165.04 20.372 165.52 20.72 166.48 20.924L167.932 21.236C169.336 21.524 170.26 22.304 170.26 23.588C170.26 25.088 169.012 26.192 166.936 26.192ZM174.022 26.096C172.918 26.096 172.246 25.532 172.246 24.284V21.188H171.034V20.18H172.246V18.164H173.494V20.18H174.814V21.188H173.494V24.116C173.494 24.752 173.77 25.052 174.346 25.052C174.49 25.052 174.634 25.04 174.79 25.016V26.012C174.586 26.072 174.322 26.096 174.022 26.096ZM176.808 28.472L177.816 25.868L175.512 20.18H176.904L178.248 23.912C178.38 24.296 178.452 24.536 178.476 24.62C178.536 24.392 178.608 24.164 178.692 23.912L179.928 20.18H181.236L178.14 28.472H176.808ZM182.27 26V17.6H183.518V26H182.27ZM187.817 26.192C186.041 26.192 184.925 25.052 184.925 23.072C184.925 21.284 186.125 19.988 187.769 19.988C189.497 19.988 190.517 21.188 190.517 23.096V23.36H186.185C186.197 24.476 186.869 25.22 187.829 25.22C188.549 25.22 189.101 24.86 189.209 24.152H190.469C190.349 25.28 189.389 26.192 187.817 26.192ZM186.197 22.472H189.209C189.197 21.548 188.657 20.936 187.757 20.936C186.893 20.936 186.281 21.572 186.197 22.472ZM198.407 26.192C196.031 26.228 194.399 24.356 194.435 21.824C194.435 19.124 196.211 17.396 198.587 17.396C200.543 17.396 201.935 18.536 202.103 20.12H200.711C200.579 19.172 199.739 18.524 198.599 18.524C196.967 18.524 195.815 19.724 195.815 21.824C195.815 23.756 196.943 25.076 198.551 25.076C199.979 25.076 200.927 24.224 200.927 22.796V22.688H198.467V21.56H202.139V26H200.975V25.676C200.975 25.4 200.987 25.136 201.011 24.86C200.579 25.64 199.607 26.192 198.407 26.192ZM205.789 26.192C204.505 26.192 203.701 25.364 203.701 23.876V20.18H204.949V23.66C204.949 24.656 205.345 25.208 206.149 25.208C207.001 25.208 207.517 24.572 207.517 23.516V20.18H208.765V26H207.529V25.7C207.529 25.52 207.541 25.352 207.565 25.196C207.265 25.808 206.641 26.192 205.789 26.192ZM210.514 26V20.18H211.762V26H210.514ZM210.466 19.184V17.804H211.822V19.184H210.466ZM215.845 26.192C214.285 26.192 213.169 25.076 213.169 23.096C213.169 21.2 214.345 19.988 215.869 19.988C216.733 19.988 217.369 20.408 217.705 20.984C217.693 20.864 217.681 20.696 217.681 20.468V17.6H218.929V26H217.681V25.712C217.681 25.484 217.693 25.304 217.705 25.196C217.381 25.76 216.745 26.192 215.845 26.192ZM214.453 23.096C214.453 24.38 215.137 25.22 216.109 25.22C217.057 25.22 217.753 24.356 217.753 23.084C217.753 21.8 217.081 20.972 216.109 20.972C215.137 20.972 214.453 21.848 214.453 23.096ZM223.224 26.192C221.448 26.192 220.332 25.052 220.332 23.072C220.332 21.284 221.532 19.988 223.176 19.988C224.904 19.988 225.924 21.188 225.924 23.096V23.36H221.592C221.604 24.476 222.276 25.22 223.236 25.22C223.956 25.22 224.508 24.86 224.616 24.152H225.876C225.756 25.28 224.796 26.192 223.224 26.192ZM221.604 22.472H224.616C224.604 21.548 224.064 20.936 223.164 20.936C222.3 20.936 221.688 21.572 221.604 22.472Z" fill="#2F2B23"/>
<path d="M249 12C249 9.79086 250.791 8 253 8H273C275.209 8 277 9.79086 277 12V32C277 34.2091 275.209 36 273 36H253C250.791 36 249 34.2091 249 32V12Z" fill="#F6F5F3"/>
<path d="M263 22.5835C263.322 22.5835 263.583 22.3223 263.583 22.0002C263.583 21.678 263.322 21.4168 263 21.4168C262.678 21.4168 262.417 21.678 262.417 22.0002C262.417 22.3223 262.678 22.5835 263 22.5835Z" fill="#2F2B23"/>
<path d="M263 18.5002C263.322 18.5002 263.583 18.239 263.583 17.9168C263.583 17.5947 263.322 17.3335 263 17.3335C262.678 17.3335 262.417 17.5947 262.417 17.9168C262.417 18.239 262.678 18.5002 263 18.5002Z" fill="#2F2B23"/>
<path d="M263 26.6668C263.322 26.6668 263.583 26.4057 263.583 26.0835C263.583 25.7613 263.322 25.5002 263 25.5002C262.678 25.5002 262.417 25.7613 262.417 26.0835C262.417 26.4057 262.678 26.6668 263 26.6668Z" fill="#2F2B23"/>
<path d="M263 22.5835C263.322 22.5835 263.583 22.3223 263.583 22.0002C263.583 21.678 263.322 21.4168 263 21.4168C262.678 21.4168 262.417 21.678 262.417 22.0002C262.417 22.3223 262.678 22.5835 263 22.5835Z" stroke="#2F2B23" stroke-width="1.75" stroke-linecap="square"/>
<path d="M263 18.5002C263.322 18.5002 263.583 18.239 263.583 17.9168C263.583 17.5947 263.322 17.3335 263 17.3335C262.678 17.3335 262.417 17.5947 262.417 17.9168C262.417 18.239 262.678 18.5002 263 18.5002Z" stroke="#2F2B23" stroke-width="1.75" stroke-linecap="square"/>
<path d="M263 26.6668C263.322 26.6668 263.583 26.4057 263.583 26.0835C263.583 25.7613 263.322 25.5002 263 25.5002C262.678 25.5002 262.417 25.7613 262.417 26.0835C262.417 26.4057 262.678 26.6668 263 26.6668Z" stroke="#2F2B23" stroke-width="1.75" stroke-linecap="square"/>
<defs>
<clipPath id="clip0_50_1739">
<rect width="14" height="14" fill="white" transform="translate(15 15)"/>
</clipPath>
</defs>
</svg>
