<svg width="61" height="37" viewBox="0 0 61 37" fill="none" xmlns="http://www.w3.org/2000/svg">
<g clip-path="url(#clip0_51_6566)">
<path d="M36.867 18V16.6667C36.867 15.4241 36.0172 14.38 34.867 14.084M32.5337 6.19384C33.511 6.58943 34.2004 7.54754 34.2004 8.66667C34.2004 9.78579 33.511 10.7439 32.5337 11.1395M33.5337 18V17.2C33.5337 16.0799 33.5337 15.5198 33.3157 15.092C33.124 14.7157 32.818 14.4097 32.4417 14.218C32.0138 14 31.4538 14 30.3337 14H26.7337C25.6136 14 25.0535 14 24.6257 14.218C24.2494 14.4097 23.9434 14.7157 23.7517 15.092C23.5337 15.5198 23.5337 16.0799 23.5337 17.2V18M31.2004 8.66667C31.2004 10.1394 30.0065 11.3333 28.5337 11.3333C27.0609 11.3333 25.867 10.1394 25.867 8.66667C25.867 7.19391 27.0609 6 28.5337 6C30.0065 6 31.2004 7.19391 31.2004 8.66667Z" stroke="#464134" stroke-width="1.5" stroke-linecap="square"/>
</g>
<path d="M17.752 31.144C15.916 31.144 14.71 29.911 14.71 27.805C14.71 25.816 16.033 24.547 17.797 24.547C19.327 24.547 20.398 25.456 20.542 26.824H19.48C19.336 25.951 18.751 25.393 17.779 25.393C16.582 25.393 15.754 26.302 15.754 27.805C15.754 29.335 16.591 30.298 17.761 30.298C18.751 30.298 19.39 29.704 19.543 28.84H20.56C20.398 30.244 19.345 31.144 17.752 31.144ZM23.039 31.144C22.094 31.144 21.473 30.541 21.473 29.407V26.635H22.409V29.245C22.409 29.965 22.688 30.406 23.309 30.406C23.939 30.406 24.335 29.929 24.335 29.137V26.635H25.271V31H24.344V30.775C24.344 30.649 24.353 30.514 24.371 30.397C24.155 30.838 23.696 31.144 23.039 31.144ZM28.1304 31.144C26.9244 31.144 26.2044 30.505 26.1594 29.524H27.0954C27.1224 30.082 27.4824 30.433 28.1214 30.433C28.6704 30.433 29.0304 30.181 29.0304 29.794C29.0304 29.479 28.7874 29.299 28.2924 29.2L27.6984 29.083C26.8344 28.921 26.3124 28.498 26.3124 27.796C26.3124 27.049 27.0234 26.491 28.0584 26.491C29.1654 26.491 29.8494 27.049 29.8944 27.949H28.9584C28.9134 27.472 28.5714 27.202 28.0314 27.202C27.5634 27.202 27.2394 27.409 27.2394 27.751C27.2394 28.057 27.4554 28.21 27.9774 28.309L28.5804 28.426C29.3994 28.588 29.9484 28.975 29.9484 29.722C29.9484 30.532 29.2554 31.144 28.1304 31.144ZM32.6245 31.072C31.8325 31.072 31.2925 30.685 31.2925 29.713V27.391H30.3835V26.635H31.2925V25.123H32.2285V26.635H33.2185V27.391H32.2285V29.587C32.2285 30.073 32.4445 30.289 32.8675 30.289C32.9755 30.289 33.0835 30.28 33.2005 30.262V31.009C33.0655 31.045 32.8495 31.072 32.6245 31.072ZM35.9945 31.144C34.7075 31.144 33.8075 30.244 33.8075 28.822C33.8075 27.427 34.7165 26.491 35.9945 26.491C37.2815 26.491 38.1905 27.427 38.1905 28.822C38.1905 30.244 37.2815 31.144 35.9945 31.144ZM35.9945 30.415C36.7505 30.415 37.2365 29.794 37.2365 28.822C37.2365 27.832 36.7415 27.229 35.9945 27.229C35.2565 27.229 34.7615 27.832 34.7615 28.822C34.7615 29.794 35.2385 30.415 35.9945 30.415ZM39.1664 31V26.635H40.1024V26.905C40.1024 27.013 40.0934 27.13 40.0844 27.238C40.3184 26.833 40.7414 26.491 41.3534 26.491C41.9114 26.491 42.3704 26.842 42.5774 27.328C42.8564 26.86 43.3694 26.491 43.9994 26.491C44.8814 26.491 45.5114 27.112 45.5114 28.246V31H44.5754V28.399C44.5754 27.67 44.3324 27.229 43.7564 27.229C43.1804 27.229 42.8024 27.751 42.8024 28.426V31H41.8664V28.417C41.8664 27.679 41.6234 27.229 41.0564 27.229C40.4804 27.229 40.1024 27.742 40.1024 28.444V31H39.1664Z" fill="#464134"/>
<defs>
<clipPath id="clip0_51_6566">
<rect width="16" height="16" fill="white" transform="translate(22.2002 4)"/>
</clipPath>
</defs>
</svg>
