<svg width="61" height="37" viewBox="0 0 61 37" fill="none" xmlns="http://www.w3.org/2000/svg">
<g clip-path="url(#clip0_51_6561)">
<path d="M30.4001 5.33325L32.4601 9.50659L37.0667 10.1799L33.7334 13.4266L34.5201 18.0133L30.4001 15.8466L26.2801 18.0133L27.0667 13.4266L23.7334 10.1799L28.3401 9.50659L30.4001 5.33325Z" stroke="#464134" stroke-width="1.5" stroke-linecap="square" stroke-linejoin="round"/>
</g>
<path d="M12.5539 31V24.7H16.7929V25.537H13.5529V27.4H16.6309V28.246H13.5529V31H12.5539ZM18.8027 31.144C18.0107 31.144 17.2997 30.64 17.2997 29.803C17.2997 28.885 18.0197 28.516 18.8747 28.399L19.6577 28.282C19.9997 28.237 20.1167 28.111 20.1167 27.868C20.1167 27.481 19.8107 27.202 19.3247 27.202C18.7307 27.202 18.3977 27.526 18.3707 28.021H17.4167C17.4617 27.166 18.1457 26.491 19.2617 26.491C20.4677 26.491 21.0437 27.166 21.0437 28.282V31H20.1707V30.802C20.1707 30.667 20.1797 30.541 20.1887 30.406C19.9637 30.847 19.5047 31.144 18.8027 31.144ZM19.0097 30.442C19.6487 30.442 20.1347 29.992 20.1347 29.326V28.768C20.0627 28.858 19.9007 28.912 19.6397 28.957L19.1447 29.056C18.6317 29.155 18.2627 29.353 18.2627 29.776C18.2627 30.199 18.5957 30.442 19.0097 30.442ZM23.2731 31L21.6171 26.635H22.6251L23.6601 29.65C23.7321 29.839 23.7681 29.974 23.8131 30.145C23.8581 29.974 23.9031 29.839 23.9661 29.65L24.9831 26.635H25.9551L24.3261 31H23.2731ZM28.5038 31.144C27.2168 31.144 26.3168 30.244 26.3168 28.822C26.3168 27.427 27.2258 26.491 28.5038 26.491C29.7908 26.491 30.6998 27.427 30.6998 28.822C30.6998 30.244 29.7908 31.144 28.5038 31.144ZM28.5038 30.415C29.2598 30.415 29.7458 29.794 29.7458 28.822C29.7458 27.832 29.2508 27.229 28.5038 27.229C27.7658 27.229 27.2708 27.832 27.2708 28.822C27.2708 29.794 27.7478 30.415 28.5038 30.415ZM31.6757 31V26.635H32.6117V26.896L32.5937 27.391C32.8187 26.896 33.2507 26.491 33.9167 26.491C33.9887 26.491 34.0607 26.491 34.1327 26.509V27.418C34.0607 27.409 33.9797 27.391 33.8537 27.391C33.0977 27.391 32.6117 27.796 32.6117 28.759V31H31.6757ZM34.9364 31V26.635H35.8724V31H34.9364ZM34.8914 25.888V24.853H35.9174V25.888H34.8914ZM38.8623 31.072C38.0703 31.072 37.5303 30.685 37.5303 29.713V27.391H36.6213V26.635H37.5303V25.123H38.4663V26.635H39.4563V27.391H38.4663V29.587C38.4663 30.073 38.6823 30.289 39.1053 30.289C39.2133 30.289 39.3213 30.28 39.4383 30.262V31.009C39.3033 31.045 39.0873 31.072 38.8623 31.072ZM42.2143 31.144C40.9093 31.144 40.0453 30.316 40.0453 28.804C40.0453 27.445 40.9453 26.491 42.1783 26.491C43.4923 26.491 44.2393 27.409 44.2393 28.822V29.02H40.9903C41.0083 29.866 41.5123 30.415 42.2233 30.415C42.7273 30.415 43.1683 30.172 43.2583 29.614H44.2033C44.1133 30.442 43.4293 31.144 42.2143 31.144ZM43.2583 28.354C43.2493 27.67 42.8443 27.202 42.1693 27.202C41.5123 27.202 41.0623 27.697 40.9993 28.354H43.2583ZM46.8398 31.144C45.6338 31.144 44.9138 30.505 44.8688 29.524H45.8048C45.8318 30.082 46.1918 30.433 46.8308 30.433C47.3798 30.433 47.7398 30.181 47.7398 29.794C47.7398 29.479 47.4968 29.299 47.0018 29.2L46.4078 29.083C45.5438 28.921 45.0218 28.498 45.0218 27.796C45.0218 27.049 45.7328 26.491 46.7678 26.491C47.8748 26.491 48.5588 27.049 48.6038 27.949H47.6678C47.6228 27.472 47.2808 27.202 46.7408 27.202C46.2728 27.202 45.9488 27.409 45.9488 27.751C45.9488 28.057 46.1648 28.21 46.6868 28.309L47.2898 28.426C48.1088 28.588 48.6578 28.975 48.6578 29.722C48.6578 30.532 47.9648 31.144 46.8398 31.144Z" fill="#464134"/>
<defs>
<clipPath id="clip0_51_6561">
<rect width="16" height="16" fill="white" transform="translate(22.3999 4)"/>
</clipPath>
</defs>
</svg>
