<svg width="269" height="159" viewBox="0 0 269 159" fill="none" xmlns="http://www.w3.org/2000/svg">
<g clip-path="url(#clip0_3431_25143)">
<path d="M0 16C0 7.16344 7.16344 0 16 0H253C261.837 0 269 7.16344 269 16V143C269 151.837 261.837 159 253 159H16C7.16344 159 0 151.837 0 143V16Z" fill="#FAFAFA"/>
<path d="M26 9C16.6112 9 9 16.6112 9 26C9 35.3888 16.6112 43 26 43C35.3888 43 43 35.3888 43 26C43 16.6112 35.3888 9 26 9Z" fill="#DEDDFD"/>
<path d="M26 9C16.6112 9 9 16.6112 9 26C9 35.3888 16.6112 43 26 43C35.3888 43 43 35.3888 43 26C43 16.6112 35.3888 9 26 9Z" stroke="#FAFAFA" stroke-width="6"/>
<path d="M20 24H32M20 28H32M26 20V32M22.1333 20H29.8667C30.6134 20 30.9868 20 31.272 20.1453C31.5229 20.2732 31.7268 20.4771 31.8547 20.728C32 21.0132 32 21.3866 32 22.1333V29.8667C32 30.6134 32 30.9868 31.8547 31.272C31.7268 31.5229 31.5229 31.7268 31.272 31.8547C30.9868 32 30.6134 32 29.8667 32H22.1333C21.3866 32 21.0132 32 20.728 31.8547C20.4771 31.7268 20.2732 31.5229 20.1453 31.272C20 30.9868 20 30.6134 20 29.8667V22.1333C20 21.3866 20 21.0132 20.1453 20.728C20.2732 20.4771 20.4771 20.2732 20.728 20.1453C21.0132 20 21.3866 20 22.1333 20Z" stroke="#0E0E0E" stroke-width="1.5" stroke-linecap="square"/>
<path d="M221 21C221 18.7909 222.791 17 225 17H253C255.209 17 257 18.7909 257 21V31C257 33.2091 255.209 35 253 35H225C222.791 35 221 33.2091 221 31V21Z" fill="#B3F4C4"/>
<path d="M227.693 29V22.7H229.466L232.184 27.443C232.157 27.173 232.148 26.831 232.148 26.498V22.7H233.327V29H231.779L228.836 23.861C228.872 24.221 228.872 24.464 228.872 24.743V29H227.693ZM235.255 29V22.7H239.638V23.699H236.434V25.238H239.503V26.246H236.434V28.001H239.773V29H235.255ZM242.42 29L240.764 22.7H242.078L243.041 26.822C243.131 27.191 243.203 27.506 243.284 27.947C243.356 27.506 243.428 27.191 243.518 26.822L244.562 22.7H246.263L247.226 26.822C247.316 27.191 247.397 27.524 247.478 27.947C247.55 27.506 247.613 27.191 247.703 26.822L248.702 22.7H249.944L248.288 29H246.65L245.606 24.518C245.561 24.32 245.489 24.05 245.426 23.645C245.345 24.05 245.282 24.32 245.228 24.518L244.058 29H242.42Z" fill="#285535"/>
<path d="M13.078 68V58.2H16.004L18.496 65.284C18.608 65.62 18.692 65.9 18.748 66.18C18.818 65.9 18.874 65.62 19 65.284L21.394 58.2H24.292V68H22.528V61.406C22.528 60.902 22.528 60.426 22.556 60.006L19.868 68H17.628L14.786 60.006C14.814 60.44 14.828 60.902 14.828 61.406V68H13.078ZM28.5507 68.252C27.1787 68.252 26.1007 67.314 26.1007 65.508V61.168H27.8227V65.242C27.8227 66.194 28.2427 66.88 29.0687 66.88C29.9367 66.88 30.5527 66.236 30.5527 65.228V61.168H32.2607V68H30.5667V67.72C30.5667 67.51 30.5947 67.272 30.6367 67.062C30.2867 67.72 29.6847 68.252 28.5507 68.252ZM33.991 68V58.2H35.699V68H33.991ZM40.4604 68.126C39.0044 68.126 38.2344 67.398 38.2344 65.872V62.526H36.6804V61.168H38.2344V58.704H39.9424V61.168H41.6224V62.526H39.9424V65.62C39.9424 66.334 40.2224 66.754 40.9504 66.754C41.1184 66.754 41.3004 66.74 41.4684 66.712V68C41.3004 68.056 40.8944 68.126 40.4604 68.126ZM42.7684 68V61.168H44.4764V68H42.7684ZM42.7404 60.132V58.34H44.5184V60.132H42.7404ZM46.1157 65.48V63.744H49.7277V65.48H46.1157ZM54.4203 68.252C52.2503 68.252 50.9623 66.852 50.9623 64.584C50.9623 62.302 52.5163 60.944 54.5043 60.944C56.4923 60.944 57.5703 62.148 57.7383 63.744H56.0023C55.9463 62.974 55.4703 62.302 54.5043 62.302C53.5103 62.302 52.6983 63.114 52.6983 64.598C52.6983 65.956 53.4123 66.908 54.4623 66.908C55.4983 66.908 55.9883 66.208 56.0723 65.396H57.8083C57.5703 67.132 56.4503 68.252 54.4203 68.252ZM59.0516 68V58.2H60.7596V61.476C60.7596 61.672 60.7456 61.882 60.7036 62.148C61.0816 61.462 61.7256 60.944 62.8036 60.944C64.3156 60.944 65.2116 62.008 65.2116 63.688V68H63.5036V63.94C63.5036 62.932 63.0136 62.302 62.2156 62.302C61.3756 62.302 60.7596 63.044 60.7596 63.996V68H59.0516ZM68.8876 68.252C67.6976 68.252 66.5356 67.468 66.5356 66.124C66.5356 64.584 67.7256 64.052 69.1956 63.856L70.1756 63.73C70.7356 63.66 70.9316 63.45 70.9316 63.114C70.9316 62.638 70.5396 62.218 69.8116 62.218C69.0136 62.218 68.5096 62.666 68.4396 63.38H66.6756C66.7876 61.952 67.9496 60.944 69.7136 60.944C71.7996 60.944 72.6396 62.064 72.6396 63.982V68H71.0576V67.72C71.0576 67.496 71.0856 67.286 71.1276 67.062C70.7636 67.734 70.0636 68.252 68.8876 68.252ZM68.2716 66.054C68.2716 66.656 68.7476 66.992 69.3496 66.992C70.2596 66.992 70.9876 66.32 70.9876 65.354V64.612C70.8336 64.752 70.5956 64.822 70.1756 64.906L69.6156 65.018C68.8176 65.172 68.2716 65.438 68.2716 66.054ZM74.2957 68V61.168H76.0037V61.476C76.0037 61.672 75.9897 61.882 75.9477 62.148C76.3257 61.462 76.9697 60.944 78.0477 60.944C79.5597 60.944 80.4557 62.008 80.4557 63.688V68H78.7477V63.94C78.7477 62.932 78.2577 62.302 77.4597 62.302C76.6197 62.302 76.0037 63.044 76.0037 63.996V68H74.2957ZM82.1297 68V61.168H83.8377V61.476C83.8377 61.672 83.8237 61.882 83.7817 62.148C84.1597 61.462 84.8037 60.944 85.8817 60.944C87.3937 60.944 88.2897 62.008 88.2897 63.688V68H86.5817V63.94C86.5817 62.932 86.0917 62.302 85.2937 62.302C84.4537 62.302 83.8377 63.044 83.8377 63.996V68H82.1297ZM93.0577 68.252C91.0137 68.252 89.5717 66.936 89.5717 64.57C89.5717 62.414 91.0137 60.944 93.0017 60.944C95.0877 60.944 96.2917 62.4 96.2917 64.626V65.004H91.3217C91.3357 66.082 92.0217 66.908 93.0577 66.908C93.7997 66.908 94.4017 66.488 94.5137 65.774H96.2497C96.1097 67.174 94.9057 68.252 93.0577 68.252ZM91.3077 63.772H94.5417C94.5137 62.848 93.9117 62.218 92.9877 62.218C92.0637 62.218 91.4057 62.876 91.3077 63.772ZM97.661 68V58.2H99.369V68H97.661ZM108.484 68.252C105.572 68.252 103.71 66.362 103.71 63.03C103.71 59.88 105.81 57.948 108.582 57.948C110.976 57.948 112.698 59.32 112.95 61.644H111.046C110.864 60.37 110.024 59.502 108.582 59.502C106.846 59.502 105.6 60.832 105.6 63.03C105.6 65.312 106.832 66.698 108.54 66.698C109.996 66.698 110.962 65.76 111.158 64.458H112.992C112.754 66.726 111.116 68.252 108.484 68.252ZM116.233 68.252C115.043 68.252 113.881 67.468 113.881 66.124C113.881 64.584 115.071 64.052 116.541 63.856L117.521 63.73C118.081 63.66 118.277 63.45 118.277 63.114C118.277 62.638 117.885 62.218 117.157 62.218C116.359 62.218 115.855 62.666 115.785 63.38H114.021C114.133 61.952 115.295 60.944 117.059 60.944C119.145 60.944 119.985 62.064 119.985 63.982V68H118.403V67.72C118.403 67.496 118.431 67.286 118.473 67.062C118.109 67.734 117.409 68.252 116.233 68.252ZM115.617 66.054C115.617 66.656 116.093 66.992 116.695 66.992C117.605 66.992 118.333 66.32 118.333 65.354V64.612C118.179 64.752 117.941 64.822 117.521 64.906L116.961 65.018C116.163 65.172 115.617 65.438 115.617 66.054ZM121.641 68V61.168H123.349V61.476C123.349 61.686 123.335 61.924 123.293 62.148C123.629 61.546 124.259 60.944 125.267 60.944C126.121 60.944 126.807 61.602 127.059 62.218C127.451 61.56 128.277 60.944 129.271 60.944C130.657 60.944 131.623 62.036 131.623 63.702V68H129.915V63.954C129.915 62.96 129.523 62.302 128.781 62.302C128.039 62.302 127.479 62.988 127.479 64.024V68H125.771V63.954C125.771 62.96 125.407 62.302 124.637 62.302C123.895 62.302 123.349 62.96 123.349 64.024V68H121.641ZM133.304 70.856V61.168H135.012V61.476C135.012 61.686 134.998 61.868 134.956 62.148C135.39 61.42 136.118 60.944 137.196 60.944C139.002 60.944 140.192 62.456 140.192 64.626C140.192 66.838 138.862 68.252 137.126 68.252C135.978 68.252 135.39 67.762 134.956 67.062C134.998 67.342 135.012 67.524 135.012 67.72V70.856H133.304ZM134.942 64.598C134.942 65.97 135.67 66.908 136.706 66.908C137.756 66.908 138.456 65.97 138.456 64.598C138.456 63.254 137.798 62.302 136.706 62.302C135.684 62.302 134.942 63.184 134.942 64.598ZM143.536 68.252C142.346 68.252 141.184 67.468 141.184 66.124C141.184 64.584 142.374 64.052 143.844 63.856L144.824 63.73C145.384 63.66 145.58 63.45 145.58 63.114C145.58 62.638 145.188 62.218 144.46 62.218C143.662 62.218 143.158 62.666 143.088 63.38H141.324C141.436 61.952 142.598 60.944 144.362 60.944C146.448 60.944 147.288 62.064 147.288 63.982V68H145.706V67.72C145.706 67.496 145.734 67.286 145.776 67.062C145.412 67.734 144.712 68.252 143.536 68.252ZM142.92 66.054C142.92 66.656 143.396 66.992 143.998 66.992C144.908 66.992 145.636 66.32 145.636 65.354V64.612C145.482 64.752 145.244 64.822 144.824 64.906L144.264 65.018C143.466 65.172 142.92 65.438 142.92 66.054ZM148.944 68V61.168H150.652V68H148.944ZM148.916 60.132V58.34H150.694V60.132H148.916ZM155.469 71.108C153.453 71.108 152.305 70.03 152.305 68.476H154.041C154.069 69.288 154.587 69.764 155.511 69.764C156.407 69.764 157.163 69.232 157.163 68.21V67.468C157.163 67.16 157.177 66.88 157.219 66.614C156.813 67.23 156.155 67.748 155.091 67.748C153.313 67.748 152.025 66.502 152.025 64.346C152.025 62.218 153.509 60.944 155.007 60.944C156.211 60.944 156.813 61.434 157.219 62.148C157.177 61.91 157.163 61.728 157.163 61.476V61.168H158.871V67.79C158.871 70.03 157.485 71.108 155.469 71.108ZM153.761 64.346C153.761 65.536 154.489 66.39 155.525 66.39C156.533 66.39 157.261 65.536 157.261 64.346C157.261 63.156 156.533 62.302 155.525 62.302C154.489 62.302 153.761 63.156 153.761 64.346ZM160.606 68V61.168H162.314V61.476C162.314 61.672 162.3 61.882 162.258 62.148C162.636 61.462 163.28 60.944 164.358 60.944C165.87 60.944 166.766 62.008 166.766 63.688V68H165.058V63.94C165.058 62.932 164.568 62.302 163.77 62.302C162.93 62.302 162.314 63.044 162.314 63.996V68H160.606Z" fill="#0E0E0E"/>
<path d="M13.008 88V79.6H16.644C18.24 79.6 19.32 80.368 19.32 81.808C19.32 82.912 18.516 83.62 17.736 83.848C18.612 84.004 19.164 84.688 19.164 85.78V88H17.82V86.008C17.82 84.844 17.388 84.46 16.248 84.46H14.34V88H13.008ZM14.34 83.32H16.368C17.388 83.32 17.952 82.864 17.952 82.012C17.952 81.16 17.388 80.716 16.368 80.716H14.34V83.32ZM23.2584 88.192C21.5184 88.192 20.3664 87.088 20.3664 85.072C20.3664 83.26 21.5664 81.988 23.2104 81.988C24.9624 81.988 25.9584 83.212 25.9584 85.096V85.36H21.6264C21.6504 86.488 22.3224 87.22 23.2704 87.22C23.9424 87.22 24.5304 86.896 24.6504 86.152H25.9104C25.7904 87.256 24.8784 88.192 23.2584 88.192ZM21.6384 84.472H24.6504C24.6384 83.56 24.0984 82.936 23.1984 82.936C22.3224 82.936 21.7224 83.596 21.6384 84.472ZM28.9335 88.192C27.8775 88.192 26.9295 87.52 26.9295 86.404C26.9295 85.18 27.8895 84.688 29.0295 84.532L30.0735 84.376C30.5295 84.316 30.6855 84.148 30.6855 83.824C30.6855 83.308 30.2775 82.936 29.6295 82.936C28.8375 82.936 28.3935 83.368 28.3575 84.028H27.0855C27.1455 82.888 28.0575 81.988 29.5455 81.988C31.1535 81.988 31.9215 82.888 31.9215 84.376V88H30.7575V87.736C30.7575 87.556 30.7695 87.388 30.7815 87.208C30.4815 87.796 29.8695 88.192 28.9335 88.192ZM28.2135 86.368C28.2135 86.932 28.6575 87.256 29.2095 87.256C30.0615 87.256 30.7095 86.656 30.7095 85.768V85.024C30.6135 85.144 30.3975 85.216 30.0495 85.276L29.3895 85.408C28.7055 85.54 28.2135 85.804 28.2135 86.368ZM36.0442 88.192C34.3282 88.192 33.1282 87.076 33.1282 85.084C33.1282 83.188 34.4242 81.988 36.1042 81.988C37.6402 81.988 38.6122 82.912 38.7442 84.256H37.4722C37.4002 83.548 36.9322 82.972 36.0922 82.972C35.1082 82.972 34.4002 83.812 34.4002 85.084C34.4002 86.356 35.0722 87.22 36.0802 87.22C36.9562 87.22 37.4482 86.668 37.5442 85.912H38.7922C38.6362 87.28 37.7002 88.192 36.0442 88.192ZM39.9918 88V79.6H41.2398V82.456C41.2398 82.624 41.2398 82.792 41.2158 82.984C41.5398 82.42 42.1518 81.988 43.0038 81.988C44.3238 81.988 45.1038 82.864 45.1038 84.328V88H43.8558V84.496C43.8558 83.524 43.4598 82.972 42.6558 82.972C41.8038 82.972 41.2398 83.68 41.2398 84.544V88H39.9918ZM51.0351 88.192C49.9791 88.192 49.0311 87.52 49.0311 86.404C49.0311 85.18 49.9911 84.688 51.1311 84.532L52.1751 84.376C52.6311 84.316 52.7871 84.148 52.7871 83.824C52.7871 83.308 52.3791 82.936 51.7311 82.936C50.9391 82.936 50.4951 83.368 50.4591 84.028H49.1871C49.2471 82.888 50.1591 81.988 51.6471 81.988C53.2551 81.988 54.0231 82.888 54.0231 84.376V88H52.8591V87.736C52.8591 87.556 52.8711 87.388 52.8831 87.208C52.5831 87.796 51.9711 88.192 51.0351 88.192ZM50.3151 86.368C50.3151 86.932 50.7591 87.256 51.3111 87.256C52.1631 87.256 52.8111 86.656 52.8111 85.768V85.024C52.7151 85.144 52.4991 85.216 52.1511 85.276L51.4911 85.408C50.8071 85.54 50.3151 85.804 50.3151 86.368ZM55.5777 88V82.18H56.8257V82.504C56.8257 82.66 56.8137 82.804 56.8017 82.984C57.1137 82.444 57.7377 81.988 58.5897 81.988C59.9097 81.988 60.6897 82.864 60.6897 84.328V88H59.4417V84.496C59.4417 83.524 59.0577 82.972 58.2537 82.972C57.3897 82.972 56.8257 83.68 56.8257 84.544V88H55.5777ZM64.5854 88.192C63.0494 88.192 61.9094 87.112 61.9094 85.096C61.9094 83.176 63.0974 81.988 64.6094 81.988C65.5454 81.988 66.1454 82.48 66.4454 82.984C66.4214 82.804 66.4214 82.636 66.4214 82.468V79.6H67.6694V88H66.4214V87.712C66.4214 87.52 66.4214 87.364 66.4454 87.196C66.1694 87.676 65.5574 88.192 64.5854 88.192ZM63.1934 85.096C63.1934 86.38 63.8774 87.22 64.8494 87.22C65.7974 87.22 66.4934 86.368 66.4934 85.084C66.4934 83.8 65.8094 82.972 64.8494 82.972C63.8894 82.972 63.1934 83.836 63.1934 85.096ZM71.984 88V82.18H73.232V82.528C73.232 82.756 73.232 82.972 73.208 83.188C73.508 82.528 74.096 81.988 74.972 81.988C75.068 81.988 75.164 81.988 75.26 82.012V83.224C75.176 83.212 75.056 83.188 74.888 83.188C73.88 83.188 73.232 83.728 73.232 85.012V88H71.984ZM78.6764 88.192C76.9364 88.192 75.7844 87.088 75.7844 85.072C75.7844 83.26 76.9844 81.988 78.6284 81.988C80.3804 81.988 81.3764 83.212 81.3764 85.096V85.36H77.0444C77.0684 86.488 77.7404 87.22 78.6884 87.22C79.3604 87.22 79.9484 86.896 80.0684 86.152H81.3284C81.2084 87.256 80.2964 88.192 78.6764 88.192ZM77.0564 84.472H80.0684C80.0564 83.56 79.5164 82.936 78.6164 82.936C77.7404 82.936 77.1404 83.596 77.0564 84.472ZM84.8555 88.192C83.2475 88.192 82.2875 87.34 82.2275 86.032H83.4755C83.5115 86.776 83.9915 87.244 84.8435 87.244C85.5755 87.244 86.0555 86.908 86.0555 86.392C86.0555 85.972 85.7315 85.732 85.0715 85.6L84.2795 85.444C83.1275 85.228 82.4315 84.664 82.4315 83.728C82.4315 82.732 83.3795 81.988 84.7595 81.988C86.2355 81.988 87.1475 82.732 87.2075 83.932H85.9595C85.8995 83.296 85.4435 82.936 84.7235 82.936C84.0995 82.936 83.6675 83.212 83.6675 83.668C83.6675 84.076 83.9555 84.28 84.6515 84.412L85.4555 84.568C86.5475 84.784 87.2795 85.3 87.2795 86.296C87.2795 87.376 86.3555 88.192 84.8555 88.192ZM91.1457 88.192C89.4297 88.192 88.2297 86.992 88.2297 85.096C88.2297 83.236 89.4417 81.988 91.1457 81.988C92.8617 81.988 94.0737 83.236 94.0737 85.096C94.0737 86.992 92.8617 88.192 91.1457 88.192ZM89.5017 85.096C89.5017 86.392 90.1377 87.22 91.1457 87.22C92.1537 87.22 92.8017 86.392 92.8017 85.096C92.8017 83.776 92.1417 82.972 91.1457 82.972C90.1617 82.972 89.5017 83.776 89.5017 85.096ZM95.3629 88V82.18H96.6109V82.504C96.6109 82.66 96.5989 82.804 96.5869 82.984C96.8989 82.444 97.5229 81.988 98.3749 81.988C99.6949 81.988 100.475 82.864 100.475 84.328V88H99.2269V84.496C99.2269 83.524 98.8429 82.972 98.0389 82.972C97.1749 82.972 96.6109 83.68 96.6109 84.544V88H95.3629ZM103.723 88.192C102.667 88.192 101.719 87.52 101.719 86.404C101.719 85.18 102.679 84.688 103.819 84.532L104.863 84.376C105.319 84.316 105.475 84.148 105.475 83.824C105.475 83.308 105.067 82.936 104.419 82.936C103.627 82.936 103.183 83.368 103.147 84.028H101.875C101.935 82.888 102.847 81.988 104.335 81.988C105.943 81.988 106.711 82.888 106.711 84.376V88H105.547V87.736C105.547 87.556 105.559 87.388 105.571 87.208C105.271 87.796 104.659 88.192 103.723 88.192ZM103.003 86.368C103.003 86.932 103.447 87.256 103.999 87.256C104.851 87.256 105.499 86.656 105.499 85.768V85.024C105.403 85.144 105.187 85.216 104.839 85.276L104.179 85.408C103.495 85.54 103.003 85.804 103.003 86.368ZM110.535 88.096C109.479 88.096 108.759 87.58 108.759 86.284V83.188H107.547V82.18H108.759V80.164H110.007V82.18H111.327V83.188H110.007V86.116C110.007 86.764 110.295 87.052 110.859 87.052C111.003 87.052 111.147 87.04 111.303 87.016V88.012C111.123 88.06 110.835 88.096 110.535 88.096ZM114.958 88.192C113.218 88.192 112.066 87.088 112.066 85.072C112.066 83.26 113.266 81.988 114.91 81.988C116.662 81.988 117.658 83.212 117.658 85.096V85.36H113.326C113.35 86.488 114.022 87.22 114.97 87.22C115.642 87.22 116.23 86.896 116.35 86.152H117.61C117.49 87.256 116.578 88.192 114.958 88.192ZM113.338 84.472H116.35C116.338 83.56 115.798 82.936 114.898 82.936C114.022 82.936 113.422 83.596 113.338 84.472ZM122.613 88L120.777 82.18H122.085L123.249 86.308C123.297 86.488 123.345 86.68 123.381 86.872C123.429 86.668 123.477 86.476 123.525 86.308L124.641 82.18H126.261L127.413 86.308C127.461 86.476 127.509 86.656 127.545 86.86C127.593 86.656 127.629 86.476 127.689 86.296L128.841 82.18H130.065L128.265 88H126.765L125.589 83.812C125.553 83.656 125.505 83.464 125.457 83.236C125.421 83.464 125.373 83.644 125.313 83.812L124.149 88H122.613ZM131.035 88V82.18H132.283V88H131.035ZM130.987 81.184V79.804H132.343V81.184H130.987ZM136.246 88.096C135.19 88.096 134.47 87.58 134.47 86.284V83.188H133.258V82.18H134.47V80.164H135.718V82.18H137.038V83.188H135.718V86.116C135.718 86.764 136.006 87.052 136.57 87.052C136.714 87.052 136.858 87.04 137.014 87.016V88.012C136.834 88.06 136.546 88.096 136.246 88.096ZM138.195 88V79.6H139.443V82.456C139.443 82.624 139.443 82.792 139.419 82.984C139.743 82.42 140.355 81.988 141.207 81.988C142.527 81.988 143.307 82.864 143.307 84.328V88H142.059V84.496C142.059 83.524 141.663 82.972 140.859 82.972C140.007 82.972 139.443 83.68 139.443 84.544V88H138.195ZM149.238 88.192C148.182 88.192 147.234 87.52 147.234 86.404C147.234 85.18 148.194 84.688 149.334 84.532L150.378 84.376C150.834 84.316 150.99 84.148 150.99 83.824C150.99 83.308 150.582 82.936 149.934 82.936C149.142 82.936 148.698 83.368 148.662 84.028H147.39C147.45 82.888 148.362 81.988 149.85 81.988C151.458 81.988 152.226 82.888 152.226 84.376V88H151.062V87.736C151.062 87.556 151.074 87.388 151.086 87.208C150.786 87.796 150.174 88.192 149.238 88.192ZM148.518 86.368C148.518 86.932 148.962 87.256 149.514 87.256C150.366 87.256 151.014 86.656 151.014 85.768V85.024C150.918 85.144 150.702 85.216 150.354 85.276L149.694 85.408C149.01 85.54 148.518 85.804 148.518 86.368ZM155.809 88.192C154.549 88.192 153.721 87.388 153.721 85.876V82.18H154.969V85.66C154.969 86.62 155.341 87.208 156.169 87.208C157.009 87.208 157.537 86.572 157.537 85.516V82.18H158.785V88H157.549V87.7C157.549 87.532 157.561 87.352 157.585 87.196C157.297 87.784 156.685 88.192 155.809 88.192ZM162.742 88.192C161.206 88.192 160.066 87.112 160.066 85.096C160.066 83.176 161.254 81.988 162.766 81.988C163.702 81.988 164.302 82.48 164.602 82.984C164.578 82.804 164.578 82.636 164.578 82.468V79.6H165.826V88H164.578V87.712C164.578 87.52 164.578 87.364 164.602 87.196C164.326 87.676 163.714 88.192 162.742 88.192ZM161.35 85.096C161.35 86.38 162.034 87.22 163.006 87.22C163.954 87.22 164.65 86.368 164.65 85.084C164.65 83.8 163.966 82.972 163.006 82.972C162.046 82.972 161.35 83.836 161.35 85.096ZM167.457 88V82.18H168.705V88H167.457ZM167.409 81.184V79.804H168.765V81.184H167.409ZM172.883 88.192C171.143 88.192 169.991 87.088 169.991 85.072C169.991 83.26 171.191 81.988 172.835 81.988C174.587 81.988 175.583 83.212 175.583 85.096V85.36H171.251C171.275 86.488 171.947 87.22 172.895 87.22C173.567 87.22 174.155 86.896 174.275 86.152H175.535C175.415 87.256 174.503 88.192 172.883 88.192ZM171.263 84.472H174.275C174.263 83.56 173.723 82.936 172.823 82.936C171.947 82.936 171.347 83.596 171.263 84.472ZM176.879 88V82.18H178.127V82.504C178.127 82.66 178.115 82.804 178.103 82.984C178.415 82.444 179.039 81.988 179.891 81.988C181.211 81.988 181.991 82.864 181.991 84.328V88H180.743V84.496C180.743 83.524 180.359 82.972 179.555 82.972C178.691 82.972 178.127 83.68 178.127 84.544V88H176.879ZM186.126 88.192C184.41 88.192 183.21 87.076 183.21 85.084C183.21 83.188 184.506 81.988 186.186 81.988C187.722 81.988 188.694 82.912 188.826 84.256H187.554C187.482 83.548 187.014 82.972 186.174 82.972C185.19 82.972 184.482 83.812 184.482 85.084C184.482 86.356 185.154 87.22 186.162 87.22C187.038 87.22 187.53 86.668 187.626 85.912H188.874C188.718 87.28 187.782 88.192 186.126 88.192ZM192.618 88.192C190.878 88.192 189.726 87.088 189.726 85.072C189.726 83.26 190.926 81.988 192.57 81.988C194.322 81.988 195.318 83.212 195.318 85.096V85.36H190.986C191.01 86.488 191.682 87.22 192.63 87.22C193.302 87.22 193.89 86.896 194.01 86.152H195.27C195.15 87.256 194.238 88.192 192.618 88.192ZM190.998 84.472H194.01C193.998 83.56 193.458 82.936 192.558 82.936C191.682 82.936 191.082 83.596 190.998 84.472ZM198.797 88.192C197.189 88.192 196.229 87.34 196.169 86.032H197.417C197.453 86.776 197.933 87.244 198.785 87.244C199.517 87.244 199.997 86.908 199.997 86.392C199.997 85.972 199.673 85.732 199.013 85.6L198.221 85.444C197.069 85.228 196.373 84.664 196.373 83.728C196.373 82.732 197.321 81.988 198.701 81.988C200.177 81.988 201.089 82.732 201.149 83.932H199.901C199.841 83.296 199.385 82.936 198.665 82.936C198.041 82.936 197.609 83.212 197.609 83.668C197.609 84.076 197.897 84.28 198.593 84.412L199.397 84.568C200.489 84.784 201.221 85.3 201.221 86.296C201.221 87.376 200.297 88.192 198.797 88.192ZM15.144 104.096C14.088 104.096 13.368 103.58 13.368 102.284V99.188H12.156V98.18H13.368V96.164H14.616V98.18H15.936V99.188H14.616V102.116C14.616 102.764 14.904 103.052 15.468 103.052C15.612 103.052 15.756 103.04 15.912 103.016V104.012C15.732 104.06 15.444 104.096 15.144 104.096ZM17.0933 104V95.6H18.3413V98.456C18.3413 98.624 18.3413 98.792 18.3173 98.984C18.6413 98.42 19.2533 97.988 20.1053 97.988C21.4253 97.988 22.2053 98.864 22.2053 100.328V104H20.9573V100.496C20.9573 99.524 20.5613 98.972 19.7573 98.972C18.9053 98.972 18.3413 99.68 18.3413 100.544V104H17.0933ZM23.773 104V98.18H25.021V98.528C25.021 98.756 25.021 98.972 24.997 99.188C25.297 98.528 25.885 97.988 26.761 97.988C26.857 97.988 26.953 97.988 27.049 98.012V99.224C26.965 99.212 26.845 99.188 26.677 99.188C25.669 99.188 25.021 99.728 25.021 101.012V104H23.773ZM30.4895 104.192C28.7735 104.192 27.5735 102.992 27.5735 101.096C27.5735 99.236 28.7855 97.988 30.4895 97.988C32.2055 97.988 33.4175 99.236 33.4175 101.096C33.4175 102.992 32.2055 104.192 30.4895 104.192ZM28.8455 101.096C28.8455 102.392 29.4815 103.22 30.4895 103.22C31.4975 103.22 32.1455 102.392 32.1455 101.096C32.1455 99.776 31.4855 98.972 30.4895 98.972C29.5055 98.972 28.8455 99.776 28.8455 101.096ZM36.7346 104.192C35.4746 104.192 34.6466 103.388 34.6466 101.876V98.18H35.8946V101.66C35.8946 102.62 36.2666 103.208 37.0946 103.208C37.9346 103.208 38.4626 102.572 38.4626 101.516V98.18H39.7106V104H38.4746V103.7C38.4746 103.532 38.4866 103.352 38.5106 103.196C38.2226 103.784 37.6106 104.192 36.7346 104.192ZM43.8714 106.664C42.2394 106.664 41.2554 105.776 41.2554 104.48H42.5034C42.5154 105.212 43.0314 105.692 43.8954 105.692C44.8194 105.692 45.4674 105.176 45.4674 104.12V103.448C45.4674 103.256 45.4794 103.076 45.4914 102.896C45.1674 103.448 44.5194 103.856 43.6314 103.856C42.0714 103.856 41.0034 102.752 41.0034 100.928C41.0034 99.128 42.2154 97.988 43.6194 97.988C44.6154 97.988 45.1674 98.444 45.4914 98.984C45.4794 98.816 45.4674 98.648 45.4674 98.468V98.18H46.7154V103.76C46.7154 105.716 45.6594 106.664 43.8714 106.664ZM42.2874 100.928C42.2874 102.092 42.9594 102.872 43.9194 102.872C44.8674 102.872 45.5514 102.08 45.5514 100.928C45.5514 99.788 44.8674 98.972 43.9194 98.972C42.9594 98.972 42.2874 99.776 42.2874 100.928ZM48.3473 104V95.6H49.5953V98.456C49.5953 98.624 49.5953 98.792 49.5713 98.984C49.8953 98.42 50.5073 97.988 51.3593 97.988C52.6793 97.988 53.4593 98.864 53.4593 100.328V104H52.2113V100.496C52.2113 99.524 51.8153 98.972 51.0113 98.972C50.1593 98.972 49.5953 99.68 49.5953 100.544V104H48.3473ZM59.3905 104.192C58.3345 104.192 57.3865 103.52 57.3865 102.404C57.3865 101.18 58.3465 100.688 59.4865 100.532L60.5305 100.376C60.9865 100.316 61.1425 100.148 61.1425 99.824C61.1425 99.308 60.7345 98.936 60.0865 98.936C59.2945 98.936 58.8505 99.368 58.8145 100.028H57.5425C57.6025 98.888 58.5145 97.988 60.0025 97.988C61.6105 97.988 62.3785 98.888 62.3785 100.376V104H61.2145V103.736C61.2145 103.556 61.2265 103.388 61.2385 103.208C60.9385 103.796 60.3265 104.192 59.3905 104.192ZM58.6705 102.368C58.6705 102.932 59.1145 103.256 59.6665 103.256C60.5185 103.256 61.1665 102.656 61.1665 101.768V101.024C61.0705 101.144 60.8545 101.216 60.5065 101.276L59.8465 101.408C59.1625 101.54 58.6705 101.804 58.6705 102.368ZM63.9332 104V98.18H65.1812V98.504C65.1812 98.66 65.1692 98.804 65.1572 98.984C65.4692 98.444 66.0932 97.988 66.9452 97.988C68.2652 97.988 69.0452 98.864 69.0452 100.328V104H67.7972V100.496C67.7972 99.524 67.4132 98.972 66.6092 98.972C65.7452 98.972 65.1812 99.68 65.1812 100.544V104H63.9332ZM73.2965 104V98.18H74.5445V104H73.2965ZM73.2485 97.184V95.804H74.6045V97.184H73.2485ZM76.1793 104V98.18H77.4273V98.504C77.4273 98.66 77.4153 98.804 77.4033 98.984C77.7153 98.444 78.3393 97.988 79.1913 97.988C80.5113 97.988 81.2913 98.864 81.2913 100.328V104H80.0433V100.496C80.0433 99.524 79.6593 98.972 78.8553 98.972C77.9913 98.972 77.4273 99.68 77.4273 100.544V104H76.1793ZM85.1284 104.096C84.0724 104.096 83.3524 103.58 83.3524 102.284V99.188H82.1404V98.18H83.3524V96.164H84.6004V98.18H85.9204V99.188H84.6004V102.116C84.6004 102.764 84.8884 103.052 85.4524 103.052C85.5964 103.052 85.7404 103.04 85.8964 103.016V104.012C85.7164 104.06 85.4284 104.096 85.1284 104.096ZM89.5514 104.192C87.8114 104.192 86.6594 103.088 86.6594 101.072C86.6594 99.26 87.8594 97.988 89.5034 97.988C91.2554 97.988 92.2514 99.212 92.2514 101.096V101.36H87.9194C87.9434 102.488 88.6154 103.22 89.5634 103.22C90.2354 103.22 90.8234 102.896 90.9434 102.152H92.2034C92.0834 103.256 91.1714 104.192 89.5514 104.192ZM87.9314 100.472H90.9434C90.9314 99.56 90.3914 98.936 89.4914 98.936C88.6154 98.936 88.0154 99.596 87.9314 100.472ZM96.0785 106.664C94.4465 106.664 93.4625 105.776 93.4625 104.48H94.7105C94.7225 105.212 95.2385 105.692 96.1025 105.692C97.0265 105.692 97.6745 105.176 97.6745 104.12V103.448C97.6745 103.256 97.6865 103.076 97.6985 102.896C97.3745 103.448 96.7265 103.856 95.8385 103.856C94.2785 103.856 93.2105 102.752 93.2105 100.928C93.2105 99.128 94.4225 97.988 95.8265 97.988C96.8225 97.988 97.3745 98.444 97.6985 98.984C97.6865 98.816 97.6745 98.648 97.6745 98.468V98.18H98.9225V103.76C98.9225 105.716 97.8665 106.664 96.0785 106.664ZM94.4945 100.928C94.4945 102.092 95.1665 102.872 96.1265 102.872C97.0745 102.872 97.7585 102.08 97.7585 100.928C97.7585 99.788 97.0745 98.972 96.1265 98.972C95.1665 98.972 94.4945 99.776 94.4945 100.928ZM100.554 104V98.18H101.802V98.528C101.802 98.756 101.802 98.972 101.778 99.188C102.078 98.528 102.666 97.988 103.542 97.988C103.638 97.988 103.734 97.988 103.83 98.012V99.224C103.746 99.212 103.626 99.188 103.458 99.188C102.45 99.188 101.802 99.728 101.802 101.012V104H100.554ZM106.394 104.192C105.338 104.192 104.39 103.52 104.39 102.404C104.39 101.18 105.35 100.688 106.49 100.532L107.534 100.376C107.99 100.316 108.146 100.148 108.146 99.824C108.146 99.308 107.738 98.936 107.09 98.936C106.298 98.936 105.854 99.368 105.818 100.028H104.546C104.606 98.888 105.518 97.988 107.006 97.988C108.614 97.988 109.382 98.888 109.382 100.376V104H108.218V103.736C108.218 103.556 108.23 103.388 108.242 103.208C107.942 103.796 107.33 104.192 106.394 104.192ZM105.674 102.368C105.674 102.932 106.118 103.256 106.67 103.256C107.522 103.256 108.17 102.656 108.17 101.768V101.024C108.074 101.144 107.858 101.216 107.51 101.276L106.85 101.408C106.166 101.54 105.674 101.804 105.674 102.368ZM113.207 104.096C112.151 104.096 111.431 103.58 111.431 102.284V99.188H110.219V98.18H111.431V96.164H112.679V98.18H113.999V99.188H112.679V102.116C112.679 102.764 112.967 103.052 113.531 103.052C113.675 103.052 113.819 103.04 113.975 103.016V104.012C113.795 104.06 113.507 104.096 113.207 104.096ZM117.63 104.192C115.89 104.192 114.738 103.088 114.738 101.072C114.738 99.26 115.938 97.988 117.582 97.988C119.334 97.988 120.33 99.212 120.33 101.096V101.36H115.998C116.022 102.488 116.694 103.22 117.642 103.22C118.314 103.22 118.902 102.896 119.022 102.152H120.282C120.162 103.256 119.25 104.192 117.63 104.192ZM116.01 100.472H119.022C119.01 99.56 118.47 98.936 117.57 98.936C116.694 98.936 116.094 99.596 116.01 100.472ZM123.953 104.192C122.417 104.192 121.277 103.112 121.277 101.096C121.277 99.176 122.465 97.988 123.977 97.988C124.913 97.988 125.513 98.48 125.813 98.984C125.789 98.804 125.789 98.636 125.789 98.468V95.6H127.037V104H125.789V103.712C125.789 103.52 125.789 103.364 125.813 103.196C125.537 103.676 124.925 104.192 123.953 104.192ZM122.561 101.096C122.561 102.38 123.245 103.22 124.217 103.22C125.165 103.22 125.861 102.368 125.861 101.084C125.861 99.8 125.177 98.972 124.217 98.972C123.257 98.972 122.561 99.836 122.561 101.096ZM131.351 104V98.18H132.599V98.54C132.599 98.684 132.599 98.84 132.575 98.984C132.899 98.444 133.463 97.988 134.267 97.988C135.011 97.988 135.635 98.456 135.911 99.104C136.271 98.48 136.955 97.988 137.795 97.988C138.971 97.988 139.823 98.816 139.823 100.328V104H138.575V100.532C138.575 99.56 138.239 98.972 137.483 98.972C136.703 98.972 136.211 99.668 136.211 100.568V104H134.963V100.556C134.963 99.572 134.639 98.972 133.883 98.972C133.115 98.972 132.599 99.656 132.599 100.592V104H131.351ZM143.074 104.192C142.018 104.192 141.07 103.52 141.07 102.404C141.07 101.18 142.03 100.688 143.17 100.532L144.214 100.376C144.67 100.316 144.826 100.148 144.826 99.824C144.826 99.308 144.418 98.936 143.77 98.936C142.978 98.936 142.534 99.368 142.498 100.028H141.226C141.286 98.888 142.198 97.988 143.686 97.988C145.294 97.988 146.062 98.888 146.062 100.376V104H144.898V103.736C144.898 103.556 144.91 103.388 144.922 103.208C144.622 103.796 144.01 104.192 143.074 104.192ZM142.354 102.368C142.354 102.932 142.798 103.256 143.35 103.256C144.202 103.256 144.85 102.656 144.85 101.768V101.024C144.754 101.144 144.538 101.216 144.19 101.276L143.53 101.408C142.846 101.54 142.354 101.804 142.354 102.368ZM147.617 104V98.18H148.865V98.528C148.865 98.756 148.865 98.972 148.841 99.188C149.141 98.528 149.729 97.988 150.605 97.988C150.701 97.988 150.797 97.988 150.893 98.012V99.224C150.809 99.212 150.689 99.188 150.521 99.188C149.513 99.188 148.865 99.728 148.865 101.012V104H147.617ZM151.882 104V95.6H153.13V100.568C153.262 100.4 153.43 100.22 153.574 100.076L155.398 98.18H156.994L154.522 100.652L157.246 104H155.614L153.682 101.492L153.13 102.044V104H151.882ZM160.262 104.192C158.522 104.192 157.37 103.088 157.37 101.072C157.37 99.26 158.57 97.988 160.214 97.988C161.966 97.988 162.962 99.212 162.962 101.096V101.36H158.63C158.654 102.488 159.326 103.22 160.274 103.22C160.946 103.22 161.534 102.896 161.654 102.152H162.914C162.794 103.256 161.882 104.192 160.262 104.192ZM158.642 100.472H161.654C161.642 99.56 161.102 98.936 160.202 98.936C159.326 98.936 158.726 99.596 158.642 100.472ZM166.492 104.096C165.436 104.096 164.716 103.58 164.716 102.284V99.188H163.504V98.18H164.716V96.164H165.964V98.18H167.284V99.188H165.964V102.116C165.964 102.764 166.252 103.052 166.816 103.052C166.96 103.052 167.104 103.04 167.26 103.016V104.012C167.08 104.06 166.792 104.096 166.492 104.096ZM168.441 104V98.18H169.689V104H168.441ZM168.393 97.184V95.804H169.749V97.184H168.393ZM171.324 104V98.18H172.572V98.504C172.572 98.66 172.56 98.804 172.548 98.984C172.86 98.444 173.484 97.988 174.336 97.988C175.656 97.988 176.436 98.864 176.436 100.328V104H175.188V100.496C175.188 99.524 174.804 98.972 174 98.972C173.136 98.972 172.572 99.68 172.572 100.544V104H171.324ZM180.536 106.664C178.904 106.664 177.92 105.776 177.92 104.48H179.168C179.18 105.212 179.696 105.692 180.56 105.692C181.484 105.692 182.132 105.176 182.132 104.12V103.448C182.132 103.256 182.144 103.076 182.156 102.896C181.832 103.448 181.184 103.856 180.296 103.856C178.736 103.856 177.668 102.752 177.668 100.928C177.668 99.128 178.88 97.988 180.284 97.988C181.28 97.988 181.832 98.444 182.156 98.984C182.144 98.816 182.132 98.648 182.132 98.468V98.18H183.38V103.76C183.38 105.716 182.324 106.664 180.536 106.664ZM178.951 100.928C178.951 102.092 179.624 102.872 180.584 102.872C181.532 102.872 182.216 102.08 182.216 100.928C182.216 99.788 181.532 98.972 180.584 98.972C179.624 98.972 178.951 99.776 178.951 100.928ZM189.375 104.192C188.319 104.192 187.371 103.52 187.371 102.404C187.371 101.18 188.331 100.688 189.471 100.532L190.515 100.376C190.971 100.316 191.127 100.148 191.127 99.824C191.127 99.308 190.719 98.936 190.071 98.936C189.279 98.936 188.835 99.368 188.799 100.028H187.527C187.587 98.888 188.499 97.988 189.987 97.988C191.595 97.988 192.363 98.888 192.363 100.376V104H191.199V103.736C191.199 103.556 191.211 103.388 191.223 103.208C190.923 103.796 190.311 104.192 189.375 104.192ZM188.655 102.368C188.655 102.932 189.099 103.256 189.651 103.256C190.503 103.256 191.151 102.656 191.151 101.768V101.024C191.055 101.144 190.839 101.216 190.491 101.276L189.831 101.408C189.147 101.54 188.655 101.804 188.655 102.368ZM193.918 106.472V98.18H195.166V98.516C195.166 98.672 195.166 98.816 195.142 98.996C195.49 98.42 196.162 97.988 197.062 97.988C198.67 97.988 199.678 99.284 199.678 101.096C199.678 102.968 198.562 104.192 197.014 104.192C196.114 104.192 195.514 103.784 195.142 103.196C195.166 103.388 195.166 103.544 195.166 103.712V106.472H193.918ZM195.106 101.084C195.106 102.356 195.79 103.22 196.762 103.22C197.746 103.22 198.394 102.344 198.394 101.084C198.394 99.848 197.758 98.972 196.762 98.972C195.802 98.972 195.106 99.788 195.106 101.084ZM200.949 106.472V98.18H202.197V98.516C202.197 98.672 202.197 98.816 202.173 98.996C202.521 98.42 203.193 97.988 204.093 97.988C205.701 97.988 206.709 99.284 206.709 101.096C206.709 102.968 205.593 104.192 204.045 104.192C203.145 104.192 202.545 103.784 202.173 103.196C202.197 103.388 202.197 103.544 202.197 103.712V106.472H200.949ZM202.137 101.084C202.137 102.356 202.821 103.22 203.793 103.22C204.777 103.22 205.425 102.344 205.425 101.084C205.425 99.848 204.789 98.972 203.793 98.972C202.833 98.972 202.137 99.788 202.137 101.084ZM207.98 104V98.18H209.228V98.528C209.228 98.756 209.228 98.972 209.204 99.188C209.504 98.528 210.092 97.988 210.968 97.988C211.064 97.988 211.16 97.988 211.256 98.012V99.224C211.172 99.212 211.052 99.188 210.884 99.188C209.876 99.188 209.228 99.728 209.228 101.012V104H207.98ZM214.697 104.192C212.981 104.192 211.781 102.992 211.781 101.096C211.781 99.236 212.993 97.988 214.697 97.988C216.413 97.988 217.625 99.236 217.625 101.096C217.625 102.992 216.413 104.192 214.697 104.192ZM213.053 101.096C213.053 102.392 213.689 103.22 214.697 103.22C215.705 103.22 216.353 102.392 216.353 101.096C216.353 99.776 215.693 98.972 214.697 98.972C213.713 98.972 213.053 99.776 213.053 101.096ZM220.594 104.192C219.538 104.192 218.59 103.52 218.59 102.404C218.59 101.18 219.55 100.688 220.69 100.532L221.734 100.376C222.19 100.316 222.346 100.148 222.346 99.824C222.346 99.308 221.938 98.936 221.29 98.936C220.498 98.936 220.054 99.368 220.018 100.028H218.746C218.806 98.888 219.718 97.988 221.206 97.988C222.814 97.988 223.582 98.888 223.582 100.376V104H222.418V103.736C222.418 103.556 222.43 103.388 222.442 103.208C222.142 103.796 221.53 104.192 220.594 104.192ZM219.874 102.368C219.874 102.932 220.318 103.256 220.87 103.256C221.722 103.256 222.37 102.656 222.37 101.768V101.024C222.274 101.144 222.058 101.216 221.71 101.276L221.05 101.408C220.366 101.54 219.874 101.804 219.874 102.368ZM227.704 104.192C225.988 104.192 224.788 103.076 224.788 101.084C224.788 99.188 226.084 97.988 227.764 97.988C229.3 97.988 230.272 98.912 230.404 100.256H229.132C229.06 99.548 228.592 98.972 227.752 98.972C226.768 98.972 226.06 99.812 226.06 101.084C226.06 102.356 226.732 103.22 227.74 103.22C228.616 103.22 229.108 102.668 229.204 101.912H230.452C230.296 103.28 229.36 104.192 227.704 104.192ZM231.652 104V95.6H232.9V98.456C232.9 98.624 232.9 98.792 232.876 98.984C233.2 98.42 233.812 97.988 234.664 97.988C235.984 97.988 236.764 98.864 236.764 100.328V104H235.516V100.496C235.516 99.524 235.12 98.972 234.316 98.972C233.464 98.972 232.9 99.68 232.9 100.544V104H231.652Z" fill="#464134"/>
<path d="M16.3753 138.417H14.6837C14.357 138.417 14.1936 138.417 14.0688 138.48C13.9591 138.536 13.8698 138.625 13.8139 138.735C13.7503 138.86 13.7503 139.023 13.7503 139.35V144.25M21.6253 138.417H23.317C23.6437 138.417 23.807 138.417 23.9318 138.48C24.0416 138.536 24.1308 138.625 24.1867 138.735C24.2503 138.86 24.2503 139.023 24.2503 139.35V144.25M21.6253 144.25V135.617C21.6253 134.963 21.6253 134.637 21.4982 134.387C21.3863 134.167 21.2078 133.989 20.9883 133.877C20.7388 133.75 20.4121 133.75 19.7587 133.75H18.242C17.5886 133.75 17.2619 133.75 17.0123 133.877C16.7928 133.989 16.6143 134.167 16.5025 134.387C16.3753 134.637 16.3753 134.963 16.3753 135.617V144.25M24.8337 144.25H13.167M18.417 136.083H19.5837M18.417 138.417H19.5837M18.417 140.75H19.5837" stroke="#464134" stroke-width="1.25" stroke-linecap="square"/>
<path d="M31.008 143V134.6H36.66V135.716H32.34V138.116H36.468V139.256H32.34V141.872H36.816V143H31.008ZM38.1754 143V137.18H39.4234V137.504C39.4234 137.66 39.4114 137.804 39.3994 137.984C39.7114 137.444 40.3354 136.988 41.1874 136.988C42.5074 136.988 43.2874 137.864 43.2874 139.328V143H42.0394V139.496C42.0394 138.524 41.6554 137.972 40.8514 137.972C39.9874 137.972 39.4234 138.68 39.4234 139.544V143H38.1754ZM47.1245 143.096C46.0685 143.096 45.3485 142.58 45.3485 141.284V138.188H44.1365V137.18H45.3485V135.164H46.5965V137.18H47.9165V138.188H46.5965V141.116C46.5965 141.764 46.8845 142.052 47.4485 142.052C47.5925 142.052 47.7365 142.04 47.8925 142.016V143.012C47.7125 143.06 47.4245 143.096 47.1245 143.096ZM51.5475 143.192C49.8075 143.192 48.6555 142.088 48.6555 140.072C48.6555 138.26 49.8555 136.988 51.4995 136.988C53.2515 136.988 54.2475 138.212 54.2475 140.096V140.36H49.9155C49.9395 141.488 50.6115 142.22 51.5595 142.22C52.2315 142.22 52.8195 141.896 52.9395 141.152H54.1995C54.0795 142.256 53.1675 143.192 51.5475 143.192ZM49.9275 139.472H52.9395C52.9275 138.56 52.3875 137.936 51.4875 137.936C50.6115 137.936 50.0115 138.596 49.9275 139.472ZM55.5426 143V137.18H56.7906V137.528C56.7906 137.756 56.7906 137.972 56.7666 138.188C57.0666 137.528 57.6546 136.988 58.5306 136.988C58.6266 136.988 58.7226 136.988 58.8186 137.012V138.224C58.7346 138.212 58.6146 138.188 58.4466 138.188C57.4386 138.188 56.7906 138.728 56.7906 140.012V143H55.5426ZM59.8082 145.472V137.18H61.0562V137.516C61.0562 137.672 61.0562 137.816 61.0322 137.996C61.3802 137.42 62.0522 136.988 62.9522 136.988C64.5602 136.988 65.5682 138.284 65.5682 140.096C65.5682 141.968 64.4522 143.192 62.9042 143.192C62.0042 143.192 61.4042 142.784 61.0322 142.196C61.0562 142.388 61.0562 142.544 61.0562 142.712V145.472H59.8082ZM60.9962 140.084C60.9962 141.356 61.6802 142.22 62.6522 142.22C63.6362 142.22 64.2842 141.344 64.2842 140.084C64.2842 138.848 63.6482 137.972 62.6522 137.972C61.6922 137.972 60.9962 138.788 60.9962 140.084ZM66.8394 143V137.18H68.0874V137.528C68.0874 137.756 68.0874 137.972 68.0634 138.188C68.3634 137.528 68.9514 136.988 69.8274 136.988C69.9234 136.988 70.0194 136.988 70.1154 137.012V138.224C70.0314 138.212 69.9114 138.188 69.7434 138.188C68.7354 138.188 68.0874 138.728 68.0874 140.012V143H66.8394ZM71.1051 143V137.18H72.3531V143H71.1051ZM71.0571 136.184V134.804H72.4131V136.184H71.0571ZM76.1719 143.192C74.5639 143.192 73.6039 142.34 73.5439 141.032H74.7919C74.8279 141.776 75.3079 142.244 76.1599 142.244C76.8919 142.244 77.3719 141.908 77.3719 141.392C77.3719 140.972 77.0479 140.732 76.3879 140.6L75.5959 140.444C74.4439 140.228 73.7479 139.664 73.7479 138.728C73.7479 137.732 74.6959 136.988 76.0759 136.988C77.5519 136.988 78.4639 137.732 78.5239 138.932H77.2759C77.2159 138.296 76.7599 137.936 76.0399 137.936C75.4159 137.936 74.9839 138.212 74.9839 138.668C74.9839 139.076 75.2719 139.28 75.9679 139.412L76.7719 139.568C77.8639 139.784 78.5959 140.3 78.5959 141.296C78.5959 142.376 77.6719 143.192 76.1719 143.192ZM82.4381 143.192C80.6981 143.192 79.5461 142.088 79.5461 140.072C79.5461 138.26 80.7461 136.988 82.3901 136.988C84.1421 136.988 85.1381 138.212 85.1381 140.096V140.36H80.8061C80.8301 141.488 81.5021 142.22 82.4501 142.22C83.1221 142.22 83.7101 141.896 83.8301 141.152H85.0901C84.9701 142.256 84.0581 143.192 82.4381 143.192ZM80.8181 139.472H83.8301C83.8181 138.56 83.2781 137.936 82.3781 137.936C81.5021 137.936 80.9021 138.596 80.8181 139.472ZM91.6848 143.192C89.9688 143.192 88.7688 141.992 88.7688 140.096C88.7688 138.236 89.9808 136.988 91.6848 136.988C93.4008 136.988 94.6128 138.236 94.6128 140.096C94.6128 141.992 93.4008 143.192 91.6848 143.192ZM90.0408 140.096C90.0408 141.392 90.6768 142.22 91.6848 142.22C92.6928 142.22 93.3408 141.392 93.3408 140.096C93.3408 138.776 92.6808 137.972 91.6848 137.972C90.7008 137.972 90.0408 138.776 90.0408 140.096ZM95.9019 143V137.18H97.1499V137.504C97.1499 137.66 97.1379 137.804 97.1259 137.984C97.4379 137.444 98.0619 136.988 98.9139 136.988C100.234 136.988 101.014 137.864 101.014 139.328V143H99.7659V139.496C99.7659 138.524 99.3819 137.972 98.5779 137.972C97.7139 137.972 97.1499 138.68 97.1499 139.544V143H95.9019ZM102.582 143V134.6H103.83V143H102.582ZM106.064 145.472L107.072 142.868L104.768 137.18H106.16L107.504 140.912C107.576 141.128 107.66 141.356 107.732 141.62C107.804 141.356 107.876 141.128 107.948 140.912L109.184 137.18H110.492L107.396 145.472H106.064Z" fill="#464134"/>
</g>
<path d="M0.5 16C0.5 7.43958 7.43959 0.5 16 0.5H253C261.56 0.5 268.5 7.43959 268.5 16V143C268.5 151.56 261.56 158.5 253 158.5H16C7.43958 158.5 0.5 151.56 0.5 143V16Z" stroke="#EEECE8"/>
<defs>
<clipPath id="clip0_3431_25143">
<path d="M0 16C0 7.16344 7.16344 0 16 0H253C261.837 0 269 7.16344 269 16V143C269 151.837 261.837 159 253 159H16C7.16344 159 0 151.837 0 143V16Z" fill="white"/>
</clipPath>
</defs>
</svg>
