<svg width="269" height="159" viewBox="0 0 269 159" fill="none" xmlns="http://www.w3.org/2000/svg">
<g clip-path="url(#clip0_3431_25165)">
<path d="M0 16C0 7.16344 7.16344 0 16 0H253C261.837 0 269 7.16344 269 16V143C269 151.837 261.837 159 253 159H16C7.16344 159 0 151.837 0 143V16Z" fill="#FAFAFA"/>
<path d="M26 9C16.6112 9 9 16.6112 9 26C9 35.3888 16.6112 43 26 43C35.3888 43 43 35.3888 43 26C43 16.6112 35.3888 9 26 9Z" fill="#DEDDFD"/>
<path d="M26 9C16.6112 9 9 16.6112 9 26C9 35.3888 16.6112 43 26 43C35.3888 43 43 35.3888 43 26C43 16.6112 35.3888 9 26 9Z" stroke="#FAFAFA" stroke-width="6"/>
<g clip-path="url(#clip1_3431_25165)">
<g opacity="0.12">
<path d="M21.7165 31.5325L21.0281 28.7789C20.9062 28.2913 20.8453 28.0475 20.9075 27.8625C20.962 27.7006 21.0766 27.5658 21.2277 27.4859C21.4002 27.3946 21.6506 27.4155 22.1515 27.4572L23.6887 27.5853C24.0337 27.6141 24.2062 27.6285 24.3368 27.7049C24.4518 27.7721 24.544 27.8723 24.6015 27.9925C24.6668 28.129 24.6668 28.3021 24.6668 28.6483V31.1694C24.6668 31.3218 24.6668 31.398 24.6605 31.4622C24.599 32.0968 24.0967 32.5991 23.4621 32.6606C23.3979 32.6668 23.3217 32.6668 23.1693 32.6668C23.0476 32.6668 22.9867 32.6668 22.9324 32.6624C22.4024 32.619 21.9489 32.2649 21.7783 31.7612C21.7608 31.7097 21.746 31.6506 21.7165 31.5325Z" fill="#2F2B23"/>
<path d="M30.3334 27.0002C31.6221 27.0002 32.6668 25.9555 32.6668 24.6668C32.6668 23.3782 31.6221 22.3335 30.3334 22.3335V27.0002Z" fill="#2F2B23"/>
</g>
<path d="M21.3939 27.1516C21.2935 26.7497 20.8863 26.5054 20.4844 26.6059C20.0826 26.7064 19.8383 27.1136 19.9387 27.5154L21.3939 27.1516ZM21.7161 31.5325L20.9885 31.7144L21.7161 31.5325ZM25.4163 27.6668C25.4163 27.2526 25.0806 26.9168 24.6663 26.9168C24.2521 26.9168 23.9163 27.2526 23.9163 27.6668H25.4163ZM23.4617 32.6606L23.3893 31.9141H23.3893L23.4617 32.6606ZM24.6601 31.4622L23.9136 31.3898V31.3898L24.6601 31.4622ZM21.7779 31.7612L21.0675 32.0019L21.7779 31.7612ZM22.932 32.6624L22.9932 31.9149H22.9932L22.932 32.6624ZM30.333 26.2502H29.583V27.7502H30.333V26.2502ZM30.333 21.5835H29.583V23.0835H30.333V21.5835ZM30.333 30.0002L29.8944 30.6085C30.1227 30.7732 30.4241 30.7961 30.6747 30.6678C30.9253 30.5395 31.083 30.2817 31.083 30.0002H30.333ZM30.333 19.3335H31.083C31.083 19.052 30.9253 18.7941 30.6747 18.6659C30.4241 18.5376 30.1227 18.5605 29.8944 18.7252L30.333 19.3335ZM19.333 24.6668L20.083 24.6668L19.333 24.6668ZM19.9387 27.5154L20.9885 31.7144L22.4437 31.3506L21.3939 27.1516L19.9387 27.5154ZM25.4163 31.1694V27.6668H23.9163V31.1694H25.4163ZM23.1689 33.4168C23.3037 33.4168 23.4247 33.4177 23.5341 33.4071L23.3893 31.9141C23.3703 31.9159 23.3389 31.9168 23.1689 31.9168V33.4168ZM23.9163 31.1694C23.9163 31.3394 23.9155 31.3708 23.9136 31.3898L25.4066 31.5346C25.4172 31.4252 25.4163 31.3042 25.4163 31.1694H23.9163ZM23.5341 33.4071C24.5257 33.3109 25.3104 32.5262 25.4066 31.5346L23.9136 31.3898C23.8867 31.6675 23.667 31.8872 23.3893 31.9141L23.5341 33.4071ZM20.9885 31.7144C21.0147 31.8192 21.0378 31.9142 21.0675 32.0019L22.4882 31.5206C22.483 31.5052 22.4766 31.4821 22.4437 31.3506L20.9885 31.7144ZM23.1689 31.9168C23.0334 31.9168 23.0094 31.9162 22.9932 31.9149L22.8709 33.4099C22.9631 33.4174 23.0609 33.4168 23.1689 33.4168V31.9168ZM21.0675 32.0019C21.3341 32.7888 22.0428 33.3422 22.8709 33.4099L22.9932 31.9149C22.7613 31.8959 22.5628 31.741 22.4882 31.5206L21.0675 32.0019ZM31.9163 24.6668C31.9163 25.5413 31.2075 26.2502 30.333 26.2502V27.7502C32.0359 27.7502 33.4163 26.3697 33.4163 24.6668H31.9163ZM30.333 23.0835C31.2075 23.0835 31.9163 23.7924 31.9163 24.6668H33.4163C33.4163 22.964 32.0359 21.5835 30.333 21.5835V23.0835ZM22.333 22.4168H24.833V20.9168H22.333V22.4168ZM30.333 30.0002C30.7717 29.3918 30.7716 29.3917 30.7714 29.3917C30.7714 29.3916 30.7712 29.3915 30.7711 29.3914C30.7709 29.3913 30.7706 29.3911 30.7703 29.3908C30.7696 29.3903 30.7688 29.3897 30.7677 29.389C30.7656 29.3875 30.7627 29.3854 30.7591 29.3828C30.7518 29.3776 30.7414 29.3702 30.7281 29.3609C30.7015 29.3421 30.6632 29.3153 30.6141 29.2817C30.516 29.2143 30.3749 29.1192 30.1989 29.0055C29.8476 28.7787 29.3542 28.4758 28.7854 28.172C27.6848 27.584 26.1663 26.9168 24.833 26.9168V28.4168C25.7638 28.4168 26.9953 28.9163 28.0787 29.495C28.6019 29.7745 29.0589 30.055 29.3852 30.2656C29.5479 30.3707 29.6772 30.4579 29.765 30.5181C29.8088 30.5483 29.8422 30.5716 29.8641 30.587C29.8751 30.5948 29.8832 30.6005 29.8882 30.6041C29.8908 30.6059 29.8926 30.6072 29.8936 30.608C29.8941 30.6083 29.8944 30.6086 29.8946 30.6087C29.8946 30.6087 29.8946 30.6087 29.8946 30.6087C29.8946 30.6087 29.8945 30.6086 29.8945 30.6086C29.8944 30.6086 29.8944 30.6085 30.333 30.0002ZM29.583 19.3335V30.0002H31.083V19.3335H29.583ZM24.833 22.4168C26.1662 22.4168 27.6848 21.7496 28.7854 21.1617C29.3542 20.8579 29.8476 20.555 30.1989 20.3281C30.3749 20.2145 30.516 20.1194 30.6141 20.052C30.6632 20.0183 30.7015 19.9915 30.7281 19.9728C30.7414 19.9634 30.7518 19.9561 30.7591 19.9509C30.7627 19.9483 30.7656 19.9462 30.7677 19.9447C30.7688 19.9439 30.7696 19.9433 30.7703 19.9428C30.7706 19.9426 30.7709 19.9424 30.7711 19.9422C30.7712 19.9421 30.7714 19.942 30.7714 19.942C30.7716 19.9419 30.7717 19.9418 30.333 19.3335C29.8944 18.7252 29.8944 18.7251 29.8945 18.725C29.8945 18.725 29.8946 18.725 29.8946 18.725C29.8946 18.725 29.8946 18.725 29.8946 18.725C29.8944 18.7251 29.8941 18.7253 29.8936 18.7257C29.8926 18.7264 29.8908 18.7277 29.8882 18.7295C29.8832 18.7331 29.8751 18.7389 29.8641 18.7466C29.8422 18.7621 29.8088 18.7854 29.765 18.8155C29.6772 18.8758 29.5479 18.9629 29.3852 19.068C29.0589 19.2787 28.6019 19.5591 28.0786 19.8386C26.9953 20.4174 25.7638 20.9168 24.833 20.9168V22.4168ZM24.833 26.9168H22.333V28.4168H24.833V26.9168ZM18.583 24.6668C18.583 26.7379 20.2619 28.4168 22.333 28.4168V26.9168C21.0904 26.9168 20.083 25.9095 20.083 24.6668L18.583 24.6668ZM22.333 20.9168C20.2619 20.9168 18.583 22.5958 18.583 24.6668L20.083 24.6668C20.083 23.4242 21.0904 22.4168 22.333 22.4168V20.9168Z" fill="#0E0E0E"/>
</g>
<path d="M221 21C221 18.7909 222.791 17 225 17H253C255.209 17 257 18.7909 257 21V31C257 33.2091 255.209 35 253 35H225C222.791 35 221 33.2091 221 31V21Z" fill="#B3F4C4"/>
<path d="M227.693 29V22.7H229.466L232.184 27.443C232.157 27.173 232.148 26.831 232.148 26.498V22.7H233.327V29H231.779L228.836 23.861C228.872 24.221 228.872 24.464 228.872 24.743V29H227.693ZM235.255 29V22.7H239.638V23.699H236.434V25.238H239.503V26.246H236.434V28.001H239.773V29H235.255ZM242.42 29L240.764 22.7H242.078L243.041 26.822C243.131 27.191 243.203 27.506 243.284 27.947C243.356 27.506 243.428 27.191 243.518 26.822L244.562 22.7H246.263L247.226 26.822C247.316 27.191 247.397 27.524 247.478 27.947C247.55 27.506 247.613 27.191 247.703 26.822L248.702 22.7H249.944L248.288 29H246.65L245.606 24.518C245.561 24.32 245.489 24.05 245.426 23.645C245.345 24.05 245.282 24.32 245.228 24.518L244.058 29H242.42Z" fill="#285535"/>
<path d="M11.93 68L15.962 58.2H18.062L22.094 68H20.036L19.056 65.326H14.884L13.89 68H11.93ZM15.458 63.772H18.482L17.362 60.72C17.208 60.314 17.096 59.992 16.984 59.586C16.858 59.992 16.718 60.328 16.578 60.72L15.458 63.772ZM25.5651 68.252C23.7591 68.252 22.4431 67.02 22.4431 64.612C22.4431 62.162 23.9971 60.944 25.5931 60.944C26.6571 60.944 27.3151 61.49 27.7071 62.148C27.6511 61.896 27.6511 61.686 27.6511 61.476V58.2H29.3591V68H27.6511V67.72C27.6511 67.482 27.6511 67.3 27.7071 67.062C27.4411 67.566 26.8251 68.252 25.5651 68.252ZM24.1791 64.598C24.1791 66.012 24.9491 66.908 25.9711 66.908C26.9931 66.908 27.7491 65.97 27.7491 64.598C27.7491 63.198 26.9931 62.302 25.9711 62.302C24.9491 62.302 24.1791 63.24 24.1791 64.598ZM38.4701 68.252C35.5581 68.252 33.6961 66.362 33.6961 63.03C33.6961 59.88 35.7961 57.948 38.5681 57.948C40.9621 57.948 42.6841 59.32 42.9361 61.644H41.0321C40.8501 60.37 40.0101 59.502 38.5681 59.502C36.8321 59.502 35.5861 60.832 35.5861 63.03C35.5861 65.312 36.8181 66.698 38.5261 66.698C39.9821 66.698 40.9481 65.76 41.1441 64.458H42.9781C42.7401 66.726 41.1021 68.252 38.4701 68.252ZM46.2196 68.252C45.0296 68.252 43.8676 67.468 43.8676 66.124C43.8676 64.584 45.0576 64.052 46.5276 63.856L47.5076 63.73C48.0676 63.66 48.2636 63.45 48.2636 63.114C48.2636 62.638 47.8716 62.218 47.1436 62.218C46.3456 62.218 45.8416 62.666 45.7716 63.38H44.0076C44.1196 61.952 45.2816 60.944 47.0456 60.944C49.1316 60.944 49.9716 62.064 49.9716 63.982V68H48.3896V67.72C48.3896 67.496 48.4176 67.286 48.4596 67.062C48.0956 67.734 47.3956 68.252 46.2196 68.252ZM45.6036 66.054C45.6036 66.656 46.0796 66.992 46.6816 66.992C47.5916 66.992 48.3196 66.32 48.3196 65.354V64.612C48.1656 64.752 47.9276 64.822 47.5076 64.906L46.9476 65.018C46.1496 65.172 45.6036 65.438 45.6036 66.054ZM51.6278 68V61.168H53.3358V61.476C53.3358 61.686 53.3218 61.924 53.2798 62.148C53.6158 61.546 54.2458 60.944 55.2538 60.944C56.1078 60.944 56.7938 61.602 57.0458 62.218C57.4378 61.56 58.2638 60.944 59.2578 60.944C60.6438 60.944 61.6098 62.036 61.6098 63.702V68H59.9018V63.954C59.9018 62.96 59.5098 62.302 58.7678 62.302C58.0258 62.302 57.4658 62.988 57.4658 64.024V68H55.7578V63.954C55.7578 62.96 55.3938 62.302 54.6238 62.302C53.8818 62.302 53.3358 62.96 53.3358 64.024V68H51.6278ZM63.2899 70.856V61.168H64.9979V61.476C64.9979 61.686 64.9839 61.868 64.9419 62.148C65.3759 61.42 66.1039 60.944 67.1819 60.944C68.9879 60.944 70.1779 62.456 70.1779 64.626C70.1779 66.838 68.8479 68.252 67.1119 68.252C65.9639 68.252 65.3759 67.762 64.9419 67.062C64.9839 67.342 64.9979 67.524 64.9979 67.72V70.856H63.2899ZM64.9279 64.598C64.9279 65.97 65.6559 66.908 66.6919 66.908C67.7419 66.908 68.4419 65.97 68.4419 64.598C68.4419 63.254 67.7839 62.302 66.6919 62.302C65.6699 62.302 64.9279 63.184 64.9279 64.598ZM73.5223 68.252C72.3323 68.252 71.1703 67.468 71.1703 66.124C71.1703 64.584 72.3603 64.052 73.8303 63.856L74.8103 63.73C75.3703 63.66 75.5663 63.45 75.5663 63.114C75.5663 62.638 75.1743 62.218 74.4463 62.218C73.6483 62.218 73.1443 62.666 73.0743 63.38H71.3103C71.4223 61.952 72.5843 60.944 74.3483 60.944C76.4343 60.944 77.2743 62.064 77.2743 63.982V68H75.6923V67.72C75.6923 67.496 75.7203 67.286 75.7623 67.062C75.3983 67.734 74.6983 68.252 73.5223 68.252ZM72.9063 66.054C72.9063 66.656 73.3823 66.992 73.9843 66.992C74.8943 66.992 75.6223 66.32 75.6223 65.354V64.612C75.4683 64.752 75.2303 64.822 74.8103 64.906L74.2503 65.018C73.4523 65.172 72.9063 65.438 72.9063 66.054ZM78.9305 68V61.168H80.6385V68H78.9305ZM78.9025 60.132V58.34H80.6805V60.132H78.9025ZM85.4558 71.108C83.4398 71.108 82.2918 70.03 82.2918 68.476H84.0278C84.0558 69.288 84.5738 69.764 85.4978 69.764C86.3938 69.764 87.1498 69.232 87.1498 68.21V67.468C87.1498 67.16 87.1638 66.88 87.2058 66.614C86.7998 67.23 86.1418 67.748 85.0778 67.748C83.2998 67.748 82.0118 66.502 82.0118 64.346C82.0118 62.218 83.4958 60.944 84.9938 60.944C86.1978 60.944 86.7998 61.434 87.2058 62.148C87.1638 61.91 87.1498 61.728 87.1498 61.476V61.168H88.8578V67.79C88.8578 70.03 87.4718 71.108 85.4558 71.108ZM83.7478 64.346C83.7478 65.536 84.4758 66.39 85.5118 66.39C86.5198 66.39 87.2478 65.536 87.2478 64.346C87.2478 63.156 86.5198 62.302 85.5118 62.302C84.4758 62.302 83.7478 63.156 83.7478 64.346ZM90.5926 68V61.168H92.3006V61.476C92.3006 61.672 92.2866 61.882 92.2446 62.148C92.6226 61.462 93.2666 60.944 94.3446 60.944C95.8566 60.944 96.7526 62.008 96.7526 63.688V68H95.0446V63.94C95.0446 62.932 94.5546 62.302 93.7566 62.302C92.9166 62.302 92.3006 63.044 92.3006 63.996V68H90.5926Z" fill="#0E0E0E"/>
<path d="M14.952 88V80.716H12.096V79.6H19.128V80.716H16.284V88H14.952ZM20.3788 88.192C19.3228 88.192 18.3748 87.52 18.3748 86.404C18.3748 85.18 19.3348 84.688 20.4748 84.532L21.5188 84.376C21.9748 84.316 22.1308 84.148 22.1308 83.824C22.1308 83.308 21.7228 82.936 21.0748 82.936C20.2828 82.936 19.8388 83.368 19.8028 84.028H18.5308C18.5908 82.888 19.5028 81.988 20.9908 81.988C22.5988 81.988 23.3668 82.888 23.3668 84.376V88H22.2028V87.736C22.2028 87.556 22.2148 87.388 22.2268 87.208C21.9268 87.796 21.3148 88.192 20.3788 88.192ZM19.6588 86.368C19.6588 86.932 20.1028 87.256 20.6548 87.256C21.5068 87.256 22.1548 86.656 22.1548 85.768V85.024C22.0588 85.144 21.8428 85.216 21.4948 85.276L20.8348 85.408C20.1508 85.54 19.6588 85.804 19.6588 86.368ZM24.9215 88V82.18H26.1695V82.528C26.1695 82.756 26.1695 82.972 26.1455 83.188C26.4455 82.528 27.0335 81.988 27.9095 81.988C28.0055 81.988 28.1015 81.988 28.1975 82.012V83.224C28.1135 83.212 27.9935 83.188 27.8255 83.188C26.8175 83.188 26.1695 83.728 26.1695 85.012V88H24.9215ZM31.6136 90.664C29.9816 90.664 28.9976 89.776 28.9976 88.48H30.2456C30.2576 89.212 30.7736 89.692 31.6376 89.692C32.5616 89.692 33.2096 89.176 33.2096 88.12V87.448C33.2096 87.256 33.2216 87.076 33.2336 86.896C32.9096 87.448 32.2616 87.856 31.3736 87.856C29.8136 87.856 28.7456 86.752 28.7456 84.928C28.7456 83.128 29.9576 81.988 31.3616 81.988C32.3576 81.988 32.9096 82.444 33.2336 82.984C33.2216 82.816 33.2096 82.648 33.2096 82.468V82.18H34.4576V87.76C34.4576 89.716 33.4016 90.664 31.6136 90.664ZM30.0296 84.928C30.0296 86.092 30.7016 86.872 31.6616 86.872C32.6096 86.872 33.2936 86.08 33.2936 84.928C33.2936 83.788 32.6096 82.972 31.6616 82.972C30.7016 82.972 30.0296 83.776 30.0296 84.928ZM38.6334 88.192C36.8934 88.192 35.7414 87.088 35.7414 85.072C35.7414 83.26 36.9414 81.988 38.5854 81.988C40.3374 81.988 41.3334 83.212 41.3334 85.096V85.36H37.0014C37.0254 86.488 37.6974 87.22 38.6454 87.22C39.3174 87.22 39.9054 86.896 40.0254 86.152H41.2854C41.1654 87.256 40.2534 88.192 38.6334 88.192ZM37.0134 84.472H40.0254C40.0134 83.56 39.4734 82.936 38.5734 82.936C37.6974 82.936 37.0974 83.596 37.0134 84.472ZM44.8628 88.096C43.8068 88.096 43.0868 87.58 43.0868 86.284V83.188H41.8748V82.18H43.0868V80.164H44.3348V82.18H45.6548V83.188H44.3348V86.116C44.3348 86.764 44.6228 87.052 45.1868 87.052C45.3308 87.052 45.4748 87.04 45.6308 87.016V88.012C45.4508 88.06 45.1628 88.096 44.8628 88.096ZM51.1757 88.192C50.1197 88.192 49.1717 87.52 49.1717 86.404C49.1717 85.18 50.1317 84.688 51.2717 84.532L52.3157 84.376C52.7717 84.316 52.9277 84.148 52.9277 83.824C52.9277 83.308 52.5197 82.936 51.8717 82.936C51.0797 82.936 50.6357 83.368 50.5997 84.028H49.3277C49.3877 82.888 50.2997 81.988 51.7877 81.988C53.3957 81.988 54.1637 82.888 54.1637 84.376V88H52.9997V87.736C52.9997 87.556 53.0117 87.388 53.0237 87.208C52.7237 87.796 52.1117 88.192 51.1757 88.192ZM50.4557 86.368C50.4557 86.932 50.8997 87.256 51.4517 87.256C52.3037 87.256 52.9517 86.656 52.9517 85.768V85.024C52.8557 85.144 52.6397 85.216 52.2917 85.276L51.6317 85.408C50.9477 85.54 50.4557 85.804 50.4557 86.368ZM57.7463 88.192C56.4863 88.192 55.6583 87.388 55.6583 85.876V82.18H56.9063V85.66C56.9063 86.62 57.2783 87.208 58.1063 87.208C58.9463 87.208 59.4743 86.572 59.4743 85.516V82.18H60.7223V88H59.4863V87.7C59.4863 87.532 59.4983 87.352 59.5223 87.196C59.2343 87.784 58.6223 88.192 57.7463 88.192ZM64.6792 88.192C63.1432 88.192 62.0032 87.112 62.0032 85.096C62.0032 83.176 63.1912 81.988 64.7032 81.988C65.6392 81.988 66.2392 82.48 66.5392 82.984C66.5152 82.804 66.5152 82.636 66.5152 82.468V79.6H67.7632V88H66.5152V87.712C66.5152 87.52 66.5152 87.364 66.5392 87.196C66.2632 87.676 65.6512 88.192 64.6792 88.192ZM63.2872 85.096C63.2872 86.38 63.9712 87.22 64.9432 87.22C65.8912 87.22 66.5872 86.368 66.5872 85.084C66.5872 83.8 65.9032 82.972 64.9432 82.972C63.9832 82.972 63.2872 83.836 63.2872 85.096ZM69.3941 88V82.18H70.6421V88H69.3941ZM69.3461 81.184V79.804H70.7021V81.184H69.3461ZM74.8209 88.192C73.0809 88.192 71.9289 87.088 71.9289 85.072C71.9289 83.26 73.1289 81.988 74.7729 81.988C76.5249 81.988 77.5209 83.212 77.5209 85.096V85.36H73.1889C73.2129 86.488 73.8849 87.22 74.8329 87.22C75.5049 87.22 76.0929 86.896 76.2129 86.152H77.4729C77.3529 87.256 76.4409 88.192 74.8209 88.192ZM73.2009 84.472H76.2129C76.2009 83.56 75.6609 82.936 74.7609 82.936C73.8849 82.936 73.2849 83.596 73.2009 84.472ZM78.816 88V82.18H80.064V82.504C80.064 82.66 80.052 82.804 80.04 82.984C80.352 82.444 80.976 81.988 81.828 81.988C83.148 81.988 83.928 82.864 83.928 84.328V88H82.68V84.496C82.68 83.524 82.296 82.972 81.492 82.972C80.628 82.972 80.064 83.68 80.064 84.544V88H78.816ZM88.0637 88.192C86.3477 88.192 85.1477 87.076 85.1477 85.084C85.1477 83.188 86.4437 81.988 88.1237 81.988C89.6597 81.988 90.6317 82.912 90.7637 84.256H89.4917C89.4197 83.548 88.9517 82.972 88.1117 82.972C87.1277 82.972 86.4197 83.812 86.4197 85.084C86.4197 86.356 87.0917 87.22 88.0997 87.22C88.9757 87.22 89.4677 86.668 89.5637 85.912H90.8117C90.6557 87.28 89.7197 88.192 88.0637 88.192ZM94.5553 88.192C92.8153 88.192 91.6633 87.088 91.6633 85.072C91.6633 83.26 92.8633 81.988 94.5073 81.988C96.2593 81.988 97.2553 83.212 97.2553 85.096V85.36H92.9233C92.9473 86.488 93.6193 87.22 94.5673 87.22C95.2393 87.22 95.8273 86.896 95.9473 86.152H97.2073C97.0873 87.256 96.1753 88.192 94.5553 88.192ZM92.9353 84.472H95.9473C95.9353 83.56 95.3953 82.936 94.4953 82.936C93.6193 82.936 93.0193 83.596 92.9353 84.472ZM100.734 88.192C99.1264 88.192 98.1664 87.34 98.1064 86.032H99.3544C99.3904 86.776 99.8704 87.244 100.722 87.244C101.454 87.244 101.934 86.908 101.934 86.392C101.934 85.972 101.61 85.732 100.95 85.6L100.158 85.444C99.0064 85.228 98.3104 84.664 98.3104 83.728C98.3104 82.732 99.2584 81.988 100.638 81.988C102.114 81.988 103.026 82.732 103.086 83.932H101.838C101.778 83.296 101.322 82.936 100.602 82.936C99.9784 82.936 99.5464 83.212 99.5464 83.668C99.5464 84.076 99.8344 84.28 100.53 84.412L101.334 84.568C102.426 84.784 103.158 85.3 103.158 86.296C103.158 87.376 102.234 88.192 100.734 88.192ZM109.708 88.192C107.992 88.192 106.792 86.992 106.792 85.096C106.792 83.236 108.004 81.988 109.708 81.988C111.424 81.988 112.636 83.236 112.636 85.096C112.636 86.992 111.424 88.192 109.708 88.192ZM108.064 85.096C108.064 86.392 108.7 87.22 109.708 87.22C110.716 87.22 111.364 86.392 111.364 85.096C111.364 83.776 110.704 82.972 109.708 82.972C108.724 82.972 108.064 83.776 108.064 85.096ZM113.925 88V82.18H115.173V82.504C115.173 82.66 115.161 82.804 115.149 82.984C115.461 82.444 116.085 81.988 116.937 81.988C118.257 81.988 119.037 82.864 119.037 84.328V88H117.789V84.496C117.789 83.524 117.405 82.972 116.601 82.972C115.737 82.972 115.173 83.68 115.173 84.544V88H113.925ZM123.481 88V79.6H125.581L127.909 85.828C128.017 86.128 128.113 86.404 128.197 86.668C128.293 86.392 128.365 86.128 128.485 85.828L130.753 79.6H132.841V88H131.545V82.012C131.545 81.628 131.545 81.256 131.557 80.896L128.977 88H127.405L124.753 80.896C124.765 81.256 124.765 81.628 124.765 82.012V88H123.481ZM137.118 88.192C135.378 88.192 134.226 87.088 134.226 85.072C134.226 83.26 135.426 81.988 137.07 81.988C138.822 81.988 139.818 83.212 139.818 85.096V85.36H135.486C135.51 86.488 136.182 87.22 137.13 87.22C137.802 87.22 138.39 86.896 138.51 86.152H139.77C139.65 87.256 138.738 88.192 137.118 88.192ZM135.498 84.472H138.51C138.498 83.56 137.958 82.936 137.058 82.936C136.182 82.936 135.582 83.596 135.498 84.472ZM143.347 88.096C142.291 88.096 141.571 87.58 141.571 86.284V83.188H140.359V82.18H141.571V80.164H142.819V82.18H144.139V83.188H142.819V86.116C142.819 86.764 143.107 87.052 143.671 87.052C143.815 87.052 143.959 87.04 144.115 87.016V88.012C143.935 88.06 143.647 88.096 143.347 88.096ZM146.976 88.192C145.92 88.192 144.972 87.52 144.972 86.404C144.972 85.18 145.932 84.688 147.072 84.532L148.116 84.376C148.572 84.316 148.728 84.148 148.728 83.824C148.728 83.308 148.32 82.936 147.672 82.936C146.88 82.936 146.436 83.368 146.4 84.028H145.128C145.188 82.888 146.1 81.988 147.588 81.988C149.196 81.988 149.964 82.888 149.964 84.376V88H148.8V87.736C148.8 87.556 148.812 87.388 148.824 87.208C148.524 87.796 147.912 88.192 146.976 88.192ZM146.256 86.368C146.256 86.932 146.7 87.256 147.252 87.256C148.104 87.256 148.752 86.656 148.752 85.768V85.024C148.656 85.144 148.44 85.216 148.092 85.276L147.432 85.408C146.748 85.54 146.256 85.804 146.256 86.368ZM151.435 89.296C151.843 89.176 152.191 88.936 152.191 88.228V88H151.423V86.404H153.019V88.072C153.019 89.38 152.323 89.932 151.435 90.04V89.296ZM160.582 88.192C158.158 88.192 156.61 86.392 156.61 83.824C156.61 81.076 158.398 79.396 160.762 79.396C162.73 79.396 164.11 80.524 164.278 82.12H162.886C162.754 81.196 161.926 80.524 160.774 80.524C159.154 80.524 157.99 81.7 157.99 83.824C157.99 85.756 159.106 87.076 160.726 87.076C162.118 87.076 163.102 86.248 163.102 84.796V84.688H160.642V83.56H164.314V88H163.15V87.676C163.15 87.412 163.162 87.136 163.186 86.86C162.766 87.616 161.83 88.192 160.582 88.192ZM168.384 88.192C166.668 88.192 165.468 86.992 165.468 85.096C165.468 83.236 166.68 81.988 168.384 81.988C170.1 81.988 171.312 83.236 171.312 85.096C171.312 86.992 170.1 88.192 168.384 88.192ZM166.74 85.096C166.74 86.392 167.376 87.22 168.384 87.22C169.392 87.22 170.04 86.392 170.04 85.096C170.04 83.776 169.38 82.972 168.384 82.972C167.4 82.972 166.74 83.776 166.74 85.096ZM175.169 88.192C173.453 88.192 172.253 86.992 172.253 85.096C172.253 83.236 173.465 81.988 175.169 81.988C176.885 81.988 178.097 83.236 178.097 85.096C178.097 86.992 176.885 88.192 175.169 88.192ZM173.525 85.096C173.525 86.392 174.161 87.22 175.169 87.22C176.177 87.22 176.825 86.392 176.825 85.096C176.825 83.776 176.165 82.972 175.169 82.972C174.185 82.972 173.525 83.776 173.525 85.096ZM181.918 90.664C180.286 90.664 179.302 89.776 179.302 88.48H180.55C180.562 89.212 181.078 89.692 181.942 89.692C182.866 89.692 183.514 89.176 183.514 88.12V87.448C183.514 87.256 183.526 87.076 183.538 86.896C183.214 87.448 182.566 87.856 181.678 87.856C180.118 87.856 179.05 86.752 179.05 84.928C179.05 83.128 180.262 81.988 181.666 81.988C182.662 81.988 183.214 82.444 183.538 82.984C183.526 82.816 183.514 82.648 183.514 82.468V82.18H184.762V87.76C184.762 89.716 183.706 90.664 181.918 90.664ZM180.334 84.928C180.334 86.092 181.006 86.872 181.966 86.872C182.914 86.872 183.598 86.08 183.598 84.928C183.598 83.788 182.914 82.972 181.966 82.972C181.006 82.972 180.334 83.776 180.334 84.928ZM186.394 88V79.6H187.642V88H186.394ZM191.821 88.192C190.081 88.192 188.929 87.088 188.929 85.072C188.929 83.26 190.129 81.988 191.773 81.988C193.525 81.988 194.521 83.212 194.521 85.096V85.36H190.189C190.213 86.488 190.885 87.22 191.833 87.22C192.505 87.22 193.093 86.896 193.213 86.152H194.473C194.353 87.256 193.441 88.192 191.821 88.192ZM190.201 84.472H193.213C193.201 83.56 192.661 82.936 191.761 82.936C190.885 82.936 190.285 83.596 190.201 84.472ZM195.732 89.296C196.14 89.176 196.488 88.936 196.488 88.228V88H195.72V86.404H197.316V88.072C197.316 89.38 196.62 89.932 195.732 90.04V89.296ZM202.887 88.192C201.831 88.192 200.883 87.52 200.883 86.404C200.883 85.18 201.843 84.688 202.983 84.532L204.027 84.376C204.483 84.316 204.639 84.148 204.639 83.824C204.639 83.308 204.231 82.936 203.583 82.936C202.791 82.936 202.347 83.368 202.311 84.028H201.039C201.099 82.888 202.011 81.988 203.499 81.988C205.107 81.988 205.875 82.888 205.875 84.376V88H204.711V87.736C204.711 87.556 204.723 87.388 204.735 87.208C204.435 87.796 203.823 88.192 202.887 88.192ZM202.167 86.368C202.167 86.932 202.611 87.256 203.163 87.256C204.015 87.256 204.663 86.656 204.663 85.768V85.024C204.567 85.144 204.351 85.216 204.003 85.276L203.343 85.408C202.659 85.54 202.167 85.804 202.167 86.368ZM207.429 88V82.18H208.677V82.504C208.677 82.66 208.665 82.804 208.653 82.984C208.965 82.444 209.589 81.988 210.441 81.988C211.761 81.988 212.541 82.864 212.541 84.328V88H211.293V84.496C211.293 83.524 210.909 82.972 210.105 82.972C209.241 82.972 208.677 83.68 208.677 84.544V88H207.429ZM216.437 88.192C214.901 88.192 213.761 87.112 213.761 85.096C213.761 83.176 214.949 81.988 216.461 81.988C217.397 81.988 217.997 82.48 218.297 82.984C218.273 82.804 218.273 82.636 218.273 82.468V79.6H219.521V88H218.273V87.712C218.273 87.52 218.273 87.364 218.297 87.196C218.021 87.676 217.409 88.192 216.437 88.192ZM215.045 85.096C215.045 86.38 215.729 87.22 216.701 87.22C217.649 87.22 218.345 86.368 218.345 85.084C218.345 83.8 217.661 82.972 216.701 82.972C215.741 82.972 215.045 83.836 215.045 85.096ZM12.816 104V98.18H14.064V98.54C14.064 98.684 14.064 98.84 14.04 98.984C14.364 98.444 14.928 97.988 15.732 97.988C16.476 97.988 17.1 98.456 17.376 99.104C17.736 98.48 18.42 97.988 19.26 97.988C20.436 97.988 21.288 98.816 21.288 100.328V104H20.04V100.532C20.04 99.56 19.704 98.972 18.948 98.972C18.168 98.972 17.676 99.668 17.676 100.568V104H16.428V100.556C16.428 99.572 16.104 98.972 15.348 98.972C14.58 98.972 14.064 99.656 14.064 100.592V104H12.816ZM25.427 104.192C23.711 104.192 22.511 102.992 22.511 101.096C22.511 99.236 23.723 97.988 25.427 97.988C27.143 97.988 28.355 99.236 28.355 101.096C28.355 102.992 27.143 104.192 25.427 104.192ZM23.783 101.096C23.783 102.392 24.419 103.22 25.427 103.22C26.435 103.22 27.083 102.392 27.083 101.096C27.083 99.776 26.423 98.972 25.427 98.972C24.443 98.972 23.783 99.776 23.783 101.096ZM29.6441 104V98.18H30.8921V98.528C30.8921 98.756 30.8921 98.972 30.8681 99.188C31.1681 98.528 31.7561 97.988 32.6321 97.988C32.7281 97.988 32.8241 97.988 32.9201 98.012V99.224C32.8361 99.212 32.7161 99.188 32.5481 99.188C31.5401 99.188 30.8921 99.728 30.8921 101.012V104H29.6441ZM36.3366 104.192C34.5966 104.192 33.4446 103.088 33.4446 101.072C33.4446 99.26 34.6446 97.988 36.2886 97.988C38.0406 97.988 39.0366 99.212 39.0366 101.096V101.36H34.7046C34.7286 102.488 35.4006 103.22 36.3486 103.22C37.0206 103.22 37.6086 102.896 37.7286 102.152H38.9886C38.8686 103.256 37.9566 104.192 36.3366 104.192ZM34.7166 100.472H37.7286C37.7166 99.56 37.1766 98.936 36.2766 98.936C35.4006 98.936 34.8006 99.596 34.7166 100.472ZM43.9914 104L42.1554 98.18H43.4634L44.6274 102.308C44.6754 102.488 44.7234 102.68 44.7594 102.872C44.8074 102.668 44.8554 102.476 44.9034 102.308L46.0194 98.18H47.6394L48.7914 102.308C48.8394 102.476 48.8874 102.656 48.9234 102.86C48.9714 102.656 49.0074 102.476 49.0674 102.296L50.2194 98.18H51.4434L49.6434 104H48.1434L46.9674 99.812C46.9314 99.656 46.8834 99.464 46.8354 99.236C46.7994 99.464 46.7514 99.644 46.6914 99.812L45.5274 104H43.9914ZM52.4137 104V98.18H53.6617V104H52.4137ZM52.3657 97.184V95.804H53.7217V97.184H52.3657ZM57.6245 104.096C56.5685 104.096 55.8485 103.58 55.8485 102.284V99.188H54.6365V98.18H55.8485V96.164H57.0965V98.18H58.4165V99.188H57.0965V102.116C57.0965 102.764 57.3845 103.052 57.9485 103.052C58.0925 103.052 58.2365 103.04 58.3925 103.016V104.012C58.2125 104.06 57.9245 104.096 57.6245 104.096ZM59.5738 104V95.6H60.8218V98.456C60.8218 98.624 60.8218 98.792 60.7978 98.984C61.1218 98.42 61.7338 97.988 62.5858 97.988C63.9058 97.988 64.6858 98.864 64.6858 100.328V104H63.4378V100.496C63.4378 99.524 63.0418 98.972 62.2378 98.972C61.3858 98.972 60.8218 99.68 60.8218 100.544V104H59.5738ZM71.5051 104.192C69.7891 104.192 68.5891 103.076 68.5891 101.084C68.5891 99.188 69.8851 97.988 71.5651 97.988C73.1011 97.988 74.0731 98.912 74.2051 100.256H72.9331C72.8611 99.548 72.3931 98.972 71.5531 98.972C70.5691 98.972 69.8611 99.812 69.8611 101.084C69.8611 102.356 70.5331 103.22 71.5411 103.22C72.4171 103.22 72.9091 102.668 73.0051 101.912H74.2531C74.0971 103.28 73.1611 104.192 71.5051 104.192ZM78.0207 104.192C76.3047 104.192 75.1047 102.992 75.1047 101.096C75.1047 99.236 76.3167 97.988 78.0207 97.988C79.7367 97.988 80.9487 99.236 80.9487 101.096C80.9487 102.992 79.7367 104.192 78.0207 104.192ZM76.3767 101.096C76.3767 102.392 77.0127 103.22 78.0207 103.22C79.0287 103.22 79.6767 102.392 79.6767 101.096C79.6767 99.776 79.0167 98.972 78.0207 98.972C77.0367 98.972 76.3767 99.776 76.3767 101.096ZM82.2379 104V95.6H83.4859V98.456C83.4859 98.624 83.4859 98.792 83.4619 98.984C83.7859 98.42 84.3979 97.988 85.2499 97.988C86.5699 97.988 87.3499 98.864 87.3499 100.328V104H86.1019V100.496C86.1019 99.524 85.7059 98.972 84.9019 98.972C84.0499 98.972 83.4859 99.68 83.4859 100.544V104H82.2379ZM91.4616 104.192C89.7216 104.192 88.5696 103.088 88.5696 101.072C88.5696 99.26 89.7696 97.988 91.4136 97.988C93.1656 97.988 94.1616 99.212 94.1616 101.096V101.36H89.8296C89.8536 102.488 90.5256 103.22 91.4736 103.22C92.1456 103.22 92.7336 102.896 92.8536 102.152H94.1136C93.9936 103.256 93.0816 104.192 91.4616 104.192ZM89.8416 100.472H92.8536C92.8416 99.56 92.3016 98.936 91.4016 98.936C90.5256 98.936 89.9256 99.596 89.8416 100.472ZM97.6406 104.192C96.0326 104.192 95.0726 103.34 95.0126 102.032H96.2606C96.2966 102.776 96.7766 103.244 97.6286 103.244C98.3606 103.244 98.8406 102.908 98.8406 102.392C98.8406 101.972 98.5166 101.732 97.8566 101.6L97.0646 101.444C95.9126 101.228 95.2166 100.664 95.2166 99.728C95.2166 98.732 96.1646 97.988 97.5446 97.988C99.0206 97.988 99.9326 98.732 99.9926 99.932H98.7446C98.6846 99.296 98.2286 98.936 97.5086 98.936C96.8846 98.936 96.4526 99.212 96.4526 99.668C96.4526 100.076 96.7406 100.28 97.4366 100.412L98.2406 100.568C99.3326 100.784 100.065 101.3 100.065 102.296C100.065 103.376 99.1406 104.192 97.6406 104.192ZM101.363 104V98.18H102.611V104H101.363ZM101.315 97.184V95.804H102.671V97.184H101.315ZM105.758 104L103.55 98.18H104.894L106.274 102.2C106.37 102.452 106.418 102.632 106.478 102.86C106.538 102.632 106.598 102.452 106.682 102.2L108.038 98.18H109.334L107.162 104H105.758ZM112.696 104.192C110.956 104.192 109.804 103.088 109.804 101.072C109.804 99.26 111.004 97.988 112.648 97.988C114.4 97.988 115.396 99.212 115.396 101.096V101.36H111.064C111.088 102.488 111.76 103.22 112.708 103.22C113.38 103.22 113.968 102.896 114.088 102.152H115.348C115.228 103.256 114.316 104.192 112.696 104.192ZM111.076 100.472H114.088C114.076 99.56 113.536 98.936 112.636 98.936C111.76 98.936 111.16 99.596 111.076 100.472ZM121.703 104.192C120.167 104.192 119.027 103.112 119.027 101.096C119.027 99.176 120.215 97.988 121.727 97.988C122.663 97.988 123.263 98.48 123.563 98.984C123.539 98.804 123.539 98.636 123.539 98.468V95.6H124.787V104H123.539V103.712C123.539 103.52 123.539 103.364 123.563 103.196C123.287 103.676 122.675 104.192 121.703 104.192ZM120.311 101.096C120.311 102.38 120.995 103.22 121.967 103.22C122.915 103.22 123.611 102.368 123.611 101.084C123.611 99.8 122.927 98.972 121.967 98.972C121.007 98.972 120.311 99.836 120.311 101.096ZM126.418 104V98.18H127.666V104H126.418ZM126.37 97.184V95.804H127.726V97.184H126.37ZM131.832 106.664C130.2 106.664 129.216 105.776 129.216 104.48H130.464C130.476 105.212 130.992 105.692 131.856 105.692C132.78 105.692 133.428 105.176 133.428 104.12V103.448C133.428 103.256 133.44 103.076 133.452 102.896C133.128 103.448 132.48 103.856 131.592 103.856C130.032 103.856 128.964 102.752 128.964 100.928C128.964 99.128 130.176 97.988 131.58 97.988C132.576 97.988 133.128 98.444 133.452 98.984C133.44 98.816 133.428 98.648 133.428 98.468V98.18H134.676V103.76C134.676 105.716 133.62 106.664 131.832 106.664ZM130.248 100.928C130.248 102.092 130.92 102.872 131.88 102.872C132.828 102.872 133.512 102.08 133.512 100.928C133.512 99.788 132.828 98.972 131.88 98.972C130.92 98.972 130.248 99.776 130.248 100.928ZM136.308 104V98.18H137.556V104H136.308ZM136.26 97.184V95.804H137.616V97.184H136.26ZM141.519 104.096C140.463 104.096 139.743 103.58 139.743 102.284V99.188H138.531V98.18H139.743V96.164H140.991V98.18H142.311V99.188H140.991V102.116C140.991 102.764 141.279 103.052 141.843 103.052C141.987 103.052 142.131 103.04 142.287 103.016V104.012C142.107 104.06 141.819 104.096 141.519 104.096ZM145.148 104.192C144.092 104.192 143.144 103.52 143.144 102.404C143.144 101.18 144.104 100.688 145.244 100.532L146.288 100.376C146.744 100.316 146.9 100.148 146.9 99.824C146.9 99.308 146.492 98.936 145.844 98.936C145.052 98.936 144.608 99.368 144.572 100.028H143.3C143.36 98.888 144.272 97.988 145.76 97.988C147.368 97.988 148.136 98.888 148.136 100.376V104H146.972V103.736C146.972 103.556 146.984 103.388 146.996 103.208C146.696 103.796 146.084 104.192 145.148 104.192ZM144.428 102.368C144.428 102.932 144.872 103.256 145.424 103.256C146.276 103.256 146.924 102.656 146.924 101.768V101.024C146.828 101.144 146.612 101.216 146.264 101.276L145.604 101.408C144.92 101.54 144.428 101.804 144.428 102.368ZM149.691 104V95.6H150.939V104H149.691ZM156.937 104.192C155.881 104.192 154.933 103.52 154.933 102.404C154.933 101.18 155.893 100.688 157.033 100.532L158.077 100.376C158.533 100.316 158.689 100.148 158.689 99.824C158.689 99.308 158.281 98.936 157.633 98.936C156.841 98.936 156.397 99.368 156.361 100.028H155.089C155.149 98.888 156.061 97.988 157.549 97.988C159.157 97.988 159.925 98.888 159.925 100.376V104H158.761V103.736C158.761 103.556 158.773 103.388 158.785 103.208C158.485 103.796 157.873 104.192 156.937 104.192ZM156.217 102.368C156.217 102.932 156.661 103.256 157.213 103.256C158.065 103.256 158.713 102.656 158.713 101.768V101.024C158.617 101.144 158.401 101.216 158.053 101.276L157.393 101.408C156.709 101.54 156.217 101.804 156.217 102.368ZM163.808 104.192C162.272 104.192 161.132 103.112 161.132 101.096C161.132 99.176 162.32 97.988 163.832 97.988C164.768 97.988 165.368 98.48 165.668 98.984C165.644 98.804 165.644 98.636 165.644 98.468V95.6H166.892V104H165.644V103.712C165.644 103.52 165.644 103.364 165.668 103.196C165.392 103.676 164.78 104.192 163.808 104.192ZM162.416 101.096C162.416 102.38 163.1 103.22 164.072 103.22C165.02 103.22 165.716 102.368 165.716 101.084C165.716 99.8 165.032 98.972 164.072 98.972C163.112 98.972 162.416 99.836 162.416 101.096ZM170.707 104.192C169.099 104.192 168.139 103.34 168.079 102.032H169.327C169.363 102.776 169.843 103.244 170.695 103.244C171.427 103.244 171.907 102.908 171.907 102.392C171.907 101.972 171.583 101.732 170.923 101.6L170.131 101.444C168.979 101.228 168.283 100.664 168.283 99.728C168.283 98.732 169.231 97.988 170.611 97.988C172.087 97.988 172.999 98.732 173.059 99.932H171.811C171.751 99.296 171.295 98.936 170.575 98.936C169.951 98.936 169.519 99.212 169.519 99.668C169.519 100.076 169.807 100.28 170.503 100.412L171.307 100.568C172.399 100.784 173.131 101.3 173.131 102.296C173.131 103.376 172.207 104.192 170.707 104.192Z" fill="#464134"/>
<path d="M16.3753 138.417H14.6837C14.357 138.417 14.1936 138.417 14.0688 138.48C13.9591 138.536 13.8698 138.625 13.8139 138.735C13.7503 138.86 13.7503 139.023 13.7503 139.35V144.25M21.6253 138.417H23.317C23.6437 138.417 23.807 138.417 23.9318 138.48C24.0416 138.536 24.1308 138.625 24.1867 138.735C24.2503 138.86 24.2503 139.023 24.2503 139.35V144.25M21.6253 144.25V135.617C21.6253 134.963 21.6253 134.637 21.4982 134.387C21.3863 134.167 21.2078 133.989 20.9883 133.877C20.7388 133.75 20.4121 133.75 19.7587 133.75H18.242C17.5886 133.75 17.2619 133.75 17.0123 133.877C16.7928 133.989 16.6143 134.167 16.5025 134.387C16.3753 134.637 16.3753 134.963 16.3753 135.617V144.25M24.8337 144.25H13.167M18.417 136.083H19.5837M18.417 138.417H19.5837M18.417 140.75H19.5837" stroke="#464134" stroke-width="1.25" stroke-linecap="square"/>
<path d="M31.008 143V134.6H36.66V135.716H32.34V138.116H36.468V139.256H32.34V141.872H36.816V143H31.008ZM38.1754 143V137.18H39.4234V137.504C39.4234 137.66 39.4114 137.804 39.3994 137.984C39.7114 137.444 40.3354 136.988 41.1874 136.988C42.5074 136.988 43.2874 137.864 43.2874 139.328V143H42.0394V139.496C42.0394 138.524 41.6554 137.972 40.8514 137.972C39.9874 137.972 39.4234 138.68 39.4234 139.544V143H38.1754ZM47.1245 143.096C46.0685 143.096 45.3485 142.58 45.3485 141.284V138.188H44.1365V137.18H45.3485V135.164H46.5965V137.18H47.9165V138.188H46.5965V141.116C46.5965 141.764 46.8845 142.052 47.4485 142.052C47.5925 142.052 47.7365 142.04 47.8925 142.016V143.012C47.7125 143.06 47.4245 143.096 47.1245 143.096ZM51.5475 143.192C49.8075 143.192 48.6555 142.088 48.6555 140.072C48.6555 138.26 49.8555 136.988 51.4995 136.988C53.2515 136.988 54.2475 138.212 54.2475 140.096V140.36H49.9155C49.9395 141.488 50.6115 142.22 51.5595 142.22C52.2315 142.22 52.8195 141.896 52.9395 141.152H54.1995C54.0795 142.256 53.1675 143.192 51.5475 143.192ZM49.9275 139.472H52.9395C52.9275 138.56 52.3875 137.936 51.4875 137.936C50.6115 137.936 50.0115 138.596 49.9275 139.472ZM55.5426 143V137.18H56.7906V137.528C56.7906 137.756 56.7906 137.972 56.7666 138.188C57.0666 137.528 57.6546 136.988 58.5306 136.988C58.6266 136.988 58.7226 136.988 58.8186 137.012V138.224C58.7346 138.212 58.6146 138.188 58.4466 138.188C57.4386 138.188 56.7906 138.728 56.7906 140.012V143H55.5426ZM59.8082 145.472V137.18H61.0562V137.516C61.0562 137.672 61.0562 137.816 61.0322 137.996C61.3802 137.42 62.0522 136.988 62.9522 136.988C64.5602 136.988 65.5682 138.284 65.5682 140.096C65.5682 141.968 64.4522 143.192 62.9042 143.192C62.0042 143.192 61.4042 142.784 61.0322 142.196C61.0562 142.388 61.0562 142.544 61.0562 142.712V145.472H59.8082ZM60.9962 140.084C60.9962 141.356 61.6802 142.22 62.6522 142.22C63.6362 142.22 64.2842 141.344 64.2842 140.084C64.2842 138.848 63.6482 137.972 62.6522 137.972C61.6922 137.972 60.9962 138.788 60.9962 140.084ZM66.8394 143V137.18H68.0874V137.528C68.0874 137.756 68.0874 137.972 68.0634 138.188C68.3634 137.528 68.9514 136.988 69.8274 136.988C69.9234 136.988 70.0194 136.988 70.1154 137.012V138.224C70.0314 138.212 69.9114 138.188 69.7434 138.188C68.7354 138.188 68.0874 138.728 68.0874 140.012V143H66.8394ZM71.1051 143V137.18H72.3531V143H71.1051ZM71.0571 136.184V134.804H72.4131V136.184H71.0571ZM76.1719 143.192C74.5639 143.192 73.6039 142.34 73.5439 141.032H74.7919C74.8279 141.776 75.3079 142.244 76.1599 142.244C76.8919 142.244 77.3719 141.908 77.3719 141.392C77.3719 140.972 77.0479 140.732 76.3879 140.6L75.5959 140.444C74.4439 140.228 73.7479 139.664 73.7479 138.728C73.7479 137.732 74.6959 136.988 76.0759 136.988C77.5519 136.988 78.4639 137.732 78.5239 138.932H77.2759C77.2159 138.296 76.7599 137.936 76.0399 137.936C75.4159 137.936 74.9839 138.212 74.9839 138.668C74.9839 139.076 75.2719 139.28 75.9679 139.412L76.7719 139.568C77.8639 139.784 78.5959 140.3 78.5959 141.296C78.5959 142.376 77.6719 143.192 76.1719 143.192ZM82.4381 143.192C80.6981 143.192 79.5461 142.088 79.5461 140.072C79.5461 138.26 80.7461 136.988 82.3901 136.988C84.1421 136.988 85.1381 138.212 85.1381 140.096V140.36H80.8061C80.8301 141.488 81.5021 142.22 82.4501 142.22C83.1221 142.22 83.7101 141.896 83.8301 141.152H85.0901C84.9701 142.256 84.0581 143.192 82.4381 143.192ZM80.8181 139.472H83.8301C83.8181 138.56 83.2781 137.936 82.3781 137.936C81.5021 137.936 80.9021 138.596 80.8181 139.472ZM91.6848 143.192C89.9688 143.192 88.7688 141.992 88.7688 140.096C88.7688 138.236 89.9808 136.988 91.6848 136.988C93.4008 136.988 94.6128 138.236 94.6128 140.096C94.6128 141.992 93.4008 143.192 91.6848 143.192ZM90.0408 140.096C90.0408 141.392 90.6768 142.22 91.6848 142.22C92.6928 142.22 93.3408 141.392 93.3408 140.096C93.3408 138.776 92.6808 137.972 91.6848 137.972C90.7008 137.972 90.0408 138.776 90.0408 140.096ZM95.9019 143V137.18H97.1499V137.504C97.1499 137.66 97.1379 137.804 97.1259 137.984C97.4379 137.444 98.0619 136.988 98.9139 136.988C100.234 136.988 101.014 137.864 101.014 139.328V143H99.7659V139.496C99.7659 138.524 99.3819 137.972 98.5779 137.972C97.7139 137.972 97.1499 138.68 97.1499 139.544V143H95.9019ZM102.582 143V134.6H103.83V143H102.582ZM106.064 145.472L107.072 142.868L104.768 137.18H106.16L107.504 140.912C107.576 141.128 107.66 141.356 107.732 141.62C107.804 141.356 107.876 141.128 107.948 140.912L109.184 137.18H110.492L107.396 145.472H106.064Z" fill="#464134"/>
</g>
<path d="M0.5 16C0.5 7.43958 7.43959 0.5 16 0.5H253C261.56 0.5 268.5 7.43959 268.5 16V143C268.5 151.56 261.56 158.5 253 158.5H16C7.43958 158.5 0.5 151.56 0.5 143V16Z" stroke="#EEECE8"/>
<defs>
<clipPath id="clip0_3431_25165">
<path d="M0 16C0 7.16344 7.16344 0 16 0H253C261.837 0 269 7.16344 269 16V143C269 151.837 261.837 159 253 159H16C7.16344 159 0 151.837 0 143V16Z" fill="white"/>
</clipPath>
<clipPath id="clip1_3431_25165">
<rect width="16" height="16" fill="white" transform="translate(18 18)"/>
</clipPath>
</defs>
</svg>
