<svg width="269" height="159" viewBox="0 0 269 159" fill="none" xmlns="http://www.w3.org/2000/svg">
<g clip-path="url(#clip0_3431_24989)">
<path d="M0 16C0 7.16344 7.16344 0 16 0H253C261.837 0 269 7.16344 269 16V143C269 151.837 261.837 159 253 159H16C7.16344 159 0 151.837 0 143V16Z" fill="#FAFAFA"/>
<path d="M26 9C16.6112 9 9 16.6112 9 26C9 35.3888 16.6112 43 26 43C35.3888 43 43 35.3888 43 26C43 16.6112 35.3888 9 26 9Z" fill="#DEDDFD"/>
<path d="M26 9C16.6112 9 9 16.6112 9 26C9 35.3888 16.6112 43 26 43C35.3888 43 43 35.3888 43 26C43 16.6112 35.3888 9 26 9Z" stroke="#FAFAFA" stroke-width="6"/>
<path d="M25.369 31.9248L26.0456 32.2484L25.369 31.9248ZM28.9997 24.3333L29.6763 24.0097C29.5517 23.7492 29.2885 23.5833 28.9997 23.5833C28.7108 23.5833 28.4477 23.7492 28.3231 24.0097L28.9997 24.3333ZM32.6304 31.9248L31.9538 32.2484L31.9538 32.2484L32.6304 31.9248ZM19.333 20.5833H18.583V22.0833H19.333V20.5833ZM27.333 22.0833H28.083V20.5833H27.333V22.0833ZM24.083 20V19.25H22.583V20H24.083ZM24.359 28.0175L25.0431 28.3248L25.6578 26.9566L24.9737 26.6492L24.359 28.0175ZM22.0239 23.7081L21.732 23.0172L20.3502 23.601L20.6421 24.2919L22.0239 23.7081ZM18.9992 29.3284L18.3276 29.6621L18.9951 31.0054L19.6668 30.6716L18.9992 29.3284ZM26.6084 30.0833H31.391V28.5833H26.6084V30.0833ZM26.0456 32.2484C26.2876 31.7424 26.4764 31.3475 26.6653 30.9527C26.8541 30.5578 27.043 30.1629 27.285 29.6569L25.9318 29.0097C25.6898 29.5158 25.5009 29.9106 25.3121 30.3055C25.1232 30.7003 24.9344 31.0952 24.6924 31.6012L26.0456 32.2484ZM27.285 29.6569L29.6763 24.6569L28.3231 24.0097L25.9318 29.0097L27.285 29.6569ZM28.3231 24.6569L30.7144 29.6569L32.0676 29.0097L29.6763 24.0097L28.3231 24.6569ZM30.7144 29.6569L31.9538 32.2484L33.307 31.6012L32.0676 29.0097L30.7144 29.6569ZM32.6663 32.0833C31.9163 32.0833 31.9163 32.0833 31.9163 32.0833C31.9163 32.0833 31.9163 32.0833 31.9163 32.0833C31.9163 32.0833 31.9163 32.0833 31.9163 32.0833C31.9163 32.0833 31.9163 32.0833 31.9163 32.0833C31.9163 32.0833 31.9163 32.0833 31.9163 32.0833C31.9163 32.0833 31.9163 32.0834 31.9163 32.0834C31.9163 32.0834 31.9163 32.0834 31.9163 32.0834C31.9163 32.0834 31.9163 32.0834 31.9163 32.0834C31.9163 32.0834 31.9163 32.0834 31.9163 32.0834C31.9163 32.0834 31.9163 32.0834 31.9163 32.0834C31.9163 32.0834 31.9163 32.0834 31.9163 32.0834C31.9163 32.0834 31.9163 32.0834 31.9163 32.0834C31.9163 32.0834 31.9163 32.0834 31.9163 32.0834C31.9163 32.0834 31.9163 32.0834 31.9163 32.0834C31.9163 32.0835 31.9163 32.0835 31.9163 32.0835C31.9163 32.0835 31.9163 32.0835 31.9163 32.0835C31.9163 32.0835 31.9163 32.0835 31.9163 32.0835C31.9163 32.0835 31.9163 32.0835 31.9163 32.0835C31.9163 32.0835 31.9163 32.0835 31.9163 32.0835C31.9163 32.0835 31.9163 32.0836 31.9163 32.0836C31.9163 32.0836 31.9163 32.0836 31.9163 32.0836C31.9163 32.0836 31.9163 32.0836 31.9163 32.0836C31.9163 32.0836 31.9163 32.0836 31.9163 32.0836C31.9163 32.0836 31.9163 32.0837 31.9163 32.0837C31.9163 32.0837 31.9163 32.0837 31.9163 32.0837C31.9163 32.0837 31.9163 32.0837 31.9163 32.0837C31.9163 32.0837 31.9163 32.0837 31.9163 32.0837C31.9163 32.0838 31.9163 32.0838 31.9163 32.0838C31.9163 32.0838 31.9163 32.0838 31.9163 32.0838C31.9163 32.0838 31.9163 32.0838 31.9163 32.0838C31.9163 32.0839 31.9163 32.0839 31.9163 32.0839C31.9163 32.0839 31.9163 32.0839 31.9163 32.0839C31.9163 32.0839 31.9163 32.0839 31.9163 32.0839C31.9163 32.084 31.9163 32.084 31.9163 32.084C31.9163 32.084 31.9163 32.084 31.9163 32.084C31.9163 32.084 31.9163 32.084 31.9163 32.0841C31.9163 32.0841 31.9163 32.0841 31.9163 32.0841C31.9163 32.0841 31.9163 32.0841 31.9163 32.0841C31.9163 32.0842 31.9163 32.0842 31.9163 32.0842C31.9163 32.0842 31.9163 32.0842 31.9163 32.0842C31.9163 32.0842 31.9163 32.0843 31.9163 32.0843C31.9163 32.0843 31.9163 32.0843 31.9163 32.0843C31.9163 32.0843 31.9163 32.0844 31.9163 32.0844C31.9163 32.0844 31.9163 32.0844 31.9163 32.0844C31.9163 32.0844 31.9163 32.0844 31.9163 32.0845C31.9163 32.0845 31.9163 32.0845 31.9163 32.0845C31.9163 32.0845 31.9163 32.0845 31.9163 32.0846C31.9163 32.0846 31.9163 32.0846 31.9163 32.0846C31.9163 32.0846 31.9163 32.0847 31.9163 32.0847C31.9163 32.0847 31.9163 32.0847 31.9163 32.0847C31.9163 32.0847 31.9163 32.0848 31.9163 32.0848C31.9163 32.0848 31.9163 32.0848 31.9163 32.0848C31.9163 32.0849 31.9163 32.0849 31.9163 32.0849C31.9163 32.0849 31.9163 32.0849 31.9163 32.0849C31.9163 32.085 31.9163 32.085 31.9163 32.085C31.9163 32.085 31.9163 32.085 31.9163 32.0851C31.9163 32.0851 31.9163 32.0851 31.9163 32.0851C31.9163 32.0851 31.9163 32.0852 31.9163 32.0852C31.9163 32.0852 31.9163 32.0852 31.9163 32.0852C31.9163 32.0853 31.9163 32.0853 31.9163 32.0853C31.9163 32.0853 31.9163 32.0854 31.9163 32.0854C31.9163 32.0854 31.9163 32.0854 31.9163 32.0854C31.9163 32.0855 31.9163 32.0855 31.9163 32.0855C31.9163 32.0855 31.9163 32.0856 31.9163 32.0856C31.9163 32.0856 31.9163 32.0856 31.9163 32.0856C31.9163 32.0857 31.9163 32.0857 31.9163 32.0857C31.9163 32.0857 31.9163 32.0858 31.9163 32.0858C31.9163 32.0858 31.9163 32.0858 31.9163 32.0859C31.9163 32.0859 31.9163 32.0859 31.9163 32.0859C31.9163 32.086 31.9163 32.086 31.9163 32.086C31.9163 32.086 31.9163 32.0861 31.9163 32.0861C31.9163 32.0861 31.9163 32.0861 31.9163 32.0862C31.9163 32.0862 31.9163 32.0862 31.9163 32.0862C31.9163 32.0863 31.9163 32.0863 31.9163 32.0863C31.9163 32.0863 31.9163 32.0864 31.9163 32.0864C31.9163 32.0864 31.9163 32.0864 31.9163 32.0865C31.9163 32.0865 31.9163 32.0865 31.9163 32.0865C31.9163 32.0866 31.9163 32.0866 31.9163 32.0866C31.9163 32.0867 31.9163 32.0867 31.9163 32.0867C31.9163 32.0867 31.9163 32.0868 31.9163 32.0868C31.9163 32.0868 31.9163 32.0868 31.9163 32.0869C31.9163 32.0869 31.9163 32.0869 31.9163 32.087C31.9163 32.087 31.9163 32.087 31.9163 32.087C31.9163 32.0871 31.9163 32.0871 31.9163 32.0871C31.9163 32.0872 31.9163 32.0872 31.9163 32.0872C31.9163 32.0872 31.9163 32.0873 31.9163 32.0873C31.9163 32.0873 31.9163 32.0874 31.9163 32.0874C31.9163 32.0874 31.9163 32.0875 31.9163 32.0875C31.9163 32.0875 31.9163 32.0875 31.9163 32.0876C31.9163 32.0876 31.9163 32.0876 31.9163 32.0877C31.9163 32.0877 31.9163 32.0877 31.9163 32.0878C31.9163 32.0878 31.9163 32.0878 31.9163 32.0879C31.9163 32.0879 31.9163 32.0879 31.9163 32.0879C31.9163 32.088 31.9163 32.088 31.9163 32.088C31.9163 32.0881 31.9163 32.0881 31.9163 32.0881C31.9163 32.0882 31.9163 32.0882 31.9163 32.0882C31.9163 32.0883 31.9163 32.0883 31.9163 32.0883C31.9163 32.0884 31.9163 32.0884 31.9163 32.0884C31.9163 32.0885 31.9163 32.0885 31.9163 32.0885C31.9163 32.0886 31.9163 32.0886 31.9163 32.0886C31.9163 32.0887 31.9163 32.0887 31.9163 32.0887C31.9163 32.0888 31.9163 32.0888 31.9163 32.0888C31.9163 32.0889 31.9163 32.0889 31.9163 32.0889C31.9163 32.089 31.9163 32.089 31.9163 32.089C31.9163 32.0891 31.9163 32.0891 31.9163 32.0891C31.9163 32.0892 31.9163 32.0892 31.9163 32.0893C31.9163 32.0893 31.9163 32.0893 31.9163 32.0894C31.9163 32.0894 31.9163 32.0894 31.9163 32.0895C31.9163 32.0895 31.9163 32.0895 31.9163 32.0896C31.9163 32.0896 31.9163 32.0896 31.9163 32.0897C31.9163 32.0897 31.9163 32.0898 31.9163 32.0898C31.9163 32.0898 31.9163 32.0899 31.9163 32.0899C31.9163 32.0899 31.9163 32.09 31.9163 32.09C31.9163 32.09 31.9163 32.0901 31.9163 32.0901C31.9163 32.0902 31.9163 32.0902 31.9163 32.0902C31.9163 32.0903 31.9163 32.0903 31.9163 32.0904C31.9163 32.0904 31.9163 32.0904 31.9163 32.0905C31.9163 32.0905 31.9163 32.0905 31.9163 32.0906C31.9163 32.0906 31.9163 32.0907 31.9163 32.0907C31.9163 32.0907 31.9163 32.0908 31.9163 32.0908C31.9163 32.0909 31.9163 32.0909 31.9163 32.0909C31.9163 32.091 31.9163 32.091 31.9163 32.0911C31.9163 32.0911 31.9163 32.0911 31.9163 32.0912C31.9163 32.0912 31.9163 32.0912 31.9163 32.0913C31.9163 32.0913 31.9163 32.0914 31.9163 32.0914C31.9163 32.0915 31.9163 32.0915 31.9163 32.0915C31.9163 32.0916 31.9163 32.0916 31.9163 32.0917C31.9163 32.0917 31.9163 32.0917 31.9163 32.0918C31.9163 32.0918 31.9163 32.0919 31.9163 32.0919C31.9163 32.0919 31.9163 32.092 31.9163 32.092C31.9163 32.0921 31.9163 32.0921 31.9163 32.0922C31.9163 32.0922 31.9163 32.0922 31.9163 32.0923C31.9163 32.0923 31.9163 32.0924 31.9163 32.0924C31.9163 32.0924 31.9163 32.0925 31.9163 32.0925C31.9163 32.0926 31.9163 32.0926 31.9163 32.0927C31.9163 32.0927 31.9163 32.0927 31.9163 32.0928C31.9163 32.0928 31.9163 32.0929 31.9163 32.0929C31.9163 32.093 31.9163 32.093 31.9163 32.0931C31.9163 32.0931 31.9163 32.0931 31.9163 32.0932C31.9163 32.0932 31.9163 32.0933 31.9163 32.0933C31.9163 32.0934 31.9163 32.0934 31.9163 32.0934C31.9163 32.0935 31.9163 32.0935 31.9163 32.0936C31.9163 32.0936 31.9163 32.0937 31.9163 32.0937C31.9163 32.0938 31.9163 32.0938 31.9163 32.0938C31.9163 32.0939 31.9163 32.0939 31.9163 32.094C31.9163 32.094 31.9163 32.0941 31.9163 32.0941C31.9163 32.0942 31.9163 32.0942 31.9163 32.0943C31.9163 32.0943 31.9163 32.0944 31.9163 32.0944C31.9163 32.0944 31.9163 32.0945 31.9163 32.0945C31.9163 32.0946 31.9163 32.0946 31.9163 32.0947C31.9163 32.0947 31.9163 32.0948 31.9163 32.0948C31.9163 32.0949 31.9163 32.0949 31.9163 32.095C31.9163 32.095 31.9163 32.095 31.9163 32.0951C31.9163 32.0951 31.9163 32.0952 31.9163 32.0952C31.9163 32.0953 31.9163 32.0953 31.9163 32.0954C31.9163 32.0954 31.9163 32.0955 31.9163 32.0955C31.9163 32.0956 31.9163 32.0956 31.9163 32.0957C31.9163 32.0957 31.9163 32.0958 31.9163 32.0958C31.9163 32.0959 31.9163 32.0959 31.9163 32.096C31.9163 32.096 31.9163 32.0961 31.9163 32.0961C31.9163 32.0962 31.9163 32.0962 31.9163 32.0963C31.9163 32.0963 31.9163 32.0964 31.9163 32.0964C31.9163 32.0964 31.9163 32.0965 31.9163 32.0965C31.9163 32.0966 31.9163 32.0966 31.9163 32.0967C31.9163 32.0967 31.9163 32.0968 31.9163 32.0968C31.9163 32.0969 31.9163 32.0969 31.9163 32.097C31.9163 32.097 31.9163 32.0971 31.9163 32.0971C31.9163 32.0972 31.9163 32.0972 31.9163 32.0973C31.9163 32.0973 31.9163 32.0974 31.9163 32.0975C31.9163 32.0975 31.9163 32.0976 31.9163 32.0976C31.9163 32.0977 31.9163 32.0977 31.9163 32.0978C31.9163 32.0978 31.9163 32.0979 31.9163 32.0979C31.9163 32.098 31.9163 32.098 31.9163 32.0981C31.9163 32.0981 31.9163 32.0982 31.9163 32.0982C31.9163 32.0983 31.9163 32.0983 31.9163 32.0984C31.9163 32.0984 31.9163 32.0985 31.9163 32.0985C31.9163 32.0986 31.9163 32.0986 31.9163 32.0987C31.9163 32.0987 31.9163 32.0988 31.9163 32.0988C31.9163 32.0989 31.9163 32.099 31.9163 32.099C31.9163 32.0991 31.9163 32.0991 31.9163 32.0992C31.9163 32.0992 31.9163 32.0993 31.9163 32.0993C31.9163 32.0994 31.9163 32.0994 31.9163 32.0995C31.9163 32.0995 31.9163 32.0996 31.9163 32.0996C31.9163 32.0997 31.9163 32.0998 31.9163 32.0998C31.9163 32.0999 31.9163 32.0999 31.9163 32.1C31.9163 32.1 31.9163 32.1001 31.9163 32.1001C31.9163 32.1002 31.9163 32.1002 31.9163 32.1003C31.9163 32.1003 31.9163 32.1004 31.9163 32.1005C31.9163 32.1005 31.9163 32.1006 31.9163 32.1006C31.9163 32.1007 31.9163 32.1007 31.9163 32.1008C31.9163 32.1008 31.9163 32.1009 31.9163 32.101C31.9163 32.101 31.9163 32.1011 31.9163 32.1011C31.9163 32.1012 31.9163 32.1012 31.9163 32.1013C31.9163 32.1013 31.9163 32.1014 31.9163 32.1015C31.9163 32.1015 31.9163 32.1016 31.9163 32.1016C31.9163 32.1017 31.9163 32.1017 31.9163 32.1018C31.9163 32.1018 31.9163 32.1019 31.9163 32.102C31.9163 32.102 31.9163 32.1021 31.9163 32.1021C31.9163 32.1022 31.9163 32.1022 31.9163 32.1023C31.9163 32.1024 31.9163 32.1024 31.9163 32.1025C31.9163 32.1025 31.9163 32.1026 31.9163 32.1026C31.9163 32.1027 31.9163 32.1028 31.9163 32.1028C31.9163 32.1029 31.9163 32.1029 31.9163 32.103C31.9163 32.103 31.9163 32.1031 31.9163 32.1032C31.9163 32.1032 31.9163 32.1033 31.9163 32.1033C31.9163 32.1034 31.9163 32.1034 31.9163 32.1035C31.9163 32.1036 31.9163 32.1036 31.9163 32.1037C31.9163 32.1037 31.9163 32.1038 31.9163 32.1039C31.9163 32.1039 31.9163 32.104 31.9163 32.104C31.9163 32.1041 31.9163 32.1041 31.9163 32.1042C31.9163 32.1043 31.9163 32.1043 31.9163 32.1044C31.9163 32.1044 31.9163 32.1045 31.9163 32.1046C31.9163 32.1046 31.9163 32.1047 31.9163 32.1047C31.9163 32.1048 31.9163 32.1049 31.9163 32.1049C31.9163 32.105 31.9163 32.105 31.9163 32.1051C31.9163 32.1051 31.9163 32.1052 31.9163 32.1053C31.9163 32.1053 31.9163 32.1054 31.9163 32.1054C31.9163 32.1055 31.9163 32.1056 31.9163 32.1056C31.9163 32.1057 31.9163 32.1057 31.9163 32.1058C31.9163 32.1059 31.9163 32.1059 31.9163 32.106C31.9163 32.106 31.9163 32.1061 31.9163 32.1062C31.9163 32.1062 31.9163 32.1063 31.9163 32.1064C31.9163 32.1064 31.9163 32.1065 31.9163 32.1065C31.9163 32.1066 31.9163 32.1067 31.9163 32.1067C31.9163 32.1068 31.9163 32.1068 31.9163 32.1069C31.9163 32.107 31.9163 32.107 31.9163 32.1071C31.9163 32.1071 31.9163 32.1072 31.9163 32.1073C31.9163 32.1073 31.9163 32.1074 31.9163 32.1075C31.9163 32.1075 31.9163 32.1076 31.9163 32.1076C31.9163 32.1077 31.9163 32.1078 31.9163 32.1078C31.9163 32.1079 31.9163 32.1079 31.9163 32.108C31.9163 32.1081 31.9163 32.1081 31.9163 32.1082C31.9163 32.1083 31.9163 32.1083 31.9163 32.1084C31.9163 32.1084 31.9163 32.1085 31.9163 32.1086C31.9163 32.1086 31.9163 32.1087 31.9163 32.1088C31.9163 32.1088 31.9163 32.1089 31.9163 32.1089C31.9163 32.109 31.9163 32.1091 31.9163 32.1091C31.9163 32.1092 31.9163 32.1093 31.9163 32.1093C31.9163 32.1094 31.9163 32.1094 31.9163 32.1095C31.9163 32.1096 31.9163 32.1096 31.9163 32.1097C31.9163 32.1098 31.9163 32.1098 31.9163 32.1099C31.9163 32.11 31.9163 32.11 31.9163 32.1101C31.9163 32.1101 31.9163 32.1102 31.9163 32.1103C31.9163 32.1103 31.9163 32.1104 31.9163 32.1105C31.9163 32.1105 31.9163 32.1106 31.9163 32.1107C31.9163 32.1107 31.9163 32.1108 31.9163 32.1108C31.9163 32.1109 31.9163 32.111 31.9163 32.111C31.9163 32.1111 31.9163 32.1112 31.9163 32.1112C31.9163 32.1113 31.9163 32.1114 31.9163 32.1114C31.9163 32.1115 31.9163 32.1116 31.9163 32.1116C31.9163 32.1117 31.9163 32.1118 31.9163 32.1118C31.9163 32.1119 31.9163 32.1119 31.9163 32.112C31.9163 32.1121 31.9163 32.1121 31.9163 32.1122C31.9163 32.1123 31.9163 32.1123 31.9163 32.1124C31.9163 32.1125 31.9163 32.1125 31.9163 32.1126C31.9163 32.1127 31.9163 32.1127 31.9163 32.1128C31.9163 32.1129 31.9163 32.1129 31.9163 32.113C31.9163 32.1131 31.9163 32.1131 31.9163 32.1132C31.9163 32.1133 31.9163 32.1133 31.9163 32.1134C31.9163 32.1135 31.9163 32.1135 31.9163 32.1136C31.9163 32.1137 31.9163 32.1137 31.9163 32.1138C31.9163 32.1138 31.9163 32.1139 31.9163 32.114C31.9163 32.114 31.9163 32.1141 31.9163 32.1142C31.9163 32.1142 31.9163 32.1143 31.9163 32.1144C31.9163 32.1144 31.9163 32.1145 31.9163 32.1146C31.9163 32.1146 31.9163 32.1147 31.9163 32.1148C31.9163 32.1148 31.9163 32.1149 31.9163 32.115C31.9163 32.115 31.9163 32.1151 31.9163 32.1152C31.9163 32.1152 31.9163 32.1153 31.9163 32.1154C31.9163 32.1154 31.9163 32.1155 31.9163 32.1156C31.9163 32.1156 31.9163 32.1157 31.9163 32.1158C31.9163 32.1158 31.9163 32.1159 31.9163 32.116C31.9163 32.1161 31.9163 32.1161 31.9163 32.1162C31.9163 32.1163 31.9163 32.1163 31.9163 32.1164C31.9163 32.1165 31.9163 32.1165 31.9163 32.1166C31.9163 32.1167 31.9163 32.1167 31.9163 32.1168C31.9163 32.1169 31.9163 32.1169 31.9163 32.117C31.9163 32.1171 31.9163 32.1171 31.9163 32.1172C31.9163 32.1173 31.9163 32.1173 31.9163 32.1174C31.9163 32.1175 31.9163 32.1175 31.9163 32.1176C31.9163 32.1177 31.9163 32.1177 31.9163 32.1178C31.9163 32.1179 31.9163 32.118 31.9163 32.118C31.9163 32.1181 31.9163 32.1182 31.9163 32.1182C31.9163 32.1183 31.9163 32.1184 31.9163 32.1184C31.9163 32.1185 31.9163 32.1186 31.9163 32.1186C31.9163 32.1187 31.9163 32.1188 31.9163 32.1188C31.9163 32.1189 31.9163 32.119 31.9163 32.1191C31.9163 32.1191 31.9163 32.1192 31.9163 32.1193C31.9163 32.1193 31.9163 32.1194 31.9163 32.1195C31.9163 32.1195 31.9163 32.1196 31.9163 32.1197C31.9163 32.1197 31.9163 32.1198 31.9163 32.1199C31.9163 32.1199 31.9163 32.12 31.9163 32.1201C31.9163 32.1202 31.9163 32.1202 31.9163 32.1203C31.9163 32.1204 31.9163 32.1204 31.9163 32.1205C31.9163 32.1206 31.9163 32.1206 31.9163 32.1207C31.9163 32.1208 31.9163 32.1208 31.9163 32.1209C31.9163 32.121 31.9163 32.1211 31.9163 32.1211C31.9163 32.1212 31.9163 32.1213 31.9163 32.1213C31.9163 32.1214 31.9163 32.1215 31.9163 32.1215C31.9163 32.1216 31.9163 32.1217 31.9163 32.1218C31.9163 32.1218 31.9163 32.1219 31.9163 32.122C31.9163 32.122 31.9163 32.1221 31.9163 32.1222C31.9163 32.1222 31.9163 32.1223 31.9163 32.1224C31.9163 32.1225 31.9163 32.1225 31.9163 32.1226C31.9163 32.1227 31.9163 32.1227 31.9163 32.1228C31.9163 32.1229 31.9163 32.1229 31.9163 32.123C31.9163 32.1231 31.9163 32.1232 31.9163 32.1232C31.9163 32.1233 31.9163 32.1234 31.9163 32.1234C31.9163 32.1235 31.9163 32.1236 31.9163 32.1237C31.9163 32.1237 31.9163 32.1238 31.9163 32.1239C31.9163 32.1239 31.9163 32.124 31.9163 32.1241C31.9163 32.1241 31.9163 32.1242 31.9163 32.1243C31.9163 32.1244 31.9163 32.1244 31.9163 32.1245C31.9163 32.1246 31.9163 32.1246 31.9163 32.1247C31.9163 32.1248 31.9163 32.1249 31.9163 32.1249C31.9163 32.125 31.9163 32.1251 31.9163 32.1251C31.9163 32.1252 31.9163 32.1253 31.9163 32.1254C31.9163 32.1254 31.9163 32.1255 31.9163 32.1256C31.9163 32.1256 31.9163 32.1257 31.9163 32.1258C31.9163 32.1259 31.9163 32.1259 31.9163 32.126C31.9163 32.1261 31.9163 32.1261 31.9163 32.1262C31.9163 32.1263 31.9163 32.1264 31.9163 32.1264C31.9163 32.1265 31.9163 32.1266 31.9163 32.1266C31.9163 32.1267 31.9163 32.1268 31.9163 32.1269C31.9163 32.1269 31.9163 32.127 31.9163 32.1271C31.9163 32.1271 31.9163 32.1272 31.9163 32.1273C31.9163 32.1274 31.9163 32.1274 31.9163 32.1275C31.9163 32.1276 31.9163 32.1276 31.9163 32.1277C31.9163 32.1278 31.9163 32.1279 31.9163 32.1279C31.9163 32.128 31.9163 32.1281 31.9163 32.1281C31.9163 32.1282 31.9163 32.1283 31.9163 32.1284C31.9163 32.1284 31.9163 32.1285 31.9163 32.1286C31.9163 32.1286 31.9163 32.1287 31.9163 32.1288C31.9163 32.1289 31.9163 32.1289 31.9163 32.129C31.9163 32.1291 31.9163 32.1292 31.9163 32.1292C31.9163 32.1293 31.9163 32.1294 31.9163 32.1294C31.9163 32.1295 31.9163 32.1296 31.9163 32.1297C31.9163 32.1297 31.9163 32.1298 31.9163 32.1299C31.9163 32.1299 31.9163 32.13 31.9163 32.1301C31.9163 32.1302 31.9163 32.1302 31.9163 32.1303C31.9163 32.1304 31.9163 32.1305 31.9163 32.1305C31.9163 32.1306 31.9163 32.1307 31.9163 32.1307C31.9163 32.1308 31.9163 32.1309 31.9163 32.131C31.9163 32.131 31.9163 32.1311 31.9163 32.1312C31.9163 32.1312 31.9163 32.1313 31.9163 32.1314C31.9163 32.1315 31.9163 32.1315 31.9163 32.1316C31.9163 32.1317 31.9163 32.1318 31.9163 32.1318C31.9163 32.1319 31.9163 32.132 31.9163 32.132C31.9163 32.1321 31.9163 32.1322 31.9163 32.1323C31.9163 32.1323 31.9163 32.1324 31.9163 32.1325C31.9163 32.1326 31.9163 32.1326 31.9163 32.1327C31.9163 32.1328 31.9163 32.1328 31.9163 32.1329C31.9163 32.133 31.9163 32.1331 31.9163 32.1331C31.9163 32.1332 31.9163 32.1333 31.9163 32.1334C31.9163 32.1334 31.9163 32.1335 31.9163 32.1336C31.9163 32.1336 31.9163 32.1337 31.9163 32.1338C31.9163 32.1339 31.9163 32.1339 31.9163 32.134C31.9163 32.1341 31.9163 32.1342 31.9163 32.1342C31.9163 32.1343 31.9163 32.1344 31.9163 32.1344C31.9163 32.1345 31.9163 32.1346 31.9163 32.1347C31.9163 32.1347 31.9163 32.1348 31.9163 32.1349C31.9163 32.135 31.9163 32.135 31.9163 32.1351C31.9163 32.1352 31.9163 32.1352 31.9163 32.1353C31.9163 32.1354 31.9163 32.1355 31.9163 32.1355C31.9163 32.1356 31.9163 32.1357 31.9163 32.1358C31.9163 32.1358 31.9163 32.1359 31.9163 32.136C31.9163 32.136 31.9163 32.1361 31.9163 32.1362C31.9163 32.1363 31.9163 32.1363 31.9163 32.1364C31.9163 32.1365 31.9163 32.1366 31.9163 32.1366C31.9163 32.1367 31.9163 32.1368 31.9163 32.1369C31.9163 32.1369 31.9163 32.137 31.9163 32.1371C31.9163 32.1371 31.9163 32.1372 31.9163 32.1373C31.9163 32.1374 31.9163 32.1374 31.9163 32.1375C31.9163 32.1376 31.9163 32.1377 31.9163 32.1377C31.9163 32.1378 31.9163 32.1379 31.9163 32.1379C31.9163 32.138 31.9163 32.1381 31.9163 32.1382C31.9163 32.1382 31.9163 32.1383 31.9163 32.1384C31.9163 32.1385 31.9163 32.1385 31.9163 32.1386C31.9163 32.1387 31.9163 32.1387 31.9163 32.1388C31.9163 32.1389 31.9163 32.139 31.9163 32.139C31.9163 32.1391 31.9163 32.1392 31.9163 32.1393C31.9163 32.1393 31.9163 32.1394 31.9163 32.1395C31.9163 32.1396 31.9163 32.1396 31.9163 32.1397C31.9163 32.1398 31.9163 32.1398 31.9163 32.1399C31.9163 32.14 31.9163 32.1401 31.9163 32.1401C31.9163 32.1402 31.9163 32.1403 31.9163 32.1404C31.9163 32.1404 31.9163 32.1405 31.9163 32.1406C31.9163 32.1406 31.9163 32.1407 31.9163 32.1408C31.9163 32.1409 31.9163 32.1409 31.9163 32.141C31.9163 32.1411 31.9163 32.1412 31.9163 32.1412C31.9163 32.1413 31.9163 32.1414 31.9163 32.1414C31.9163 32.1415 31.9163 32.1416 31.9163 32.1417C31.9163 32.1417 31.9163 32.1418 31.9163 32.1419C31.9163 32.142 31.9163 32.142 31.9163 32.1421C31.9163 32.1422 31.9163 32.1422 31.9163 32.1423C31.9163 32.1424 31.9163 32.1425 31.9163 32.1425C31.9163 32.1426 31.9163 32.1427 31.9163 32.1428C31.9163 32.1428 31.9163 32.1429 31.9163 32.143C31.9163 32.143 31.9163 32.1431 31.9163 32.1432C31.9163 32.1433 31.9163 32.1433 31.9163 32.1434C31.9163 32.1435 31.9163 32.1436 31.9163 32.1436C31.9163 32.1437 31.9163 32.1438 31.9163 32.1438C31.9163 32.1439 31.9163 32.144 31.9163 32.1441C31.9163 32.1441 31.9163 32.1442 31.9163 32.1443C31.9163 32.1444 31.9163 32.1444 31.9163 32.1445C31.9163 32.1446 31.9163 32.1446 31.9163 32.1447C31.9163 32.1448 31.9163 32.1449 31.9163 32.1449C31.9163 32.145 31.9163 32.1451 31.9163 32.1452C31.9163 32.1452 31.9163 32.1453 31.9163 32.1454C31.9163 32.1454 31.9163 32.1455 31.9163 32.1456C31.9163 32.1457 31.9163 32.1457 31.9163 32.1458C31.9163 32.1459 31.9163 32.146 31.9163 32.146C31.9163 32.1461 31.9163 32.1462 31.9163 32.1462C31.9163 32.1463 31.9163 32.1464 31.9163 32.1465C31.9163 32.1465 31.9163 32.1466 31.9163 32.1467C31.9163 32.1467 31.9163 32.1468 31.9163 32.1469C31.9163 32.147 31.9163 32.147 31.9163 32.1471C31.9163 32.1472 31.9163 32.1473 31.9163 32.1473C31.9163 32.1474 31.9163 32.1475 31.9163 32.1475C31.9163 32.1476 31.9163 32.1477 31.9163 32.1478C31.9163 32.1478 31.9163 32.1479 31.9163 32.148C31.9163 32.148 31.9163 32.1481 31.9163 32.1482C31.9163 32.1483 31.9163 32.1483 31.9163 32.1484C31.9163 32.1485 31.9163 32.1485 31.9163 32.1486C31.9163 32.1487 31.9163 32.1488 31.9163 32.1488C31.9163 32.1489 31.9163 32.149 31.9163 32.149C31.9163 32.1491 31.9163 32.1492 31.9163 32.1493C31.9163 32.1493 31.9163 32.1494 31.9163 32.1495C31.9163 32.1496 31.9163 32.1496 31.9163 32.1497C31.9163 32.1498 31.9163 32.1498 31.9163 32.1499C31.9163 32.15 31.9163 32.1501 31.9163 32.1501C31.9163 32.1502 31.9163 32.1503 31.9163 32.1503C31.9163 32.1504 31.9163 32.1505 31.9163 32.1506C31.9163 32.1506 31.9163 32.1507 31.9163 32.1508C31.9163 32.1508 31.9163 32.1509 31.9163 32.151C31.9163 32.1511 31.9163 32.1511 31.9163 32.1512C31.9163 32.1513 31.9163 32.1513 31.9163 32.1514C31.9163 32.1515 31.9163 32.1515 31.9163 32.1516C31.9163 32.1517 31.9163 32.1518 31.9163 32.1518C31.9163 32.1519 31.9163 32.152 31.9163 32.152C31.9163 32.1521 31.9163 32.1522 31.9163 32.1523C31.9163 32.1523 31.9163 32.1524 31.9163 32.1525C31.9163 32.1525 31.9163 32.1526 31.9163 32.1527C31.9163 32.1528 31.9163 32.1528 31.9163 32.1529C31.9163 32.153 31.9163 32.153 31.9163 32.1531C31.9163 32.1532 31.9163 32.1532 31.9163 32.1533C31.9163 32.1534 31.9163 32.1535 31.9163 32.1535C31.9163 32.1536 31.9163 32.1537 31.9163 32.1537C31.9163 32.1538 31.9163 32.1539 31.9163 32.154C31.9163 32.154 31.9163 32.1541 31.9163 32.1542C31.9163 32.1542 31.9163 32.1543 31.9163 32.1544C31.9163 32.1544 31.9163 32.1545 31.9163 32.1546C31.9163 32.1547 31.9163 32.1547 31.9163 32.1548C31.9163 32.1549 31.9163 32.1549 31.9163 32.155C31.9163 32.1551 31.9163 32.1551 31.9163 32.1552C31.9163 32.1553 31.9163 32.1554 31.9163 32.1554C31.9163 32.1555 31.9163 32.1556 31.9163 32.1556C31.9163 32.1557 31.9163 32.1558 31.9163 32.1558C31.9163 32.1559 31.9163 32.156 31.9163 32.156C31.9163 32.1561 31.9163 32.1562 31.9163 32.1563C31.9163 32.1563 31.9163 32.1564 31.9163 32.1565C31.9163 32.1565 31.9163 32.1566 31.9163 32.1567C31.9163 32.1567 31.9163 32.1568 31.9163 32.1569C31.9163 32.157 31.9163 32.157 31.9163 32.1571C31.9163 32.1572 31.9163 32.1572 31.9163 32.1573C31.9163 32.1574 31.9163 32.1574 31.9163 32.1575C31.9163 32.1576 31.9163 32.1576 31.9163 32.1577C31.9163 32.1578 31.9163 32.1578 31.9163 32.1579C31.9163 32.158 31.9163 32.1581 31.9163 32.1581C31.9163 32.1582 31.9163 32.1583 31.9163 32.1583C31.9163 32.1584 31.9163 32.1585 31.9163 32.1585C31.9163 32.1586 31.9163 32.1587 31.9163 32.1587C31.9163 32.1588 31.9163 32.1589 31.9163 32.1589C31.9163 32.159 31.9163 32.1591 31.9163 32.1591C31.9163 32.1592 31.9163 32.1593 31.9163 32.1594C31.9163 32.1594 31.9163 32.1595 31.9163 32.1596C31.9163 32.1596 31.9163 32.1597 31.9163 32.1598C31.9163 32.1598 31.9163 32.1599 31.9163 32.16C31.9163 32.16 31.9163 32.1601 31.9163 32.1602C31.9163 32.1602 31.9163 32.1603 31.9163 32.1604C31.9163 32.1604 31.9163 32.1605 31.9163 32.1606C31.9163 32.1606 31.9163 32.1607 31.9163 32.1608C31.9163 32.1608 31.9163 32.1609 31.9163 32.161C31.9163 32.161 31.9163 32.1611 31.9163 32.1612C31.9163 32.1612 31.9163 32.1613 31.9163 32.1614C31.9163 32.1614 31.9163 32.1615 31.9163 32.1616C31.9163 32.1616 31.9163 32.1617 31.9163 32.1618C31.9163 32.1618 31.9163 32.1619 31.9163 32.162C31.9163 32.162 31.9163 32.1621 31.9163 32.1622C31.9163 32.1622 31.9163 32.1623 31.9163 32.1624C31.9163 32.1624 31.9163 32.1625 31.9163 32.1626C31.9163 32.1626 31.9163 32.1627 31.9163 32.1628C31.9163 32.1628 31.9163 32.1629 31.9163 32.163C31.9163 32.163 31.9163 32.1631 31.9163 32.1632C31.9163 32.1632 31.9163 32.1633 31.9163 32.1634C31.9163 32.1634 31.9163 32.1635 31.9163 32.1636C31.9163 32.1636 31.9163 32.1637 31.9163 32.1638C31.9163 32.1638 31.9163 32.1639 31.9163 32.164C31.9163 32.164 31.9163 32.1641 31.9163 32.1642C31.9163 32.1642 31.9163 32.1643 31.9163 32.1643C31.9163 32.1644 31.9163 32.1645 31.9163 32.1645C31.9163 32.1646 31.9163 32.1647 31.9163 32.1647C31.9163 32.1648 31.9163 32.1649 31.9163 32.1649C31.9163 32.165 31.9163 32.1651 31.9163 32.1651C31.9163 32.1652 31.9163 32.1653 31.9163 32.1653C31.9163 32.1654 31.9163 32.1655 31.9163 32.1655C31.9163 32.1656 31.9163 32.1656 31.9163 32.1657C31.9163 32.1658 31.9163 32.1658 31.9163 32.1659C31.9163 32.166 31.9163 32.166 31.9163 32.1661C31.9163 32.1662 31.9163 32.1662 31.9163 32.1663C31.9163 32.1663 31.9163 32.1664 31.9163 32.1665C31.9163 32.1665 31.9163 32.1666 31.9163 32.1667H33.4163C33.4163 32.1666 33.4163 32.1665 33.4163 32.1665C33.4163 32.1664 33.4163 32.1663 33.4163 32.1663C33.4163 32.1662 33.4163 32.1662 33.4163 32.1661C33.4163 32.166 33.4163 32.166 33.4163 32.1659C33.4163 32.1658 33.4163 32.1658 33.4163 32.1657C33.4163 32.1656 33.4163 32.1656 33.4163 32.1655C33.4163 32.1655 33.4163 32.1654 33.4163 32.1653C33.4163 32.1653 33.4163 32.1652 33.4163 32.1651C33.4163 32.1651 33.4163 32.165 33.4163 32.1649C33.4163 32.1649 33.4163 32.1648 33.4163 32.1647C33.4163 32.1647 33.4163 32.1646 33.4163 32.1645C33.4163 32.1645 33.4163 32.1644 33.4163 32.1643C33.4163 32.1643 33.4163 32.1642 33.4163 32.1642C33.4163 32.1641 33.4163 32.164 33.4163 32.164C33.4163 32.1639 33.4163 32.1638 33.4163 32.1638C33.4163 32.1637 33.4163 32.1636 33.4163 32.1636C33.4163 32.1635 33.4163 32.1634 33.4163 32.1634C33.4163 32.1633 33.4163 32.1632 33.4163 32.1632C33.4163 32.1631 33.4163 32.163 33.4163 32.163C33.4163 32.1629 33.4163 32.1628 33.4163 32.1628C33.4163 32.1627 33.4163 32.1626 33.4163 32.1626C33.4163 32.1625 33.4163 32.1624 33.4163 32.1624C33.4163 32.1623 33.4163 32.1622 33.4163 32.1622C33.4163 32.1621 33.4163 32.162 33.4163 32.162C33.4163 32.1619 33.4163 32.1618 33.4163 32.1618C33.4163 32.1617 33.4163 32.1616 33.4163 32.1616C33.4163 32.1615 33.4163 32.1614 33.4163 32.1614C33.4163 32.1613 33.4163 32.1612 33.4163 32.1612C33.4163 32.1611 33.4163 32.161 33.4163 32.161C33.4163 32.1609 33.4163 32.1608 33.4163 32.1608C33.4163 32.1607 33.4163 32.1606 33.4163 32.1606C33.4163 32.1605 33.4163 32.1604 33.4163 32.1604C33.4163 32.1603 33.4163 32.1602 33.4163 32.1602C33.4163 32.1601 33.4163 32.16 33.4163 32.16C33.4163 32.1599 33.4163 32.1598 33.4163 32.1598C33.4163 32.1597 33.4163 32.1596 33.4163 32.1596C33.4163 32.1595 33.4163 32.1594 33.4163 32.1594C33.4163 32.1593 33.4163 32.1592 33.4163 32.1591C33.4163 32.1591 33.4163 32.159 33.4163 32.1589C33.4163 32.1589 33.4163 32.1588 33.4163 32.1587C33.4163 32.1587 33.4163 32.1586 33.4163 32.1585C33.4163 32.1585 33.4163 32.1584 33.4163 32.1583C33.4163 32.1583 33.4163 32.1582 33.4163 32.1581C33.4163 32.1581 33.4163 32.158 33.4163 32.1579C33.4163 32.1578 33.4163 32.1578 33.4163 32.1577C33.4163 32.1576 33.4163 32.1576 33.4163 32.1575C33.4163 32.1574 33.4163 32.1574 33.4163 32.1573C33.4163 32.1572 33.4163 32.1572 33.4163 32.1571C33.4163 32.157 33.4163 32.157 33.4163 32.1569C33.4163 32.1568 33.4163 32.1567 33.4163 32.1567C33.4163 32.1566 33.4163 32.1565 33.4163 32.1565C33.4163 32.1564 33.4163 32.1563 33.4163 32.1563C33.4163 32.1562 33.4163 32.1561 33.4163 32.156C33.4163 32.156 33.4163 32.1559 33.4163 32.1558C33.4163 32.1558 33.4163 32.1557 33.4163 32.1556C33.4163 32.1556 33.4163 32.1555 33.4163 32.1554C33.4163 32.1554 33.4163 32.1553 33.4163 32.1552C33.4163 32.1551 33.4163 32.1551 33.4163 32.155C33.4163 32.1549 33.4163 32.1549 33.4163 32.1548C33.4163 32.1547 33.4163 32.1547 33.4163 32.1546C33.4163 32.1545 33.4163 32.1544 33.4163 32.1544C33.4163 32.1543 33.4163 32.1542 33.4163 32.1542C33.4163 32.1541 33.4163 32.154 33.4163 32.154C33.4163 32.1539 33.4163 32.1538 33.4163 32.1537C33.4163 32.1537 33.4163 32.1536 33.4163 32.1535C33.4163 32.1535 33.4163 32.1534 33.4163 32.1533C33.4163 32.1532 33.4163 32.1532 33.4163 32.1531C33.4163 32.153 33.4163 32.153 33.4163 32.1529C33.4163 32.1528 33.4163 32.1528 33.4163 32.1527C33.4163 32.1526 33.4163 32.1525 33.4163 32.1525C33.4163 32.1524 33.4163 32.1523 33.4163 32.1523C33.4163 32.1522 33.4163 32.1521 33.4163 32.152C33.4163 32.152 33.4163 32.1519 33.4163 32.1518C33.4163 32.1518 33.4163 32.1517 33.4163 32.1516C33.4163 32.1515 33.4163 32.1515 33.4163 32.1514C33.4163 32.1513 33.4163 32.1513 33.4163 32.1512C33.4163 32.1511 33.4163 32.1511 33.4163 32.151C33.4163 32.1509 33.4163 32.1508 33.4163 32.1508C33.4163 32.1507 33.4163 32.1506 33.4163 32.1506C33.4163 32.1505 33.4163 32.1504 33.4163 32.1503C33.4163 32.1503 33.4163 32.1502 33.4163 32.1501C33.4163 32.1501 33.4163 32.15 33.4163 32.1499C33.4163 32.1498 33.4163 32.1498 33.4163 32.1497C33.4163 32.1496 33.4163 32.1496 33.4163 32.1495C33.4163 32.1494 33.4163 32.1493 33.4163 32.1493C33.4163 32.1492 33.4163 32.1491 33.4163 32.149C33.4163 32.149 33.4163 32.1489 33.4163 32.1488C33.4163 32.1488 33.4163 32.1487 33.4163 32.1486C33.4163 32.1485 33.4163 32.1485 33.4163 32.1484C33.4163 32.1483 33.4163 32.1483 33.4163 32.1482C33.4163 32.1481 33.4163 32.148 33.4163 32.148C33.4163 32.1479 33.4163 32.1478 33.4163 32.1478C33.4163 32.1477 33.4163 32.1476 33.4163 32.1475C33.4163 32.1475 33.4163 32.1474 33.4163 32.1473C33.4163 32.1473 33.4163 32.1472 33.4163 32.1471C33.4163 32.147 33.4163 32.147 33.4163 32.1469C33.4163 32.1468 33.4163 32.1467 33.4163 32.1467C33.4163 32.1466 33.4163 32.1465 33.4163 32.1465C33.4163 32.1464 33.4163 32.1463 33.4163 32.1462C33.4163 32.1462 33.4163 32.1461 33.4163 32.146C33.4163 32.146 33.4163 32.1459 33.4163 32.1458C33.4163 32.1457 33.4163 32.1457 33.4163 32.1456C33.4163 32.1455 33.4163 32.1454 33.4163 32.1454C33.4163 32.1453 33.4163 32.1452 33.4163 32.1452C33.4163 32.1451 33.4163 32.145 33.4163 32.1449C33.4163 32.1449 33.4163 32.1448 33.4163 32.1447C33.4163 32.1446 33.4163 32.1446 33.4163 32.1445C33.4163 32.1444 33.4163 32.1444 33.4163 32.1443C33.4163 32.1442 33.4163 32.1441 33.4163 32.1441C33.4163 32.144 33.4163 32.1439 33.4163 32.1438C33.4163 32.1438 33.4163 32.1437 33.4163 32.1436C33.4163 32.1436 33.4163 32.1435 33.4163 32.1434C33.4163 32.1433 33.4163 32.1433 33.4163 32.1432C33.4163 32.1431 33.4163 32.143 33.4163 32.143C33.4163 32.1429 33.4163 32.1428 33.4163 32.1428C33.4163 32.1427 33.4163 32.1426 33.4163 32.1425C33.4163 32.1425 33.4163 32.1424 33.4163 32.1423C33.4163 32.1422 33.4163 32.1422 33.4163 32.1421C33.4163 32.142 33.4163 32.142 33.4163 32.1419C33.4163 32.1418 33.4163 32.1417 33.4163 32.1417C33.4163 32.1416 33.4163 32.1415 33.4163 32.1414C33.4163 32.1414 33.4163 32.1413 33.4163 32.1412C33.4163 32.1412 33.4163 32.1411 33.4163 32.141C33.4163 32.1409 33.4163 32.1409 33.4163 32.1408C33.4163 32.1407 33.4163 32.1406 33.4163 32.1406C33.4163 32.1405 33.4163 32.1404 33.4163 32.1404C33.4163 32.1403 33.4163 32.1402 33.4163 32.1401C33.4163 32.1401 33.4163 32.14 33.4163 32.1399C33.4163 32.1398 33.4163 32.1398 33.4163 32.1397C33.4163 32.1396 33.4163 32.1396 33.4163 32.1395C33.4163 32.1394 33.4163 32.1393 33.4163 32.1393C33.4163 32.1392 33.4163 32.1391 33.4163 32.139C33.4163 32.139 33.4163 32.1389 33.4163 32.1388C33.4163 32.1387 33.4163 32.1387 33.4163 32.1386C33.4163 32.1385 33.4163 32.1385 33.4163 32.1384C33.4163 32.1383 33.4163 32.1382 33.4163 32.1382C33.4163 32.1381 33.4163 32.138 33.4163 32.1379C33.4163 32.1379 33.4163 32.1378 33.4163 32.1377C33.4163 32.1377 33.4163 32.1376 33.4163 32.1375C33.4163 32.1374 33.4163 32.1374 33.4163 32.1373C33.4163 32.1372 33.4163 32.1371 33.4163 32.1371C33.4163 32.137 33.4163 32.1369 33.4163 32.1369C33.4163 32.1368 33.4163 32.1367 33.4163 32.1366C33.4163 32.1366 33.4163 32.1365 33.4163 32.1364C33.4163 32.1363 33.4163 32.1363 33.4163 32.1362C33.4163 32.1361 33.4163 32.136 33.4163 32.136C33.4163 32.1359 33.4163 32.1358 33.4163 32.1358C33.4163 32.1357 33.4163 32.1356 33.4163 32.1355C33.4163 32.1355 33.4163 32.1354 33.4163 32.1353C33.4163 32.1352 33.4163 32.1352 33.4163 32.1351C33.4163 32.135 33.4163 32.135 33.4163 32.1349C33.4163 32.1348 33.4163 32.1347 33.4163 32.1347C33.4163 32.1346 33.4163 32.1345 33.4163 32.1344C33.4163 32.1344 33.4163 32.1343 33.4163 32.1342C33.4163 32.1342 33.4163 32.1341 33.4163 32.134C33.4163 32.1339 33.4163 32.1339 33.4163 32.1338C33.4163 32.1337 33.4163 32.1336 33.4163 32.1336C33.4163 32.1335 33.4163 32.1334 33.4163 32.1334C33.4163 32.1333 33.4163 32.1332 33.4163 32.1331C33.4163 32.1331 33.4163 32.133 33.4163 32.1329C33.4163 32.1328 33.4163 32.1328 33.4163 32.1327C33.4163 32.1326 33.4163 32.1326 33.4163 32.1325C33.4163 32.1324 33.4163 32.1323 33.4163 32.1323C33.4163 32.1322 33.4163 32.1321 33.4163 32.132C33.4163 32.132 33.4163 32.1319 33.4163 32.1318C33.4163 32.1318 33.4163 32.1317 33.4163 32.1316C33.4163 32.1315 33.4163 32.1315 33.4163 32.1314C33.4163 32.1313 33.4163 32.1312 33.4163 32.1312C33.4163 32.1311 33.4163 32.131 33.4163 32.131C33.4163 32.1309 33.4163 32.1308 33.4163 32.1307C33.4163 32.1307 33.4163 32.1306 33.4163 32.1305C33.4163 32.1305 33.4163 32.1304 33.4163 32.1303C33.4163 32.1302 33.4163 32.1302 33.4163 32.1301C33.4163 32.13 33.4163 32.1299 33.4163 32.1299C33.4163 32.1298 33.4163 32.1297 33.4163 32.1297C33.4163 32.1296 33.4163 32.1295 33.4163 32.1294C33.4163 32.1294 33.4163 32.1293 33.4163 32.1292C33.4163 32.1292 33.4163 32.1291 33.4163 32.129C33.4163 32.1289 33.4163 32.1289 33.4163 32.1288C33.4163 32.1287 33.4163 32.1286 33.4163 32.1286C33.4163 32.1285 33.4163 32.1284 33.4163 32.1284C33.4163 32.1283 33.4163 32.1282 33.4163 32.1281C33.4163 32.1281 33.4163 32.128 33.4163 32.1279C33.4163 32.1279 33.4163 32.1278 33.4163 32.1277C33.4163 32.1276 33.4163 32.1276 33.4163 32.1275C33.4163 32.1274 33.4163 32.1274 33.4163 32.1273C33.4163 32.1272 33.4163 32.1271 33.4163 32.1271C33.4163 32.127 33.4163 32.1269 33.4163 32.1269C33.4163 32.1268 33.4163 32.1267 33.4163 32.1266C33.4163 32.1266 33.4163 32.1265 33.4163 32.1264C33.4163 32.1264 33.4163 32.1263 33.4163 32.1262C33.4163 32.1261 33.4163 32.1261 33.4163 32.126C33.4163 32.1259 33.4163 32.1259 33.4163 32.1258C33.4163 32.1257 33.4163 32.1256 33.4163 32.1256C33.4163 32.1255 33.4163 32.1254 33.4163 32.1254C33.4163 32.1253 33.4163 32.1252 33.4163 32.1251C33.4163 32.1251 33.4163 32.125 33.4163 32.1249C33.4163 32.1249 33.4163 32.1248 33.4163 32.1247C33.4163 32.1246 33.4163 32.1246 33.4163 32.1245C33.4163 32.1244 33.4163 32.1244 33.4163 32.1243C33.4163 32.1242 33.4163 32.1241 33.4163 32.1241C33.4163 32.124 33.4163 32.1239 33.4163 32.1239C33.4163 32.1238 33.4163 32.1237 33.4163 32.1237C33.4163 32.1236 33.4163 32.1235 33.4163 32.1234C33.4163 32.1234 33.4163 32.1233 33.4163 32.1232C33.4163 32.1232 33.4163 32.1231 33.4163 32.123C33.4163 32.1229 33.4163 32.1229 33.4163 32.1228C33.4163 32.1227 33.4163 32.1227 33.4163 32.1226C33.4163 32.1225 33.4163 32.1225 33.4163 32.1224C33.4163 32.1223 33.4163 32.1222 33.4163 32.1222C33.4163 32.1221 33.4163 32.122 33.4163 32.122C33.4163 32.1219 33.4163 32.1218 33.4163 32.1218C33.4163 32.1217 33.4163 32.1216 33.4163 32.1215C33.4163 32.1215 33.4163 32.1214 33.4163 32.1213C33.4163 32.1213 33.4163 32.1212 33.4163 32.1211C33.4163 32.1211 33.4163 32.121 33.4163 32.1209C33.4163 32.1208 33.4163 32.1208 33.4163 32.1207C33.4163 32.1206 33.4163 32.1206 33.4163 32.1205C33.4163 32.1204 33.4163 32.1204 33.4163 32.1203C33.4163 32.1202 33.4163 32.1202 33.4163 32.1201C33.4163 32.12 33.4163 32.1199 33.4163 32.1199C33.4163 32.1198 33.4163 32.1197 33.4163 32.1197C33.4163 32.1196 33.4163 32.1195 33.4163 32.1195C33.4163 32.1194 33.4163 32.1193 33.4163 32.1193C33.4163 32.1192 33.4163 32.1191 33.4163 32.1191C33.4163 32.119 33.4163 32.1189 33.4163 32.1188C33.4163 32.1188 33.4163 32.1187 33.4163 32.1186C33.4163 32.1186 33.4163 32.1185 33.4163 32.1184C33.4163 32.1184 33.4163 32.1183 33.4163 32.1182C33.4163 32.1182 33.4163 32.1181 33.4163 32.118C33.4163 32.118 33.4163 32.1179 33.4163 32.1178C33.4163 32.1177 33.4163 32.1177 33.4163 32.1176C33.4163 32.1175 33.4163 32.1175 33.4163 32.1174C33.4163 32.1173 33.4163 32.1173 33.4163 32.1172C33.4163 32.1171 33.4163 32.1171 33.4163 32.117C33.4163 32.1169 33.4163 32.1169 33.4163 32.1168C33.4163 32.1167 33.4163 32.1167 33.4163 32.1166C33.4163 32.1165 33.4163 32.1165 33.4163 32.1164C33.4163 32.1163 33.4163 32.1163 33.4163 32.1162C33.4163 32.1161 33.4163 32.1161 33.4163 32.116C33.4163 32.1159 33.4163 32.1158 33.4163 32.1158C33.4163 32.1157 33.4163 32.1156 33.4163 32.1156C33.4163 32.1155 33.4163 32.1154 33.4163 32.1154C33.4163 32.1153 33.4163 32.1152 33.4163 32.1152C33.4163 32.1151 33.4163 32.115 33.4163 32.115C33.4163 32.1149 33.4163 32.1148 33.4163 32.1148C33.4163 32.1147 33.4163 32.1146 33.4163 32.1146C33.4163 32.1145 33.4163 32.1144 33.4163 32.1144C33.4163 32.1143 33.4163 32.1142 33.4163 32.1142C33.4163 32.1141 33.4163 32.114 33.4163 32.114C33.4163 32.1139 33.4163 32.1138 33.4163 32.1138C33.4163 32.1137 33.4163 32.1137 33.4163 32.1136C33.4163 32.1135 33.4163 32.1135 33.4163 32.1134C33.4163 32.1133 33.4163 32.1133 33.4163 32.1132C33.4163 32.1131 33.4163 32.1131 33.4163 32.113C33.4163 32.1129 33.4163 32.1129 33.4163 32.1128C33.4163 32.1127 33.4163 32.1127 33.4163 32.1126C33.4163 32.1125 33.4163 32.1125 33.4163 32.1124C33.4163 32.1123 33.4163 32.1123 33.4163 32.1122C33.4163 32.1121 33.4163 32.1121 33.4163 32.112C33.4163 32.1119 33.4163 32.1119 33.4163 32.1118C33.4163 32.1118 33.4163 32.1117 33.4163 32.1116C33.4163 32.1116 33.4163 32.1115 33.4163 32.1114C33.4163 32.1114 33.4163 32.1113 33.4163 32.1112C33.4163 32.1112 33.4163 32.1111 33.4163 32.111C33.4163 32.111 33.4163 32.1109 33.4163 32.1108C33.4163 32.1108 33.4163 32.1107 33.4163 32.1107C33.4163 32.1106 33.4163 32.1105 33.4163 32.1105C33.4163 32.1104 33.4163 32.1103 33.4163 32.1103C33.4163 32.1102 33.4163 32.1101 33.4163 32.1101C33.4163 32.11 33.4163 32.11 33.4163 32.1099C33.4163 32.1098 33.4163 32.1098 33.4163 32.1097C33.4163 32.1096 33.4163 32.1096 33.4163 32.1095C33.4163 32.1094 33.4163 32.1094 33.4163 32.1093C33.4163 32.1093 33.4163 32.1092 33.4163 32.1091C33.4163 32.1091 33.4163 32.109 33.4163 32.1089C33.4163 32.1089 33.4163 32.1088 33.4163 32.1088C33.4163 32.1087 33.4163 32.1086 33.4163 32.1086C33.4163 32.1085 33.4163 32.1084 33.4163 32.1084C33.4163 32.1083 33.4163 32.1083 33.4163 32.1082C33.4163 32.1081 33.4163 32.1081 33.4163 32.108C33.4163 32.1079 33.4163 32.1079 33.4163 32.1078C33.4163 32.1078 33.4163 32.1077 33.4163 32.1076C33.4163 32.1076 33.4163 32.1075 33.4163 32.1075C33.4163 32.1074 33.4163 32.1073 33.4163 32.1073C33.4163 32.1072 33.4163 32.1071 33.4163 32.1071C33.4163 32.107 33.4163 32.107 33.4163 32.1069C33.4163 32.1068 33.4163 32.1068 33.4163 32.1067C33.4163 32.1067 33.4163 32.1066 33.4163 32.1065C33.4163 32.1065 33.4163 32.1064 33.4163 32.1064C33.4163 32.1063 33.4163 32.1062 33.4163 32.1062C33.4163 32.1061 33.4163 32.106 33.4163 32.106C33.4163 32.1059 33.4163 32.1059 33.4163 32.1058C33.4163 32.1057 33.4163 32.1057 33.4163 32.1056C33.4163 32.1056 33.4163 32.1055 33.4163 32.1054C33.4163 32.1054 33.4163 32.1053 33.4163 32.1053C33.4163 32.1052 33.4163 32.1051 33.4163 32.1051C33.4163 32.105 33.4163 32.105 33.4163 32.1049C33.4163 32.1049 33.4163 32.1048 33.4163 32.1047C33.4163 32.1047 33.4163 32.1046 33.4163 32.1046C33.4163 32.1045 33.4163 32.1044 33.4163 32.1044C33.4163 32.1043 33.4163 32.1043 33.4163 32.1042C33.4163 32.1041 33.4163 32.1041 33.4163 32.104C33.4163 32.104 33.4163 32.1039 33.4163 32.1039C33.4163 32.1038 33.4163 32.1037 33.4163 32.1037C33.4163 32.1036 33.4163 32.1036 33.4163 32.1035C33.4163 32.1034 33.4163 32.1034 33.4163 32.1033C33.4163 32.1033 33.4163 32.1032 33.4163 32.1032C33.4163 32.1031 33.4163 32.103 33.4163 32.103C33.4163 32.1029 33.4163 32.1029 33.4163 32.1028C33.4163 32.1028 33.4163 32.1027 33.4163 32.1026C33.4163 32.1026 33.4163 32.1025 33.4163 32.1025C33.4163 32.1024 33.4163 32.1024 33.4163 32.1023C33.4163 32.1022 33.4163 32.1022 33.4163 32.1021C33.4163 32.1021 33.4163 32.102 33.4163 32.102C33.4163 32.1019 33.4163 32.1018 33.4163 32.1018C33.4163 32.1017 33.4163 32.1017 33.4163 32.1016C33.4163 32.1016 33.4163 32.1015 33.4163 32.1015C33.4163 32.1014 33.4163 32.1013 33.4163 32.1013C33.4163 32.1012 33.4163 32.1012 33.4163 32.1011C33.4163 32.1011 33.4163 32.101 33.4163 32.101C33.4163 32.1009 33.4163 32.1008 33.4163 32.1008C33.4163 32.1007 33.4163 32.1007 33.4163 32.1006C33.4163 32.1006 33.4163 32.1005 33.4163 32.1005C33.4163 32.1004 33.4163 32.1003 33.4163 32.1003C33.4163 32.1002 33.4163 32.1002 33.4163 32.1001C33.4163 32.1001 33.4163 32.1 33.4163 32.1C33.4163 32.0999 33.4163 32.0999 33.4163 32.0998C33.4163 32.0998 33.4163 32.0997 33.4163 32.0996C33.4163 32.0996 33.4163 32.0995 33.4163 32.0995C33.4163 32.0994 33.4163 32.0994 33.4163 32.0993C33.4163 32.0993 33.4163 32.0992 33.4163 32.0992C33.4163 32.0991 33.4163 32.0991 33.4163 32.099C33.4163 32.099 33.4163 32.0989 33.4163 32.0988C33.4163 32.0988 33.4163 32.0987 33.4163 32.0987C33.4163 32.0986 33.4163 32.0986 33.4163 32.0985C33.4163 32.0985 33.4163 32.0984 33.4163 32.0984C33.4163 32.0983 33.4163 32.0983 33.4163 32.0982C33.4163 32.0982 33.4163 32.0981 33.4163 32.0981C33.4163 32.098 33.4163 32.098 33.4163 32.0979C33.4163 32.0979 33.4163 32.0978 33.4163 32.0978C33.4163 32.0977 33.4163 32.0977 33.4163 32.0976C33.4163 32.0976 33.4163 32.0975 33.4163 32.0975C33.4163 32.0974 33.4163 32.0973 33.4163 32.0973C33.4163 32.0972 33.4163 32.0972 33.4163 32.0971C33.4163 32.0971 33.4163 32.097 33.4163 32.097C33.4163 32.0969 33.4163 32.0969 33.4163 32.0968C33.4163 32.0968 33.4163 32.0967 33.4163 32.0967C33.4163 32.0966 33.4163 32.0966 33.4163 32.0965C33.4163 32.0965 33.4163 32.0964 33.4163 32.0964C33.4163 32.0964 33.4163 32.0963 33.4163 32.0963C33.4163 32.0962 33.4163 32.0962 33.4163 32.0961C33.4163 32.0961 33.4163 32.096 33.4163 32.096C33.4163 32.0959 33.4163 32.0959 33.4163 32.0958C33.4163 32.0958 33.4163 32.0957 33.4163 32.0957C33.4163 32.0956 33.4163 32.0956 33.4163 32.0955C33.4163 32.0955 33.4163 32.0954 33.4163 32.0954C33.4163 32.0953 33.4163 32.0953 33.4163 32.0952C33.4163 32.0952 33.4163 32.0951 33.4163 32.0951C33.4163 32.095 33.4163 32.095 33.4163 32.095C33.4163 32.0949 33.4163 32.0949 33.4163 32.0948C33.4163 32.0948 33.4163 32.0947 33.4163 32.0947C33.4163 32.0946 33.4163 32.0946 33.4163 32.0945C33.4163 32.0945 33.4163 32.0944 33.4163 32.0944C33.4163 32.0944 33.4163 32.0943 33.4163 32.0943C33.4163 32.0942 33.4163 32.0942 33.4163 32.0941C33.4163 32.0941 33.4163 32.094 33.4163 32.094C33.4163 32.0939 33.4163 32.0939 33.4163 32.0938C33.4163 32.0938 33.4163 32.0938 33.4163 32.0937C33.4163 32.0937 33.4163 32.0936 33.4163 32.0936C33.4163 32.0935 33.4163 32.0935 33.4163 32.0934C33.4163 32.0934 33.4163 32.0934 33.4163 32.0933C33.4163 32.0933 33.4163 32.0932 33.4163 32.0932C33.4163 32.0931 33.4163 32.0931 33.4163 32.0931C33.4163 32.093 33.4163 32.093 33.4163 32.0929C33.4163 32.0929 33.4163 32.0928 33.4163 32.0928C33.4163 32.0927 33.4163 32.0927 33.4163 32.0927C33.4163 32.0926 33.4163 32.0926 33.4163 32.0925C33.4163 32.0925 33.4163 32.0924 33.4163 32.0924C33.4163 32.0924 33.4163 32.0923 33.4163 32.0923C33.4163 32.0922 33.4163 32.0922 33.4163 32.0922C33.4163 32.0921 33.4163 32.0921 33.4163 32.092C33.4163 32.092 33.4163 32.0919 33.4163 32.0919C33.4163 32.0919 33.4163 32.0918 33.4163 32.0918C33.4163 32.0917 33.4163 32.0917 33.4163 32.0917C33.4163 32.0916 33.4163 32.0916 33.4163 32.0915C33.4163 32.0915 33.4163 32.0915 33.4163 32.0914C33.4163 32.0914 33.4163 32.0913 33.4163 32.0913C33.4163 32.0912 33.4163 32.0912 33.4163 32.0912C33.4163 32.0911 33.4163 32.0911 33.4163 32.0911C33.4163 32.091 33.4163 32.091 33.4163 32.0909C33.4163 32.0909 33.4163 32.0909 33.4163 32.0908C33.4163 32.0908 33.4163 32.0907 33.4163 32.0907C33.4163 32.0907 33.4163 32.0906 33.4163 32.0906C33.4163 32.0905 33.4163 32.0905 33.4163 32.0905C33.4163 32.0904 33.4163 32.0904 33.4163 32.0904C33.4163 32.0903 33.4163 32.0903 33.4163 32.0902C33.4163 32.0902 33.4163 32.0902 33.4163 32.0901C33.4163 32.0901 33.4163 32.09 33.4163 32.09C33.4163 32.09 33.4163 32.0899 33.4163 32.0899C33.4163 32.0899 33.4163 32.0898 33.4163 32.0898C33.4163 32.0898 33.4163 32.0897 33.4163 32.0897C33.4163 32.0896 33.4163 32.0896 33.4163 32.0896C33.4163 32.0895 33.4163 32.0895 33.4163 32.0895C33.4163 32.0894 33.4163 32.0894 33.4163 32.0894C33.4163 32.0893 33.4163 32.0893 33.4163 32.0893C33.4163 32.0892 33.4163 32.0892 33.4163 32.0891C33.4163 32.0891 33.4163 32.0891 33.4163 32.089C33.4163 32.089 33.4163 32.089 33.4163 32.0889C33.4163 32.0889 33.4163 32.0889 33.4163 32.0888C33.4163 32.0888 33.4163 32.0888 33.4163 32.0887C33.4163 32.0887 33.4163 32.0887 33.4163 32.0886C33.4163 32.0886 33.4163 32.0886 33.4163 32.0885C33.4163 32.0885 33.4163 32.0885 33.4163 32.0884C33.4163 32.0884 33.4163 32.0884 33.4163 32.0883C33.4163 32.0883 33.4163 32.0883 33.4163 32.0882C33.4163 32.0882 33.4163 32.0882 33.4163 32.0881C33.4163 32.0881 33.4163 32.0881 33.4163 32.088C33.4163 32.088 33.4163 32.088 33.4163 32.0879C33.4163 32.0879 33.4163 32.0879 33.4163 32.0879C33.4163 32.0878 33.4163 32.0878 33.4163 32.0878C33.4163 32.0877 33.4163 32.0877 33.4163 32.0877C33.4163 32.0876 33.4163 32.0876 33.4163 32.0876C33.4163 32.0875 33.4163 32.0875 33.4163 32.0875C33.4163 32.0875 33.4163 32.0874 33.4163 32.0874C33.4163 32.0874 33.4163 32.0873 33.4163 32.0873C33.4163 32.0873 33.4163 32.0872 33.4163 32.0872C33.4163 32.0872 33.4163 32.0872 33.4163 32.0871C33.4163 32.0871 33.4163 32.0871 33.4163 32.087C33.4163 32.087 33.4163 32.087 33.4163 32.087C33.4163 32.0869 33.4163 32.0869 33.4163 32.0869C33.4163 32.0868 33.4163 32.0868 33.4163 32.0868C33.4163 32.0868 33.4163 32.0867 33.4163 32.0867C33.4163 32.0867 33.4163 32.0867 33.4163 32.0866C33.4163 32.0866 33.4163 32.0866 33.4163 32.0865C33.4163 32.0865 33.4163 32.0865 33.4163 32.0865C33.4163 32.0864 33.4163 32.0864 33.4163 32.0864C33.4163 32.0864 33.4163 32.0863 33.4163 32.0863C33.4163 32.0863 33.4163 32.0863 33.4163 32.0862C33.4163 32.0862 33.4163 32.0862 33.4163 32.0862C33.4163 32.0861 33.4163 32.0861 33.4163 32.0861C33.4163 32.0861 33.4163 32.086 33.4163 32.086C33.4163 32.086 33.4163 32.086 33.4163 32.0859C33.4163 32.0859 33.4163 32.0859 33.4163 32.0859C33.4163 32.0858 33.4163 32.0858 33.4163 32.0858C33.4163 32.0858 33.4163 32.0857 33.4163 32.0857C33.4163 32.0857 33.4163 32.0857 33.4163 32.0856C33.4163 32.0856 33.4163 32.0856 33.4163 32.0856C33.4163 32.0856 33.4163 32.0855 33.4163 32.0855C33.4163 32.0855 33.4163 32.0855 33.4163 32.0854C33.4163 32.0854 33.4163 32.0854 33.4163 32.0854C33.4163 32.0854 33.4163 32.0853 33.4163 32.0853C33.4163 32.0853 33.4163 32.0853 33.4163 32.0852C33.4163 32.0852 33.4163 32.0852 33.4163 32.0852C33.4163 32.0852 33.4163 32.0851 33.4163 32.0851C33.4163 32.0851 33.4163 32.0851 33.4163 32.0851C33.4163 32.085 33.4163 32.085 33.4163 32.085C33.4163 32.085 33.4163 32.085 33.4163 32.0849C33.4163 32.0849 33.4163 32.0849 33.4163 32.0849C33.4163 32.0849 33.4163 32.0849 33.4163 32.0848C33.4163 32.0848 33.4163 32.0848 33.4163 32.0848C33.4163 32.0848 33.4163 32.0847 33.4163 32.0847C33.4163 32.0847 33.4163 32.0847 33.4163 32.0847C33.4163 32.0847 33.4163 32.0846 33.4163 32.0846C33.4163 32.0846 33.4163 32.0846 33.4163 32.0846C33.4163 32.0845 33.4163 32.0845 33.4163 32.0845C33.4163 32.0845 33.4163 32.0845 33.4163 32.0845C33.4163 32.0844 33.4163 32.0844 33.4163 32.0844C33.4163 32.0844 33.4163 32.0844 33.4163 32.0844C33.4163 32.0844 33.4163 32.0843 33.4163 32.0843C33.4163 32.0843 33.4163 32.0843 33.4163 32.0843C33.4163 32.0843 33.4163 32.0842 33.4163 32.0842C33.4163 32.0842 33.4163 32.0842 33.4163 32.0842C33.4163 32.0842 33.4163 32.0842 33.4163 32.0841C33.4163 32.0841 33.4163 32.0841 33.4163 32.0841C33.4163 32.0841 33.4163 32.0841 33.4163 32.0841C33.4163 32.084 33.4163 32.084 33.4163 32.084C33.4163 32.084 33.4163 32.084 33.4163 32.084C33.4163 32.084 33.4163 32.084 33.4163 32.0839C33.4163 32.0839 33.4163 32.0839 33.4163 32.0839C33.4163 32.0839 33.4163 32.0839 33.4163 32.0839C33.4163 32.0839 33.4163 32.0839 33.4163 32.0838C33.4163 32.0838 33.4163 32.0838 33.4163 32.0838C33.4163 32.0838 33.4163 32.0838 33.4163 32.0838C33.4163 32.0838 33.4163 32.0838 33.4163 32.0837C33.4163 32.0837 33.4163 32.0837 33.4163 32.0837C33.4163 32.0837 33.4163 32.0837 33.4163 32.0837C33.4163 32.0837 33.4163 32.0837 33.4163 32.0837C33.4163 32.0837 33.4163 32.0836 33.4163 32.0836C33.4163 32.0836 33.4163 32.0836 33.4163 32.0836C33.4163 32.0836 33.4163 32.0836 33.4163 32.0836C33.4163 32.0836 33.4163 32.0836 33.4163 32.0836C33.4163 32.0836 33.4163 32.0835 33.4163 32.0835C33.4163 32.0835 33.4163 32.0835 33.4163 32.0835C33.4163 32.0835 33.4163 32.0835 33.4163 32.0835C33.4163 32.0835 33.4163 32.0835 33.4163 32.0835C33.4163 32.0835 33.4163 32.0835 33.4163 32.0835C33.4163 32.0835 33.4163 32.0835 33.4163 32.0834C33.4163 32.0834 33.4163 32.0834 33.4163 32.0834C33.4163 32.0834 33.4163 32.0834 33.4163 32.0834C33.4163 32.0834 33.4163 32.0834 33.4163 32.0834C33.4163 32.0834 33.4163 32.0834 33.4163 32.0834C33.4163 32.0834 33.4163 32.0834 33.4163 32.0834C33.4163 32.0834 33.4163 32.0834 33.4163 32.0834C33.4163 32.0834 33.4163 32.0834 33.4163 32.0834C33.4163 32.0834 33.4163 32.0834 33.4163 32.0834C33.4163 32.0834 33.4163 32.0833 33.4163 32.0833C33.4163 32.0833 33.4163 32.0833 33.4163 32.0833C33.4163 32.0833 33.4163 32.0833 33.4163 32.0833C33.4163 32.0833 33.4163 32.0833 33.4163 32.0833C33.4163 32.0833 33.4163 32.0833 33.4163 32.0833C33.4163 32.0833 33.4163 32.0833 32.6663 32.0833ZM24.583 32.0833V32.1667H26.083V32.0833H24.583ZM31.9538 32.2484C31.9291 32.1969 31.9163 32.1405 31.9163 32.0833H33.4163C33.4163 31.9165 33.379 31.7518 33.307 31.6012L31.9538 32.2484ZM24.6924 31.6012C24.6204 31.7517 24.583 31.9165 24.583 32.0833H26.083C26.083 32.1405 26.0702 32.1969 26.0456 32.2484L24.6924 31.6012ZM19.333 22.0833H23.333V20.5833H19.333V22.0833ZM23.333 22.0833H25.6663V20.5833H23.333V22.0833ZM25.6663 22.0833H27.333V20.5833H25.6663V22.0833ZM22.583 20V21.3333H24.083V20H22.583ZM24.9737 26.6492C24.6263 26.4931 24.2592 26.27 23.8996 25.9944L22.9871 27.1849C23.4237 27.5195 23.8897 27.8066 24.359 28.0175L24.9737 26.6492ZM23.8996 25.9944C23.0738 25.3614 22.3632 24.5113 22.0239 23.7081L20.6421 24.2919C21.1064 25.3908 22.0095 26.4356 22.9871 27.1849L23.8996 25.9944ZM24.9267 21.2092C24.6152 23.0659 23.8941 24.7394 22.8435 26.1395L24.0433 27.0398C25.242 25.4422 26.056 23.5438 26.406 21.4574L24.9267 21.2092ZM22.8435 26.1395C21.8442 27.4712 20.5425 28.5614 18.9992 29.3284L19.6668 30.6716C21.4188 29.801 22.903 28.5594 24.0433 27.0398L22.8435 26.1395Z" fill="#0E0E0E"/>
<path d="M221 21C221 18.7909 222.791 17 225 17H253C255.209 17 257 18.7909 257 21V31C257 33.2091 255.209 35 253 35H225C222.791 35 221 33.2091 221 31V21Z" fill="#B3F4C4"/>
<path d="M227.693 29V22.7H229.466L232.184 27.443C232.157 27.173 232.148 26.831 232.148 26.498V22.7H233.327V29H231.779L228.836 23.861C228.872 24.221 228.872 24.464 228.872 24.743V29H227.693ZM235.255 29V22.7H239.638V23.699H236.434V25.238H239.503V26.246H236.434V28.001H239.773V29H235.255ZM242.42 29L240.764 22.7H242.078L243.041 26.822C243.131 27.191 243.203 27.506 243.284 27.947C243.356 27.506 243.428 27.191 243.518 26.822L244.562 22.7H246.263L247.226 26.822C247.316 27.191 247.397 27.524 247.478 27.947C247.55 27.506 247.613 27.191 247.703 26.822L248.702 22.7H249.944L248.288 29H246.65L245.606 24.518C245.561 24.32 245.489 24.05 245.426 23.645C245.345 24.05 245.282 24.32 245.228 24.518L244.058 29H242.42Z" fill="#285535"/>
<path d="M17.306 68.252C14.394 68.252 12.532 66.362 12.532 63.03C12.532 59.88 14.632 57.948 17.404 57.948C19.798 57.948 21.52 59.32 21.772 61.644H19.868C19.686 60.37 18.846 59.502 17.404 59.502C15.668 59.502 14.422 60.832 14.422 63.03C14.422 65.312 15.654 66.698 17.362 66.698C18.818 66.698 19.784 65.76 19.98 64.458H21.814C21.576 66.726 19.938 68.252 17.306 68.252ZM26.1615 68.252C24.1035 68.252 22.6615 66.88 22.6615 64.612C22.6615 62.372 24.1175 60.944 26.1615 60.944C28.2195 60.944 29.6755 62.372 29.6755 64.612C29.6755 66.88 28.2195 68.252 26.1615 68.252ZM24.3975 64.612C24.3975 66.068 25.0975 66.908 26.1615 66.908C27.2255 66.908 27.9395 66.068 27.9395 64.612C27.9395 63.128 27.2115 62.302 26.1615 62.302C25.1255 62.302 24.3975 63.128 24.3975 64.612ZM31.0243 68V61.168H32.7323V61.476C32.7323 61.672 32.7183 61.882 32.6763 62.148C33.0543 61.462 33.6983 60.944 34.7763 60.944C36.2883 60.944 37.1843 62.008 37.1843 63.688V68H35.4763V63.94C35.4763 62.932 34.9863 62.302 34.1883 62.302C33.3483 62.302 32.7323 63.044 32.7323 63.996V68H31.0243ZM41.8139 68.126C40.3579 68.126 39.5879 67.398 39.5879 65.872V62.526H38.0339V61.168H39.5879V58.704H41.2959V61.168H42.9759V62.526H41.2959V65.62C41.2959 66.334 41.5759 66.754 42.3039 66.754C42.4719 66.754 42.6539 66.74 42.8219 66.712V68C42.6539 68.056 42.2479 68.126 41.8139 68.126ZM47.1339 68.252C45.0899 68.252 43.6479 66.936 43.6479 64.57C43.6479 62.414 45.0899 60.944 47.0779 60.944C49.1639 60.944 50.3679 62.4 50.3679 64.626V65.004H45.3979C45.4119 66.082 46.0979 66.908 47.1339 66.908C47.8759 66.908 48.4779 66.488 48.5899 65.774H50.3259C50.1859 67.174 48.9819 68.252 47.1339 68.252ZM45.3839 63.772H48.6179C48.5899 62.848 47.9879 62.218 47.0639 62.218C46.1399 62.218 45.4819 62.876 45.3839 63.772ZM51.7371 68V61.168H53.4451V61.476C53.4451 61.672 53.4311 61.882 53.3891 62.148C53.7671 61.462 54.4111 60.944 55.4891 60.944C57.0011 60.944 57.8971 62.008 57.8971 63.688V68H56.1891V63.94C56.1891 62.932 55.6991 62.302 54.9011 62.302C54.0611 62.302 53.4451 63.044 53.4451 63.996V68H51.7371ZM62.5268 68.126C61.0708 68.126 60.3008 67.398 60.3008 65.872V62.526H58.7468V61.168H60.3008V58.704H62.0088V61.168H63.6888V62.526H62.0088V65.62C62.0088 66.334 62.2888 66.754 63.0168 66.754C63.1848 66.754 63.3668 66.74 63.5348 66.712V68C63.3668 68.056 62.9608 68.126 62.5268 68.126ZM69.8428 68V59.754H66.5668V58.2H74.9388V59.754H71.6768V68H69.8428ZM74.6785 68V61.168H76.3865V61.686C76.3865 61.938 76.3725 62.148 76.3305 62.4C76.6945 61.63 77.3105 60.944 78.3325 60.944C78.4725 60.944 78.5845 60.958 78.6965 60.986V62.638C78.5845 62.61 78.4305 62.582 78.2065 62.582C77.1565 62.582 76.3865 63.114 76.3865 64.612V68H74.6785ZM81.6298 68.252C80.4398 68.252 79.2778 67.468 79.2778 66.124C79.2778 64.584 80.4678 64.052 81.9378 63.856L82.9178 63.73C83.4778 63.66 83.6738 63.45 83.6738 63.114C83.6738 62.638 83.2818 62.218 82.5538 62.218C81.7558 62.218 81.2518 62.666 81.1818 63.38H79.4178C79.5298 61.952 80.6918 60.944 82.4558 60.944C84.5418 60.944 85.3818 62.064 85.3818 63.982V68H83.7998V67.72C83.7998 67.496 83.8278 67.286 83.8698 67.062C83.5058 67.734 82.8058 68.252 81.6298 68.252ZM81.0138 66.054C81.0138 66.656 81.4898 66.992 82.0918 66.992C83.0018 66.992 83.7298 66.32 83.7298 65.354V64.612C83.5758 64.752 83.3378 64.822 82.9178 64.906L82.3578 65.018C81.5598 65.172 81.0138 65.438 81.0138 66.054ZM87.0379 68V61.168H88.7459V61.476C88.7459 61.672 88.7319 61.882 88.6899 62.148C89.0679 61.462 89.7119 60.944 90.7899 60.944C92.3019 60.944 93.1979 62.008 93.1979 63.688V68H91.4899V63.94C91.4899 62.932 90.9999 62.302 90.2019 62.302C89.3619 62.302 88.7459 63.044 88.7459 63.996V68H87.0379ZM97.6019 68.252C95.6699 68.252 94.4799 67.244 94.3679 65.648H96.1039C96.1459 66.46 96.6499 66.978 97.5599 66.978C98.3299 66.978 98.8199 66.614 98.8199 66.096C98.8199 65.634 98.4279 65.424 97.6999 65.284L96.8739 65.116C95.4459 64.836 94.6339 64.164 94.6339 63.03C94.6339 61.84 95.7539 60.944 97.4339 60.944C99.2679 60.944 100.416 61.896 100.458 63.324H98.7499C98.6939 62.652 98.2039 62.218 97.4339 62.218C96.8039 62.218 96.3139 62.47 96.3139 62.96C96.3139 63.366 96.5799 63.576 97.4479 63.744L98.2739 63.912C99.6179 64.178 100.5 64.794 100.5 65.998C100.5 67.3 99.3659 68.252 97.6019 68.252ZM101.872 68V58.2H103.58V68H101.872ZM107.319 68.252C106.129 68.252 104.967 67.468 104.967 66.124C104.967 64.584 106.157 64.052 107.627 63.856L108.607 63.73C109.167 63.66 109.363 63.45 109.363 63.114C109.363 62.638 108.971 62.218 108.243 62.218C107.445 62.218 106.941 62.666 106.871 63.38H105.107C105.219 61.952 106.381 60.944 108.145 60.944C110.231 60.944 111.071 62.064 111.071 63.982V68H109.489V67.72C109.489 67.496 109.517 67.286 109.559 67.062C109.195 67.734 108.495 68.252 107.319 68.252ZM106.703 66.054C106.703 66.656 107.179 66.992 107.781 66.992C108.691 66.992 109.419 66.32 109.419 65.354V64.612C109.265 64.752 109.027 64.822 108.607 64.906L108.047 65.018C107.249 65.172 106.703 65.438 106.703 66.054ZM115.669 68.126C114.213 68.126 113.443 67.398 113.443 65.872V62.526H111.889V61.168H113.443V58.704H115.151V61.168H116.831V62.526H115.151V65.62C115.151 66.334 115.431 66.754 116.159 66.754C116.327 66.754 116.509 66.74 116.677 66.712V68C116.509 68.056 116.103 68.126 115.669 68.126ZM121.003 68.252C118.945 68.252 117.503 66.88 117.503 64.612C117.503 62.372 118.959 60.944 121.003 60.944C123.061 60.944 124.517 62.372 124.517 64.612C124.517 66.88 123.061 68.252 121.003 68.252ZM119.239 64.612C119.239 66.068 119.939 66.908 121.003 66.908C122.067 66.908 122.781 66.068 122.781 64.612C122.781 63.128 122.053 62.302 121.003 62.302C119.967 62.302 119.239 63.128 119.239 64.612ZM125.866 68V61.168H127.574V61.686C127.574 61.938 127.56 62.148 127.518 62.4C127.882 61.63 128.498 60.944 129.52 60.944C129.66 60.944 129.772 60.958 129.884 60.986V62.638C129.772 62.61 129.618 62.582 129.394 62.582C128.344 62.582 127.574 63.114 127.574 64.612V68H125.866Z" fill="#0E0E0E"/>
<path d="M14.952 88V80.716H12.096V79.6H19.128V80.716H16.284V88H14.952ZM18.8746 88V82.18H20.1226V82.528C20.1226 82.756 20.1226 82.972 20.0986 83.188C20.3986 82.528 20.9866 81.988 21.8626 81.988C21.9586 81.988 22.0546 81.988 22.1506 82.012V83.224C22.0666 83.212 21.9466 83.188 21.7786 83.188C20.7706 83.188 20.1226 83.728 20.1226 85.012V88H18.8746ZM24.7148 88.192C23.6588 88.192 22.7108 87.52 22.7108 86.404C22.7108 85.18 23.6708 84.688 24.8108 84.532L25.8548 84.376C26.3108 84.316 26.4668 84.148 26.4668 83.824C26.4668 83.308 26.0588 82.936 25.4108 82.936C24.6188 82.936 24.1748 83.368 24.1388 84.028H22.8668C22.9268 82.888 23.8388 81.988 25.3268 81.988C26.9348 81.988 27.7028 82.888 27.7028 84.376V88H26.5388V87.736C26.5388 87.556 26.5508 87.388 26.5628 87.208C26.2628 87.796 25.6508 88.192 24.7148 88.192ZM23.9948 86.368C23.9948 86.932 24.4388 87.256 24.9908 87.256C25.8428 87.256 26.4908 86.656 26.4908 85.768V85.024C26.3948 85.144 26.1788 85.216 25.8308 85.276L25.1708 85.408C24.4868 85.54 23.9948 85.804 23.9948 86.368ZM29.2574 88V82.18H30.5054V82.504C30.5054 82.66 30.4934 82.804 30.4814 82.984C30.7934 82.444 31.4174 81.988 32.2694 81.988C33.5894 81.988 34.3694 82.864 34.3694 84.328V88H33.1214V84.496C33.1214 83.524 32.7374 82.972 31.9334 82.972C31.0694 82.972 30.5054 83.68 30.5054 84.544V88H29.2574ZM38.1211 88.192C36.5131 88.192 35.5531 87.34 35.4931 86.032H36.7411C36.7771 86.776 37.2571 87.244 38.1091 87.244C38.8411 87.244 39.3211 86.908 39.3211 86.392C39.3211 85.972 38.9971 85.732 38.3371 85.6L37.5451 85.444C36.3931 85.228 35.6971 84.664 35.6971 83.728C35.6971 82.732 36.6451 81.988 38.0251 81.988C39.5011 81.988 40.4131 82.732 40.4731 83.932H39.2251C39.1651 83.296 38.7091 82.936 37.9891 82.936C37.3651 82.936 36.9331 83.212 36.9331 83.668C36.9331 84.076 37.2211 84.28 37.9171 84.412L38.7211 84.568C39.8131 84.784 40.5451 85.3 40.5451 86.296C40.5451 87.376 39.6211 88.192 38.1211 88.192ZM41.8433 88V79.6H43.0913V88H41.8433ZM46.4062 88.192C45.3502 88.192 44.4022 87.52 44.4022 86.404C44.4022 85.18 45.3622 84.688 46.5022 84.532L47.5462 84.376C48.0022 84.316 48.1582 84.148 48.1582 83.824C48.1582 83.308 47.7502 82.936 47.1022 82.936C46.3102 82.936 45.8662 83.368 45.8302 84.028H44.5582C44.6182 82.888 45.5302 81.988 47.0182 81.988C48.6262 81.988 49.3942 82.888 49.3942 84.376V88H48.2302V87.736C48.2302 87.556 48.2422 87.388 48.2542 87.208C47.9542 87.796 47.3422 88.192 46.4062 88.192ZM45.6862 86.368C45.6862 86.932 46.1302 87.256 46.6822 87.256C47.5342 87.256 48.1822 86.656 48.1822 85.768V85.024C48.0862 85.144 47.8702 85.216 47.5222 85.276L46.8622 85.408C46.1782 85.54 45.6862 85.804 45.6862 86.368ZM53.2182 88.096C52.1622 88.096 51.4422 87.58 51.4422 86.284V83.188H50.2302V82.18H51.4422V80.164H52.6902V82.18H54.0102V83.188H52.6902V86.116C52.6902 86.764 52.9782 87.052 53.5422 87.052C53.6862 87.052 53.8302 87.04 53.9862 87.016V88.012C53.8062 88.06 53.5182 88.096 53.2182 88.096ZM57.6413 88.192C55.9013 88.192 54.7493 87.088 54.7493 85.072C54.7493 83.26 55.9493 81.988 57.5933 81.988C59.3453 81.988 60.3412 83.212 60.3412 85.096V85.36H56.0093C56.0333 86.488 56.7053 87.22 57.6533 87.22C58.3253 87.22 58.9133 86.896 59.0333 86.152H60.2933C60.1733 87.256 59.2613 88.192 57.6413 88.192ZM56.0213 84.472H59.0333C59.0213 83.56 58.4813 82.936 57.5813 82.936C56.7053 82.936 56.1053 83.596 56.0213 84.472ZM64.709 90.472L65.717 87.868L63.413 82.18H64.805L66.149 85.912C66.221 86.128 66.305 86.356 66.377 86.62C66.449 86.356 66.521 86.128 66.593 85.912L67.829 82.18H69.137L66.041 90.472H64.709ZM72.4895 88.192C70.7735 88.192 69.5735 86.992 69.5735 85.096C69.5735 83.236 70.7855 81.988 72.4895 81.988C74.2055 81.988 75.4175 83.236 75.4175 85.096C75.4175 86.992 74.2055 88.192 72.4895 88.192ZM70.8455 85.096C70.8455 86.392 71.4815 87.22 72.4895 87.22C73.4975 87.22 74.1455 86.392 74.1455 85.096C74.1455 83.776 73.4855 82.972 72.4895 82.972C71.5055 82.972 70.8455 83.776 70.8455 85.096ZM78.7346 88.192C77.4746 88.192 76.6466 87.388 76.6466 85.876V82.18H77.8946V85.66C77.8946 86.62 78.2666 87.208 79.0946 87.208C79.9346 87.208 80.4626 86.572 80.4626 85.516V82.18H81.7106V88H80.4746V87.7C80.4746 87.532 80.4866 87.352 80.5106 87.196C80.2226 87.784 79.6106 88.192 78.7346 88.192ZM83.3394 88V82.18H84.5874V82.528C84.5874 82.756 84.5874 82.972 84.5634 83.188C84.8634 82.528 85.4514 81.988 86.3274 81.988C86.4234 81.988 86.5194 81.988 86.6154 82.012V83.224C86.5314 83.212 86.4114 83.188 86.2434 83.188C85.2354 83.188 84.5874 83.728 84.5874 85.012V88H83.3394ZM92.5754 88.192C90.8594 88.192 89.6594 87.076 89.6594 85.084C89.6594 83.188 90.9554 81.988 92.6354 81.988C94.1714 81.988 95.1434 82.912 95.2754 84.256H94.0034C93.9314 83.548 93.4634 82.972 92.6234 82.972C91.6394 82.972 90.9314 83.812 90.9314 85.084C90.9314 86.356 91.6034 87.22 92.6114 87.22C93.4874 87.22 93.9794 86.668 94.0754 85.912H95.3234C95.1674 87.28 94.2314 88.192 92.5754 88.192ZM99.091 88.192C97.375 88.192 96.175 86.992 96.175 85.096C96.175 83.236 97.387 81.988 99.091 81.988C100.807 81.988 102.019 83.236 102.019 85.096C102.019 86.992 100.807 88.192 99.091 88.192ZM97.447 85.096C97.447 86.392 98.083 87.22 99.091 87.22C100.099 87.22 100.747 86.392 100.747 85.096C100.747 83.776 100.087 82.972 99.091 82.972C98.107 82.972 97.447 83.776 97.447 85.096ZM103.308 88V82.18H104.556V82.504C104.556 82.66 104.544 82.804 104.532 82.984C104.844 82.444 105.468 81.988 106.32 81.988C107.64 81.988 108.42 82.864 108.42 84.328V88H107.172V84.496C107.172 83.524 106.788 82.972 105.984 82.972C105.12 82.972 104.556 83.68 104.556 84.544V88H103.308ZM112.257 88.096C111.201 88.096 110.481 87.58 110.481 86.284V83.188H109.269V82.18H110.481V80.164H111.729V82.18H113.049V83.188H111.729V86.116C111.729 86.764 112.017 87.052 112.581 87.052C112.725 87.052 112.869 87.04 113.025 87.016V88.012C112.845 88.06 112.557 88.096 112.257 88.096ZM116.68 88.192C114.94 88.192 113.788 87.088 113.788 85.072C113.788 83.26 114.988 81.988 116.632 81.988C118.384 81.988 119.38 83.212 119.38 85.096V85.36H115.048C115.072 86.488 115.744 87.22 116.692 87.22C117.364 87.22 117.952 86.896 118.072 86.152H119.332C119.212 87.256 118.3 88.192 116.68 88.192ZM115.06 84.472H118.072C118.06 83.56 117.52 82.936 116.62 82.936C115.744 82.936 115.144 83.596 115.06 84.472ZM120.675 88V82.18H121.923V82.504C121.923 82.66 121.911 82.804 121.899 82.984C122.211 82.444 122.835 81.988 123.687 81.988C125.007 81.988 125.787 82.864 125.787 84.328V88H124.539V84.496C124.539 83.524 124.155 82.972 123.351 82.972C122.487 82.972 121.923 83.68 121.923 84.544V88H120.675ZM129.624 88.096C128.568 88.096 127.848 87.58 127.848 86.284V83.188H126.636V82.18H127.848V80.164H129.096V82.18H130.416V83.188H129.096V86.116C129.096 86.764 129.384 87.052 129.948 87.052C130.092 87.052 130.236 87.04 130.392 87.016V88.012C130.212 88.06 129.924 88.096 129.624 88.096ZM134.257 88V82.18H135.505V88H134.257ZM134.209 81.184V79.804H135.565V81.184H134.209ZM137.14 88V82.18H138.388V82.504C138.388 82.66 138.376 82.804 138.364 82.984C138.676 82.444 139.3 81.988 140.152 81.988C141.472 81.988 142.252 82.864 142.252 84.328V88H141.004V84.496C141.004 83.524 140.62 82.972 139.816 82.972C138.952 82.972 138.388 83.68 138.388 84.544V88H137.14ZM146.089 88.096C145.033 88.096 144.313 87.58 144.313 86.284V83.188H143.101V82.18H144.313V80.164H145.561V82.18H146.881V83.188H145.561V86.116C145.561 86.764 145.849 87.052 146.413 87.052C146.557 87.052 146.701 87.04 146.857 87.016V88.012C146.677 88.06 146.389 88.096 146.089 88.096ZM150.536 88.192C148.82 88.192 147.62 86.992 147.62 85.096C147.62 83.236 148.832 81.988 150.536 81.988C152.252 81.988 153.464 83.236 153.464 85.096C153.464 86.992 152.252 88.192 150.536 88.192ZM148.892 85.096C148.892 86.392 149.528 87.22 150.536 87.22C151.544 87.22 152.192 86.392 152.192 85.096C152.192 83.776 151.532 82.972 150.536 82.972C149.552 82.972 148.892 83.776 148.892 85.096ZM157.437 88V82.18H158.685V82.54C158.685 82.684 158.685 82.84 158.661 82.984C158.985 82.444 159.549 81.988 160.353 81.988C161.097 81.988 161.721 82.456 161.997 83.104C162.357 82.48 163.041 81.988 163.881 81.988C165.057 81.988 165.909 82.816 165.909 84.328V88H164.661V84.532C164.661 83.56 164.325 82.972 163.569 82.972C162.789 82.972 162.297 83.668 162.297 84.568V88H161.049V84.556C161.049 83.572 160.725 82.972 159.969 82.972C159.201 82.972 158.685 83.656 158.685 84.592V88H157.437ZM169.508 88.192C168.248 88.192 167.42 87.388 167.42 85.876V82.18H168.668V85.66C168.668 86.62 169.04 87.208 169.868 87.208C170.708 87.208 171.236 86.572 171.236 85.516V82.18H172.484V88H171.248V87.7C171.248 87.532 171.26 87.352 171.284 87.196C170.996 87.784 170.384 88.192 169.508 88.192ZM174.113 88V79.6H175.361V88H174.113ZM179.324 88.096C178.268 88.096 177.548 87.58 177.548 86.284V83.188H176.336V82.18H177.548V80.164H178.796V82.18H180.116V83.188H178.796V86.116C178.796 86.764 179.084 87.052 179.648 87.052C179.792 87.052 179.936 87.04 180.092 87.016V88.012C179.912 88.06 179.624 88.096 179.324 88.096ZM181.273 88V82.18H182.521V88H181.273ZM181.225 81.184V79.804H182.581V81.184H181.225ZM184.156 90.472V82.18H185.404V82.516C185.404 82.672 185.404 82.816 185.38 82.996C185.728 82.42 186.4 81.988 187.3 81.988C188.908 81.988 189.916 83.284 189.916 85.096C189.916 86.968 188.8 88.192 187.252 88.192C186.352 88.192 185.752 87.784 185.38 87.196C185.404 87.388 185.404 87.544 185.404 87.712V90.472H184.156ZM185.344 85.084C185.344 86.356 186.028 87.22 187 87.22C187.984 87.22 188.632 86.344 188.632 85.084C188.632 83.848 187.996 82.972 187 82.972C186.04 82.972 185.344 83.788 185.344 85.084ZM191.187 88V79.6H192.435V88H191.187ZM196.614 88.192C194.874 88.192 193.722 87.088 193.722 85.072C193.722 83.26 194.922 81.988 196.566 81.988C198.318 81.988 199.314 83.212 199.314 85.096V85.36H194.982C195.006 86.488 195.678 87.22 196.626 87.22C197.298 87.22 197.886 86.896 198.006 86.152H199.266C199.146 87.256 198.234 88.192 196.614 88.192ZM194.994 84.472H198.006C197.994 83.56 197.454 82.936 196.554 82.936C195.678 82.936 195.078 83.596 194.994 84.472ZM12.816 104V95.6H14.064V104H12.816ZM17.3788 104.192C16.3228 104.192 15.3748 103.52 15.3748 102.404C15.3748 101.18 16.3348 100.688 17.4748 100.532L18.5188 100.376C18.9748 100.316 19.1308 100.148 19.1308 99.824C19.1308 99.308 18.7228 98.936 18.0748 98.936C17.2828 98.936 16.8388 99.368 16.8028 100.028H15.5308C15.5908 98.888 16.5028 97.988 17.9908 97.988C19.5988 97.988 20.3668 98.888 20.3668 100.376V104H19.2028V103.736C19.2028 103.556 19.2148 103.388 19.2268 103.208C18.9268 103.796 18.3148 104.192 17.3788 104.192ZM16.6588 102.368C16.6588 102.932 17.1028 103.256 17.6548 103.256C18.5068 103.256 19.1548 102.656 19.1548 101.768V101.024C19.0588 101.144 18.8428 101.216 18.4948 101.276L17.8348 101.408C17.1508 101.54 16.6588 101.804 16.6588 102.368ZM21.9215 104V98.18H23.1695V98.504C23.1695 98.66 23.1575 98.804 23.1455 98.984C23.4575 98.444 24.0815 97.988 24.9335 97.988C26.2535 97.988 27.0335 98.864 27.0335 100.328V104H25.7855V100.496C25.7855 99.524 25.4015 98.972 24.5975 98.972C23.7335 98.972 23.1695 99.68 23.1695 100.544V104H21.9215ZM31.1332 106.664C29.5012 106.664 28.5172 105.776 28.5172 104.48H29.7652C29.7772 105.212 30.2932 105.692 31.1572 105.692C32.0812 105.692 32.7292 105.176 32.7292 104.12V103.448C32.7292 103.256 32.7412 103.076 32.7532 102.896C32.4292 103.448 31.7812 103.856 30.8932 103.856C29.3332 103.856 28.2652 102.752 28.2652 100.928C28.2652 99.128 29.4772 97.988 30.8812 97.988C31.8772 97.988 32.4292 98.444 32.7532 98.984C32.7412 98.816 32.7292 98.648 32.7292 98.468V98.18H33.9772V103.76C33.9772 105.716 32.9212 106.664 31.1332 106.664ZM29.5492 100.928C29.5492 102.092 30.2212 102.872 31.1812 102.872C32.1292 102.872 32.8132 102.08 32.8132 100.928C32.8132 99.788 32.1292 98.972 31.1812 98.972C30.2212 98.972 29.5492 99.776 29.5492 100.928ZM37.637 104.192C36.377 104.192 35.549 103.388 35.549 101.876V98.18H36.797V101.66C36.797 102.62 37.169 103.208 37.997 103.208C38.837 103.208 39.365 102.572 39.365 101.516V98.18H40.613V104H39.377V103.7C39.377 103.532 39.389 103.352 39.413 103.196C39.125 103.784 38.513 104.192 37.637 104.192ZM43.9218 104.192C42.8658 104.192 41.9178 103.52 41.9178 102.404C41.9178 101.18 42.8778 100.688 44.0178 100.532L45.0618 100.376C45.5178 100.316 45.6738 100.148 45.6738 99.824C45.6738 99.308 45.2658 98.936 44.6178 98.936C43.8258 98.936 43.3818 99.368 43.3458 100.028H42.0738C42.1338 98.888 43.0458 97.988 44.5338 97.988C46.1418 97.988 46.9098 98.888 46.9098 100.376V104H45.7458V103.736C45.7458 103.556 45.7578 103.388 45.7698 103.208C45.4698 103.796 44.8578 104.192 43.9218 104.192ZM43.2018 102.368C43.2018 102.932 43.6458 103.256 44.1978 103.256C45.0498 103.256 45.6978 102.656 45.6978 101.768V101.024C45.6018 101.144 45.3858 101.216 45.0378 101.276L44.3778 101.408C43.6938 101.54 43.2018 101.804 43.2018 102.368ZM50.9964 106.664C49.3644 106.664 48.3804 105.776 48.3804 104.48H49.6284C49.6404 105.212 50.1564 105.692 51.0204 105.692C51.9444 105.692 52.5924 105.176 52.5924 104.12V103.448C52.5924 103.256 52.6044 103.076 52.6164 102.896C52.2924 103.448 51.6444 103.856 50.7564 103.856C49.1964 103.856 48.1284 102.752 48.1284 100.928C48.1284 99.128 49.3404 97.988 50.7444 97.988C51.7404 97.988 52.2924 98.444 52.6164 98.984C52.6044 98.816 52.5924 98.648 52.5924 98.468V98.18H53.8404V103.76C53.8404 105.716 52.7844 106.664 50.9964 106.664ZM49.4124 100.928C49.4124 102.092 50.0844 102.872 51.0444 102.872C51.9924 102.872 52.6764 102.08 52.6764 100.928C52.6764 99.788 51.9924 98.972 51.0444 98.972C50.0844 98.972 49.4124 99.776 49.4124 100.928ZM58.0163 104.192C56.2763 104.192 55.1243 103.088 55.1243 101.072C55.1243 99.26 56.3243 97.988 57.9683 97.988C59.7203 97.988 60.7162 99.212 60.7162 101.096V101.36H56.3843C56.4083 102.488 57.0803 103.22 58.0283 103.22C58.7003 103.22 59.2883 102.896 59.4083 102.152H60.6683C60.5483 103.256 59.6363 104.192 58.0163 104.192ZM56.3963 100.472H59.4083C59.3963 99.56 58.8563 98.936 57.9563 98.936C57.0803 98.936 56.4803 99.596 56.3963 100.472ZM64.1953 104.192C62.5873 104.192 61.6273 103.34 61.5673 102.032H62.8153C62.8513 102.776 63.3313 103.244 64.1833 103.244C64.9153 103.244 65.3953 102.908 65.3953 102.392C65.3953 101.972 65.0713 101.732 64.4113 101.6L63.6193 101.444C62.4673 101.228 61.7713 100.664 61.7713 99.728C61.7713 98.732 62.7193 97.988 64.0993 97.988C65.5753 97.988 66.4873 98.732 66.5473 99.932H65.2993C65.2393 99.296 64.7833 98.936 64.0633 98.936C63.4393 98.936 63.0073 99.212 63.0073 99.668C63.0073 100.076 63.2953 100.28 63.9913 100.412L64.7953 100.568C65.8873 100.784 66.6193 101.3 66.6193 102.296C66.6193 103.376 65.6953 104.192 64.1953 104.192ZM71.5774 104L69.7414 98.18H71.0494L72.2134 102.308C72.2614 102.488 72.3094 102.68 72.3454 102.872C72.3934 102.668 72.4414 102.476 72.4894 102.308L73.6054 98.18H75.2254L76.3774 102.308C76.4254 102.476 76.4734 102.656 76.5094 102.86C76.5574 102.656 76.5934 102.476 76.6534 102.296L77.8054 98.18H79.0294L77.2294 104H75.7294L74.5534 99.812C74.5174 99.656 74.4694 99.464 74.4214 99.236C74.3854 99.464 74.3374 99.644 74.2774 99.812L73.1134 104H71.5774ZM79.9996 104V95.6H81.2476V98.456C81.2476 98.624 81.2476 98.792 81.2236 98.984C81.5476 98.42 82.1596 97.988 83.0116 97.988C84.3316 97.988 85.1116 98.864 85.1116 100.328V104H83.8636V100.496C83.8636 99.524 83.4676 98.972 82.6636 98.972C81.8116 98.972 81.2476 99.68 81.2476 100.544V104H79.9996ZM86.6793 104V98.18H87.9273V104H86.6793ZM86.6313 97.184V95.804H87.9873V97.184H86.6313ZM89.5621 104V95.6H90.8101V104H89.5621ZM94.9889 104.192C93.2489 104.192 92.0969 103.088 92.0969 101.072C92.0969 99.26 93.2969 97.988 94.9409 97.988C96.6929 97.988 97.6889 99.212 97.6889 101.096V101.36H93.3569C93.3809 102.488 94.0529 103.22 95.0009 103.22C95.6729 103.22 96.2609 102.896 96.3809 102.152H97.6409C97.5209 103.256 96.6089 104.192 94.9889 104.192ZM93.3689 100.472H96.3809C96.3689 99.56 95.8289 98.936 94.9289 98.936C94.0529 98.936 93.4529 99.596 93.3689 100.472ZM101.668 106.472V98.18H102.916V98.516C102.916 98.672 102.916 98.816 102.892 98.996C103.24 98.42 103.912 97.988 104.812 97.988C106.42 97.988 107.428 99.284 107.428 101.096C107.428 102.968 106.312 104.192 104.764 104.192C103.864 104.192 103.264 103.784 102.892 103.196C102.916 103.388 102.916 103.544 102.916 103.712V106.472H101.668ZM102.856 101.084C102.856 102.356 103.54 103.22 104.512 103.22C105.496 103.22 106.144 102.344 106.144 101.084C106.144 99.848 105.508 98.972 104.512 98.972C103.552 98.972 102.856 99.788 102.856 101.084ZM108.699 104V98.18H109.947V98.528C109.947 98.756 109.947 98.972 109.923 99.188C110.223 98.528 110.811 97.988 111.687 97.988C111.783 97.988 111.879 97.988 111.975 98.012V99.224C111.891 99.212 111.771 99.188 111.603 99.188C110.595 99.188 109.947 99.728 109.947 101.012V104H108.699ZM115.391 104.192C113.651 104.192 112.499 103.088 112.499 101.072C112.499 99.26 113.699 97.988 115.343 97.988C117.095 97.988 118.091 99.212 118.091 101.096V101.36H113.759C113.783 102.488 114.455 103.22 115.403 103.22C116.075 103.22 116.663 102.896 116.783 102.152H118.043C117.923 103.256 117.011 104.192 115.391 104.192ZM113.771 100.472H116.783C116.771 99.56 116.231 98.936 115.331 98.936C114.455 98.936 113.855 99.596 113.771 100.472ZM121.57 104.192C119.962 104.192 119.002 103.34 118.942 102.032H120.19C120.226 102.776 120.706 103.244 121.558 103.244C122.29 103.244 122.77 102.908 122.77 102.392C122.77 101.972 122.446 101.732 121.786 101.6L120.994 101.444C119.842 101.228 119.146 100.664 119.146 99.728C119.146 98.732 120.094 97.988 121.474 97.988C122.95 97.988 123.862 98.732 123.922 99.932H122.674C122.614 99.296 122.158 98.936 121.438 98.936C120.814 98.936 120.382 99.212 120.382 99.668C120.382 100.076 120.67 100.28 121.366 100.412L122.17 100.568C123.262 100.784 123.994 101.3 123.994 102.296C123.994 103.376 123.07 104.192 121.57 104.192ZM127.837 104.192C126.097 104.192 124.945 103.088 124.945 101.072C124.945 99.26 126.145 97.988 127.789 97.988C129.541 97.988 130.537 99.212 130.537 101.096V101.36H126.205C126.229 102.488 126.901 103.22 127.849 103.22C128.521 103.22 129.109 102.896 129.229 102.152H130.489C130.369 103.256 129.457 104.192 127.837 104.192ZM126.217 100.472H129.229C129.217 99.56 128.677 98.936 127.777 98.936C126.901 98.936 126.301 99.596 126.217 100.472ZM131.832 104V98.18H133.08V98.528C133.08 98.756 133.08 98.972 133.056 99.188C133.356 98.528 133.944 97.988 134.82 97.988C134.916 97.988 135.012 97.988 135.108 98.012V99.224C135.024 99.212 134.904 99.188 134.736 99.188C133.728 99.188 133.08 99.728 133.08 101.012V104H131.832ZM137.609 104L135.401 98.18H136.745L138.125 102.2C138.221 102.452 138.269 102.632 138.329 102.86C138.389 102.632 138.449 102.452 138.533 102.2L139.889 98.18H141.185L139.013 104H137.609ZM142.132 104V98.18H143.38V104H142.132ZM142.084 97.184V95.804H143.44V97.184H142.084ZM145.015 104V98.18H146.263V98.504C146.263 98.66 146.251 98.804 146.239 98.984C146.551 98.444 147.175 97.988 148.027 97.988C149.347 97.988 150.127 98.864 150.127 100.328V104H148.879V100.496C148.879 99.524 148.495 98.972 147.691 98.972C146.827 98.972 146.263 99.68 146.263 100.544V104H145.015ZM154.227 106.664C152.595 106.664 151.611 105.776 151.611 104.48H152.859C152.871 105.212 153.387 105.692 154.251 105.692C155.175 105.692 155.823 105.176 155.823 104.12V103.448C155.823 103.256 155.835 103.076 155.847 102.896C155.523 103.448 154.875 103.856 153.987 103.856C152.427 103.856 151.359 102.752 151.359 100.928C151.359 99.128 152.571 97.988 153.975 97.988C154.971 97.988 155.523 98.444 155.847 98.984C155.835 98.816 155.823 98.648 155.823 98.468V98.18H157.071V103.76C157.071 105.716 156.015 106.664 154.227 106.664ZM152.643 100.928C152.643 102.092 153.315 102.872 154.275 102.872C155.223 102.872 155.907 102.08 155.907 100.928C155.907 99.788 155.223 98.972 154.275 98.972C153.315 98.972 152.643 99.776 152.643 100.928ZM161.386 104V98.18H162.634V104H161.386ZM161.338 97.184V95.804H162.694V97.184H161.338ZM166.597 104.096C165.541 104.096 164.821 103.58 164.821 102.284V99.188H163.609V98.18H164.821V96.164H166.069V98.18H167.389V99.188H166.069V102.116C166.069 102.764 166.357 103.052 166.921 103.052C167.065 103.052 167.209 103.04 167.365 103.016V104.012C167.185 104.06 166.897 104.096 166.597 104.096ZM170.73 104.192C169.122 104.192 168.162 103.34 168.102 102.032H169.35C169.386 102.776 169.866 103.244 170.718 103.244C171.45 103.244 171.93 102.908 171.93 102.392C171.93 101.972 171.606 101.732 170.946 101.6L170.154 101.444C169.002 101.228 168.306 100.664 168.306 99.728C168.306 98.732 169.254 97.988 170.634 97.988C172.11 97.988 173.022 98.732 173.082 99.932H171.834C171.774 99.296 171.318 98.936 170.598 98.936C169.974 98.936 169.542 99.212 169.542 99.668C169.542 100.076 169.83 100.28 170.526 100.412L171.33 100.568C172.422 100.784 173.154 101.3 173.154 102.296C173.154 103.376 172.23 104.192 170.73 104.192ZM179.704 104.192C177.988 104.192 176.788 103.076 176.788 101.084C176.788 99.188 178.084 97.988 179.764 97.988C181.3 97.988 182.272 98.912 182.404 100.256H181.132C181.06 99.548 180.592 98.972 179.752 98.972C178.768 98.972 178.06 99.812 178.06 101.084C178.06 102.356 178.732 103.22 179.74 103.22C180.616 103.22 181.108 102.668 181.204 101.912H182.452C182.296 103.28 181.36 104.192 179.704 104.192ZM186.22 104.192C184.504 104.192 183.304 102.992 183.304 101.096C183.304 99.236 184.516 97.988 186.22 97.988C187.936 97.988 189.148 99.236 189.148 101.096C189.148 102.992 187.936 104.192 186.22 104.192ZM184.576 101.096C184.576 102.392 185.212 103.22 186.22 103.22C187.228 103.22 187.876 102.392 187.876 101.096C187.876 99.776 187.216 98.972 186.22 98.972C185.236 98.972 184.576 99.776 184.576 101.096ZM190.437 104V98.18H191.685V98.528C191.685 98.756 191.685 98.972 191.661 99.188C191.961 98.528 192.549 97.988 193.425 97.988C193.521 97.988 193.617 97.988 193.713 98.012V99.224C193.629 99.212 193.509 99.188 193.341 99.188C192.333 99.188 191.685 99.728 191.685 101.012V104H190.437ZM197.13 104.192C195.39 104.192 194.238 103.088 194.238 101.072C194.238 99.26 195.438 97.988 197.082 97.988C198.834 97.988 199.83 99.212 199.83 101.096V101.36H195.498C195.522 102.488 196.194 103.22 197.142 103.22C197.814 103.22 198.402 102.896 198.522 102.152H199.782C199.662 103.256 198.75 104.192 197.13 104.192ZM195.51 100.472H198.522C198.51 99.56 197.97 98.936 197.07 98.936C196.194 98.936 195.594 99.596 195.51 100.472ZM203.808 104V98.18H205.056V98.54C205.056 98.684 205.056 98.84 205.032 98.984C205.356 98.444 205.92 97.988 206.724 97.988C207.468 97.988 208.092 98.456 208.368 99.104C208.728 98.48 209.412 97.988 210.252 97.988C211.428 97.988 212.28 98.816 212.28 100.328V104H211.032V100.532C211.032 99.56 210.696 98.972 209.94 98.972C209.16 98.972 208.668 99.668 208.668 100.568V104H207.42V100.556C207.42 99.572 207.096 98.972 206.34 98.972C205.572 98.972 205.056 99.656 205.056 100.592V104H203.808ZM216.395 104.192C214.655 104.192 213.503 103.088 213.503 101.072C213.503 99.26 214.703 97.988 216.347 97.988C218.099 97.988 219.095 99.212 219.095 101.096V101.36H214.763C214.787 102.488 215.459 103.22 216.407 103.22C217.079 103.22 217.667 102.896 217.787 102.152H219.047C218.927 103.256 218.015 104.192 216.395 104.192ZM214.775 100.472H217.787C217.775 99.56 217.235 98.936 216.335 98.936C215.459 98.936 214.859 99.596 214.775 100.472ZM222.574 104.192C220.966 104.192 220.006 103.34 219.946 102.032H221.194C221.23 102.776 221.71 103.244 222.562 103.244C223.294 103.244 223.774 102.908 223.774 102.392C223.774 101.972 223.45 101.732 222.79 101.6L221.998 101.444C220.846 101.228 220.15 100.664 220.15 99.728C220.15 98.732 221.098 97.988 222.478 97.988C223.954 97.988 224.866 98.732 224.926 99.932H223.678C223.618 99.296 223.162 98.936 222.442 98.936C221.818 98.936 221.386 99.212 221.386 99.668C221.386 100.076 221.674 100.28 222.37 100.412L223.174 100.568C224.266 100.784 224.998 101.3 224.998 102.296C224.998 103.376 224.074 104.192 222.574 104.192ZM228.48 104.192C226.872 104.192 225.912 103.34 225.852 102.032H227.1C227.136 102.776 227.616 103.244 228.468 103.244C229.2 103.244 229.68 102.908 229.68 102.392C229.68 101.972 229.356 101.732 228.696 101.6L227.904 101.444C226.752 101.228 226.056 100.664 226.056 99.728C226.056 98.732 227.004 97.988 228.384 97.988C229.86 97.988 230.772 98.732 230.832 99.932H229.584C229.524 99.296 229.068 98.936 228.348 98.936C227.724 98.936 227.292 99.212 227.292 99.668C227.292 100.076 227.58 100.28 228.276 100.412L229.08 100.568C230.172 100.784 230.904 101.3 230.904 102.296C230.904 103.376 229.98 104.192 228.48 104.192ZM233.883 104.192C232.827 104.192 231.879 103.52 231.879 102.404C231.879 101.18 232.839 100.688 233.979 100.532L235.023 100.376C235.479 100.316 235.635 100.148 235.635 99.824C235.635 99.308 235.227 98.936 234.579 98.936C233.787 98.936 233.343 99.368 233.307 100.028H232.035C232.095 98.888 233.007 97.988 234.495 97.988C236.103 97.988 236.871 98.888 236.871 100.376V104H235.707V103.736C235.707 103.556 235.719 103.388 235.731 103.208C235.431 103.796 234.819 104.192 233.883 104.192ZM233.163 102.368C233.163 102.932 233.607 103.256 234.159 103.256C235.011 103.256 235.659 102.656 235.659 101.768V101.024C235.563 101.144 235.347 101.216 234.999 101.276L234.339 101.408C233.655 101.54 233.163 101.804 233.163 102.368ZM240.957 106.664C239.325 106.664 238.341 105.776 238.341 104.48H239.589C239.601 105.212 240.117 105.692 240.981 105.692C241.905 105.692 242.553 105.176 242.553 104.12V103.448C242.553 103.256 242.565 103.076 242.577 102.896C242.253 103.448 241.605 103.856 240.717 103.856C239.157 103.856 238.089 102.752 238.089 100.928C238.089 99.128 239.301 97.988 240.705 97.988C241.701 97.988 242.253 98.444 242.577 98.984C242.565 98.816 242.553 98.648 242.553 98.468V98.18H243.801V103.76C243.801 105.716 242.745 106.664 240.957 106.664ZM239.373 100.928C239.373 102.092 240.045 102.872 241.005 102.872C241.953 102.872 242.637 102.08 242.637 100.928C242.637 99.788 241.953 98.972 241.005 98.972C240.045 98.972 239.373 99.776 239.373 100.928ZM247.977 104.192C246.237 104.192 245.085 103.088 245.085 101.072C245.085 99.26 246.285 97.988 247.929 97.988C249.681 97.988 250.677 99.212 250.677 101.096V101.36H246.345C246.369 102.488 247.041 103.22 247.989 103.22C248.661 103.22 249.249 102.896 249.369 102.152H250.629C250.509 103.256 249.597 104.192 247.977 104.192ZM246.357 100.472H249.369C249.357 99.56 248.817 98.936 247.917 98.936C247.041 98.936 246.441 99.596 246.357 100.472Z" fill="#464134"/>
<path d="M16.3753 138.417H14.6837C14.357 138.417 14.1936 138.417 14.0688 138.48C13.9591 138.536 13.8698 138.625 13.8139 138.735C13.7503 138.86 13.7503 139.023 13.7503 139.35V144.25M21.6253 138.417H23.317C23.6437 138.417 23.807 138.417 23.9318 138.48C24.0416 138.536 24.1308 138.625 24.1867 138.735C24.2503 138.86 24.2503 139.023 24.2503 139.35V144.25M21.6253 144.25V135.617C21.6253 134.963 21.6253 134.637 21.4982 134.387C21.3863 134.167 21.2078 133.989 20.9883 133.877C20.7388 133.75 20.4121 133.75 19.7587 133.75H18.242C17.5886 133.75 17.2619 133.75 17.0123 133.877C16.7928 133.989 16.6143 134.167 16.5025 134.387C16.3753 134.637 16.3753 134.963 16.3753 135.617V144.25M24.8337 144.25H13.167M18.417 136.083H19.5837M18.417 138.417H19.5837M18.417 140.75H19.5837" stroke="#464134" stroke-width="1.25" stroke-linecap="square"/>
<path d="M31.008 143V134.6H36.66V135.716H32.34V138.116H36.468V139.256H32.34V141.872H36.816V143H31.008ZM38.1754 143V137.18H39.4234V137.504C39.4234 137.66 39.4114 137.804 39.3994 137.984C39.7114 137.444 40.3354 136.988 41.1874 136.988C42.5074 136.988 43.2874 137.864 43.2874 139.328V143H42.0394V139.496C42.0394 138.524 41.6554 137.972 40.8514 137.972C39.9874 137.972 39.4234 138.68 39.4234 139.544V143H38.1754ZM47.1245 143.096C46.0685 143.096 45.3485 142.58 45.3485 141.284V138.188H44.1365V137.18H45.3485V135.164H46.5965V137.18H47.9165V138.188H46.5965V141.116C46.5965 141.764 46.8845 142.052 47.4485 142.052C47.5925 142.052 47.7365 142.04 47.8925 142.016V143.012C47.7125 143.06 47.4245 143.096 47.1245 143.096ZM51.5475 143.192C49.8075 143.192 48.6555 142.088 48.6555 140.072C48.6555 138.26 49.8555 136.988 51.4995 136.988C53.2515 136.988 54.2475 138.212 54.2475 140.096V140.36H49.9155C49.9395 141.488 50.6115 142.22 51.5595 142.22C52.2315 142.22 52.8195 141.896 52.9395 141.152H54.1995C54.0795 142.256 53.1675 143.192 51.5475 143.192ZM49.9275 139.472H52.9395C52.9275 138.56 52.3875 137.936 51.4875 137.936C50.6115 137.936 50.0115 138.596 49.9275 139.472ZM55.5426 143V137.18H56.7906V137.528C56.7906 137.756 56.7906 137.972 56.7666 138.188C57.0666 137.528 57.6546 136.988 58.5306 136.988C58.6266 136.988 58.7226 136.988 58.8186 137.012V138.224C58.7346 138.212 58.6146 138.188 58.4466 138.188C57.4386 138.188 56.7906 138.728 56.7906 140.012V143H55.5426ZM59.8082 145.472V137.18H61.0562V137.516C61.0562 137.672 61.0562 137.816 61.0322 137.996C61.3802 137.42 62.0522 136.988 62.9522 136.988C64.5602 136.988 65.5682 138.284 65.5682 140.096C65.5682 141.968 64.4522 143.192 62.9042 143.192C62.0042 143.192 61.4042 142.784 61.0322 142.196C61.0562 142.388 61.0562 142.544 61.0562 142.712V145.472H59.8082ZM60.9962 140.084C60.9962 141.356 61.6802 142.22 62.6522 142.22C63.6362 142.22 64.2842 141.344 64.2842 140.084C64.2842 138.848 63.6482 137.972 62.6522 137.972C61.6922 137.972 60.9962 138.788 60.9962 140.084ZM66.8394 143V137.18H68.0874V137.528C68.0874 137.756 68.0874 137.972 68.0634 138.188C68.3634 137.528 68.9514 136.988 69.8274 136.988C69.9234 136.988 70.0194 136.988 70.1154 137.012V138.224C70.0314 138.212 69.9114 138.188 69.7434 138.188C68.7354 138.188 68.0874 138.728 68.0874 140.012V143H66.8394ZM71.1051 143V137.18H72.3531V143H71.1051ZM71.0571 136.184V134.804H72.4131V136.184H71.0571ZM76.1719 143.192C74.5639 143.192 73.6039 142.34 73.5439 141.032H74.7919C74.8279 141.776 75.3079 142.244 76.1599 142.244C76.8919 142.244 77.3719 141.908 77.3719 141.392C77.3719 140.972 77.0479 140.732 76.3879 140.6L75.5959 140.444C74.4439 140.228 73.7479 139.664 73.7479 138.728C73.7479 137.732 74.6959 136.988 76.0759 136.988C77.5519 136.988 78.4639 137.732 78.5239 138.932H77.2759C77.2159 138.296 76.7599 137.936 76.0399 137.936C75.4159 137.936 74.9839 138.212 74.9839 138.668C74.9839 139.076 75.2719 139.28 75.9679 139.412L76.7719 139.568C77.8639 139.784 78.5959 140.3 78.5959 141.296C78.5959 142.376 77.6719 143.192 76.1719 143.192ZM82.4381 143.192C80.6981 143.192 79.5461 142.088 79.5461 140.072C79.5461 138.26 80.7461 136.988 82.3901 136.988C84.1421 136.988 85.1381 138.212 85.1381 140.096V140.36H80.8061C80.8301 141.488 81.5021 142.22 82.4501 142.22C83.1221 142.22 83.7101 141.896 83.8301 141.152H85.0901C84.9701 142.256 84.0581 143.192 82.4381 143.192ZM80.8181 139.472H83.8301C83.8181 138.56 83.2781 137.936 82.3781 137.936C81.5021 137.936 80.9021 138.596 80.8181 139.472ZM91.6848 143.192C89.9688 143.192 88.7688 141.992 88.7688 140.096C88.7688 138.236 89.9808 136.988 91.6848 136.988C93.4008 136.988 94.6128 138.236 94.6128 140.096C94.6128 141.992 93.4008 143.192 91.6848 143.192ZM90.0408 140.096C90.0408 141.392 90.6768 142.22 91.6848 142.22C92.6928 142.22 93.3408 141.392 93.3408 140.096C93.3408 138.776 92.6808 137.972 91.6848 137.972C90.7008 137.972 90.0408 138.776 90.0408 140.096ZM95.9019 143V137.18H97.1499V137.504C97.1499 137.66 97.1379 137.804 97.1259 137.984C97.4379 137.444 98.0619 136.988 98.9139 136.988C100.234 136.988 101.014 137.864 101.014 139.328V143H99.7659V139.496C99.7659 138.524 99.3819 137.972 98.5779 137.972C97.7139 137.972 97.1499 138.68 97.1499 139.544V143H95.9019ZM102.582 143V134.6H103.83V143H102.582ZM106.064 145.472L107.072 142.868L104.768 137.18H106.16L107.504 140.912C107.576 141.128 107.66 141.356 107.732 141.62C107.804 141.356 107.876 141.128 107.948 140.912L109.184 137.18H110.492L107.396 145.472H106.064Z" fill="#464134"/>
</g>
<path d="M0.5 16C0.5 7.43958 7.43959 0.5 16 0.5H253C261.56 0.5 268.5 7.43959 268.5 16V143C268.5 151.56 261.56 158.5 253 158.5H16C7.43958 158.5 0.5 151.56 0.5 143V16Z" stroke="#EEECE8"/>
<defs>
<clipPath id="clip0_3431_24989">
<path d="M0 16C0 7.16344 7.16344 0 16 0H253C261.837 0 269 7.16344 269 16V143C269 151.837 261.837 159 253 159H16C7.16344 159 0 151.837 0 143V16Z" fill="white"/>
</clipPath>
</defs>
</svg>
