<svg width="269" height="147" viewBox="0 0 269 147" fill="none" xmlns="http://www.w3.org/2000/svg">
<g clip-path="url(#clip0_3431_25209)">
<path d="M0 16C0 7.16345 7.16344 0 16 0H253C261.837 0 269 7.16344 269 16V131C269 139.837 261.837 147 253 147H16C7.16344 147 0 139.837 0 131V16Z" fill="#FAFAFA"/>
<path d="M26 9C16.6112 9 9 16.6112 9 26C9 35.3888 16.6112 43 26 43C35.3888 43 43 35.3888 43 26C43 16.6112 35.3888 9 26 9Z" fill="#DEDDFD"/>
<path d="M26 9C16.6112 9 9 16.6112 9 26C9 35.3888 16.6112 43 26 43C35.3888 43 43 35.3888 43 26C43 16.6112 35.3888 9 26 9Z" stroke="#FAFAFA" stroke-width="6"/>
<g clip-path="url(#clip1_3431_25209)">
<path d="M20.0503 22.9887L22.8118 25.522C22.9887 25.6843 23.0772 25.7654 23.1705 25.7831C23.2522 25.7986 23.3367 25.783 23.4075 25.7394C23.4883 25.6896 23.542 25.5822 23.6494 25.3675L24.2474 24.1713C24.2791 24.1079 24.295 24.0762 24.3165 24.0491C24.3355 24.0251 24.3578 24.0038 24.3827 23.9859C24.4107 23.9656 24.4431 23.9512 24.5079 23.9225L27.0389 22.7976C27.1458 22.75 27.1992 22.7263 27.2395 22.6892C27.2752 22.6564 27.3033 22.6162 27.3218 22.5714C27.3427 22.5208 27.3466 22.4624 27.3544 22.3457L27.5433 19.5131M25.9153 29.7472L25.3892 28.1688C25.3684 28.1062 25.3579 28.075 25.3538 28.0429C25.3501 28.0145 25.3501 27.9858 25.3538 27.9574C25.3579 27.9254 25.3684 27.8941 25.3892 27.8315L25.7268 26.8188C25.8171 26.5478 25.8623 26.4122 25.9466 26.3496C26.0202 26.295 26.1131 26.273 26.2034 26.289C26.3068 26.3073 26.4078 26.4083 26.6099 26.6104L26.927 26.9275C26.9542 26.9547 26.9677 26.9682 26.9827 26.9801C26.9959 26.9906 27.0099 27.0001 27.0246 27.0085C27.0412 27.0179 27.0588 27.0255 27.0941 27.0406L28.8131 27.7774C28.994 27.8549 29.0845 27.8937 29.1366 27.9585C29.1824 28.0154 29.2082 28.0858 29.21 28.1589C29.2121 28.242 29.1681 28.33 29.0801 28.5061L28.2065 30.2531C28.1332 30.3998 28.0965 30.4732 28.04 30.5187C27.9902 30.5588 27.93 30.5838 27.8664 30.5906C27.7942 30.5984 27.7164 30.5724 27.5609 30.5206L26.2527 30.0845C26.1599 30.0536 26.1135 30.0381 26.075 30.0118C26.0409 29.9884 26.0114 29.959 25.9881 29.9248C25.9617 29.8863 25.9463 29.84 25.9153 29.7472ZM32.6663 26.0002C32.6663 29.6821 29.6816 32.6668 25.9997 32.6668C22.3178 32.6668 19.333 29.6821 19.333 26.0002C19.333 22.3183 22.3178 19.3335 25.9997 19.3335C29.6816 19.3335 32.6663 22.3183 32.6663 26.0002Z" stroke="#0E0E0E" stroke-width="1.5" stroke-linecap="round"/>
</g>
<path d="M199 21C199 18.7909 200.791 17 203 17H253C255.209 17 257 18.7909 257 21V31C257 33.2091 255.209 35 253 35H203C200.791 35 199 33.2091 199 31V21Z" fill="#E7D0F2"/>
<path d="M205.693 29V22.7H208.339C209.653 22.7 210.643 23.258 210.643 24.59C210.643 25.958 209.608 26.48 208.339 26.48H206.872V29H205.693ZM206.872 25.481H208.339C209.095 25.481 209.428 25.139 209.428 24.59C209.428 24.041 209.113 23.699 208.339 23.699H206.872V25.481ZM214.787 29.162C213.023 29.162 211.7 27.965 211.7 25.85C211.7 23.825 213.023 22.538 214.787 22.538C216.551 22.538 217.901 23.852 217.901 25.85C217.901 27.956 216.551 29.162 214.787 29.162ZM212.915 25.85C212.915 27.317 213.671 28.163 214.787 28.163C215.903 28.163 216.686 27.335 216.686 25.85C216.686 24.437 215.912 23.537 214.787 23.537C213.662 23.537 212.915 24.419 212.915 25.85ZM219.473 29V22.7H222.119C223.433 22.7 224.423 23.258 224.423 24.59C224.423 25.958 223.388 26.48 222.119 26.48H220.652V29H219.473ZM220.652 25.481H222.119C222.875 25.481 223.208 25.139 223.208 24.59C223.208 24.041 222.893 23.699 222.119 23.699H220.652V25.481ZM228.334 29.162C226.723 29.162 225.769 28.235 225.769 26.597V22.7H226.957V26.417C226.957 27.587 227.434 28.163 228.334 28.163C229.225 28.163 229.711 27.569 229.711 26.417V22.7H230.89V26.597C230.89 28.235 229.936 29.162 228.334 29.162ZM232.752 29V22.7H233.931V28.001H237.099V29H232.752ZM237.758 29L240.35 22.7H241.7L244.292 29H242.969L242.339 27.281H239.657L239.018 29H237.758ZM240.026 26.282H241.97L241.25 24.32C241.151 24.059 241.079 23.852 241.007 23.591C240.926 23.852 240.836 24.068 240.746 24.32L240.026 26.282ZM245.478 29V22.7H248.268C249.447 22.7 250.302 23.258 250.302 24.356C250.302 25.22 249.699 25.715 249.096 25.895C249.816 26.021 250.203 26.543 250.203 27.353V29H249.015V27.461C249.015 26.714 248.745 26.444 247.98 26.444H246.657V29H245.478ZM246.657 25.436H248.043C248.736 25.436 249.087 25.139 249.087 24.572C249.087 24.005 248.736 23.699 248.043 23.699H246.657V25.436Z" fill="#872D99"/>
<path d="M13.078 68V58.2H14.912V66.446H19.84V68H13.078ZM22.827 68.252C21.637 68.252 20.475 67.468 20.475 66.124C20.475 64.584 21.665 64.052 23.135 63.856L24.115 63.73C24.675 63.66 24.871 63.45 24.871 63.114C24.871 62.638 24.479 62.218 23.751 62.218C22.953 62.218 22.449 62.666 22.379 63.38H20.615C20.727 61.952 21.889 60.944 23.653 60.944C25.739 60.944 26.579 62.064 26.579 63.982V68H24.997V67.72C24.997 67.496 25.025 67.286 25.067 67.062C24.703 67.734 24.003 68.252 22.827 68.252ZM22.211 66.054C22.211 66.656 22.687 66.992 23.289 66.992C24.199 66.992 24.927 66.32 24.927 65.354V64.612C24.773 64.752 24.535 64.822 24.115 64.906L23.555 65.018C22.757 65.172 22.211 65.438 22.211 66.054ZM28.2352 68V61.168H29.9432V61.476C29.9432 61.672 29.9292 61.882 29.8872 62.148C30.2652 61.462 30.9092 60.944 31.9872 60.944C33.4992 60.944 34.3952 62.008 34.3952 63.688V68H32.6872V63.94C32.6872 62.932 32.1972 62.302 31.3992 62.302C30.5592 62.302 29.9432 63.044 29.9432 63.996V68H28.2352ZM38.8132 68.252C37.0072 68.252 35.6912 67.02 35.6912 64.612C35.6912 62.162 37.2452 60.944 38.8412 60.944C39.9052 60.944 40.5632 61.49 40.9552 62.148C40.8992 61.896 40.8992 61.686 40.8992 61.476V58.2H42.6072V68H40.8992V67.72C40.8992 67.482 40.8992 67.3 40.9552 67.062C40.6892 67.566 40.0732 68.252 38.8132 68.252ZM37.4272 64.598C37.4272 66.012 38.1972 66.908 39.2192 66.908C40.2412 66.908 40.9972 65.97 40.9972 64.598C40.9972 63.198 40.2412 62.302 39.2192 62.302C38.1972 62.302 37.4272 63.24 37.4272 64.598ZM44.3407 68V61.168H46.0487V68H44.3407ZM44.3127 60.132V58.34H46.0907V60.132H44.3127ZM47.786 68V61.168H49.494V61.476C49.494 61.672 49.48 61.882 49.438 62.148C49.816 61.462 50.46 60.944 51.538 60.944C53.05 60.944 53.946 62.008 53.946 63.688V68H52.238V63.94C52.238 62.932 51.748 62.302 50.95 62.302C50.11 62.302 49.494 63.044 49.494 63.996V68H47.786ZM58.7 71.108C56.684 71.108 55.536 70.03 55.536 68.476H57.272C57.3 69.288 57.818 69.764 58.742 69.764C59.638 69.764 60.394 69.232 60.394 68.21V67.468C60.394 67.16 60.408 66.88 60.45 66.614C60.044 67.23 59.386 67.748 58.322 67.748C56.544 67.748 55.256 66.502 55.256 64.346C55.256 62.218 56.74 60.944 58.238 60.944C59.442 60.944 60.044 61.434 60.45 62.148C60.408 61.91 60.394 61.728 60.394 61.476V61.168H62.102V67.79C62.102 70.03 60.716 71.108 58.7 71.108ZM56.992 64.346C56.992 65.536 57.72 66.39 58.756 66.39C59.764 66.39 60.492 65.536 60.492 64.346C60.492 63.156 59.764 62.302 58.756 62.302C57.72 62.302 56.992 63.156 56.992 64.346ZM66.9862 68V58.2H71.1022C73.1462 58.2 74.6862 59.068 74.6862 61.14C74.6862 63.268 73.0762 64.08 71.1022 64.08H68.8202V68H66.9862ZM68.8202 62.526H71.1022C72.2782 62.526 72.7962 61.994 72.7962 61.14C72.7962 60.286 72.3062 59.754 71.1022 59.754H68.8202V62.526ZM77.6102 68.252C76.4202 68.252 75.2582 67.468 75.2582 66.124C75.2582 64.584 76.4482 64.052 77.9182 63.856L78.8982 63.73C79.4582 63.66 79.6542 63.45 79.6542 63.114C79.6542 62.638 79.2622 62.218 78.5342 62.218C77.7362 62.218 77.2322 62.666 77.1622 63.38H75.3982C75.5102 61.952 76.6722 60.944 78.4362 60.944C80.5222 60.944 81.3622 62.064 81.3622 63.982V68H79.7802V67.72C79.7802 67.496 79.8082 67.286 79.8502 67.062C79.4862 67.734 78.7862 68.252 77.6102 68.252ZM76.9942 66.054C76.9942 66.656 77.4702 66.992 78.0722 66.992C78.9822 66.992 79.7102 66.32 79.7102 65.354V64.612C79.5562 64.752 79.3182 64.822 78.8982 64.906L78.3382 65.018C77.5402 65.172 76.9942 65.438 76.9942 66.054ZM86.0984 71.108C84.0824 71.108 82.9344 70.03 82.9344 68.476H84.6704C84.6984 69.288 85.2164 69.764 86.1404 69.764C87.0364 69.764 87.7924 69.232 87.7924 68.21V67.468C87.7924 67.16 87.8064 66.88 87.8484 66.614C87.4424 67.23 86.7844 67.748 85.7204 67.748C83.9424 67.748 82.6544 66.502 82.6544 64.346C82.6544 62.218 84.1384 60.944 85.6364 60.944C86.8404 60.944 87.4424 61.434 87.8484 62.148C87.8064 61.91 87.7924 61.728 87.7924 61.476V61.168H89.5004V67.79C89.5004 70.03 88.1144 71.108 86.0984 71.108ZM84.3904 64.346C84.3904 65.536 85.1184 66.39 86.1544 66.39C87.1624 66.39 87.8904 65.536 87.8904 64.346C87.8904 63.156 87.1624 62.302 86.1544 62.302C85.1184 62.302 84.3904 63.156 84.3904 64.346ZM94.3292 68.252C92.2852 68.252 90.8432 66.936 90.8432 64.57C90.8432 62.414 92.2852 60.944 94.2732 60.944C96.3592 60.944 97.5632 62.4 97.5632 64.626V65.004H92.5932C92.6072 66.082 93.2932 66.908 94.3292 66.908C95.0712 66.908 95.6732 66.488 95.7852 65.774H97.5212C97.3812 67.174 96.1772 68.252 94.3292 68.252ZM92.5792 63.772H95.8132C95.7852 62.848 95.1832 62.218 94.2592 62.218C93.3352 62.218 92.6772 62.876 92.5792 63.772Z" fill="#0E0E0E"/>
<path d="M14.952 88V80.716H12.096V79.6H19.128V80.716H16.284V88H14.952ZM18.8746 88V82.18H20.1226V82.528C20.1226 82.756 20.1226 82.972 20.0986 83.188C20.3986 82.528 20.9866 81.988 21.8626 81.988C21.9586 81.988 22.0546 81.988 22.1506 82.012V83.224C22.0666 83.212 21.9466 83.188 21.7786 83.188C20.7706 83.188 20.1226 83.728 20.1226 85.012V88H18.8746ZM24.7148 88.192C23.6588 88.192 22.7108 87.52 22.7108 86.404C22.7108 85.18 23.6708 84.688 24.8108 84.532L25.8548 84.376C26.3108 84.316 26.4668 84.148 26.4668 83.824C26.4668 83.308 26.0588 82.936 25.4108 82.936C24.6188 82.936 24.1748 83.368 24.1388 84.028H22.8668C22.9268 82.888 23.8388 81.988 25.3268 81.988C26.9348 81.988 27.7028 82.888 27.7028 84.376V88H26.5388V87.736C26.5388 87.556 26.5508 87.388 26.5628 87.208C26.2628 87.796 25.6508 88.192 24.7148 88.192ZM23.9948 86.368C23.9948 86.932 24.4388 87.256 24.9908 87.256C25.8428 87.256 26.4908 86.656 26.4908 85.768V85.024C26.3948 85.144 26.1788 85.216 25.8308 85.276L25.1708 85.408C24.4868 85.54 23.9948 85.804 23.9948 86.368ZM29.2574 88V82.18H30.5054V82.504C30.5054 82.66 30.4934 82.804 30.4814 82.984C30.7934 82.444 31.4174 81.988 32.2694 81.988C33.5894 81.988 34.3694 82.864 34.3694 84.328V88H33.1214V84.496C33.1214 83.524 32.7374 82.972 31.9334 82.972C31.0694 82.972 30.5054 83.68 30.5054 84.544V88H29.2574ZM38.1211 88.192C36.5131 88.192 35.5531 87.34 35.4931 86.032H36.7411C36.7771 86.776 37.2571 87.244 38.1091 87.244C38.8411 87.244 39.3211 86.908 39.3211 86.392C39.3211 85.972 38.9971 85.732 38.3371 85.6L37.5451 85.444C36.3931 85.228 35.6971 84.664 35.6971 83.728C35.6971 82.732 36.6451 81.988 38.0251 81.988C39.5011 81.988 40.4131 82.732 40.4731 83.932H39.2251C39.1651 83.296 38.7091 82.936 37.9891 82.936C37.3651 82.936 36.9331 83.212 36.9331 83.668C36.9331 84.076 37.2211 84.28 37.9171 84.412L38.7211 84.568C39.8131 84.784 40.5451 85.3 40.5451 86.296C40.5451 87.376 39.6211 88.192 38.1211 88.192ZM42.3008 88V83.188H41.1728V82.18H42.3008V81.304C42.3008 80.044 43.0568 79.396 44.0648 79.396C44.3768 79.396 44.6288 79.456 44.7488 79.504V80.512C44.6528 80.488 44.5088 80.464 44.3648 80.464C43.8728 80.464 43.5488 80.752 43.5488 81.28V82.18H44.7608V83.188H43.5488V88H42.3008ZM48.2082 88.192C46.4922 88.192 45.2922 86.992 45.2922 85.096C45.2922 83.236 46.5042 81.988 48.2082 81.988C49.9242 81.988 51.1362 83.236 51.1362 85.096C51.1362 86.992 49.9242 88.192 48.2082 88.192ZM46.5642 85.096C46.5642 86.392 47.2002 87.22 48.2082 87.22C49.2162 87.22 49.8642 86.392 49.8642 85.096C49.8642 83.776 49.2042 82.972 48.2082 82.972C47.2242 82.972 46.5642 83.776 46.5642 85.096ZM52.4254 88V82.18H53.6734V82.528C53.6734 82.756 53.6734 82.972 53.6494 83.188C53.9494 82.528 54.5374 81.988 55.4134 81.988C55.5094 81.988 55.6054 81.988 55.7014 82.012V83.224C55.6174 83.212 55.4974 83.188 55.3294 83.188C54.3214 83.188 53.6734 83.728 53.6734 85.012V88H52.4254ZM56.691 88V82.18H57.939V82.54C57.939 82.684 57.939 82.84 57.915 82.984C58.239 82.444 58.803 81.988 59.607 81.988C60.351 81.988 60.975 82.456 61.251 83.104C61.611 82.48 62.295 81.988 63.135 81.988C64.311 81.988 65.163 82.816 65.163 84.328V88H63.915V84.532C63.915 83.56 63.579 82.972 62.823 82.972C62.043 82.972 61.551 83.668 61.551 84.568V88H60.303V84.556C60.303 83.572 59.979 82.972 59.223 82.972C58.455 82.972 57.939 83.656 57.939 84.592V88H56.691ZM71.6016 88.192C69.9936 88.192 69.0336 87.34 68.9736 86.032H70.2216C70.2576 86.776 70.7376 87.244 71.5896 87.244C72.3216 87.244 72.8016 86.908 72.8016 86.392C72.8016 85.972 72.4776 85.732 71.8176 85.6L71.0256 85.444C69.8736 85.228 69.1776 84.664 69.1776 83.728C69.1776 82.732 70.1256 81.988 71.5056 81.988C72.9816 81.988 73.8936 82.732 73.9536 83.932H72.7056C72.6456 83.296 72.1896 82.936 71.4696 82.936C70.8456 82.936 70.4136 83.212 70.4136 83.668C70.4136 84.076 70.7016 84.28 71.3976 84.412L72.2016 84.568C73.2936 84.784 74.0256 85.3 74.0256 86.296C74.0256 87.376 73.1016 88.192 71.6016 88.192ZM75.3238 88V82.18H76.5718V88H75.3238ZM75.2758 81.184V79.804H76.6318V81.184H75.2758ZM80.5346 88.096C79.4786 88.096 78.7586 87.58 78.7586 86.284V83.188H77.5466V82.18H78.7586V80.164H80.0066V82.18H81.3266V83.188H80.0066V86.116C80.0066 86.764 80.2946 87.052 80.8586 87.052C81.0026 87.052 81.1466 87.04 81.3026 87.016V88.012C81.1226 88.06 80.8346 88.096 80.5346 88.096ZM84.9577 88.192C83.2177 88.192 82.0657 87.088 82.0657 85.072C82.0657 83.26 83.2657 81.988 84.9097 81.988C86.6617 81.988 87.6577 83.212 87.6577 85.096V85.36H83.3257C83.3497 86.488 84.0217 87.22 84.9697 87.22C85.6417 87.22 86.2297 86.896 86.3497 86.152H87.6097C87.4897 87.256 86.5777 88.192 84.9577 88.192ZM83.3377 84.472H86.3497C86.3377 83.56 85.7977 82.936 84.8977 82.936C84.0217 82.936 83.4217 83.596 83.3377 84.472ZM93.7417 88.096C92.6857 88.096 91.9657 87.58 91.9657 86.284V83.188H90.7537V82.18H91.9657V80.164H93.2137V82.18H94.5337V83.188H93.2137V86.116C93.2137 86.764 93.5017 87.052 94.0657 87.052C94.2097 87.052 94.3537 87.04 94.5097 87.016V88.012C94.3297 88.06 94.0417 88.096 93.7417 88.096ZM95.691 88V82.18H96.939V82.528C96.939 82.756 96.939 82.972 96.915 83.188C97.215 82.528 97.803 81.988 98.679 81.988C98.775 81.988 98.871 81.988 98.967 82.012V83.224C98.883 83.212 98.763 83.188 98.595 83.188C97.587 83.188 96.939 83.728 96.939 85.012V88H95.691ZM101.531 88.192C100.475 88.192 99.5272 87.52 99.5272 86.404C99.5272 85.18 100.487 84.688 101.627 84.532L102.671 84.376C103.127 84.316 103.283 84.148 103.283 83.824C103.283 83.308 102.875 82.936 102.227 82.936C101.435 82.936 100.991 83.368 100.955 84.028H99.6832C99.7432 82.888 100.655 81.988 102.143 81.988C103.751 81.988 104.519 82.888 104.519 84.376V88H103.355V87.736C103.355 87.556 103.367 87.388 103.379 87.208C103.079 87.796 102.467 88.192 101.531 88.192ZM100.811 86.368C100.811 86.932 101.255 87.256 101.807 87.256C102.659 87.256 103.307 86.656 103.307 85.768V85.024C103.211 85.144 102.995 85.216 102.647 85.276L101.987 85.408C101.303 85.54 100.811 85.804 100.811 86.368ZM107.779 83.188V88H106.531V83.188H105.403V82.18H106.531V81.304C106.531 80.044 107.287 79.396 108.295 79.396C108.607 79.396 108.859 79.456 108.979 79.504V80.512C108.883 80.488 108.739 80.464 108.595 80.464C108.103 80.464 107.779 80.752 107.779 81.28V82.18H110.275V81.304C110.275 80.044 111.031 79.396 112.039 79.396C112.351 79.396 112.603 79.456 112.723 79.504V80.512C112.627 80.488 112.483 80.464 112.339 80.464C111.847 80.464 111.523 80.752 111.523 81.28V82.18H112.735V83.188H111.523V88H110.275V83.188H107.779ZM113.726 88V82.18H114.974V88H113.726ZM113.678 81.184V79.804H115.034V81.184H113.678ZM119.177 88.192C117.461 88.192 116.261 87.076 116.261 85.084C116.261 83.188 117.557 81.988 119.237 81.988C120.773 81.988 121.745 82.912 121.877 84.256H120.605C120.533 83.548 120.065 82.972 119.225 82.972C118.241 82.972 117.533 83.812 117.533 85.084C117.533 86.356 118.205 87.22 119.213 87.22C120.089 87.22 120.581 86.668 120.677 85.912H121.925C121.769 87.28 120.833 88.192 119.177 88.192ZM125.808 88V82.18H127.056V88H125.808ZM125.76 81.184V79.804H127.116V81.184H125.76ZM128.691 88V82.18H129.939V82.504C129.939 82.66 129.927 82.804 129.915 82.984C130.227 82.444 130.851 81.988 131.703 81.988C133.023 81.988 133.803 82.864 133.803 84.328V88H132.555V84.496C132.555 83.524 132.171 82.972 131.367 82.972C130.503 82.972 129.939 83.68 129.939 84.544V88H128.691ZM137.64 88.096C136.584 88.096 135.864 87.58 135.864 86.284V83.188H134.652V82.18H135.864V80.164H137.112V82.18H138.432V83.188H137.112V86.116C137.112 86.764 137.4 87.052 137.964 87.052C138.108 87.052 138.252 87.04 138.408 87.016V88.012C138.228 88.06 137.94 88.096 137.64 88.096ZM142.087 88.192C140.371 88.192 139.171 86.992 139.171 85.096C139.171 83.236 140.383 81.988 142.087 81.988C143.803 81.988 145.015 83.236 145.015 85.096C145.015 86.992 143.803 88.192 142.087 88.192ZM140.443 85.096C140.443 86.392 141.079 87.22 142.087 87.22C143.095 87.22 143.743 86.392 143.743 85.096C143.743 83.776 143.083 82.972 142.087 82.972C141.103 82.972 140.443 83.776 140.443 85.096ZM150.312 88L148.104 82.18H149.448L150.828 86.2C150.924 86.452 150.972 86.632 151.032 86.86C151.092 86.632 151.152 86.452 151.236 86.2L152.592 82.18H153.888L151.716 88H150.312ZM156.387 88.192C155.331 88.192 154.383 87.52 154.383 86.404C154.383 85.18 155.343 84.688 156.483 84.532L157.527 84.376C157.983 84.316 158.139 84.148 158.139 83.824C158.139 83.308 157.731 82.936 157.083 82.936C156.291 82.936 155.847 83.368 155.811 84.028H154.539C154.599 82.888 155.511 81.988 156.999 81.988C158.607 81.988 159.375 82.888 159.375 84.376V88H158.211V87.736C158.211 87.556 158.223 87.388 158.235 87.208C157.935 87.796 157.323 88.192 156.387 88.192ZM155.667 86.368C155.667 86.932 156.111 87.256 156.663 87.256C157.515 87.256 158.163 86.656 158.163 85.768V85.024C158.067 85.144 157.851 85.216 157.503 85.276L156.843 85.408C156.159 85.54 155.667 85.804 155.667 86.368ZM160.929 88V79.6H162.177V88H160.929ZM165.84 88.192C164.58 88.192 163.752 87.388 163.752 85.876V82.18H165V85.66C165 86.62 165.372 87.208 166.2 87.208C167.04 87.208 167.568 86.572 167.568 85.516V82.18H168.816V88H167.58V87.7C167.58 87.532 167.592 87.352 167.616 87.196C167.328 87.784 166.716 88.192 165.84 88.192ZM172.125 88.192C171.069 88.192 170.121 87.52 170.121 86.404C170.121 85.18 171.081 84.688 172.221 84.532L173.265 84.376C173.721 84.316 173.877 84.148 173.877 83.824C173.877 83.308 173.469 82.936 172.821 82.936C172.029 82.936 171.585 83.368 171.549 84.028H170.277C170.337 82.888 171.249 81.988 172.737 81.988C174.345 81.988 175.113 82.888 175.113 84.376V88H173.949V87.736C173.949 87.556 173.961 87.388 173.973 87.208C173.673 87.796 173.061 88.192 172.125 88.192ZM171.405 86.368C171.405 86.932 171.849 87.256 172.401 87.256C173.253 87.256 173.901 86.656 173.901 85.768V85.024C173.805 85.144 173.589 85.216 173.241 85.276L172.581 85.408C171.897 85.54 171.405 85.804 171.405 86.368ZM179.776 88.192C178.888 88.192 178.228 87.772 177.892 87.196C177.916 87.388 177.916 87.544 177.916 87.724V88H176.668V79.6H177.916V82.468C177.916 82.648 177.904 82.816 177.892 82.984C178.264 82.42 178.888 81.988 179.776 81.988C181.324 81.988 182.44 83.236 182.44 85.096C182.44 86.992 181.348 88.192 179.776 88.192ZM177.844 85.096C177.844 86.356 178.528 87.22 179.5 87.22C180.484 87.22 181.156 86.356 181.156 85.096C181.156 83.848 180.484 82.972 179.5 82.972C178.528 82.972 177.844 83.8 177.844 85.096ZM183.699 88V79.6H184.947V88H183.699ZM189.126 88.192C187.386 88.192 186.234 87.088 186.234 85.072C186.234 83.26 187.434 81.988 189.078 81.988C190.83 81.988 191.826 83.212 191.826 85.096V85.36H187.494C187.518 86.488 188.19 87.22 189.138 87.22C189.81 87.22 190.398 86.896 190.518 86.152H191.778C191.658 87.256 190.746 88.192 189.126 88.192ZM187.506 84.472H190.518C190.506 83.56 189.966 82.936 189.066 82.936C188.19 82.936 187.59 83.596 187.506 84.472ZM195.804 88V79.6H197.052V88H195.804ZM201.231 88.192C199.491 88.192 198.339 87.088 198.339 85.072C198.339 83.26 199.539 81.988 201.183 81.988C202.935 81.988 203.931 83.212 203.931 85.096V85.36H199.599C199.623 86.488 200.295 87.22 201.243 87.22C201.915 87.22 202.503 86.896 202.623 86.152H203.883C203.763 87.256 202.851 88.192 201.231 88.192ZM199.611 84.472H202.623C202.611 83.56 202.071 82.936 201.171 82.936C200.295 82.936 199.695 83.596 199.611 84.472ZM206.906 88.192C205.85 88.192 204.902 87.52 204.902 86.404C204.902 85.18 205.862 84.688 207.002 84.532L208.046 84.376C208.502 84.316 208.658 84.148 208.658 83.824C208.658 83.308 208.25 82.936 207.602 82.936C206.81 82.936 206.366 83.368 206.33 84.028H205.058C205.118 82.888 206.03 81.988 207.518 81.988C209.126 81.988 209.894 82.888 209.894 84.376V88H208.73V87.736C208.73 87.556 208.742 87.388 208.754 87.208C208.454 87.796 207.842 88.192 206.906 88.192ZM206.186 86.368C206.186 86.932 206.63 87.256 207.182 87.256C208.034 87.256 208.682 86.656 208.682 85.768V85.024C208.586 85.144 208.37 85.216 208.022 85.276L207.362 85.408C206.678 85.54 206.186 85.804 206.186 86.368ZM213.777 88.192C212.241 88.192 211.101 87.112 211.101 85.096C211.101 83.176 212.289 81.988 213.801 81.988C214.737 81.988 215.337 82.48 215.637 82.984C215.613 82.804 215.613 82.636 215.613 82.468V79.6H216.861V88H215.613V87.712C215.613 87.52 215.613 87.364 215.637 87.196C215.361 87.676 214.749 88.192 213.777 88.192ZM212.385 85.096C212.385 86.38 213.069 87.22 214.041 87.22C214.989 87.22 215.685 86.368 215.685 85.084C215.685 83.8 215.001 82.972 214.041 82.972C213.081 82.972 212.385 83.836 212.385 85.096ZM220.676 88.192C219.068 88.192 218.108 87.34 218.048 86.032H219.296C219.332 86.776 219.812 87.244 220.664 87.244C221.396 87.244 221.876 86.908 221.876 86.392C221.876 85.972 221.552 85.732 220.892 85.6L220.1 85.444C218.948 85.228 218.252 84.664 218.252 83.728C218.252 82.732 219.2 81.988 220.58 81.988C222.056 81.988 222.968 82.732 223.028 83.932H221.78C221.72 83.296 221.264 82.936 220.544 82.936C219.92 82.936 219.488 83.212 219.488 83.668C219.488 84.076 219.776 84.28 220.472 84.412L221.276 84.568C222.368 84.784 223.1 85.3 223.1 86.296C223.1 87.376 222.176 88.192 220.676 88.192ZM15.144 104.096C14.088 104.096 13.368 103.58 13.368 102.284V99.188H12.156V98.18H13.368V96.164H14.616V98.18H15.936V99.188H14.616V102.116C14.616 102.764 14.904 103.052 15.468 103.052C15.612 103.052 15.756 103.04 15.912 103.016V104.012C15.732 104.06 15.444 104.096 15.144 104.096ZM17.0933 104V95.6H18.3413V98.456C18.3413 98.624 18.3413 98.792 18.3173 98.984C18.6413 98.42 19.2533 97.988 20.1053 97.988C21.4253 97.988 22.2053 98.864 22.2053 100.328V104H20.9573V100.496C20.9573 99.524 20.5613 98.972 19.7573 98.972C18.9053 98.972 18.3413 99.68 18.3413 100.544V104H17.0933ZM23.773 104V98.18H25.021V98.528C25.021 98.756 25.021 98.972 24.997 99.188C25.297 98.528 25.885 97.988 26.761 97.988C26.857 97.988 26.953 97.988 27.049 98.012V99.224C26.965 99.212 26.845 99.188 26.677 99.188C25.669 99.188 25.021 99.728 25.021 101.012V104H23.773ZM30.4895 104.192C28.7735 104.192 27.5735 102.992 27.5735 101.096C27.5735 99.236 28.7855 97.988 30.4895 97.988C32.2055 97.988 33.4175 99.236 33.4175 101.096C33.4175 102.992 32.2055 104.192 30.4895 104.192ZM28.8455 101.096C28.8455 102.392 29.4815 103.22 30.4895 103.22C31.4975 103.22 32.1455 102.392 32.1455 101.096C32.1455 99.776 31.4855 98.972 30.4895 98.972C29.5055 98.972 28.8455 99.776 28.8455 101.096ZM36.7346 104.192C35.4746 104.192 34.6466 103.388 34.6466 101.876V98.18H35.8946V101.66C35.8946 102.62 36.2666 103.208 37.0946 103.208C37.9346 103.208 38.4626 102.572 38.4626 101.516V98.18H39.7106V104H38.4746V103.7C38.4746 103.532 38.4866 103.352 38.5106 103.196C38.2226 103.784 37.6106 104.192 36.7346 104.192ZM43.8714 106.664C42.2394 106.664 41.2554 105.776 41.2554 104.48H42.5034C42.5154 105.212 43.0314 105.692 43.8954 105.692C44.8194 105.692 45.4674 105.176 45.4674 104.12V103.448C45.4674 103.256 45.4794 103.076 45.4914 102.896C45.1674 103.448 44.5194 103.856 43.6314 103.856C42.0714 103.856 41.0034 102.752 41.0034 100.928C41.0034 99.128 42.2154 97.988 43.6194 97.988C44.6154 97.988 45.1674 98.444 45.4914 98.984C45.4794 98.816 45.4674 98.648 45.4674 98.468V98.18H46.7154V103.76C46.7154 105.716 45.6594 106.664 43.8714 106.664ZM42.2874 100.928C42.2874 102.092 42.9594 102.872 43.9194 102.872C44.8674 102.872 45.5514 102.08 45.5514 100.928C45.5514 99.788 44.8674 98.972 43.9194 98.972C42.9594 98.972 42.2874 99.776 42.2874 100.928ZM48.3473 104V95.6H49.5953V98.456C49.5953 98.624 49.5953 98.792 49.5713 98.984C49.8953 98.42 50.5073 97.988 51.3593 97.988C52.6793 97.988 53.4593 98.864 53.4593 100.328V104H52.2113V100.496C52.2113 99.524 51.8153 98.972 51.0113 98.972C50.1593 98.972 49.5953 99.68 49.5953 100.544V104H48.3473ZM60.2545 104.192C58.5145 104.192 57.3625 103.088 57.3625 101.072C57.3625 99.26 58.5625 97.988 60.2065 97.988C61.9585 97.988 62.9545 99.212 62.9545 101.096V101.36H58.6225C58.6465 102.488 59.3185 103.22 60.2665 103.22C60.9385 103.22 61.5265 102.896 61.6465 102.152H62.9065C62.7865 103.256 61.8745 104.192 60.2545 104.192ZM58.6345 100.472H61.6465C61.6345 99.56 61.0945 98.936 60.1945 98.936C59.3185 98.936 58.7185 99.596 58.6345 100.472ZM64.2496 104V98.18H65.4976V98.504C65.4976 98.66 65.4856 98.804 65.4736 98.984C65.7856 98.444 66.4096 97.988 67.2616 97.988C68.5816 97.988 69.3616 98.864 69.3616 100.328V104H68.1136V100.496C68.1136 99.524 67.7296 98.972 66.9256 98.972C66.0616 98.972 65.4976 99.68 65.4976 100.544V104H64.2496ZM73.4613 106.664C71.8293 106.664 70.8453 105.776 70.8453 104.48H72.0933C72.1053 105.212 72.6213 105.692 73.4853 105.692C74.4093 105.692 75.0573 105.176 75.0573 104.12V103.448C75.0573 103.256 75.0693 103.076 75.0813 102.896C74.7573 103.448 74.1093 103.856 73.2213 103.856C71.6613 103.856 70.5933 102.752 70.5933 100.928C70.5933 99.128 71.8053 97.988 73.2093 97.988C74.2053 97.988 74.7573 98.444 75.0813 98.984C75.0693 98.816 75.0573 98.648 75.0573 98.468V98.18H76.3053V103.76C76.3053 105.716 75.2493 106.664 73.4613 106.664ZM71.8773 100.928C71.8773 102.092 72.5493 102.872 73.5093 102.872C74.4573 102.872 75.1413 102.08 75.1413 100.928C75.1413 99.788 74.4573 98.972 73.5093 98.972C72.5493 98.972 71.8773 99.776 71.8773 100.928ZM79.6171 104.192C78.5611 104.192 77.6131 103.52 77.6131 102.404C77.6131 101.18 78.5731 100.688 79.7131 100.532L80.7571 100.376C81.2131 100.316 81.3691 100.148 81.3691 99.824C81.3691 99.308 80.9611 98.936 80.3131 98.936C79.5211 98.936 79.0771 99.368 79.0411 100.028H77.7691C77.8291 98.888 78.7411 97.988 80.2291 97.988C81.8371 97.988 82.6051 98.888 82.6051 100.376V104H81.4411V103.736C81.4411 103.556 81.4531 103.388 81.4651 103.208C81.1651 103.796 80.5531 104.192 79.6171 104.192ZM78.8971 102.368C78.8971 102.932 79.3411 103.256 79.8931 103.256C80.7451 103.256 81.3931 102.656 81.3931 101.768V101.024C81.2971 101.144 81.0811 101.216 80.7331 101.276L80.0731 101.408C79.3891 101.54 78.8971 101.804 78.8971 102.368ZM86.6918 106.664C85.0598 106.664 84.0758 105.776 84.0758 104.48H85.3238C85.3358 105.212 85.8518 105.692 86.7158 105.692C87.6398 105.692 88.2878 105.176 88.2878 104.12V103.448C88.2878 103.256 88.2998 103.076 88.3118 102.896C87.9878 103.448 87.3398 103.856 86.4518 103.856C84.8918 103.856 83.8238 102.752 83.8238 100.928C83.8238 99.128 85.0358 97.988 86.4398 97.988C87.4358 97.988 87.9878 98.444 88.3118 98.984C88.2998 98.816 88.2878 98.648 88.2878 98.468V98.18H89.5358V103.76C89.5358 105.716 88.4798 106.664 86.6918 106.664ZM85.1077 100.928C85.1077 102.092 85.7798 102.872 86.7398 102.872C87.6878 102.872 88.3718 102.08 88.3718 100.928C88.3718 99.788 87.6878 98.972 86.7398 98.972C85.7798 98.972 85.1077 99.776 85.1077 100.928ZM91.1676 104V98.18H92.4156V104H91.1676ZM91.1196 97.184V95.804H92.4756V97.184H91.1196ZM94.0504 104V98.18H95.2984V98.504C95.2984 98.66 95.2864 98.804 95.2744 98.984C95.5864 98.444 96.2104 97.988 97.0624 97.988C98.3824 97.988 99.1624 98.864 99.1624 100.328V104H97.9144V100.496C97.9144 99.524 97.5304 98.972 96.7264 98.972C95.8624 98.972 95.2984 99.68 95.2984 100.544V104H94.0504ZM103.262 106.664C101.63 106.664 100.646 105.776 100.646 104.48H101.894C101.906 105.212 102.422 105.692 103.286 105.692C104.21 105.692 104.858 105.176 104.858 104.12V103.448C104.858 103.256 104.87 103.076 104.882 102.896C104.558 103.448 103.91 103.856 103.022 103.856C101.462 103.856 100.394 102.752 100.394 100.928C100.394 99.128 101.606 97.988 103.01 97.988C104.006 97.988 104.558 98.444 104.882 98.984C104.87 98.816 104.858 98.648 104.858 98.468V98.18H106.106V103.76C106.106 105.716 105.05 106.664 103.262 106.664ZM101.678 100.928C101.678 102.092 102.35 102.872 103.31 102.872C104.258 102.872 104.942 102.08 104.942 100.928C104.942 99.788 104.258 98.972 103.31 98.972C102.35 98.972 101.678 99.776 101.678 100.928ZM110.421 104V95.6H111.669V104H110.421ZM114.984 104.192C113.928 104.192 112.98 103.52 112.98 102.404C112.98 101.18 113.94 100.688 115.08 100.532L116.124 100.376C116.58 100.316 116.736 100.148 116.736 99.824C116.736 99.308 116.328 98.936 115.68 98.936C114.888 98.936 114.444 99.368 114.408 100.028H113.136C113.196 98.888 114.108 97.988 115.596 97.988C117.204 97.988 117.972 98.888 117.972 100.376V104H116.808V103.736C116.808 103.556 116.82 103.388 116.832 103.208C116.532 103.796 115.92 104.192 114.984 104.192ZM114.264 102.368C114.264 102.932 114.708 103.256 115.26 103.256C116.112 103.256 116.76 102.656 116.76 101.768V101.024C116.664 101.144 116.448 101.216 116.1 101.276L115.44 101.408C114.756 101.54 114.264 101.804 114.264 102.368ZM119.527 104V98.18H120.775V98.504C120.775 98.66 120.763 98.804 120.751 98.984C121.063 98.444 121.687 97.988 122.539 97.988C123.859 97.988 124.639 98.864 124.639 100.328V104H123.391V100.496C123.391 99.524 123.007 98.972 122.203 98.972C121.339 98.972 120.775 99.68 120.775 100.544V104H119.527ZM128.535 104.192C126.999 104.192 125.859 103.112 125.859 101.096C125.859 99.176 127.047 97.988 128.559 97.988C129.495 97.988 130.095 98.48 130.395 98.984C130.371 98.804 130.371 98.636 130.371 98.468V95.6H131.619V104H130.371V103.712C130.371 103.52 130.371 103.364 130.395 103.196C130.119 103.676 129.507 104.192 128.535 104.192ZM127.143 101.096C127.143 102.38 127.827 103.22 128.799 103.22C129.747 103.22 130.443 102.368 130.443 101.084C130.443 99.8 129.759 98.972 128.799 98.972C127.839 98.972 127.143 99.836 127.143 101.096ZM133.25 104V98.18H134.498V104H133.25ZM133.202 97.184V95.804H134.558V97.184H133.202ZM136.132 104V98.18H137.38V98.504C137.38 98.66 137.368 98.804 137.356 98.984C137.668 98.444 138.292 97.988 139.144 97.988C140.464 97.988 141.244 98.864 141.244 100.328V104H139.996V100.496C139.996 99.524 139.612 98.972 138.808 98.972C137.944 98.972 137.38 99.68 137.38 100.544V104H136.132ZM145.344 106.664C143.712 106.664 142.728 105.776 142.728 104.48H143.976C143.988 105.212 144.504 105.692 145.368 105.692C146.292 105.692 146.94 105.176 146.94 104.12V103.448C146.94 103.256 146.952 103.076 146.964 102.896C146.64 103.448 145.992 103.856 145.104 103.856C143.544 103.856 142.476 102.752 142.476 100.928C142.476 99.128 143.688 97.988 145.092 97.988C146.088 97.988 146.64 98.444 146.964 98.984C146.952 98.816 146.94 98.648 146.94 98.468V98.18H148.188V103.76C148.188 105.716 147.132 106.664 145.344 106.664ZM143.76 100.928C143.76 102.092 144.432 102.872 145.392 102.872C146.34 102.872 147.024 102.08 147.024 100.928C147.024 99.788 146.34 98.972 145.392 98.972C144.432 98.972 143.76 99.776 143.76 100.928ZM152.504 106.472V98.18H153.752V98.516C153.752 98.672 153.752 98.816 153.728 98.996C154.076 98.42 154.748 97.988 155.648 97.988C157.256 97.988 158.264 99.284 158.264 101.096C158.264 102.968 157.148 104.192 155.6 104.192C154.7 104.192 154.1 103.784 153.728 103.196C153.752 103.388 153.752 103.544 153.752 103.712V106.472H152.504ZM153.692 101.084C153.692 102.356 154.376 103.22 155.348 103.22C156.332 103.22 156.98 102.344 156.98 101.084C156.98 99.848 156.344 98.972 155.348 98.972C154.388 98.972 153.692 99.788 153.692 101.084ZM161.215 104.192C160.159 104.192 159.211 103.52 159.211 102.404C159.211 101.18 160.171 100.688 161.311 100.532L162.355 100.376C162.811 100.316 162.967 100.148 162.967 99.824C162.967 99.308 162.559 98.936 161.911 98.936C161.119 98.936 160.675 99.368 160.639 100.028H159.367C159.427 98.888 160.339 97.988 161.827 97.988C163.435 97.988 164.203 98.888 164.203 100.376V104H163.039V103.736C163.039 103.556 163.051 103.388 163.063 103.208C162.763 103.796 162.151 104.192 161.215 104.192ZM160.495 102.368C160.495 102.932 160.939 103.256 161.491 103.256C162.343 103.256 162.991 102.656 162.991 101.768V101.024C162.895 101.144 162.679 101.216 162.331 101.276L161.671 101.408C160.987 101.54 160.495 101.804 160.495 102.368ZM168.289 106.664C166.657 106.664 165.673 105.776 165.673 104.48H166.921C166.933 105.212 167.449 105.692 168.313 105.692C169.237 105.692 169.885 105.176 169.885 104.12V103.448C169.885 103.256 169.897 103.076 169.909 102.896C169.585 103.448 168.937 103.856 168.049 103.856C166.489 103.856 165.421 102.752 165.421 100.928C165.421 99.128 166.633 97.988 168.037 97.988C169.033 97.988 169.585 98.444 169.909 98.984C169.897 98.816 169.885 98.648 169.885 98.468V98.18H171.133V103.76C171.133 105.716 170.077 106.664 168.289 106.664ZM166.705 100.928C166.705 102.092 167.377 102.872 168.337 102.872C169.285 102.872 169.969 102.08 169.969 100.928C169.969 99.788 169.285 98.972 168.337 98.972C167.377 98.972 166.705 99.776 166.705 100.928ZM175.309 104.192C173.569 104.192 172.417 103.088 172.417 101.072C172.417 99.26 173.617 97.988 175.261 97.988C177.013 97.988 178.009 99.212 178.009 101.096V101.36H173.677C173.701 102.488 174.373 103.22 175.321 103.22C175.993 103.22 176.581 102.896 176.701 102.152H177.961C177.841 103.256 176.929 104.192 175.309 104.192ZM173.689 100.472H176.701C176.689 99.56 176.149 98.936 175.249 98.936C174.373 98.936 173.773 99.596 173.689 100.472ZM181.488 104.192C179.88 104.192 178.92 103.34 178.86 102.032H180.108C180.144 102.776 180.624 103.244 181.476 103.244C182.208 103.244 182.688 102.908 182.688 102.392C182.688 101.972 182.364 101.732 181.704 101.6L180.912 101.444C179.76 101.228 179.064 100.664 179.064 99.728C179.064 98.732 180.012 97.988 181.392 97.988C182.868 97.988 183.78 98.732 183.84 99.932H182.592C182.532 99.296 182.076 98.936 181.356 98.936C180.732 98.936 180.3 99.212 180.3 99.668C180.3 100.076 180.588 100.28 181.284 100.412L182.088 100.568C183.18 100.784 183.912 101.3 183.912 102.296C183.912 103.376 182.988 104.192 181.488 104.192Z" fill="#464134"/>
</g>
<path d="M0.5 16C0.5 7.43959 7.43959 0.5 16 0.5H253C261.56 0.5 268.5 7.43959 268.5 16V131C268.5 139.56 261.56 146.5 253 146.5H16C7.43958 146.5 0.5 139.56 0.5 131V16Z" stroke="#EEECE8"/>
<defs>
<clipPath id="clip0_3431_25209">
<path d="M0 16C0 7.16345 7.16344 0 16 0H253C261.837 0 269 7.16344 269 16V131C269 139.837 261.837 147 253 147H16C7.16344 147 0 139.837 0 131V16Z" fill="white"/>
</clipPath>
<clipPath id="clip1_3431_25209">
<rect width="16" height="16" fill="white" transform="translate(18 18)"/>
</clipPath>
</defs>
</svg>
