<svg width="269" height="159" viewBox="0 0 269 159" fill="none" xmlns="http://www.w3.org/2000/svg">
<g clip-path="url(#clip0_3431_25055)">
<path d="M0 16C0 7.16344 7.16344 0 16 0H253C261.837 0 269 7.16344 269 16V143C269 151.837 261.837 159 253 159H16C7.16344 159 0 151.837 0 143V16Z" fill="#FAFAFA"/>
<path d="M26 9C16.6112 9 9 16.6112 9 26C9 35.3888 16.6112 43 26 43C35.3888 43 43 35.3888 43 26C43 16.6112 35.3888 9 26 9Z" fill="#DEDDFD"/>
<path d="M26 9C16.6112 9 9 16.6112 9 26C9 35.3888 16.6112 43 26 43C35.3888 43 43 35.3888 43 26C43 16.6112 35.3888 9 26 9Z" stroke="#FAFAFA" stroke-width="6"/>
<g clip-path="url(#clip1_3431_25055)">
<path d="M29.9997 20.6668H32.6663V22.5335C32.6663 23.2802 32.6663 23.6536 32.521 23.9388C32.3932 24.1897 32.1892 24.3937 31.9383 24.5215C31.6531 24.6668 31.2797 24.6668 30.533 24.6668H29.9997M21.9997 20.6668H19.333V22.5335C19.333 23.2802 19.333 23.6536 19.4783 23.9388C19.6062 24.1897 19.8101 24.3937 20.061 24.5215C20.3462 24.6668 20.7196 24.6668 21.4663 24.6668H21.9997M25.9997 28.0002C23.7905 28.0002 21.9997 26.2093 21.9997 24.0002V19.3335H29.9997V24.0002C29.9997 26.2093 28.2088 28.0002 25.9997 28.0002ZM25.9997 28.0002V30.0002M29.333 32.6668V32.1335C29.333 31.3868 29.333 31.0134 29.1877 30.7282C29.0599 30.4773 28.8559 30.2733 28.605 30.1455C28.3198 30.0002 27.9464 30.0002 27.1997 30.0002H24.7997C24.0529 30.0002 23.6796 30.0002 23.3944 30.1455C23.1435 30.2733 22.9395 30.4773 22.8117 30.7282C22.6663 31.0134 22.6663 31.3868 22.6663 32.1335V32.6668H29.333Z" stroke="#0E0E0E" stroke-width="1.5" stroke-linecap="square"/>
</g>
<path d="M221 21C221 18.7909 222.791 17 225 17H253C255.209 17 257 18.7909 257 21V31C257 33.2091 255.209 35 253 35H225C222.791 35 221 33.2091 221 31V21Z" fill="#B3F4C4"/>
<path d="M227.693 29V22.7H229.466L232.184 27.443C232.157 27.173 232.148 26.831 232.148 26.498V22.7H233.327V29H231.779L228.836 23.861C228.872 24.221 228.872 24.464 228.872 24.743V29H227.693ZM235.255 29V22.7H239.638V23.699H236.434V25.238H239.503V26.246H236.434V28.001H239.773V29H235.255ZM242.42 29L240.764 22.7H242.078L243.041 26.822C243.131 27.191 243.203 27.506 243.284 27.947C243.356 27.506 243.428 27.191 243.518 26.822L244.562 22.7H246.263L247.226 26.822C247.316 27.191 247.397 27.524 247.478 27.947C247.55 27.506 247.613 27.191 247.703 26.822L248.702 22.7H249.944L248.288 29H246.65L245.606 24.518C245.561 24.32 245.489 24.05 245.426 23.645C245.345 24.05 245.282 24.32 245.228 24.518L244.058 29H242.42Z" fill="#285535"/>
<path d="M13.078 68V58.2H17.222C19.112 58.2 20.568 58.9 20.568 60.678C20.568 61.896 19.672 62.554 18.664 62.82C19.952 63.086 20.862 63.884 20.862 65.186C20.862 67.272 19 68 17.026 68H13.078ZM14.884 66.446H17.096C18.37 66.446 18.972 65.956 18.972 65.046C18.972 64.066 18.37 63.66 17.096 63.66H14.884V66.446ZM14.884 62.148H16.998C18.174 62.148 18.678 61.686 18.678 60.902C18.678 60.174 18.174 59.754 16.998 59.754H14.884V62.148ZM24.2489 68.252C23.0589 68.252 21.8969 67.468 21.8969 66.124C21.8969 64.584 23.0869 64.052 24.5569 63.856L25.5369 63.73C26.0969 63.66 26.2929 63.45 26.2929 63.114C26.2929 62.638 25.9009 62.218 25.1729 62.218C24.3749 62.218 23.8709 62.666 23.8009 63.38H22.0369C22.1489 61.952 23.3109 60.944 25.0749 60.944C27.1609 60.944 28.0009 62.064 28.0009 63.982V68H26.4189V67.72C26.4189 67.496 26.4469 67.286 26.4889 67.062C26.1249 67.734 25.4249 68.252 24.2489 68.252ZM23.6329 66.054C23.6329 66.656 24.1089 66.992 24.7109 66.992C25.6209 66.992 26.3489 66.32 26.3489 65.354V64.612C26.1949 64.752 25.9569 64.822 25.5369 64.906L24.9769 65.018C24.1789 65.172 23.6329 65.438 23.6329 66.054ZM32.599 68.126C31.143 68.126 30.373 67.398 30.373 65.872V62.526H28.819V61.168H30.373V58.704H32.081V61.168H33.761V62.526H32.081V65.62C32.081 66.334 32.361 66.754 33.089 66.754C33.257 66.754 33.439 66.74 33.607 66.712V68C33.439 68.056 33.033 68.126 32.599 68.126ZM37.9311 68.126C36.4751 68.126 35.7051 67.398 35.7051 65.872V62.526H34.1511V61.168H35.7051V58.704H37.4131V61.168H39.0931V62.526H37.4131V65.62C37.4131 66.334 37.6931 66.754 38.4211 66.754C38.5891 66.754 38.7711 66.74 38.9391 66.712V68C38.7711 68.056 38.3651 68.126 37.9311 68.126ZM40.2391 68V58.2H41.9471V68H40.2391ZM46.7784 68.252C44.7344 68.252 43.2924 66.936 43.2924 64.57C43.2924 62.414 44.7344 60.944 46.7224 60.944C48.8084 60.944 50.0124 62.4 50.0124 64.626V65.004H45.0424C45.0564 66.082 45.7424 66.908 46.7784 66.908C47.5204 66.908 48.1224 66.488 48.2344 65.774H49.9704C49.8304 67.174 48.6264 68.252 46.7784 68.252ZM45.0284 63.772H48.2624C48.2344 62.848 47.6324 62.218 46.7084 62.218C45.7844 62.218 45.1264 62.876 45.0284 63.772ZM58.7591 68.252C55.8471 68.252 53.9851 66.362 53.9851 63.03C53.9851 59.88 56.0851 57.948 58.8571 57.948C61.2511 57.948 62.9731 59.32 63.2251 61.644H61.3211C61.1391 60.37 60.2991 59.502 58.8571 59.502C57.1211 59.502 55.8751 60.832 55.8751 63.03C55.8751 65.312 57.1071 66.698 58.8151 66.698C60.2711 66.698 61.2371 65.76 61.4331 64.458H63.2671C63.0291 66.726 61.3911 68.252 58.7591 68.252ZM66.5087 68.252C65.3187 68.252 64.1567 67.468 64.1567 66.124C64.1567 64.584 65.3467 64.052 66.8167 63.856L67.7967 63.73C68.3567 63.66 68.5527 63.45 68.5527 63.114C68.5527 62.638 68.1607 62.218 67.4327 62.218C66.6347 62.218 66.1307 62.666 66.0607 63.38H64.2967C64.4087 61.952 65.5707 60.944 67.3347 60.944C69.4207 60.944 70.2607 62.064 70.2607 63.982V68H68.6787V67.72C68.6787 67.496 68.7067 67.286 68.7487 67.062C68.3847 67.734 67.6847 68.252 66.5087 68.252ZM65.8927 66.054C65.8927 66.656 66.3687 66.992 66.9707 66.992C67.8807 66.992 68.6087 66.32 68.6087 65.354V64.612C68.4547 64.752 68.2167 64.822 67.7967 64.906L67.2367 65.018C66.4387 65.172 65.8927 65.438 65.8927 66.054ZM71.9168 68V61.168H73.6248V61.686C73.6248 61.938 73.6108 62.148 73.5688 62.4C73.9328 61.63 74.5488 60.944 75.5708 60.944C75.7108 60.944 75.8228 60.958 75.9348 60.986V62.638C75.8228 62.61 75.6688 62.582 75.4448 62.582C74.3948 62.582 73.6248 63.114 73.6248 64.612V68H71.9168ZM79.61 68.252C77.804 68.252 76.488 67.02 76.488 64.612C76.488 62.162 78.042 60.944 79.638 60.944C80.702 60.944 81.36 61.49 81.752 62.148C81.696 61.896 81.696 61.686 81.696 61.476V58.2H83.404V68H81.696V67.72C81.696 67.482 81.696 67.3 81.752 67.062C81.486 67.566 80.87 68.252 79.61 68.252ZM78.224 64.598C78.224 66.012 78.994 66.908 80.016 66.908C81.038 66.908 81.794 65.97 81.794 64.598C81.794 63.198 81.038 62.302 80.016 62.302C78.994 62.302 78.224 63.24 78.224 64.598ZM87.8675 68.252C85.9355 68.252 84.7455 67.244 84.6335 65.648H86.3695C86.4115 66.46 86.9155 66.978 87.8255 66.978C88.5955 66.978 89.0855 66.614 89.0855 66.096C89.0855 65.634 88.6935 65.424 87.9655 65.284L87.1395 65.116C85.7115 64.836 84.8995 64.164 84.8995 63.03C84.8995 61.84 86.0195 60.944 87.6995 60.944C89.5335 60.944 90.6815 61.896 90.7235 63.324H89.0155C88.9595 62.652 88.4695 62.218 87.6995 62.218C87.0695 62.218 86.5795 62.47 86.5795 62.96C86.5795 63.366 86.8455 63.576 87.7135 63.744L88.5395 63.912C89.8835 64.178 90.7655 64.794 90.7655 65.998C90.7655 67.3 89.6315 68.252 87.8675 68.252Z" fill="#0E0E0E"/>
<path d="M13.008 88V79.6H18.66V80.716H14.34V83.116H18.468V84.256H14.34V86.872H18.816V88H13.008ZM24.2928 87.724C24.2928 87.544 24.2928 87.376 24.3168 87.196C24.0048 87.748 23.3568 88.192 22.4448 88.192C20.8848 88.192 19.7688 87.076 19.7688 85.096C19.7688 83.26 20.9088 81.988 22.4808 81.988C23.3688 81.988 24.0048 82.432 24.3408 82.984C24.3168 82.78 24.3168 82.624 24.3168 82.444V82.18H25.5408V90.472H24.2928V87.724ZM21.0528 85.096C21.0528 86.452 21.7368 87.22 22.6968 87.22C23.6568 87.22 24.3528 86.416 24.3528 85.096C24.3528 83.788 23.6928 82.972 22.7208 82.972C21.7368 82.972 21.0528 83.8 21.0528 85.096ZM29.1995 88.192C27.9395 88.192 27.1115 87.388 27.1115 85.876V82.18H28.3595V85.66C28.3595 86.62 28.7315 87.208 29.5595 87.208C30.3995 87.208 30.9275 86.572 30.9275 85.516V82.18H32.1755V88H30.9395V87.7C30.9395 87.532 30.9515 87.352 30.9755 87.196C30.6875 87.784 30.0755 88.192 29.1995 88.192ZM33.8043 88V82.18H35.0523V88H33.8043ZM33.7563 81.184V79.804H35.1123V81.184H33.7563ZM36.6871 90.472V82.18H37.9351V82.516C37.9351 82.672 37.9351 82.816 37.9111 82.996C38.2591 82.42 38.9311 81.988 39.8311 81.988C41.4391 81.988 42.4471 83.284 42.4471 85.096C42.4471 86.968 41.3311 88.192 39.7831 88.192C38.8831 88.192 38.2831 87.784 37.9111 87.196C37.9351 87.388 37.9351 87.544 37.9351 87.712V90.472H36.6871ZM37.8751 85.084C37.8751 86.356 38.5591 87.22 39.5311 87.22C40.5151 87.22 41.1631 86.344 41.1631 85.084C41.1631 83.848 40.5271 82.972 39.5311 82.972C38.5711 82.972 37.8751 83.788 37.8751 85.084ZM46.791 90.472L47.799 87.868L45.495 82.18H46.887L48.231 85.912C48.303 86.128 48.387 86.356 48.459 86.62C48.531 86.356 48.603 86.128 48.675 85.912L49.911 82.18H51.219L48.123 90.472H46.791ZM54.5715 88.192C52.8555 88.192 51.6555 86.992 51.6555 85.096C51.6555 83.236 52.8675 81.988 54.5715 81.988C56.2875 81.988 57.4995 83.236 57.4995 85.096C57.4995 86.992 56.2875 88.192 54.5715 88.192ZM52.9275 85.096C52.9275 86.392 53.5635 87.22 54.5715 87.22C55.5795 87.22 56.2275 86.392 56.2275 85.096C56.2275 83.776 55.5675 82.972 54.5715 82.972C53.5875 82.972 52.9275 83.776 52.9275 85.096ZM60.8167 88.192C59.5567 88.192 58.7287 87.388 58.7287 85.876V82.18H59.9767V85.66C59.9767 86.62 60.3487 87.208 61.1767 87.208C62.0167 87.208 62.5447 86.572 62.5447 85.516V82.18H63.7927V88H62.5567V87.7C62.5567 87.532 62.5687 87.352 62.5927 87.196C62.3047 87.784 61.6927 88.192 60.8167 88.192ZM65.4215 88V82.18H66.6695V82.528C66.6695 82.756 66.6695 82.972 66.6455 83.188C66.9455 82.528 67.5335 81.988 68.4095 81.988C68.5055 81.988 68.6015 81.988 68.6975 82.012V83.224C68.6135 83.212 68.4935 83.188 68.3255 83.188C67.3175 83.188 66.6695 83.728 66.6695 85.012V88H65.4215ZM74.2734 88.192C72.6654 88.192 71.7054 87.34 71.6454 86.032H72.8934C72.9294 86.776 73.4094 87.244 74.2614 87.244C74.9934 87.244 75.4734 86.908 75.4734 86.392C75.4734 85.972 75.1494 85.732 74.4894 85.6L73.6974 85.444C72.5454 85.228 71.8494 84.664 71.8494 83.728C71.8494 82.732 72.7974 81.988 74.1774 81.988C75.6534 81.988 76.5654 82.732 76.6254 83.932H75.3774C75.3174 83.296 74.8614 82.936 74.1414 82.936C73.5174 82.936 73.0854 83.212 73.0854 83.668C73.0854 84.076 73.3734 84.28 74.0694 84.412L74.8734 84.568C75.9654 84.784 76.6974 85.3 76.6974 86.296C76.6974 87.376 75.7734 88.192 74.2734 88.192ZM79.6757 88.192C78.6197 88.192 77.6717 87.52 77.6717 86.404C77.6717 85.18 78.6317 84.688 79.7717 84.532L80.8157 84.376C81.2717 84.316 81.4277 84.148 81.4277 83.824C81.4277 83.308 81.0197 82.936 80.3717 82.936C79.5797 82.936 79.1357 83.368 79.0997 84.028H77.8277C77.8877 82.888 78.7997 81.988 80.2877 81.988C81.8957 81.988 82.6637 82.888 82.6637 84.376V88H81.4997V87.736C81.4997 87.556 81.5117 87.388 81.5237 87.208C81.2237 87.796 80.6117 88.192 79.6757 88.192ZM78.9557 86.368C78.9557 86.932 79.3997 87.256 79.9517 87.256C80.8037 87.256 81.4517 86.656 81.4517 85.768V85.024C81.3557 85.144 81.1397 85.216 80.7917 85.276L80.1317 85.408C79.4477 85.54 78.9557 85.804 78.9557 86.368ZM84.2183 88V79.6H85.4663V88H84.2183ZM89.6452 88.192C87.9052 88.192 86.7532 87.088 86.7532 85.072C86.7532 83.26 87.9532 81.988 89.5972 81.988C91.3492 81.988 92.3452 83.212 92.3452 85.096V85.36H88.0132C88.0372 86.488 88.7092 87.22 89.6572 87.22C90.3292 87.22 90.9172 86.896 91.0372 86.152H92.2972C92.1772 87.256 91.2652 88.192 89.6452 88.192ZM88.0252 84.472H91.0372C91.0252 83.56 90.4852 82.936 89.5852 82.936C88.7092 82.936 88.1092 83.596 88.0252 84.472ZM95.8242 88.192C94.2162 88.192 93.2562 87.34 93.1962 86.032H94.4442C94.4802 86.776 94.9602 87.244 95.8122 87.244C96.5442 87.244 97.0242 86.908 97.0242 86.392C97.0242 85.972 96.7002 85.732 96.0402 85.6L95.2482 85.444C94.0962 85.228 93.4002 84.664 93.4002 83.728C93.4002 82.732 94.3482 81.988 95.7282 81.988C97.2042 81.988 98.1162 82.732 98.1762 83.932H96.9282C96.8682 83.296 96.4122 82.936 95.6922 82.936C95.0682 82.936 94.6362 83.212 94.6362 83.668C94.6362 84.076 94.9242 84.28 95.6202 84.412L96.4242 84.568C97.5162 84.784 98.2482 85.3 98.2482 86.296C98.2482 87.376 97.3242 88.192 95.8242 88.192ZM104.335 88.096C103.279 88.096 102.559 87.58 102.559 86.284V83.188H101.347V82.18H102.559V80.164H103.807V82.18H105.127V83.188H103.807V86.116C103.807 86.764 104.095 87.052 104.659 87.052C104.803 87.052 104.947 87.04 105.103 87.016V88.012C104.923 88.06 104.635 88.096 104.335 88.096ZM108.758 88.192C107.018 88.192 105.866 87.088 105.866 85.072C105.866 83.26 107.066 81.988 108.71 81.988C110.462 81.988 111.458 83.212 111.458 85.096V85.36H107.126C107.15 86.488 107.822 87.22 108.77 87.22C109.442 87.22 110.03 86.896 110.15 86.152H111.41C111.29 87.256 110.378 88.192 108.758 88.192ZM107.138 84.472H110.15C110.138 83.56 109.598 82.936 108.698 82.936C107.822 82.936 107.222 83.596 107.138 84.472ZM114.434 88.192C113.378 88.192 112.43 87.52 112.43 86.404C112.43 85.18 113.39 84.688 114.53 84.532L115.574 84.376C116.03 84.316 116.186 84.148 116.186 83.824C116.186 83.308 115.778 82.936 115.13 82.936C114.338 82.936 113.894 83.368 113.858 84.028H112.586C112.646 82.888 113.558 81.988 115.046 81.988C116.654 81.988 117.422 82.888 117.422 84.376V88H116.258V87.736C116.258 87.556 116.27 87.388 116.282 87.208C115.982 87.796 115.37 88.192 114.434 88.192ZM113.714 86.368C113.714 86.932 114.158 87.256 114.71 87.256C115.562 87.256 116.21 86.656 116.21 85.768V85.024C116.114 85.144 115.898 85.216 115.55 85.276L114.89 85.408C114.206 85.54 113.714 85.804 113.714 86.368ZM118.976 88V82.18H120.224V82.54C120.224 82.684 120.224 82.84 120.2 82.984C120.524 82.444 121.088 81.988 121.892 81.988C122.636 81.988 123.26 82.456 123.536 83.104C123.896 82.48 124.58 81.988 125.42 81.988C126.596 81.988 127.448 82.816 127.448 84.328V88H126.2V84.532C126.2 83.56 125.864 82.972 125.108 82.972C124.328 82.972 123.836 83.668 123.836 84.568V88H122.588V84.556C122.588 83.572 122.264 82.972 121.508 82.972C120.74 82.972 120.224 83.656 120.224 84.592V88H118.976ZM132.679 88L130.843 82.18H132.151L133.315 86.308C133.363 86.488 133.411 86.68 133.447 86.872C133.495 86.668 133.543 86.476 133.591 86.308L134.707 82.18H136.327L137.479 86.308C137.527 86.476 137.575 86.656 137.611 86.86C137.659 86.656 137.695 86.476 137.755 86.296L138.907 82.18H140.131L138.331 88H136.831L135.655 83.812C135.619 83.656 135.571 83.464 135.523 83.236C135.487 83.464 135.439 83.644 135.379 83.812L134.215 88H132.679ZM141.101 88V82.18H142.349V88H141.101ZM141.053 81.184V79.804H142.409V81.184H141.053ZM146.312 88.096C145.256 88.096 144.536 87.58 144.536 86.284V83.188H143.324V82.18H144.536V80.164H145.784V82.18H147.104V83.188H145.784V86.116C145.784 86.764 146.072 87.052 146.636 87.052C146.78 87.052 146.924 87.04 147.08 87.016V88.012C146.9 88.06 146.612 88.096 146.312 88.096ZM148.261 88V79.6H149.509V82.456C149.509 82.624 149.509 82.792 149.485 82.984C149.809 82.42 150.421 81.988 151.273 81.988C152.593 81.988 153.373 82.864 153.373 84.328V88H152.125V84.496C152.125 83.524 151.729 82.972 150.925 82.972C150.073 82.972 149.509 83.68 149.509 84.544V88H148.261ZM157.625 88V82.18H158.873V88H157.625ZM157.577 81.184V79.804H158.933V81.184H157.577ZM160.507 88V82.18H161.755V82.504C161.755 82.66 161.743 82.804 161.731 82.984C162.043 82.444 162.667 81.988 163.519 81.988C164.839 81.988 165.619 82.864 165.619 84.328V88H164.371V84.496C164.371 83.524 163.987 82.972 163.183 82.972C162.319 82.972 161.755 83.68 161.755 84.544V88H160.507ZM169.371 88.192C167.763 88.192 166.803 87.34 166.743 86.032H167.991C168.027 86.776 168.507 87.244 169.359 87.244C170.091 87.244 170.571 86.908 170.571 86.392C170.571 85.972 170.247 85.732 169.587 85.6L168.795 85.444C167.643 85.228 166.947 84.664 166.947 83.728C166.947 82.732 167.895 81.988 169.275 81.988C170.751 81.988 171.663 82.732 171.723 83.932H170.475C170.415 83.296 169.959 82.936 169.239 82.936C168.615 82.936 168.183 83.212 168.183 83.668C168.183 84.076 168.471 84.28 169.167 84.412L169.971 84.568C171.063 84.784 171.795 85.3 171.795 86.296C171.795 87.376 170.871 88.192 169.371 88.192ZM173.093 88V82.18H174.341V88H173.093ZM173.045 81.184V79.804H174.401V81.184H173.045ZM178.508 90.664C176.876 90.664 175.892 89.776 175.892 88.48H177.14C177.152 89.212 177.668 89.692 178.532 89.692C179.456 89.692 180.104 89.176 180.104 88.12V87.448C180.104 87.256 180.116 87.076 180.128 86.896C179.804 87.448 179.156 87.856 178.268 87.856C176.708 87.856 175.64 86.752 175.64 84.928C175.64 83.128 176.852 81.988 178.256 81.988C179.252 81.988 179.804 82.444 180.128 82.984C180.116 82.816 180.104 82.648 180.104 82.468V82.18H181.352V87.76C181.352 89.716 180.296 90.664 178.508 90.664ZM176.924 84.928C176.924 86.092 177.596 86.872 178.556 86.872C179.504 86.872 180.188 86.08 180.188 84.928C180.188 83.788 179.504 82.972 178.556 82.972C177.596 82.972 176.924 83.776 176.924 84.928ZM182.984 88V79.6H184.232V82.456C184.232 82.624 184.232 82.792 184.208 82.984C184.532 82.42 185.144 81.988 185.996 81.988C187.316 81.988 188.096 82.864 188.096 84.328V88H186.848V84.496C186.848 83.524 186.452 82.972 185.648 82.972C184.796 82.972 184.232 83.68 184.232 84.544V88H182.984ZM191.933 88.096C190.877 88.096 190.157 87.58 190.157 86.284V83.188H188.945V82.18H190.157V80.164H191.405V82.18H192.725V83.188H191.405V86.116C191.405 86.764 191.693 87.052 192.257 87.052C192.401 87.052 192.545 87.04 192.701 87.016V88.012C192.521 88.06 192.233 88.096 191.933 88.096ZM196.066 88.192C194.458 88.192 193.498 87.34 193.438 86.032H194.686C194.722 86.776 195.202 87.244 196.054 87.244C196.786 87.244 197.266 86.908 197.266 86.392C197.266 85.972 196.942 85.732 196.282 85.6L195.49 85.444C194.338 85.228 193.642 84.664 193.642 83.728C193.642 82.732 194.59 81.988 195.97 81.988C197.446 81.988 198.358 82.732 198.418 83.932H197.17C197.11 83.296 196.654 82.936 195.934 82.936C195.31 82.936 194.878 83.212 194.878 83.668C194.878 84.076 195.166 84.28 195.862 84.412L196.666 84.568C197.758 84.784 198.49 85.3 198.49 86.296C198.49 87.376 197.566 88.192 196.066 88.192ZM205.58 88.192C204.692 88.192 204.032 87.772 203.696 87.196C203.72 87.388 203.72 87.544 203.72 87.724V88H202.472V79.6H203.72V82.468C203.72 82.648 203.708 82.816 203.696 82.984C204.068 82.42 204.692 81.988 205.58 81.988C207.128 81.988 208.244 83.236 208.244 85.096C208.244 86.992 207.152 88.192 205.58 88.192ZM203.648 85.096C203.648 86.356 204.332 87.22 205.304 87.22C206.288 87.22 206.96 86.356 206.96 85.096C206.96 83.848 206.288 82.972 205.304 82.972C204.332 82.972 203.648 83.8 203.648 85.096ZM209.975 90.472L210.983 87.868L208.679 82.18H210.071L211.415 85.912C211.487 86.128 211.571 86.356 211.643 86.62C211.715 86.356 211.787 86.128 211.859 85.912L213.095 82.18H214.403L211.307 90.472H209.975ZM14.496 104.192C13.44 104.192 12.492 103.52 12.492 102.404C12.492 101.18 13.452 100.688 14.592 100.532L15.636 100.376C16.092 100.316 16.248 100.148 16.248 99.824C16.248 99.308 15.84 98.936 15.192 98.936C14.4 98.936 13.956 99.368 13.92 100.028H12.648C12.708 98.888 13.62 97.988 15.108 97.988C16.716 97.988 17.484 98.888 17.484 100.376V104H16.32V103.736C16.32 103.556 16.332 103.388 16.344 103.208C16.044 103.796 15.432 104.192 14.496 104.192ZM13.776 102.368C13.776 102.932 14.22 103.256 14.772 103.256C15.624 103.256 16.272 102.656 16.272 101.768V101.024C16.176 101.144 15.96 101.216 15.612 101.276L14.952 101.408C14.268 101.54 13.776 101.804 13.776 102.368ZM19.0387 104V98.18H20.2867V98.504C20.2867 98.66 20.2747 98.804 20.2627 98.984C20.5747 98.444 21.1987 97.988 22.0507 97.988C23.3707 97.988 24.1507 98.864 24.1507 100.328V104H22.9027V100.496C22.9027 99.524 22.5187 98.972 21.7147 98.972C20.8507 98.972 20.2867 99.68 20.2867 100.544V104H19.0387ZM27.3983 104.192C26.3423 104.192 25.3943 103.52 25.3943 102.404C25.3943 101.18 26.3543 100.688 27.4943 100.532L28.5383 100.376C28.9943 100.316 29.1503 100.148 29.1503 99.824C29.1503 99.308 28.7423 98.936 28.0943 98.936C27.3023 98.936 26.8583 99.368 26.8223 100.028H25.5503C25.6103 98.888 26.5223 97.988 28.0103 97.988C29.6183 97.988 30.3863 98.888 30.3863 100.376V104H29.2223V103.736C29.2223 103.556 29.2343 103.388 29.2463 103.208C28.9463 103.796 28.3343 104.192 27.3983 104.192ZM26.6783 102.368C26.6783 102.932 27.1223 103.256 27.6743 103.256C28.5263 103.256 29.1743 102.656 29.1743 101.768V101.024C29.0783 101.144 28.8623 101.216 28.5143 101.276L27.8543 101.408C27.1703 101.54 26.6783 101.804 26.6783 102.368ZM31.941 104V95.6H33.189V104H31.941ZM35.4238 106.472L36.4318 103.868L34.1278 98.18H35.5198L36.8638 101.912C36.9358 102.128 37.0198 102.356 37.0918 102.62C37.1638 102.356 37.2358 102.128 37.3078 101.912L38.5438 98.18H39.8518L36.7558 106.472H35.4238ZM40.3572 104V102.92L43.4172 99.548C43.5612 99.392 43.6692 99.272 43.7892 99.164H40.4892V98.18H45.1212V99.272L42.0852 102.62C41.9652 102.764 41.8332 102.896 41.7012 103.016H45.2292V104H40.3572ZM46.4371 104V98.18H47.6851V104H46.4371ZM46.3891 97.184V95.804H47.7451V97.184H46.3891ZM49.3199 104V98.18H50.5679V98.504C50.5679 98.66 50.5559 98.804 50.5439 98.984C50.8559 98.444 51.4799 97.988 52.3319 97.988C53.6519 97.988 54.4319 98.864 54.4319 100.328V104H53.1839V100.496C53.1839 99.524 52.7999 98.972 51.9959 98.972C51.1319 98.972 50.5679 99.68 50.5679 100.544V104H49.3199ZM58.5316 106.664C56.8996 106.664 55.9156 105.776 55.9156 104.48H57.1636C57.1756 105.212 57.6916 105.692 58.5556 105.692C59.4796 105.692 60.1276 105.176 60.1276 104.12V103.448C60.1276 103.256 60.1396 103.076 60.1516 102.896C59.8276 103.448 59.1796 103.856 58.2916 103.856C56.7316 103.856 55.6636 102.752 55.6636 100.928C55.6636 99.128 56.8756 97.988 58.2796 97.988C59.2756 97.988 59.8276 98.444 60.1516 98.984C60.1396 98.816 60.1276 98.648 60.1276 98.468V98.18H61.3756V103.76C61.3756 105.716 60.3196 106.664 58.5316 106.664ZM56.9476 100.928C56.9476 102.092 57.6196 102.872 58.5796 102.872C59.5276 102.872 60.2116 102.08 60.2116 100.928C60.2116 99.788 59.5276 98.972 58.5796 98.972C57.6196 98.972 56.9476 99.776 56.9476 100.928ZM66.0801 106.472L67.0881 103.868L64.7841 98.18H66.1761L67.5201 101.912C67.5921 102.128 67.6761 102.356 67.7481 102.62C67.8201 102.356 67.8921 102.128 67.9641 101.912L69.2001 98.18H70.5081L67.4121 106.472H66.0801ZM73.8606 104.192C72.1446 104.192 70.9446 102.992 70.9446 101.096C70.9446 99.236 72.1566 97.988 73.8606 97.988C75.5766 97.988 76.7886 99.236 76.7886 101.096C76.7886 102.992 75.5766 104.192 73.8606 104.192ZM72.2166 101.096C72.2166 102.392 72.8526 103.22 73.8606 103.22C74.8686 103.22 75.5166 102.392 75.5166 101.096C75.5166 99.776 74.8566 98.972 73.8606 98.972C72.8766 98.972 72.2166 99.776 72.2166 101.096ZM80.1057 104.192C78.8457 104.192 78.0177 103.388 78.0177 101.876V98.18H79.2657V101.66C79.2657 102.62 79.6377 103.208 80.4657 103.208C81.3057 103.208 81.8337 102.572 81.8337 101.516V98.18H83.0817V104H81.8457V103.7C81.8457 103.532 81.8577 103.352 81.8817 103.196C81.5937 103.784 80.9817 104.192 80.1057 104.192ZM84.7105 104V98.18H85.9585V98.528C85.9585 98.756 85.9585 98.972 85.9345 99.188C86.2345 98.528 86.8225 97.988 87.6985 97.988C87.7945 97.988 87.8905 97.988 87.9865 98.012V99.224C87.9025 99.212 87.7825 99.188 87.6145 99.188C86.6065 99.188 85.9585 99.728 85.9585 101.012V104H84.7105ZM93.9465 104.192C92.2305 104.192 91.0305 103.076 91.0305 101.084C91.0305 99.188 92.3265 97.988 94.0065 97.988C95.5425 97.988 96.5145 98.912 96.6465 100.256H95.3745C95.3025 99.548 94.8345 98.972 93.9945 98.972C93.0105 98.972 92.3025 99.812 92.3025 101.084C92.3025 102.356 92.9745 103.22 93.9825 103.22C94.8585 103.22 95.3505 102.668 95.4465 101.912H96.6945C96.5385 103.28 95.6025 104.192 93.9465 104.192ZM100.462 104.192C98.7461 104.192 97.5461 102.992 97.5461 101.096C97.5461 99.236 98.7581 97.988 100.462 97.988C102.178 97.988 103.39 99.236 103.39 101.096C103.39 102.992 102.178 104.192 100.462 104.192ZM98.8181 101.096C98.8181 102.392 99.4541 103.22 100.462 103.22C101.47 103.22 102.118 102.392 102.118 101.096C102.118 99.776 101.458 98.972 100.462 98.972C99.4781 98.972 98.8181 99.776 98.8181 101.096ZM104.679 104V98.18H105.927V98.54C105.927 98.684 105.927 98.84 105.903 98.984C106.227 98.444 106.791 97.988 107.595 97.988C108.339 97.988 108.963 98.456 109.239 99.104C109.599 98.48 110.283 97.988 111.123 97.988C112.299 97.988 113.151 98.816 113.151 100.328V104H111.903V100.532C111.903 99.56 111.567 98.972 110.811 98.972C110.031 98.972 109.539 99.668 109.539 100.568V104H108.291V100.556C108.291 99.572 107.967 98.972 107.211 98.972C106.443 98.972 105.927 99.656 105.927 100.592V104H104.679ZM114.722 106.472V98.18H115.97V98.516C115.97 98.672 115.97 98.816 115.946 98.996C116.294 98.42 116.966 97.988 117.866 97.988C119.474 97.988 120.482 99.284 120.482 101.096C120.482 102.968 119.366 104.192 117.818 104.192C116.918 104.192 116.318 103.784 115.946 103.196C115.97 103.388 115.97 103.544 115.97 103.712V106.472H114.722ZM115.91 101.084C115.91 102.356 116.594 103.22 117.566 103.22C118.55 103.22 119.198 102.344 119.198 101.084C119.198 99.848 118.562 98.972 117.566 98.972C116.606 98.972 115.91 99.788 115.91 101.084ZM123.434 104.192C122.378 104.192 121.43 103.52 121.43 102.404C121.43 101.18 122.39 100.688 123.53 100.532L124.574 100.376C125.03 100.316 125.186 100.148 125.186 99.824C125.186 99.308 124.778 98.936 124.13 98.936C123.338 98.936 122.894 99.368 122.858 100.028H121.586C121.646 98.888 122.558 97.988 124.046 97.988C125.654 97.988 126.422 98.888 126.422 100.376V104H125.258V103.736C125.258 103.556 125.27 103.388 125.282 103.208C124.982 103.796 124.37 104.192 123.434 104.192ZM122.714 102.368C122.714 102.932 123.158 103.256 123.71 103.256C124.562 103.256 125.21 102.656 125.21 101.768V101.024C125.114 101.144 124.898 101.216 124.55 101.276L123.89 101.408C123.206 101.54 122.714 101.804 122.714 102.368ZM127.976 104V98.18H129.224V98.504C129.224 98.66 129.212 98.804 129.2 98.984C129.512 98.444 130.136 97.988 130.988 97.988C132.308 97.988 133.088 98.864 133.088 100.328V104H131.84V100.496C131.84 99.524 131.456 98.972 130.652 98.972C129.788 98.972 129.224 99.68 129.224 100.544V104H127.976ZM135.15 106.472L136.158 103.868L133.854 98.18H135.246L136.59 101.912C136.662 102.128 136.746 102.356 136.818 102.62C136.89 102.356 136.962 102.128 137.034 101.912L138.27 98.18H139.578L136.482 106.472H135.15ZM144.68 104.192C143.624 104.192 142.676 103.52 142.676 102.404C142.676 101.18 143.636 100.688 144.776 100.532L145.82 100.376C146.276 100.316 146.432 100.148 146.432 99.824C146.432 99.308 146.024 98.936 145.376 98.936C144.584 98.936 144.14 99.368 144.104 100.028H142.832C142.892 98.888 143.804 97.988 145.292 97.988C146.9 97.988 147.668 98.888 147.668 100.376V104H146.504V103.736C146.504 103.556 146.516 103.388 146.528 103.208C146.228 103.796 145.616 104.192 144.68 104.192ZM143.96 102.368C143.96 102.932 144.404 103.256 144.956 103.256C145.808 103.256 146.456 102.656 146.456 101.768V101.024C146.36 101.144 146.144 101.216 145.796 101.276L145.136 101.408C144.452 101.54 143.96 101.804 143.96 102.368ZM151.754 106.664C150.122 106.664 149.138 105.776 149.138 104.48H150.386C150.398 105.212 150.914 105.692 151.778 105.692C152.702 105.692 153.35 105.176 153.35 104.12V103.448C153.35 103.256 153.362 103.076 153.374 102.896C153.05 103.448 152.402 103.856 151.514 103.856C149.954 103.856 148.886 102.752 148.886 100.928C148.886 99.128 150.098 97.988 151.502 97.988C152.498 97.988 153.05 98.444 153.374 98.984C153.362 98.816 153.35 98.648 153.35 98.468V98.18H154.598V103.76C154.598 105.716 153.542 106.664 151.754 106.664ZM150.17 100.928C150.17 102.092 150.842 102.872 151.802 102.872C152.75 102.872 153.434 102.08 153.434 100.928C153.434 99.788 152.75 98.972 151.802 98.972C150.842 98.972 150.17 99.776 150.17 100.928ZM157.91 104.192C156.854 104.192 155.906 103.52 155.906 102.404C155.906 101.18 156.866 100.688 158.006 100.532L159.05 100.376C159.506 100.316 159.662 100.148 159.662 99.824C159.662 99.308 159.254 98.936 158.606 98.936C157.814 98.936 157.37 99.368 157.334 100.028H156.062C156.122 98.888 157.034 97.988 158.522 97.988C160.13 97.988 160.898 98.888 160.898 100.376V104H159.734V103.736C159.734 103.556 159.746 103.388 159.758 103.208C159.458 103.796 158.846 104.192 157.91 104.192ZM157.19 102.368C157.19 102.932 157.634 103.256 158.186 103.256C159.038 103.256 159.686 102.656 159.686 101.768V101.024C159.59 101.144 159.374 101.216 159.026 101.276L158.366 101.408C157.682 101.54 157.19 101.804 157.19 102.368ZM162.453 104V98.18H163.701V104H162.453ZM162.405 97.184V95.804H163.761V97.184H162.405ZM165.336 104V98.18H166.584V98.504C166.584 98.66 166.572 98.804 166.56 98.984C166.872 98.444 167.496 97.988 168.348 97.988C169.668 97.988 170.448 98.864 170.448 100.328V104H169.2V100.496C169.2 99.524 168.816 98.972 168.012 98.972C167.148 98.972 166.584 99.68 166.584 100.544V104H165.336ZM174.199 104.192C172.591 104.192 171.631 103.34 171.571 102.032H172.819C172.855 102.776 173.335 103.244 174.187 103.244C174.919 103.244 175.399 102.908 175.399 102.392C175.399 101.972 175.075 101.732 174.415 101.6L173.623 101.444C172.471 101.228 171.775 100.664 171.775 99.728C171.775 98.732 172.723 97.988 174.103 97.988C175.579 97.988 176.491 98.732 176.551 99.932H175.303C175.243 99.296 174.787 98.936 174.067 98.936C173.443 98.936 173.011 99.212 173.011 99.668C173.011 100.076 173.299 100.28 173.995 100.412L174.799 100.568C175.891 100.784 176.623 101.3 176.623 102.296C176.623 103.376 175.699 104.192 174.199 104.192ZM180.156 104.096C179.1 104.096 178.38 103.58 178.38 102.284V99.188H177.168V98.18H178.38V96.164H179.628V98.18H180.948V99.188H179.628V102.116C179.628 102.764 179.916 103.052 180.48 103.052C180.624 103.052 180.768 103.04 180.924 103.016V104.012C180.744 104.06 180.456 104.096 180.156 104.096ZM187.357 104.192C185.641 104.192 184.441 103.076 184.441 101.084C184.441 99.188 185.737 97.988 187.417 97.988C188.953 97.988 189.925 98.912 190.057 100.256H188.785C188.713 99.548 188.245 98.972 187.405 98.972C186.421 98.972 185.713 99.812 185.713 101.084C185.713 102.356 186.385 103.22 187.393 103.22C188.269 103.22 188.761 102.668 188.857 101.912H190.105C189.949 103.28 189.013 104.192 187.357 104.192ZM193.872 104.192C192.156 104.192 190.956 102.992 190.956 101.096C190.956 99.236 192.168 97.988 193.872 97.988C195.588 97.988 196.8 99.236 196.8 101.096C196.8 102.992 195.588 104.192 193.872 104.192ZM192.228 101.096C192.228 102.392 192.864 103.22 193.872 103.22C194.88 103.22 195.528 102.392 195.528 101.096C195.528 99.776 194.868 98.972 193.872 98.972C192.888 98.972 192.228 99.776 192.228 101.096ZM198.089 104V98.18H199.337V98.54C199.337 98.684 199.337 98.84 199.313 98.984C199.637 98.444 200.201 97.988 201.005 97.988C201.749 97.988 202.373 98.456 202.649 99.104C203.009 98.48 203.693 97.988 204.533 97.988C205.709 97.988 206.561 98.816 206.561 100.328V104H205.313V100.532C205.313 99.56 204.977 98.972 204.221 98.972C203.441 98.972 202.949 99.668 202.949 100.568V104H201.701V100.556C201.701 99.572 201.377 98.972 200.621 98.972C199.853 98.972 199.337 99.656 199.337 100.592V104H198.089ZM208.132 106.472V98.18H209.38V98.516C209.38 98.672 209.38 98.816 209.356 98.996C209.704 98.42 210.376 97.988 211.276 97.988C212.884 97.988 213.892 99.284 213.892 101.096C213.892 102.968 212.776 104.192 211.228 104.192C210.328 104.192 209.728 103.784 209.356 103.196C209.38 103.388 209.38 103.544 209.38 103.712V106.472H208.132ZM209.32 101.084C209.32 102.356 210.004 103.22 210.976 103.22C211.96 103.22 212.608 102.344 212.608 101.084C212.608 99.848 211.972 98.972 210.976 98.972C210.016 98.972 209.32 99.788 209.32 101.084ZM217.708 104.192C215.968 104.192 214.816 103.088 214.816 101.072C214.816 99.26 216.016 97.988 217.66 97.988C219.412 97.988 220.408 99.212 220.408 101.096V101.36H216.076C216.1 102.488 216.772 103.22 217.72 103.22C218.392 103.22 218.98 102.896 219.1 102.152H220.36C220.24 103.256 219.328 104.192 217.708 104.192ZM216.088 100.472H219.1C219.088 99.56 218.548 98.936 217.648 98.936C216.772 98.936 216.172 99.596 216.088 100.472ZM223.937 104.096C222.881 104.096 222.161 103.58 222.161 102.284V99.188H220.949V98.18H222.161V96.164H223.409V98.18H224.729V99.188H223.409V102.116C223.409 102.764 223.697 103.052 224.261 103.052C224.405 103.052 224.549 103.04 224.705 103.016V104.012C224.525 104.06 224.237 104.096 223.937 104.096ZM225.886 104V98.18H227.134V104H225.886ZM225.838 97.184V95.804H227.194V97.184H225.838ZM231.097 104.096C230.041 104.096 229.321 103.58 229.321 102.284V99.188H228.109V98.18H229.321V96.164H230.569V98.18H231.889V99.188H230.569V102.116C230.569 102.764 230.857 103.052 231.421 103.052C231.565 103.052 231.709 103.04 231.865 103.016V104.012C231.685 104.06 231.397 104.096 231.097 104.096ZM235.544 104.192C233.828 104.192 232.628 102.992 232.628 101.096C232.628 99.236 233.84 97.988 235.544 97.988C237.26 97.988 238.472 99.236 238.472 101.096C238.472 102.992 237.26 104.192 235.544 104.192ZM233.9 101.096C233.9 102.392 234.536 103.22 235.544 103.22C236.552 103.22 237.2 102.392 237.2 101.096C237.2 99.776 236.54 98.972 235.544 98.972C234.56 98.972 233.9 99.776 233.9 101.096ZM239.761 104V98.18H241.009V98.528C241.009 98.756 241.009 98.972 240.985 99.188C241.285 98.528 241.873 97.988 242.749 97.988C242.845 97.988 242.941 97.988 243.037 98.012V99.224C242.953 99.212 242.833 99.188 242.665 99.188C241.657 99.188 241.009 99.728 241.009 101.012V104H239.761ZM246.152 104.192C244.544 104.192 243.584 103.34 243.524 102.032H244.772C244.808 102.776 245.288 103.244 246.14 103.244C246.872 103.244 247.352 102.908 247.352 102.392C247.352 101.972 247.028 101.732 246.368 101.6L245.576 101.444C244.424 101.228 243.728 100.664 243.728 99.728C243.728 98.732 244.676 97.988 246.056 97.988C247.532 97.988 248.444 98.732 248.504 99.932H247.256C247.196 99.296 246.74 98.936 246.02 98.936C245.396 98.936 244.964 99.212 244.964 99.668C244.964 100.076 245.252 100.28 245.948 100.412L246.752 100.568C247.844 100.784 248.576 101.3 248.576 102.296C248.576 103.376 247.652 104.192 246.152 104.192Z" fill="#464134"/>
<path d="M16.3753 138.417H14.6837C14.357 138.417 14.1936 138.417 14.0688 138.48C13.9591 138.536 13.8698 138.625 13.8139 138.735C13.7503 138.86 13.7503 139.023 13.7503 139.35V144.25M21.6253 138.417H23.317C23.6437 138.417 23.807 138.417 23.9318 138.48C24.0416 138.536 24.1308 138.625 24.1867 138.735C24.2503 138.86 24.2503 139.023 24.2503 139.35V144.25M21.6253 144.25V135.617C21.6253 134.963 21.6253 134.637 21.4982 134.387C21.3863 134.167 21.2078 133.989 20.9883 133.877C20.7388 133.75 20.4121 133.75 19.7587 133.75H18.242C17.5886 133.75 17.2619 133.75 17.0123 133.877C16.7928 133.989 16.6143 134.167 16.5025 134.387C16.3753 134.637 16.3753 134.963 16.3753 135.617V144.25M24.8337 144.25H13.167M18.417 136.083H19.5837M18.417 138.417H19.5837M18.417 140.75H19.5837" stroke="#464134" stroke-width="1.25" stroke-linecap="square"/>
<path d="M31.008 143V134.6H36.66V135.716H32.34V138.116H36.468V139.256H32.34V141.872H36.816V143H31.008ZM38.1754 143V137.18H39.4234V137.504C39.4234 137.66 39.4114 137.804 39.3994 137.984C39.7114 137.444 40.3354 136.988 41.1874 136.988C42.5074 136.988 43.2874 137.864 43.2874 139.328V143H42.0394V139.496C42.0394 138.524 41.6554 137.972 40.8514 137.972C39.9874 137.972 39.4234 138.68 39.4234 139.544V143H38.1754ZM47.1245 143.096C46.0685 143.096 45.3485 142.58 45.3485 141.284V138.188H44.1365V137.18H45.3485V135.164H46.5965V137.18H47.9165V138.188H46.5965V141.116C46.5965 141.764 46.8845 142.052 47.4485 142.052C47.5925 142.052 47.7365 142.04 47.8925 142.016V143.012C47.7125 143.06 47.4245 143.096 47.1245 143.096ZM51.5475 143.192C49.8075 143.192 48.6555 142.088 48.6555 140.072C48.6555 138.26 49.8555 136.988 51.4995 136.988C53.2515 136.988 54.2475 138.212 54.2475 140.096V140.36H49.9155C49.9395 141.488 50.6115 142.22 51.5595 142.22C52.2315 142.22 52.8195 141.896 52.9395 141.152H54.1995C54.0795 142.256 53.1675 143.192 51.5475 143.192ZM49.9275 139.472H52.9395C52.9275 138.56 52.3875 137.936 51.4875 137.936C50.6115 137.936 50.0115 138.596 49.9275 139.472ZM55.5426 143V137.18H56.7906V137.528C56.7906 137.756 56.7906 137.972 56.7666 138.188C57.0666 137.528 57.6546 136.988 58.5306 136.988C58.6266 136.988 58.7226 136.988 58.8186 137.012V138.224C58.7346 138.212 58.6146 138.188 58.4466 138.188C57.4386 138.188 56.7906 138.728 56.7906 140.012V143H55.5426ZM59.8082 145.472V137.18H61.0562V137.516C61.0562 137.672 61.0562 137.816 61.0322 137.996C61.3802 137.42 62.0522 136.988 62.9522 136.988C64.5602 136.988 65.5682 138.284 65.5682 140.096C65.5682 141.968 64.4522 143.192 62.9042 143.192C62.0042 143.192 61.4042 142.784 61.0322 142.196C61.0562 142.388 61.0562 142.544 61.0562 142.712V145.472H59.8082ZM60.9962 140.084C60.9962 141.356 61.6802 142.22 62.6522 142.22C63.6362 142.22 64.2842 141.344 64.2842 140.084C64.2842 138.848 63.6482 137.972 62.6522 137.972C61.6922 137.972 60.9962 138.788 60.9962 140.084ZM66.8394 143V137.18H68.0874V137.528C68.0874 137.756 68.0874 137.972 68.0634 138.188C68.3634 137.528 68.9514 136.988 69.8274 136.988C69.9234 136.988 70.0194 136.988 70.1154 137.012V138.224C70.0314 138.212 69.9114 138.188 69.7434 138.188C68.7354 138.188 68.0874 138.728 68.0874 140.012V143H66.8394ZM71.1051 143V137.18H72.3531V143H71.1051ZM71.0571 136.184V134.804H72.4131V136.184H71.0571ZM76.1719 143.192C74.5639 143.192 73.6039 142.34 73.5439 141.032H74.7919C74.8279 141.776 75.3079 142.244 76.1599 142.244C76.8919 142.244 77.3719 141.908 77.3719 141.392C77.3719 140.972 77.0479 140.732 76.3879 140.6L75.5959 140.444C74.4439 140.228 73.7479 139.664 73.7479 138.728C73.7479 137.732 74.6959 136.988 76.0759 136.988C77.5519 136.988 78.4639 137.732 78.5239 138.932H77.2759C77.2159 138.296 76.7599 137.936 76.0399 137.936C75.4159 137.936 74.9839 138.212 74.9839 138.668C74.9839 139.076 75.2719 139.28 75.9679 139.412L76.7719 139.568C77.8639 139.784 78.5959 140.3 78.5959 141.296C78.5959 142.376 77.6719 143.192 76.1719 143.192ZM82.4381 143.192C80.6981 143.192 79.5461 142.088 79.5461 140.072C79.5461 138.26 80.7461 136.988 82.3901 136.988C84.1421 136.988 85.1381 138.212 85.1381 140.096V140.36H80.8061C80.8301 141.488 81.5021 142.22 82.4501 142.22C83.1221 142.22 83.7101 141.896 83.8301 141.152H85.0901C84.9701 142.256 84.0581 143.192 82.4381 143.192ZM80.8181 139.472H83.8301C83.8181 138.56 83.2781 137.936 82.3781 137.936C81.5021 137.936 80.9021 138.596 80.8181 139.472ZM91.6848 143.192C89.9688 143.192 88.7688 141.992 88.7688 140.096C88.7688 138.236 89.9808 136.988 91.6848 136.988C93.4008 136.988 94.6128 138.236 94.6128 140.096C94.6128 141.992 93.4008 143.192 91.6848 143.192ZM90.0408 140.096C90.0408 141.392 90.6768 142.22 91.6848 142.22C92.6928 142.22 93.3408 141.392 93.3408 140.096C93.3408 138.776 92.6808 137.972 91.6848 137.972C90.7008 137.972 90.0408 138.776 90.0408 140.096ZM95.9019 143V137.18H97.1499V137.504C97.1499 137.66 97.1379 137.804 97.1259 137.984C97.4379 137.444 98.0619 136.988 98.9139 136.988C100.234 136.988 101.014 137.864 101.014 139.328V143H99.7659V139.496C99.7659 138.524 99.3819 137.972 98.5779 137.972C97.7139 137.972 97.1499 138.68 97.1499 139.544V143H95.9019ZM102.582 143V134.6H103.83V143H102.582ZM106.064 145.472L107.072 142.868L104.768 137.18H106.16L107.504 140.912C107.576 141.128 107.66 141.356 107.732 141.62C107.804 141.356 107.876 141.128 107.948 140.912L109.184 137.18H110.492L107.396 145.472H106.064Z" fill="#464134"/>
</g>
<path d="M0.5 16C0.5 7.43958 7.43959 0.5 16 0.5H253C261.56 0.5 268.5 7.43959 268.5 16V143C268.5 151.56 261.56 158.5 253 158.5H16C7.43958 158.5 0.5 151.56 0.5 143V16Z" stroke="#EEECE8"/>
<defs>
<clipPath id="clip0_3431_25055">
<path d="M0 16C0 7.16344 7.16344 0 16 0H253C261.837 0 269 7.16344 269 16V143C269 151.837 261.837 159 253 159H16C7.16344 159 0 151.837 0 143V16Z" fill="white"/>
</clipPath>
<clipPath id="clip1_3431_25055">
<rect width="16" height="16" fill="white" transform="translate(18 18)"/>
</clipPath>
</defs>
</svg>
