<svg width="269" height="147" viewBox="0 0 269 147" fill="none" xmlns="http://www.w3.org/2000/svg">
<g clip-path="url(#clip0_3431_25230)">
<path d="M0 16C0 7.16345 7.16344 0 16 0H253C261.837 0 269 7.16344 269 16V131C269 139.837 261.837 147 253 147H16C7.16344 147 0 139.837 0 131V16Z" fill="#FAFAFA"/>
<path d="M26 9C16.6112 9 9 16.6112 9 26C9 35.3888 16.6112 43 26 43C35.3888 43 43 35.3888 43 26C43 16.6112 35.3888 9 26 9Z" fill="#DEDDFD"/>
<path d="M26 9C16.6112 9 9 16.6112 9 26C9 35.3888 16.6112 43 26 43C35.3888 43 43 35.3888 43 26C43 16.6112 35.3888 9 26 9Z" stroke="#FAFAFA" stroke-width="6"/>
<path d="M19.7631 22.0521C19.4238 21.8145 18.9561 21.8971 18.7186 22.2364C18.481 22.5757 18.5636 23.0434 18.9029 23.2809L19.7631 22.0521ZM25.9997 27.3332L25.5696 27.9476C25.8278 28.1284 26.1715 28.1284 26.4298 27.9476L25.9997 27.3332ZM33.0964 23.2809C33.4358 23.0434 33.5183 22.5757 33.2808 22.2364C33.0432 21.8971 32.5756 21.8145 32.2362 22.0521L33.0964 23.2809ZM20.061 31.1878L20.4015 30.5196L20.061 31.1878ZM19.4783 30.6052L20.1466 30.2647L19.4783 30.6052ZM32.521 30.6052L31.8528 30.2647L32.521 30.6052ZM31.9383 31.1878L31.5978 30.5196L31.9383 31.1878ZM31.9383 20.8118L31.5978 21.4801L31.9383 20.8118ZM32.521 21.3945L31.8528 21.735L32.521 21.3945ZM20.061 20.8118L20.4015 21.4801L20.061 20.8118ZM19.4783 21.3945L20.1466 21.735L19.4783 21.3945ZM18.9029 23.2809L25.5696 27.9476L26.4298 26.7187L19.7631 22.0521L18.9029 23.2809ZM26.4298 27.9476L33.0964 23.2809L32.2362 22.0521L25.5696 26.7187L26.4298 27.9476ZM21.4663 21.4165H30.533V19.9165H21.4663V21.4165ZM31.9163 22.7998V29.1998H33.4163V22.7998H31.9163ZM30.533 30.5832H21.4663V32.0832H30.533V30.5832ZM20.083 29.1998V22.7998H18.583V29.1998H20.083ZM21.4663 30.5832C21.0806 30.5832 20.8364 30.5826 20.6517 30.5675C20.4757 30.5531 20.4208 30.5294 20.4015 30.5196L19.7205 31.8561C19.9865 31.9916 20.2608 32.0406 20.5295 32.0625C20.7895 32.0838 21.1053 32.0832 21.4663 32.0832V30.5832ZM18.583 29.1998C18.583 29.5608 18.5824 29.8767 18.6037 30.1366C18.6256 30.4054 18.6746 30.6797 18.8101 30.9457L20.1466 30.2647C20.1368 30.2454 20.1131 30.1904 20.0987 30.0145C20.0836 29.8298 20.083 29.5856 20.083 29.1998H18.583ZM20.4015 30.5196C20.2918 30.4637 20.2025 30.3744 20.1466 30.2647L18.8101 30.9457C19.0098 31.3377 19.3285 31.6564 19.7205 31.8561L20.4015 30.5196ZM31.9163 29.1998C31.9163 29.5856 31.9158 29.8298 31.9007 30.0145C31.8863 30.1904 31.8626 30.2454 31.8528 30.2647L33.1893 30.9457C33.3248 30.6797 33.3737 30.4054 33.3957 30.1366C33.4169 29.8767 33.4163 29.5608 33.4163 29.1998H31.9163ZM30.533 32.0832C30.894 32.0832 31.2099 32.0838 31.4698 32.0625C31.7385 32.0406 32.0129 31.9916 32.2788 31.8561L31.5978 30.5196C31.5786 30.5294 31.5236 30.5531 31.3477 30.5675C31.163 30.5826 30.9188 30.5832 30.533 30.5832V32.0832ZM31.8528 30.2647C31.7968 30.3744 31.7076 30.4637 31.5978 30.5196L32.2788 31.8561C32.6708 31.6564 32.9895 31.3377 33.1893 30.9457L31.8528 30.2647ZM30.533 21.4165C30.9188 21.4165 31.163 21.4171 31.3477 21.4322C31.5236 21.4466 31.5786 21.4703 31.5978 21.4801L32.2788 20.1436C32.0129 20.0081 31.7385 19.9591 31.4698 19.9372C31.2099 19.9159 30.894 19.9165 30.533 19.9165V21.4165ZM33.4163 22.7998C33.4163 22.4388 33.4169 22.123 33.3957 21.863C33.3737 21.5943 33.3248 21.32 33.1893 21.054L31.8528 21.735C31.8626 21.7543 31.8863 21.8092 31.9007 21.9852C31.9158 22.1699 31.9163 22.4141 31.9163 22.7998H33.4163ZM31.5978 21.4801C31.7076 21.536 31.7968 21.6252 31.8528 21.735L33.1893 21.054C32.9895 20.662 32.6708 20.3433 32.2788 20.1436L31.5978 21.4801ZM21.4663 19.9165C21.1053 19.9165 20.7895 19.9159 20.5295 19.9372C20.2608 19.9591 19.9865 20.0081 19.7205 20.1436L20.4015 21.4801C20.4208 21.4703 20.4757 21.4466 20.6517 21.4322C20.8364 21.4171 21.0806 21.4165 21.4663 21.4165V19.9165ZM20.083 22.7998C20.083 22.4141 20.0836 22.1699 20.0987 21.9852C20.1131 21.8092 20.1368 21.7543 20.1466 21.735L18.8101 21.054C18.6746 21.32 18.6256 21.5943 18.6037 21.863C18.5824 22.123 18.583 22.4388 18.583 22.7998H20.083ZM19.7205 20.1436C19.3285 20.3433 19.0098 20.662 18.8101 21.054L20.1466 21.735C20.2025 21.6252 20.2918 21.536 20.4015 21.4801L19.7205 20.1436Z" fill="#0E0E0E"/>
<path d="M199 21C199 18.7909 200.791 17 203 17H253C255.209 17 257 18.7909 257 21V31C257 33.2091 255.209 35 253 35H203C200.791 35 199 33.2091 199 31V21Z" fill="#E7D0F2"/>
<path d="M205.693 29V22.7H208.339C209.653 22.7 210.643 23.258 210.643 24.59C210.643 25.958 209.608 26.48 208.339 26.48H206.872V29H205.693ZM206.872 25.481H208.339C209.095 25.481 209.428 25.139 209.428 24.59C209.428 24.041 209.113 23.699 208.339 23.699H206.872V25.481ZM214.787 29.162C213.023 29.162 211.7 27.965 211.7 25.85C211.7 23.825 213.023 22.538 214.787 22.538C216.551 22.538 217.901 23.852 217.901 25.85C217.901 27.956 216.551 29.162 214.787 29.162ZM212.915 25.85C212.915 27.317 213.671 28.163 214.787 28.163C215.903 28.163 216.686 27.335 216.686 25.85C216.686 24.437 215.912 23.537 214.787 23.537C213.662 23.537 212.915 24.419 212.915 25.85ZM219.473 29V22.7H222.119C223.433 22.7 224.423 23.258 224.423 24.59C224.423 25.958 223.388 26.48 222.119 26.48H220.652V29H219.473ZM220.652 25.481H222.119C222.875 25.481 223.208 25.139 223.208 24.59C223.208 24.041 222.893 23.699 222.119 23.699H220.652V25.481ZM228.334 29.162C226.723 29.162 225.769 28.235 225.769 26.597V22.7H226.957V26.417C226.957 27.587 227.434 28.163 228.334 28.163C229.225 28.163 229.711 27.569 229.711 26.417V22.7H230.89V26.597C230.89 28.235 229.936 29.162 228.334 29.162ZM232.752 29V22.7H233.931V28.001H237.099V29H232.752ZM237.758 29L240.35 22.7H241.7L244.292 29H242.969L242.339 27.281H239.657L239.018 29H237.758ZM240.026 26.282H241.97L241.25 24.32C241.151 24.059 241.079 23.852 241.007 23.591C240.926 23.852 240.836 24.068 240.746 24.32L240.026 26.282ZM245.478 29V22.7H248.268C249.447 22.7 250.302 23.258 250.302 24.356C250.302 25.22 249.699 25.715 249.096 25.895C249.816 26.021 250.203 26.543 250.203 27.353V29H249.015V27.461C249.015 26.714 248.745 26.444 247.98 26.444H246.657V29H245.478ZM246.657 25.436H248.043C248.736 25.436 249.087 25.139 249.087 24.572C249.087 24.005 248.736 23.699 248.043 23.699H246.657V25.436Z" fill="#872D99"/>
<path d="M13.078 68V58.2H19.896V59.754H14.912V62.148H19.686V63.716H14.912V66.446H20.106V68H13.078ZM21.5633 68V61.168H23.2713V61.476C23.2713 61.686 23.2573 61.924 23.2153 62.148C23.5513 61.546 24.1813 60.944 25.1893 60.944C26.0433 60.944 26.7293 61.602 26.9813 62.218C27.3733 61.56 28.1993 60.944 29.1933 60.944C30.5793 60.944 31.5453 62.036 31.5453 63.702V68H29.8373V63.954C29.8373 62.96 29.4453 62.302 28.7033 62.302C27.9613 62.302 27.4013 62.988 27.4013 64.024V68H25.6933V63.954C25.6933 62.96 25.3293 62.302 24.5593 62.302C23.8173 62.302 23.2713 62.96 23.2713 64.024V68H21.5633ZM35.2274 68.252C34.0374 68.252 32.8754 67.468 32.8754 66.124C32.8754 64.584 34.0654 64.052 35.5354 63.856L36.5154 63.73C37.0754 63.66 37.2714 63.45 37.2714 63.114C37.2714 62.638 36.8794 62.218 36.1514 62.218C35.3534 62.218 34.8494 62.666 34.7794 63.38H33.0154C33.1274 61.952 34.2894 60.944 36.0534 60.944C38.1394 60.944 38.9794 62.064 38.9794 63.982V68H37.3974V67.72C37.3974 67.496 37.4254 67.286 37.4674 67.062C37.1034 67.734 36.4034 68.252 35.2274 68.252ZM34.6114 66.054C34.6114 66.656 35.0874 66.992 35.6894 66.992C36.5994 66.992 37.3274 66.32 37.3274 65.354V64.612C37.1734 64.752 36.9354 64.822 36.5154 64.906L35.9554 65.018C35.1574 65.172 34.6114 65.438 34.6114 66.054ZM40.6356 68V61.168H42.3436V68H40.6356ZM40.6076 60.132V58.34H42.3856V60.132H40.6076ZM44.0809 68V58.2H45.7889V68H44.0809ZM54.2877 68.252C51.6557 68.252 50.1157 66.824 49.9617 64.64H51.8657C51.9637 65.998 53.0697 66.698 54.3717 66.698C55.4637 66.698 56.3317 66.306 56.3317 65.354C56.3317 64.612 55.7997 64.206 54.7217 63.996L53.0557 63.674C51.5157 63.38 50.3117 62.47 50.3117 60.902C50.3117 59.166 51.9217 57.948 54.1337 57.948C56.5977 57.948 57.9557 59.264 58.0677 61.168H56.1637C56.1217 60.258 55.4777 59.488 54.0497 59.488C52.9577 59.488 52.1457 59.936 52.1457 60.748C52.1457 61.504 52.8037 61.77 53.7977 61.966L55.4497 62.288C56.9757 62.582 58.1797 63.45 58.1797 65.088C58.1797 66.922 56.8077 68.252 54.2877 68.252ZM62.7335 68.252C60.6895 68.252 59.2475 66.936 59.2475 64.57C59.2475 62.414 60.6895 60.944 62.6775 60.944C64.7635 60.944 65.9675 62.4 65.9675 64.626V65.004H60.9975C61.0115 66.082 61.6975 66.908 62.7335 66.908C63.4755 66.908 64.0775 66.488 64.1895 65.774H65.9255C65.7855 67.174 64.5815 68.252 62.7335 68.252ZM60.9835 63.772H64.2175C64.1895 62.848 63.5875 62.218 62.6635 62.218C61.7395 62.218 61.0815 62.876 60.9835 63.772ZM72.1668 67.72C72.1668 67.496 72.1808 67.314 72.2228 67.062C71.9008 67.636 71.2008 68.252 70.0388 68.252C68.2748 68.252 66.9588 66.936 66.9588 64.598C66.9588 62.372 68.3868 60.944 70.1228 60.944C71.1448 60.944 71.8168 61.434 72.2228 62.148C72.1808 61.868 72.1668 61.686 72.1668 61.476V61.168H73.8748V70.856H72.1668V67.72ZM68.6948 64.598C68.6948 66.166 69.4648 66.908 70.4868 66.908C71.5088 66.908 72.2508 66.068 72.2508 64.598C72.2508 63.17 71.5648 62.302 70.5008 62.302C69.4648 62.302 68.6948 63.142 68.6948 64.598ZM77.9882 68.252C76.6162 68.252 75.5382 67.314 75.5382 65.508V61.168H77.2602V65.242C77.2602 66.194 77.6802 66.88 78.5062 66.88C79.3742 66.88 79.9902 66.236 79.9902 65.228V61.168H81.6982V68H80.0042V67.72C80.0042 67.51 80.0322 67.272 80.0742 67.062C79.7242 67.72 79.1222 68.252 77.9882 68.252ZM86.5225 68.252C84.4785 68.252 83.0365 66.936 83.0365 64.57C83.0365 62.414 84.4785 60.944 86.4665 60.944C88.5525 60.944 89.7565 62.4 89.7565 64.626V65.004H84.7865C84.8005 66.082 85.4865 66.908 86.5225 66.908C87.2645 66.908 87.8665 66.488 87.9785 65.774H89.7145C89.5745 67.174 88.3705 68.252 86.5225 68.252ZM84.7725 63.772H88.0065C87.9785 62.848 87.3765 62.218 86.4525 62.218C85.5285 62.218 84.8705 62.876 84.7725 63.772ZM91.1258 68V61.168H92.8338V61.476C92.8338 61.672 92.8198 61.882 92.7778 62.148C93.1558 61.462 93.7998 60.944 94.8778 60.944C96.3898 60.944 97.2858 62.008 97.2858 63.688V68H95.5778V63.94C95.5778 62.932 95.0878 62.302 94.2898 62.302C93.4498 62.302 92.8338 63.044 92.8338 63.996V68H91.1258ZM102.026 68.252C99.8558 68.252 98.5678 66.852 98.5678 64.584C98.5678 62.302 100.122 60.944 102.11 60.944C104.098 60.944 105.176 62.148 105.344 63.744H103.608C103.552 62.974 103.076 62.302 102.11 62.302C101.116 62.302 100.304 63.114 100.304 64.598C100.304 65.956 101.018 66.908 102.068 66.908C103.104 66.908 103.594 66.208 103.678 65.396H105.414C105.176 67.132 104.056 68.252 102.026 68.252ZM109.751 68.252C107.707 68.252 106.265 66.936 106.265 64.57C106.265 62.414 107.707 60.944 109.695 60.944C111.781 60.944 112.985 62.4 112.985 64.626V65.004H108.015C108.029 66.082 108.715 66.908 109.751 66.908C110.493 66.908 111.095 66.488 111.207 65.774H112.943C112.803 67.174 111.599 68.252 109.751 68.252ZM108.001 63.772H111.235C111.207 62.848 110.605 62.218 109.681 62.218C108.757 62.218 108.099 62.876 108.001 63.772Z" fill="#0E0E0E"/>
<path d="M16.488 88.192C14.064 88.192 12.516 86.392 12.516 83.824C12.516 81.076 14.304 79.396 16.668 79.396C18.636 79.396 20.016 80.524 20.184 82.12H18.792C18.66 81.196 17.832 80.524 16.68 80.524C15.06 80.524 13.896 81.7 13.896 83.824C13.896 85.756 15.012 87.076 16.632 87.076C18.024 87.076 19.008 86.248 19.008 84.796V84.688H16.548V83.56H20.22V88H19.056V87.676C19.056 87.412 19.068 87.136 19.092 86.86C18.672 87.616 17.736 88.192 16.488 88.192ZM23.7503 88.192C22.4902 88.192 21.6623 87.388 21.6623 85.876V82.18H22.9103V85.66C22.9103 86.62 23.2823 87.208 24.1103 87.208C24.9503 87.208 25.4783 86.572 25.4783 85.516V82.18H26.7263V88H25.4903V87.7C25.4903 87.532 25.5023 87.352 25.5263 87.196C25.2383 87.784 24.6263 88.192 23.7503 88.192ZM28.3551 88V82.18H29.6031V88H28.3551ZM28.3071 81.184V79.804H29.6631V81.184H28.3071ZM33.5659 88.192C32.0299 88.192 30.8899 87.112 30.8899 85.096C30.8899 83.176 32.0779 81.988 33.5899 81.988C34.5259 81.988 35.1259 82.48 35.4259 82.984C35.4019 82.804 35.4019 82.636 35.4019 82.468V79.6H36.6499V88H35.4019V87.712C35.4019 87.52 35.4019 87.364 35.4259 87.196C35.1499 87.676 34.5379 88.192 33.5659 88.192ZM32.1739 85.096C32.1739 86.38 32.8579 87.22 33.8299 87.22C34.7779 87.22 35.4739 86.368 35.4739 85.084C35.4739 83.8 34.7899 82.972 33.8299 82.972C32.8699 82.972 32.1739 83.836 32.1739 85.096ZM40.8248 88.192C39.0848 88.192 37.9328 87.088 37.9328 85.072C37.9328 83.26 39.1328 81.988 40.7768 81.988C42.5288 81.988 43.5248 83.212 43.5248 85.096V85.36H39.1928C39.2168 86.488 39.8888 87.22 40.8368 87.22C41.5088 87.22 42.0968 86.896 42.2168 86.152H43.4768C43.3568 87.256 42.4448 88.192 40.8248 88.192ZM39.2048 84.472H42.2168C42.2048 83.56 41.6648 82.936 40.7648 82.936C39.8888 82.936 39.2888 83.596 39.2048 84.472ZM50.0715 88.192C48.3555 88.192 47.1555 87.076 47.1555 85.084C47.1555 83.188 48.4515 81.988 50.1315 81.988C51.6675 81.988 52.6395 82.912 52.7715 84.256H51.4995C51.4275 83.548 50.9595 82.972 50.1195 82.972C49.1355 82.972 48.4275 83.812 48.4275 85.084C48.4275 86.356 49.0995 87.22 50.1075 87.22C50.9835 87.22 51.4755 86.668 51.5715 85.912H52.8195C52.6635 87.28 51.7275 88.192 50.0715 88.192ZM56.0471 88.192C54.7871 88.192 53.9591 87.388 53.9591 85.876V82.18H55.2071V85.66C55.2071 86.62 55.5791 87.208 56.4071 87.208C57.2471 87.208 57.7751 86.572 57.7751 85.516V82.18H59.0231V88H57.7871V87.7C57.7871 87.532 57.7991 87.352 57.8231 87.196C57.5351 87.784 56.9231 88.192 56.0471 88.192ZM62.8359 88.192C61.2279 88.192 60.2679 87.34 60.2079 86.032H61.4559C61.4919 86.776 61.9719 87.244 62.8239 87.244C63.5559 87.244 64.0359 86.908 64.0359 86.392C64.0359 85.972 63.7119 85.732 63.0519 85.6L62.2599 85.444C61.1079 85.228 60.4119 84.664 60.4119 83.728C60.4119 82.732 61.3599 81.988 62.7399 81.988C64.2159 81.988 65.1279 82.732 65.1879 83.932H63.9399C63.8799 83.296 63.4239 82.936 62.7039 82.936C62.0799 82.936 61.6479 83.212 61.6479 83.668C61.6479 84.076 61.9359 84.28 62.6319 84.412L63.4359 84.568C64.5279 84.784 65.2599 85.3 65.2599 86.296C65.2599 87.376 64.3359 88.192 62.8359 88.192ZM68.7924 88.096C67.7364 88.096 67.0164 87.58 67.0164 86.284V83.188H65.8044V82.18H67.0164V80.164H68.2644V82.18H69.5844V83.188H68.2644V86.116C68.2644 86.764 68.5524 87.052 69.1164 87.052C69.2604 87.052 69.4044 87.04 69.5604 87.016V88.012C69.3804 88.06 69.0924 88.096 68.7924 88.096ZM73.2395 88.192C71.5235 88.192 70.3235 86.992 70.3235 85.096C70.3235 83.236 71.5355 81.988 73.2395 81.988C74.9555 81.988 76.1675 83.236 76.1675 85.096C76.1675 86.992 74.9555 88.192 73.2395 88.192ZM71.5955 85.096C71.5955 86.392 72.2315 87.22 73.2395 87.22C74.2475 87.22 74.8955 86.392 74.8955 85.096C74.8955 83.776 74.2355 82.972 73.2395 82.972C72.2555 82.972 71.5955 83.776 71.5955 85.096ZM77.4566 88V82.18H78.7046V82.54C78.7046 82.684 78.7046 82.84 78.6806 82.984C79.0046 82.444 79.5686 81.988 80.3726 81.988C81.1166 81.988 81.7406 82.456 82.0166 83.104C82.3766 82.48 83.0606 81.988 83.9006 81.988C85.0766 81.988 85.9286 82.816 85.9286 84.328V88H84.6806V84.532C84.6806 83.56 84.3446 82.972 83.5886 82.972C82.8086 82.972 82.3166 83.668 82.3166 84.568V88H81.0686V84.556C81.0686 83.572 80.7446 82.972 79.9886 82.972C79.2206 82.972 78.7046 83.656 78.7046 84.592V88H77.4566ZM90.0436 88.192C88.3036 88.192 87.1516 87.088 87.1516 85.072C87.1516 83.26 88.3516 81.988 89.9956 81.988C91.7476 81.988 92.7436 83.212 92.7436 85.096V85.36H88.4116C88.4356 86.488 89.1076 87.22 90.0556 87.22C90.7276 87.22 91.3156 86.896 91.4356 86.152H92.6956C92.5756 87.256 91.6636 88.192 90.0436 88.192ZM88.4236 84.472H91.4356C91.4236 83.56 90.8836 82.936 89.9836 82.936C89.1076 82.936 88.5076 83.596 88.4236 84.472ZM94.0387 88V82.18H95.2867V82.528C95.2867 82.756 95.2867 82.972 95.2627 83.188C95.5627 82.528 96.1507 81.988 97.0267 81.988C97.1227 81.988 97.2187 81.988 97.3147 82.012V83.224C97.2307 83.212 97.1107 83.188 96.9427 83.188C95.9347 83.188 95.2867 83.728 95.2867 85.012V88H94.0387ZM100.275 90.664C100.023 90.664 99.7706 90.64 99.6026 90.58V89.56C99.6866 89.584 99.7946 89.596 99.9026 89.596C100.443 89.596 100.755 89.368 100.755 88.696V82.18H102.003V88.984C102.003 89.812 101.547 90.664 100.275 90.664ZM100.695 81.184V79.804H102.051V81.184H100.695ZM106.204 88.192C104.488 88.192 103.288 86.992 103.288 85.096C103.288 83.236 104.5 81.988 106.204 81.988C107.92 81.988 109.132 83.236 109.132 85.096C109.132 86.992 107.92 88.192 106.204 88.192ZM104.56 85.096C104.56 86.392 105.196 87.22 106.204 87.22C107.212 87.22 107.86 86.392 107.86 85.096C107.86 83.776 107.2 82.972 106.204 82.972C105.22 82.972 104.56 83.776 104.56 85.096ZM112.449 88.192C111.189 88.192 110.361 87.388 110.361 85.876V82.18H111.609V85.66C111.609 86.62 111.981 87.208 112.809 87.208C113.649 87.208 114.177 86.572 114.177 85.516V82.18H115.425V88H114.189V87.7C114.189 87.532 114.201 87.352 114.225 87.196C113.937 87.784 113.325 88.192 112.449 88.192ZM117.054 88V82.18H118.302V82.528C118.302 82.756 118.302 82.972 118.278 83.188C118.578 82.528 119.166 81.988 120.042 81.988C120.138 81.988 120.234 81.988 120.33 82.012V83.224C120.246 83.212 120.126 83.188 119.958 83.188C118.95 83.188 118.302 83.728 118.302 85.012V88H117.054ZM121.32 88V82.18H122.568V82.504C122.568 82.66 122.556 82.804 122.544 82.984C122.856 82.444 123.48 81.988 124.332 81.988C125.652 81.988 126.432 82.864 126.432 84.328V88H125.184V84.496C125.184 83.524 124.8 82.972 123.996 82.972C123.132 82.972 122.568 83.68 122.568 84.544V88H121.32ZM130.544 88.192C128.804 88.192 127.652 87.088 127.652 85.072C127.652 83.26 128.852 81.988 130.496 81.988C132.248 81.988 133.244 83.212 133.244 85.096V85.36H128.912C128.936 86.488 129.608 87.22 130.556 87.22C131.228 87.22 131.816 86.896 131.936 86.152H133.196C133.076 87.256 132.164 88.192 130.544 88.192ZM128.924 84.472H131.936C131.924 83.56 131.384 82.936 130.484 82.936C129.608 82.936 129.008 83.596 128.924 84.472ZM135.01 90.472L136.018 87.868L133.714 82.18H135.106L136.45 85.912C136.522 86.128 136.606 86.356 136.678 86.62C136.75 86.356 136.822 86.128 136.894 85.912L138.13 82.18H139.438L136.342 90.472H135.01ZM142.43 88.192C140.822 88.192 139.862 87.34 139.802 86.032H141.05C141.086 86.776 141.566 87.244 142.418 87.244C143.15 87.244 143.63 86.908 143.63 86.392C143.63 85.972 143.306 85.732 142.646 85.6L141.854 85.444C140.702 85.228 140.006 84.664 140.006 83.728C140.006 82.732 140.954 81.988 142.334 81.988C143.81 81.988 144.722 82.732 144.782 83.932H143.534C143.474 83.296 143.018 82.936 142.298 82.936C141.674 82.936 141.242 83.212 141.242 83.668C141.242 84.076 141.53 84.28 142.226 84.412L143.03 84.568C144.122 84.784 144.854 85.3 144.854 86.296C144.854 87.376 143.93 88.192 142.43 88.192ZM150.516 88.192C149.46 88.192 148.512 87.52 148.512 86.404C148.512 85.18 149.472 84.688 150.612 84.532L151.656 84.376C152.112 84.316 152.268 84.148 152.268 83.824C152.268 83.308 151.86 82.936 151.212 82.936C150.42 82.936 149.976 83.368 149.94 84.028H148.668C148.728 82.888 149.64 81.988 151.128 81.988C152.736 81.988 153.504 82.888 153.504 84.376V88H152.34V87.736C152.34 87.556 152.352 87.388 152.364 87.208C152.064 87.796 151.452 88.192 150.516 88.192ZM149.796 86.368C149.796 86.932 150.24 87.256 150.792 87.256C151.644 87.256 152.292 86.656 152.292 85.768V85.024C152.196 85.144 151.98 85.216 151.632 85.276L150.972 85.408C150.288 85.54 149.796 85.804 149.796 86.368ZM155.058 88V82.18H156.306V82.504C156.306 82.66 156.294 82.804 156.282 82.984C156.594 82.444 157.218 81.988 158.07 81.988C159.39 81.988 160.17 82.864 160.17 84.328V88H158.922V84.496C158.922 83.524 158.538 82.972 157.734 82.972C156.87 82.972 156.306 83.68 156.306 84.544V88H155.058ZM164.066 88.192C162.53 88.192 161.39 87.112 161.39 85.096C161.39 83.176 162.578 81.988 164.09 81.988C165.026 81.988 165.626 82.48 165.926 82.984C165.902 82.804 165.902 82.636 165.902 82.468V79.6H167.15V88H165.902V87.712C165.902 87.52 165.902 87.364 165.926 87.196C165.65 87.676 165.038 88.192 164.066 88.192ZM162.674 85.096C162.674 86.38 163.358 87.22 164.33 87.22C165.278 87.22 165.974 86.368 165.974 85.084C165.974 83.8 165.29 82.972 164.33 82.972C163.37 82.972 162.674 83.836 162.674 85.096ZM174.572 88.192C173.684 88.192 173.024 87.772 172.688 87.196C172.712 87.388 172.712 87.544 172.712 87.724V88H171.464V79.6H172.712V82.468C172.712 82.648 172.7 82.816 172.688 82.984C173.06 82.42 173.684 81.988 174.572 81.988C176.12 81.988 177.236 83.236 177.236 85.096C177.236 86.992 176.144 88.192 174.572 88.192ZM172.64 85.096C172.64 86.356 173.324 87.22 174.296 87.22C175.28 87.22 175.952 86.356 175.952 85.096C175.952 83.848 175.28 82.972 174.296 82.972C173.324 82.972 172.64 83.8 172.64 85.096ZM181.064 88.192C179.348 88.192 178.148 86.992 178.148 85.096C178.148 83.236 179.36 81.988 181.064 81.988C182.78 81.988 183.992 83.236 183.992 85.096C183.992 86.992 182.78 88.192 181.064 88.192ZM179.42 85.096C179.42 86.392 180.056 87.22 181.064 87.22C182.072 87.22 182.72 86.392 182.72 85.096C182.72 83.776 182.06 82.972 181.064 82.972C180.08 82.972 179.42 83.776 179.42 85.096ZM187.849 88.192C186.133 88.192 184.933 86.992 184.933 85.096C184.933 83.236 186.145 81.988 187.849 81.988C189.565 81.988 190.777 83.236 190.777 85.096C190.777 86.992 189.565 88.192 187.849 88.192ZM186.205 85.096C186.205 86.392 186.841 87.22 187.849 87.22C188.857 87.22 189.505 86.392 189.505 85.096C189.505 83.776 188.845 82.972 187.849 82.972C186.865 82.972 186.205 83.776 186.205 85.096ZM194.25 88.192C192.642 88.192 191.682 87.34 191.622 86.032H192.87C192.906 86.776 193.386 87.244 194.238 87.244C194.97 87.244 195.45 86.908 195.45 86.392C195.45 85.972 195.126 85.732 194.466 85.6L193.674 85.444C192.522 85.228 191.826 84.664 191.826 83.728C191.826 82.732 192.774 81.988 194.154 81.988C195.63 81.988 196.542 82.732 196.602 83.932H195.354C195.294 83.296 194.838 82.936 194.118 82.936C193.494 82.936 193.062 83.212 193.062 83.668C193.062 84.076 193.35 84.28 194.046 84.412L194.85 84.568C195.942 84.784 196.674 85.3 196.674 86.296C196.674 87.376 195.75 88.192 194.25 88.192ZM200.207 88.096C199.151 88.096 198.431 87.58 198.431 86.284V83.188H197.219V82.18H198.431V80.164H199.679V82.18H200.999V83.188H199.679V86.116C199.679 86.764 199.967 87.052 200.531 87.052C200.675 87.052 200.819 87.04 200.975 87.016V88.012C200.795 88.06 200.507 88.096 200.207 88.096ZM15.384 104.192C13.668 104.192 12.468 103.076 12.468 101.084C12.468 99.188 13.764 97.988 15.444 97.988C16.98 97.988 17.952 98.912 18.084 100.256H16.812C16.74 99.548 16.272 98.972 15.432 98.972C14.448 98.972 13.74 99.812 13.74 101.084C13.74 102.356 14.412 103.22 15.42 103.22C16.296 103.22 16.788 102.668 16.884 101.912H18.132C17.976 103.28 17.04 104.192 15.384 104.192ZM21.8996 104.192C20.1836 104.192 18.9836 102.992 18.9836 101.096C18.9836 99.236 20.1956 97.988 21.8996 97.988C23.6156 97.988 24.8276 99.236 24.8276 101.096C24.8276 102.992 23.6156 104.192 21.8996 104.192ZM20.2556 101.096C20.2556 102.392 20.8916 103.22 21.8996 103.22C22.9076 103.22 23.5556 102.392 23.5556 101.096C23.5556 99.776 22.8956 98.972 21.8996 98.972C20.9156 98.972 20.2556 99.776 20.2556 101.096ZM26.1168 104V98.18H27.3648V98.504C27.3648 98.66 27.3528 98.804 27.3408 98.984C27.6528 98.444 28.2768 97.988 29.1288 97.988C30.4488 97.988 31.2288 98.864 31.2288 100.328V104H29.9808V100.496C29.9808 99.524 29.5968 98.972 28.7928 98.972C27.9288 98.972 27.3648 99.68 27.3648 100.544V104H26.1168ZM34.2147 104L32.0067 98.18H33.3507L34.7307 102.2C34.8267 102.452 34.8747 102.632 34.9347 102.86C34.9947 102.632 35.0547 102.452 35.1387 102.2L36.4947 98.18H37.7907L35.6187 104H34.2147ZM41.153 104.192C39.413 104.192 38.261 103.088 38.261 101.072C38.261 99.26 39.461 97.988 41.105 97.988C42.857 97.988 43.853 99.212 43.853 101.096V101.36H39.521C39.545 102.488 40.217 103.22 41.165 103.22C41.837 103.22 42.425 102.896 42.545 102.152H43.805C43.685 103.256 42.773 104.192 41.153 104.192ZM39.533 100.472H42.545C42.533 99.56 41.993 98.936 41.093 98.936C40.217 98.936 39.617 99.596 39.533 100.472ZM45.148 104V98.18H46.396V98.528C46.396 98.756 46.396 98.972 46.372 99.188C46.672 98.528 47.26 97.988 48.136 97.988C48.232 97.988 48.328 97.988 48.424 98.012V99.224C48.34 99.212 48.22 99.188 48.052 99.188C47.044 99.188 46.396 99.728 46.396 101.012V104H45.148ZM51.5391 104.192C49.9311 104.192 48.9711 103.34 48.9111 102.032H50.1591C50.1951 102.776 50.6751 103.244 51.5271 103.244C52.2591 103.244 52.7391 102.908 52.7391 102.392C52.7391 101.972 52.4151 101.732 51.7551 101.6L50.9631 101.444C49.8111 101.228 49.1151 100.664 49.1151 99.728C49.1151 98.732 50.0631 97.988 51.4431 97.988C52.9191 97.988 53.8311 98.732 53.8911 99.932H52.6431C52.5831 99.296 52.1271 98.936 51.4071 98.936C50.7831 98.936 50.3511 99.212 50.3511 99.668C50.3511 100.076 50.6391 100.28 51.3351 100.412L52.1391 100.568C53.2311 100.784 53.9631 101.3 53.9631 102.296C53.9631 103.376 53.0391 104.192 51.5391 104.192ZM55.2613 104V98.18H56.5093V104H55.2613ZM55.2133 97.184V95.804H56.5693V97.184H55.2133ZM60.7121 104.192C58.9961 104.192 57.7961 102.992 57.7961 101.096C57.7961 99.236 59.0081 97.988 60.7121 97.988C62.4281 97.988 63.6401 99.236 63.6401 101.096C63.6401 102.992 62.4281 104.192 60.7121 104.192ZM59.0681 101.096C59.0681 102.392 59.7041 103.22 60.7121 103.22C61.7201 103.22 62.3681 102.392 62.3681 101.096C62.3681 99.776 61.7081 98.972 60.7121 98.972C59.7281 98.972 59.0681 99.776 59.0681 101.096ZM64.9293 104V98.18H66.1773V98.504C66.1773 98.66 66.1653 98.804 66.1533 98.984C66.4653 98.444 67.0893 97.988 67.9413 97.988C69.2613 97.988 70.0413 98.864 70.0413 100.328V104H68.7933V100.496C68.7933 99.524 68.4093 98.972 67.6053 98.972C66.7413 98.972 66.1773 99.68 66.1773 100.544V104H64.9293ZM73.793 104.192C72.185 104.192 71.225 103.34 71.165 102.032H72.413C72.449 102.776 72.929 103.244 73.781 103.244C74.513 103.244 74.993 102.908 74.993 102.392C74.993 101.972 74.669 101.732 74.009 101.6L73.217 101.444C72.065 101.228 71.369 100.664 71.369 99.728C71.369 98.732 72.317 97.988 73.697 97.988C75.173 97.988 76.085 98.732 76.145 99.932H74.897C74.837 99.296 74.381 98.936 73.661 98.936C73.037 98.936 72.605 99.212 72.605 99.668C72.605 100.076 72.893 100.28 73.589 100.412L74.393 100.568C75.485 100.784 76.217 101.3 76.217 102.296C76.217 103.376 75.293 104.192 73.793 104.192ZM81.175 104L79.339 98.18H80.647L81.811 102.308C81.859 102.488 81.907 102.68 81.943 102.872C81.991 102.668 82.039 102.476 82.087 102.308L83.203 98.18H84.823L85.975 102.308C86.023 102.476 86.071 102.656 86.107 102.86C86.155 102.656 86.191 102.476 86.251 102.296L87.403 98.18H88.627L86.827 104H85.327L84.151 99.812C84.115 99.656 84.067 99.464 84.019 99.236C83.983 99.464 83.935 99.644 83.875 99.812L82.711 104H81.175ZM89.5973 104V98.18H90.8453V104H89.5973ZM89.5493 97.184V95.804H90.9053V97.184H89.5493ZM94.8081 104.096C93.7521 104.096 93.0321 103.58 93.0321 102.284V99.188H91.8201V98.18H93.0321V96.164H94.2801V98.18H95.6001V99.188H94.2801V102.116C94.2801 102.764 94.5681 103.052 95.1321 103.052C95.2761 103.052 95.4201 103.04 95.5761 103.016V104.012C95.3961 104.06 95.1081 104.096 94.8081 104.096ZM96.7574 104V95.6H98.0054V98.456C98.0054 98.624 98.0054 98.792 97.9814 98.984C98.3054 98.42 98.9174 97.988 99.7694 97.988C101.089 97.988 101.869 98.864 101.869 100.328V104H100.621V100.496C100.621 99.524 100.225 98.972 99.4214 98.972C98.5694 98.972 98.0054 99.68 98.0054 100.544V104H96.7574ZM107.801 104.192C106.745 104.192 105.797 103.52 105.797 102.404C105.797 101.18 106.757 100.688 107.897 100.532L108.941 100.376C109.397 100.316 109.553 100.148 109.553 99.824C109.553 99.308 109.145 98.936 108.497 98.936C107.705 98.936 107.261 99.368 107.225 100.028H105.953C106.013 98.888 106.925 97.988 108.413 97.988C110.021 97.988 110.789 98.888 110.789 100.376V104H109.625V103.736C109.625 103.556 109.637 103.388 109.649 103.208C109.349 103.796 108.737 104.192 107.801 104.192ZM107.081 102.368C107.081 102.932 107.525 103.256 108.077 103.256C108.929 103.256 109.577 102.656 109.577 101.768V101.024C109.481 101.144 109.265 101.216 108.917 101.276L108.257 101.408C107.573 101.54 107.081 101.804 107.081 102.368ZM117.132 104.096C116.076 104.096 115.356 103.58 115.356 102.284V99.188H114.144V98.18H115.356V96.164H116.604V98.18H117.924V99.188H116.604V102.116C116.604 102.764 116.892 103.052 117.456 103.052C117.6 103.052 117.744 103.04 117.9 103.016V104.012C117.72 104.06 117.432 104.096 117.132 104.096ZM120.762 104.192C119.706 104.192 118.758 103.52 118.758 102.404C118.758 101.18 119.718 100.688 120.858 100.532L121.902 100.376C122.358 100.316 122.514 100.148 122.514 99.824C122.514 99.308 122.106 98.936 121.458 98.936C120.666 98.936 120.222 99.368 120.186 100.028H118.914C118.974 98.888 119.886 97.988 121.374 97.988C122.982 97.988 123.75 98.888 123.75 100.376V104H122.586V103.736C122.586 103.556 122.598 103.388 122.61 103.208C122.31 103.796 121.698 104.192 120.762 104.192ZM120.042 102.368C120.042 102.932 120.486 103.256 121.038 103.256C121.89 103.256 122.538 102.656 122.538 101.768V101.024C122.442 101.144 122.226 101.216 121.878 101.276L121.218 101.408C120.534 101.54 120.042 101.804 120.042 102.368ZM125.304 104V98.18H126.552V104H125.304ZM125.256 97.184V95.804H126.612V97.184H125.256ZM128.187 104V95.6H129.435V104H128.187ZM133.638 104.192C131.922 104.192 130.722 102.992 130.722 101.096C130.722 99.236 131.934 97.988 133.638 97.988C135.354 97.988 136.566 99.236 136.566 101.096C136.566 102.992 135.354 104.192 133.638 104.192ZM131.994 101.096C131.994 102.392 132.63 103.22 133.638 103.22C134.646 103.22 135.294 102.392 135.294 101.096C135.294 99.776 134.634 98.972 133.638 98.972C132.654 98.972 131.994 99.776 131.994 101.096ZM137.855 104V98.18H139.103V98.528C139.103 98.756 139.103 98.972 139.079 99.188C139.379 98.528 139.967 97.988 140.843 97.988C140.939 97.988 141.035 97.988 141.131 98.012V99.224C141.047 99.212 140.927 99.188 140.759 99.188C139.751 99.188 139.103 99.728 139.103 101.012V104H137.855ZM144.548 104.192C142.808 104.192 141.656 103.088 141.656 101.072C141.656 99.26 142.856 97.988 144.5 97.988C146.252 97.988 147.247 99.212 147.247 101.096V101.36H142.916C142.94 102.488 143.612 103.22 144.56 103.22C145.232 103.22 145.82 102.896 145.94 102.152H147.2C147.08 103.256 146.168 104.192 144.548 104.192ZM142.928 100.472H145.94C145.928 99.56 145.388 98.936 144.488 98.936C143.612 98.936 143.012 99.596 142.928 100.472ZM150.871 104.192C149.335 104.192 148.195 103.112 148.195 101.096C148.195 99.176 149.383 97.988 150.895 97.988C151.831 97.988 152.431 98.48 152.731 98.984C152.707 98.804 152.707 98.636 152.707 98.468V95.6H153.955V104H152.707V103.712C152.707 103.52 152.707 103.364 152.731 103.196C152.455 103.676 151.843 104.192 150.871 104.192ZM149.479 101.096C149.479 102.38 150.163 103.22 151.135 103.22C152.083 103.22 152.779 102.368 152.779 101.084C152.779 99.8 152.095 98.972 151.135 98.972C150.175 98.972 149.479 99.836 149.479 101.096ZM160.813 104.192C159.073 104.192 157.921 103.088 157.921 101.072C157.921 99.26 159.121 97.988 160.765 97.988C162.517 97.988 163.513 99.212 163.513 101.096V101.36H159.181C159.205 102.488 159.877 103.22 160.825 103.22C161.497 103.22 162.085 102.896 162.205 102.152H163.465C163.345 103.256 162.433 104.192 160.813 104.192ZM159.193 100.472H162.205C162.193 99.56 161.653 98.936 160.753 98.936C159.877 98.936 159.277 99.596 159.193 100.472ZM164.808 104V98.18H166.056V98.54C166.056 98.684 166.056 98.84 166.032 98.984C166.356 98.444 166.92 97.988 167.724 97.988C168.468 97.988 169.092 98.456 169.368 99.104C169.728 98.48 170.412 97.988 171.252 97.988C172.428 97.988 173.28 98.816 173.28 100.328V104H172.032V100.532C172.032 99.56 171.696 98.972 170.94 98.972C170.16 98.972 169.668 99.668 169.668 100.568V104H168.42V100.556C168.42 99.572 168.096 98.972 167.34 98.972C166.572 98.972 166.056 99.656 166.056 100.592V104H164.808ZM176.531 104.192C175.475 104.192 174.527 103.52 174.527 102.404C174.527 101.18 175.487 100.688 176.627 100.532L177.671 100.376C178.127 100.316 178.283 100.148 178.283 99.824C178.283 99.308 177.875 98.936 177.227 98.936C176.435 98.936 175.991 99.368 175.955 100.028H174.683C174.743 98.888 175.655 97.988 177.143 97.988C178.751 97.988 179.519 98.888 179.519 100.376V104H178.355V103.736C178.355 103.556 178.367 103.388 178.379 103.208C178.079 103.796 177.467 104.192 176.531 104.192ZM175.811 102.368C175.811 102.932 176.255 103.256 176.807 103.256C177.659 103.256 178.307 102.656 178.307 101.768V101.024C178.211 101.144 177.995 101.216 177.647 101.276L176.987 101.408C176.303 101.54 175.811 101.804 175.811 102.368ZM181.074 104V98.18H182.322V104H181.074ZM181.026 97.184V95.804H182.382V97.184H181.026ZM183.957 104V95.6H185.205V104H183.957ZM191.707 104.192C190.099 104.192 189.139 103.34 189.079 102.032H190.327C190.363 102.776 190.843 103.244 191.695 103.244C192.427 103.244 192.907 102.908 192.907 102.392C192.907 101.972 192.583 101.732 191.923 101.6L191.131 101.444C189.979 101.228 189.283 100.664 189.283 99.728C189.283 98.732 190.231 97.988 191.611 97.988C193.087 97.988 193.999 98.732 194.059 99.932H192.811C192.751 99.296 192.295 98.936 191.575 98.936C190.951 98.936 190.519 99.212 190.519 99.668C190.519 100.076 190.807 100.28 191.503 100.412L192.307 100.568C193.399 100.784 194.131 101.3 194.131 102.296C194.131 103.376 193.207 104.192 191.707 104.192ZM197.973 104.192C196.233 104.192 195.081 103.088 195.081 101.072C195.081 99.26 196.281 97.988 197.925 97.988C199.677 97.988 200.673 99.212 200.673 101.096V101.36H196.341C196.365 102.488 197.037 103.22 197.985 103.22C198.657 103.22 199.245 102.896 199.365 102.152H200.625C200.505 103.256 199.593 104.192 197.973 104.192ZM196.353 100.472H199.365C199.353 99.56 198.813 98.936 197.913 98.936C197.037 98.936 196.437 99.596 196.353 100.472ZM206.144 103.724C206.144 103.544 206.144 103.376 206.168 103.196C205.856 103.748 205.208 104.192 204.296 104.192C202.736 104.192 201.62 103.076 201.62 101.096C201.62 99.26 202.76 97.988 204.332 97.988C205.22 97.988 205.856 98.432 206.192 98.984C206.168 98.78 206.168 98.624 206.168 98.444V98.18H207.392V106.472H206.144V103.724ZM202.904 101.096C202.904 102.452 203.588 103.22 204.548 103.22C205.508 103.22 206.204 102.416 206.204 101.096C206.204 99.788 205.544 98.972 204.572 98.972C203.588 98.972 202.904 99.8 202.904 101.096ZM211.051 104.192C209.791 104.192 208.963 103.388 208.963 101.876V98.18H210.211V101.66C210.211 102.62 210.583 103.208 211.411 103.208C212.251 103.208 212.779 102.572 212.779 101.516V98.18H214.027V104H212.791V103.7C212.791 103.532 212.803 103.352 212.827 103.196C212.539 103.784 211.927 104.192 211.051 104.192ZM218.2 104.192C216.46 104.192 215.308 103.088 215.308 101.072C215.308 99.26 216.508 97.988 218.152 97.988C219.904 97.988 220.9 99.212 220.9 101.096V101.36H216.568C216.592 102.488 217.264 103.22 218.212 103.22C218.884 103.22 219.472 102.896 219.592 102.152H220.852C220.732 103.256 219.82 104.192 218.2 104.192ZM216.58 100.472H219.592C219.58 99.56 219.04 98.936 218.14 98.936C217.264 98.936 216.664 99.596 216.58 100.472ZM222.195 104V98.18H223.443V98.504C223.443 98.66 223.431 98.804 223.419 98.984C223.731 98.444 224.355 97.988 225.207 97.988C226.527 97.988 227.307 98.864 227.307 100.328V104H226.059V100.496C226.059 99.524 225.675 98.972 224.871 98.972C224.007 98.972 223.443 99.68 223.443 100.544V104H222.195ZM231.443 104.192C229.727 104.192 228.527 103.076 228.527 101.084C228.527 99.188 229.823 97.988 231.503 97.988C233.039 97.988 234.011 98.912 234.143 100.256H232.871C232.799 99.548 232.331 98.972 231.491 98.972C230.507 98.972 229.799 99.812 229.799 101.084C229.799 102.356 230.471 103.22 231.479 103.22C232.355 103.22 232.847 102.668 232.943 101.912H234.191C234.035 103.28 233.099 104.192 231.443 104.192ZM237.934 104.192C236.194 104.192 235.042 103.088 235.042 101.072C235.042 99.26 236.242 97.988 237.886 97.988C239.638 97.988 240.634 99.212 240.634 101.096V101.36H236.302C236.326 102.488 236.998 103.22 237.946 103.22C238.618 103.22 239.206 102.896 239.326 102.152H240.586C240.466 103.256 239.554 104.192 237.934 104.192ZM236.314 100.472H239.326C239.314 99.56 238.774 98.936 237.874 98.936C236.998 98.936 236.398 99.596 236.314 100.472Z" fill="#464134"/>
</g>
<path d="M0.5 16C0.5 7.43959 7.43959 0.5 16 0.5H253C261.56 0.5 268.5 7.43959 268.5 16V131C268.5 139.56 261.56 146.5 253 146.5H16C7.43958 146.5 0.5 139.56 0.5 131V16Z" stroke="#EEECE8"/>
<defs>
<clipPath id="clip0_3431_25230">
<path d="M0 16C0 7.16345 7.16344 0 16 0H253C261.837 0 269 7.16344 269 16V131C269 139.837 261.837 147 253 147H16C7.16344 147 0 139.837 0 131V16Z" fill="white"/>
</clipPath>
</defs>
</svg>
