<svg width="269" height="147" viewBox="0 0 269 147" fill="none" xmlns="http://www.w3.org/2000/svg">
<g clip-path="url(#clip0_3431_25033)">
<path d="M0 16C0 7.16345 7.16344 0 16 0H253C261.837 0 269 7.16344 269 16V131C269 139.837 261.837 147 253 147H16C7.16344 147 0 139.837 0 131V16Z" fill="#FAFAFA"/>
<path d="M26 9C16.6112 9 9 16.6112 9 26C9 35.3888 16.6112 43 26 43C35.3888 43 43 35.3888 43 26C43 16.6112 35.3888 9 26 9Z" fill="#DEDDFD"/>
<path d="M26 9C16.6112 9 9 16.6112 9 26C9 35.3888 16.6112 43 26 43C35.3888 43 43 35.3888 43 26C43 16.6112 35.3888 9 26 9Z" stroke="#FAFAFA" stroke-width="6"/>
<g clip-path="url(#clip1_3431_25033)">
<path d="M21.3939 27.1516C21.2935 26.7497 20.8863 26.5054 20.4844 26.6059C20.0826 26.7064 19.8383 27.1136 19.9387 27.5154L21.3939 27.1516ZM21.7161 31.5325L20.9885 31.7144L21.7161 31.5325ZM25.4163 27.6668C25.4163 27.2526 25.0806 26.9168 24.6663 26.9168C24.2521 26.9168 23.9163 27.2526 23.9163 27.6668H25.4163ZM23.4617 32.6606L23.3893 31.9141H23.3893L23.4617 32.6606ZM24.6601 31.4622L23.9136 31.3898V31.3898L24.6601 31.4622ZM21.7779 31.7612L21.0675 32.0019L21.7779 31.7612ZM22.932 32.6624L22.9932 31.9149H22.9932L22.932 32.6624ZM30.333 26.2502H29.583V27.7502H30.333V26.2502ZM30.333 21.5835H29.583V23.0835H30.333V21.5835ZM30.333 30.0002L29.8944 30.6085C30.1227 30.7732 30.4241 30.7961 30.6747 30.6678C30.9253 30.5395 31.083 30.2817 31.083 30.0002H30.333ZM30.333 19.3335H31.083C31.083 19.052 30.9253 18.7941 30.6747 18.6659C30.4241 18.5376 30.1227 18.5605 29.8944 18.7252L30.333 19.3335ZM19.333 24.6668L20.083 24.6668L19.333 24.6668ZM19.9387 27.5154L20.9885 31.7144L22.4437 31.3506L21.3939 27.1516L19.9387 27.5154ZM25.4163 31.1694V27.6668H23.9163V31.1694H25.4163ZM23.1689 33.4168C23.3037 33.4168 23.4247 33.4177 23.5341 33.4071L23.3893 31.9141C23.3703 31.9159 23.3389 31.9168 23.1689 31.9168V33.4168ZM23.9163 31.1694C23.9163 31.3394 23.9155 31.3708 23.9136 31.3898L25.4066 31.5346C25.4172 31.4252 25.4163 31.3042 25.4163 31.1694H23.9163ZM23.5341 33.4071C24.5257 33.3109 25.3104 32.5262 25.4066 31.5346L23.9136 31.3898C23.8867 31.6675 23.667 31.8872 23.3893 31.9141L23.5341 33.4071ZM20.9885 31.7144C21.0147 31.8192 21.0378 31.9142 21.0675 32.0019L22.4882 31.5206C22.483 31.5052 22.4766 31.4821 22.4437 31.3506L20.9885 31.7144ZM23.1689 31.9168C23.0334 31.9168 23.0094 31.9162 22.9932 31.9149L22.8709 33.4099C22.9631 33.4174 23.0609 33.4168 23.1689 33.4168V31.9168ZM21.0675 32.0019C21.3341 32.7888 22.0428 33.3422 22.8709 33.4099L22.9932 31.9149C22.7613 31.8959 22.5628 31.741 22.4882 31.5206L21.0675 32.0019ZM31.9163 24.6668C31.9163 25.5413 31.2075 26.2502 30.333 26.2502V27.7502C32.0359 27.7502 33.4163 26.3697 33.4163 24.6668H31.9163ZM30.333 23.0835C31.2075 23.0835 31.9163 23.7924 31.9163 24.6668H33.4163C33.4163 22.964 32.0359 21.5835 30.333 21.5835V23.0835ZM22.333 22.4168H24.833V20.9168H22.333V22.4168ZM30.333 30.0002C30.7717 29.3918 30.7716 29.3917 30.7714 29.3917C30.7714 29.3916 30.7712 29.3915 30.7711 29.3914C30.7709 29.3913 30.7706 29.3911 30.7703 29.3908C30.7696 29.3903 30.7688 29.3897 30.7677 29.389C30.7656 29.3875 30.7627 29.3854 30.7591 29.3828C30.7518 29.3776 30.7414 29.3702 30.7281 29.3609C30.7015 29.3421 30.6632 29.3153 30.6141 29.2817C30.516 29.2143 30.3749 29.1192 30.1989 29.0055C29.8476 28.7787 29.3542 28.4758 28.7854 28.172C27.6848 27.584 26.1663 26.9168 24.833 26.9168V28.4168C25.7638 28.4168 26.9953 28.9163 28.0787 29.495C28.6019 29.7745 29.0589 30.055 29.3852 30.2656C29.5479 30.3707 29.6772 30.4579 29.765 30.5181C29.8088 30.5483 29.8422 30.5716 29.8641 30.587C29.8751 30.5948 29.8832 30.6005 29.8882 30.6041C29.8908 30.6059 29.8926 30.6072 29.8936 30.608C29.8941 30.6083 29.8944 30.6086 29.8946 30.6087C29.8946 30.6087 29.8946 30.6087 29.8946 30.6087C29.8946 30.6087 29.8945 30.6086 29.8945 30.6086C29.8944 30.6086 29.8944 30.6085 30.333 30.0002ZM29.583 19.3335V30.0002H31.083V19.3335H29.583ZM24.833 22.4168C26.1662 22.4168 27.6848 21.7496 28.7854 21.1617C29.3542 20.8579 29.8476 20.555 30.1989 20.3281C30.3749 20.2145 30.516 20.1194 30.6141 20.052C30.6632 20.0183 30.7015 19.9915 30.7281 19.9728C30.7414 19.9634 30.7518 19.9561 30.7591 19.9509C30.7627 19.9483 30.7656 19.9462 30.7677 19.9447C30.7688 19.9439 30.7696 19.9433 30.7703 19.9428C30.7706 19.9426 30.7709 19.9424 30.7711 19.9422C30.7712 19.9421 30.7714 19.942 30.7714 19.942C30.7716 19.9419 30.7717 19.9418 30.333 19.3335C29.8944 18.7252 29.8944 18.7251 29.8945 18.725C29.8945 18.725 29.8946 18.725 29.8946 18.725C29.8946 18.725 29.8946 18.725 29.8946 18.725C29.8944 18.7251 29.8941 18.7253 29.8936 18.7257C29.8926 18.7264 29.8908 18.7277 29.8882 18.7295C29.8832 18.7331 29.8751 18.7389 29.8641 18.7466C29.8422 18.7621 29.8088 18.7854 29.765 18.8155C29.6772 18.8758 29.5479 18.9629 29.3852 19.068C29.0589 19.2787 28.6019 19.5591 28.0786 19.8386C26.9953 20.4174 25.7638 20.9168 24.833 20.9168V22.4168ZM24.833 26.9168H22.333V28.4168H24.833V26.9168ZM18.583 24.6668C18.583 26.7379 20.2619 28.4168 22.333 28.4168V26.9168C21.0904 26.9168 20.083 25.9095 20.083 24.6668L18.583 24.6668ZM22.333 20.9168C20.2619 20.9168 18.583 22.5958 18.583 24.6668L20.083 24.6668C20.083 23.4242 21.0904 22.4168 22.333 22.4168V20.9168Z" fill="#0E0E0E"/>
</g>
<path d="M159 21C159 18.7909 160.791 17 163 17H191C193.209 17 195 18.7909 195 21V31C195 33.2091 193.209 35 191 35H163C160.791 35 159 33.2091 159 31V21Z" fill="#B3F4C4"/>
<path d="M165.693 29V22.7H167.466L170.184 27.443C170.157 27.173 170.148 26.831 170.148 26.498V22.7H171.327V29H169.779L166.836 23.861C166.872 24.221 166.872 24.464 166.872 24.743V29H165.693ZM173.255 29V22.7H177.638V23.699H174.434V25.238H177.503V26.246H174.434V28.001H177.773V29H173.255ZM180.42 29L178.764 22.7H180.078L181.041 26.822C181.131 27.191 181.203 27.506 181.284 27.947C181.356 27.506 181.428 27.191 181.518 26.822L182.562 22.7H184.263L185.226 26.822C185.316 27.191 185.397 27.524 185.478 27.947C185.55 27.506 185.613 27.191 185.703 26.822L186.702 22.7H187.944L186.288 29H184.65L183.606 24.518C183.561 24.32 183.489 24.05 183.426 23.645C183.345 24.05 183.282 24.32 183.228 24.518L182.058 29H180.42Z" fill="#285535"/>
<path d="M199 21C199 18.7909 200.791 17 203 17H253C255.209 17 257 18.7909 257 21V31C257 33.2091 255.209 35 253 35H203C200.791 35 199 33.2091 199 31V21Z" fill="#E7D0F2"/>
<path d="M205.693 29V22.7H208.339C209.653 22.7 210.643 23.258 210.643 24.59C210.643 25.958 209.608 26.48 208.339 26.48H206.872V29H205.693ZM206.872 25.481H208.339C209.095 25.481 209.428 25.139 209.428 24.59C209.428 24.041 209.113 23.699 208.339 23.699H206.872V25.481ZM214.787 29.162C213.023 29.162 211.7 27.965 211.7 25.85C211.7 23.825 213.023 22.538 214.787 22.538C216.551 22.538 217.901 23.852 217.901 25.85C217.901 27.956 216.551 29.162 214.787 29.162ZM212.915 25.85C212.915 27.317 213.671 28.163 214.787 28.163C215.903 28.163 216.686 27.335 216.686 25.85C216.686 24.437 215.912 23.537 214.787 23.537C213.662 23.537 212.915 24.419 212.915 25.85ZM219.473 29V22.7H222.119C223.433 22.7 224.423 23.258 224.423 24.59C224.423 25.958 223.388 26.48 222.119 26.48H220.652V29H219.473ZM220.652 25.481H222.119C222.875 25.481 223.208 25.139 223.208 24.59C223.208 24.041 222.893 23.699 222.119 23.699H220.652V25.481ZM228.334 29.162C226.723 29.162 225.769 28.235 225.769 26.597V22.7H226.957V26.417C226.957 27.587 227.434 28.163 228.334 28.163C229.225 28.163 229.711 27.569 229.711 26.417V22.7H230.89V26.597C230.89 28.235 229.936 29.162 228.334 29.162ZM232.752 29V22.7H233.931V28.001H237.099V29H232.752ZM237.758 29L240.35 22.7H241.7L244.292 29H242.969L242.339 27.281H239.657L239.018 29H237.758ZM240.026 26.282H241.97L241.25 24.32C241.151 24.059 241.079 23.852 241.007 23.591C240.926 23.852 240.836 24.068 240.746 24.32L240.026 26.282ZM245.478 29V22.7H248.268C249.447 22.7 250.302 23.258 250.302 24.356C250.302 25.22 249.699 25.715 249.096 25.895C249.816 26.021 250.203 26.543 250.203 27.353V29H249.015V27.461C249.015 26.714 248.745 26.444 247.98 26.444H246.657V29H245.478ZM246.657 25.436H248.043C248.736 25.436 249.087 25.139 249.087 24.572C249.087 24.005 248.736 23.699 248.043 23.699H246.657V25.436Z" fill="#872D99"/>
<path d="M17.306 68.252C14.394 68.252 12.532 66.362 12.532 63.03C12.532 59.88 14.632 57.948 17.404 57.948C19.798 57.948 21.52 59.32 21.772 61.644H19.868C19.686 60.37 18.846 59.502 17.404 59.502C15.668 59.502 14.422 60.832 14.422 63.03C14.422 65.312 15.654 66.698 17.362 66.698C18.818 66.698 19.784 65.76 19.98 64.458H21.814C21.576 66.726 19.938 68.252 17.306 68.252ZM25.0555 68.252C23.8655 68.252 22.7035 67.468 22.7035 66.124C22.7035 64.584 23.8935 64.052 25.3635 63.856L26.3435 63.73C26.9035 63.66 27.0995 63.45 27.0995 63.114C27.0995 62.638 26.7075 62.218 25.9795 62.218C25.1815 62.218 24.6775 62.666 24.6075 63.38H22.8435C22.9555 61.952 24.1175 60.944 25.8815 60.944C27.9675 60.944 28.8075 62.064 28.8075 63.982V68H27.2255V67.72C27.2255 67.496 27.2535 67.286 27.2955 67.062C26.9315 67.734 26.2315 68.252 25.0555 68.252ZM24.4395 66.054C24.4395 66.656 24.9155 66.992 25.5175 66.992C26.4275 66.992 27.1555 66.32 27.1555 65.354V64.612C27.0015 64.752 26.7635 64.822 26.3435 64.906L25.7835 65.018C24.9855 65.172 24.4395 65.438 24.4395 66.054ZM30.4637 68V61.168H32.1717V61.476C32.1717 61.686 32.1577 61.924 32.1157 62.148C32.4517 61.546 33.0817 60.944 34.0897 60.944C34.9437 60.944 35.6297 61.602 35.8817 62.218C36.2737 61.56 37.0997 60.944 38.0937 60.944C39.4797 60.944 40.4457 62.036 40.4457 63.702V68H38.7377V63.954C38.7377 62.96 38.3457 62.302 37.6037 62.302C36.8617 62.302 36.3017 62.988 36.3017 64.024V68H34.5937V63.954C34.5937 62.96 34.2297 62.302 33.4597 62.302C32.7177 62.302 32.1717 62.96 32.1717 64.024V68H30.4637ZM42.1258 70.856V61.168H43.8338V61.476C43.8338 61.686 43.8198 61.868 43.7778 62.148C44.2118 61.42 44.9398 60.944 46.0178 60.944C47.8238 60.944 49.0138 62.456 49.0138 64.626C49.0138 66.838 47.6838 68.252 45.9478 68.252C44.7998 68.252 44.2118 67.762 43.7778 67.062C43.8198 67.342 43.8338 67.524 43.8338 67.72V70.856H42.1258ZM43.7638 64.598C43.7638 65.97 44.4918 66.908 45.5278 66.908C46.5778 66.908 47.2778 65.97 47.2778 64.598C47.2778 63.254 46.6198 62.302 45.5278 62.302C44.5058 62.302 43.7638 63.184 43.7638 64.598ZM52.3583 68.252C51.1683 68.252 50.0063 67.468 50.0063 66.124C50.0063 64.584 51.1963 64.052 52.6663 63.856L53.6463 63.73C54.2063 63.66 54.4023 63.45 54.4023 63.114C54.4023 62.638 54.0103 62.218 53.2823 62.218C52.4843 62.218 51.9803 62.666 51.9103 63.38H50.1463C50.2583 61.952 51.4203 60.944 53.1843 60.944C55.2703 60.944 56.1103 62.064 56.1103 63.982V68H54.5283V67.72C54.5283 67.496 54.5563 67.286 54.5983 67.062C54.2343 67.734 53.5343 68.252 52.3583 68.252ZM51.7423 66.054C51.7423 66.656 52.2183 66.992 52.8203 66.992C53.7303 66.992 54.4583 66.32 54.4583 65.354V64.612C54.3043 64.752 54.0663 64.822 53.6463 64.906L53.0863 65.018C52.2883 65.172 51.7423 65.438 51.7423 66.054ZM57.7664 68V61.168H59.4744V68H57.7664ZM57.7384 60.132V58.34H59.5164V60.132H57.7384ZM64.2918 71.108C62.2758 71.108 61.1278 70.03 61.1278 68.476H62.8638C62.8918 69.288 63.4098 69.764 64.3338 69.764C65.2298 69.764 65.9858 69.232 65.9858 68.21V67.468C65.9858 67.16 65.9998 66.88 66.0418 66.614C65.6358 67.23 64.9778 67.748 63.9138 67.748C62.1358 67.748 60.8478 66.502 60.8478 64.346C60.8478 62.218 62.3318 60.944 63.8298 60.944C65.0338 60.944 65.6358 61.434 66.0418 62.148C65.9998 61.91 65.9858 61.728 65.9858 61.476V61.168H67.6938V67.79C67.6938 70.03 66.3078 71.108 64.2918 71.108ZM62.5838 64.346C62.5838 65.536 63.3118 66.39 64.3478 66.39C65.3558 66.39 66.0838 65.536 66.0838 64.346C66.0838 63.156 65.3558 62.302 64.3478 62.302C63.3118 62.302 62.5838 63.156 62.5838 64.346ZM69.4285 68V61.168H71.1365V61.476C71.1365 61.672 71.1225 61.882 71.0805 62.148C71.4585 61.462 72.1025 60.944 73.1805 60.944C74.6925 60.944 75.5885 62.008 75.5885 63.688V68H73.8805V63.94C73.8805 62.932 73.3905 62.302 72.5925 62.302C71.7525 62.302 71.1365 63.044 71.1365 63.996V68H69.4285ZM80.412 68V58.2H84.556C86.446 58.2 87.902 58.9 87.902 60.678C87.902 61.896 87.006 62.554 85.998 62.82C87.286 63.086 88.196 63.884 88.196 65.186C88.196 67.272 86.334 68 84.36 68H80.412ZM82.218 66.446H84.43C85.704 66.446 86.306 65.956 86.306 65.046C86.306 64.066 85.704 63.66 84.43 63.66H82.218V66.446ZM82.218 62.148H84.332C85.508 62.148 86.012 61.686 86.012 60.902C86.012 60.174 85.508 59.754 84.332 59.754H82.218V62.148ZM89.5809 68V61.168H91.2889V61.686C91.2889 61.938 91.2749 62.148 91.2329 62.4C91.5969 61.63 92.2129 60.944 93.2349 60.944C93.3749 60.944 93.4869 60.958 93.5989 60.986V62.638C93.4869 62.61 93.3329 62.582 93.1089 62.582C92.0589 62.582 91.2889 63.114 91.2889 64.612V68H89.5809ZM94.6532 68V61.168H96.3612V68H94.6532ZM94.6252 60.132V58.34H96.4032V60.132H94.6252ZM101.192 68.252C99.1485 68.252 97.7065 66.936 97.7065 64.57C97.7065 62.414 99.1485 60.944 101.136 60.944C103.222 60.944 104.426 62.4 104.426 64.626V65.004H99.4565C99.4705 66.082 100.156 66.908 101.192 66.908C101.934 66.908 102.536 66.488 102.648 65.774H104.384C104.244 67.174 103.04 68.252 101.192 68.252ZM99.4425 63.772H102.676C102.648 62.848 102.046 62.218 101.122 62.218C100.198 62.218 99.5405 62.876 99.4425 63.772ZM106.386 68V62.526H105.028V61.168H106.386V60.384C106.386 58.76 107.268 57.948 108.584 57.948C109.018 57.948 109.326 58.018 109.494 58.074V59.418C109.382 59.376 109.214 59.348 109.018 59.348C108.5 59.348 108.094 59.642 108.094 60.244V61.168H109.522V62.526H108.094V68H106.386Z" fill="#0E0E0E"/>
<path d="M13.008 88V79.6H15.756C18.528 79.6 20.232 80.932 20.232 83.8C20.232 86.344 18.744 88 15.9 88H13.008ZM14.34 86.872H15.78C17.676 86.872 18.864 85.948 18.864 83.8C18.864 81.844 17.868 80.716 15.756 80.716H14.34V86.872ZM21.5582 88V82.18H22.8062V82.528C22.8062 82.756 22.8062 82.972 22.7822 83.188C23.0822 82.528 23.6702 81.988 24.5462 81.988C24.6422 81.988 24.7382 81.988 24.8342 82.012V83.224C24.7502 83.212 24.6302 83.188 24.4622 83.188C23.4542 83.188 22.8062 83.728 22.8062 85.012V88H21.5582ZM27.3983 88.192C26.3423 88.192 25.3943 87.52 25.3943 86.404C25.3943 85.18 26.3543 84.688 27.4943 84.532L28.5383 84.376C28.9943 84.316 29.1503 84.148 29.1503 83.824C29.1503 83.308 28.7423 82.936 28.0943 82.936C27.3023 82.936 26.8583 83.368 26.8223 84.028H25.5503C25.6103 82.888 26.5223 81.988 28.0103 81.988C29.6183 81.988 30.3863 82.888 30.3863 84.376V88H29.2223V87.736C29.2223 87.556 29.2343 87.388 29.2463 87.208C28.9463 87.796 28.3343 88.192 27.3983 88.192ZM26.6783 86.368C26.6783 86.932 27.1223 87.256 27.6743 87.256C28.5263 87.256 29.1743 86.656 29.1743 85.768V85.024C29.0783 85.144 28.8623 85.216 28.5143 85.276L27.8543 85.408C27.1703 85.54 26.6783 85.804 26.6783 86.368ZM32.3984 88V83.188H31.2704V82.18H32.3984V81.304C32.3984 80.044 33.1544 79.396 34.1624 79.396C34.4744 79.396 34.7264 79.456 34.8464 79.504V80.512C34.7504 80.488 34.6064 80.464 34.4624 80.464C33.9704 80.464 33.6464 80.752 33.6464 81.28V82.18H34.8584V83.188H33.6464V88H32.3984ZM38.2417 88.096C37.1857 88.096 36.4657 87.58 36.4657 86.284V83.188H35.2537V82.18H36.4657V80.164H37.7137V82.18H39.0337V83.188H37.7137V86.116C37.7137 86.764 38.0017 87.052 38.5657 87.052C38.7097 87.052 38.8537 87.04 39.0097 87.016V88.012C38.8297 88.06 38.5417 88.096 38.2417 88.096ZM44.5546 88.192C43.4986 88.192 42.5506 87.52 42.5506 86.404C42.5506 85.18 43.5106 84.688 44.6506 84.532L45.6946 84.376C46.1506 84.316 46.3066 84.148 46.3066 83.824C46.3066 83.308 45.8986 82.936 45.2506 82.936C44.4586 82.936 44.0146 83.368 43.9786 84.028H42.7066C42.7666 82.888 43.6786 81.988 45.1666 81.988C46.7746 81.988 47.5426 82.888 47.5426 84.376V88H46.3786V87.736C46.3786 87.556 46.3906 87.388 46.4026 87.208C46.1026 87.796 45.4906 88.192 44.5546 88.192ZM43.8346 86.368C43.8346 86.932 44.2786 87.256 44.8306 87.256C45.6826 87.256 46.3306 86.656 46.3306 85.768V85.024C46.2346 85.144 46.0186 85.216 45.6706 85.276L45.0106 85.408C44.3266 85.54 43.8346 85.804 43.8346 86.368ZM54.3488 88.192C52.6328 88.192 51.4328 87.076 51.4328 85.084C51.4328 83.188 52.7288 81.988 54.4088 81.988C55.9448 81.988 56.9168 82.912 57.0488 84.256H55.7768C55.7048 83.548 55.2368 82.972 54.3968 82.972C53.4128 82.972 52.7048 83.812 52.7048 85.084C52.7048 86.356 53.3768 87.22 54.3848 87.22C55.2608 87.22 55.7528 86.668 55.8488 85.912H57.0968C56.9408 87.28 56.0048 88.192 54.3488 88.192ZM60.8645 88.192C59.1485 88.192 57.9485 86.992 57.9485 85.096C57.9485 83.236 59.1605 81.988 60.8645 81.988C62.5805 81.988 63.7925 83.236 63.7925 85.096C63.7925 86.992 62.5805 88.192 60.8645 88.192ZM59.2205 85.096C59.2205 86.392 59.8565 87.22 60.8645 87.22C61.8725 87.22 62.5205 86.392 62.5205 85.096C62.5205 83.776 61.8605 82.972 60.8645 82.972C59.8805 82.972 59.2205 83.776 59.2205 85.096ZM65.0816 88V82.18H66.3296V82.54C66.3296 82.684 66.3296 82.84 66.3056 82.984C66.6296 82.444 67.1936 81.988 67.9976 81.988C68.7416 81.988 69.3656 82.456 69.6416 83.104C70.0016 82.48 70.6856 81.988 71.5256 81.988C72.7016 81.988 73.5536 82.816 73.5536 84.328V88H72.3056V84.532C72.3056 83.56 71.9696 82.972 71.2136 82.972C70.4336 82.972 69.9416 83.668 69.9416 84.568V88H68.6936V84.556C68.6936 83.572 68.3696 82.972 67.6136 82.972C66.8456 82.972 66.3296 83.656 66.3296 84.592V88H65.0816ZM75.1246 90.472V82.18H76.3726V82.516C76.3726 82.672 76.3726 82.816 76.3486 82.996C76.6966 82.42 77.3686 81.988 78.2686 81.988C79.8766 81.988 80.8846 83.284 80.8846 85.096C80.8846 86.968 79.7686 88.192 78.2206 88.192C77.3206 88.192 76.7206 87.784 76.3486 87.196C76.3726 87.388 76.3726 87.544 76.3726 87.712V90.472H75.1246ZM76.3126 85.084C76.3126 86.356 76.9966 87.22 77.9686 87.22C78.9526 87.22 79.6006 86.344 79.6006 85.084C79.6006 83.848 78.9646 82.972 77.9686 82.972C77.0086 82.972 76.3126 83.788 76.3126 85.084ZM82.1558 88V82.18H83.4038V82.528C83.4038 82.756 83.4038 82.972 83.3798 83.188C83.6798 82.528 84.2678 81.988 85.1438 81.988C85.2398 81.988 85.3358 81.988 85.4318 82.012V83.224C85.3478 83.212 85.2278 83.188 85.0598 83.188C84.0518 83.188 83.4038 83.728 83.4038 85.012V88H82.1558ZM88.8483 88.192C87.1083 88.192 85.9563 87.088 85.9563 85.072C85.9563 83.26 87.1563 81.988 88.8003 81.988C90.5523 81.988 91.5483 83.212 91.5483 85.096V85.36H87.2163C87.2403 86.488 87.9123 87.22 88.8603 87.22C89.5323 87.22 90.1203 86.896 90.2403 86.152H91.5003C91.3803 87.256 90.4683 88.192 88.8483 88.192ZM87.2283 84.472H90.2403C90.2283 83.56 89.6883 82.936 88.7883 82.936C87.9123 82.936 87.3123 83.596 87.2283 84.472ZM92.8433 88V79.6H94.0913V82.456C94.0913 82.624 94.0913 82.792 94.0673 82.984C94.3913 82.42 95.0033 81.988 95.8553 81.988C97.1753 81.988 97.9553 82.864 97.9553 84.328V88H96.7073V84.496C96.7073 83.524 96.3113 82.972 95.5073 82.972C94.6553 82.972 94.0913 83.68 94.0913 84.544V88H92.8433ZM102.067 88.192C100.327 88.192 99.175 87.088 99.175 85.072C99.175 83.26 100.375 81.988 102.019 81.988C103.771 81.988 104.767 83.212 104.767 85.096V85.36H100.435C100.459 86.488 101.131 87.22 102.079 87.22C102.751 87.22 103.339 86.896 103.459 86.152H104.719C104.599 87.256 103.687 88.192 102.067 88.192ZM100.447 84.472H103.459C103.447 83.56 102.907 82.936 102.007 82.936C101.131 82.936 100.531 83.596 100.447 84.472ZM106.062 88V82.18H107.31V82.504C107.31 82.66 107.298 82.804 107.286 82.984C107.598 82.444 108.222 81.988 109.074 81.988C110.394 81.988 111.174 82.864 111.174 84.328V88H109.926V84.496C109.926 83.524 109.542 82.972 108.738 82.972C107.874 82.972 107.31 83.68 107.31 84.544V88H106.062ZM114.926 88.192C113.318 88.192 112.358 87.34 112.298 86.032H113.546C113.582 86.776 114.062 87.244 114.914 87.244C115.646 87.244 116.126 86.908 116.126 86.392C116.126 85.972 115.802 85.732 115.142 85.6L114.35 85.444C113.198 85.228 112.502 84.664 112.502 83.728C112.502 82.732 113.45 81.988 114.83 81.988C116.306 81.988 117.218 82.732 117.278 83.932H116.03C115.97 83.296 115.514 82.936 114.794 82.936C114.17 82.936 113.738 83.212 113.738 83.668C113.738 84.076 114.026 84.28 114.722 84.412L115.526 84.568C116.618 84.784 117.35 85.3 117.35 86.296C117.35 87.376 116.426 88.192 114.926 88.192ZM118.648 88V82.18H119.896V88H118.648ZM118.6 81.184V79.804H119.956V81.184H118.6ZM123.043 88L120.835 82.18H122.179L123.559 86.2C123.655 86.452 123.703 86.632 123.763 86.86C123.823 86.632 123.883 86.452 123.967 86.2L125.323 82.18H126.619L124.447 88H123.043ZM129.981 88.192C128.241 88.192 127.089 87.088 127.089 85.072C127.089 83.26 128.289 81.988 129.933 81.988C131.685 81.988 132.681 83.212 132.681 85.096V85.36H128.349C128.373 86.488 129.045 87.22 129.993 87.22C130.665 87.22 131.253 86.896 131.373 86.152H132.633C132.513 87.256 131.601 88.192 129.981 88.192ZM128.361 84.472H131.373C131.361 83.56 130.821 82.936 129.921 82.936C129.045 82.936 128.445 83.596 128.361 84.472ZM136.66 90.472V82.18H137.908V82.516C137.908 82.672 137.908 82.816 137.884 82.996C138.232 82.42 138.904 81.988 139.804 81.988C141.412 81.988 142.42 83.284 142.42 85.096C142.42 86.968 141.304 88.192 139.756 88.192C138.856 88.192 138.256 87.784 137.884 87.196C137.908 87.388 137.908 87.544 137.908 87.712V90.472H136.66ZM137.848 85.084C137.848 86.356 138.532 87.22 139.504 87.22C140.488 87.22 141.136 86.344 141.136 85.084C141.136 83.848 140.5 82.972 139.504 82.972C138.544 82.972 137.848 83.788 137.848 85.084ZM143.691 88V79.6H144.939V88H143.691ZM148.254 88.192C147.198 88.192 146.25 87.52 146.25 86.404C146.25 85.18 147.21 84.688 148.35 84.532L149.394 84.376C149.85 84.316 150.006 84.148 150.006 83.824C150.006 83.308 149.598 82.936 148.95 82.936C148.158 82.936 147.714 83.368 147.678 84.028H146.406C146.466 82.888 147.378 81.988 148.866 81.988C150.474 81.988 151.242 82.888 151.242 84.376V88H150.078V87.736C150.078 87.556 150.09 87.388 150.102 87.208C149.802 87.796 149.19 88.192 148.254 88.192ZM147.534 86.368C147.534 86.932 147.978 87.256 148.53 87.256C149.382 87.256 150.03 86.656 150.03 85.768V85.024C149.934 85.144 149.718 85.216 149.37 85.276L148.71 85.408C148.026 85.54 147.534 85.804 147.534 86.368ZM152.796 88V82.18H154.044V82.504C154.044 82.66 154.032 82.804 154.02 82.984C154.332 82.444 154.956 81.988 155.808 81.988C157.128 81.988 157.908 82.864 157.908 84.328V88H156.66V84.496C156.66 83.524 156.276 82.972 155.472 82.972C154.608 82.972 154.044 83.68 154.044 84.544V88H152.796ZM163.136 88L161.3 82.18H162.608L163.772 86.308C163.82 86.488 163.868 86.68 163.904 86.872C163.952 86.668 164 86.476 164.048 86.308L165.164 82.18H166.784L167.936 86.308C167.984 86.476 168.032 86.656 168.068 86.86C168.116 86.656 168.152 86.476 168.212 86.296L169.364 82.18H170.588L168.788 88H167.288L166.112 83.812C166.076 83.656 166.028 83.464 165.98 83.236C165.944 83.464 165.896 83.644 165.836 83.812L164.672 88H163.136ZM171.558 88V82.18H172.806V88H171.558ZM171.51 81.184V79.804H172.866V81.184H171.51ZM176.769 88.096C175.713 88.096 174.993 87.58 174.993 86.284V83.188H173.781V82.18H174.993V80.164H176.241V82.18H177.561V83.188H176.241V86.116C176.241 86.764 176.529 87.052 177.093 87.052C177.237 87.052 177.381 87.04 177.537 87.016V88.012C177.357 88.06 177.069 88.096 176.769 88.096ZM178.718 88V79.6H179.966V82.456C179.966 82.624 179.966 82.792 179.942 82.984C180.266 82.42 180.878 81.988 181.73 81.988C183.05 81.988 183.83 82.864 183.83 84.328V88H182.582V84.496C182.582 83.524 182.186 82.972 181.382 82.972C180.53 82.972 179.966 83.68 179.966 84.544V88H178.718ZM190.614 90.664C188.982 90.664 187.998 89.776 187.998 88.48H189.246C189.258 89.212 189.774 89.692 190.638 89.692C191.562 89.692 192.21 89.176 192.21 88.12V87.448C192.21 87.256 192.222 87.076 192.234 86.896C191.91 87.448 191.262 87.856 190.374 87.856C188.814 87.856 187.746 86.752 187.746 84.928C187.746 83.128 188.958 81.988 190.362 81.988C191.358 81.988 191.91 82.444 192.234 82.984C192.222 82.816 192.21 82.648 192.21 82.468V82.18H193.458V87.76C193.458 89.716 192.402 90.664 190.614 90.664ZM189.03 84.928C189.03 86.092 189.702 86.872 190.662 86.872C191.61 86.872 192.294 86.08 192.294 84.928C192.294 83.788 191.61 82.972 190.662 82.972C189.702 82.972 189.03 83.776 189.03 84.928ZM197.657 88.192C195.941 88.192 194.741 86.992 194.741 85.096C194.741 83.236 195.953 81.988 197.657 81.988C199.373 81.988 200.585 83.236 200.585 85.096C200.585 86.992 199.373 88.192 197.657 88.192ZM196.013 85.096C196.013 86.392 196.649 87.22 197.657 87.22C198.665 87.22 199.313 86.392 199.313 85.096C199.313 83.776 198.653 82.972 197.657 82.972C196.673 82.972 196.013 83.776 196.013 85.096ZM203.555 88.192C202.499 88.192 201.551 87.52 201.551 86.404C201.551 85.18 202.511 84.688 203.651 84.532L204.695 84.376C205.151 84.316 205.307 84.148 205.307 83.824C205.307 83.308 204.899 82.936 204.251 82.936C203.459 82.936 203.015 83.368 202.979 84.028H201.707C201.767 82.888 202.679 81.988 204.167 81.988C205.775 81.988 206.543 82.888 206.543 84.376V88H205.379V87.736C205.379 87.556 205.391 87.388 205.403 87.208C205.103 87.796 204.491 88.192 203.555 88.192ZM202.835 86.368C202.835 86.932 203.279 87.256 203.831 87.256C204.683 87.256 205.331 86.656 205.331 85.768V85.024C205.235 85.144 205.019 85.216 204.671 85.276L204.011 85.408C203.327 85.54 202.835 85.804 202.835 86.368ZM208.097 88V79.6H209.345V88H208.097ZM213.164 88.192C211.556 88.192 210.596 87.34 210.536 86.032H211.784C211.82 86.776 212.3 87.244 213.152 87.244C213.884 87.244 214.364 86.908 214.364 86.392C214.364 85.972 214.04 85.732 213.38 85.6L212.588 85.444C211.436 85.228 210.74 84.664 210.74 83.728C210.74 82.732 211.688 81.988 213.068 81.988C214.544 81.988 215.456 82.732 215.516 83.932H214.268C214.208 83.296 213.752 82.936 213.032 82.936C212.408 82.936 211.976 83.212 211.976 83.668C211.976 84.076 212.264 84.28 212.96 84.412L213.764 84.568C214.856 84.784 215.588 85.3 215.588 86.296C215.588 87.376 214.664 88.192 213.164 88.192ZM221.25 88.192C220.194 88.192 219.246 87.52 219.246 86.404C219.246 85.18 220.206 84.688 221.346 84.532L222.39 84.376C222.846 84.316 223.002 84.148 223.002 83.824C223.002 83.308 222.594 82.936 221.946 82.936C221.154 82.936 220.71 83.368 220.674 84.028H219.402C219.462 82.888 220.374 81.988 221.862 81.988C223.47 81.988 224.238 82.888 224.238 84.376V88H223.074V87.736C223.074 87.556 223.086 87.388 223.098 87.208C222.798 87.796 222.186 88.192 221.25 88.192ZM220.53 86.368C220.53 86.932 220.974 87.256 221.526 87.256C222.378 87.256 223.026 86.656 223.026 85.768V85.024C222.93 85.144 222.714 85.216 222.366 85.276L221.706 85.408C221.022 85.54 220.53 85.804 220.53 86.368ZM225.793 88V82.18H227.041V82.504C227.041 82.66 227.029 82.804 227.017 82.984C227.329 82.444 227.953 81.988 228.805 81.988C230.125 81.988 230.905 82.864 230.905 84.328V88H229.657V84.496C229.657 83.524 229.273 82.972 228.469 82.972C227.605 82.972 227.041 83.68 227.041 84.544V88H225.793ZM234.8 88.192C233.264 88.192 232.124 87.112 232.124 85.096C232.124 83.176 233.312 81.988 234.824 81.988C235.76 81.988 236.36 82.48 236.66 82.984C236.636 82.804 236.636 82.636 236.636 82.468V79.6H237.884V88H236.636V87.712C236.636 87.52 236.636 87.364 236.66 87.196C236.384 87.676 235.772 88.192 234.8 88.192ZM233.408 85.096C233.408 86.38 234.092 87.22 235.064 87.22C236.012 87.22 236.708 86.368 236.708 85.084C236.708 83.8 236.024 82.972 235.064 82.972C234.104 82.972 233.408 83.836 233.408 85.096ZM15.144 104.192C13.608 104.192 12.468 103.112 12.468 101.096C12.468 99.176 13.656 97.988 15.168 97.988C16.104 97.988 16.704 98.48 17.004 98.984C16.98 98.804 16.98 98.636 16.98 98.468V95.6H18.228V104H16.98V103.712C16.98 103.52 16.98 103.364 17.004 103.196C16.728 103.676 16.116 104.192 15.144 104.192ZM13.752 101.096C13.752 102.38 14.436 103.22 15.408 103.22C16.356 103.22 17.052 102.368 17.052 101.084C17.052 99.8 16.368 98.972 15.408 98.972C14.448 98.972 13.752 99.836 13.752 101.096ZM22.403 104.192C20.663 104.192 19.511 103.088 19.511 101.072C19.511 99.26 20.711 97.988 22.355 97.988C24.107 97.988 25.103 99.212 25.103 101.096V101.36H20.771C20.795 102.488 21.467 103.22 22.415 103.22C23.087 103.22 23.675 102.896 23.795 102.152H25.055C24.935 103.256 24.023 104.192 22.403 104.192ZM20.783 100.472H23.795C23.783 99.56 23.243 98.936 22.343 98.936C21.467 98.936 20.867 99.596 20.783 100.472ZM26.398 104V95.6H27.646V104H26.398ZM29.2808 104V98.18H30.5288V104H29.2808ZM29.2328 97.184V95.804H30.5888V97.184H29.2328ZM33.6757 104L31.4677 98.18H32.8117L34.1917 102.2C34.2877 102.452 34.3357 102.632 34.3957 102.86C34.4557 102.632 34.5157 102.452 34.5997 102.2L35.9557 98.18H37.2517L35.0797 104H33.6757ZM40.6139 104.192C38.8739 104.192 37.7219 103.088 37.7219 101.072C37.7219 99.26 38.9219 97.988 40.5659 97.988C42.3179 97.988 43.3139 99.212 43.3139 101.096V101.36H38.9819C39.0059 102.488 39.6779 103.22 40.6259 103.22C41.2979 103.22 41.8859 102.896 42.0059 102.152H43.2659C43.1459 103.256 42.2339 104.192 40.6139 104.192ZM38.9939 100.472H42.0059C41.9939 99.56 41.4539 98.936 40.5539 98.936C39.6779 98.936 39.0779 99.596 38.9939 100.472ZM44.609 104V98.18H45.857V98.528C45.857 98.756 45.857 98.972 45.833 99.188C46.133 98.528 46.721 97.988 47.597 97.988C47.693 97.988 47.789 97.988 47.885 98.012V99.224C47.801 99.212 47.681 99.188 47.513 99.188C46.505 99.188 45.857 99.728 45.857 101.012V104H44.609ZM50.4491 104.192C49.3931 104.192 48.4451 103.52 48.4451 102.404C48.4451 101.18 49.4051 100.688 50.5451 100.532L51.5891 100.376C52.0451 100.316 52.2011 100.148 52.2011 99.824C52.2011 99.308 51.7931 98.936 51.1451 98.936C50.3531 98.936 49.9091 99.368 49.8731 100.028H48.6011C48.6611 98.888 49.5731 97.988 51.0611 97.988C52.6691 97.988 53.4371 98.888 53.4371 100.376V104H52.2731V103.736C52.2731 103.556 52.2851 103.388 52.2971 103.208C51.9971 103.796 51.3851 104.192 50.4491 104.192ZM49.7291 102.368C49.7291 102.932 50.1731 103.256 50.7251 103.256C51.5771 103.256 52.2251 102.656 52.2251 101.768V101.024C52.1291 101.144 51.9131 101.216 51.5651 101.276L50.9051 101.408C50.2211 101.54 49.7291 101.804 49.7291 102.368ZM58.0998 104.192C57.2118 104.192 56.5518 103.772 56.2158 103.196C56.2398 103.388 56.2398 103.544 56.2398 103.724V104H54.9918V95.6H56.2398V98.468C56.2398 98.648 56.2278 98.816 56.2158 98.984C56.5878 98.42 57.2118 97.988 58.0998 97.988C59.6478 97.988 60.7638 99.236 60.7638 101.096C60.7638 102.992 59.6718 104.192 58.0998 104.192ZM56.1678 101.096C56.1678 102.356 56.8518 103.22 57.8238 103.22C58.8078 103.22 59.4798 102.356 59.4798 101.096C59.4798 99.848 58.8078 98.972 57.8238 98.972C56.8518 98.972 56.1678 99.8 56.1678 101.096ZM62.023 104V95.6H63.271V104H62.023ZM67.4498 104.192C65.7098 104.192 64.5578 103.088 64.5578 101.072C64.5578 99.26 65.7578 97.988 67.4018 97.988C69.1538 97.988 70.1498 99.212 70.1498 101.096V101.36H65.8178C65.8418 102.488 66.5138 103.22 67.4618 103.22C68.1338 103.22 68.7218 102.896 68.8418 102.152H70.1018C69.9818 103.256 69.0698 104.192 67.4498 104.192ZM65.8298 100.472H68.8418C68.8298 99.56 68.2898 98.936 67.3898 98.936C66.5138 98.936 65.9138 99.596 65.8298 100.472ZM73.6289 104.192C72.0209 104.192 71.0609 103.34 71.0009 102.032H72.2489C72.2849 102.776 72.7649 103.244 73.6169 103.244C74.3489 103.244 74.8289 102.908 74.8289 102.392C74.8289 101.972 74.5049 101.732 73.8449 101.6L73.0529 101.444C71.9009 101.228 71.2049 100.664 71.2049 99.728C71.2049 98.732 72.1529 97.988 73.5329 97.988C75.0089 97.988 75.9209 98.732 75.9809 99.932H74.7329C74.6729 99.296 74.2169 98.936 73.4969 98.936C72.8729 98.936 72.4409 99.212 72.4409 99.668C72.4409 100.076 72.7289 100.28 73.4249 100.412L74.2289 100.568C75.3209 100.784 76.0529 101.3 76.0529 102.296C76.0529 103.376 75.1289 104.192 73.6289 104.192ZM80.5508 104V99.188H79.4228V98.18H80.5508V97.304C80.5508 96.044 81.3068 95.396 82.3148 95.396C82.6268 95.396 82.8788 95.456 82.9988 95.504V96.512C82.9028 96.488 82.7588 96.464 82.6148 96.464C82.1228 96.464 81.7988 96.752 81.7988 97.28V98.18H83.0108V99.188H81.7988V104H80.5508ZM86.4582 104.192C84.7422 104.192 83.5422 102.992 83.5422 101.096C83.5422 99.236 84.7542 97.988 86.4582 97.988C88.1742 97.988 89.3862 99.236 89.3862 101.096C89.3862 102.992 88.1742 104.192 86.4582 104.192ZM84.8142 101.096C84.8142 102.392 85.4502 103.22 86.4582 103.22C87.4662 103.22 88.1142 102.392 88.1142 101.096C88.1142 99.776 87.4542 98.972 86.4582 98.972C85.4742 98.972 84.8142 99.776 84.8142 101.096ZM90.6754 104V98.18H91.9234V98.528C91.9234 98.756 91.9234 98.972 91.8994 99.188C92.1994 98.528 92.7874 97.988 93.6634 97.988C93.7594 97.988 93.8554 97.988 93.9514 98.012V99.224C93.8674 99.212 93.7474 99.188 93.5794 99.188C92.5714 99.188 91.9234 99.728 91.9234 101.012V104H90.6754ZM99.0233 104.192C97.9673 104.192 97.0193 103.52 97.0193 102.404C97.0193 101.18 97.9793 100.688 99.1193 100.532L100.163 100.376C100.619 100.316 100.775 100.148 100.775 99.824C100.775 99.308 100.367 98.936 99.7193 98.936C98.9273 98.936 98.4833 99.368 98.4473 100.028H97.1753C97.2353 98.888 98.1473 97.988 99.6353 97.988C101.243 97.988 102.011 98.888 102.011 100.376V104H100.847V103.736C100.847 103.556 100.859 103.388 100.871 103.208C100.571 103.796 99.9593 104.192 99.0233 104.192ZM98.3033 102.368C98.3033 102.932 98.7473 103.256 99.2993 103.256C100.151 103.256 100.799 102.656 100.799 101.768V101.024C100.703 101.144 100.487 101.216 100.139 101.276L99.4793 101.408C98.7953 101.54 98.3033 101.804 98.3033 102.368ZM106.25 104V98.18H107.498V98.54C107.498 98.684 107.498 98.84 107.474 98.984C107.798 98.444 108.362 97.988 109.166 97.988C109.91 97.988 110.534 98.456 110.81 99.104C111.17 98.48 111.854 97.988 112.694 97.988C113.87 97.988 114.722 98.816 114.722 100.328V104H113.474V100.532C113.474 99.56 113.138 98.972 112.382 98.972C111.602 98.972 111.11 99.668 111.11 100.568V104H109.862V100.556C109.862 99.572 109.538 98.972 108.782 98.972C108.014 98.972 107.498 99.656 107.498 100.592V104H106.25ZM117.973 104.192C116.917 104.192 115.969 103.52 115.969 102.404C115.969 101.18 116.929 100.688 118.069 100.532L119.113 100.376C119.569 100.316 119.725 100.148 119.725 99.824C119.725 99.308 119.317 98.936 118.669 98.936C117.877 98.936 117.433 99.368 117.397 100.028H116.125C116.185 98.888 117.097 97.988 118.585 97.988C120.193 97.988 120.961 98.888 120.961 100.376V104H119.797V103.736C119.797 103.556 119.809 103.388 119.821 103.208C119.521 103.796 118.909 104.192 117.973 104.192ZM117.253 102.368C117.253 102.932 117.697 103.256 118.249 103.256C119.101 103.256 119.749 102.656 119.749 101.768V101.024C119.653 101.144 119.437 101.216 119.089 101.276L118.429 101.408C117.745 101.54 117.253 101.804 117.253 102.368ZM122.515 104V98.18H123.763V98.528C123.763 98.756 123.763 98.972 123.739 99.188C124.039 98.528 124.627 97.988 125.503 97.988C125.599 97.988 125.695 97.988 125.791 98.012V99.224C125.707 99.212 125.587 99.188 125.419 99.188C124.411 99.188 123.763 99.728 123.763 101.012V104H122.515ZM126.781 104V95.6H128.029V100.568C128.161 100.4 128.329 100.22 128.473 100.076L130.297 98.18H131.893L129.421 100.652L132.145 104H130.513L128.581 101.492L128.029 102.044V104H126.781ZM135.161 104.192C133.421 104.192 132.269 103.088 132.269 101.072C132.269 99.26 133.469 97.988 135.113 97.988C136.865 97.988 137.861 99.212 137.861 101.096V101.36H133.529C133.553 102.488 134.225 103.22 135.173 103.22C135.845 103.22 136.433 102.896 136.553 102.152H137.813C137.693 103.256 136.781 104.192 135.161 104.192ZM133.541 100.472H136.553C136.541 99.56 136.001 98.936 135.101 98.936C134.225 98.936 133.625 99.596 133.541 100.472ZM141.39 104.096C140.334 104.096 139.614 103.58 139.614 102.284V99.188H138.402V98.18H139.614V96.164H140.862V98.18H142.182V99.188H140.862V102.116C140.862 102.764 141.15 103.052 141.714 103.052C141.858 103.052 142.002 103.04 142.158 103.016V104.012C141.978 104.06 141.69 104.096 141.39 104.096ZM143.339 104V98.18H144.587V104H143.339ZM143.291 97.184V95.804H144.647V97.184H143.291ZM146.222 104V98.18H147.47V98.504C147.47 98.66 147.458 98.804 147.446 98.984C147.758 98.444 148.382 97.988 149.234 97.988C150.554 97.988 151.334 98.864 151.334 100.328V104H150.086V100.496C150.086 99.524 149.702 98.972 148.898 98.972C148.034 98.972 147.47 99.68 147.47 100.544V104H146.222ZM155.434 106.664C153.802 106.664 152.818 105.776 152.818 104.48H154.066C154.078 105.212 154.594 105.692 155.458 105.692C156.382 105.692 157.03 105.176 157.03 104.12V103.448C157.03 103.256 157.042 103.076 157.054 102.896C156.73 103.448 156.082 103.856 155.194 103.856C153.634 103.856 152.566 102.752 152.566 100.928C152.566 99.128 153.778 97.988 155.182 97.988C156.178 97.988 156.73 98.444 157.054 98.984C157.042 98.816 157.03 98.648 157.03 98.468V98.18H158.278V103.76C158.278 105.716 157.222 106.664 155.434 106.664ZM153.85 100.928C153.85 102.092 154.522 102.872 155.482 102.872C156.43 102.872 157.114 102.08 157.114 100.928C157.114 99.788 156.43 98.972 155.482 98.972C154.522 98.972 153.85 99.776 153.85 100.928ZM165.161 104.192C163.445 104.192 162.245 103.076 162.245 101.084C162.245 99.188 163.541 97.988 165.221 97.988C166.757 97.988 167.729 98.912 167.861 100.256H166.589C166.517 99.548 166.049 98.972 165.209 98.972C164.225 98.972 163.517 99.812 163.517 101.084C163.517 102.356 164.189 103.22 165.197 103.22C166.073 103.22 166.565 102.668 166.661 101.912H167.909C167.753 103.28 166.817 104.192 165.161 104.192ZM170.789 104.192C169.733 104.192 168.785 103.52 168.785 102.404C168.785 101.18 169.745 100.688 170.885 100.532L171.929 100.376C172.385 100.316 172.541 100.148 172.541 99.824C172.541 99.308 172.133 98.936 171.485 98.936C170.693 98.936 170.249 99.368 170.213 100.028H168.941C169.001 98.888 169.913 97.988 171.401 97.988C173.009 97.988 173.777 98.888 173.777 100.376V104H172.613V103.736C172.613 103.556 172.625 103.388 172.637 103.208C172.337 103.796 171.725 104.192 170.789 104.192ZM170.069 102.368C170.069 102.932 170.513 103.256 171.065 103.256C171.917 103.256 172.565 102.656 172.565 101.768V101.024C172.469 101.144 172.253 101.216 171.905 101.276L171.245 101.408C170.561 101.54 170.069 101.804 170.069 102.368ZM175.332 104V98.18H176.58V98.54C176.58 98.684 176.58 98.84 176.556 98.984C176.88 98.444 177.444 97.988 178.248 97.988C178.992 97.988 179.616 98.456 179.892 99.104C180.252 98.48 180.936 97.988 181.776 97.988C182.952 97.988 183.804 98.816 183.804 100.328V104H182.556V100.532C182.556 99.56 182.22 98.972 181.464 98.972C180.684 98.972 180.192 99.668 180.192 100.568V104H178.944V100.556C178.944 99.572 178.62 98.972 177.864 98.972C177.096 98.972 176.58 99.656 176.58 100.592V104H175.332ZM185.375 106.472V98.18H186.623V98.516C186.623 98.672 186.623 98.816 186.599 98.996C186.947 98.42 187.619 97.988 188.519 97.988C190.127 97.988 191.135 99.284 191.135 101.096C191.135 102.968 190.019 104.192 188.471 104.192C187.571 104.192 186.971 103.784 186.599 103.196C186.623 103.388 186.623 103.544 186.623 103.712V106.472H185.375ZM186.563 101.084C186.563 102.356 187.247 103.22 188.219 103.22C189.203 103.22 189.851 102.344 189.851 101.084C189.851 99.848 189.215 98.972 188.219 98.972C187.259 98.972 186.563 99.788 186.563 101.084ZM194.086 104.192C193.03 104.192 192.082 103.52 192.082 102.404C192.082 101.18 193.042 100.688 194.182 100.532L195.226 100.376C195.682 100.316 195.838 100.148 195.838 99.824C195.838 99.308 195.43 98.936 194.782 98.936C193.99 98.936 193.546 99.368 193.51 100.028H192.238C192.298 98.888 193.21 97.988 194.698 97.988C196.306 97.988 197.074 98.888 197.074 100.376V104H195.91V103.736C195.91 103.556 195.922 103.388 195.934 103.208C195.634 103.796 195.022 104.192 194.086 104.192ZM193.366 102.368C193.366 102.932 193.81 103.256 194.362 103.256C195.214 103.256 195.862 102.656 195.862 101.768V101.024C195.766 101.144 195.55 101.216 195.202 101.276L194.542 101.408C193.858 101.54 193.366 101.804 193.366 102.368ZM198.629 104V98.18H199.877V104H198.629ZM198.581 97.184V95.804H199.937V97.184H198.581ZM204.043 106.664C202.411 106.664 201.427 105.776 201.427 104.48H202.675C202.687 105.212 203.203 105.692 204.067 105.692C204.991 105.692 205.639 105.176 205.639 104.12V103.448C205.639 103.256 205.651 103.076 205.663 102.896C205.339 103.448 204.691 103.856 203.803 103.856C202.243 103.856 201.175 102.752 201.175 100.928C201.175 99.128 202.387 97.988 203.791 97.988C204.787 97.988 205.339 98.444 205.663 98.984C205.651 98.816 205.639 98.648 205.639 98.468V98.18H206.887V103.76C206.887 105.716 205.831 106.664 204.043 106.664ZM202.459 100.928C202.459 102.092 203.131 102.872 204.091 102.872C205.039 102.872 205.723 102.08 205.723 100.928C205.723 99.788 205.039 98.972 204.091 98.972C203.131 98.972 202.459 99.776 202.459 100.928ZM208.519 104V98.18H209.767V98.504C209.767 98.66 209.755 98.804 209.743 98.984C210.055 98.444 210.679 97.988 211.531 97.988C212.851 97.988 213.631 98.864 213.631 100.328V104H212.383V100.496C212.383 99.524 211.999 98.972 211.195 98.972C210.331 98.972 209.767 99.68 209.767 100.544V104H208.519Z" fill="#464134"/>
</g>
<path d="M0.5 16C0.5 7.43959 7.43959 0.5 16 0.5H253C261.56 0.5 268.5 7.43959 268.5 16V131C268.5 139.56 261.56 146.5 253 146.5H16C7.43958 146.5 0.5 139.56 0.5 131V16Z" stroke="#EEECE8"/>
<defs>
<clipPath id="clip0_3431_25033">
<path d="M0 16C0 7.16345 7.16344 0 16 0H253C261.837 0 269 7.16344 269 16V131C269 139.837 261.837 147 253 147H16C7.16344 147 0 139.837 0 131V16Z" fill="white"/>
</clipPath>
<clipPath id="clip1_3431_25033">
<rect width="16" height="16" fill="white" transform="translate(18 18)"/>
</clipPath>
</defs>
</svg>
