<svg width="269" height="159" viewBox="0 0 269 159" fill="none" xmlns="http://www.w3.org/2000/svg">
<g clip-path="url(#clip0_3457_93138)">
<path d="M0 16C0 7.16344 7.16344 0 16 0H253C261.837 0 269 7.16344 269 16V143C269 151.837 261.837 159 253 159H16C7.16344 159 0 151.837 0 143V16Z" fill="#FAFAFA"/>
<path d="M26 9C16.6112 9 9 16.6112 9 26C9 35.3888 16.6112 43 26 43C35.3888 43 43 35.3888 43 26C43 16.6112 35.3888 9 26 9Z" fill="#DEDDFD"/>
<path d="M26 9C16.6112 9 9 16.6112 9 26C9 35.3888 16.6112 43 26 43C35.3888 43 43 35.3888 43 26C43 16.6112 35.3888 9 26 9Z" stroke="#FAFAFA" stroke-width="6"/>
<path d="M22.6667 32.6667H21.9167C21.9167 32.955 22.0819 33.2178 22.3418 33.3426C22.6016 33.4675 22.9101 33.4324 23.1352 33.2523L22.6667 32.6667ZM26 30V29.25H25.7369L25.5315 29.4143L26 30ZM22.6667 30H23.4167V29.25H22.6667V30ZM31.782 28.908L32.4503 29.2485L31.782 28.908ZM30.908 29.782L31.2485 30.4503L30.908 29.782ZM30.908 20.218L31.2485 19.5497V19.5497L30.908 20.218ZM31.782 21.092L32.4503 20.7515L31.782 21.092ZM20.0681 28.5176L20.7926 28.3235L20.0681 28.5176ZM21.4824 29.9319L21.6765 29.2074L21.4824 29.9319ZM21.092 20.218L20.7515 19.5497V19.5497L21.092 20.218ZM20.218 21.092L19.5497 20.7515L20.218 21.092ZM25.9979 23.1328L25.431 23.6238L25.9979 24.2785L26.5649 23.6238L25.9979 23.1328ZM23.3793 25.3327L23.9687 24.8689L23.3793 25.3327ZM25.9979 27.8333L25.5079 28.4011L25.9979 28.824L26.4879 28.4011L25.9979 27.8333ZM23.2 20.75H28.8V19.25H23.2V20.75ZM31.25 23.2V26.8H32.75V23.2H31.25ZM28.8 29.25H26V30.75H28.8V29.25ZM25.5315 29.4143L22.1981 32.081L23.1352 33.2523L26.4685 30.5857L25.5315 29.4143ZM20.75 27.3333V23.2H19.25V27.3333H20.75ZM23.4167 32.6667V30H21.9167V32.6667H23.4167ZM31.25 26.8C31.25 27.3724 31.2494 27.7566 31.2252 28.0525C31.2018 28.3396 31.1599 28.4769 31.1138 28.5675L32.4503 29.2485C32.6221 28.9112 32.6892 28.5546 32.7203 28.1747C32.7506 27.8035 32.75 27.3477 32.75 26.8H31.25ZM28.8 30.75C29.3477 30.75 29.8035 30.7506 30.1747 30.7203C30.5546 30.6892 30.9112 30.6221 31.2485 30.4503L30.5675 29.1138C30.4769 29.1599 30.3396 29.2018 30.0525 29.2252C29.7566 29.2494 29.3724 29.25 28.8 29.25V30.75ZM31.1138 28.5675C30.9939 28.8027 30.8027 28.9939 30.5675 29.1138L31.2485 30.4503C31.7659 30.1866 32.1866 29.7659 32.4503 29.2485L31.1138 28.5675ZM28.8 20.75C29.3724 20.75 29.7566 20.7506 30.0525 20.7748C30.3396 20.7982 30.4769 20.8401 30.5675 20.8862L31.2485 19.5497C30.9112 19.3779 30.5546 19.3108 30.1747 19.2797C29.8035 19.2494 29.3477 19.25 28.8 19.25V20.75ZM32.75 23.2C32.75 22.6523 32.7506 22.1965 32.7203 21.8253C32.6892 21.4454 32.6221 21.0888 32.4503 20.7515L31.1138 21.4325C31.1599 21.5231 31.2018 21.6604 31.2252 21.9475C31.2494 22.2434 31.25 22.6276 31.25 23.2H32.75ZM30.5675 20.8862C30.8027 21.0061 30.9939 21.1973 31.1138 21.4325L32.4503 20.7515C32.1866 20.2341 31.7659 19.8134 31.2485 19.5497L30.5675 20.8862ZM19.25 27.3333C19.25 27.905 19.2436 28.338 19.3437 28.7118L20.7926 28.3235C20.7564 28.1886 20.75 28.0016 20.75 27.3333H19.25ZM22.6667 29.25C21.9984 29.25 21.8114 29.2436 21.6765 29.2074L21.2882 30.6563C21.662 30.7564 22.095 30.75 22.6667 30.75V29.25ZM19.3437 28.7118C19.598 29.6608 20.3392 30.402 21.2882 30.6563L21.6765 29.2074C21.2451 29.0918 20.9082 28.7549 20.7926 28.3235L19.3437 28.7118ZM23.2 19.25C22.6523 19.25 22.1965 19.2494 21.8253 19.2797C21.4454 19.3108 21.0888 19.3779 20.7515 19.5497L21.4325 20.8862C21.5231 20.8401 21.6604 20.7982 21.9475 20.7748C22.2434 20.7506 22.6276 20.75 23.2 20.75V19.25ZM20.75 23.2C20.75 22.6276 20.7506 22.2434 20.7748 21.9475C20.7982 21.6604 20.8401 21.5231 20.8862 21.4325L19.5497 20.7515C19.3779 21.0888 19.3108 21.4454 19.2797 21.8253C19.2494 22.1965 19.25 22.6523 19.25 23.2H20.75ZM20.7515 19.5497C20.2341 19.8134 19.8134 20.2341 19.5497 20.7515L20.8862 21.4325C21.0061 21.1973 21.1973 21.0061 21.4325 20.8862L20.7515 19.5497ZM26.5649 22.6418C25.7433 21.6932 24.2801 21.3721 23.1627 22.315L24.1301 23.4613C24.5158 23.1359 25.053 23.1873 25.431 23.6238L26.5649 22.6418ZM23.1627 22.315C22.107 23.2059 21.9459 24.724 22.7898 25.7965L23.9687 24.8689C23.6322 24.4414 23.6828 23.8388 24.1301 23.4613L23.1627 22.315ZM29.206 25.7965C30.0432 24.7325 29.912 23.2005 28.8253 22.3085L27.8736 23.4679C28.3159 23.8309 28.3704 24.4328 28.0272 24.8689L29.206 25.7965ZM28.8253 22.3085C27.7029 21.387 26.2582 21.6868 25.431 22.6418L26.5649 23.6238C26.9373 23.1938 27.4672 23.1343 27.8736 23.4679L28.8253 22.3085ZM22.7898 25.7965C23.13 26.2288 23.8337 26.8962 24.4037 27.4177C24.6984 27.6873 24.974 27.9327 25.1757 28.1106C25.2767 28.1996 25.3593 28.2719 25.4169 28.3221C25.4457 28.3472 25.4683 28.3668 25.4837 28.3802C25.4915 28.3869 25.4974 28.392 25.5015 28.3956C25.5035 28.3973 25.5051 28.3987 25.5062 28.3996C25.5067 28.4001 25.5071 28.4004 25.5074 28.4007C25.5076 28.4008 25.5077 28.4009 25.5078 28.401C25.5078 28.401 25.5079 28.4011 25.5079 28.4011C25.5079 28.4011 25.5079 28.4011 25.9979 27.8333C26.4879 27.2655 26.488 27.2655 26.488 27.2655C26.488 27.2655 26.4879 27.2655 26.4879 27.2655C26.4879 27.2655 26.4878 27.2654 26.4877 27.2653C26.4875 27.2652 26.4872 27.2649 26.4868 27.2645C26.4859 27.2638 26.4846 27.2626 26.4827 27.261C26.4791 27.2579 26.4736 27.2531 26.4663 27.2468C26.4517 27.2342 26.4301 27.2154 26.4023 27.1912C26.3467 27.1427 26.2663 27.0724 26.1678 26.9856C25.9708 26.8118 25.7023 26.5727 25.4161 26.3109C24.8244 25.7696 24.2186 25.1866 23.9687 24.8689L22.7898 25.7965ZM25.9979 27.8333C26.4879 28.4011 26.488 28.4011 26.488 28.4011C26.488 28.4011 26.4881 28.401 26.4881 28.401C26.4882 28.4009 26.4883 28.4008 26.4885 28.4007C26.4888 28.4004 26.4892 28.4001 26.4897 28.3996C26.4908 28.3987 26.4924 28.3973 26.4944 28.3956C26.4985 28.392 26.5044 28.3869 26.5121 28.3802C26.5276 28.3668 26.5501 28.3472 26.5789 28.3221C26.6366 28.2719 26.7192 28.1996 26.8202 28.1106C27.0219 27.9327 27.2975 27.6873 27.5922 27.4177C28.1622 26.8962 28.8659 26.2288 29.206 25.7965L28.0272 24.8689C27.7772 25.1866 27.1715 25.7696 26.5797 26.3109C26.2936 26.5727 26.0251 26.8118 25.8281 26.9856C25.7296 27.0724 25.6492 27.1427 25.5936 27.1912C25.5658 27.2154 25.5442 27.2342 25.5296 27.2468C25.5223 27.2531 25.5168 27.2579 25.5132 27.261C25.5113 27.2626 25.51 27.2638 25.5091 27.2645C25.5087 27.2649 25.5084 27.2652 25.5082 27.2653C25.5081 27.2654 25.508 27.2655 25.508 27.2655C25.5079 27.2655 25.5079 27.2655 25.5079 27.2655C25.5079 27.2655 25.5079 27.2655 25.9979 27.8333Z" fill="#0E0E0E"/>
<path d="M159 21C159 18.7909 160.791 17 163 17H191C193.209 17 195 18.7909 195 21V31C195 33.2091 193.209 35 191 35H163C160.791 35 159 33.2091 159 31V21Z" fill="#B3F4C4"/>
<path d="M165.693 29V22.7H167.466L170.184 27.443C170.157 27.173 170.148 26.831 170.148 26.498V22.7H171.327V29H169.779L166.836 23.861C166.872 24.221 166.872 24.464 166.872 24.743V29H165.693ZM173.255 29V22.7H177.638V23.699H174.434V25.238H177.503V26.246H174.434V28.001H177.773V29H173.255ZM180.42 29L178.764 22.7H180.078L181.041 26.822C181.131 27.191 181.203 27.506 181.284 27.947C181.356 27.506 181.428 27.191 181.518 26.822L182.562 22.7H184.263L185.226 26.822C185.316 27.191 185.397 27.524 185.478 27.947C185.55 27.506 185.613 27.191 185.703 26.822L186.702 22.7H187.944L186.288 29H184.65L183.606 24.518C183.561 24.32 183.489 24.05 183.426 23.645C183.345 24.05 183.282 24.32 183.228 24.518L182.058 29H180.42Z" fill="#285535"/>
<path d="M199 21C199 18.7909 200.791 17 203 17H253C255.209 17 257 18.7909 257 21V31C257 33.2091 255.209 35 253 35H203C200.791 35 199 33.2091 199 31V21Z" fill="#E7D0F2"/>
<path d="M205.693 29V22.7H208.339C209.653 22.7 210.643 23.258 210.643 24.59C210.643 25.958 209.608 26.48 208.339 26.48H206.872V29H205.693ZM206.872 25.481H208.339C209.095 25.481 209.428 25.139 209.428 24.59C209.428 24.041 209.113 23.699 208.339 23.699H206.872V25.481ZM214.787 29.162C213.023 29.162 211.7 27.965 211.7 25.85C211.7 23.825 213.023 22.538 214.787 22.538C216.551 22.538 217.901 23.852 217.901 25.85C217.901 27.956 216.551 29.162 214.787 29.162ZM212.915 25.85C212.915 27.317 213.671 28.163 214.787 28.163C215.903 28.163 216.686 27.335 216.686 25.85C216.686 24.437 215.912 23.537 214.787 23.537C213.662 23.537 212.915 24.419 212.915 25.85ZM219.473 29V22.7H222.119C223.433 22.7 224.423 23.258 224.423 24.59C224.423 25.958 223.388 26.48 222.119 26.48H220.652V29H219.473ZM220.652 25.481H222.119C222.875 25.481 223.208 25.139 223.208 24.59C223.208 24.041 222.893 23.699 222.119 23.699H220.652V25.481ZM228.334 29.162C226.723 29.162 225.769 28.235 225.769 26.597V22.7H226.957V26.417C226.957 27.587 227.434 28.163 228.334 28.163C229.225 28.163 229.711 27.569 229.711 26.417V22.7H230.89V26.597C230.89 28.235 229.936 29.162 228.334 29.162ZM232.752 29V22.7H233.931V28.001H237.099V29H232.752ZM237.758 29L240.35 22.7H241.7L244.292 29H242.969L242.339 27.281H239.657L239.018 29H237.758ZM240.026 26.282H241.97L241.25 24.32C241.151 24.059 241.079 23.852 241.007 23.591C240.926 23.852 240.836 24.068 240.746 24.32L240.026 26.282ZM245.478 29V22.7H248.268C249.447 22.7 250.302 23.258 250.302 24.356C250.302 25.22 249.699 25.715 249.096 25.895C249.816 26.021 250.203 26.543 250.203 27.353V29H249.015V27.461C249.015 26.714 248.745 26.444 247.98 26.444H246.657V29H245.478ZM246.657 25.436H248.043C248.736 25.436 249.087 25.139 249.087 24.572C249.087 24.005 248.736 23.699 248.043 23.699H246.657V25.436Z" fill="#872D99"/>
<path d="M16.69 68.252C14.058 68.252 12.518 66.824 12.364 64.64H14.268C14.366 65.998 15.472 66.698 16.774 66.698C17.866 66.698 18.734 66.306 18.734 65.354C18.734 64.612 18.202 64.206 17.124 63.996L15.458 63.674C13.918 63.38 12.714 62.47 12.714 60.902C12.714 59.166 14.324 57.948 16.536 57.948C19 57.948 20.358 59.264 20.47 61.168H18.566C18.524 60.258 17.88 59.488 16.452 59.488C15.36 59.488 14.548 59.936 14.548 60.748C14.548 61.504 15.206 61.77 16.2 61.966L17.852 62.288C19.378 62.582 20.582 63.45 20.582 65.088C20.582 66.922 19.21 68.252 16.69 68.252ZM25.1498 68.252C23.0918 68.252 21.6498 66.88 21.6498 64.612C21.6498 62.372 23.1058 60.944 25.1498 60.944C27.2078 60.944 28.6638 62.372 28.6638 64.612C28.6638 66.88 27.2078 68.252 25.1498 68.252ZM23.3858 64.612C23.3858 66.068 24.0858 66.908 25.1498 66.908C26.2138 66.908 26.9278 66.068 26.9278 64.612C26.9278 63.128 26.1998 62.302 25.1498 62.302C24.1138 62.302 23.3858 63.128 23.3858 64.612ZM33.0785 68.252C30.9085 68.252 29.6205 66.852 29.6205 64.584C29.6205 62.302 31.1745 60.944 33.1625 60.944C35.1505 60.944 36.2285 62.148 36.3965 63.744H34.6605C34.6045 62.974 34.1285 62.302 33.1625 62.302C32.1685 62.302 31.3565 63.114 31.3565 64.598C31.3565 65.956 32.0705 66.908 33.1205 66.908C34.1565 66.908 34.6465 66.208 34.7305 65.396H36.4665C36.2285 67.132 35.1085 68.252 33.0785 68.252ZM37.7098 68V61.168H39.4178V68H37.7098ZM37.6818 60.132V58.34H39.4598V60.132H37.6818ZM43.1571 68.252C41.9671 68.252 40.8051 67.468 40.8051 66.124C40.8051 64.584 41.9951 64.052 43.4651 63.856L44.4451 63.73C45.0051 63.66 45.2011 63.45 45.2011 63.114C45.2011 62.638 44.8091 62.218 44.0811 62.218C43.2831 62.218 42.7791 62.666 42.7091 63.38H40.9451C41.0571 61.952 42.2191 60.944 43.9831 60.944C46.0691 60.944 46.9091 62.064 46.9091 63.982V68H45.3271V67.72C45.3271 67.496 45.3551 67.286 45.3971 67.062C45.0331 67.734 44.3331 68.252 43.1571 68.252ZM42.5411 66.054C42.5411 66.656 43.0171 66.992 43.6191 66.992C44.5291 66.992 45.2571 66.32 45.2571 65.354V64.612C45.1031 64.752 44.8651 64.822 44.4451 64.906L43.8851 65.018C43.0871 65.172 42.5411 65.438 42.5411 66.054ZM48.5653 68V58.2H50.2733V68H48.5653ZM55.16 68V58.2H58.086L60.578 65.284C60.69 65.62 60.774 65.9 60.83 66.18C60.9 65.9 60.956 65.62 61.082 65.284L63.476 58.2H66.374V68H64.61V61.406C64.61 60.902 64.61 60.426 64.638 60.006L61.95 68H59.71L56.868 60.006C56.896 60.44 56.91 60.902 56.91 61.406V68H55.16ZM71.3331 68.252C69.2891 68.252 67.8471 66.936 67.8471 64.57C67.8471 62.414 69.2891 60.944 71.2771 60.944C73.3631 60.944 74.5671 62.4 74.5671 64.626V65.004H69.5971C69.6111 66.082 70.2971 66.908 71.3331 66.908C72.0751 66.908 72.6771 66.488 72.7891 65.774H74.5251C74.3851 67.174 73.1811 68.252 71.3331 68.252ZM69.5831 63.772H72.8171C72.7891 62.848 72.1871 62.218 71.2631 62.218C70.3391 62.218 69.6811 62.876 69.5831 63.772ZM78.6804 68.252C76.8744 68.252 75.5584 67.02 75.5584 64.612C75.5584 62.162 77.1124 60.944 78.7084 60.944C79.7724 60.944 80.4304 61.49 80.8224 62.148C80.7664 61.896 80.7664 61.686 80.7664 61.476V58.2H82.4744V68H80.7664V67.72C80.7664 67.482 80.7664 67.3 80.8224 67.062C80.5564 67.566 79.9404 68.252 78.6804 68.252ZM77.2944 64.598C77.2944 66.012 78.0644 66.908 79.0864 66.908C80.1084 66.908 80.8644 65.97 80.8644 64.598C80.8644 63.198 80.1084 62.302 79.0864 62.302C78.0644 62.302 77.2944 63.24 77.2944 64.598ZM84.2078 68V61.168H85.9158V68H84.2078ZM84.1798 60.132V58.34H85.9578V60.132H84.1798ZM89.6552 68.252C88.4652 68.252 87.3032 67.468 87.3032 66.124C87.3032 64.584 88.4932 64.052 89.9632 63.856L90.9432 63.73C91.5032 63.66 91.6992 63.45 91.6992 63.114C91.6992 62.638 91.3072 62.218 90.5792 62.218C89.7812 62.218 89.2772 62.666 89.2072 63.38H87.4432C87.5552 61.952 88.7172 60.944 90.4812 60.944C92.5672 60.944 93.4072 62.064 93.4072 63.982V68H91.8252V67.72C91.8252 67.496 91.8532 67.286 91.8952 67.062C91.5312 67.734 90.8312 68.252 89.6552 68.252ZM89.0392 66.054C89.0392 66.656 89.5152 66.992 90.1172 66.992C91.0272 66.992 91.7552 66.32 91.7552 65.354V64.612C91.6012 64.752 91.3632 64.822 90.9432 64.906L90.3832 65.018C89.5852 65.172 89.0392 65.438 89.0392 66.054ZM102.441 68.252C99.5288 68.252 97.6668 66.362 97.6668 63.03C97.6668 59.88 99.7668 57.948 102.539 57.948C104.933 57.948 106.655 59.32 106.907 61.644H105.003C104.821 60.37 103.981 59.502 102.539 59.502C100.803 59.502 99.5568 60.832 99.5568 63.03C99.5568 65.312 100.789 66.698 102.497 66.698C103.953 66.698 104.919 65.76 105.115 64.458H106.949C106.711 66.726 105.073 68.252 102.441 68.252ZM110.19 68.252C109 68.252 107.838 67.468 107.838 66.124C107.838 64.584 109.028 64.052 110.498 63.856L111.478 63.73C112.038 63.66 112.234 63.45 112.234 63.114C112.234 62.638 111.842 62.218 111.114 62.218C110.316 62.218 109.812 62.666 109.742 63.38H107.978C108.09 61.952 109.252 60.944 111.016 60.944C113.102 60.944 113.942 62.064 113.942 63.982V68H112.36V67.72C112.36 67.496 112.388 67.286 112.43 67.062C112.066 67.734 111.366 68.252 110.19 68.252ZM109.574 66.054C109.574 66.656 110.05 66.992 110.652 66.992C111.562 66.992 112.29 66.32 112.29 65.354V64.612C112.136 64.752 111.898 64.822 111.478 64.906L110.918 65.018C110.12 65.172 109.574 65.438 109.574 66.054ZM115.598 68V61.168H117.306V61.476C117.306 61.686 117.292 61.924 117.25 62.148C117.586 61.546 118.216 60.944 119.224 60.944C120.078 60.944 120.764 61.602 121.016 62.218C121.408 61.56 122.234 60.944 123.228 60.944C124.614 60.944 125.58 62.036 125.58 63.702V68H123.872V63.954C123.872 62.96 123.48 62.302 122.738 62.302C121.996 62.302 121.436 62.988 121.436 64.024V68H119.728V63.954C119.728 62.96 119.364 62.302 118.594 62.302C117.852 62.302 117.306 62.96 117.306 64.024V68H115.598ZM127.261 70.856V61.168H128.969V61.476C128.969 61.686 128.955 61.868 128.913 62.148C129.347 61.42 130.075 60.944 131.153 60.944C132.959 60.944 134.149 62.456 134.149 64.626C134.149 66.838 132.819 68.252 131.083 68.252C129.935 68.252 129.347 67.762 128.913 67.062C128.955 67.342 128.969 67.524 128.969 67.72V70.856H127.261ZM128.899 64.598C128.899 65.97 129.627 66.908 130.663 66.908C131.713 66.908 132.413 65.97 132.413 64.598C132.413 63.254 131.755 62.302 130.663 62.302C129.641 62.302 128.899 63.184 128.899 64.598ZM137.493 68.252C136.303 68.252 135.141 67.468 135.141 66.124C135.141 64.584 136.331 64.052 137.801 63.856L138.781 63.73C139.341 63.66 139.537 63.45 139.537 63.114C139.537 62.638 139.145 62.218 138.417 62.218C137.619 62.218 137.115 62.666 137.045 63.38H135.281C135.393 61.952 136.555 60.944 138.319 60.944C140.405 60.944 141.245 62.064 141.245 63.982V68H139.663V67.72C139.663 67.496 139.691 67.286 139.733 67.062C139.369 67.734 138.669 68.252 137.493 68.252ZM136.877 66.054C136.877 66.656 137.353 66.992 137.955 66.992C138.865 66.992 139.593 66.32 139.593 65.354V64.612C139.439 64.752 139.201 64.822 138.781 64.906L138.221 65.018C137.423 65.172 136.877 65.438 136.877 66.054ZM142.901 68V61.168H144.609V68H142.901ZM142.873 60.132V58.34H144.651V60.132H142.873ZM149.427 71.108C147.411 71.108 146.263 70.03 146.263 68.476H147.999C148.027 69.288 148.545 69.764 149.469 69.764C150.365 69.764 151.121 69.232 151.121 68.21V67.468C151.121 67.16 151.135 66.88 151.177 66.614C150.771 67.23 150.113 67.748 149.049 67.748C147.271 67.748 145.983 66.502 145.983 64.346C145.983 62.218 147.467 60.944 148.965 60.944C150.169 60.944 150.771 61.434 151.177 62.148C151.135 61.91 151.121 61.728 151.121 61.476V61.168H152.829V67.79C152.829 70.03 151.443 71.108 149.427 71.108ZM147.719 64.346C147.719 65.536 148.447 66.39 149.483 66.39C150.491 66.39 151.219 65.536 151.219 64.346C151.219 63.156 150.491 62.302 149.483 62.302C148.447 62.302 147.719 63.156 147.719 64.346ZM154.563 68V61.168H156.271V61.476C156.271 61.672 156.257 61.882 156.215 62.148C156.593 61.462 157.237 60.944 158.315 60.944C159.827 60.944 160.723 62.008 160.723 63.688V68H159.015V63.94C159.015 62.932 158.525 62.302 157.727 62.302C156.887 62.302 156.271 63.044 156.271 63.996V68H154.563Z" fill="#0E0E0E"/>
<path d="M12 88L15.408 79.6H16.968L20.388 88H18.9L18 85.6H14.328L13.416 88H12ZM14.748 84.484H17.58L16.452 81.496C16.344 81.208 16.26 80.968 16.164 80.692C16.08 80.968 15.972 81.22 15.876 81.496L14.748 84.484ZM21.2066 88V82.18H22.4546V82.54C22.4546 82.684 22.4546 82.84 22.4306 82.984C22.7546 82.444 23.3186 81.988 24.1226 81.988C24.8666 81.988 25.4906 82.456 25.7666 83.104C26.1266 82.48 26.8106 81.988 27.6506 81.988C28.8266 81.988 29.6786 82.816 29.6786 84.328V88H28.4306V84.532C28.4306 83.56 28.0946 82.972 27.3386 82.972C26.5586 82.972 26.0666 83.668 26.0666 84.568V88H24.8186V84.556C24.8186 83.572 24.4946 82.972 23.7386 82.972C22.9706 82.972 22.4546 83.656 22.4546 84.592V88H21.2066ZM31.2496 90.472V82.18H32.4976V82.516C32.4976 82.672 32.4976 82.816 32.4736 82.996C32.8216 82.42 33.4936 81.988 34.3936 81.988C36.0016 81.988 37.0096 83.284 37.0096 85.096C37.0096 86.968 35.8936 88.192 34.3456 88.192C33.4456 88.192 32.8456 87.784 32.4736 87.196C32.4976 87.388 32.4976 87.544 32.4976 87.712V90.472H31.2496ZM32.4376 85.084C32.4376 86.356 33.1216 87.22 34.0936 87.22C35.0776 87.22 35.7256 86.344 35.7256 85.084C35.7256 83.848 35.0896 82.972 34.0936 82.972C33.1336 82.972 32.4376 83.788 32.4376 85.084ZM38.2808 88V79.6H39.5288V88H38.2808ZM41.1637 88V82.18H42.4117V88H41.1637ZM41.1157 81.184V79.804H42.4717V81.184H41.1157ZM44.5625 88V83.188H43.4345V82.18H44.5625V81.304C44.5625 80.044 45.3185 79.396 46.3265 79.396C46.6385 79.396 46.8905 79.456 47.0105 79.504V80.512C46.9145 80.488 46.7705 80.464 46.6265 80.464C46.1345 80.464 45.8105 80.752 45.8105 81.28V82.18H47.0225V83.188H45.8105V88H44.5625ZM48.6191 90.472L49.6271 87.868L47.3231 82.18H48.7151L50.0591 85.912C50.1311 86.128 50.2151 86.356 50.2871 86.62C50.3591 86.356 50.4311 86.128 50.5031 85.912L51.7391 82.18H53.0471L49.9511 90.472H48.6191ZM56.8574 90.472L57.8654 87.868L55.5614 82.18H56.9534L58.2974 85.912C58.3694 86.128 58.4534 86.356 58.5254 86.62C58.5974 86.356 58.6694 86.128 58.7414 85.912L59.9774 82.18H61.2854L58.1894 90.472H56.8574ZM64.6379 88.192C62.9219 88.192 61.7219 86.992 61.7219 85.096C61.7219 83.236 62.9339 81.988 64.6379 81.988C66.3539 81.988 67.5659 83.236 67.5659 85.096C67.5659 86.992 66.3539 88.192 64.6379 88.192ZM62.9939 85.096C62.9939 86.392 63.6299 87.22 64.6379 87.22C65.6459 87.22 66.2939 86.392 66.2939 85.096C66.2939 83.776 65.6339 82.972 64.6379 82.972C63.6539 82.972 62.9939 83.776 62.9939 85.096ZM70.8831 88.192C69.6231 88.192 68.7951 87.388 68.7951 85.876V82.18H70.0431V85.66C70.0431 86.62 70.4151 87.208 71.2431 87.208C72.0831 87.208 72.6111 86.572 72.6111 85.516V82.18H73.8591V88H72.6231V87.7C72.6231 87.532 72.6351 87.352 72.6591 87.196C72.3711 87.784 71.7591 88.192 70.8831 88.192ZM75.4879 88V82.18H76.7359V82.528C76.7359 82.756 76.7359 82.972 76.7119 83.188C77.0119 82.528 77.5999 81.988 78.4759 81.988C78.5719 81.988 78.6679 81.988 78.7639 82.012V83.224C78.6799 83.212 78.5599 83.188 78.3919 83.188C77.3839 83.188 76.7359 83.728 76.7359 85.012V88H75.4879ZM85.2638 88.192C84.3758 88.192 83.7158 87.772 83.3798 87.196C83.4038 87.388 83.4038 87.544 83.4038 87.724V88H82.1558V79.6H83.4038V82.468C83.4038 82.648 83.3918 82.816 83.3798 82.984C83.7518 82.42 84.3758 81.988 85.2638 81.988C86.8118 81.988 87.9278 83.236 87.9278 85.096C87.9278 86.992 86.8358 88.192 85.2638 88.192ZM83.3318 85.096C83.3318 86.356 84.0158 87.22 84.9878 87.22C85.9718 87.22 86.6438 86.356 86.6438 85.096C86.6438 83.848 85.9718 82.972 84.9878 82.972C84.0158 82.972 83.3318 83.8 83.3318 85.096ZM89.1871 88V82.18H90.4351V82.528C90.4351 82.756 90.4351 82.972 90.4111 83.188C90.7111 82.528 91.2991 81.988 92.1751 81.988C92.2711 81.988 92.3671 81.988 92.4631 82.012V83.224C92.3791 83.212 92.2591 83.188 92.0911 83.188C91.0831 83.188 90.4351 83.728 90.4351 85.012V88H89.1871ZM95.0273 88.192C93.9713 88.192 93.0233 87.52 93.0233 86.404C93.0233 85.18 93.9833 84.688 95.1233 84.532L96.1673 84.376C96.6233 84.316 96.7793 84.148 96.7793 83.824C96.7793 83.308 96.3713 82.936 95.7233 82.936C94.9313 82.936 94.4873 83.368 94.4513 84.028H93.1793C93.2393 82.888 94.1513 81.988 95.6393 81.988C97.2473 81.988 98.0153 82.888 98.0153 84.376V88H96.8513V87.736C96.8513 87.556 96.8633 87.388 96.8753 87.208C96.5753 87.796 95.9633 88.192 95.0273 88.192ZM94.3073 86.368C94.3073 86.932 94.7513 87.256 95.3033 87.256C96.1553 87.256 96.8033 86.656 96.8033 85.768V85.024C96.7073 85.144 96.4913 85.216 96.1433 85.276L95.4833 85.408C94.7993 85.54 94.3073 85.804 94.3073 86.368ZM99.5699 88V82.18H100.818V82.504C100.818 82.66 100.806 82.804 100.794 82.984C101.106 82.444 101.73 81.988 102.582 81.988C103.902 81.988 104.682 82.864 104.682 84.328V88H103.434V84.496C103.434 83.524 103.05 82.972 102.246 82.972C101.382 82.972 100.818 83.68 100.818 84.544V88H99.5699ZM108.578 88.192C107.042 88.192 105.902 87.112 105.902 85.096C105.902 83.176 107.09 81.988 108.602 81.988C109.538 81.988 110.138 82.48 110.438 82.984C110.414 82.804 110.414 82.636 110.414 82.468V79.6H111.662V88H110.414V87.712C110.414 87.52 110.414 87.364 110.438 87.196C110.162 87.676 109.55 88.192 108.578 88.192ZM107.186 85.096C107.186 86.38 107.87 87.22 108.842 87.22C109.79 87.22 110.486 86.368 110.486 85.084C110.486 83.8 109.802 82.972 108.842 82.972C107.882 82.972 107.186 83.836 107.186 85.096ZM117.656 88.192C116.6 88.192 115.652 87.52 115.652 86.404C115.652 85.18 116.612 84.688 117.752 84.532L118.796 84.376C119.252 84.316 119.408 84.148 119.408 83.824C119.408 83.308 119 82.936 118.352 82.936C117.56 82.936 117.116 83.368 117.08 84.028H115.808C115.868 82.888 116.78 81.988 118.268 81.988C119.876 81.988 120.644 82.888 120.644 84.376V88H119.48V87.736C119.48 87.556 119.492 87.388 119.504 87.208C119.204 87.796 118.592 88.192 117.656 88.192ZM116.936 86.368C116.936 86.932 117.38 87.256 117.932 87.256C118.784 87.256 119.432 86.656 119.432 85.768V85.024C119.336 85.144 119.12 85.216 118.772 85.276L118.112 85.408C117.428 85.54 116.936 85.804 116.936 86.368ZM122.199 88V82.18H123.447V82.504C123.447 82.66 123.435 82.804 123.423 82.984C123.735 82.444 124.359 81.988 125.211 81.988C126.531 81.988 127.311 82.864 127.311 84.328V88H126.063V84.496C126.063 83.524 125.679 82.972 124.875 82.972C124.011 82.972 123.447 83.68 123.447 84.544V88H122.199ZM131.207 88.192C129.671 88.192 128.531 87.112 128.531 85.096C128.531 83.176 129.719 81.988 131.23 81.988C132.167 81.988 132.767 82.48 133.067 82.984C133.043 82.804 133.043 82.636 133.043 82.468V79.6H134.291V88H133.043V87.712C133.043 87.52 133.043 87.364 133.067 87.196C132.791 87.676 132.179 88.192 131.207 88.192ZM129.815 85.096C129.815 86.38 130.499 87.22 131.471 87.22C132.419 87.22 133.115 86.368 133.115 85.084C133.115 83.8 132.431 82.972 131.471 82.972C130.511 82.972 129.815 83.836 129.815 85.096ZM141.149 88.192C139.409 88.192 138.257 87.088 138.257 85.072C138.257 83.26 139.457 81.988 141.101 81.988C142.853 81.988 143.849 83.212 143.849 85.096V85.36H139.517C139.541 86.488 140.213 87.22 141.161 87.22C141.833 87.22 142.421 86.896 142.541 86.152H143.801C143.681 87.256 142.769 88.192 141.149 88.192ZM139.529 84.472H142.541C142.529 83.56 141.989 82.936 141.089 82.936C140.213 82.936 139.613 83.596 139.529 84.472ZM145.144 88V82.18H146.392V82.504C146.392 82.66 146.38 82.804 146.368 82.984C146.68 82.444 147.304 81.988 148.156 81.988C149.476 81.988 150.256 82.864 150.256 84.328V88H149.008V84.496C149.008 83.524 148.624 82.972 147.82 82.972C146.956 82.972 146.392 83.68 146.392 84.544V88H145.144ZM154.356 90.664C152.724 90.664 151.74 89.776 151.74 88.48H152.988C153 89.212 153.516 89.692 154.38 89.692C155.304 89.692 155.952 89.176 155.952 88.12V87.448C155.952 87.256 155.964 87.076 155.976 86.896C155.652 87.448 155.004 87.856 154.116 87.856C152.556 87.856 151.488 86.752 151.488 84.928C151.488 83.128 152.7 81.988 154.104 81.988C155.1 81.988 155.652 82.444 155.976 82.984C155.964 82.816 155.952 82.648 155.952 82.468V82.18H157.2V87.76C157.2 89.716 156.144 90.664 154.356 90.664ZM152.772 84.928C152.772 86.092 153.444 86.872 154.404 86.872C155.352 86.872 156.036 86.08 156.036 84.928C156.036 83.788 155.352 82.972 154.404 82.972C153.444 82.972 152.772 83.776 152.772 84.928ZM160.512 88.192C159.456 88.192 158.508 87.52 158.508 86.404C158.508 85.18 159.468 84.688 160.608 84.532L161.652 84.376C162.108 84.316 162.264 84.148 162.264 83.824C162.264 83.308 161.856 82.936 161.208 82.936C160.416 82.936 159.972 83.368 159.936 84.028H158.664C158.724 82.888 159.636 81.988 161.124 81.988C162.732 81.988 163.5 82.888 163.5 84.376V88H162.336V87.736C162.336 87.556 162.348 87.388 162.36 87.208C162.06 87.796 161.448 88.192 160.512 88.192ZM159.792 86.368C159.792 86.932 160.236 87.256 160.788 87.256C161.64 87.256 162.288 86.656 162.288 85.768V85.024C162.192 85.144 161.976 85.216 161.628 85.276L160.968 85.408C160.284 85.54 159.792 85.804 159.792 86.368ZM167.586 90.664C165.954 90.664 164.97 89.776 164.97 88.48H166.218C166.23 89.212 166.746 89.692 167.61 89.692C168.534 89.692 169.182 89.176 169.182 88.12V87.448C169.182 87.256 169.194 87.076 169.206 86.896C168.882 87.448 168.234 87.856 167.346 87.856C165.786 87.856 164.718 86.752 164.718 84.928C164.718 83.128 165.93 81.988 167.334 81.988C168.33 81.988 168.882 82.444 169.206 82.984C169.194 82.816 169.182 82.648 169.182 82.468V82.18H170.43V87.76C170.43 89.716 169.374 90.664 167.586 90.664ZM166.002 84.928C166.002 86.092 166.674 86.872 167.634 86.872C168.582 86.872 169.266 86.08 169.266 84.928C169.266 83.788 168.582 82.972 167.634 82.972C166.674 82.972 166.002 83.776 166.002 84.928ZM174.606 88.192C172.866 88.192 171.714 87.088 171.714 85.072C171.714 83.26 172.914 81.988 174.558 81.988C176.31 81.988 177.306 83.212 177.306 85.096V85.36H172.974C172.998 86.488 173.67 87.22 174.618 87.22C175.29 87.22 175.878 86.896 175.998 86.152H177.258C177.138 87.256 176.226 88.192 174.606 88.192ZM172.986 84.472H175.998C175.986 83.56 175.446 82.936 174.546 82.936C173.67 82.936 173.07 83.596 172.986 84.472ZM181.801 88V83.188H180.673V82.18H181.801V81.304C181.801 80.044 182.557 79.396 183.565 79.396C183.877 79.396 184.129 79.456 184.249 79.504V80.512C184.153 80.488 184.009 80.464 183.865 80.464C183.373 80.464 183.049 80.752 183.049 81.28V82.18H184.261V83.188H183.049V88H181.801ZM187.708 88.192C185.992 88.192 184.792 86.992 184.792 85.096C184.792 83.236 186.004 81.988 187.708 81.988C189.424 81.988 190.636 83.236 190.636 85.096C190.636 86.992 189.424 88.192 187.708 88.192ZM186.064 85.096C186.064 86.392 186.7 87.22 187.708 87.22C188.716 87.22 189.364 86.392 189.364 85.096C189.364 83.776 188.704 82.972 187.708 82.972C186.724 82.972 186.064 83.776 186.064 85.096ZM191.925 88V79.6H193.173V88H191.925ZM194.808 88V79.6H196.056V88H194.808ZM200.259 88.192C198.543 88.192 197.343 86.992 197.343 85.096C197.343 83.236 198.555 81.988 200.259 81.988C201.975 81.988 203.187 83.236 203.187 85.096C203.187 86.992 201.975 88.192 200.259 88.192ZM198.615 85.096C198.615 86.392 199.251 87.22 200.259 87.22C201.267 87.22 201.915 86.392 201.915 85.096C201.915 83.776 201.255 82.972 200.259 82.972C199.275 82.972 198.615 83.776 198.615 85.096ZM205.57 88L203.734 82.18H205.042L206.206 86.308C206.254 86.488 206.302 86.68 206.338 86.872C206.386 86.668 206.434 86.476 206.482 86.308L207.598 82.18H209.218L210.37 86.308C210.418 86.476 210.466 86.656 210.502 86.86C210.55 86.656 210.586 86.476 210.646 86.296L211.798 82.18H213.022L211.222 88H209.722L208.546 83.812C208.51 83.656 208.462 83.464 208.414 83.236C208.378 83.464 208.33 83.644 208.27 83.812L207.106 88H205.57ZM216.477 88.192C214.737 88.192 213.585 87.088 213.585 85.072C213.585 83.26 214.785 81.988 216.429 81.988C218.181 81.988 219.177 83.212 219.177 85.096V85.36H214.845C214.869 86.488 215.541 87.22 216.489 87.22C217.161 87.22 217.749 86.896 217.869 86.152H219.129C219.009 87.256 218.097 88.192 216.477 88.192ZM214.857 84.472H217.869C217.857 83.56 217.317 82.936 216.417 82.936C215.541 82.936 214.941 83.596 214.857 84.472ZM220.472 88V82.18H221.72V82.528C221.72 82.756 221.72 82.972 221.696 83.188C221.996 82.528 222.584 81.988 223.46 81.988C223.556 81.988 223.652 81.988 223.748 82.012V83.224C223.664 83.212 223.544 83.188 223.376 83.188C222.368 83.188 221.72 83.728 221.72 85.012V88H220.472ZM226.863 88.192C225.255 88.192 224.295 87.34 224.235 86.032H225.483C225.519 86.776 225.999 87.244 226.851 87.244C227.583 87.244 228.063 86.908 228.063 86.392C228.063 85.972 227.739 85.732 227.079 85.6L226.287 85.444C225.135 85.228 224.439 84.664 224.439 83.728C224.439 82.732 225.387 81.988 226.767 81.988C228.243 81.988 229.155 82.732 229.215 83.932H227.967C227.907 83.296 227.451 82.936 226.731 82.936C226.107 82.936 225.675 83.212 225.675 83.668C225.675 84.076 225.963 84.28 226.659 84.412L227.463 84.568C228.555 84.784 229.287 85.3 229.287 86.296C229.287 87.376 228.363 88.192 226.863 88.192ZM13.968 104L12.132 98.18H13.44L14.604 102.308C14.652 102.488 14.7 102.68 14.736 102.872C14.784 102.668 14.832 102.476 14.88 102.308L15.996 98.18H17.616L18.768 102.308C18.816 102.476 18.864 102.656 18.9 102.86C18.948 102.656 18.984 102.476 19.044 102.296L20.196 98.18H21.42L19.62 104H18.12L16.944 99.812C16.908 99.656 16.86 99.464 16.812 99.236C16.776 99.464 16.728 99.644 16.668 99.812L15.504 104H13.968ZM22.3902 104V98.18H23.6382V104H22.3902ZM22.3422 97.184V95.804H23.6982V97.184H22.3422ZM27.601 104.096C26.545 104.096 25.825 103.58 25.825 102.284V99.188H24.613V98.18H25.825V96.164H27.073V98.18H28.393V99.188H27.073V102.116C27.073 102.764 27.361 103.052 27.925 103.052C28.069 103.052 28.213 103.04 28.369 103.016V104.012C28.189 104.06 27.901 104.096 27.601 104.096ZM29.5504 104V95.6H30.7984V98.456C30.7984 98.624 30.7984 98.792 30.7744 98.984C31.0984 98.42 31.7104 97.988 32.5624 97.988C33.8824 97.988 34.6624 98.864 34.6624 100.328V104H33.4144V100.496C33.4144 99.524 33.0184 98.972 32.2144 98.972C31.3624 98.972 30.7984 99.68 30.7984 100.544V104H29.5504ZM40.5937 104.192C39.5377 104.192 38.5897 103.52 38.5897 102.404C38.5897 101.18 39.5497 100.688 40.6897 100.532L41.7337 100.376C42.1897 100.316 42.3457 100.148 42.3457 99.824C42.3457 99.308 41.9377 98.936 41.2897 98.936C40.4977 98.936 40.0537 99.368 40.0177 100.028H38.7457C38.8057 98.888 39.7177 97.988 41.2057 97.988C42.8137 97.988 43.5817 98.888 43.5817 100.376V104H42.4177V103.736C42.4177 103.556 42.4297 103.388 42.4417 103.208C42.1417 103.796 41.5297 104.192 40.5937 104.192ZM39.8737 102.368C39.8737 102.932 40.3177 103.256 40.8697 103.256C41.7217 103.256 42.3697 102.656 42.3697 101.768V101.024C42.2737 101.144 42.0577 101.216 41.7097 101.276L41.0497 101.408C40.3657 101.54 39.8737 101.804 39.8737 102.368ZM50.3879 104.192C48.6719 104.192 47.4719 103.076 47.4719 101.084C47.4719 99.188 48.7679 97.988 50.4479 97.988C51.9839 97.988 52.9559 98.912 53.0879 100.256H51.8159C51.7439 99.548 51.2759 98.972 50.4359 98.972C49.4519 98.972 48.7439 99.812 48.7439 101.084C48.7439 102.356 49.4159 103.22 50.4239 103.22C51.2999 103.22 51.7919 102.668 51.8879 101.912H53.1359C52.9799 103.28 52.0439 104.192 50.3879 104.192ZM56.9035 104.192C55.1875 104.192 53.9875 102.992 53.9875 101.096C53.9875 99.236 55.1995 97.988 56.9035 97.988C58.6195 97.988 59.8315 99.236 59.8315 101.096C59.8315 102.992 58.6195 104.192 56.9035 104.192ZM55.2595 101.096C55.2595 102.392 55.8955 103.22 56.9035 103.22C57.9115 103.22 58.5595 102.392 58.5595 101.096C58.5595 99.776 57.8995 98.972 56.9035 98.972C55.9195 98.972 55.2595 99.776 55.2595 101.096ZM61.1207 104V95.6H62.3687V98.456C62.3687 98.624 62.3687 98.792 62.3447 98.984C62.6687 98.42 63.2807 97.988 64.1327 97.988C65.4527 97.988 66.2327 98.864 66.2327 100.328V104H64.9847V100.496C64.9847 99.524 64.5887 98.972 63.7847 98.972C62.9327 98.972 62.3687 99.68 62.3687 100.544V104H61.1207ZM70.3444 104.192C68.6044 104.192 67.4524 103.088 67.4524 101.072C67.4524 99.26 68.6524 97.988 70.2964 97.988C72.0484 97.988 73.0444 99.212 73.0444 101.096V101.36H68.7124C68.7364 102.488 69.4084 103.22 70.3564 103.22C71.0284 103.22 71.6164 102.896 71.7364 102.152H72.9964C72.8764 103.256 71.9644 104.192 70.3444 104.192ZM68.7244 100.472H71.7364C71.7244 99.56 71.1844 98.936 70.2844 98.936C69.4084 98.936 68.8084 99.596 68.7244 100.472ZM76.5234 104.192C74.9154 104.192 73.9554 103.34 73.8954 102.032H75.1434C75.1794 102.776 75.6594 103.244 76.5114 103.244C77.2434 103.244 77.7234 102.908 77.7234 102.392C77.7234 101.972 77.3994 101.732 76.7394 101.6L75.9474 101.444C74.7954 101.228 74.0994 100.664 74.0994 99.728C74.0994 98.732 75.0474 97.988 76.4274 97.988C77.9034 97.988 78.8154 98.732 78.8754 99.932H77.6274C77.5674 99.296 77.1114 98.936 76.3914 98.936C75.7674 98.936 75.3354 99.212 75.3354 99.668C75.3354 100.076 75.6234 100.28 76.3194 100.412L77.1234 100.568C78.2154 100.784 78.9474 101.3 78.9474 102.296C78.9474 103.376 78.0234 104.192 76.5234 104.192ZM80.2457 104V98.18H81.4937V104H80.2457ZM80.1977 97.184V95.804H81.5537V97.184H80.1977ZM84.6405 104L82.4325 98.18H83.7765L85.1565 102.2C85.2525 102.452 85.3005 102.632 85.3605 102.86C85.4205 102.632 85.4805 102.452 85.5645 102.2L86.9205 98.18H88.2165L86.0445 104H84.6405ZM91.5788 104.192C89.8388 104.192 88.6868 103.088 88.6868 101.072C88.6868 99.26 89.8868 97.988 91.5308 97.988C93.2828 97.988 94.2787 99.212 94.2787 101.096V101.36H89.9468C89.9708 102.488 90.6428 103.22 91.5908 103.22C92.2628 103.22 92.8508 102.896 92.9708 102.152H94.2308C94.1108 103.256 93.1988 104.192 91.5788 104.192ZM89.9588 100.472H92.9708C92.9588 99.56 92.4188 98.936 91.5188 98.936C90.6428 98.936 90.0428 99.596 89.9588 100.472ZM100.441 104.192C98.8334 104.192 97.8734 103.34 97.8134 102.032H99.0614C99.0974 102.776 99.5774 103.244 100.429 103.244C101.161 103.244 101.641 102.908 101.641 102.392C101.641 101.972 101.317 101.732 100.657 101.6L99.8654 101.444C98.7134 101.228 98.0174 100.664 98.0174 99.728C98.0174 98.732 98.9654 97.988 100.345 97.988C101.821 97.988 102.733 98.732 102.793 99.932H101.545C101.485 99.296 101.029 98.936 100.309 98.936C99.6854 98.936 99.2534 99.212 99.2534 99.668C99.2534 100.076 99.5414 100.28 100.237 100.412L101.041 100.568C102.133 100.784 102.865 101.3 102.865 102.296C102.865 103.376 101.941 104.192 100.441 104.192ZM106.732 104.192C105.016 104.192 103.816 102.992 103.816 101.096C103.816 99.236 105.028 97.988 106.732 97.988C108.448 97.988 109.66 99.236 109.66 101.096C109.66 102.992 108.448 104.192 106.732 104.192ZM105.088 101.096C105.088 102.392 105.724 103.22 106.732 103.22C107.74 103.22 108.388 102.392 108.388 101.096C108.388 99.776 107.728 98.972 106.732 98.972C105.748 98.972 105.088 99.776 105.088 101.096ZM113.517 104.192C111.801 104.192 110.601 103.076 110.601 101.084C110.601 99.188 111.897 97.988 113.577 97.988C115.113 97.988 116.085 98.912 116.217 100.256H114.945C114.873 99.548 114.405 98.972 113.565 98.972C112.581 98.972 111.873 99.812 111.873 101.084C111.873 102.356 112.545 103.22 113.553 103.22C114.429 103.22 114.921 102.668 115.017 101.912H116.265C116.109 103.28 115.173 104.192 113.517 104.192ZM117.464 104V98.18H118.712V104H117.464ZM117.416 97.184V95.804H118.772V97.184H117.416ZM122.027 104.192C120.971 104.192 120.023 103.52 120.023 102.404C120.023 101.18 120.983 100.688 122.123 100.532L123.167 100.376C123.623 100.316 123.779 100.148 123.779 99.824C123.779 99.308 123.371 98.936 122.723 98.936C121.931 98.936 121.487 99.368 121.451 100.028H120.179C120.239 98.888 121.151 97.988 122.639 97.988C124.247 97.988 125.015 98.888 125.015 100.376V104H123.851V103.736C123.851 103.556 123.863 103.388 123.875 103.208C123.575 103.796 122.963 104.192 122.027 104.192ZM121.307 102.368C121.307 102.932 121.751 103.256 122.303 103.256C123.155 103.256 123.803 102.656 123.803 101.768V101.024C123.707 101.144 123.491 101.216 123.143 101.276L122.483 101.408C121.799 101.54 121.307 101.804 121.307 102.368ZM126.57 104V95.6H127.818V104H126.57ZM132.136 104V98.18H133.384V98.54C133.384 98.684 133.384 98.84 133.36 98.984C133.684 98.444 134.248 97.988 135.052 97.988C135.796 97.988 136.42 98.456 136.696 99.104C137.056 98.48 137.74 97.988 138.58 97.988C139.756 97.988 140.608 98.816 140.608 100.328V104H139.36V100.532C139.36 99.56 139.024 98.972 138.268 98.972C137.488 98.972 136.996 99.668 136.996 100.568V104H135.748V100.556C135.748 99.572 135.424 98.972 134.668 98.972C133.9 98.972 133.384 99.656 133.384 100.592V104H132.136ZM144.723 104.192C142.983 104.192 141.831 103.088 141.831 101.072C141.831 99.26 143.031 97.988 144.675 97.988C146.427 97.988 147.423 99.212 147.423 101.096V101.36H143.091C143.115 102.488 143.787 103.22 144.735 103.22C145.407 103.22 145.995 102.896 146.115 102.152H147.375C147.255 103.256 146.343 104.192 144.723 104.192ZM143.103 100.472H146.115C146.103 99.56 145.563 98.936 144.663 98.936C143.787 98.936 143.187 99.596 143.103 100.472ZM151.046 104.192C149.51 104.192 148.37 103.112 148.37 101.096C148.37 99.176 149.558 97.988 151.07 97.988C152.006 97.988 152.606 98.48 152.906 98.984C152.882 98.804 152.882 98.636 152.882 98.468V95.6H154.13V104H152.882V103.712C152.882 103.52 152.882 103.364 152.906 103.196C152.63 103.676 152.018 104.192 151.046 104.192ZM149.654 101.096C149.654 102.38 150.338 103.22 151.31 103.22C152.258 103.22 152.954 102.368 152.954 101.084C152.954 99.8 152.27 98.972 151.31 98.972C150.35 98.972 149.654 99.836 149.654 101.096ZM155.761 104V98.18H157.009V104H155.761ZM155.713 97.184V95.804H157.069V97.184H155.713ZM160.324 104.192C159.268 104.192 158.32 103.52 158.32 102.404C158.32 101.18 159.28 100.688 160.42 100.532L161.464 100.376C161.92 100.316 162.076 100.148 162.076 99.824C162.076 99.308 161.668 98.936 161.02 98.936C160.228 98.936 159.784 99.368 159.748 100.028H158.476C158.536 98.888 159.448 97.988 160.936 97.988C162.544 97.988 163.312 98.888 163.312 100.376V104H162.148V103.736C162.148 103.556 162.16 103.388 162.172 103.208C161.872 103.796 161.26 104.192 160.324 104.192ZM159.604 102.368C159.604 102.932 160.048 103.256 160.6 103.256C161.452 103.256 162.1 102.656 162.1 101.768V101.024C162.004 101.144 161.788 101.216 161.44 101.276L160.78 101.408C160.096 101.54 159.604 101.804 159.604 102.368ZM170.118 104.192C168.402 104.192 167.202 103.076 167.202 101.084C167.202 99.188 168.498 97.988 170.178 97.988C171.714 97.988 172.686 98.912 172.818 100.256H171.546C171.474 99.548 171.006 98.972 170.166 98.972C169.182 98.972 168.474 99.812 168.474 101.084C168.474 102.356 169.146 103.22 170.154 103.22C171.03 103.22 171.522 102.668 171.618 101.912H172.866C172.71 103.28 171.774 104.192 170.118 104.192ZM175.746 104.192C174.69 104.192 173.742 103.52 173.742 102.404C173.742 101.18 174.702 100.688 175.842 100.532L176.886 100.376C177.342 100.316 177.498 100.148 177.498 99.824C177.498 99.308 177.09 98.936 176.442 98.936C175.65 98.936 175.206 99.368 175.17 100.028H173.898C173.958 98.888 174.87 97.988 176.358 97.988C177.966 97.988 178.734 98.888 178.734 100.376V104H177.57V103.736C177.57 103.556 177.582 103.388 177.594 103.208C177.294 103.796 176.682 104.192 175.746 104.192ZM175.026 102.368C175.026 102.932 175.47 103.256 176.022 103.256C176.874 103.256 177.522 102.656 177.522 101.768V101.024C177.426 101.144 177.21 101.216 176.862 101.276L176.202 101.408C175.518 101.54 175.026 101.804 175.026 102.368ZM180.289 104V98.18H181.537V98.54C181.537 98.684 181.537 98.84 181.513 98.984C181.837 98.444 182.401 97.988 183.205 97.988C183.949 97.988 184.573 98.456 184.849 99.104C185.209 98.48 185.893 97.988 186.733 97.988C187.909 97.988 188.761 98.816 188.761 100.328V104H187.513V100.532C187.513 99.56 187.177 98.972 186.421 98.972C185.641 98.972 185.149 99.668 185.149 100.568V104H183.901V100.556C183.901 99.572 183.577 98.972 182.821 98.972C182.053 98.972 181.537 99.656 181.537 100.592V104H180.289ZM190.332 106.472V98.18H191.58V98.516C191.58 98.672 191.58 98.816 191.556 98.996C191.904 98.42 192.576 97.988 193.476 97.988C195.084 97.988 196.092 99.284 196.092 101.096C196.092 102.968 194.976 104.192 193.428 104.192C192.528 104.192 191.928 103.784 191.556 103.196C191.58 103.388 191.58 103.544 191.58 103.712V106.472H190.332ZM191.52 101.084C191.52 102.356 192.204 103.22 193.176 103.22C194.16 103.22 194.808 102.344 194.808 101.084C194.808 99.848 194.172 98.972 193.176 98.972C192.216 98.972 191.52 99.788 191.52 101.084ZM199.043 104.192C197.987 104.192 197.039 103.52 197.039 102.404C197.039 101.18 197.999 100.688 199.139 100.532L200.183 100.376C200.639 100.316 200.795 100.148 200.795 99.824C200.795 99.308 200.387 98.936 199.739 98.936C198.947 98.936 198.503 99.368 198.467 100.028H197.195C197.255 98.888 198.167 97.988 199.655 97.988C201.263 97.988 202.031 98.888 202.031 100.376V104H200.867V103.736C200.867 103.556 200.879 103.388 200.891 103.208C200.591 103.796 199.979 104.192 199.043 104.192ZM198.323 102.368C198.323 102.932 198.767 103.256 199.319 103.256C200.171 103.256 200.819 102.656 200.819 101.768V101.024C200.723 101.144 200.507 101.216 200.159 101.276L199.499 101.408C198.815 101.54 198.323 101.804 198.323 102.368ZM203.586 104V98.18H204.834V104H203.586ZM203.538 97.184V95.804H204.894V97.184H203.538ZM209 106.664C207.368 106.664 206.384 105.776 206.384 104.48H207.632C207.644 105.212 208.16 105.692 209.024 105.692C209.948 105.692 210.596 105.176 210.596 104.12V103.448C210.596 103.256 210.608 103.076 210.62 102.896C210.296 103.448 209.648 103.856 208.76 103.856C207.2 103.856 206.132 102.752 206.132 100.928C206.132 99.128 207.344 97.988 208.748 97.988C209.744 97.988 210.296 98.444 210.62 98.984C210.608 98.816 210.596 98.648 210.596 98.468V98.18H211.844V103.76C211.844 105.716 210.788 106.664 209 106.664ZM207.416 100.928C207.416 102.092 208.088 102.872 209.048 102.872C209.996 102.872 210.68 102.08 210.68 100.928C210.68 99.788 209.996 98.972 209.048 98.972C208.088 98.972 207.416 99.776 207.416 100.928ZM213.476 104V98.18H214.724V98.504C214.724 98.66 214.712 98.804 214.7 98.984C215.012 98.444 215.636 97.988 216.488 97.988C217.808 97.988 218.588 98.864 218.588 100.328V104H217.34V100.496C217.34 99.524 216.956 98.972 216.152 98.972C215.288 98.972 214.724 99.68 214.724 100.544V104H213.476Z" fill="#464134"/>
<path d="M16.3753 138.417H14.6837C14.357 138.417 14.1936 138.417 14.0688 138.48C13.9591 138.536 13.8698 138.625 13.8139 138.735C13.7503 138.86 13.7503 139.023 13.7503 139.35V144.25M21.6253 138.417H23.317C23.6437 138.417 23.807 138.417 23.9318 138.48C24.0416 138.536 24.1308 138.625 24.1867 138.735C24.2503 138.86 24.2503 139.023 24.2503 139.35V144.25M21.6253 144.25V135.617C21.6253 134.963 21.6253 134.637 21.4982 134.387C21.3863 134.167 21.2078 133.989 20.9883 133.877C20.7388 133.75 20.4121 133.75 19.7587 133.75H18.242C17.5886 133.75 17.2619 133.75 17.0123 133.877C16.7928 133.989 16.6143 134.167 16.5025 134.387C16.3753 134.637 16.3753 134.963 16.3753 135.617V144.25M24.8337 144.25H13.167M18.417 136.083H19.5837M18.417 138.417H19.5837M18.417 140.75H19.5837" stroke="#464134" stroke-width="1.25" stroke-linecap="square"/>
<path d="M31.008 143V134.6H36.66V135.716H32.34V138.116H36.468V139.256H32.34V141.872H36.816V143H31.008ZM38.1754 143V137.18H39.4234V137.504C39.4234 137.66 39.4114 137.804 39.3994 137.984C39.7114 137.444 40.3354 136.988 41.1874 136.988C42.5074 136.988 43.2874 137.864 43.2874 139.328V143H42.0394V139.496C42.0394 138.524 41.6554 137.972 40.8514 137.972C39.9874 137.972 39.4234 138.68 39.4234 139.544V143H38.1754ZM47.1245 143.096C46.0685 143.096 45.3485 142.58 45.3485 141.284V138.188H44.1365V137.18H45.3485V135.164H46.5965V137.18H47.9165V138.188H46.5965V141.116C46.5965 141.764 46.8845 142.052 47.4485 142.052C47.5925 142.052 47.7365 142.04 47.8925 142.016V143.012C47.7125 143.06 47.4245 143.096 47.1245 143.096ZM51.5475 143.192C49.8075 143.192 48.6555 142.088 48.6555 140.072C48.6555 138.26 49.8555 136.988 51.4995 136.988C53.2515 136.988 54.2475 138.212 54.2475 140.096V140.36H49.9155C49.9395 141.488 50.6115 142.22 51.5595 142.22C52.2315 142.22 52.8195 141.896 52.9395 141.152H54.1995C54.0795 142.256 53.1675 143.192 51.5475 143.192ZM49.9275 139.472H52.9395C52.9275 138.56 52.3875 137.936 51.4875 137.936C50.6115 137.936 50.0115 138.596 49.9275 139.472ZM55.5426 143V137.18H56.7906V137.528C56.7906 137.756 56.7906 137.972 56.7666 138.188C57.0666 137.528 57.6546 136.988 58.5306 136.988C58.6266 136.988 58.7226 136.988 58.8186 137.012V138.224C58.7346 138.212 58.6146 138.188 58.4466 138.188C57.4386 138.188 56.7906 138.728 56.7906 140.012V143H55.5426ZM59.8082 145.472V137.18H61.0562V137.516C61.0562 137.672 61.0562 137.816 61.0322 137.996C61.3802 137.42 62.0522 136.988 62.9522 136.988C64.5602 136.988 65.5682 138.284 65.5682 140.096C65.5682 141.968 64.4522 143.192 62.9042 143.192C62.0042 143.192 61.4042 142.784 61.0322 142.196C61.0562 142.388 61.0562 142.544 61.0562 142.712V145.472H59.8082ZM60.9962 140.084C60.9962 141.356 61.6802 142.22 62.6522 142.22C63.6362 142.22 64.2842 141.344 64.2842 140.084C64.2842 138.848 63.6482 137.972 62.6522 137.972C61.6922 137.972 60.9962 138.788 60.9962 140.084ZM66.8394 143V137.18H68.0874V137.528C68.0874 137.756 68.0874 137.972 68.0634 138.188C68.3634 137.528 68.9514 136.988 69.8274 136.988C69.9234 136.988 70.0194 136.988 70.1154 137.012V138.224C70.0314 138.212 69.9114 138.188 69.7434 138.188C68.7354 138.188 68.0874 138.728 68.0874 140.012V143H66.8394ZM71.1051 143V137.18H72.3531V143H71.1051ZM71.0571 136.184V134.804H72.4131V136.184H71.0571ZM76.1719 143.192C74.5639 143.192 73.6039 142.34 73.5439 141.032H74.7919C74.8279 141.776 75.3079 142.244 76.1599 142.244C76.8919 142.244 77.3719 141.908 77.3719 141.392C77.3719 140.972 77.0479 140.732 76.3879 140.6L75.5959 140.444C74.4439 140.228 73.7479 139.664 73.7479 138.728C73.7479 137.732 74.6959 136.988 76.0759 136.988C77.5519 136.988 78.4639 137.732 78.5239 138.932H77.2759C77.2159 138.296 76.7599 137.936 76.0399 137.936C75.4159 137.936 74.9839 138.212 74.9839 138.668C74.9839 139.076 75.2719 139.28 75.9679 139.412L76.7719 139.568C77.8639 139.784 78.5959 140.3 78.5959 141.296C78.5959 142.376 77.6719 143.192 76.1719 143.192ZM82.4381 143.192C80.6981 143.192 79.5461 142.088 79.5461 140.072C79.5461 138.26 80.7461 136.988 82.3901 136.988C84.1421 136.988 85.1381 138.212 85.1381 140.096V140.36H80.8061C80.8301 141.488 81.5021 142.22 82.4501 142.22C83.1221 142.22 83.7101 141.896 83.8301 141.152H85.0901C84.9701 142.256 84.0581 143.192 82.4381 143.192ZM80.8181 139.472H83.8301C83.8181 138.56 83.2781 137.936 82.3781 137.936C81.5021 137.936 80.9021 138.596 80.8181 139.472ZM91.6848 143.192C89.9688 143.192 88.7688 141.992 88.7688 140.096C88.7688 138.236 89.9808 136.988 91.6848 136.988C93.4008 136.988 94.6128 138.236 94.6128 140.096C94.6128 141.992 93.4008 143.192 91.6848 143.192ZM90.0408 140.096C90.0408 141.392 90.6768 142.22 91.6848 142.22C92.6928 142.22 93.3408 141.392 93.3408 140.096C93.3408 138.776 92.6808 137.972 91.6848 137.972C90.7008 137.972 90.0408 138.776 90.0408 140.096ZM95.9019 143V137.18H97.1499V137.504C97.1499 137.66 97.1379 137.804 97.1259 137.984C97.4379 137.444 98.0619 136.988 98.9139 136.988C100.234 136.988 101.014 137.864 101.014 139.328V143H99.7659V139.496C99.7659 138.524 99.3819 137.972 98.5779 137.972C97.7139 137.972 97.1499 138.68 97.1499 139.544V143H95.9019ZM102.582 143V134.6H103.83V143H102.582ZM106.064 145.472L107.072 142.868L104.768 137.18H106.16L107.504 140.912C107.576 141.128 107.66 141.356 107.732 141.62C107.804 141.356 107.876 141.128 107.948 140.912L109.184 137.18H110.492L107.396 145.472H106.064Z" fill="#464134"/>
</g>
<path d="M0.5 16C0.5 7.43958 7.43959 0.5 16 0.5H253C261.56 0.5 268.5 7.43959 268.5 16V143C268.5 151.56 261.56 158.5 253 158.5H16C7.43958 158.5 0.5 151.56 0.5 143V16Z" stroke="#EEECE8"/>
<defs>
<clipPath id="clip0_3457_93138">
<path d="M0 16C0 7.16344 7.16344 0 16 0H253C261.837 0 269 7.16344 269 16V143C269 151.837 261.837 159 253 159H16C7.16344 159 0 151.837 0 143V16Z" fill="white"/>
</clipPath>
</defs>
</svg>
