<svg width="269" height="147" viewBox="0 0 269 147" fill="none" xmlns="http://www.w3.org/2000/svg">
<g clip-path="url(#clip0_3457_93117)">
<path d="M0 16C0 7.16345 7.16344 0 16 0H253C261.837 0 269 7.16344 269 16V131C269 139.837 261.837 147 253 147H16C7.16344 147 0 139.837 0 131V16Z" fill="#FAFAFA"/>
<path d="M26 9C16.6112 9 9 16.6112 9 26C9 35.3888 16.6112 43 26 43C35.3888 43 43 35.3888 43 26C43 16.6112 35.3888 9 26 9Z" fill="#DEDDFD"/>
<path d="M26 9C16.6112 9 9 16.6112 9 26C9 35.3888 16.6112 43 26 43C35.3888 43 43 35.3888 43 26C43 16.6112 35.3888 9 26 9Z" stroke="#FAFAFA" stroke-width="6"/>
<g clip-path="url(#clip1_3457_93117)">
<path d="M30.0837 25.9998L29.6417 26.4418C29.7589 26.559 29.9179 26.6248 30.0837 26.6248C30.2494 26.6248 30.4084 26.559 30.5256 26.4418L30.0837 25.9998ZM26.0003 21.9165L25.5584 21.4746C25.3143 21.7186 25.3143 22.1144 25.5584 22.3584L26.0003 21.9165ZM27.7503 20.1665L28.1923 19.7246C28.0751 19.6074 27.9161 19.5415 27.7503 19.5415C27.5846 19.5415 27.4256 19.6074 27.3084 19.7246L27.7503 20.1665ZM31.8337 24.2498L32.2756 24.6918C32.3928 24.5746 32.4587 24.4156 32.4587 24.2498C32.4587 24.0841 32.3928 23.9251 32.2756 23.8079L31.8337 24.2498ZM26.9528 23.4117C27.2954 23.3689 27.5383 23.0565 27.4955 22.714C27.4527 22.3715 27.1403 22.1285 26.7978 22.1713L26.9528 23.4117ZM22.8488 23.2948L22.9263 23.915L22.8488 23.2948ZM22.0573 24.0019L22.6648 24.1486V24.1486L22.0573 24.0019ZM20.167 31.8332L19.5594 31.6865L19.3195 32.6807L20.3136 32.4407L20.167 31.8332ZM27.9982 29.9429L27.8516 29.3353H27.8516L27.9982 29.9429ZM28.7053 29.1514L29.3255 29.2289V29.2289L28.7053 29.1514ZM29.8288 25.2024C29.8716 24.8598 29.6287 24.5475 29.2862 24.5047C28.9437 24.4618 28.6313 24.7048 28.5885 25.0473L29.8288 25.2024ZM28.4258 29.8006L28.7785 30.3165V30.3165L28.4258 29.8006ZM28.612 29.5922L29.1642 29.8848L29.1642 29.8848L28.612 29.5922ZM22.408 23.3882L22.1154 22.8359L22.1154 22.8359L22.408 23.3882ZM22.1996 23.5744L21.6836 23.2217L21.6836 23.2217L22.1996 23.5744ZM25.0341 27.8499L25.476 27.408L24.5922 26.5241L24.1502 26.9661L25.0341 27.8499ZM25.417 25.4165L25.417 26.0415L25.417 25.4165ZM26.5837 26.5832H27.2087H26.5837ZM25.417 27.7498V28.3748V27.7498ZM24.2503 26.5832H24.8753H24.2503ZM30.5256 25.5579L26.4423 21.4746L25.5584 22.3584L29.6417 26.4418L30.5256 25.5579ZM26.4423 22.3584L28.1923 20.6084L27.3084 19.7246L25.5584 21.4746L26.4423 22.3584ZM27.3084 20.6084L31.3917 24.6918L32.2756 23.8079L28.1923 19.7246L27.3084 20.6084ZM31.3917 23.8079L29.6417 25.5579L30.5256 26.4418L32.2756 24.6918L31.3917 23.8079ZM26.7978 22.1713L22.7713 22.6746L22.9263 23.915L26.9528 23.4117L26.7978 22.1713ZM21.4497 23.8553L19.5594 31.6865L20.7745 31.9798L22.6648 24.1486L21.4497 23.8553ZM20.3136 32.4407L28.1449 30.5504L27.8516 29.3353L20.0203 31.2256L20.3136 32.4407ZM29.3255 29.2289L29.8288 25.2024L28.5885 25.0473L28.0852 29.0738L29.3255 29.2289ZM28.1449 30.5504C28.3214 30.5078 28.5727 30.4573 28.7785 30.3165L28.073 29.2847C28.0988 29.2671 28.1122 29.2664 28.0766 29.2776C28.0337 29.291 27.9726 29.3061 27.8516 29.3353L28.1449 30.5504ZM28.0852 29.0738C28.0697 29.1974 28.0616 29.2598 28.053 29.3039C28.0459 29.3406 28.0451 29.3271 28.0597 29.2996L29.1642 29.8848C29.281 29.6645 29.303 29.4091 29.3255 29.2289L28.0852 29.0738ZM28.7785 30.3165C28.9402 30.206 29.0725 30.0578 29.1642 29.8848L28.0597 29.2996C28.0629 29.2936 28.0674 29.2885 28.073 29.2847L28.7785 30.3165ZM22.7713 22.6746C22.5911 22.6972 22.3357 22.7192 22.1154 22.8359L22.7006 23.9405C22.673 23.9551 22.6596 23.9542 22.6962 23.9471C22.7404 23.9386 22.8028 23.9304 22.9263 23.915L22.7713 22.6746ZM22.6648 24.1486C22.6941 24.0275 22.7091 23.9665 22.7226 23.9236C22.7338 23.888 22.7331 23.9014 22.7155 23.9272L21.6836 23.2217C21.5429 23.4275 21.4923 23.6788 21.4497 23.8553L22.6648 24.1486ZM22.1154 22.8359C21.9423 22.9276 21.7942 23.06 21.6836 23.2217L22.7155 23.9272C22.7117 23.9327 22.7066 23.9373 22.7006 23.9405L22.1154 22.8359ZM20.6089 32.2751L25.0341 27.8499L24.1502 26.9661L19.7251 31.3912L20.6089 32.2751ZM25.417 26.0415C25.7161 26.0415 25.9587 26.284 25.9587 26.5832H27.2087C27.2087 25.5937 26.4065 24.7915 25.417 24.7915L25.417 26.0415ZM25.9587 26.5832C25.9587 26.8823 25.7161 27.1248 25.417 27.1248V28.3748C26.4065 28.3748 27.2087 27.5727 27.2087 26.5832H25.9587ZM25.417 27.1248C25.1178 27.1248 24.8753 26.8823 24.8753 26.5832H23.6253C23.6253 27.5727 24.4275 28.3748 25.417 28.3748V27.1248ZM24.8753 26.5832C24.8753 26.284 25.1178 26.0415 25.417 26.0415L25.417 24.7915C24.4275 24.7915 23.6253 25.5937 23.6253 26.5832H24.8753Z" fill="#0E0E0E"/>
</g>
<path d="M199 21C199 18.7909 200.791 17 203 17H253C255.209 17 257 18.7909 257 21V31C257 33.2091 255.209 35 253 35H203C200.791 35 199 33.2091 199 31V21Z" fill="#E7D0F2"/>
<path d="M205.693 29V22.7H208.339C209.653 22.7 210.643 23.258 210.643 24.59C210.643 25.958 209.608 26.48 208.339 26.48H206.872V29H205.693ZM206.872 25.481H208.339C209.095 25.481 209.428 25.139 209.428 24.59C209.428 24.041 209.113 23.699 208.339 23.699H206.872V25.481ZM214.787 29.162C213.023 29.162 211.7 27.965 211.7 25.85C211.7 23.825 213.023 22.538 214.787 22.538C216.551 22.538 217.901 23.852 217.901 25.85C217.901 27.956 216.551 29.162 214.787 29.162ZM212.915 25.85C212.915 27.317 213.671 28.163 214.787 28.163C215.903 28.163 216.686 27.335 216.686 25.85C216.686 24.437 215.912 23.537 214.787 23.537C213.662 23.537 212.915 24.419 212.915 25.85ZM219.473 29V22.7H222.119C223.433 22.7 224.423 23.258 224.423 24.59C224.423 25.958 223.388 26.48 222.119 26.48H220.652V29H219.473ZM220.652 25.481H222.119C222.875 25.481 223.208 25.139 223.208 24.59C223.208 24.041 222.893 23.699 222.119 23.699H220.652V25.481ZM228.334 29.162C226.723 29.162 225.769 28.235 225.769 26.597V22.7H226.957V26.417C226.957 27.587 227.434 28.163 228.334 28.163C229.225 28.163 229.711 27.569 229.711 26.417V22.7H230.89V26.597C230.89 28.235 229.936 29.162 228.334 29.162ZM232.752 29V22.7H233.931V28.001H237.099V29H232.752ZM237.758 29L240.35 22.7H241.7L244.292 29H242.969L242.339 27.281H239.657L239.018 29H237.758ZM240.026 26.282H241.97L241.25 24.32C241.151 24.059 241.079 23.852 241.007 23.591C240.926 23.852 240.836 24.068 240.746 24.32L240.026 26.282ZM245.478 29V22.7H248.268C249.447 22.7 250.302 23.258 250.302 24.356C250.302 25.22 249.699 25.715 249.096 25.895C249.816 26.021 250.203 26.543 250.203 27.353V29H249.015V27.461C249.015 26.714 248.745 26.444 247.98 26.444H246.657V29H245.478ZM246.657 25.436H248.043C248.736 25.436 249.087 25.139 249.087 24.572C249.087 24.005 248.736 23.699 248.043 23.699H246.657V25.436Z" fill="#872D99"/>
<path d="M13.078 68V58.2H17.222C19.112 58.2 20.568 58.9 20.568 60.678C20.568 61.896 19.672 62.554 18.664 62.82C19.952 63.086 20.862 63.884 20.862 65.186C20.862 67.272 19 68 17.026 68H13.078ZM14.884 66.446H17.096C18.37 66.446 18.972 65.956 18.972 65.046C18.972 64.066 18.37 63.66 17.096 63.66H14.884V66.446ZM14.884 62.148H16.998C18.174 62.148 18.678 61.686 18.678 60.902C18.678 60.174 18.174 59.754 16.998 59.754H14.884V62.148ZM22.2469 68V58.2H23.9549V68H22.2469ZM28.8002 68.252C26.7422 68.252 25.3002 66.88 25.3002 64.612C25.3002 62.372 26.7562 60.944 28.8002 60.944C30.8582 60.944 32.3142 62.372 32.3142 64.612C32.3142 66.88 30.8582 68.252 28.8002 68.252ZM27.0362 64.612C27.0362 66.068 27.7362 66.908 28.8002 66.908C29.8642 66.908 30.5782 66.068 30.5782 64.612C30.5782 63.128 29.8502 62.302 28.8002 62.302C27.7642 62.302 27.0362 63.128 27.0362 64.612ZM36.7429 71.108C34.7269 71.108 33.5789 70.03 33.5789 68.476H35.3149C35.3429 69.288 35.8609 69.764 36.7849 69.764C37.6809 69.764 38.4369 69.232 38.4369 68.21V67.468C38.4369 67.16 38.4509 66.88 38.4929 66.614C38.0869 67.23 37.4289 67.748 36.3649 67.748C34.5869 67.748 33.2989 66.502 33.2989 64.346C33.2989 62.218 34.7829 60.944 36.2809 60.944C37.4849 60.944 38.0869 61.434 38.4929 62.148C38.4509 61.91 38.4369 61.728 38.4369 61.476V61.168H40.1449V67.79C40.1449 70.03 38.7589 71.108 36.7429 71.108ZM35.0349 64.346C35.0349 65.536 35.7629 66.39 36.7989 66.39C37.8069 66.39 38.5349 65.536 38.5349 64.346C38.5349 63.156 37.8069 62.302 36.7989 62.302C35.7629 62.302 35.0349 63.156 35.0349 64.346ZM45.0292 68V58.2H49.1452C51.1892 58.2 52.7292 59.068 52.7292 61.14C52.7292 63.268 51.1192 64.08 49.1452 64.08H46.8632V68H45.0292ZM46.8632 62.526H49.1452C50.3212 62.526 50.8392 61.994 50.8392 61.14C50.8392 60.286 50.3492 59.754 49.1452 59.754H46.8632V62.526ZM56.7182 68.252C54.6602 68.252 53.2182 66.88 53.2182 64.612C53.2182 62.372 54.6742 60.944 56.7182 60.944C58.7762 60.944 60.2322 62.372 60.2322 64.612C60.2322 66.88 58.7762 68.252 56.7182 68.252ZM54.9542 64.612C54.9542 66.068 55.6542 66.908 56.7182 66.908C57.7822 66.908 58.4962 66.068 58.4962 64.612C58.4962 63.128 57.7682 62.302 56.7182 62.302C55.6822 62.302 54.9542 63.128 54.9542 64.612ZM64.3109 68.252C62.3789 68.252 61.1889 67.244 61.0769 65.648H62.8129C62.8549 66.46 63.3589 66.978 64.2689 66.978C65.0389 66.978 65.5289 66.614 65.5289 66.096C65.5289 65.634 65.1369 65.424 64.4089 65.284L63.5829 65.116C62.1549 64.836 61.3429 64.164 61.3429 63.03C61.3429 61.84 62.4629 60.944 64.1429 60.944C65.9769 60.944 67.1249 61.896 67.1669 63.324H65.4589C65.4029 62.652 64.9129 62.218 64.1429 62.218C63.5129 62.218 63.0229 62.47 63.0229 62.96C63.0229 63.366 63.2889 63.576 64.1569 63.744L64.9829 63.912C66.3269 64.178 67.2089 64.794 67.2089 65.998C67.2089 67.3 66.0749 68.252 64.3109 68.252ZM71.4818 68.126C70.0258 68.126 69.2558 67.398 69.2558 65.872V62.526H67.7018V61.168H69.2558V58.704H70.9638V61.168H72.6438V62.526H70.9638V65.62C70.9638 66.334 71.2438 66.754 71.9718 66.754C72.1398 66.754 72.3218 66.74 72.4898 66.712V68C72.3218 68.056 71.9158 68.126 71.4818 68.126Z" fill="#0E0E0E"/>
<path d="M14.388 88L12.144 79.6H13.584L15.036 85.396C15.144 85.804 15.24 86.176 15.336 86.632C15.42 86.188 15.528 85.792 15.624 85.396L17.148 79.6H18.96L20.412 85.396C20.52 85.804 20.628 86.2 20.712 86.644C20.808 86.176 20.892 85.804 21 85.396L22.5 79.6H23.856L21.612 88H19.86L18.324 81.868C18.252 81.544 18.144 81.184 18.06 80.728C17.952 81.184 17.868 81.544 17.784 81.868L16.152 88H14.388ZM24.5582 88V82.18H25.8062V82.528C25.8062 82.756 25.8062 82.972 25.7822 83.188C26.0822 82.528 26.6702 81.988 27.5462 81.988C27.6422 81.988 27.7382 81.988 27.8342 82.012V83.224C27.7502 83.212 27.6302 83.188 27.4622 83.188C26.4542 83.188 25.8062 83.728 25.8062 85.012V88H24.5582ZM28.8238 88V82.18H30.0718V88H28.8238ZM28.7758 81.184V79.804H30.1318V81.184H28.7758ZM34.0346 88.096C32.9786 88.096 32.2586 87.58 32.2586 86.284V83.188H31.0466V82.18H32.2586V80.164H33.5066V82.18H34.8266V83.188H33.5066V86.116C33.5066 86.764 33.7946 87.052 34.3586 87.052C34.5026 87.052 34.6466 87.04 34.8026 87.016V88.012C34.6226 88.06 34.3346 88.096 34.0346 88.096ZM38.4577 88.192C36.7177 88.192 35.5657 87.088 35.5657 85.072C35.5657 83.26 36.7657 81.988 38.4097 81.988C40.1617 81.988 41.1577 83.212 41.1577 85.096V85.36H36.8257C36.8497 86.488 37.5217 87.22 38.4697 87.22C39.1417 87.22 39.7297 86.896 39.8497 86.152H41.1097C40.9897 87.256 40.0777 88.192 38.4577 88.192ZM36.8377 84.472H39.8497C39.8377 83.56 39.2977 82.936 38.3977 82.936C37.5217 82.936 36.9217 83.596 36.8377 84.472ZM45.1363 88V79.6H46.3843V88H45.1363ZM50.5871 88.192C48.8711 88.192 47.6711 86.992 47.6711 85.096C47.6711 83.236 48.8831 81.988 50.5871 81.988C52.3031 81.988 53.5151 83.236 53.5151 85.096C53.5151 86.992 52.3031 88.192 50.5871 88.192ZM48.9431 85.096C48.9431 86.392 49.5791 87.22 50.5871 87.22C51.5951 87.22 52.2431 86.392 52.2431 85.096C52.2431 83.776 51.5831 82.972 50.5871 82.972C49.6031 82.972 48.9431 83.776 48.9431 85.096ZM54.8043 88V82.18H56.0523V82.504C56.0523 82.66 56.0403 82.804 56.0283 82.984C56.3403 82.444 56.9643 81.988 57.8163 81.988C59.1363 81.988 59.9163 82.864 59.9163 84.328V88H58.6683V84.496C58.6683 83.524 58.2843 82.972 57.4803 82.972C56.6163 82.972 56.0523 83.68 56.0523 84.544V88H54.8043ZM64.016 90.664C62.384 90.664 61.4 89.776 61.4 88.48H62.648C62.66 89.212 63.176 89.692 64.04 89.692C64.964 89.692 65.612 89.176 65.612 88.12V87.448C65.612 87.256 65.624 87.076 65.636 86.896C65.312 87.448 64.664 87.856 63.776 87.856C62.216 87.856 61.148 86.752 61.148 84.928C61.148 83.128 62.36 81.988 63.764 81.988C64.76 81.988 65.312 82.444 65.636 82.984C65.624 82.816 65.612 82.648 65.612 82.468V82.18H66.86V87.76C66.86 89.716 65.804 90.664 64.016 90.664ZM62.432 84.928C62.432 86.092 63.104 86.872 64.064 86.872C65.012 86.872 65.696 86.08 65.696 84.928C65.696 83.788 65.012 82.972 64.064 82.972C63.104 82.972 62.432 83.776 62.432 84.928ZM68.3958 85.528V84.34H71.5038V85.528H68.3958ZM73.2265 88V83.188H72.0985V82.18H73.2265V81.304C73.2265 80.044 73.9825 79.396 74.9905 79.396C75.3025 79.396 75.5545 79.456 75.6745 79.504V80.512C75.5785 80.488 75.4345 80.464 75.2905 80.464C74.7985 80.464 74.4745 80.752 74.4745 81.28V82.18H75.6865V83.188H74.4745V88H73.2265ZM79.134 88.192C77.418 88.192 76.218 86.992 76.218 85.096C76.218 83.236 77.43 81.988 79.134 81.988C80.85 81.988 82.062 83.236 82.062 85.096C82.062 86.992 80.85 88.192 79.134 88.192ZM77.49 85.096C77.49 86.392 78.126 87.22 79.134 87.22C80.142 87.22 80.79 86.392 80.79 85.096C80.79 83.776 80.13 82.972 79.134 82.972C78.15 82.972 77.49 83.776 77.49 85.096ZM83.3512 88V82.18H84.5992V82.528C84.5992 82.756 84.5992 82.972 84.5752 83.188C84.8752 82.528 85.4632 81.988 86.3392 81.988C86.4352 81.988 86.5312 81.988 86.6272 82.012V83.224C86.5432 83.212 86.4232 83.188 86.2552 83.188C85.2472 83.188 84.5992 83.728 84.5992 85.012V88H83.3512ZM87.6168 88V82.18H88.8648V82.54C88.8648 82.684 88.8648 82.84 88.8408 82.984C89.1648 82.444 89.7288 81.988 90.5328 81.988C91.2768 81.988 91.9008 82.456 92.1768 83.104C92.5368 82.48 93.2208 81.988 94.0608 81.988C95.2368 81.988 96.0888 82.816 96.0888 84.328V88H94.8408V84.532C94.8408 83.56 94.5048 82.972 93.7488 82.972C92.9688 82.972 92.4768 83.668 92.4768 84.568V88H91.2288V84.556C91.2288 83.572 90.9048 82.972 90.1488 82.972C89.3808 82.972 88.8648 83.656 88.8648 84.592V88H87.6168ZM102.911 88.192C101.195 88.192 99.9953 87.076 99.9953 85.084C99.9953 83.188 101.291 81.988 102.971 81.988C104.507 81.988 105.479 82.912 105.611 84.256H104.339C104.267 83.548 103.799 82.972 102.959 82.972C101.975 82.972 101.267 83.812 101.267 85.084C101.267 86.356 101.939 87.22 102.947 87.22C103.823 87.22 104.315 86.668 104.411 85.912H105.659C105.503 87.28 104.567 88.192 102.911 88.192ZM109.427 88.192C107.711 88.192 106.511 86.992 106.511 85.096C106.511 83.236 107.723 81.988 109.427 81.988C111.143 81.988 112.355 83.236 112.355 85.096C112.355 86.992 111.143 88.192 109.427 88.192ZM107.783 85.096C107.783 86.392 108.419 87.22 109.427 87.22C110.435 87.22 111.083 86.392 111.083 85.096C111.083 83.776 110.423 82.972 109.427 82.972C108.443 82.972 107.783 83.776 107.783 85.096ZM113.644 88V82.18H114.892V82.504C114.892 82.66 114.88 82.804 114.868 82.984C115.18 82.444 115.804 81.988 116.656 81.988C117.976 81.988 118.756 82.864 118.756 84.328V88H117.508V84.496C117.508 83.524 117.124 82.972 116.32 82.972C115.456 82.972 114.892 83.68 114.892 84.544V88H113.644ZM122.593 88.096C121.537 88.096 120.817 87.58 120.817 86.284V83.188H119.605V82.18H120.817V80.164H122.065V82.18H123.385V83.188H122.065V86.116C122.065 86.764 122.353 87.052 122.917 87.052C123.061 87.052 123.205 87.04 123.361 87.016V88.012C123.181 88.06 122.893 88.096 122.593 88.096ZM127.016 88.192C125.276 88.192 124.124 87.088 124.124 85.072C124.124 83.26 125.324 81.988 126.968 81.988C128.72 81.988 129.716 83.212 129.716 85.096V85.36H125.384C125.408 86.488 126.08 87.22 127.028 87.22C127.7 87.22 128.288 86.896 128.408 86.152H129.668C129.548 87.256 128.636 88.192 127.016 88.192ZM125.396 84.472H128.408C128.396 83.56 127.856 82.936 126.956 82.936C126.08 82.936 125.48 83.596 125.396 84.472ZM131.011 88V82.18H132.259V82.504C132.259 82.66 132.247 82.804 132.235 82.984C132.547 82.444 133.171 81.988 134.023 81.988C135.343 81.988 136.123 82.864 136.123 84.328V88H134.875V84.496C134.875 83.524 134.491 82.972 133.687 82.972C132.823 82.972 132.259 83.68 132.259 84.544V88H131.011ZM139.96 88.096C138.904 88.096 138.184 87.58 138.184 86.284V83.188H136.972V82.18H138.184V80.164H139.432V82.18H140.752V83.188H139.432V86.116C139.432 86.764 139.72 87.052 140.284 87.052C140.428 87.052 140.572 87.04 140.728 87.016V88.012C140.548 88.06 140.26 88.096 139.96 88.096ZM146.699 88.096C145.643 88.096 144.923 87.58 144.923 86.284V83.188H143.711V82.18H144.923V80.164H146.171V82.18H147.491V83.188H146.171V86.116C146.171 86.764 146.459 87.052 147.023 87.052C147.167 87.052 147.311 87.04 147.467 87.016V88.012C147.287 88.06 146.999 88.096 146.699 88.096ZM148.648 88V79.6H149.896V82.456C149.896 82.624 149.896 82.792 149.872 82.984C150.196 82.42 150.808 81.988 151.66 81.988C152.98 81.988 153.76 82.864 153.76 84.328V88H152.512V84.496C152.512 83.524 152.116 82.972 151.312 82.972C150.46 82.972 149.896 83.68 149.896 84.544V88H148.648ZM157.008 88.192C155.952 88.192 155.004 87.52 155.004 86.404C155.004 85.18 155.964 84.688 157.104 84.532L158.148 84.376C158.604 84.316 158.76 84.148 158.76 83.824C158.76 83.308 158.352 82.936 157.704 82.936C156.912 82.936 156.468 83.368 156.432 84.028H155.16C155.22 82.888 156.132 81.988 157.62 81.988C159.228 81.988 159.996 82.888 159.996 84.376V88H158.832V87.736C158.832 87.556 158.844 87.388 158.856 87.208C158.556 87.796 157.944 88.192 157.008 88.192ZM156.288 86.368C156.288 86.932 156.732 87.256 157.284 87.256C158.136 87.256 158.784 86.656 158.784 85.768V85.024C158.688 85.144 158.472 85.216 158.124 85.276L157.464 85.408C156.78 85.54 156.288 85.804 156.288 86.368ZM163.82 88.096C162.764 88.096 162.044 87.58 162.044 86.284V83.188H160.832V82.18H162.044V80.164H163.292V82.18H164.612V83.188H163.292V86.116C163.292 86.764 163.58 87.052 164.144 87.052C164.288 87.052 164.432 87.04 164.588 87.016V88.012C164.408 88.06 164.12 88.096 163.82 88.096ZM168.453 90.472V82.18H169.701V82.516C169.701 82.672 169.701 82.816 169.677 82.996C170.025 82.42 170.697 81.988 171.597 81.988C173.205 81.988 174.213 83.284 174.213 85.096C174.213 86.968 173.097 88.192 171.549 88.192C170.649 88.192 170.049 87.784 169.677 87.196C169.701 87.388 169.701 87.544 169.701 87.712V90.472H168.453ZM169.641 85.084C169.641 86.356 170.325 87.22 171.297 87.22C172.281 87.22 172.929 86.344 172.929 85.084C172.929 83.848 172.293 82.972 171.297 82.972C170.337 82.972 169.641 83.788 169.641 85.084ZM175.484 88V82.18H176.732V82.528C176.732 82.756 176.732 82.972 176.708 83.188C177.008 82.528 177.596 81.988 178.472 81.988C178.568 81.988 178.664 81.988 178.76 82.012V83.224C178.676 83.212 178.556 83.188 178.388 83.188C177.38 83.188 176.732 83.728 176.732 85.012V88H175.484ZM182.2 88.192C180.484 88.192 179.284 86.992 179.284 85.096C179.284 83.236 180.496 81.988 182.2 81.988C183.916 81.988 185.128 83.236 185.128 85.096C185.128 86.992 183.916 88.192 182.2 88.192ZM180.556 85.096C180.556 86.392 181.192 87.22 182.2 87.22C183.208 87.22 183.856 86.392 183.856 85.096C183.856 83.776 183.196 82.972 182.2 82.972C181.216 82.972 180.556 83.776 180.556 85.096ZM187.812 88L185.604 82.18H186.948L188.328 86.2C188.424 86.452 188.472 86.632 188.532 86.86C188.592 86.632 188.652 86.452 188.736 86.2L190.092 82.18H191.388L189.216 88H187.812ZM192.336 88V82.18H193.584V88H192.336ZM192.288 81.184V79.804H193.644V81.184H192.288ZM197.546 88.192C196.01 88.192 194.87 87.112 194.87 85.096C194.87 83.176 196.058 81.988 197.57 81.988C198.506 81.988 199.106 82.48 199.406 82.984C199.382 82.804 199.382 82.636 199.382 82.468V79.6H200.63V88H199.382V87.712C199.382 87.52 199.382 87.364 199.406 87.196C199.13 87.676 198.518 88.192 197.546 88.192ZM196.154 85.096C196.154 86.38 196.838 87.22 197.81 87.22C198.758 87.22 199.454 86.368 199.454 85.084C199.454 83.8 198.77 82.972 197.81 82.972C196.85 82.972 196.154 83.836 196.154 85.096ZM204.805 88.192C203.065 88.192 201.913 87.088 201.913 85.072C201.913 83.26 203.113 81.988 204.757 81.988C206.509 81.988 207.505 83.212 207.505 85.096V85.36H203.173C203.197 86.488 203.869 87.22 204.817 87.22C205.489 87.22 206.077 86.896 206.197 86.152H207.457C207.337 87.256 206.425 88.192 204.805 88.192ZM203.185 84.472H206.197C206.185 83.56 205.645 82.936 204.745 82.936C203.869 82.936 203.269 83.596 203.185 84.472ZM210.984 88.192C209.376 88.192 208.416 87.34 208.356 86.032H209.604C209.64 86.776 210.12 87.244 210.972 87.244C211.704 87.244 212.184 86.908 212.184 86.392C212.184 85.972 211.86 85.732 211.2 85.6L210.408 85.444C209.256 85.228 208.56 84.664 208.56 83.728C208.56 82.732 209.508 81.988 210.888 81.988C212.364 81.988 213.276 82.732 213.336 83.932H212.088C212.028 83.296 211.572 82.936 210.852 82.936C210.228 82.936 209.796 83.212 209.796 83.668C209.796 84.076 210.084 84.28 210.78 84.412L211.584 84.568C212.676 84.784 213.408 85.3 213.408 86.296C213.408 87.376 212.484 88.192 210.984 88.192ZM218.715 88L216.507 82.18H217.851L219.231 86.2C219.327 86.452 219.375 86.632 219.435 86.86C219.495 86.632 219.555 86.452 219.639 86.2L220.995 82.18H222.291L220.119 88H218.715ZM224.789 88.192C223.733 88.192 222.785 87.52 222.785 86.404C222.785 85.18 223.745 84.688 224.885 84.532L225.929 84.376C226.385 84.316 226.541 84.148 226.541 83.824C226.541 83.308 226.133 82.936 225.485 82.936C224.693 82.936 224.249 83.368 224.213 84.028H222.941C223.001 82.888 223.913 81.988 225.401 81.988C227.009 81.988 227.777 82.888 227.777 84.376V88H226.613V87.736C226.613 87.556 226.625 87.388 226.637 87.208C226.337 87.796 225.725 88.192 224.789 88.192ZM224.069 86.368C224.069 86.932 224.513 87.256 225.065 87.256C225.917 87.256 226.565 86.656 226.565 85.768V85.024C226.469 85.144 226.253 85.216 225.905 85.276L225.245 85.408C224.561 85.54 224.069 85.804 224.069 86.368ZM229.332 88V79.6H230.58V88H229.332ZM234.242 88.192C232.982 88.192 232.154 87.388 232.154 85.876V82.18H233.402V85.66C233.402 86.62 233.774 87.208 234.602 87.208C235.442 87.208 235.97 86.572 235.97 85.516V82.18H237.218V88H235.982V87.7C235.982 87.532 235.994 87.352 236.018 87.196C235.73 87.784 235.118 88.192 234.242 88.192ZM241.391 88.192C239.651 88.192 238.499 87.088 238.499 85.072C238.499 83.26 239.699 81.988 241.343 81.988C243.095 81.988 244.091 83.212 244.091 85.096V85.36H239.759C239.783 86.488 240.455 87.22 241.403 87.22C242.075 87.22 242.663 86.896 242.783 86.152H244.043C243.923 87.256 243.011 88.192 241.391 88.192ZM239.771 84.472H242.783C242.771 83.56 242.231 82.936 241.331 82.936C240.455 82.936 239.855 83.596 239.771 84.472ZM245.302 89.296C245.71 89.176 246.058 88.936 246.058 88.228V88H245.29V86.404H246.886V88.072C246.886 89.38 246.19 89.932 245.302 90.04V89.296ZM15.144 104.192C13.608 104.192 12.468 103.112 12.468 101.096C12.468 99.176 13.656 97.988 15.168 97.988C16.104 97.988 16.704 98.48 17.004 98.984C16.98 98.804 16.98 98.636 16.98 98.468V95.6H18.228V104H16.98V103.712C16.98 103.52 16.98 103.364 17.004 103.196C16.728 103.676 16.116 104.192 15.144 104.192ZM13.752 101.096C13.752 102.38 14.436 103.22 15.408 103.22C16.356 103.22 17.052 102.368 17.052 101.084C17.052 99.8 16.368 98.972 15.408 98.972C14.448 98.972 13.752 99.836 13.752 101.096ZM19.859 104V98.18H21.107V98.528C21.107 98.756 21.107 98.972 21.083 99.188C21.383 98.528 21.971 97.988 22.847 97.988C22.943 97.988 23.039 97.988 23.135 98.012V99.224C23.051 99.212 22.931 99.188 22.763 99.188C21.755 99.188 21.107 99.728 21.107 101.012V104H19.859ZM24.1246 104V98.18H25.3726V104H24.1246ZM24.0766 97.184V95.804H25.4326V97.184H24.0766ZM28.5194 104L26.3114 98.18H27.6554L29.0354 102.2C29.1314 102.452 29.1794 102.632 29.2394 102.86C29.2994 102.632 29.3594 102.452 29.4434 102.2L30.7994 98.18H32.0954L29.9234 104H28.5194ZM35.4577 104.192C33.7177 104.192 32.5657 103.088 32.5657 101.072C32.5657 99.26 33.7657 97.988 35.4097 97.988C37.1617 97.988 38.1577 99.212 38.1577 101.096V101.36H33.8257C33.8497 102.488 34.5217 103.22 35.4697 103.22C36.1417 103.22 36.7297 102.896 36.8497 102.152H38.1097C37.9897 103.256 37.0777 104.192 35.4577 104.192ZM33.8377 100.472H36.8497C36.8377 99.56 36.2977 98.936 35.3977 98.936C34.5217 98.936 33.9217 99.596 33.8377 100.472ZM41.6367 104.192C40.0287 104.192 39.0687 103.34 39.0087 102.032H40.2567C40.2927 102.776 40.7727 103.244 41.6247 103.244C42.3567 103.244 42.8367 102.908 42.8367 102.392C42.8367 101.972 42.5127 101.732 41.8527 101.6L41.0607 101.444C39.9087 101.228 39.2127 100.664 39.2127 99.728C39.2127 98.732 40.1607 97.988 41.5407 97.988C43.0167 97.988 43.9287 98.732 43.9887 99.932H42.7407C42.6807 99.296 42.2247 98.936 41.5047 98.936C40.8807 98.936 40.4487 99.212 40.4487 99.668C40.4487 100.076 40.7367 100.28 41.4327 100.412L42.2367 100.568C43.3287 100.784 44.0607 101.3 44.0607 102.296C44.0607 103.376 43.1367 104.192 41.6367 104.192ZM50.1479 104.096C49.0919 104.096 48.3719 103.58 48.3719 102.284V99.188H47.1599V98.18H48.3719V96.164H49.6199V98.18H50.9399V99.188H49.6199V102.116C49.6199 102.764 49.9079 103.052 50.4719 103.052C50.6159 103.052 50.7599 103.04 50.9159 103.016V104.012C50.7359 104.06 50.4479 104.096 50.1479 104.096ZM52.0973 104V98.18H53.3453V98.528C53.3453 98.756 53.3453 98.972 53.3213 99.188C53.6213 98.528 54.2093 97.988 55.0853 97.988C55.1813 97.988 55.2773 97.988 55.3733 98.012V99.224C55.2893 99.212 55.1693 99.188 55.0013 99.188C53.9933 99.188 53.3453 99.728 53.3453 101.012V104H52.0973ZM57.9374 104.192C56.8814 104.192 55.9334 103.52 55.9334 102.404C55.9334 101.18 56.8934 100.688 58.0334 100.532L59.0774 100.376C59.5334 100.316 59.6894 100.148 59.6894 99.824C59.6894 99.308 59.2814 98.936 58.6334 98.936C57.8414 98.936 57.3974 99.368 57.3614 100.028H56.0894C56.1494 98.888 57.0614 97.988 58.5494 97.988C60.1574 97.988 60.9254 98.888 60.9254 100.376V104H59.7614V103.736C59.7614 103.556 59.7734 103.388 59.7854 103.208C59.4854 103.796 58.8734 104.192 57.9374 104.192ZM57.2174 102.368C57.2174 102.932 57.6614 103.256 58.2134 103.256C59.0654 103.256 59.7134 102.656 59.7134 101.768V101.024C59.6174 101.144 59.4014 101.216 59.0534 101.276L58.3934 101.408C57.7094 101.54 57.2174 101.804 57.2174 102.368ZM64.1855 99.188V104H62.9375V99.188H61.8095V98.18H62.9375V97.304C62.9375 96.044 63.6935 95.396 64.7015 95.396C65.0135 95.396 65.2655 95.456 65.3855 95.504V96.512C65.2895 96.488 65.1455 96.464 65.0015 96.464C64.5095 96.464 64.1855 96.752 64.1855 97.28V98.18H66.6815V97.304C66.6815 96.044 67.4375 95.396 68.4455 95.396C68.7575 95.396 69.0095 95.456 69.1295 95.504V96.512C69.0335 96.488 68.8895 96.464 68.7455 96.464C68.2535 96.464 67.9295 96.752 67.9295 97.28V98.18H69.1415V99.188H67.9295V104H66.6815V99.188H64.1855ZM70.1324 104V98.18H71.3804V104H70.1324ZM70.0844 97.184V95.804H71.4404V97.184H70.0844ZM75.5832 104.192C73.8672 104.192 72.6672 103.076 72.6672 101.084C72.6672 99.188 73.9632 97.988 75.6432 97.988C77.1792 97.988 78.1512 98.912 78.2832 100.256H77.0112C76.9392 99.548 76.4712 98.972 75.6312 98.972C74.6472 98.972 73.9392 99.812 73.9392 101.084C73.9392 102.356 74.6112 103.22 75.6192 103.22C76.4952 103.22 76.9872 102.668 77.0832 101.912H78.3312C78.1752 103.28 77.2392 104.192 75.5832 104.192ZM79.4468 105.296C79.8548 105.176 80.2028 104.936 80.2028 104.228V104H79.4348V102.404H81.0308V104.072C81.0308 105.38 80.3348 105.932 79.4468 106.04V105.296ZM86.6015 104.192C85.5455 104.192 84.5975 103.52 84.5975 102.404C84.5975 101.18 85.5575 100.688 86.6975 100.532L87.7415 100.376C88.1975 100.316 88.3535 100.148 88.3535 99.824C88.3535 99.308 87.9455 98.936 87.2975 98.936C86.5055 98.936 86.0615 99.368 86.0255 100.028H84.7535C84.8135 98.888 85.7255 97.988 87.2135 97.988C88.8215 97.988 89.5895 98.888 89.5895 100.376V104H88.4255V103.736C88.4255 103.556 88.4375 103.388 88.4495 103.208C88.1495 103.796 87.5375 104.192 86.6015 104.192ZM85.8815 102.368C85.8815 102.932 86.3255 103.256 86.8775 103.256C87.7295 103.256 88.3775 102.656 88.3775 101.768V101.024C88.2815 101.144 88.0655 101.216 87.7175 101.276L87.0575 101.408C86.3735 101.54 85.8815 101.804 85.8815 102.368ZM91.1441 104V98.18H92.3921V98.504C92.3921 98.66 92.3801 98.804 92.3681 98.984C92.6801 98.444 93.3041 97.988 94.1561 97.988C95.4761 97.988 96.2561 98.864 96.2561 100.328V104H95.0081V100.496C95.0081 99.524 94.6241 98.972 93.8201 98.972C92.9561 98.972 92.3921 99.68 92.3921 100.544V104H91.1441ZM100.152 104.192C98.6158 104.192 97.4758 103.112 97.4758 101.096C97.4758 99.176 98.6638 97.988 100.176 97.988C101.112 97.988 101.712 98.48 102.012 98.984C101.988 98.804 101.988 98.636 101.988 98.468V95.6H103.236V104H101.988V103.712C101.988 103.52 101.988 103.364 102.012 103.196C101.736 103.676 101.124 104.192 100.152 104.192ZM98.7598 101.096C98.7598 102.38 99.4438 103.22 100.416 103.22C101.364 103.22 102.06 102.368 102.06 101.084C102.06 99.8 101.376 98.972 100.416 98.972C99.4558 98.972 98.7598 99.836 98.7598 101.096ZM110.094 104.192C108.354 104.192 107.202 103.088 107.202 101.072C107.202 99.26 108.402 97.988 110.046 97.988C111.798 97.988 112.794 99.212 112.794 101.096V101.36H108.462C108.486 102.488 109.158 103.22 110.106 103.22C110.778 103.22 111.366 102.896 111.486 102.152H112.746C112.626 103.256 111.714 104.192 110.094 104.192ZM108.474 100.472H111.486C111.474 99.56 110.934 98.936 110.034 98.936C109.158 98.936 108.558 99.596 108.474 100.472ZM114.089 104V98.18H115.337V98.504C115.337 98.66 115.325 98.804 115.313 98.984C115.625 98.444 116.249 97.988 117.101 97.988C118.421 97.988 119.201 98.864 119.201 100.328V104H117.953V100.496C117.953 99.524 117.569 98.972 116.765 98.972C115.901 98.972 115.337 99.68 115.337 100.544V104H114.089ZM120.769 104V95.6H122.017V98.456C122.017 98.624 122.017 98.792 121.993 98.984C122.317 98.42 122.929 97.988 123.781 97.988C125.101 97.988 125.881 98.864 125.881 100.328V104H124.633V100.496C124.633 99.524 124.237 98.972 123.433 98.972C122.581 98.972 122.017 99.68 122.017 100.544V104H120.769ZM129.129 104.192C128.073 104.192 127.125 103.52 127.125 102.404C127.125 101.18 128.085 100.688 129.225 100.532L130.269 100.376C130.725 100.316 130.881 100.148 130.881 99.824C130.881 99.308 130.473 98.936 129.825 98.936C129.033 98.936 128.589 99.368 128.553 100.028H127.281C127.341 98.888 128.253 97.988 129.741 97.988C131.349 97.988 132.117 98.888 132.117 100.376V104H130.953V103.736C130.953 103.556 130.965 103.388 130.977 103.208C130.677 103.796 130.065 104.192 129.129 104.192ZM128.409 102.368C128.409 102.932 128.853 103.256 129.405 103.256C130.257 103.256 130.905 102.656 130.905 101.768V101.024C130.809 101.144 130.593 101.216 130.245 101.276L129.585 101.408C128.901 101.54 128.409 101.804 128.409 102.368ZM133.671 104V98.18H134.919V98.504C134.919 98.66 134.907 98.804 134.895 98.984C135.207 98.444 135.831 97.988 136.683 97.988C138.003 97.988 138.783 98.864 138.783 100.328V104H137.535V100.496C137.535 99.524 137.151 98.972 136.347 98.972C135.483 98.972 134.919 99.68 134.919 100.544V104H133.671ZM142.919 104.192C141.203 104.192 140.003 103.076 140.003 101.084C140.003 99.188 141.299 97.988 142.979 97.988C144.515 97.988 145.487 98.912 145.619 100.256H144.347C144.275 99.548 143.807 98.972 142.967 98.972C141.983 98.972 141.275 99.812 141.275 101.084C141.275 102.356 141.947 103.22 142.955 103.22C143.831 103.22 144.323 102.668 144.419 101.912H145.667C145.511 103.28 144.575 104.192 142.919 104.192ZM149.411 104.192C147.671 104.192 146.519 103.088 146.519 101.072C146.519 99.26 147.719 97.988 149.363 97.988C151.115 97.988 152.111 99.212 152.111 101.096V101.36H147.779C147.803 102.488 148.475 103.22 149.423 103.22C150.095 103.22 150.683 102.896 150.803 102.152H152.063C151.943 103.256 151.031 104.192 149.411 104.192ZM147.791 100.472H150.803C150.791 99.56 150.251 98.936 149.351 98.936C148.475 98.936 147.875 99.596 147.791 100.472ZM155.59 104.192C153.982 104.192 153.022 103.34 152.962 102.032H154.21C154.246 102.776 154.726 103.244 155.578 103.244C156.31 103.244 156.79 102.908 156.79 102.392C156.79 101.972 156.466 101.732 155.806 101.6L155.014 101.444C153.862 101.228 153.166 100.664 153.166 99.728C153.166 98.732 154.114 97.988 155.494 97.988C156.97 97.988 157.882 98.732 157.942 99.932H156.694C156.634 99.296 156.178 98.936 155.458 98.936C154.834 98.936 154.402 99.212 154.402 99.668C154.402 100.076 154.69 100.28 155.386 100.412L156.19 100.568C157.282 100.784 158.014 101.3 158.014 102.296C158.014 103.376 157.09 104.192 155.59 104.192ZM165.116 104.192C162.968 104.192 161.648 103.028 161.564 101.204H162.944C163.016 102.392 163.94 103.076 165.164 103.076C166.316 103.076 167.072 102.596 167.072 101.732C167.072 101.012 166.508 100.664 165.548 100.46L164.204 100.172C162.908 99.896 161.864 99.14 161.864 97.832C161.864 96.404 163.196 95.396 165.032 95.396C167 95.396 168.188 96.452 168.284 98.048H166.904C166.856 97.16 166.184 96.512 164.984 96.512C163.976 96.512 163.22 96.98 163.22 97.712C163.22 98.396 163.748 98.732 164.66 98.924L166.112 99.236C167.432 99.512 168.44 100.244 168.44 101.588C168.44 103.064 167.228 104.192 165.116 104.192ZM169.946 104V95.6H175.598V96.716H171.278V99.116H175.406V100.256H171.278V102.872H175.754V104H169.946ZM180.763 104.192C178.459 104.192 176.719 102.524 176.719 99.8C176.719 97.124 178.459 95.396 180.763 95.396C183.079 95.396 184.831 97.148 184.831 99.8C184.831 102.524 183.067 104.192 180.763 104.192ZM178.099 99.8C178.099 101.852 179.167 103.076 180.763 103.076C182.359 103.076 183.451 101.864 183.451 99.8C183.451 97.784 182.359 96.524 180.763 96.524C179.179 96.524 178.099 97.772 178.099 99.8Z" fill="#464134"/>
</g>
<path d="M0.5 16C0.5 7.43959 7.43959 0.5 16 0.5H253C261.56 0.5 268.5 7.43959 268.5 16V131C268.5 139.56 261.56 146.5 253 146.5H16C7.43958 146.5 0.5 139.56 0.5 131V16Z" stroke="#EEECE8"/>
<defs>
<clipPath id="clip0_3457_93117">
<path d="M0 16C0 7.16345 7.16344 0 16 0H253C261.837 0 269 7.16344 269 16V131C269 139.837 261.837 147 253 147H16C7.16344 147 0 139.837 0 131V16Z" fill="white"/>
</clipPath>
<clipPath id="clip1_3457_93117">
<rect width="14" height="14" fill="white" transform="translate(19 19)"/>
</clipPath>
</defs>
</svg>
