<svg width="24" height="24" viewBox="0 0 24 24" fill="none" xmlns="http://www.w3.org/2000/svg">
<g opacity="0.12">
<path d="M5.39426 19.514L5.13576 15.8951C5.08922 15.2435 5.06595 14.9177 5.18255 14.6771C5.28485 14.466 5.45814 14.2976 5.67209 14.2013C5.91591 14.0916 6.24091 14.1241 6.8909 14.1891L8.66709 14.3667C9.14122 14.4141 9.37828 14.4378 9.5627 14.5429C9.72528 14.6355 9.8586 14.7719 9.94751 14.9366C10.0484 15.1234 10.0666 15.3609 10.1032 15.836L10.3679 19.2773C10.4139 19.8757 10.4369 20.1749 10.3346 20.4055C10.2447 20.6081 10.0901 20.7751 9.89491 20.8803C9.67281 21 9.37274 21 8.7726 21H6.99019C6.46521 21 6.20272 21 5.99669 20.9005C5.81529 20.8129 5.66457 20.6726 5.56427 20.4979C5.45036 20.2995 5.43166 20.0376 5.39426 19.514Z" fill="#2F2B23"/>
<path d="M22.0004 9.5C22.0004 13.0899 20.4334 16 18.5004 16C16.5674 16 15.0004 13.0899 15.0004 9.5C15.0004 5.91015 16.5674 3 18.5004 3C20.4334 3 22.0004 5.91015 22.0004 9.5Z" fill="#2F2B23"/>
</g>
<path d="M5 14L5.39386 19.514C5.43126 20.0376 5.44996 20.2995 5.56387 20.4979C5.66417 20.6726 5.81489 20.8129 5.99629 20.9005C6.20232 21 6.46481 21 6.98979 21H8.7722C9.37234 21 9.67242 21 9.89451 20.8803C10.0897 20.7751 10.2443 20.6081 10.3342 20.4055C10.4365 20.1749 10.4135 19.8757 10.3675 19.2773L10 14.5M18.5 16C20.433 16 22 13.0899 22 9.5C22 5.91015 20.433 3 18.5 3M18.5 16C16.567 16 15 13.0899 15 9.5C15 5.91015 16.567 3 18.5 3M18.5 16L5.44354 13.6261C4.51605 13.4575 4.05231 13.3731 3.67733 13.189C2.91447 12.8142 2.34636 12.1335 2.11414 11.3159C2 10.914 2 10.4427 2 9.5C2 8.5573 2 8.08595 2.11414 7.68407C2.34636 6.86649 2.91447 6.18577 3.67733 5.81105C4.05231 5.62685 4.51605 5.54254 5.44354 5.3739L18.5 3" stroke="#2F2B23" stroke-width="1.5" stroke-linecap="round"/>
</svg>
