<svg width="24" height="24" viewBox="0 0 24 24" fill="none" xmlns="http://www.w3.org/2000/svg">
<path d="M7 22H6.125C6.125 22.3364 6.3178 22.6429 6.62096 22.7886C6.92412 22.9343 7.28396 22.8934 7.54661 22.6833L7 22ZM12 18V17.125H11.6931L11.4534 17.3167L12 18ZM7 18H7.875V17.125H7V18ZM20.673 16.362L21.4527 16.7592L21.4527 16.7592L20.673 16.362ZM19.362 17.673L19.7592 18.4527L19.7592 18.4527L19.362 17.673ZM19.362 3.32698L19.7592 2.54735L19.7592 2.54735L19.362 3.32698ZM20.673 4.63803L21.4527 4.24079L21.4527 4.24079L20.673 4.63803ZM3.10222 15.7765L3.94741 15.55L3.10222 15.7765ZM5.22354 17.8978L5.45001 17.0526L5.22354 17.8978ZM4.63803 3.32698L4.24079 2.54735L4.24079 2.54735L4.63803 3.32698ZM3.32698 4.63803L2.54735 4.24079L2.54735 4.24079L3.32698 4.63803ZM9.17458 7.71187L8.88422 8.53729L10.5351 9.11802L10.8254 8.2926L9.17458 7.71187ZM14.3692 8.75168L13.4942 8.75037V8.75168H14.3692ZM11.8442 10.1699L11.0141 10.4466L11.5675 12.1068L12.3976 11.8301L11.8442 10.1699ZM12.1499 13.125H11.2749V14.875H12.1499V13.125ZM12.1599 14.875H13.0349V13.125H12.1599V14.875ZM7.8 3.875H16.2V2.125H7.8V3.875ZM20.125 7.8V13.2H21.875V7.8H20.125ZM16.2 17.125H12V18.875H16.2V17.125ZM11.4534 17.3167L6.45339 21.3167L7.54661 22.6833L12.5466 18.6833L11.4534 17.3167ZM3.875 14V7.8H2.125V14H3.875ZM7.875 22V18H6.125V22H7.875ZM20.125 13.2C20.125 14.0545 20.1243 14.6428 20.087 15.0991C20.0506 15.5453 19.9836 15.7878 19.8934 15.9647L21.4527 16.7592C21.6895 16.2944 21.7859 15.796 21.8312 15.2416C21.8757 14.6975 21.875 14.0256 21.875 13.2H20.125ZM16.2 18.875C17.0256 18.875 17.6975 18.8757 18.2416 18.8312C18.796 18.7859 19.2944 18.6895 19.7592 18.4527L18.9647 16.8934C18.7878 16.9836 18.5453 17.0506 18.0991 17.087C17.6428 17.1243 17.0545 17.125 16.2 17.125V18.875ZM19.8934 15.9647C19.6897 16.3646 19.3646 16.6897 18.9647 16.8934L19.7592 18.4527C20.4883 18.0811 21.0811 17.4883 21.4527 16.7592L19.8934 15.9647ZM16.2 3.875C17.0545 3.875 17.6428 3.87568 18.0991 3.91297C18.5453 3.94942 18.7878 4.01645 18.9647 4.10661L19.7592 2.54735C19.2944 2.31053 18.796 2.21407 18.2416 2.16878C17.6975 2.12432 17.0256 2.125 16.2 2.125V3.875ZM21.875 7.8C21.875 6.97436 21.8757 6.30251 21.8312 5.75835C21.7859 5.20399 21.6895 4.70556 21.4527 4.24079L19.8934 5.03527C19.9836 5.21223 20.0506 5.45471 20.087 5.90086C20.1243 6.35722 20.125 6.94548 20.125 7.8H21.875ZM18.9647 4.10661C19.3646 4.31034 19.6897 4.63543 19.8934 5.03527L21.4527 4.24079C21.0811 3.51166 20.4883 2.91886 19.7592 2.54735L18.9647 4.10661ZM2.125 14C2.125 14.8736 2.11748 15.4821 2.25704 16.0029L3.94741 15.55C3.88252 15.3078 3.875 14.9863 3.875 14H2.125ZM7 17.125C6.01369 17.125 5.69219 17.1175 5.45001 17.0526L4.99708 18.743C5.5179 18.8825 6.12636 18.875 7 18.875V17.125ZM2.25704 16.0029C2.61535 17.3402 3.65984 18.3847 4.99708 18.743L5.45001 17.0526C4.71669 16.8561 4.1439 16.2833 3.94741 15.55L2.25704 16.0029ZM7.8 2.125C6.97436 2.125 6.30251 2.12432 5.75835 2.16878C5.20399 2.21407 4.70556 2.31053 4.24079 2.54735L5.03527 4.10661C5.21223 4.01645 5.45471 3.94942 5.90086 3.91297C6.35722 3.87568 6.94548 3.875 7.8 3.875V2.125ZM3.875 7.8C3.875 6.94548 3.87568 6.35722 3.91297 5.90086C3.94942 5.45471 4.01645 5.21223 4.10661 5.03527L2.54735 4.24079C2.31053 4.70556 2.21407 5.20399 2.16878 5.75835C2.12432 6.30251 2.125 6.97436 2.125 7.8H3.875ZM4.24079 2.54735C3.51166 2.91886 2.91886 3.51166 2.54735 4.24079L4.10661 5.03527C4.31034 4.63543 4.63543 4.31034 5.03527 4.10661L4.24079 2.54735ZM10.8254 8.2926C10.933 7.98665 11.1455 7.72867 11.4251 7.56434L10.5384 6.05561C9.90248 6.42934 9.41935 7.01607 9.17458 7.71187L10.8254 8.2926ZM11.4251 7.56434C11.7047 7.40001 12.0334 7.33994 12.3531 7.39477L12.6489 5.66996C11.922 5.54526 11.1743 5.68188 10.5384 6.05561L11.4251 7.56434ZM12.3531 7.39477C12.6727 7.4496 12.9627 7.61579 13.1715 7.86391L14.5103 6.73691C14.0353 6.17262 13.3759 5.79466 12.6489 5.66996L12.3531 7.39477ZM13.1715 7.86391C13.3804 8.11202 13.4947 8.42605 13.4942 8.75037L15.2442 8.75298C15.2453 8.01538 14.9854 7.30119 14.5103 6.73691L13.1715 7.86391ZM13.4942 8.75168C13.4942 9.03661 13.2689 9.37039 12.7597 9.70988C12.5317 9.86187 12.2975 9.9796 12.1168 10.0599C12.0278 10.0995 11.9547 10.1286 11.906 10.1472C11.8818 10.1564 11.8637 10.163 11.853 10.1668C11.8477 10.1687 11.8442 10.1699 11.8427 10.1704C11.8419 10.1707 11.8417 10.1708 11.8419 10.1707C11.842 10.1706 11.8423 10.1705 11.8427 10.1704C11.8429 10.1704 11.8431 10.1703 11.8433 10.1702C11.8435 10.1702 11.8437 10.1701 11.8438 10.1701C11.844 10.17 11.8442 10.1699 12.1209 11C12.3976 11.8301 12.3979 11.83 12.3981 11.8299C12.3982 11.8299 12.3985 11.8298 12.3987 11.8297C12.3991 11.8296 12.3995 11.8295 12.4 11.8293C12.4009 11.829 12.402 11.8286 12.4032 11.8282C12.4056 11.8274 12.4086 11.8264 12.4121 11.8252C12.4191 11.8228 12.4282 11.8196 12.4393 11.8157C12.4615 11.8077 12.4918 11.7967 12.529 11.7825C12.6033 11.7543 12.7059 11.7131 12.8276 11.6591C13.0685 11.552 13.3963 11.3887 13.7304 11.166C14.3454 10.756 15.2442 9.96563 15.2442 8.75168H13.4942ZM12.1499 14.875H12.1599V13.125H12.1499V14.875Z" fill="#2F2B23"/>
</svg>
