<svg width="24" height="24" viewBox="0 0 24 24" fill="none" xmlns="http://www.w3.org/2000/svg">
<path opacity="0.12" d="M22 9V6.2C22 5.0799 22 4.51984 21.782 4.09202C21.5903 3.7157 21.2843 3.40974 20.908 3.21799C20.4802 3 19.9201 3 18.8 3L5.2 3C4.0799 3 3.51984 3 3.09202 3.21799C2.7157 3.40973 2.40973 3.71569 2.21799 4.09202C2 4.51984 2 5.07989 2 6.2L2 9L22 9Z" fill="#2F2B23"/>
<path d="M22 9H2M6 17.5L8.5 15L6 12.5M11 17.5H15M2 6.2L2 17.8C2 18.9201 2 19.4802 2.21799 19.908C2.40973 20.2843 2.71569 20.5903 3.09202 20.782C3.51984 21 4.07989 21 5.2 21L18.8 21C19.9201 21 20.4802 21 20.908 20.782C21.2843 20.5903 21.5903 20.2843 21.782 19.908C22 19.4802 22 18.9201 22 17.8V6.2C22 5.0799 22 4.51984 21.782 4.09202C21.5903 3.7157 21.2843 3.40974 20.908 3.21799C20.4802 3 19.9201 3 18.8 3L5.2 3C4.0799 3 3.51984 3 3.09202 3.21799C2.7157 3.40973 2.40973 3.71569 2.21799 4.09202C2 4.51984 2 5.0799 2 6.2Z" stroke="#2F2B23" stroke-width="1.5" stroke-linecap="square"/>
</svg>
