<svg width="24" height="24" viewBox="0 0 24 24" fill="none" xmlns="http://www.w3.org/2000/svg">
<path opacity="0.12" d="M4 13.2C4 12.0799 4 11.5198 4.21799 11.092C4.40973 10.7157 4.71569 10.4097 5.09202 10.218C5.51984 10 6.0799 10 7.2 10H16.8C17.9201 10 18.4802 10 18.908 10.218C19.2843 10.4097 19.5903 10.7157 19.782 11.092C20 11.5198 20 12.0799 20 13.2V18.8C20 19.9201 20 20.4802 19.782 20.908C19.5903 21.2843 19.2843 21.5903 18.908 21.782C18.4802 22 17.9201 22 16.8 22H7.2C6.07989 22 5.51984 22 5.09202 21.782C4.71569 21.5903 4.40973 21.2843 4.21799 20.908C4 20.4802 4 19.9201 4 18.8V13.2Z" fill="#2F2B23"/>
<path d="M17 10V8C17 5.23858 14.7614 3 12 3C9.23858 3 7 5.23858 7 8V10M12 15V17M7.2 22H16.8C17.9201 22 18.4802 22 18.908 21.782C19.2843 21.5903 19.5903 21.2843 19.782 20.908C20 20.4802 20 19.9201 20 18.8V13.2C20 12.0799 20 11.5198 19.782 11.092C19.5903 10.7157 19.2843 10.4097 18.908 10.218C18.4802 10 17.9201 10 16.8 10H7.2C6.07989 10 5.51984 10 5.09202 10.218C4.71569 10.4097 4.40973 10.7157 4.21799 11.092C4 11.5198 4 12.0799 4 13.2V18.8C4 19.9201 4 20.4802 4.21799 20.908C4.40973 21.2843 4.71569 21.5903 5.09202 21.782C5.51984 22 6.07989 22 7.2 22Z" stroke="#2F2B23" stroke-width="1.5" stroke-linecap="square"/>
</svg>
