<svg width="24" height="24" viewBox="0 0 24 24" fill="none" xmlns="http://www.w3.org/2000/svg">
<g opacity="0.12">
<path d="M20.1314 10.8685C19.7354 11.2645 19.5373 11.4625 19.309 11.5367C19.1082 11.6019 18.8918 11.6019 18.691 11.5367C18.4627 11.4625 18.2646 11.2645 17.8686 10.8685L13.1314 6.13122C12.7354 5.7352 12.5373 5.53719 12.4632 5.30887C12.3979 5.10802 12.3979 4.89168 12.4632 4.69083C12.5373 4.4625 12.7354 4.2645 13.1314 3.86848L13.8686 3.13122C14.2646 2.7352 14.4627 2.53719 14.691 2.46301C14.8918 2.39775 15.1082 2.39775 15.309 2.46301C15.5373 2.53719 15.7354 2.7352 16.1314 3.13122L20.8686 7.86848C21.2646 8.2645 21.4627 8.4625 21.5368 8.69083C21.6021 8.89168 21.6021 9.10802 21.5368 9.30887C21.4627 9.53719 21.2646 9.7352 20.8686 10.1312L20.1314 10.8685Z" fill="#2F2B23"/>
<path d="M13 12.9998C13 11.8953 12.1046 10.9998 11 10.9998C9.89543 10.9998 9 11.8953 9 12.9998C9 14.1044 9.89543 14.9998 11 14.9998C12.1046 14.9998 13 14.1044 13 12.9998Z" fill="#2F2B23"/>
</g>
<path d="M19 12L18.3813 12.6187C18.5454 12.7828 18.7679 12.875 19 12.875C19.2321 12.875 19.4546 12.7828 19.6187 12.6187L19 12ZM12 5L11.3813 4.38128C11.0396 4.72299 11.0396 5.27701 11.3813 5.61872L12 5ZM15 2L15.6187 1.38128C15.4546 1.21719 15.2321 1.125 15 1.125C14.7679 1.125 14.5454 1.21719 14.3813 1.38128L15 2ZM22 9L22.6187 9.61872C22.7828 9.45462 22.875 9.23206 22.875 9C22.875 8.76794 22.7828 8.54538 22.6187 8.38128L22 9ZM13.6085 7.36824C14.088 7.3083 14.4282 6.87099 14.3682 6.39147C14.3083 5.91195 13.871 5.57182 13.3915 5.63176L13.6085 7.36824ZM6.59738 7.36283L6.70591 8.23107L6.70591 8.23107L6.59738 7.36283ZM5.24051 8.57505L6.09108 8.78036L6.09108 8.78036L5.24051 8.57505ZM2 22L1.14943 21.7947L0.813466 23.1865L2.20531 22.8506L2 22ZM15.425 18.7595L15.2196 17.9089L15.2196 17.9089L15.425 18.7595ZM16.6372 17.4026L17.5054 17.5111L17.5054 17.5111L16.6372 17.4026ZM18.3682 10.6085C18.4282 10.129 18.088 9.6917 17.6085 9.63176C17.129 9.57182 16.6917 9.91195 16.6318 10.3915L18.3682 10.6085ZM16.1579 18.5156L16.6517 19.2379L16.6517 19.2379L16.1579 18.5156ZM16.4771 18.1583L17.2503 18.5679L17.2503 18.5679L16.4771 18.1583ZM5.84172 7.52291L5.43206 6.74973L5.43206 6.74974L5.84172 7.52291ZM5.48441 7.84213L4.7621 7.34826L4.7621 7.34826L5.48441 7.84213ZM10.2047 15.0327L10.8234 14.414L9.586 13.1766L8.96728 13.7953L10.2047 15.0327ZM11 11L11 11.875L11 11ZM13 13L13.875 13L13 13ZM11 15L11 15.875L11 15ZM9 13L9.875 13L9 13ZM19.6187 11.3813L12.6187 4.38128L11.3813 5.61872L18.3813 12.6187L19.6187 11.3813ZM12.6187 5.61872L15.6187 2.61872L14.3813 1.38128L11.3813 4.38128L12.6187 5.61872ZM14.3813 2.61872L21.3813 9.61872L22.6187 8.38128L15.6187 1.38128L14.3813 2.61872ZM21.3813 8.38128L18.3813 11.3813L19.6187 12.6187L22.6187 9.61872L21.3813 8.38128ZM13.3915 5.63176L6.48885 6.49458L6.70591 8.23107L13.6085 7.36824L13.3915 5.63176ZM4.38993 8.36974L1.14943 21.7947L2.85057 22.2053L6.09108 8.78036L4.38993 8.36974ZM2.20531 22.8506L15.6303 19.6101L15.2196 17.9089L1.79469 21.1494L2.20531 22.8506ZM17.5054 17.5111L18.3682 10.6085L16.6318 10.3915L15.7689 17.2941L17.5054 17.5111ZM15.6303 19.6101C15.9485 19.5333 16.3358 19.4539 16.6517 19.2379L15.664 17.7933C15.6862 17.7781 15.6892 17.7841 15.6181 17.8064C15.5368 17.8319 15.4246 17.8594 15.2196 17.9089L15.6303 19.6101ZM15.7689 17.2941C15.7428 17.5034 15.728 17.6179 15.7118 17.7015C15.6976 17.7747 15.6913 17.7724 15.7039 17.7486L17.2503 18.5679C17.4294 18.2298 17.4648 17.836 17.5054 17.5111L15.7689 17.2941ZM16.6517 19.2379C16.9026 19.0664 17.108 18.8365 17.2503 18.5679L15.7039 17.7486C15.6944 17.7665 15.6807 17.7819 15.664 17.7933L16.6517 19.2379ZM6.48885 6.49458C6.16401 6.53519 5.77022 6.57056 5.43206 6.74973L6.25137 8.29609C6.22762 8.30868 6.22534 8.30239 6.29845 8.28822C6.38215 8.272 6.49665 8.25723 6.70591 8.23107L6.48885 6.49458ZM6.09108 8.78036C6.14056 8.57535 6.16809 8.46323 6.19361 8.38189C6.2159 8.31083 6.22188 8.3138 6.20671 8.33599L4.7621 7.34826C4.5461 7.66418 4.46675 8.05151 4.38993 8.36974L6.09108 8.78036ZM5.43206 6.74974C5.16354 6.89201 4.93362 7.09741 4.7621 7.34826L6.20671 8.33599C6.21815 8.31927 6.23347 8.30557 6.25138 8.29609L5.43206 6.74974ZM2.61872 22.6187L10.2047 15.0327L8.96728 13.7953L1.38128 21.3813L2.61872 22.6187ZM11 11.875C11.6213 11.875 12.125 12.3787 12.125 13L13.875 13C13.875 11.4122 12.5878 10.125 11 10.125L11 11.875ZM12.125 13C12.125 13.6213 11.6213 14.125 11 14.125L11 15.875C12.5878 15.875 13.875 14.5878 13.875 13L12.125 13ZM11 14.125C10.3787 14.125 9.875 13.6213 9.875 13L8.125 13C8.125 14.5878 9.41218 15.875 11 15.875L11 14.125ZM9.875 13C9.875 12.3787 10.3787 11.875 11 11.875L11 10.125C9.41218 10.125 8.125 11.4122 8.125 13L9.875 13Z" fill="#2F2B23"/>
</svg>
