<svg width="24" height="24" viewBox="0 0 24 24" fill="none" xmlns="http://www.w3.org/2000/svg">
<path d="M7 22H6.125C6.125 22.3364 6.3178 22.6429 6.62096 22.7886C6.92412 22.9343 7.28396 22.8934 7.54661 22.6833L7 22ZM12 18V17.125H11.6931L11.4534 17.3167L12 18ZM7 18H7.875V17.125H7V18ZM20.673 16.362L21.4527 16.7592L21.4527 16.7592L20.673 16.362ZM19.362 17.673L19.7592 18.4527L19.7592 18.4527L19.362 17.673ZM19.362 3.32698L19.7592 2.54735L19.7592 2.54735L19.362 3.32698ZM20.673 4.63803L21.4527 4.24079L21.4527 4.24079L20.673 4.63803ZM3.10222 15.7765L3.94741 15.55L3.10222 15.7765ZM5.22354 17.8978L5.45001 17.0526L5.22354 17.8978ZM4.63803 3.32698L4.24079 2.54735L4.24079 2.54735L4.63803 3.32698ZM3.32698 4.63803L2.54735 4.24079L2.54735 4.24079L3.32698 4.63803ZM11.9969 7.69925L11.3355 8.27209L11.9969 9.0358L12.6583 8.27209L11.9969 7.69925ZM8.06889 10.9991L8.75654 10.458L8.75654 10.458L8.06889 10.9991ZM11.9969 14.75L11.4252 15.4124L11.9969 15.9058L12.5686 15.4124L11.9969 14.75ZM7.8 3.875H16.2V2.125H7.8V3.875ZM20.125 7.8V13.2H21.875V7.8H20.125ZM16.2 17.125H12V18.875H16.2V17.125ZM11.4534 17.3167L6.45339 21.3167L7.54661 22.6833L12.5466 18.6833L11.4534 17.3167ZM3.875 14V7.8H2.125V14H3.875ZM7.875 22V18H6.125V22H7.875ZM20.125 13.2C20.125 14.0545 20.1243 14.6428 20.087 15.0991C20.0506 15.5453 19.9836 15.7878 19.8934 15.9647L21.4527 16.7592C21.6895 16.2944 21.7859 15.796 21.8312 15.2416C21.8757 14.6975 21.875 14.0256 21.875 13.2H20.125ZM16.2 18.875C17.0256 18.875 17.6975 18.8757 18.2416 18.8312C18.796 18.7859 19.2944 18.6895 19.7592 18.4527L18.9647 16.8934C18.7878 16.9836 18.5453 17.0506 18.0991 17.087C17.6428 17.1243 17.0545 17.125 16.2 17.125V18.875ZM19.8934 15.9647C19.6897 16.3646 19.3646 16.6897 18.9647 16.8934L19.7592 18.4527C20.4883 18.0811 21.0811 17.4883 21.4527 16.7592L19.8934 15.9647ZM16.2 3.875C17.0545 3.875 17.6428 3.87568 18.0991 3.91297C18.5453 3.94942 18.7878 4.01645 18.9647 4.10661L19.7592 2.54735C19.2944 2.31053 18.796 2.21407 18.2416 2.16878C17.6975 2.12432 17.0256 2.125 16.2 2.125V3.875ZM21.875 7.8C21.875 6.97436 21.8757 6.30251 21.8312 5.75835C21.7859 5.20399 21.6895 4.70556 21.4527 4.24079L19.8934 5.03527C19.9836 5.21223 20.0506 5.45471 20.087 5.90086C20.1243 6.35722 20.125 6.94548 20.125 7.8H21.875ZM18.9647 4.10661C19.3646 4.31034 19.6897 4.63543 19.8934 5.03527L21.4527 4.24079C21.0811 3.51166 20.4883 2.91886 19.7592 2.54735L18.9647 4.10661ZM2.125 14C2.125 14.8736 2.11748 15.4821 2.25704 16.0029L3.94741 15.55C3.88252 15.3078 3.875 14.9863 3.875 14H2.125ZM7 17.125C6.01369 17.125 5.69219 17.1175 5.45001 17.0526L4.99708 18.743C5.5179 18.8825 6.12636 18.875 7 18.875V17.125ZM2.25704 16.0029C2.61535 17.3402 3.65984 18.3847 4.99708 18.743L5.45001 17.0526C4.71669 16.8561 4.1439 16.2833 3.94741 15.55L2.25704 16.0029ZM7.8 2.125C6.97436 2.125 6.30251 2.12432 5.75835 2.16878C5.20399 2.21407 4.70556 2.31053 4.24079 2.54735L5.03527 4.10661C5.21223 4.01645 5.45471 3.94942 5.90086 3.91297C6.35722 3.87568 6.94548 3.875 7.8 3.875V2.125ZM3.875 7.8C3.875 6.94548 3.87568 6.35722 3.91297 5.90086C3.94942 5.45471 4.01645 5.21223 4.10661 5.03527L2.54735 4.24079C2.31053 4.70556 2.21407 5.20399 2.16878 5.75835C2.12432 6.30251 2.125 6.97436 2.125 7.8H3.875ZM4.24079 2.54735C3.51166 2.91886 2.91886 3.51166 2.54735 4.24079L4.10661 5.03527C4.31034 4.63543 4.63543 4.31034 5.03527 4.10661L4.24079 2.54735ZM12.6583 7.12642C11.4999 5.78885 9.45937 5.35207 7.9053 6.66351L9.03392 8.00094C9.7344 7.40983 10.6945 7.53195 11.3355 8.27209L12.6583 7.12642ZM7.9053 6.66351C6.4231 7.9143 6.19996 10.0388 7.38124 11.5401L8.75654 10.458C8.16731 9.70914 8.26158 8.6527 9.03392 8.00094L7.9053 6.66351ZM16.6126 11.5401C17.786 10.0488 17.6019 7.90575 16.0794 6.65591L14.969 8.00854C15.7398 8.64125 15.8344 9.69915 15.2373 10.458L16.6126 11.5401ZM16.0794 6.65591C14.515 5.37173 12.5004 5.7813 11.3355 7.12642L12.6583 8.27209C13.2928 7.5395 14.2401 7.41019 14.969 8.00854L16.0794 6.65591ZM7.38124 11.5401C7.87649 12.1696 8.91561 13.1566 9.77427 13.9421C10.215 14.3452 10.6271 14.7123 10.9289 14.9784C11.0799 15.1116 11.2036 15.2197 11.2896 15.2947C11.3327 15.3322 11.3664 15.3614 11.3894 15.3814C11.4009 15.3914 11.4097 15.399 11.4158 15.4042C11.4188 15.4069 11.4211 15.4088 11.4227 15.4102C11.4235 15.4109 11.4241 15.4114 11.4245 15.4118C11.4247 15.412 11.4249 15.4121 11.425 15.4122C11.4251 15.4123 11.4251 15.4123 11.4252 15.4124C11.4252 15.4124 11.4252 15.4124 11.9969 14.75C12.5686 14.0876 12.5686 14.0876 12.5686 14.0876C12.5686 14.0876 12.5686 14.0875 12.5685 14.0875C12.5685 14.0875 12.5684 14.0874 12.5682 14.0872C12.5679 14.087 12.5674 14.0865 12.5667 14.086C12.5654 14.0848 12.5633 14.083 12.5606 14.0806C12.555 14.0758 12.5467 14.0686 12.5357 14.0591C12.5137 14.04 12.4811 14.0117 12.4392 13.9753C12.3555 13.9023 12.2345 13.7964 12.0864 13.6659C11.79 13.4045 11.3861 13.0448 10.9555 12.6508C10.0714 11.8421 9.14654 10.9536 8.75654 10.458L7.38124 11.5401ZM11.9969 14.75C12.5686 15.4124 12.5686 15.4124 12.5687 15.4124C12.5687 15.4123 12.5688 15.4123 12.5688 15.4122C12.5689 15.4121 12.5691 15.412 12.5693 15.4118C12.5697 15.4114 12.5704 15.4109 12.5712 15.4102C12.5727 15.4088 12.575 15.4069 12.5781 15.4042C12.5841 15.399 12.5929 15.3914 12.6045 15.3814C12.6275 15.3614 12.6611 15.3322 12.7042 15.2947C12.7903 15.2197 12.9139 15.1116 13.0649 14.9784C13.3667 14.7123 13.7789 14.3452 14.2196 13.9421C15.0782 13.1566 16.1173 12.1696 16.6126 11.5401L15.2373 10.458C14.8473 10.9536 13.9224 11.8421 13.0384 12.6508C12.6077 13.0448 12.2038 13.4045 11.9075 13.6659C11.7594 13.7964 11.6384 13.9023 11.5546 13.9753C11.5127 14.0117 11.4801 14.04 11.4582 14.0591C11.4472 14.0686 11.4388 14.0758 11.4333 14.0806C11.4305 14.083 11.4284 14.0848 11.4271 14.086C11.4264 14.0865 11.4259 14.087 11.4256 14.0872C11.4255 14.0874 11.4254 14.0875 11.4253 14.0875C11.4253 14.0875 11.4253 14.0876 11.4252 14.0876C11.4252 14.0876 11.4252 14.0876 11.9969 14.75Z" fill="#2F2B23"/>
</svg>
