<svg width="24" height="24" viewBox="0 0 24 24" fill="none" xmlns="http://www.w3.org/2000/svg">
<g opacity="0.12">
<path d="M14.572 19C14.7285 19 14.8068 19 14.8778 18.9784C14.9407 18.9593 14.9992 18.928 15.05 18.8863C15.1074 18.8391 15.1508 18.774 15.2376 18.6438L16.4666 15.8002C16.6498 15.5255 16.7414 15.3881 16.7497 15.2537C16.757 15.1358 16.7223 15.0191 16.6518 14.9243C16.5714 14.8163 16.4196 14.7512 16.1161 14.6211L13.5001 13.5L12.6583 13.2194C12.425 13.1416 12.3083 13.1027 12.2 13.1143C12.1047 13.1246 12.0143 13.162 11.9396 13.2222C11.8549 13.2905 11.7998 13.4005 11.6898 13.6206L11.1483 14.7036C11.0936 14.813 11.0663 14.8677 11.0529 14.9253C11.041 14.9764 11.0373 15.0291 11.0418 15.0814C11.0469 15.1403 11.0662 15.1983 11.1049 15.3144L11.8178 17.453C11.8833 17.6497 11.9161 17.7481 11.9769 17.8208C12.0306 17.885 12.0996 17.9347 12.1775 17.9653C12.2657 18 12.3694 18 12.5767 18L14.572 19Z" fill="#2F2B23"/>
<path d="M14.2706 2.94489C14.2866 2.70595 14.2945 2.58649 14.2534 2.48202C14.2188 2.39431 14.1506 2.30817 14.0732 2.25444C13.9809 2.19044 13.8713 2.17222 13.6521 2.13579C13.1148 2.04647 12.563 2 12.0003 2C8.34832 2 5.15357 3.95764 3.4082 6.88077C3.29265 7.07428 3.23488 7.17104 3.22449 7.28412C3.21577 7.37902 3.23852 7.48784 3.28454 7.57129C3.33937 7.67074 3.43818 7.74131 3.63579 7.88246L7.36433 11.5457C7.58745 11.705 7.69902 11.7847 7.81578 11.8031C7.91852 11.8192 8.02374 11.8029 8.11678 11.7565C8.22253 11.7037 8.30479 11.594 8.46931 11.3747L9.37541 9.16652C9.42194 9.10448 9.4452 9.07347 9.47254 9.04671C9.49682 9.02295 9.52345 9.00173 9.55203 8.98338C9.58422 8.9627 9.61965 8.94696 9.69051 8.91546L13.5591 7.19609C13.7195 7.12482 13.7996 7.08918 13.8601 7.03352C13.9136 6.9843 13.9557 6.924 13.9835 6.85684C14.0149 6.78091 14.0207 6.69336 14.0324 6.51825L14.2706 2.94489Z" fill="#2F2B23"/>
</g>
<path d="M3.07598 7.48282L7.21819 11.2827C7.48361 11.5262 7.61631 11.6479 7.7562 11.6745C7.87874 11.6977 8.00554 11.6743 8.11172 11.6089C8.23293 11.5342 8.31347 11.3731 8.47454 11.051L9.37164 9.25671C9.41919 9.16162 9.44297 9.11407 9.47518 9.07343C9.50376 9.03738 9.53717 9.00545 9.57448 8.97854C9.61654 8.94821 9.66513 8.92661 9.76228 8.88343L13.5588 7.19609C13.7192 7.12482 13.7993 7.08918 13.8598 7.03352C13.9133 6.9843 13.9554 6.924 13.9832 6.85684C14.0146 6.78091 14.0204 6.69336 14.0321 6.51826L14.3154 2.2694M11.8735 17.6205L11.0843 15.253C11.053 15.1591 11.0374 15.1122 11.0312 15.0642C11.0257 15.0216 11.0257 14.9784 11.0312 14.9358C11.0374 14.8878 11.053 14.8409 11.0843 14.747L11.5907 13.228C11.7262 12.8214 11.794 12.6181 11.9204 12.5242C12.0308 12.4422 12.1702 12.4093 12.3056 12.4333C12.4607 12.4607 12.6122 12.6122 12.9153 12.9153L13.3911 13.3911C13.4318 13.4318 13.4521 13.4521 13.4745 13.4699C13.4944 13.4857 13.5154 13.4999 13.5374 13.5125C13.5622 13.5267 13.5887 13.538 13.6416 13.5607L16.2202 14.6658C16.4915 14.7821 16.6272 14.8402 16.7054 14.9374C16.774 15.0229 16.8127 15.1285 16.8155 15.2381C16.8186 15.3627 16.7526 15.4948 16.6206 15.7589L15.3103 18.3794C15.2003 18.5995 15.1453 18.7095 15.0605 18.7778C14.9859 18.838 14.8954 18.8755 14.8001 18.8857C14.6919 18.8973 14.5752 18.8584 14.3418 18.7806L12.3795 18.1265C12.2403 18.0801 12.1708 18.0569 12.113 18.0174C12.0618 17.9824 12.0176 17.9382 11.9826 17.887C11.9431 17.8293 11.9199 17.7597 11.8735 17.6205ZM22 12C22 17.5228 17.5228 22 12 22C6.47715 22 2 17.5228 2 12C2 6.47715 6.47715 2 12 2C17.5228 2 22 6.47715 22 12Z" stroke="#2F2B23" stroke-width="1.5" stroke-linecap="round"/>
</svg>
