<svg width="24" height="24" viewBox="0 0 24 24" fill="none" xmlns="http://www.w3.org/2000/svg">
<path opacity="0.12" d="M6.2 21.0002H21.8L3 2.2002V17.8002C3 18.9203 3 19.4804 3.21799 19.9082C3.40973 20.2845 3.71569 20.5905 4.09202 20.7822C4.51984 21.0002 5.0799 21.0002 6.2 21.0002Z" fill="#2F2B23"/>
<path d="M21 21H6.2C5.07989 21 4.51984 21 4.09202 20.782C3.71569 20.5903 3.40973 20.2843 3.21799 19.908C3 19.4802 3 18.9201 3 17.8V3M21 7L16.6696 11.3304C16.2519 11.7481 16.043 11.957 15.8187 12.0876C15.2836 12.3992 14.6343 12.4453 14.0605 12.2125C13.82 12.115 13.5836 11.9377 13.111 11.5833C12.5882 11.1912 12.3269 10.9951 12.0654 10.8951C11.4405 10.656 10.7374 10.7453 10.192 11.133C9.96389 11.2951 9.75979 11.5503 9.35157 12.0605L7 15M21 7H17M21 7V11" stroke="#2F2B23" stroke-width="1.75" stroke-linecap="square"/>
</svg>
