<svg width="24" height="24" viewBox="0 0 24 24" fill="none" xmlns="http://www.w3.org/2000/svg">
<path d="M2.50178 6.28317C2.10589 6.00605 1.5603 6.10233 1.28317 6.49822C1.00605 6.89411 1.10233 7.4397 1.49822 7.71683L2.50178 6.28317ZM12 14L11.4982 14.7168C11.7995 14.9277 12.2005 14.9277 12.5018 14.7168L12 14ZM22.5018 7.71683C22.8977 7.4397 22.994 6.89411 22.7168 6.49822C22.4397 6.10233 21.8941 6.00605 21.4982 6.28317L22.5018 7.71683ZM3.09202 19.782L3.48926 19.0024L3.48926 19.0024L3.09202 19.782ZM2.21799 18.908L2.99762 18.5107L2.99762 18.5107L2.21799 18.908ZM21.782 18.908L21.0024 18.5107L21.0024 18.5107L21.782 18.908ZM20.908 19.782L20.5107 19.0024L20.5107 19.0024L20.908 19.782ZM20.908 4.21799L20.5107 4.99762L20.5107 4.99762L20.908 4.21799ZM21.782 5.09202L21.0024 5.48926L21.0024 5.48926L21.782 5.09202ZM3.09202 4.21799L3.48926 4.99762L3.48926 4.99762L3.09202 4.21799ZM2.21799 5.09202L2.99762 5.48926L2.99762 5.48926L2.21799 5.09202ZM1.49822 7.71683L11.4982 14.7168L12.5018 13.2832L2.50178 6.28317L1.49822 7.71683ZM12.5018 14.7168L22.5018 7.71683L21.4982 6.28317L11.4982 13.2832L12.5018 14.7168ZM5.2 4.875H18.8V3.125H5.2V4.875ZM21.125 7.2V16.8H22.875V7.2H21.125ZM18.8 19.125H5.2V20.875H18.8V19.125ZM2.875 16.8V7.2H1.125V16.8H2.875ZM5.2 19.125C4.62551 19.125 4.24727 19.1243 3.95766 19.1007C3.67826 19.0778 3.55926 19.0381 3.48926 19.0024L2.69478 20.5616C3.0526 20.744 3.42754 20.8132 3.81515 20.8448C4.19255 20.8757 4.65439 20.875 5.2 20.875V19.125ZM1.125 16.8C1.125 17.3456 1.12432 17.8074 1.15515 18.1848C1.18682 18.5725 1.25604 18.9474 1.43836 19.3052L2.99762 18.5107C2.96195 18.4407 2.92217 18.3217 2.89934 18.0423C2.87568 17.7527 2.875 17.3745 2.875 16.8H1.125ZM3.48926 19.0024C3.27758 18.8945 3.10548 18.7224 2.99762 18.5107L1.43836 19.3052C1.71399 19.8462 2.15381 20.286 2.69478 20.5616L3.48926 19.0024ZM21.125 16.8C21.125 17.3745 21.1243 17.7527 21.1007 18.0423C21.0778 18.3217 21.0381 18.4407 21.0024 18.5107L22.5616 19.3052C22.744 18.9474 22.8132 18.5725 22.8448 18.1848C22.8757 17.8074 22.875 17.3456 22.875 16.8H21.125ZM18.8 20.875C19.3456 20.875 19.8074 20.8757 20.1848 20.8448C20.5725 20.8132 20.9474 20.744 21.3052 20.5616L20.5107 19.0024C20.4407 19.0381 20.3217 19.0778 20.0423 19.1007C19.7527 19.1243 19.3745 19.125 18.8 19.125V20.875ZM21.0024 18.5107C20.8945 18.7224 20.7224 18.8945 20.5107 19.0024L21.3052 20.5616C21.8462 20.286 22.286 19.8462 22.5616 19.3052L21.0024 18.5107ZM18.8 4.875C19.3745 4.875 19.7527 4.87568 20.0423 4.89934C20.3217 4.92217 20.4407 4.96195 20.5107 4.99762L21.3052 3.43836C20.9474 3.25604 20.5725 3.18682 20.1848 3.15515C19.8074 3.12432 19.3456 3.125 18.8 3.125V4.875ZM22.875 7.2C22.875 6.65439 22.8757 6.19255 22.8448 5.81515C22.8132 5.42754 22.744 5.0526 22.5616 4.69478L21.0024 5.48926C21.0381 5.55926 21.0778 5.67826 21.1007 5.95766C21.1243 6.24727 21.125 6.62551 21.125 7.2H22.875ZM20.5107 4.99762C20.7224 5.10547 20.8945 5.27758 21.0024 5.48926L22.5616 4.69478C22.286 4.15381 21.8462 3.71399 21.3052 3.43836L20.5107 4.99762ZM5.2 3.125C4.65439 3.125 4.19255 3.12432 3.81515 3.15515C3.42754 3.18682 3.0526 3.25604 2.69478 3.43836L3.48926 4.99762C3.55926 4.96195 3.67826 4.92217 3.95766 4.89934C4.24726 4.87568 4.62551 4.875 5.2 4.875V3.125ZM2.875 7.2C2.875 6.62551 2.87568 6.24726 2.89934 5.95766C2.92217 5.67826 2.96195 5.55926 2.99762 5.48926L1.43836 4.69478C1.25604 5.0526 1.18682 5.42754 1.15515 5.81515C1.12432 6.19255 1.125 6.65439 1.125 7.2H2.875ZM2.69478 3.43836C2.15381 3.71399 1.71399 4.15381 1.43836 4.69478L2.99762 5.48926C3.10548 5.27758 3.27758 5.10548 3.48926 4.99762L2.69478 3.43836Z" fill="#2F2B23"/>
</svg>
