<svg width="24" height="24" viewBox="0 0 24 24" fill="none" xmlns="http://www.w3.org/2000/svg">
<path opacity="0.12" d="M3 8.8C3 7.11984 3 6.27976 3.32698 5.63803C3.6146 5.07354 4.07354 4.6146 4.63803 4.32698C5.27976 4 6.11984 4 7.8 4H16.2C17.8802 4 18.7202 4 19.362 4.32698C19.9265 4.6146 20.3854 5.07354 20.673 5.63803C21 6.27976 21 7.11984 21 8.8V10H3V8.8Z" fill="#2F2B23"/>
<path d="M9 16L11 18L15.5 13.5M21 10H3M16 2V6M8 2V6M6.2 22H17.8C18.9201 22 19.4802 22 19.908 21.782C20.2843 21.5903 20.5903 21.2843 20.782 20.908C21 20.4802 21 19.9201 21 18.8V7.2C21 6.0799 21 5.51984 20.782 5.09202C20.5903 4.71569 20.2843 4.40973 19.908 4.21799C19.4802 4 18.9201 4 17.8 4H6.2C5.0799 4 4.51984 4 4.09202 4.21799C3.71569 4.40973 3.40973 4.71569 3.21799 5.09202C3 5.51984 3 6.07989 3 7.2V18.8C3 19.9201 3 20.4802 3.21799 20.908C3.40973 21.2843 3.71569 21.5903 4.09202 21.782C4.51984 22 5.07989 22 6.2 22Z" stroke="#2F2B23" stroke-width="1.5" stroke-linecap="square"/>
</svg>
