<svg width="24" height="24" viewBox="0 0 24 24" fill="none" xmlns="http://www.w3.org/2000/svg">
<path opacity="0.12" d="M20.5 17.8V8H3.5V17.8C3.5 18.9201 3.5 19.4801 3.71799 19.9079C3.90973 20.2843 4.21569 20.5902 4.59202 20.782C5.01984 21 5.5799 21 6.7 21H17.3C18.4201 21 18.9802 21 19.408 20.782C19.7843 20.5902 20.0903 20.2843 20.282 19.9079C20.5 19.4801 20.5 18.9201 20.5 17.8Z" fill="#2F2B23"/>
<path d="M20.5 8V17.8C20.5 18.9201 20.5 19.4802 20.282 19.908C20.0903 20.2843 19.7843 20.5903 19.408 20.782C18.9802 21 18.4201 21 17.3 21H6.7C5.5799 21 5.01984 21 4.59202 20.782C4.21569 20.5903 3.90973 20.2843 3.71799 19.908C3.5 19.4802 3.5 18.9201 3.5 17.8V8M3.6 3H20.4C20.9601 3 21.2401 3 21.454 3.10899C21.6422 3.20487 21.7951 3.35785 21.891 3.54601C22 3.75992 22 4.03995 22 4.6V6.4C22 6.96005 22 7.24008 21.891 7.45399C21.7951 7.64215 21.6422 7.79513 21.454 7.89101C21.2401 8 20.9601 8 20.4 8H3.6C3.03995 8 2.75992 8 2.54601 7.89101C2.35785 7.79513 2.20487 7.64215 2.10899 7.45399C2 7.24008 2 6.96005 2 6.4V4.6C2 4.03995 2 3.75992 2.10899 3.54601C2.20487 3.35785 2.35785 3.20487 2.54601 3.10899C2.75992 3 3.03995 3 3.6 3ZM9.6 11.5H14.4C14.9601 11.5 15.2401 11.5 15.454 11.609C15.6422 11.7049 15.7951 11.8578 15.891 12.046C16 12.2599 16 12.5399 16 13.1V13.9C16 14.4601 16 14.7401 15.891 14.954C15.7951 15.1422 15.6422 15.2951 15.454 15.391C15.2401 15.5 14.9601 15.5 14.4 15.5H9.6C9.03995 15.5 8.75992 15.5 8.54601 15.391C8.35785 15.2951 8.20487 15.1422 8.10899 14.954C8 14.7401 8 14.4601 8 13.9V13.1C8 12.5399 8 12.2599 8.10899 12.046C8.20487 11.8578 8.35785 11.7049 8.54601 11.609C8.75992 11.5 9.03995 11.5 9.6 11.5Z" stroke="#2F2B23" stroke-width="1.5" stroke-linecap="square"/>
</svg>
