<svg width="24" height="24" viewBox="0 0 24 24" fill="none" xmlns="http://www.w3.org/2000/svg">
<path opacity="0.12" d="M18.8 7H17V17H18.8C19.9201 17 20.4802 17 20.908 16.782C21.2843 16.5903 21.5903 16.2843 21.782 15.908C22 15.4802 22 14.9201 22 13.8V10.2C22 9.0799 22 8.51984 21.782 8.09202C21.5903 7.71569 21.2843 7.40973 20.908 7.21799C20.4802 7 19.9201 7 18.8 7Z" fill="#2F2B23"/>
<path d="M13 7H3.6C3.03995 7 2.75992 7 2.54601 7.10899C2.35785 7.20487 2.20487 7.35785 2.10899 7.54601C2 7.75992 2 8.03995 2 8.6V15.4C2 15.9601 2 16.2401 2.10899 16.454C2.20487 16.6422 2.35785 16.7951 2.54601 16.891C2.75992 17 3.03995 17 3.6 17H13M17 7H20.4C20.9601 7 21.2401 7 21.454 7.10899C21.6422 7.20487 21.7951 7.35785 21.891 7.54601C22 7.75992 22 8.03995 22 8.6V15.4C22 15.9601 22 16.2401 21.891 16.454C21.7951 16.6422 21.6422 16.7951 21.454 16.891C21.2401 17 20.9601 17 20.4 17H17M17 21L17 3M19.5 3.00001L14.5 3M19.5 21L14.5 21" stroke="#2F2B23" stroke-width="1.75" stroke-linecap="square" stroke-linejoin="round"/>
</svg>
