<svg width="24" height="24" viewBox="0 0 24 24" fill="none" xmlns="http://www.w3.org/2000/svg">
<g opacity="0.12">
<path d="M8.49967 10.5C9.60424 10.5 10.4997 9.60457 10.4997 8.5C10.4997 7.39543 9.60424 6.5 8.49967 6.5C7.3951 6.5 6.49967 7.39543 6.49967 8.5C6.49967 9.60457 7.3951 10.5 8.49967 10.5Z" fill="#2F2B23"/>
<path d="M6.53082 19.608L14.9897 11.9181C15.3483 11.5921 15.5276 11.4291 15.7322 11.3627C15.9125 11.3041 16.1058 11.298 16.2895 11.3451C16.4978 11.3985 16.6871 11.5499 17.0655 11.8527L19.8627 14.0905C20.2409 14.3929 20.4299 14.5442 20.5729 14.7264C20.7526 14.9554 20.8802 15.2208 20.9467 15.5042C20.9997 15.7296 20.9997 15.9717 20.9997 16.456C20.9997 17.8951 20.9997 18.6147 20.7579 19.1799C20.4544 19.8894 19.8891 20.4547 19.1796 20.7582C18.6144 21 17.8948 21 16.4556 21H7.06896C6.42595 21 6.10445 21 5.96286 20.8755C5.84012 20.7676 5.77786 20.6066 5.7961 20.4442C5.81714 20.2568 6.05503 20.0406 6.53082 19.608Z" fill="#2F2B23"/>
</g>
<path d="M16.6187 4.38128L16 3.76256L14.7626 5L15.3813 5.61872L16.6187 4.38128ZM18 7L17.3813 7.61872L18 8.23744L18.6187 7.61872L18 7ZM22.6187 3.61872L23.2374 3L22 1.76256L21.3813 2.38128L22.6187 3.61872ZM12.5 3.875H13.375V2.125H12.5V3.875ZM4.09202 20.782L4.48926 20.0024L4.48926 20.0024L4.09202 20.782ZM3.21799 19.908L2.43836 20.3052L2.43836 20.3052L3.21799 19.908ZM19.908 20.782L19.5107 20.0024L19.5107 20.0024L19.908 20.782ZM20.782 19.908L20.0024 19.5107L20.0024 19.5107L20.782 19.908ZM3.21799 4.09202L2.43836 3.69478L2.43836 3.69478L3.21799 4.09202ZM4.09202 3.21799L3.69478 2.43836L3.69478 2.43836L4.09202 3.21799ZM14.99 11.9181L15.5786 12.5656L15.5786 12.5656L14.99 11.9181ZM5 21L4.41141 20.3526C4.14393 20.5957 4.05351 20.9783 4.18387 21.3155C4.31422 21.6527 4.6385 21.875 5 21.875V21ZM21 15H21.875V14.5795L21.5466 14.3167L21 15ZM17.0658 11.8527L17.6124 11.1694L17.6124 11.1694L17.0658 11.8527ZM13 21.875H13.875V20.125H13V21.875ZM15.7325 11.3627L15.4622 10.5305L15.4622 10.5305L15.7325 11.3627ZM16.2898 11.3451L16.0725 12.1927L16.0725 12.1927L16.2898 11.3451ZM15.3813 5.61872L17.3813 7.61872L18.6187 6.38128L16.6187 4.38128L15.3813 5.61872ZM18.6187 7.61872L22.6187 3.61872L21.3813 2.38128L17.3813 6.38128L18.6187 7.61872ZM17.8 20.125H6.2V21.875H17.8V20.125ZM3.875 17.8V6.2H2.125V17.8H3.875ZM6.2 3.875H12.5V2.125H6.2V3.875ZM6.2 20.125C5.62551 20.125 5.24726 20.1243 4.95766 20.1007C4.67826 20.0778 4.55926 20.0381 4.48926 20.0024L3.69478 21.5616C4.0526 21.744 4.42754 21.8132 4.81515 21.8448C5.19255 21.8757 5.65439 21.875 6.2 21.875V20.125ZM2.125 17.8C2.125 18.3456 2.12432 18.8074 2.15515 19.1848C2.18682 19.5725 2.25604 19.9474 2.43836 20.3052L3.99762 19.5107C3.96195 19.4407 3.92217 19.3217 3.89934 19.0423C3.87568 18.7527 3.875 18.3745 3.875 17.8H2.125ZM4.48926 20.0024C4.27758 19.8945 4.10548 19.7224 3.99762 19.5107L2.43836 20.3052C2.71399 20.8462 3.15381 21.286 3.69478 21.5616L4.48926 20.0024ZM17.8 21.875C18.3456 21.875 18.8074 21.8757 19.1848 21.8448C19.5725 21.8132 19.9474 21.744 20.3052 21.5616L19.5107 20.0024C19.4407 20.0381 19.3217 20.0778 19.0423 20.1007C18.7527 20.1243 18.3745 20.125 17.8 20.125V21.875ZM20.125 17.8C20.125 18.3745 20.1243 18.7527 20.1007 19.0423C20.0778 19.3217 20.0381 19.4407 20.0024 19.5107L21.5616 20.3052C21.744 19.9474 21.8132 19.5725 21.8448 19.1848C21.8757 18.8074 21.875 18.3456 21.875 17.8H20.125ZM20.3052 21.5616C20.8462 21.286 21.286 20.8462 21.5616 20.3052L20.0024 19.5107C19.8945 19.7224 19.7224 19.8945 19.5107 20.0024L20.3052 21.5616ZM3.875 6.2C3.875 5.62551 3.87568 5.24726 3.89934 4.95766C3.92217 4.67826 3.96195 4.55926 3.99762 4.48926L2.43836 3.69478C2.25604 4.0526 2.18682 4.42754 2.15515 4.81515C2.12432 5.19255 2.125 5.65439 2.125 6.2H3.875ZM6.2 2.125C5.65439 2.125 5.19255 2.12432 4.81515 2.15515C4.42754 2.18682 4.0526 2.25604 3.69478 2.43836L4.48926 3.99762C4.55926 3.96195 4.67826 3.92217 4.95766 3.89934C5.24727 3.87568 5.62551 3.875 6.2 3.875V2.125ZM3.99762 4.48926C4.10548 4.27758 4.27758 4.10548 4.48926 3.99762L3.69478 2.43836C3.15381 2.71399 2.71399 3.15381 2.43836 3.69478L3.99762 4.48926ZM9.625 8.5C9.625 9.12132 9.12132 9.625 8.5 9.625V11.375C10.0878 11.375 11.375 10.0878 11.375 8.5H9.625ZM8.5 9.625C7.87868 9.625 7.375 9.12132 7.375 8.5H5.625C5.625 10.0878 6.91218 11.375 8.5 11.375V9.625ZM7.375 8.5C7.375 7.87868 7.87868 7.375 8.5 7.375V5.625C6.91218 5.625 5.625 6.91218 5.625 8.5H7.375ZM8.5 7.375C9.12132 7.375 9.625 7.87868 9.625 8.5H11.375C11.375 6.91218 10.0878 5.625 8.5 5.625V7.375ZM14.4014 11.2707L4.41141 20.3526L5.58859 21.6474L15.5786 12.5656L14.4014 11.2707ZM21.5466 14.3167L17.6124 11.1694L16.5192 12.5359L20.4534 15.6833L21.5466 14.3167ZM5 21.875H13V20.125H5V21.875ZM15.5786 12.5656C15.7677 12.3937 15.874 12.2979 15.9569 12.2332C16.0313 12.1753 16.0355 12.1843 16.0028 12.1949L15.4622 10.5305C15.225 10.6076 15.0373 10.7313 14.8811 10.853C14.7337 10.9679 14.571 11.1166 14.4014 11.2707L15.5786 12.5656ZM17.6124 11.1694C17.4335 11.0263 17.2618 10.8881 17.1074 10.7827C16.9439 10.6711 16.7488 10.5595 16.5071 10.4975L16.0725 12.1927C16.0392 12.1842 16.0429 12.1749 16.1207 12.2281C16.2076 12.2874 16.3197 12.3763 16.5192 12.5359L17.6124 11.1694ZM16.0028 12.1949C16.0254 12.1876 16.0495 12.1868 16.0725 12.1927L16.5071 10.4975C16.1627 10.4092 15.8004 10.4207 15.4622 10.5305L16.0028 12.1949ZM20.125 15V17.8H21.875V15H20.125Z" fill="#2F2B23"/>
</svg>
