<svg width="24" height="24" viewBox="0 0 24 24" fill="none" xmlns="http://www.w3.org/2000/svg">
<path opacity="0.12" d="M17.0009 3L10.4045 12.235C10.1125 12.6438 9.96653 12.8481 9.97285 13.0185C9.97835 13.1669 10.0495 13.3051 10.167 13.3958C10.302 13.5 10.5532 13.5 11.0555 13.5H16.0009L15.0009 21L21.5973 11.765C21.8893 11.3562 22.0353 11.1519 22.029 10.9815C22.0235 10.8331 21.9523 10.6949 21.8348 10.6042C21.6998 10.5 21.4487 10.5 20.9464 10.5H16.0009L17.0009 3Z" fill="#2F2B23"/>
<path d="M9 17.5H3.5M6 12H2M9 6.5H4M16 4L8.5 13.5H15L14 20L21.5 10.5H15L16 4Z" stroke="#2F2B23" stroke-width="1.75" stroke-linecap="square"/>
</svg>
