<svg width="24" height="24" viewBox="0 0 24 24" fill="none" xmlns="http://www.w3.org/2000/svg">
<path opacity="0.12" d="M20 10H4V10.2C4 11.8802 4 12.7202 4.32698 13.362C4.6146 13.9265 5.07354 14.3854 5.63803 14.673C6.27976 15 7.11984 15 8.8 15H9.5V19.5C9.5 20.8807 10.6193 22 12 22C13.3807 22 14.5 20.8807 14.5 19.5V15H15.2C16.8802 15 17.7202 15 18.362 14.673C18.9265 14.3854 19.3854 13.9265 19.673 13.362C20 12.7202 20 11.8802 20 10.2V10Z" fill="#2F2B23"/>
<path d="M20 10V2H4V10M20 10H4M20 10V11.8C20 12.9201 20 13.4802 19.782 13.908C19.5903 14.2843 19.2843 14.5903 18.908 14.782C18.4802 15 17.9201 15 16.8 15H7.2C6.07989 15 5.51984 15 5.09202 14.782C4.71569 14.5903 4.40973 14.2843 4.21799 13.908C4 13.4802 4 12.9201 4 11.8V10M14.5 15V19.5C14.5 20.8807 13.3807 22 12 22C10.6193 22 9.5 20.8807 9.5 19.5V15" stroke="#2F2B23" stroke-width="1.75" stroke-linecap="square"/>
</svg>
