<svg width="24" height="24" viewBox="0 0 24 24" fill="none" xmlns="http://www.w3.org/2000/svg">
<path opacity="0.12" d="M9 10.6C9 10.0399 9 9.75992 9.10899 9.54601C9.20487 9.35785 9.35785 9.20487 9.54601 9.10899C9.75992 9 10.0399 9 10.6 9H13.4C13.9601 9 14.2401 9 14.454 9.10899C14.6422 9.20487 14.7951 9.35785 14.891 9.54601C15 9.75992 15 10.0399 15 10.6V13.4C15 13.9601 15 14.2401 14.891 14.454C14.7951 14.6422 14.6422 14.7951 14.454 14.891C14.2401 15 13.9601 15 13.4 15H10.6C10.0399 15 9.75992 15 9.54601 14.891C9.35785 14.7951 9.20487 14.6422 9.10899 14.454C9 14.2401 9 13.9601 9 13.4V10.6Z" fill="#2F2B23"/>
<path d="M9 2V4M15 2V4M9 20V22M15 20V22M20 9H22M20 14H22M2 9H4M2 14H4M7.2 20H16.8C17.9201 20 18.4802 20 18.908 19.782C19.2843 19.5903 19.5903 19.2843 19.782 18.908C20 18.4802 20 17.9201 20 16.8V7.2C20 6.07989 20 5.51984 19.782 5.09202C19.5903 4.71569 19.2843 4.40973 18.908 4.21799C18.4802 4 17.9201 4 16.8 4H7.2C6.07989 4 5.51984 4 5.09202 4.21799C4.71569 4.40973 4.40973 4.71569 4.21799 5.09202C4 5.51984 4 6.07989 4 7.2V16.8C4 17.9201 4 18.4802 4.21799 18.908C4.40973 19.2843 4.71569 19.5903 5.09202 19.782C5.51984 20 6.07989 20 7.2 20ZM10.6 15H13.4C13.9601 15 14.2401 15 14.454 14.891C14.6422 14.7951 14.7951 14.6422 14.891 14.454C15 14.2401 15 13.9601 15 13.4V10.6C15 10.0399 15 9.75992 14.891 9.54601C14.7951 9.35785 14.6422 9.20487 14.454 9.10899C14.2401 9 13.9601 9 13.4 9H10.6C10.0399 9 9.75992 9 9.54601 9.10899C9.35785 9.20487 9.20487 9.35785 9.10899 9.54601C9 9.75992 9 10.0399 9 10.6V13.4C9 13.9601 9 14.2401 9.10899 14.454C9.20487 14.6422 9.35785 14.7951 9.54601 14.891C9.75992 15 10.0399 15 10.6 15Z" stroke="#2F2B23" stroke-width="1.5" stroke-linecap="square"/>
</svg>
