<svg width="24" height="24" viewBox="0 0 24 24" fill="none" xmlns="http://www.w3.org/2000/svg">
<path opacity="0.12" d="M19.1213 7.12139L14.8787 2.87875C14.6222 2.62223 14.324 2.41696 14 2.26953V6.40007C14 6.96012 14 7.24015 14.109 7.45406C14.2049 7.64222 14.3578 7.7952 14.546 7.89108C14.7599 8.00007 15.0399 8.00007 15.6 8.00007H19.7305C19.5831 7.67611 19.3778 7.37792 19.1213 7.12139Z" fill="#2F2B23"/>
<path d="M14.75 2.26953C14.75 1.85532 14.4142 1.51953 14 1.51953C13.5858 1.51953 13.25 1.85532 13.25 2.26953H14.75ZM19.7305 8.75007C20.1448 8.75007 20.4805 8.41428 20.4805 8.00007C20.4805 7.58586 20.1448 7.25007 19.7305 7.25007V8.75007ZM14.109 7.45406L14.7772 7.11357L14.7772 7.11357L14.109 7.45406ZM14.546 7.89108L14.8865 7.22282L14.8865 7.22282L14.546 7.89108ZM14 2L14.5303 1.46967C14.3897 1.32902 14.1989 1.25 14 1.25V2ZM20 8H20.75C20.75 7.80109 20.671 7.61032 20.5303 7.46967L20 8ZM5.09202 21.782L5.43251 21.1138L5.09202 21.782ZM4.21799 20.908L4.88624 20.5675L4.21799 20.908ZM18.908 21.782L18.5675 21.1138L18.908 21.782ZM19.782 20.908L19.1138 20.5675L19.782 20.908ZM4.21799 3.09202L4.88624 3.43251L4.21799 3.09202ZM5.09202 2.21799L5.43251 2.88624L5.09202 2.21799ZM8.75 15V14.25H7.25V15H8.75ZM7.25 18V18.75H8.75V18H7.25ZM16.75 13V12.25H15.25V13H16.75ZM15.25 18V18.75H16.75V18H15.25ZM12.75 10.5V9.75H11.25V10.5H12.75ZM11.25 18V18.75H12.75V18H11.25ZM13.25 2.26953V6.40007H14.75V2.26953H13.25ZM15.6 8.75007H19.7305V7.25007H15.6V8.75007ZM13.25 6.40007C13.25 6.66772 13.2494 6.91357 13.2661 7.11794C13.2835 7.33108 13.3234 7.56425 13.4407 7.79455L14.7772 7.11357C14.7856 7.12996 14.771 7.11617 14.7611 6.9958C14.7506 6.86667 14.75 6.69247 14.75 6.40007H13.25ZM15.6 7.25007C15.3076 7.25007 15.1334 7.24949 15.0043 7.23894C14.8839 7.2291 14.8701 7.21447 14.8865 7.22282L14.2055 8.55933C14.4358 8.67668 14.669 8.71654 14.8821 8.73396C15.0865 8.75065 15.3323 8.75007 15.6 8.75007V7.25007ZM13.4407 7.79455C13.6085 8.12384 13.8762 8.39155 14.2055 8.55933L14.8865 7.22282C14.8395 7.19885 14.8012 7.16061 14.7772 7.11357L13.4407 7.79455ZM16.8 21.25H7.2V22.75H16.8V21.25ZM4.75 18.8V5.2H3.25V18.8H4.75ZM7.2 2.75H14V1.25H7.2V2.75ZM19.25 8V18.8H20.75V8H19.25ZM13.4697 2.53033L19.4697 8.53033L20.5303 7.46967L14.5303 1.46967L13.4697 2.53033ZM7.2 21.25C6.62757 21.25 6.24336 21.2494 5.94748 21.2252C5.66035 21.2018 5.52307 21.1599 5.43251 21.1138L4.75153 22.4503C5.08879 22.6221 5.44544 22.6892 5.82533 22.7203C6.19646 22.7506 6.65232 22.75 7.2 22.75V21.25ZM3.25 18.8C3.25 19.3477 3.24942 19.8035 3.27974 20.1747C3.31078 20.5546 3.37789 20.9112 3.54973 21.2485L4.88624 20.5675C4.8401 20.4769 4.79822 20.3396 4.77476 20.0525C4.75058 19.7566 4.75 19.3724 4.75 18.8H3.25ZM5.43251 21.1138C5.19731 20.9939 5.00608 20.8027 4.88624 20.5675L3.54973 21.2485C3.81338 21.7659 4.23408 22.1866 4.75153 22.4503L5.43251 21.1138ZM16.8 22.75C17.3477 22.75 17.8035 22.7506 18.1747 22.7203C18.5546 22.6892 18.9112 22.6221 19.2485 22.4503L18.5675 21.1138C18.4769 21.1599 18.3396 21.2018 18.0525 21.2252C17.7566 21.2494 17.3724 21.25 16.8 21.25V22.75ZM19.25 18.8C19.25 19.3724 19.2494 19.7566 19.2252 20.0525C19.2018 20.3396 19.1599 20.4769 19.1138 20.5675L20.4503 21.2485C20.6221 20.9112 20.6892 20.5546 20.7203 20.1747C20.7506 19.8035 20.75 19.3477 20.75 18.8H19.25ZM19.2485 22.4503C19.7659 22.1866 20.1866 21.7659 20.4503 21.2485L19.1138 20.5675C18.9939 20.8027 18.8027 20.9939 18.5675 21.1138L19.2485 22.4503ZM4.75 5.2C4.75 4.62757 4.75058 4.24336 4.77476 3.94748C4.79822 3.66035 4.8401 3.52307 4.88624 3.43251L3.54973 2.75153C3.37789 3.08879 3.31078 3.44545 3.27974 3.82533C3.24942 4.19646 3.25 4.65232 3.25 5.2H4.75ZM7.2 1.25C6.65232 1.25 6.19646 1.24942 5.82533 1.27974C5.44544 1.31078 5.08879 1.37789 4.75153 1.54973L5.43251 2.88624C5.52307 2.8401 5.66035 2.79822 5.94748 2.77476C6.24336 2.75058 6.62757 2.75 7.2 2.75V1.25ZM4.88624 3.43251C5.00608 3.19731 5.19731 3.00608 5.43251 2.88624L4.75153 1.54973C4.23408 1.81338 3.81338 2.23408 3.54973 2.75153L4.88624 3.43251ZM7.25 15V18H8.75V15H7.25ZM15.25 13V18H16.75V13H15.25ZM11.25 10.5V18H12.75V10.5H11.25Z" fill="#2F2B23"/>
</svg>
