<svg width="269" height="147" viewBox="0 0 269 147" fill="none" xmlns="http://www.w3.org/2000/svg">
<g clip-path="url(#clip0_131_13922)">
<path d="M0 16C0 7.16345 7.16344 0 16 0H253C261.837 0 269 7.16344 269 16V131C269 139.837 261.837 147 253 147H16C7.16344 147 0 139.837 0 131V16Z" fill="#FAFAFA"/>
<path d="M9 26C9 35.3888 16.6112 43 26 43C35.3888 43 43 35.3888 43 26C43 16.6112 35.3888 9 26 9C16.6112 9 9 16.6112 9 26Z" fill="#DEDDFD"/>
<path d="M9 26C9 35.3888 16.6112 43 26 43C35.3888 43 43 35.3888 43 26C43 16.6112 35.3888 9 26 9C16.6112 9 9 16.6112 9 26Z" stroke="#FAFAFA" stroke-width="6"/>
<g clip-path="url(#clip1_131_13922)">
<g opacity="0.12">
<path d="M21.7165 31.5321L21.0281 28.7784C20.9062 28.2908 20.8453 28.047 20.9075 27.862C20.962 27.7001 21.0766 27.5653 21.2277 27.4854C21.4002 27.3941 21.6506 27.415 22.1515 27.4567L23.6887 27.5848C24.0337 27.6136 24.2062 27.628 24.3368 27.7044C24.4518 27.7717 24.544 27.8718 24.6015 27.992C24.6668 28.1285 24.6668 28.3016 24.6668 28.6478V31.1689C24.6668 31.3213 24.6668 31.3975 24.6605 31.4617C24.599 32.0963 24.0967 32.5986 23.4621 32.6601C23.3979 32.6663 23.3217 32.6663 23.1693 32.6663C23.0476 32.6663 22.9867 32.6663 22.9324 32.6619C22.4024 32.6186 21.9489 32.2644 21.7783 31.7608C21.7608 31.7092 21.746 31.6502 21.7165 31.5321Z" fill="#2F2B23"/>
<path d="M30.3334 26.9997C31.6221 26.9997 32.6668 25.955 32.6668 24.6663C32.6668 23.3777 31.6221 22.333 30.3334 22.333V26.9997Z" fill="#2F2B23"/>
</g>
<path d="M21.3949 27.1511C21.2945 26.7493 20.8873 26.5049 20.4854 26.6054C20.0836 26.7059 19.8393 27.1131 19.9397 27.5149L21.3949 27.1511ZM21.7171 31.5321L20.9895 31.714L20.9895 31.714L21.7171 31.5321ZM25.4173 27.6663C25.4173 27.2521 25.0815 26.9163 24.6673 26.9163C24.2531 26.9163 23.9173 27.2521 23.9173 27.6663H25.4173ZM23.4627 32.6601L23.3903 31.9136L23.3903 31.9136L23.4627 32.6601ZM24.6611 31.4617L23.9146 31.3893L23.9146 31.3893L24.6611 31.4617ZM21.7788 31.7608L21.0685 32.0014L21.0685 32.0014L21.7788 31.7608ZM22.933 32.6619L22.9941 31.9144L22.9941 31.9144L22.933 32.6619ZM30.334 26.2497H29.584V27.7497H30.334V26.2497ZM30.334 21.583H29.584V23.083H30.334V21.583ZM30.334 29.9997L29.8953 30.608C30.1237 30.7727 30.425 30.7956 30.6757 30.6673C30.9263 30.539 31.084 30.2812 31.084 29.9997H30.334ZM30.334 19.333H31.084C31.084 19.0515 30.9263 18.7936 30.6757 18.6654C30.425 18.5371 30.1237 18.56 29.8953 18.7247L30.334 19.333ZM19.334 24.6663L20.084 24.6663L19.334 24.6663ZM19.9397 27.5149L20.9895 31.714L22.4447 31.3502L21.3949 27.1511L19.9397 27.5149ZM25.4173 31.1689V27.6663H23.9173V31.1689H25.4173ZM23.1698 33.4163C23.3047 33.4163 23.4257 33.4172 23.5351 33.4066L23.3903 31.9136C23.3713 31.9155 23.3398 31.9163 23.1698 31.9163V33.4163ZM23.9173 31.1689C23.9173 31.3389 23.9164 31.3703 23.9146 31.3893L25.4076 31.5341C25.4182 31.4247 25.4173 31.3037 25.4173 31.1689H23.9173ZM23.5351 33.4066C24.5267 33.3104 25.3114 32.5257 25.4076 31.5341L23.9146 31.3893C23.8877 31.667 23.6679 31.8867 23.3903 31.9136L23.5351 33.4066ZM20.9895 31.714C21.0157 31.8187 21.0388 31.9137 21.0685 32.0014L22.4892 31.5201C22.4839 31.5047 22.4775 31.4816 22.4447 31.3502L20.9895 31.714ZM23.1698 31.9163C23.0344 31.9163 23.0104 31.9157 22.9941 31.9144L22.8719 33.4094C22.9641 33.4169 23.0618 33.4163 23.1698 33.4163V31.9163ZM21.0685 32.0014C21.335 32.7883 22.0437 33.3417 22.8719 33.4094L22.9941 31.9144C22.7623 31.8954 22.5638 31.7405 22.4892 31.5201L21.0685 32.0014ZM31.9173 24.6663C31.9173 25.5408 31.2084 26.2497 30.334 26.2497V27.7497C32.0369 27.7497 33.4173 26.3692 33.4173 24.6663H31.9173ZM30.334 23.083C31.2084 23.083 31.9173 23.7919 31.9173 24.6663H33.4173C33.4173 22.9635 32.0369 21.583 30.334 21.583V23.083ZM22.334 22.4163H24.834V20.9163H22.334V22.4163ZM30.334 29.9997C30.7726 29.3913 30.7725 29.3913 30.7724 29.3912C30.7724 29.3911 30.7722 29.391 30.7721 29.3909C30.7719 29.3908 30.7716 29.3906 30.7713 29.3903C30.7706 29.3899 30.7697 29.3892 30.7687 29.3885C30.7666 29.387 30.7637 29.3849 30.7601 29.3823C30.7528 29.3771 30.7424 29.3698 30.7291 29.3604C30.7025 29.3416 30.6642 29.3149 30.6151 29.2812C30.517 29.2138 30.3758 29.1187 30.1999 29.005C29.8486 28.7782 29.3551 28.4753 28.7864 28.1715C27.6858 27.5835 26.1672 26.9163 24.834 26.9163V28.4163C25.7648 28.4163 26.9962 28.9158 28.0796 29.4945C28.6029 29.7741 29.0599 30.0545 29.3861 30.2651C29.5489 30.3702 29.6782 30.4574 29.7659 30.5177C29.8098 30.5478 29.8432 30.5711 29.8651 30.5866C29.876 30.5943 29.8841 30.6 29.8892 30.6036C29.8918 30.6055 29.8935 30.6067 29.8946 30.6075C29.8951 30.6078 29.8954 30.6081 29.8955 30.6082C29.8956 30.6082 29.8956 30.6082 29.8956 30.6082C29.8956 30.6082 29.8955 30.6081 29.8955 30.6081C29.8954 30.6081 29.8953 30.608 30.334 29.9997ZM29.584 19.333V29.9997H31.084V19.333H29.584ZM24.834 22.4163C26.1672 22.4163 27.6858 21.7491 28.7864 21.1612C29.3551 20.8574 29.8486 20.5545 30.1999 20.3276C30.3758 20.214 30.517 20.1189 30.6151 20.0515C30.6642 20.0178 30.7025 19.991 30.7291 19.9723C30.7424 19.9629 30.7528 19.9556 30.7601 19.9504C30.7637 19.9478 30.7666 19.9457 30.7687 19.9442C30.7697 19.9434 30.7706 19.9428 30.7713 19.9423C30.7716 19.9421 30.7719 19.9419 30.7721 19.9417C30.7722 19.9417 30.7723 19.9416 30.7724 19.9415C30.7725 19.9414 30.7726 19.9413 30.334 19.333C29.8953 18.7247 29.8954 18.7246 29.8955 18.7245C29.8955 18.7245 29.8956 18.7245 29.8956 18.7245C29.8956 18.7245 29.8956 18.7245 29.8955 18.7245C29.8954 18.7246 29.8951 18.7248 29.8946 18.7252C29.8935 18.7259 29.8918 18.7272 29.8892 18.729C29.8841 18.7327 29.876 18.7384 29.8651 18.7461C29.8432 18.7616 29.8098 18.7849 29.7659 18.815C29.6782 18.8753 29.5489 18.9624 29.3861 19.0675C29.0599 19.2782 28.6029 19.5586 28.0796 19.8381C26.9962 20.4169 25.7648 20.9163 24.834 20.9163V22.4163ZM24.834 26.9163H22.334V28.4163H24.834V26.9163ZM18.584 24.6663C18.584 26.7374 20.2629 28.4163 22.334 28.4163V26.9163C21.0913 26.9163 20.084 25.909 20.084 24.6663L18.584 24.6663ZM22.334 20.9163C20.2629 20.9163 18.584 22.5953 18.584 24.6663L20.084 24.6663C20.084 23.4237 21.0913 22.4163 22.334 22.4163V20.9163Z" fill="#0E0E0E"/>
</g>
<path d="M159 21C159 18.7909 160.791 17 163 17H191C193.209 17 195 18.7909 195 21V31C195 33.2091 193.209 35 191 35H163C160.791 35 159 33.2091 159 31V21Z" fill="#B3F4C4"/>
<path d="M165.693 29V22.7H167.466L170.184 27.443C170.157 27.2 170.148 26.885 170.148 26.498V22.7H171.327V29H169.779L166.836 23.861C166.863 24.104 166.872 24.392 166.872 24.743V29H165.693ZM173.255 29V22.7H177.638V23.699H174.434V25.238H177.503V26.246H174.434V28.001H177.773V29H173.255ZM180.42 29L178.764 22.7H180.078L181.041 26.822C181.14 27.227 181.221 27.596 181.284 27.947C181.338 27.614 181.419 27.236 181.518 26.822L182.562 22.7H184.263L185.226 26.822C185.343 27.29 185.424 27.668 185.478 27.947C185.541 27.542 185.622 27.164 185.703 26.822L186.702 22.7H187.944L186.288 29H184.65L183.606 24.518C183.579 24.437 183.498 24.077 183.426 23.645C183.354 24.014 183.291 24.302 183.228 24.518L182.058 29H180.42Z" fill="#285535"/>
<path d="M199 21C199 18.7909 200.791 17 203 17H253C255.209 17 257 18.7909 257 21V31C257 33.2091 255.209 35 253 35H203C200.791 35 199 33.2091 199 31V21Z" fill="#E7D0F2"/>
<path d="M205.693 29V22.7H208.339C209.734 22.7 210.643 23.321 210.643 24.59C210.643 25.238 210.427 25.715 210.004 26.021C209.581 26.327 209.023 26.48 208.339 26.48H206.872V29H205.693ZM206.872 25.481H208.339C209.068 25.481 209.428 25.157 209.428 24.59C209.428 23.996 209.068 23.699 208.339 23.699H206.872V25.481ZM214.787 29.162C213.005 29.162 211.7 27.929 211.7 25.85C211.7 23.861 213.014 22.538 214.787 22.538C216.533 22.511 217.919 23.897 217.901 25.85C217.901 27.92 216.569 29.162 214.787 29.162ZM212.915 25.85C212.915 27.299 213.671 28.163 214.787 28.163C215.912 28.163 216.686 27.317 216.686 25.85C216.686 24.446 215.912 23.537 214.787 23.537C213.671 23.537 212.915 24.428 212.915 25.85ZM219.473 29V22.7H222.119C223.514 22.7 224.423 23.321 224.423 24.59C224.423 25.238 224.207 25.715 223.784 26.021C223.361 26.327 222.803 26.48 222.119 26.48H220.652V29H219.473ZM220.652 25.481H222.119C222.848 25.481 223.208 25.157 223.208 24.59C223.208 23.996 222.848 23.699 222.119 23.699H220.652V25.481ZM228.334 29.162C226.714 29.162 225.769 28.226 225.769 26.597V22.7H226.957V26.417C226.957 27.578 227.434 28.163 228.334 28.163C229.234 28.163 229.711 27.569 229.711 26.417V22.7H230.89V26.597C230.89 28.226 229.945 29.162 228.334 29.162ZM232.752 29V22.7H233.931V28.001H237.099V29H232.752ZM237.758 29L240.35 22.7H241.7L244.292 29H242.969L242.339 27.281H239.657L239.018 29H237.758ZM240.026 26.282H241.97L241.25 24.32C241.151 24.05 241.07 23.807 241.007 23.591C240.953 23.762 240.899 23.924 240.836 24.068C240.809 24.14 240.782 24.212 240.746 24.32L240.026 26.282ZM245.478 29V22.7H248.268C249.492 22.7 250.302 23.285 250.302 24.356C250.302 25.157 249.771 25.688 249.096 25.895C249.816 26.012 250.203 26.534 250.203 27.353V29H249.015V27.461C249.015 26.714 248.745 26.444 247.98 26.444H246.657V29H245.478ZM246.657 25.436H248.043C248.736 25.436 249.087 25.148 249.087 24.572C249.087 23.996 248.727 23.699 248.043 23.699H246.657V25.436Z" fill="#872D99"/>
<path d="M13.078 68V58.2H17.194C19.238 58.2 20.778 59.068 20.778 61.14C20.778 63.268 19.168 64.08 17.194 64.08H14.912V68H13.078ZM14.912 62.526H17.194C18.37 62.526 18.888 61.994 18.888 61.14C18.888 60.286 18.398 59.754 17.194 59.754H14.912V62.526ZM21.8504 68V61.168H23.5584V61.686C23.5584 61.938 23.5444 62.148 23.5024 62.4C23.8664 61.63 24.4824 60.944 25.5044 60.944C25.6444 60.944 25.7564 60.958 25.8684 60.986V62.638C25.7564 62.61 25.6024 62.582 25.3784 62.582C24.3284 62.582 23.5584 63.114 23.5584 64.612V68H21.8504ZM29.8936 68.252C27.8496 68.252 26.4076 66.936 26.4076 64.57C26.4076 62.414 27.8496 60.944 29.8376 60.944C31.9236 60.944 33.1276 62.4 33.1276 64.626V65.004H28.1576C28.1716 66.082 28.8576 66.908 29.8936 66.908C30.6356 66.908 31.2376 66.488 31.3496 65.774H33.0856C32.9456 67.174 31.7416 68.252 29.8936 68.252ZM28.1436 63.772H31.3776C31.3496 62.848 30.7476 62.218 29.8236 62.218C28.8996 62.218 28.2416 62.876 28.1436 63.772ZM37.2269 68.252C35.2949 68.252 34.1049 67.244 33.9929 65.648H35.7289C35.7709 66.46 36.2749 66.978 37.1849 66.978C37.9549 66.978 38.4449 66.614 38.4449 66.096C38.4449 65.634 38.0529 65.424 37.3249 65.284L36.4989 65.116C35.0709 64.836 34.2589 64.164 34.2589 63.03C34.2589 61.84 35.3789 60.944 37.0589 60.944C38.8929 60.944 40.0409 61.896 40.0829 63.324H38.3749C38.3189 62.652 37.8289 62.218 37.0589 62.218C36.4289 62.218 35.9389 62.47 35.9389 62.96C35.9389 63.366 36.2049 63.576 37.0729 63.744L37.8989 63.912C39.2429 64.178 40.1249 64.794 40.1249 65.998C40.1249 67.3 38.9909 68.252 37.2269 68.252ZM44.2269 68.252C42.2949 68.252 41.1049 67.244 40.9929 65.648H42.7289C42.7709 66.46 43.2749 66.978 44.1849 66.978C44.9549 66.978 45.4449 66.614 45.4449 66.096C45.4449 65.634 45.0529 65.424 44.3249 65.284L43.4989 65.116C42.0709 64.836 41.2589 64.164 41.2589 63.03C41.2589 61.84 42.3789 60.944 44.0589 60.944C45.8929 60.944 47.0409 61.896 47.0829 63.324H45.3749C45.3189 62.652 44.8289 62.218 44.0589 62.218C43.4289 62.218 42.9389 62.47 42.9389 62.96C42.9389 63.366 43.2049 63.576 44.0729 63.744L44.8989 63.912C46.2429 64.178 47.1249 64.794 47.1249 65.998C47.1249 67.3 45.9909 68.252 44.2269 68.252ZM51.6464 68V58.2H55.9864C57.8204 58.2 59.1504 59.068 59.1504 60.776C59.1504 62.12 58.2124 62.89 57.2744 63.17C58.3944 63.366 58.9964 64.178 58.9964 65.438V68H57.1484V65.606C57.1484 64.444 56.7284 64.024 55.5384 64.024H53.4804V68H51.6464ZM53.4804 62.456H55.6364C56.7144 62.456 57.2604 61.994 57.2604 61.112C57.2604 60.23 56.7144 59.754 55.6364 59.754H53.4804V62.456ZM63.7179 68.252C61.6739 68.252 60.2319 66.936 60.2319 64.57C60.2319 62.414 61.6739 60.944 63.6619 60.944C65.7479 60.944 66.9519 62.4 66.9519 64.626V65.004H61.9819C61.9959 66.082 62.6819 66.908 63.7179 66.908C64.4599 66.908 65.0619 66.488 65.1739 65.774H66.9099C66.7699 67.174 65.5659 68.252 63.7179 68.252ZM61.9679 63.772H65.2019C65.1739 62.848 64.5719 62.218 63.6479 62.218C62.7239 62.218 62.0659 62.876 61.9679 63.772ZM68.3211 68V58.2H70.0291V68H68.3211ZM74.8604 68.252C72.8164 68.252 71.3744 66.936 71.3744 64.57C71.3744 62.414 72.8164 60.944 74.8044 60.944C76.8904 60.944 78.0944 62.4 78.0944 64.626V65.004H73.1244C73.1384 66.082 73.8244 66.908 74.8604 66.908C75.6024 66.908 76.2044 66.488 76.3164 65.774H78.0524C77.9124 67.174 76.7084 68.252 74.8604 68.252ZM73.1104 63.772H76.3444C76.3164 62.848 75.7144 62.218 74.7904 62.218C73.8664 62.218 73.2084 62.876 73.1104 63.772ZM81.4657 68.252C80.2757 68.252 79.1137 67.468 79.1137 66.124C79.1137 64.584 80.3037 64.052 81.7737 63.856L82.7537 63.73C83.3137 63.66 83.5097 63.45 83.5097 63.114C83.5097 62.638 83.1177 62.218 82.3897 62.218C81.5917 62.218 81.0877 62.666 81.0177 63.38H79.2537C79.3657 61.952 80.5277 60.944 82.2917 60.944C84.3777 60.944 85.2177 62.064 85.2177 63.982V68H83.6357V67.72C83.6357 67.496 83.6637 67.286 83.7057 67.062C83.3417 67.734 82.6417 68.252 81.4657 68.252ZM80.8497 66.054C80.8497 66.656 81.3257 66.992 81.9277 66.992C82.8377 66.992 83.5657 66.32 83.5657 65.354V64.612C83.4117 64.752 83.1737 64.822 82.7537 64.906L82.1937 65.018C81.3957 65.172 80.8497 65.438 80.8497 66.054ZM89.6039 68.252C87.6719 68.252 86.4819 67.244 86.3699 65.648H88.1059C88.1479 66.46 88.6519 66.978 89.5619 66.978C90.3319 66.978 90.8219 66.614 90.8219 66.096C90.8219 65.634 90.4299 65.424 89.7019 65.284L88.8759 65.116C87.4479 64.836 86.6359 64.164 86.6359 63.03C86.6359 61.84 87.7559 60.944 89.4359 60.944C91.2699 60.944 92.4179 61.896 92.4599 63.324H90.7519C90.6959 62.652 90.2059 62.218 89.4359 62.218C88.8059 62.218 88.3159 62.47 88.3159 62.96C88.3159 63.366 88.5819 63.576 89.4499 63.744L90.2759 63.912C91.6199 64.178 92.5019 64.794 92.5019 65.998C92.5019 67.3 91.3679 68.252 89.6039 68.252ZM96.9679 68.252C94.9239 68.252 93.4819 66.936 93.4819 64.57C93.4819 62.414 94.9239 60.944 96.9119 60.944C98.9979 60.944 100.202 62.4 100.202 64.626V65.004H95.2319C95.2459 66.082 95.9319 66.908 96.9679 66.908C97.7099 66.908 98.3119 66.488 98.4239 65.774H100.16C100.02 67.174 98.8159 68.252 96.9679 68.252ZM95.2179 63.772H98.4519C98.4239 62.848 97.8219 62.218 96.8979 62.218C95.9739 62.218 95.3159 62.876 95.2179 63.772Z" fill="#0E0E0E"/>
<path d="M15.936 88.192C13.788 88.192 12.468 87.028 12.384 85.204H13.764C13.836 86.392 14.76 87.076 15.984 87.076C17.136 87.076 17.892 86.596 17.892 85.732C17.892 85.012 17.328 84.664 16.368 84.46L15.024 84.172C13.728 83.896 12.684 83.14 12.684 81.832C12.684 80.404 14.016 79.396 15.852 79.396C17.82 79.396 19.008 80.452 19.104 82.048H17.724C17.676 81.16 17.004 80.512 15.804 80.512C14.796 80.512 14.04 80.98 14.04 81.712C14.04 82.396 14.568 82.732 15.48 82.924L16.932 83.236C18.252 83.512 19.26 84.244 19.26 85.588C19.26 87.064 18.048 88.192 15.936 88.192ZM20.5738 88V79.6H21.8218V82.456C21.8218 82.624 21.8218 82.792 21.7978 82.984C22.1218 82.42 22.7338 81.988 23.5858 81.988C24.9058 81.988 25.6858 82.864 25.6858 84.328V88H24.4378V84.496C24.4378 83.524 24.0418 82.972 23.2378 82.972C22.3858 82.972 21.8218 83.68 21.8218 84.544V88H20.5738ZM28.9335 88.192C27.8775 88.192 26.9295 87.52 26.9295 86.404C26.9295 85.18 27.8895 84.688 29.0295 84.532L30.0735 84.376C30.5295 84.316 30.6855 84.148 30.6855 83.824C30.6855 83.308 30.2775 82.936 29.6295 82.936C28.8375 82.936 28.3935 83.368 28.3575 84.028H27.0855C27.1455 82.888 28.0575 81.988 29.5455 81.988C31.1535 81.988 31.9215 82.888 31.9215 84.376V88H30.7575V87.736C30.7575 87.556 30.7695 87.388 30.7815 87.208C30.4815 87.796 29.8695 88.192 28.9335 88.192ZM28.2135 86.368C28.2135 86.932 28.6575 87.256 29.2095 87.256C30.0615 87.256 30.7095 86.656 30.7095 85.768V85.024C30.6135 85.144 30.3975 85.216 30.0495 85.276L29.3895 85.408C28.7055 85.54 28.2135 85.804 28.2135 86.368ZM33.4762 88V82.18H34.7242V82.528C34.7242 82.756 34.7242 82.972 34.7002 83.188C35.0002 82.528 35.5882 81.988 36.4642 81.988C36.5602 81.988 36.6562 81.988 36.7522 82.012V83.224C36.6682 83.212 36.5482 83.188 36.3802 83.188C35.3722 83.188 34.7242 83.728 34.7242 85.012V88H33.4762ZM40.1686 88.192C38.4286 88.192 37.2766 87.088 37.2766 85.072C37.2766 83.26 38.4766 81.988 40.1206 81.988C41.8726 81.988 42.8686 83.212 42.8686 85.096V85.36H38.5366C38.5606 86.488 39.2326 87.22 40.1806 87.22C40.8526 87.22 41.4406 86.896 41.5606 86.152H42.8206C42.7006 87.256 41.7886 88.192 40.1686 88.192ZM38.5486 84.472H41.5606C41.5486 83.56 41.0086 82.936 40.1086 82.936C39.2326 82.936 38.6326 83.596 38.5486 84.472ZM46.8473 88V79.6H48.0953V84.568C48.2273 84.4 48.3953 84.22 48.5393 84.076L50.3633 82.18H51.9593L49.4873 84.652L52.2113 88H50.5793L48.6473 85.492L48.0953 86.044V88H46.8473ZM55.2272 88.192C53.4872 88.192 52.3352 87.088 52.3352 85.072C52.3352 83.26 53.5352 81.988 55.1792 81.988C56.9312 81.988 57.9272 83.212 57.9272 85.096V85.36H53.5952C53.6192 86.488 54.2912 87.22 55.2392 87.22C55.9112 87.22 56.4992 86.896 56.6192 86.152H57.8792C57.7592 87.256 56.8472 88.192 55.2272 88.192ZM53.6072 84.472H56.6192C56.6072 83.56 56.0672 82.936 55.1672 82.936C54.2912 82.936 53.6912 83.596 53.6072 84.472ZM59.6933 90.472L60.7013 87.868L58.3973 82.18H59.7893L61.1333 85.912C61.2053 86.128 61.2893 86.356 61.3613 86.62C61.4333 86.356 61.5053 86.128 61.5773 85.912L62.8133 82.18H64.1213L61.0253 90.472H59.6933ZM70.1106 88.192C68.3946 88.192 67.1946 87.076 67.1946 85.084C67.1946 83.188 68.4906 81.988 70.1706 81.988C71.7066 81.988 72.6786 82.912 72.8106 84.256H71.5386C71.4666 83.548 70.9986 82.972 70.1586 82.972C69.1746 82.972 68.4666 83.812 68.4666 85.084C68.4666 86.356 69.1386 87.22 70.1466 87.22C71.0226 87.22 71.5146 86.668 71.6106 85.912H72.8586C72.7026 87.28 71.7666 88.192 70.1106 88.192ZM76.6262 88.192C74.9102 88.192 73.7102 86.992 73.7102 85.096C73.7102 83.236 74.9222 81.988 76.6262 81.988C78.3422 81.988 79.5542 83.236 79.5542 85.096C79.5542 86.992 78.3422 88.192 76.6262 88.192ZM74.9822 85.096C74.9822 86.392 75.6182 87.22 76.6262 87.22C77.6342 87.22 78.2822 86.392 78.2822 85.096C78.2822 83.776 77.6222 82.972 76.6262 82.972C75.6422 82.972 74.9822 83.776 74.9822 85.096ZM80.8433 88V82.18H82.0913V82.54C82.0913 82.684 82.0913 82.84 82.0673 82.984C82.3913 82.444 82.9553 81.988 83.7593 81.988C84.5033 81.988 85.1273 82.456 85.4033 83.104C85.7633 82.48 86.4473 81.988 87.2873 81.988C88.4633 81.988 89.3153 82.816 89.3153 84.328V88H88.0673V84.532C88.0673 83.56 87.7313 82.972 86.9753 82.972C86.1953 82.972 85.7033 83.668 85.7033 84.568V88H84.4553V84.556C84.4553 83.572 84.1313 82.972 83.3753 82.972C82.6073 82.972 82.0913 83.656 82.0913 84.592V88H80.8433ZM90.8863 90.472V82.18H92.1343V82.516C92.1343 82.672 92.1343 82.816 92.1103 82.996C92.4583 82.42 93.1303 81.988 94.0303 81.988C95.6383 81.988 96.6463 83.284 96.6463 85.096C96.6463 86.968 95.5303 88.192 93.9823 88.192C93.0823 88.192 92.4823 87.784 92.1103 87.196C92.1343 87.388 92.1343 87.544 92.1343 87.712V90.472H90.8863ZM92.0743 85.084C92.0743 86.356 92.7583 87.22 93.7303 87.22C94.7143 87.22 95.3623 86.344 95.3623 85.084C95.3623 83.848 94.7263 82.972 93.7303 82.972C92.7703 82.972 92.0743 83.788 92.0743 85.084ZM99.5976 88.192C98.5416 88.192 97.5936 87.52 97.5936 86.404C97.5936 85.18 98.5536 84.688 99.6936 84.532L100.738 84.376C101.194 84.316 101.35 84.148 101.35 83.824C101.35 83.308 100.942 82.936 100.294 82.936C99.5016 82.936 99.0576 83.368 99.0216 84.028H97.7496C97.8096 82.888 98.7216 81.988 100.21 81.988C101.818 81.988 102.586 82.888 102.586 84.376V88H101.422V87.736C101.422 87.556 101.434 87.388 101.446 87.208C101.146 87.796 100.534 88.192 99.5976 88.192ZM98.8776 86.368C98.8776 86.932 99.3216 87.256 99.8736 87.256C100.726 87.256 101.374 86.656 101.374 85.768V85.024C101.278 85.144 101.062 85.216 100.714 85.276L100.054 85.408C99.3696 85.54 98.8776 85.804 98.8776 86.368ZM104.14 88V82.18H105.388V82.504C105.388 82.66 105.376 82.804 105.364 82.984C105.676 82.444 106.3 81.988 107.152 81.988C108.472 81.988 109.252 82.864 109.252 84.328V88H108.004V84.496C108.004 83.524 107.62 82.972 106.816 82.972C105.952 82.972 105.388 83.68 105.388 84.544V88H104.14ZM111.314 90.472L112.322 87.868L110.018 82.18H111.41L112.754 85.912C112.826 86.128 112.91 86.356 112.982 86.62C113.054 86.356 113.126 86.128 113.198 85.912L114.434 82.18H115.742L112.646 90.472H111.314ZM119.164 88V82.18H120.412V82.504C120.412 82.66 120.4 82.804 120.388 82.984C120.7 82.444 121.324 81.988 122.176 81.988C123.496 81.988 124.276 82.864 124.276 84.328V88H123.028V84.496C123.028 83.524 122.644 82.972 121.84 82.972C120.976 82.972 120.412 83.68 120.412 84.544V88H119.164ZM128.387 88.192C126.647 88.192 125.495 87.088 125.495 85.072C125.495 83.26 126.695 81.988 128.339 81.988C130.091 81.988 131.087 83.212 131.087 85.096V85.36H126.755C126.779 86.488 127.451 87.22 128.399 87.22C129.071 87.22 129.659 86.896 129.779 86.152H131.039C130.919 87.256 130.007 88.192 128.387 88.192ZM126.767 84.472H129.779C129.767 83.56 129.227 82.936 128.327 82.936C127.451 82.936 126.851 83.596 126.767 84.472ZM133.476 88L131.64 82.18H132.948L134.112 86.308C134.16 86.488 134.208 86.68 134.244 86.872C134.292 86.668 134.34 86.476 134.388 86.308L135.504 82.18H137.124L138.276 86.308C138.324 86.476 138.372 86.656 138.408 86.86C138.456 86.656 138.492 86.476 138.552 86.296L139.704 82.18H140.928L139.128 88H137.628L136.452 83.812C136.416 83.656 136.368 83.464 136.32 83.236C136.284 83.464 136.236 83.644 136.176 83.812L135.012 88H133.476ZM144.059 88.192C142.451 88.192 141.491 87.34 141.431 86.032H142.679C142.715 86.776 143.195 87.244 144.047 87.244C144.779 87.244 145.259 86.908 145.259 86.392C145.259 85.972 144.935 85.732 144.275 85.6L143.483 85.444C142.331 85.228 141.635 84.664 141.635 83.728C141.635 82.732 142.583 81.988 143.963 81.988C145.439 81.988 146.351 82.732 146.411 83.932H145.163C145.103 83.296 144.647 82.936 143.927 82.936C143.303 82.936 142.871 83.212 142.871 83.668C142.871 84.076 143.159 84.28 143.855 84.412L144.659 84.568C145.751 84.784 146.483 85.3 146.483 86.296C146.483 87.376 145.559 88.192 144.059 88.192ZM152.144 88.192C151.088 88.192 150.14 87.52 150.14 86.404C150.14 85.18 151.1 84.688 152.24 84.532L153.284 84.376C153.74 84.316 153.896 84.148 153.896 83.824C153.896 83.308 153.488 82.936 152.84 82.936C152.048 82.936 151.604 83.368 151.568 84.028H150.296C150.356 82.888 151.268 81.988 152.756 81.988C154.364 81.988 155.132 82.888 155.132 84.376V88H153.968V87.736C153.968 87.556 153.98 87.388 153.992 87.208C153.692 87.796 153.08 88.192 152.144 88.192ZM151.424 86.368C151.424 86.932 151.868 87.256 152.42 87.256C153.272 87.256 153.92 86.656 153.92 85.768V85.024C153.824 85.144 153.608 85.216 153.26 85.276L152.6 85.408C151.916 85.54 151.424 85.804 151.424 86.368ZM156.687 88V82.18H157.935V82.504C157.935 82.66 157.923 82.804 157.911 82.984C158.223 82.444 158.847 81.988 159.699 81.988C161.019 81.988 161.799 82.864 161.799 84.328V88H160.551V84.496C160.551 83.524 160.167 82.972 159.363 82.972C158.499 82.972 157.935 83.68 157.935 84.544V88H156.687ZM165.695 88.192C164.159 88.192 163.019 87.112 163.019 85.096C163.019 83.176 164.207 81.988 165.719 81.988C166.655 81.988 167.255 82.48 167.555 82.984C167.531 82.804 167.531 82.636 167.531 82.468V79.6H168.779V88H167.531V87.712C167.531 87.52 167.531 87.364 167.555 87.196C167.279 87.676 166.667 88.192 165.695 88.192ZM164.303 85.096C164.303 86.38 164.987 87.22 165.959 87.22C166.907 87.22 167.603 86.368 167.603 85.084C167.603 83.8 166.919 82.972 165.959 82.972C164.999 82.972 164.303 83.836 164.303 85.096ZM175.121 88.192C173.861 88.192 173.033 87.388 173.033 85.876V82.18H174.281V85.66C174.281 86.62 174.653 87.208 175.481 87.208C176.321 87.208 176.849 86.572 176.849 85.516V82.18H178.097V88H176.861V87.7C176.861 87.532 176.873 87.352 176.897 87.196C176.609 87.784 175.997 88.192 175.121 88.192ZM179.726 90.472V82.18H180.974V82.516C180.974 82.672 180.974 82.816 180.95 82.996C181.298 82.42 181.97 81.988 182.87 81.988C184.478 81.988 185.486 83.284 185.486 85.096C185.486 86.968 184.37 88.192 182.822 88.192C181.922 88.192 181.322 87.784 180.95 87.196C180.974 87.388 180.974 87.544 180.974 87.712V90.472H179.726ZM180.914 85.084C180.914 86.356 181.598 87.22 182.57 87.22C183.554 87.22 184.202 86.344 184.202 85.084C184.202 83.848 183.566 82.972 182.57 82.972C181.61 82.972 180.914 83.788 180.914 85.084ZM189.085 88.192C187.549 88.192 186.409 87.112 186.409 85.096C186.409 83.176 187.597 81.988 189.109 81.988C190.045 81.988 190.645 82.48 190.945 82.984C190.921 82.804 190.921 82.636 190.921 82.468V79.6H192.169V88H190.921V87.712C190.921 87.52 190.921 87.364 190.945 87.196C190.669 87.676 190.057 88.192 189.085 88.192ZM187.693 85.096C187.693 86.38 188.377 87.22 189.349 87.22C190.297 87.22 190.993 86.368 190.993 85.084C190.993 83.8 190.309 82.972 189.349 82.972C188.389 82.972 187.693 83.836 187.693 85.096ZM195.48 88.192C194.424 88.192 193.476 87.52 193.476 86.404C193.476 85.18 194.436 84.688 195.576 84.532L196.62 84.376C197.076 84.316 197.232 84.148 197.232 83.824C197.232 83.308 196.824 82.936 196.176 82.936C195.384 82.936 194.94 83.368 194.904 84.028H193.632C193.692 82.888 194.604 81.988 196.092 81.988C197.7 81.988 198.468 82.888 198.468 84.376V88H197.304V87.736C197.304 87.556 197.316 87.388 197.328 87.208C197.028 87.796 196.416 88.192 195.48 88.192ZM194.76 86.368C194.76 86.932 195.204 87.256 195.756 87.256C196.608 87.256 197.256 86.656 197.256 85.768V85.024C197.16 85.144 196.944 85.216 196.596 85.276L195.936 85.408C195.252 85.54 194.76 85.804 194.76 86.368ZM202.292 88.096C201.236 88.096 200.516 87.58 200.516 86.284V83.188H199.304V82.18H200.516V80.164H201.764V82.18H203.084V83.188H201.764V86.116C201.764 86.764 202.052 87.052 202.616 87.052C202.76 87.052 202.904 87.04 203.06 87.016V88.012C202.88 88.06 202.592 88.096 202.292 88.096ZM206.715 88.192C204.975 88.192 203.823 87.088 203.823 85.072C203.823 83.26 205.023 81.988 206.667 81.988C208.419 81.988 209.415 83.212 209.415 85.096V85.36H205.083C205.107 86.488 205.779 87.22 206.727 87.22C207.399 87.22 207.987 86.896 208.107 86.152H209.367C209.247 87.256 208.335 88.192 206.715 88.192ZM205.095 84.472H208.107C208.095 83.56 207.555 82.936 206.655 82.936C205.779 82.936 205.179 83.596 205.095 84.472ZM212.895 88.192C211.287 88.192 210.327 87.34 210.267 86.032H211.515C211.551 86.776 212.031 87.244 212.883 87.244C213.615 87.244 214.095 86.908 214.095 86.392C214.095 85.972 213.771 85.732 213.111 85.6L212.319 85.444C211.167 85.228 210.471 84.664 210.471 83.728C210.471 82.732 211.419 81.988 212.799 81.988C214.275 81.988 215.187 82.732 215.247 83.932H213.999C213.939 83.296 213.483 82.936 212.763 82.936C212.139 82.936 211.707 83.212 211.707 83.668C211.707 84.076 211.995 84.28 212.691 84.412L213.495 84.568C214.587 84.784 215.319 85.3 215.319 86.296C215.319 87.376 214.395 88.192 212.895 88.192ZM220.277 88L218.441 82.18H219.749L220.913 86.308C220.961 86.488 221.009 86.68 221.045 86.872C221.093 86.668 221.141 86.476 221.189 86.308L222.305 82.18H223.925L225.077 86.308C225.125 86.476 225.173 86.656 225.209 86.86C225.257 86.656 225.293 86.476 225.353 86.296L226.505 82.18H227.729L225.929 88H224.429L223.253 83.812C223.217 83.656 223.169 83.464 223.121 83.236C223.085 83.464 223.037 83.644 222.977 83.812L221.813 88H220.277ZM228.699 88V82.18H229.947V88H228.699ZM228.651 81.184V79.804H230.007V81.184H228.651ZM233.91 88.096C232.854 88.096 232.134 87.58 232.134 86.284V83.188H230.922V82.18H232.134V80.164H233.382V82.18H234.702V83.188H233.382V86.116C233.382 86.764 233.67 87.052 234.234 87.052C234.378 87.052 234.522 87.04 234.678 87.016V88.012C234.498 88.06 234.21 88.096 233.91 88.096ZM235.859 88V79.6H237.107V82.456C237.107 82.624 237.107 82.792 237.083 82.984C237.407 82.42 238.019 81.988 238.871 81.988C240.191 81.988 240.971 82.864 240.971 84.328V88H239.723V84.496C239.723 83.524 239.327 82.972 238.523 82.972C237.671 82.972 237.107 83.68 237.107 84.544V88H235.859ZM13.968 104L12.132 98.18H13.44L14.604 102.308C14.652 102.488 14.7 102.68 14.736 102.872C14.784 102.668 14.832 102.476 14.88 102.308L15.996 98.18H17.616L18.768 102.308C18.816 102.476 18.864 102.656 18.9 102.86C18.948 102.656 18.984 102.476 19.044 102.296L20.196 98.18H21.42L19.62 104H18.12L16.944 99.812C16.908 99.656 16.86 99.464 16.812 99.236C16.776 99.464 16.728 99.644 16.668 99.812L15.504 104H13.968ZM24.8756 104.192C23.1356 104.192 21.9836 103.088 21.9836 101.072C21.9836 99.26 23.1836 97.988 24.8276 97.988C26.5796 97.988 27.5756 99.212 27.5756 101.096V101.36H23.2436C23.2676 102.488 23.9396 103.22 24.8876 103.22C25.5596 103.22 26.1476 102.896 26.2676 102.152H27.5276C27.4076 103.256 26.4956 104.192 24.8756 104.192ZM23.2556 100.472H26.2676C26.2556 99.56 25.7156 98.936 24.8156 98.936C23.9396 98.936 23.3396 99.596 23.2556 100.472ZM28.8707 104V95.6H30.1187V104H28.8707ZM31.7535 104V95.6H33.0015V104H31.7535ZM34.5403 101.528V100.34H37.6483V101.528H34.5403ZM41.7278 104.192C40.0118 104.192 38.8118 103.076 38.8118 101.084C38.8118 99.188 40.1077 97.988 41.7878 97.988C43.3238 97.988 44.2958 98.912 44.4278 100.256H43.1558C43.0838 99.548 42.6158 98.972 41.7758 98.972C40.7918 98.972 40.0838 99.812 40.0838 101.084C40.0838 102.356 40.7558 103.22 41.7638 103.22C42.6398 103.22 43.1318 102.668 43.2278 101.912H44.4758C44.3198 103.28 43.3838 104.192 41.7278 104.192ZM45.6754 104V98.18H46.9234V98.528C46.9234 98.756 46.9234 98.972 46.8994 99.188C47.1994 98.528 47.7874 97.988 48.6634 97.988C48.7594 97.988 48.8554 97.988 48.9514 98.012V99.224C48.8674 99.212 48.7474 99.188 48.5794 99.188C47.5714 99.188 46.9234 99.728 46.9234 101.012V104H45.6754ZM51.5155 104.192C50.4595 104.192 49.5115 103.52 49.5115 102.404C49.5115 101.18 50.4715 100.688 51.6115 100.532L52.6555 100.376C53.1115 100.316 53.2675 100.148 53.2675 99.824C53.2675 99.308 52.8595 98.936 52.2115 98.936C51.4195 98.936 50.9755 99.368 50.9395 100.028H49.6675C49.7275 98.888 50.6395 97.988 52.1275 97.988C53.7355 97.988 54.5035 98.888 54.5035 100.376V104H53.3395V103.736C53.3395 103.556 53.3515 103.388 53.3635 103.208C53.0635 103.796 52.4515 104.192 51.5155 104.192ZM50.7955 102.368C50.7955 102.932 51.2395 103.256 51.7915 103.256C52.6435 103.256 53.2915 102.656 53.2915 101.768V101.024C53.1955 101.144 52.9795 101.216 52.6315 101.276L51.9715 101.408C51.2875 101.54 50.7955 101.804 50.7955 102.368ZM56.5156 104V99.188H55.3876V98.18H56.5156V97.304C56.5156 96.044 57.2716 95.396 58.2796 95.396C58.5916 95.396 58.8436 95.456 58.9636 95.504V96.512C58.8676 96.488 58.7236 96.464 58.5796 96.464C58.0876 96.464 57.7636 96.752 57.7636 97.28V98.18H58.9756V99.188H57.7636V104H56.5156ZM62.3588 104.096C61.3028 104.096 60.5828 103.58 60.5828 102.284V99.188H59.3708V98.18H60.5828V96.164H61.8308V98.18H63.1508V99.188H61.8308V102.116C61.8308 102.764 62.1188 103.052 62.6828 103.052C62.8268 103.052 62.9708 103.04 63.1268 103.016V104.012C62.9468 104.06 62.6588 104.096 62.3588 104.096ZM66.7819 104.192C65.0419 104.192 63.8899 103.088 63.8899 101.072C63.8899 99.26 65.0899 97.988 66.7339 97.988C68.4859 97.988 69.4819 99.212 69.4819 101.096V101.36H65.1499C65.1739 102.488 65.8459 103.22 66.7939 103.22C67.4659 103.22 68.0539 102.896 68.1739 102.152H69.4339C69.3139 103.256 68.4019 104.192 66.7819 104.192ZM65.1619 100.472H68.1739C68.1619 99.56 67.6219 98.936 66.7219 98.936C65.8459 98.936 65.2459 99.596 65.1619 100.472ZM73.1049 104.192C71.5689 104.192 70.4289 103.112 70.4289 101.096C70.4289 99.176 71.6169 97.988 73.1289 97.988C74.0649 97.988 74.6649 98.48 74.9649 98.984C74.9409 98.804 74.9409 98.636 74.9409 98.468V95.6H76.1889V104H74.9409V103.712C74.9409 103.52 74.9409 103.364 74.9649 103.196C74.6889 103.676 74.0769 104.192 73.1049 104.192ZM71.7129 101.096C71.7129 102.38 72.3969 103.22 73.3689 103.22C74.3169 103.22 75.0129 102.368 75.0129 101.084C75.0129 99.8 74.3289 98.972 73.3689 98.972C72.4089 98.972 71.7129 99.836 71.7129 101.096ZM80.5035 106.472V98.18H81.7515V98.516C81.7515 98.672 81.7515 98.816 81.7275 98.996C82.0755 98.42 82.7475 97.988 83.6475 97.988C85.2555 97.988 86.2635 99.284 86.2635 101.096C86.2635 102.968 85.1475 104.192 83.5995 104.192C82.6995 104.192 82.0995 103.784 81.7275 103.196C81.7515 103.388 81.7515 103.544 81.7515 103.712V106.472H80.5035ZM81.6915 101.084C81.6915 102.356 82.3755 103.22 83.3475 103.22C84.3315 103.22 84.9795 102.344 84.9795 101.084C84.9795 99.848 84.3435 98.972 83.3475 98.972C82.3875 98.972 81.6915 99.788 81.6915 101.084ZM87.5348 104V98.18H88.7828V98.528C88.7828 98.756 88.7828 98.972 88.7588 99.188C89.0588 98.528 89.6468 97.988 90.5228 97.988C90.6188 97.988 90.7148 97.988 90.8108 98.012V99.224C90.7268 99.212 90.6068 99.188 90.4388 99.188C89.4308 99.188 88.7828 99.728 88.7828 101.012V104H87.5348ZM94.2272 104.192C92.4872 104.192 91.3352 103.088 91.3352 101.072C91.3352 99.26 92.5352 97.988 94.1792 97.988C95.9312 97.988 96.9272 99.212 96.9272 101.096V101.36H92.5952C92.6192 102.488 93.2912 103.22 94.2392 103.22C94.9112 103.22 95.4992 102.896 95.6192 102.152H96.8792C96.7592 103.256 95.8472 104.192 94.2272 104.192ZM92.6072 100.472H95.6192C95.6072 99.56 95.0672 98.936 94.1672 98.936C93.2912 98.936 92.6912 99.596 92.6072 100.472ZM100.406 104.192C98.7983 104.192 97.8383 103.34 97.7783 102.032H99.0263C99.0623 102.776 99.5423 103.244 100.394 103.244C101.126 103.244 101.606 102.908 101.606 102.392C101.606 101.972 101.282 101.732 100.622 101.6L99.8303 101.444C98.6783 101.228 97.9823 100.664 97.9823 99.728C97.9823 98.732 98.9303 97.988 100.31 97.988C101.786 97.988 102.698 98.732 102.758 99.932H101.51C101.45 99.296 100.994 98.936 100.274 98.936C99.6503 98.936 99.2183 99.212 99.2183 99.668C99.2183 100.076 99.5063 100.28 100.202 100.412L101.006 100.568C102.098 100.784 102.83 101.3 102.83 102.296C102.83 103.376 101.906 104.192 100.406 104.192ZM106.312 104.192C104.705 104.192 103.745 103.34 103.685 102.032H104.933C104.969 102.776 105.449 103.244 106.301 103.244C107.033 103.244 107.513 102.908 107.513 102.392C107.513 101.972 107.189 101.732 106.529 101.6L105.737 101.444C104.585 101.228 103.889 100.664 103.889 99.728C103.889 98.732 104.837 97.988 106.217 97.988C107.693 97.988 108.605 98.732 108.665 99.932H107.417C107.357 99.296 106.901 98.936 106.181 98.936C105.557 98.936 105.125 99.212 105.125 99.668C105.125 100.076 105.413 100.28 106.109 100.412L106.913 100.568C108.005 100.784 108.737 101.3 108.737 102.296C108.737 103.376 107.813 104.192 106.312 104.192ZM112.718 104V98.18H113.966V98.528C113.966 98.756 113.966 98.972 113.942 99.188C114.242 98.528 114.83 97.988 115.706 97.988C115.802 97.988 115.898 97.988 115.994 98.012V99.224C115.91 99.212 115.79 99.188 115.622 99.188C114.614 99.188 113.966 99.728 113.966 101.012V104H112.718ZM119.411 104.192C117.671 104.192 116.519 103.088 116.519 101.072C116.519 99.26 117.719 97.988 119.363 97.988C121.115 97.988 122.111 99.212 122.111 101.096V101.36H117.779C117.803 102.488 118.475 103.22 119.423 103.22C120.095 103.22 120.683 102.896 120.803 102.152H122.063C121.943 103.256 121.031 104.192 119.411 104.192ZM117.791 100.472H120.803C120.791 99.56 120.251 98.936 119.351 98.936C118.475 98.936 117.875 99.596 117.791 100.472ZM123.406 104V95.6H124.654V104H123.406ZM128.833 104.192C127.093 104.192 125.941 103.088 125.941 101.072C125.941 99.26 127.141 97.988 128.785 97.988C130.537 97.988 131.533 99.212 131.533 101.096V101.36H127.201C127.225 102.488 127.897 103.22 128.845 103.22C129.517 103.22 130.105 102.896 130.225 102.152H131.485C131.365 103.256 130.453 104.192 128.833 104.192ZM127.213 100.472H130.225C130.213 99.56 129.673 98.936 128.773 98.936C127.897 98.936 127.297 99.596 127.213 100.472ZM134.508 104.192C133.452 104.192 132.504 103.52 132.504 102.404C132.504 101.18 133.464 100.688 134.604 100.532L135.648 100.376C136.104 100.316 136.26 100.148 136.26 99.824C136.26 99.308 135.852 98.936 135.204 98.936C134.412 98.936 133.968 99.368 133.932 100.028H132.66C132.72 98.888 133.632 97.988 135.12 97.988C136.728 97.988 137.496 98.888 137.496 100.376V104H136.332V103.736C136.332 103.556 136.344 103.388 136.356 103.208C136.056 103.796 135.444 104.192 134.508 104.192ZM133.788 102.368C133.788 102.932 134.232 103.256 134.784 103.256C135.636 103.256 136.284 102.656 136.284 101.768V101.024C136.188 101.144 135.972 101.216 135.624 101.276L134.964 101.408C134.28 101.54 133.788 101.804 133.788 102.368ZM141.234 104.192C139.626 104.192 138.666 103.34 138.606 102.032H139.854C139.89 102.776 140.37 103.244 141.222 103.244C141.954 103.244 142.434 102.908 142.434 102.392C142.434 101.972 142.11 101.732 141.45 101.6L140.658 101.444C139.506 101.228 138.81 100.664 138.81 99.728C138.81 98.732 139.758 97.988 141.138 97.988C142.614 97.988 143.526 98.732 143.586 99.932H142.338C142.278 99.296 141.822 98.936 141.102 98.936C140.478 98.936 140.046 99.212 140.046 99.668C140.046 100.076 140.334 100.28 141.03 100.412L141.834 100.568C142.926 100.784 143.658 101.3 143.658 102.296C143.658 103.376 142.734 104.192 141.234 104.192ZM147.501 104.192C145.761 104.192 144.609 103.088 144.609 101.072C144.609 99.26 145.809 97.988 147.453 97.988C149.205 97.988 150.201 99.212 150.201 101.096V101.36H145.869C145.893 102.488 146.565 103.22 147.513 103.22C148.185 103.22 148.773 102.896 148.893 102.152H150.153C150.033 103.256 149.121 104.192 147.501 104.192ZM145.881 100.472H148.893C148.881 99.56 148.341 98.936 147.441 98.936C146.565 98.936 145.965 99.596 145.881 100.472ZM153.68 104.192C152.072 104.192 151.112 103.34 151.052 102.032H152.3C152.336 102.776 152.816 103.244 153.668 103.244C154.4 103.244 154.88 102.908 154.88 102.392C154.88 101.972 154.556 101.732 153.896 101.6L153.104 101.444C151.952 101.228 151.256 100.664 151.256 99.728C151.256 98.732 152.204 97.988 153.584 97.988C155.06 97.988 155.972 98.732 156.032 99.932H154.784C154.724 99.296 154.268 98.936 153.548 98.936C152.924 98.936 152.492 99.212 152.492 99.668C152.492 100.076 152.78 100.28 153.476 100.412L154.28 100.568C155.372 100.784 156.104 101.3 156.104 102.296C156.104 103.376 155.18 104.192 153.68 104.192Z" fill="#464134"/>
</g>
<path d="M16 0.5H253C261.56 0.5 268.5 7.43959 268.5 16V131C268.5 139.56 261.56 146.5 253 146.5H16C7.43958 146.5 0.5 139.56 0.5 131V16C0.5 7.43959 7.43959 0.5 16 0.5Z" stroke="#EEECE8"/>
<defs>
<clipPath id="clip0_131_13922">
<path d="M0 16C0 7.16345 7.16344 0 16 0H253C261.837 0 269 7.16344 269 16V131C269 139.837 261.837 147 253 147H16C7.16344 147 0 139.837 0 131V16Z" fill="white"/>
</clipPath>
<clipPath id="clip1_131_13922">
<rect width="16" height="16" fill="white" transform="translate(18 18)"/>
</clipPath>
</defs>
</svg>
