<svg width="24" height="24" viewBox="0 0 24 24" fill="none" xmlns="http://www.w3.org/2000/svg">
<path opacity="0.12" d="M2 7.2C2 6.0799 2 5.51984 2.21799 5.09202C2.40973 4.71569 2.71569 4.40973 3.09202 4.21799C3.51984 4 4.07989 4 5.2 4H18.8C19.9201 4 20.4802 4 20.908 4.21799C21.2843 4.40973 21.5903 4.71569 21.782 5.09202C22 5.51984 22 6.0799 22 7.2V13.8C22 14.9201 22 15.4802 21.782 15.908C21.5903 16.2843 21.2843 16.5903 20.908 16.782C20.4802 17 19.9201 17 18.8 17H5.2C4.0799 17 3.51984 17 3.09202 16.782C2.71569 16.5903 2.40973 16.2843 2.21799 15.908C2 15.4802 2 14.9201 2 13.8V7.2Z" fill="#2F2B23"/>
<path d="M9.61872 17.6187C9.96043 17.277 9.96043 16.723 9.61872 16.3813C9.27701 16.0396 8.72299 16.0396 8.38128 16.3813L9.61872 17.6187ZM3.38128 21.3813L2.76256 22L4 23.2374L4.61872 22.6187L3.38128 21.3813ZM15.6187 16.3813C15.277 16.0396 14.723 16.0396 14.3813 16.3813C14.0396 16.723 14.0396 17.277 14.3813 17.6187L15.6187 16.3813ZM19.3813 22.6187L20 23.2374L21.2374 22L20.6187 21.3813L19.3813 22.6187ZM12.875 2V1.125H11.125V2H12.875ZM11.125 4V4.875H12.875V4H11.125ZM11.125 22V22.875H12.875V22H11.125ZM12.875 17V16.125H11.125V17H12.875ZM3.09202 16.782L3.48926 16.0024L3.09202 16.782ZM2.21799 15.908L2.99762 15.5107L2.21799 15.908ZM21.782 15.908L21.0024 15.5107L21.782 15.908ZM20.908 16.782L20.5107 16.0024L20.908 16.782ZM20.908 4.21799L20.5107 4.99762L20.908 4.21799ZM21.782 5.09202L21.0024 5.48926V5.48926L21.782 5.09202ZM3.09202 4.21799L3.48926 4.99762L3.09202 4.21799ZM2.21799 5.09202L2.99762 5.48926V5.48926L2.21799 5.09202ZM8.38128 16.3813L3.38128 21.3813L4.61872 22.6187L9.61872 17.6187L8.38128 16.3813ZM14.3813 17.6187L19.3813 22.6187L20.6187 21.3813L15.6187 16.3813L14.3813 17.6187ZM11.125 2V4H12.875V2H11.125ZM12.875 22V17H11.125V22H12.875ZM5.2 4.875H18.8V3.125H5.2V4.875ZM21.125 7.2V13.8H22.875V7.2H21.125ZM18.8 16.125H5.2V17.875H18.8V16.125ZM2.875 13.8V7.2H1.125V13.8H2.875ZM5.2 16.125C4.62551 16.125 4.24727 16.1243 3.95766 16.1007C3.67826 16.0778 3.55926 16.0381 3.48926 16.0024L2.69478 17.5616C3.0526 17.744 3.42754 17.8132 3.81515 17.8448C4.19255 17.8757 4.65439 17.875 5.2 17.875V16.125ZM1.125 13.8C1.125 14.3456 1.12432 14.8074 1.15515 15.1848C1.18682 15.5725 1.25604 15.9474 1.43836 16.3052L2.99762 15.5107C2.96195 15.4407 2.92217 15.3217 2.89934 15.0423C2.87568 14.7527 2.875 14.3745 2.875 13.8H1.125ZM3.48926 16.0024C3.27758 15.8945 3.10548 15.7224 2.99762 15.5107L1.43836 16.3052C1.71399 16.8462 2.15381 17.286 2.69478 17.5616L3.48926 16.0024ZM21.125 13.8C21.125 14.3745 21.1243 14.7527 21.1007 15.0423C21.0778 15.3217 21.038 15.4407 21.0024 15.5107L22.5616 16.3052C22.744 15.9474 22.8132 15.5725 22.8448 15.1848C22.8757 14.8074 22.875 14.3456 22.875 13.8H21.125ZM18.8 17.875C19.3456 17.875 19.8074 17.8757 20.1848 17.8448C20.5725 17.8132 20.9474 17.744 21.3052 17.5616L20.5107 16.0024C20.4407 16.038 20.3217 16.0778 20.0423 16.1007C19.7527 16.1243 19.3745 16.125 18.8 16.125V17.875ZM21.0024 15.5107C20.8945 15.7224 20.7224 15.8945 20.5107 16.0024L21.3052 17.5616C21.8462 17.286 22.286 16.8462 22.5616 16.3052L21.0024 15.5107ZM18.8 4.875C19.3745 4.875 19.7527 4.87568 20.0423 4.89934C20.3217 4.92217 20.4407 4.96195 20.5107 4.99762L21.3052 3.43836C20.9474 3.25604 20.5725 3.18682 20.1848 3.15515C19.8074 3.12432 19.3456 3.125 18.8 3.125V4.875ZM22.875 7.2C22.875 6.65439 22.8757 6.19255 22.8448 5.81515C22.8132 5.42754 22.744 5.0526 22.5616 4.69478L21.0024 5.48926C21.038 5.55926 21.0778 5.67826 21.1007 5.95766C21.1243 6.24726 21.125 6.62551 21.125 7.2H22.875ZM20.5107 4.99762C20.7224 5.10547 20.8945 5.27758 21.0024 5.48926L22.5616 4.69478C22.286 4.15381 21.8462 3.71399 21.3052 3.43836L20.5107 4.99762ZM5.2 3.125C4.65439 3.125 4.19255 3.12432 3.81515 3.15515C3.42754 3.18682 3.0526 3.25604 2.69478 3.43836L3.48926 4.99762C3.55926 4.96195 3.67826 4.92217 3.95766 4.89934C4.24726 4.87568 4.62551 4.875 5.2 4.875V3.125ZM2.875 7.2C2.875 6.62551 2.87568 6.24726 2.89934 5.95766C2.92217 5.67826 2.96195 5.55926 2.99762 5.48926L1.43836 4.69478C1.25604 5.0526 1.18682 5.42754 1.15515 5.81515C1.12432 6.19255 1.125 6.65439 1.125 7.2H2.875ZM2.69478 3.43836C2.15381 3.71399 1.71399 4.15381 1.43836 4.69478L2.99762 5.48926C3.10548 5.27758 3.27758 5.10548 3.48926 4.99762L2.69478 3.43836Z" fill="#2F2B23"/>
</svg>
