<svg width="200" height="100" viewBox="0 0 200 100" fill="none" xmlns="http://www.w3.org/2000/svg">
<path d="M65.0234 40.5859V42.756C63.6142 41.1214 61.5568 40.2195 59.2176 40.2195C54.2855 40.2195 50.5935 43.8833 50.5935 48.759C50.5935 53.5784 54.2292 57.214 59.0485 57.214C61.4441 57.214 63.6424 56.2558 65.0234 54.6494V56.7913H67.6163V40.5295H65.0234V40.5859ZM59.1049 54.9876C55.8074 54.9876 53.13 52.2538 53.13 48.9C53.13 45.3207 55.7792 42.5305 59.1613 42.5305C62.2896 42.5305 65.0234 45.377 65.0234 48.6181C65.0234 52.4229 61.9796 54.9876 59.1049 54.9876Z" fill="#2F2B24"/>
<path d="M30.3298 40.5859V42.756C28.9206 41.1214 26.8632 40.2195 24.524 40.2195C19.6201 40.2195 15.8999 43.8833 15.8999 48.759C15.8999 53.5784 19.5356 57.214 24.3549 57.214C26.7505 57.214 28.9488 56.2558 30.3298 54.6494V56.7913H32.9227V40.5295H30.3298V40.5859ZM24.4113 54.9876C21.1138 54.9876 18.4364 52.2538 18.4364 48.9C18.4364 45.3207 21.0856 42.5305 24.4676 42.5305C27.596 42.5305 30.3298 45.377 30.3298 48.6181C30.3298 52.4229 27.286 54.9876 24.4113 54.9876Z" fill="#2F2B24"/>
<path d="M35.5435 35.2029V35.4002V56.6222V56.8477H38.1363V56.6222V35.4002V35.2029H35.5435Z" fill="#2F2B24"/>
<path d="M40.7856 35.2029V35.4002V56.6222V56.8477H43.3785V56.6222V35.4002V35.2029H40.7856Z" fill="#2F2B24"/>
<path d="M46.0562 40.5015V40.6706V56.6787V56.8478H48.649V56.6787V40.6706V40.5015H46.0562Z" fill="#2F2B24"/>
<path d="M86.302 48.3081V56.8476H83.6809V47.7162C83.6809 43.996 82.1026 42.3896 78.4106 42.3896C76.2405 42.3896 74.6059 43.1223 73.6476 44.5315C72.8585 45.7152 72.8585 47.0398 72.8585 48.8999V56.8476H70.2656V40.5013H72.8585V42.1641L72.9994 42.0514C74.4649 40.7831 76.325 40.1631 78.6924 40.1631C81.5108 40.1631 83.7655 41.0931 85.0337 42.756C86.1892 44.2779 86.302 46.1661 86.302 48.3081Z" fill="#2F2B24"/>
<path d="M127.957 40.6703C127.76 41.1776 127.675 41.4594 127.45 42.1076C127.393 42.2485 127.337 42.4176 127.28 42.5586C127.28 42.5304 126.379 42.3049 126.294 42.3049C125.787 42.2204 125.251 42.2204 124.744 42.2485C124.293 42.2767 123.87 42.3331 123.447 42.474C122.687 42.6995 121.954 43.0659 121.362 43.6014C121.052 43.8832 120.77 44.1932 120.545 44.5314C119.755 45.7151 119.755 47.0397 119.755 48.8998V56.8475H117.163V40.5012H119.755V42.164L119.868 42.0513C120.516 41.4594 121.306 41.0085 122.123 40.7266C123.053 40.3884 124.011 40.1912 124.998 40.1912C125.618 40.1912 126.294 40.2193 126.886 40.3321C127.28 40.4166 127.619 40.5575 127.957 40.6703Z" fill="#2F2B24"/>
<path d="M162.735 40.4731V56.8759H160.142V55.213L160.03 55.3258C158.564 56.594 156.704 57.2141 154.337 57.2141C151.518 57.2141 149.264 56.284 147.995 54.6212C146.84 53.1275 146.727 51.211 146.727 49.0973V40.4731H149.348V49.6891C149.348 53.4093 150.926 55.0158 154.59 55.0158C156.76 55.0158 158.395 54.283 159.325 52.8738C160.114 51.6901 160.114 50.3655 160.114 48.5054V40.4731H162.735Z" fill="#2F2B24"/>
<path d="M96.8424 55.1287V57.3552H96.5606C93.7422 57.3552 91.4876 56.4251 90.2193 54.7623C89.0638 53.2686 88.9792 51.3803 88.9792 49.2384V36.4995H91.6003V40.5016H95.4896V42.8971H91.6003V49.8302C91.5721 53.5223 93.1504 55.1287 96.8424 55.1287Z" fill="#2F2B24"/>
<path d="M136.13 39.9097C131.508 39.9097 127.731 43.8553 127.731 48.6747C127.731 53.4659 131.564 57.3552 136.271 57.3552C140.949 57.3552 144.754 53.3531 144.754 48.4492C144.754 43.7426 140.865 39.9097 136.13 39.9097ZM136.271 54.9878C132.861 54.9878 130.268 52.254 130.268 48.6465C130.268 44.6445 133.227 42.2771 136.074 42.2771C139.597 42.2771 142.161 44.9545 142.161 48.6183C142.19 52.254 139.653 54.9878 136.271 54.9878Z" fill="#2F2B24"/>
<path d="M111.921 40.4731V42.6432C110.511 41.0086 108.454 40.1067 106.115 40.1067C101.183 40.1067 97.4907 43.7987 97.4907 48.6463C97.4907 53.4656 101.126 57.1294 105.946 57.1294C108.341 57.1294 110.54 56.1712 111.921 54.5648V56.0021C111.892 59.6096 109.384 62.3152 105.974 62.3152C103.043 62.3152 100.732 60.2296 100.168 57.2985H97.6035C98.2799 61.4697 101.775 64.6826 105.946 64.6826C111.075 64.6826 114.485 60.9624 114.485 55.3539V40.4449H111.921V40.4731ZM106.03 54.8466C102.733 54.8466 100.055 52.1128 100.055 48.759C100.055 45.2079 102.705 42.3895 106.087 42.3895C109.215 42.3895 111.949 45.2361 111.949 48.4772C111.921 52.3101 108.877 54.8466 106.03 54.8466Z" fill="#2F2B24"/>
<path d="M173.755 40.0503C171.444 40.0503 169.246 41.0649 167.949 42.6432V40.473H165.356V64.2316H167.949V54.7338C169.358 56.4248 171.444 57.3267 173.896 57.3267C178.715 57.3267 182.379 53.6347 182.379 48.7308C182.407 43.7987 178.687 40.0503 173.755 40.0503ZM173.84 55.0438C170.993 55.0438 167.949 52.451 167.949 48.5898C167.949 45.2924 170.683 42.3895 173.783 42.3895C177.165 42.3895 179.843 45.236 179.843 48.8435C179.843 52.2537 177.165 55.0438 173.84 55.0438Z" fill="#2F2B24"/>
<path d="M48.649 37.7959C48.649 38.5005 48.0572 39.0924 47.3526 39.0924C46.648 39.0924 46.0562 38.5005 46.0562 37.7959C46.0562 37.0914 46.648 36.4995 47.3526 36.4995C48.0572 36.4995 48.649 37.0914 48.649 37.7959Z" fill="#2F2B24"/>
<path d="M184.549 40.5294C184.859 40.8394 185 41.234 185 41.6567C185 42.1077 184.831 42.5022 184.521 42.8123C184.211 43.1223 183.788 43.2914 183.365 43.2914C182.943 43.2914 182.52 43.1223 182.21 42.8123C181.9 42.5022 181.731 42.1077 181.731 41.6849C181.731 41.2622 181.9 40.8394 182.21 40.5294C182.52 40.2194 182.886 40.0785 183.337 40.0785C183.844 40.0503 184.239 40.2194 184.549 40.5294ZM182.435 40.6985C182.182 40.9803 182.013 41.3185 182.013 41.6849C182.013 42.0513 182.153 42.3895 182.407 42.6432C182.661 42.8968 183.027 43.0659 183.365 43.0659C183.76 43.0659 184.098 42.925 184.352 42.6713C184.605 42.4177 184.746 42.0795 184.746 41.7131C184.746 41.3185 184.605 40.9803 184.352 40.7267C184.07 40.4449 183.76 40.3039 183.365 40.3039C183.027 40.3039 182.689 40.4167 182.435 40.6985ZM183.422 40.7267C183.929 40.7267 184.183 40.8958 184.183 41.234C184.183 41.4876 184.042 41.6849 183.788 41.7413L184.183 42.5586H183.76L183.394 41.7977H183.112V42.5586H182.717V40.7267H183.422ZM183.112 41.544H183.365C183.647 41.544 183.788 41.4595 183.788 41.2622C183.788 41.0649 183.647 40.9803 183.337 40.9803H183.112V41.544Z" fill="#2F2B24"/>
</svg>
