<svg width="200" height="100" viewBox="0 0 200 100" fill="none" xmlns="http://www.w3.org/2000/svg">
<path d="M45.6924 34.2256V66.641H55.2977V41.4183L45.6924 34.2256Z" fill="#2F2B24"/>
<path d="M41.8047 37.1415V66.7139H43.8017V35.6348L41.8047 37.1415Z" fill="#2F2B24"/>
<path d="M37.9167 66.544H39.9138V38.3809L37.9167 39.8027V66.544Z" fill="#2F2B24"/>
<path d="M34.272 66.544H36.269V41.2239L34.272 42.7407V66.544Z" fill="#2F2B24"/>
<path d="M57.1133 48.8052V66.7211H66.7211V56.0098L57.1133 48.8052Z" fill="#2F2B24"/>
<path d="M30.384 51.4782V66.5486H32.3811V50.0542L30.384 51.4782Z" fill="#2F2B24"/>
<path d="M26.4961 66.544H28.4931V52.8948L26.4961 54.317V66.544Z" fill="#2F2B24"/>
<path d="M22.8511 66.544H24.8481V55.7378L22.8511 57.2546V66.544Z" fill="#2F2B24"/>
<path d="M91.3751 52.2072C88.5249 52.2072 86.717 50.5958 86.717 47.4686V41.4014H89.0921V47.4686C89.0921 49.1747 89.9493 50.1225 91.4708 50.1225C92.8959 50.1225 93.7527 49.1743 93.7527 47.4686V41.4014H96.1314V47.3741C96.1314 50.6908 94.2278 52.2072 91.3733 52.2072H91.3751Z" fill="#2F2B24"/>
<path d="M103.039 52.2071C101.425 52.2071 99.8069 51.6381 98.5703 50.5011L99.9023 48.8897C100.852 49.6479 101.899 50.1216 103.134 50.1216C104.084 50.1216 104.656 49.7425 104.656 49.1738V49.0789C104.656 48.5102 104.277 48.2257 102.47 47.752C100.377 47.1833 98.9487 46.5197 98.9487 44.4352C98.9487 42.4444 100.47 41.2131 102.659 41.2131C104.277 41.2131 105.607 41.6868 106.652 42.54L105.416 44.341C104.562 43.6774 103.609 43.2983 102.658 43.2983C101.801 43.2983 101.326 43.6774 101.326 44.2461C101.326 44.9093 101.801 45.1938 103.608 45.6679C105.797 46.2366 107.032 46.9952 107.032 48.89C107.032 51.0698 105.414 52.2067 103.034 52.2067L103.039 52.2071Z" fill="#2F2B24"/>
<path d="M116.89 52.2071V47.8476H112.516V52.2071H110.14V41.4958H112.516V45.6657H116.89V41.4958H119.268V52.2071H116.89Z" fill="#2F2B24"/>
<path d="M157.956 52.2071L152.916 45.4762V52.2071H150.634V41.4958H152.82L157.862 48.3217V41.4958H160.144V52.2071H157.956Z" fill="#2F2B24"/>
<path d="M111.787 66.5439L108.458 61.9949L107.222 63.3218V66.5439H104.844V55.833H107.222V60.5712L111.596 55.833H114.446L110.072 60.3842L114.641 66.5464L111.787 66.5439Z" fill="#2F2B24"/>
<path d="M117.375 66.5438V55.8325H125.365V57.918H119.657V60.0981H124.699V62.1832H119.657V64.4583H125.46V66.5438H117.375Z" fill="#2F2B24"/>
<path d="M140.217 55.8325H142.499V66.5438H140.217V55.8325Z" fill="#2F2B24"/>
<path d="M145.806 66.5438V55.8325H153.795V57.918H148.185V60.0981H153.127V62.1832H148.185V64.4583H153.888V66.5438H145.806Z" fill="#2F2B24"/>
<path d="M157.47 66.5438V55.8325H159.845V64.4586H165.174V66.5441L157.47 66.5438Z" fill="#2F2B24"/>
<path d="M172.292 66.5438H168.108V55.8325H172.292C175.716 55.8325 178 58.2025 178 61.1419V61.2365C178 64.2691 175.718 66.5459 172.292 66.5459V66.5438ZM175.526 61.2344C175.526 59.3384 174.194 58.0122 172.292 58.0122H170.485V64.4586H172.292C174.196 64.4586 175.526 63.1314 175.526 61.2365V61.2344Z" fill="#2F2B24"/>
<path d="M79.7114 50.0202C77.7118 50.0202 76.3824 48.5037 76.3824 46.7031V46.6085C76.3824 44.8075 77.6183 43.2918 79.5196 43.2918C80.566 43.1968 81.5192 43.6709 82.1828 44.4295L83.704 42.6282C82.6576 41.6804 81.2329 41.0171 79.5196 41.1121C76.1907 41.1121 73.8167 43.6705 73.9091 46.7031C74.0051 49.8306 76.3827 52.1999 79.7117 52.1049C81.4224 52.1049 82.9436 51.3467 83.8935 50.209L82.2792 48.6926C81.708 49.4511 80.7577 49.9245 79.7106 50.0195L79.7114 50.0202Z" fill="#2F2B24"/>
<path d="M131.469 41.5154H134.038V52.2266H131.756V45.2112L128.713 49.7602H128.62L125.573 45.2112V52.2266H123.387V41.5154H125.858L128.711 45.9694L131.469 41.5154Z" fill="#2F2B24"/>
<path d="M140.946 41.5154L136.378 52.2266H138.852L139.802 49.7624H144.365L145.318 52.2266H147.789L143.226 41.5154H140.946ZM140.66 47.6776L142.085 44.2659L143.514 47.6776H140.66Z" fill="#2F2B24"/>
<path d="M95.5063 55.8521L90.9429 66.5633H93.3215L94.3675 64.1933H98.8389L99.882 66.5633H102.26L97.6969 55.8521H95.5063ZM95.1276 62.1092L96.5527 58.6026L97.981 62.1092H95.1276Z" fill="#2F2B24"/>
<path d="M130.983 58.0388V60.3135H136.023V62.494H130.983V66.5689H128.605V55.8577H136.784V58.0378L130.983 58.0388Z" fill="#2F2B24"/>
<path d="M88.2161 55.8521L85.745 63.3412L83.2735 55.8521H80.9883L78.5172 63.3412L76.0458 55.8521H73.4775L77.3748 66.5633H79.7535L82.1318 59.2637L84.6029 66.5633H86.8852L90.7854 55.8521H88.2161Z" fill="#2F2B24"/>
<path d="M175.208 49.5343L176.444 48.1124L175.019 46.5956L173.876 47.8279L172.544 46.2165C173.401 45.7424 173.972 44.7946 173.972 43.8468C173.876 42.33 172.736 41.2883 171.215 41.2883C170.454 41.2883 169.786 41.5721 169.311 42.0462C168.836 42.5203 168.55 43.1835 168.55 43.9421C168.646 44.795 169.122 45.4589 169.5 45.9327C168.265 46.4067 167.315 47.734 167.408 49.0602C167.504 50.8608 169.025 52.3769 170.929 52.3769C171.975 52.3769 173.114 51.8082 173.876 50.9554L174.83 52.1873H177.587L175.208 49.5343ZM172.64 49.4393C172.068 50.1029 171.5 50.3874 170.929 50.3874C170.168 50.3874 169.501 49.8184 169.501 48.9656C169.407 48.4915 169.787 47.8279 170.833 47.3538L172.64 49.4393ZM171.307 44.9852C171.022 44.7011 170.643 44.322 170.547 43.9429C170.547 43.5637 170.736 43.1839 171.307 43.0897C171.783 43.0897 172.068 43.4684 172.068 43.9429C172.068 44.4166 171.593 44.7957 171.307 44.9852Z" fill="#2F2B24"/>
</svg>
