<svg width="200" height="100" viewBox="0 0 200 100" fill="none" xmlns="http://www.w3.org/2000/svg">
<g clip-path="url(#clip0_134_13984)">
<path fill-rule="evenodd" clip-rule="evenodd" d="M71.5011 50.7652C71.1257 50.9622 70.6746 51.1356 70.1448 51.2926C69.5601 51.4546 68.969 51.5918 68.373 51.7037C67.7149 51.8237 67.0342 51.8867 66.3229 51.8867C64.8033 51.8867 63.3981 51.6585 62.1089 51.1933C60.8559 50.7592 59.7166 50.0408 58.7775 49.0926C57.8446 48.1533 57.115 47 56.5881 45.6407C56.0546 44.2778 55.7915 42.7281 55.7915 40.9904C55.7915 39.2511 56.0546 37.6993 56.5881 36.3363C57.115 34.9793 57.8555 33.8267 58.8073 32.8859C59.7577 31.9437 60.899 31.2281 62.2255 30.7363C63.5548 30.2467 65.0161 30 66.6122 30C67.8796 30 69.0399 30.137 70.0865 30.4119C71.1367 30.6896 72.0645 31.023 72.8705 31.4126C72.716 31.6978 72.5936 32.0881 72.4966 32.5785C72.4019 33.0689 72.3261 33.4793 72.2671 33.8052L72.0943 33.8681C71.9027 33.6237 71.6323 33.3452 71.2883 33.0378C70.9084 32.708 70.502 32.4111 70.0733 32.1504C69.5833 31.848 69.0604 31.6044 68.5151 31.4244C67.8995 31.2282 67.2574 31.1315 66.6122 31.1378C65.4745 31.1378 64.4221 31.3289 63.4521 31.7185C62.4808 32.1094 61.6113 32.7229 60.9114 33.5111C60.1928 34.3252 59.6287 35.3474 59.2264 36.583C58.8212 37.8222 58.6186 39.2919 58.6186 40.9904C58.6186 42.6889 58.8212 44.1556 59.2264 45.397C59.6287 46.6333 60.1928 47.6563 60.9114 48.4659C61.61 49.2557 62.4798 49.8695 63.4521 50.2585C64.4221 50.6511 65.4745 50.8437 66.6122 50.8437C67.3031 50.8437 67.9437 50.7504 68.529 50.5681C69.5857 50.2422 70.5814 49.739 71.4748 49.0793C71.8684 48.7807 72.1978 48.5237 72.4668 48.297L72.5856 48.4185L72.3261 50.2274C72.1526 50.3904 71.8779 50.5704 71.5011 50.7652ZM87.2347 39.7541C86.9169 38.7719 86.4731 37.9593 85.9017 37.3185C85.351 36.6914 84.6644 36.2029 83.896 35.8919C83.1278 35.5859 82.2955 35.4326 81.3984 35.4326C80.5165 35.4326 79.6929 35.5859 78.9262 35.8919C78.1572 36.2032 77.4696 36.6915 76.9176 37.3185C76.3491 37.9593 75.9046 38.7719 75.5839 39.7541C75.2639 40.7348 75.1051 41.8985 75.1051 43.2459C75.1051 44.5919 75.2639 45.7548 75.5839 46.7393C75.9046 47.72 76.3491 48.5319 76.9176 49.1711C77.4686 49.7991 78.1565 50.2874 78.9262 50.597C79.6937 50.9059 80.5165 51.0585 81.3984 51.0585C82.2955 51.0585 83.1278 50.9059 83.896 50.597C84.665 50.2876 85.352 49.7992 85.9017 49.1711C86.4731 48.5326 86.9169 47.72 87.2354 46.7393C87.5547 45.7548 87.7165 44.5911 87.7165 43.2459C87.7165 41.8978 87.5539 40.7348 87.2347 39.7541ZM73.4995 39.5578C73.9149 38.4785 74.5016 37.5667 75.2559 36.8215C76.0066 36.0704 76.9082 35.5044 77.9569 35.1141C79.0064 34.7274 80.1536 34.5289 81.3984 34.5289C82.6607 34.5289 83.8151 34.7274 84.8639 35.1141C85.9134 35.5044 86.8142 36.0704 87.5656 36.8215C88.3185 37.5667 88.9059 38.4785 89.322 39.5578C89.7404 40.6378 89.9495 41.8652 89.9495 43.2467C89.9495 44.6237 89.7404 45.8563 89.3228 46.9341C88.9059 48.0133 88.3185 48.9252 87.5656 49.6704C86.8142 50.4185 85.9134 50.9726 84.8639 51.3415C83.8144 51.7044 82.6607 51.8867 81.3984 51.8867C80.1536 51.8867 79.0064 51.7044 77.9569 51.3415C76.9074 50.9726 76.0066 50.4193 75.2552 49.6704C74.5016 48.9252 73.9142 48.0133 73.4988 46.9341C73.079 45.8563 72.8705 44.623 72.8705 43.2459C72.8705 41.8652 73.079 40.6385 73.4995 39.5578ZM98.5904 38.7007C99.2098 37.6615 99.8461 36.523 100.503 35.283C100.849 35.3637 101.138 35.403 101.375 35.403C101.61 35.403 101.898 35.3637 102.245 35.283C101.351 36.557 100.474 37.8037 99.6107 39.0289C98.7407 40.2663 97.9099 41.5316 97.1196 42.823C98.8677 45.887 100.686 48.9091 102.573 51.8867C102.355 51.8539 102.135 51.837 101.914 51.8363H100.599C100.376 51.8363 100.159 51.8541 99.9401 51.8867C99.3155 50.7096 98.6909 49.5163 98.0729 48.2963C97.4282 47.0391 96.7178 45.8179 95.9448 44.6378C95.1626 45.8337 94.4171 47.0541 93.7095 48.297C93.0229 49.5156 92.3473 50.7096 91.6899 51.8867C91.5389 51.8543 91.3851 51.8375 91.2308 51.8363H90.4094C90.2571 51.8363 90.1062 51.8541 89.9503 51.8867C90.8904 50.5504 91.8069 49.1971 92.6994 47.8274C93.6044 46.4406 94.4977 45.046 95.3792 43.6437C94.574 42.2428 93.7557 40.8496 92.9246 39.4644C92.0855 38.0685 91.243 36.6747 90.397 35.283C90.6142 35.3148 90.8278 35.3422 91.0326 35.3667C91.2337 35.3919 91.4451 35.4037 91.6659 35.4037C91.8831 35.4037 92.0952 35.3919 92.3 35.3667C92.5055 35.3422 92.7154 35.3148 92.934 35.283C93.4543 36.3699 94.0114 37.4382 94.6045 38.4859C95.2021 39.5378 95.8566 40.6807 96.5796 41.9052C97.2724 40.8519 97.9428 39.7835 98.5904 38.7007Z" fill="#2F2B24"/>
<path fill-rule="evenodd" clip-rule="evenodd" d="M39.9049 61.5349C40.3509 61.5349 40.8159 61.5423 41.2969 61.5556C41.7794 61.5749 42.2444 61.5815 42.6912 61.5815C43.1729 61.5815 43.6539 61.5778 44.1379 61.5726C44.6174 61.5638 45.0999 61.5489 45.5831 61.5349L42.7181 55.2356L39.9049 61.5349ZM51.3364 69.246C51.1097 69.2124 50.881 69.1951 50.652 69.1941H49.2855C49.0697 69.1941 48.8445 69.2104 48.6026 69.246C48.4513 68.7822 48.2875 68.3228 48.1114 67.8682C47.892 67.302 47.6636 66.7395 47.4263 66.1808L46.6654 64.3971C46.4088 63.7934 46.1669 63.2208 45.9439 62.6741C45.3922 62.6578 44.8324 62.6452 44.2661 62.6386C43.6977 62.6282 43.1306 62.6252 42.5614 62.6252C42.0279 62.6252 41.5039 62.6282 40.9879 62.6386C40.4719 62.6452 39.9472 62.6578 39.4137 62.6741C38.8634 63.963 38.3635 65.1926 37.9174 66.3586C37.4692 67.5223 37.1332 68.4845 36.9095 69.2452C36.618 69.2104 36.2995 69.1949 35.9562 69.1949C35.6107 69.1949 35.2908 69.2104 35 69.2452C36.381 66.3794 37.7403 63.5027 39.0777 60.6156C40.402 57.7556 41.7379 54.8452 43.0789 51.8867H43.5687C44.5022 54.055 45.44 56.2214 46.3819 58.386C46.8782 59.5193 47.3772 60.6514 47.8789 61.7823C48.7285 63.698 49.5933 65.6067 50.4734 67.5082C50.824 68.2712 51.1133 68.8497 51.3364 69.246Z" fill="#2F2B24"/>
<mask id="mask0_134_13984" style="mask-type:luminance" maskUnits="userSpaceOnUse" x="50" y="55" width="13" height="15">
<path d="M62.2621 70H50.7905V55.7185H62.2621V70Z" fill="white"/>
</mask>
<g mask="url(#mask0_134_13984)">
<path fill-rule="evenodd" clip-rule="evenodd" d="M60.9779 57.8805C60.9655 56.8331 60.9327 56.1123 60.8817 55.7175C61.0238 55.7442 61.1579 55.7679 61.2884 55.7894C61.4181 55.8101 61.5471 55.8175 61.679 55.8175C61.8466 55.8175 62.0405 55.7864 62.2621 55.7183C62.2169 56.2852 62.1781 56.8527 62.1454 57.4205C62.1054 58.0798 62.0726 58.7886 62.0478 59.5427C62.0201 60.2975 61.9946 61.0738 61.9676 61.8694C61.9432 62.6411 61.9245 63.413 61.9115 64.1849C61.8984 65.0975 61.7657 65.9123 61.5128 66.6346C61.2621 67.3546 60.9006 67.9672 60.4335 68.4679C59.9549 68.9805 59.3652 69.3724 58.7113 69.6123C58.0335 69.8716 57.2529 70.0005 56.3711 70.0005C54.4258 70.0005 53.0134 69.5375 52.1323 68.616C51.2504 67.6872 50.8109 66.2242 50.8109 64.2272C50.8109 63.5864 50.827 63.0183 50.8598 62.5227C50.8919 62.0162 50.9077 61.5088 50.9071 61.0012C50.9071 59.8598 50.8926 58.8442 50.8671 57.962C50.8456 57.2139 50.8201 56.466 50.7905 55.7183C50.9436 55.7442 51.1127 55.7679 51.2963 55.7894C51.4771 55.8101 51.6462 55.8175 51.8007 55.8175C51.9435 55.8175 52.0834 55.8101 52.2197 55.7894C52.3546 55.7672 52.493 55.7442 52.6366 55.7183C52.6046 56.1084 52.5796 56.4991 52.5615 56.8901C52.5353 57.3731 52.5091 57.9205 52.4828 58.5331C52.4542 59.192 52.4351 59.8514 52.4253 60.5109C52.4107 61.219 52.4034 61.9531 52.4034 62.7153C52.4034 63.1768 52.4107 63.659 52.4253 64.1531C52.4362 64.6509 52.4836 65.1331 52.5615 65.6027C52.6381 66.0723 52.7634 66.5212 52.9391 66.9501C53.114 67.3775 53.3632 67.7516 53.6868 68.0701C54.0112 68.3931 54.4207 68.6449 54.912 68.8264C55.4054 69.0094 56.0147 69.102 56.7413 69.102C57.4541 69.102 58.0532 68.9938 58.5385 68.7768C59.0254 68.5575 59.4241 68.2731 59.7345 67.9183C60.0495 67.5592 60.2966 67.1441 60.4633 66.6938C60.6383 66.2316 60.7629 65.7494 60.8431 65.2472C60.9203 64.7427 60.9662 64.2398 60.9786 63.736C60.9917 63.2737 60.9985 62.8112 60.999 62.3486C60.999 60.4146 60.9917 58.9272 60.9786 57.8798" fill="#2F2B24"/>
</g>
<path fill-rule="evenodd" clip-rule="evenodd" d="M67.5292 56.689C67.1808 56.689 66.8135 56.6934 66.4323 56.6964C66.049 56.7075 65.6649 56.7179 65.283 56.7393C64.8996 56.7556 64.5301 56.7801 64.173 56.8045C63.8537 56.83 63.5351 56.8638 63.2175 56.906C63.2839 56.669 63.3188 56.4571 63.3188 56.2734C63.3188 56.1297 63.2839 55.9253 63.2175 55.6608C64.1045 55.6867 64.9696 55.7097 65.8165 55.729C66.6634 55.7512 67.5292 55.7593 68.4154 55.7593C69.3024 55.7593 70.1682 55.7505 71.0158 55.729C71.8817 55.7091 72.7476 55.6864 73.6133 55.6608C73.5477 55.9253 73.5149 56.1356 73.5149 56.2934C73.5149 56.4645 73.5477 56.6682 73.6133 56.906C73.2953 56.8635 72.9762 56.8297 72.6564 56.8045C72.2879 56.7777 71.9191 56.756 71.5501 56.7393C71.1682 56.7179 70.7848 56.7075 70.4022 56.6964C70.0188 56.6934 69.653 56.689 69.3017 56.689C69.2622 58.0528 69.2425 59.4171 69.2426 60.7816V64.1845C69.2426 65.0542 69.2594 65.9127 69.2922 66.7527C69.3243 67.5986 69.3629 68.4297 69.4037 69.2453C69.075 69.2176 68.7453 69.204 68.4154 69.2045C68.0663 69.2045 67.7391 69.2193 67.4272 69.2453C67.4694 68.4297 67.5073 67.5986 67.5394 66.7527C67.5736 65.9127 67.5904 65.0542 67.5904 64.1845V60.7816C67.5904 59.4119 67.57 58.0475 67.5292 56.689ZM85.3618 59.2223C85.087 58.4105 84.7 57.7393 84.203 57.2119C83.7177 56.6887 83.1211 56.2851 82.4589 56.0319C81.7913 55.7786 81.0676 55.6527 80.2849 55.6527C79.5196 55.6527 78.8017 55.7786 78.1371 56.0319C77.4738 56.2846 76.8762 56.6882 76.3901 57.2119C75.8945 57.7393 75.5075 58.4105 75.2306 59.2223C74.9529 60.0327 74.8144 60.9942 74.8144 62.1075C74.8144 63.2193 74.9529 64.1801 75.2298 64.9949C75.5068 65.803 75.8945 66.4756 76.3901 67.0023C76.8763 67.5255 77.4739 67.9286 78.1371 68.1808C78.8245 68.4388 79.5522 68.568 80.2849 68.5623C81.0676 68.5623 81.7913 68.4349 82.4589 68.1808C83.121 67.9281 83.7175 67.525 84.203 67.0023C84.7 66.4756 85.087 65.803 85.3618 64.9949C85.6402 64.1801 85.7794 63.2193 85.7794 62.1075C85.7794 60.9942 85.6402 60.0334 85.3618 59.2223ZM73.4158 59.0601C73.7802 58.1682 74.2875 57.4156 74.9427 56.8001C75.5986 56.1793 76.3814 55.7112 77.2916 55.3897C78.2056 55.069 79.2026 54.906 80.2849 54.906C81.3854 54.906 82.3897 55.069 83.3022 55.3897C84.2132 55.7112 84.9967 56.1793 85.6519 56.8001C86.3078 57.4156 86.8143 58.1682 87.1802 59.0601C87.5417 59.9527 87.7224 60.9667 87.7224 62.1075C87.7224 63.2467 87.5417 64.2638 87.1802 65.1549C86.8143 66.0453 86.3078 66.7993 85.6519 67.4149C84.9967 68.0334 84.2132 68.4905 83.3022 68.7964C82.3897 69.0956 81.3854 69.2453 80.2849 69.2453C79.2026 69.2453 78.2056 69.0956 77.2916 68.7964C76.3806 68.4905 75.5986 68.0334 74.9427 67.4149C74.2875 66.7993 73.7795 66.0453 73.4158 65.1549C73.0514 64.2638 72.8707 63.2467 72.8707 62.1075C72.8707 60.9667 73.0521 59.9527 73.4158 59.0601ZM93.4487 61.0171C94.4033 62.8034 95.3709 64.5825 96.3516 66.3542C96.4813 66.1075 96.6715 65.7571 96.9208 65.2979C97.1686 64.8386 97.4572 64.309 97.7852 63.7134C98.1124 63.1208 98.4644 62.4786 98.839 61.783C99.217 61.0802 99.5969 60.3785 99.9789 59.6779C100.364 58.966 100.749 58.2667 101.129 57.5808C101.508 56.8971 101.862 56.2549 102.19 55.6608H102.447C102.59 56.9023 102.725 58.1045 102.85 59.2608C102.974 60.4193 103.102 61.5571 103.234 62.6764C103.365 63.7971 103.495 64.9023 103.627 65.9971C103.755 67.0882 103.904 68.1734 104.059 69.2453C103.906 69.2194 103.752 69.2061 103.597 69.2053H102.673C102.522 69.2053 102.367 69.2201 102.211 69.2453C102.072 67.5766 101.927 65.9084 101.775 64.2408C101.631 62.5876 101.454 60.9374 101.246 59.2912H101.206C100.31 60.9075 99.4226 62.5285 98.5431 64.1542C97.6495 65.8046 96.8195 67.4899 96.055 69.206H95.88C95.0828 67.5591 94.2592 65.9255 93.4094 64.306C92.5362 62.6403 91.674 60.9686 90.8228 59.2912H90.7864C90.6931 60.0927 90.591 60.9623 90.4803 61.8986C90.2695 63.6813 90.0883 65.4675 89.9366 67.2564C89.8801 67.9179 89.8485 68.5813 89.8418 69.2453C89.6135 69.2181 89.3837 69.2048 89.1538 69.2053C88.9038 69.2053 88.6728 69.2201 88.4644 69.2453C88.6356 68.1993 88.8113 67.0934 88.9949 65.929C89.1786 64.7638 89.355 63.5927 89.527 62.4149C89.6961 61.2349 89.8549 60.0764 89.9978 58.9319C90.1421 57.7845 90.266 56.6949 90.3731 55.6608H90.7069C91.592 57.4614 92.5061 59.247 93.4487 61.0171ZM117.296 59.2223C117.016 58.4105 116.628 57.7393 116.132 57.2119C115.648 56.6884 115.051 56.2847 114.389 56.0319C113.721 55.7786 112.998 55.6527 112.219 55.6527C111.45 55.6527 110.733 55.7786 110.067 56.0319C109.404 56.2855 108.807 56.689 108.32 57.2119C107.825 57.7393 107.439 58.4105 107.161 59.2223C106.884 60.0327 106.744 60.9942 106.744 62.1075C106.744 63.2193 106.884 64.1801 107.161 64.9949C107.439 65.803 107.825 66.4756 108.32 67.0023C108.807 67.5248 109.405 67.9278 110.068 68.1808C110.756 68.439 111.485 68.5682 112.219 68.5623C112.999 68.5623 113.722 68.4349 114.39 68.1808C115.052 67.9285 115.648 67.5253 116.133 67.0023C116.629 66.4756 117.017 65.803 117.297 64.9949C117.572 64.1801 117.712 63.2193 117.712 62.1075C117.712 60.9942 117.572 60.0334 117.296 59.2223ZM105.348 59.0601C105.711 58.1682 106.22 57.4156 106.873 56.8001C107.529 56.1793 108.313 55.7112 109.225 55.3897C110.137 55.069 111.135 54.906 112.219 54.906C113.316 54.906 114.318 55.069 115.233 55.3897C116.145 55.7112 116.929 56.1793 117.583 56.8001C118.237 57.4156 118.747 58.1682 119.11 59.0601C119.474 59.9527 119.653 60.9667 119.653 62.1075C119.653 63.2467 119.474 64.2638 119.11 65.1549C118.747 66.0453 118.237 66.7993 117.583 67.4149C116.929 68.0334 116.145 68.4905 115.233 68.7964C114.318 69.0956 113.316 69.2453 112.219 69.2453C111.134 69.2453 110.137 69.0956 109.225 68.7964C108.313 68.4905 107.53 68.0334 106.873 67.4149C106.22 66.7993 105.711 66.0453 105.348 65.1549C104.984 64.2638 104.801 63.2467 104.801 62.1075C104.801 60.9667 104.984 59.9527 105.348 59.0601ZM123.218 56.689C122.869 56.689 122.506 56.6934 122.123 56.6964C121.739 56.7075 121.355 56.7179 120.973 56.7393C120.589 56.7556 120.221 56.7801 119.865 56.8045C119.51 56.8342 119.19 56.8675 118.911 56.906C118.974 56.669 119.011 56.4571 119.011 56.2734C119.011 56.1297 118.974 55.9253 118.91 55.6608C119.795 55.6867 120.662 55.7097 121.509 55.729C122.352 55.7512 123.218 55.7593 124.104 55.7593C124.993 55.7593 125.86 55.7505 126.706 55.729C127.573 55.7096 128.439 55.6869 129.306 55.6608C129.239 55.9253 129.201 56.1356 129.201 56.2934C129.201 56.4645 129.239 56.6682 129.306 56.906C129.021 56.8675 128.703 56.8342 128.347 56.8045C127.978 56.7777 127.608 56.756 127.238 56.7393C126.854 56.7179 126.473 56.7075 126.092 56.6964C125.707 56.6934 125.343 56.689 124.994 56.689C124.952 58.0527 124.931 59.4171 124.931 60.7816V64.1845C124.931 65.0542 124.949 65.9127 124.981 66.7527C125.017 67.5986 125.054 68.4297 125.093 69.2453C124.764 69.2176 124.434 69.204 124.104 69.2045C123.756 69.2045 123.428 69.2193 123.117 69.2453C123.158 68.4297 123.195 67.5986 123.231 66.7527C123.262 65.9127 123.281 65.0542 123.281 64.1845V60.7816C123.281 59.4119 123.261 58.0475 123.218 56.689ZM131.66 58.2223C131.621 57.3853 131.582 56.5312 131.534 55.6608C131.733 55.6867 131.922 55.7097 132.104 55.729C132.284 55.7512 132.466 55.7593 132.647 55.7593C132.829 55.7593 133.011 55.7505 133.192 55.729C133.375 55.7097 133.564 55.6867 133.761 55.6608C133.717 56.5142 133.676 57.3678 133.638 58.2216C133.597 59.0742 133.578 59.9279 133.58 60.7816V64.1845C133.58 65.0542 133.596 65.9127 133.638 66.7527C133.675 67.5986 133.716 68.4297 133.761 69.2453C133.39 69.2176 133.019 69.204 132.647 69.2045C132.254 69.2045 131.882 69.2193 131.534 69.2453C131.582 68.4297 131.621 67.5986 131.66 66.7527C131.698 65.9127 131.718 65.0542 131.718 64.1845V60.7816C131.718 59.9279 131.699 59.0751 131.66 58.2223Z" fill="#2F2B24"/>
<mask id="mask1_134_13984" style="mask-type:luminance" maskUnits="userSpaceOnUse" x="134" y="55" width="14" height="15">
<path d="M147.336 69.9999H134.751V55.9829H147.336V69.9999V69.9999Z" fill="white"/>
</mask>
<g mask="url(#mask1_134_13984)">
<path fill-rule="evenodd" clip-rule="evenodd" d="M139.184 67.1042C138.747 65.9745 138.279 64.7834 137.782 63.5323C137.286 62.2805 136.774 61.0012 136.251 59.6953C135.755 58.4562 135.255 57.2186 134.751 55.9827C134.934 56.0101 135.114 56.0338 135.287 56.053C135.617 56.0973 135.951 56.0973 136.281 56.053C136.454 56.0338 136.632 56.0101 136.817 55.9827C137.107 56.8819 137.433 57.8227 137.782 58.8071C138.134 59.796 138.503 60.799 138.894 61.8175C139.292 62.8532 139.694 63.8875 140.099 64.9205C140.51 65.9671 140.926 67.0093 141.349 68.0405C141.588 67.4842 141.849 66.8627 142.128 66.173C142.719 64.7154 143.282 63.2462 143.817 61.7664C144.096 60.999 144.364 60.2612 144.624 59.5553C144.88 58.8456 145.116 58.1849 145.328 57.5745C145.539 56.9619 145.718 56.4323 145.866 55.9819C146.157 56.0508 146.401 56.0856 146.602 56.0856C146.801 56.0856 147.045 56.0508 147.336 55.9819C146.315 58.3173 145.322 60.6647 144.355 63.0234C143.406 65.3355 142.491 67.6614 141.609 70.0005C141.391 69.9723 141.172 69.9582 140.953 69.9582C140.688 69.9582 140.469 69.973 140.297 70.0005C139.929 69.0336 139.558 68.0682 139.184 67.1042Z" fill="#2F2B24"/>
</g>
<path fill-rule="evenodd" clip-rule="evenodd" d="M148.726 58.1918C148.692 57.3479 148.654 56.5042 148.613 55.6606C149.228 55.6866 149.838 55.7095 150.449 55.7288C151.058 55.751 151.67 55.7599 152.284 55.7599C152.9 55.7599 153.507 55.7503 154.109 55.7288C154.711 55.7095 155.321 55.6866 155.935 55.6606C155.855 56.0516 155.855 56.4549 155.935 56.8458C155.498 56.8214 155.098 56.794 154.736 56.7681C154.354 56.74 153.971 56.7136 153.589 56.6888C153.148 56.6613 152.707 56.6385 152.265 56.6206C151.69 56.5984 151.115 56.5885 150.54 56.591C150.529 57.0118 150.51 57.4132 150.489 57.7947C150.468 58.2305 150.458 58.6666 150.459 59.1029C150.459 59.6147 150.462 60.1177 150.47 60.6044C150.476 61.0932 150.481 61.4621 150.481 61.7118C151.458 61.7124 152.436 61.6887 153.413 61.6406C153.808 61.6236 154.176 61.6036 154.509 61.5836C154.845 61.5643 155.163 61.5399 155.464 61.514C155.423 61.7118 155.402 61.914 155.402 62.1258C155.402 62.3273 155.423 62.5229 155.464 62.7192C155.052 62.6755 154.639 62.6429 154.225 62.6214C153.753 62.5949 153.28 62.5784 152.807 62.5718C152.336 62.5643 151.892 62.5606 151.473 62.5525C151.142 62.5469 150.811 62.5439 150.481 62.5436C150.481 62.6621 150.476 62.7903 150.47 62.9273C150.461 63.1025 150.457 63.2778 150.459 63.4532V65.411C150.459 66.1606 150.462 66.7814 150.47 67.2673C150.476 67.7547 150.486 68.1258 150.501 68.3755H151.935C152.457 68.3755 152.966 68.3658 153.464 68.3473C153.936 68.3294 154.408 68.3019 154.879 68.2651C155.268 68.2418 155.655 68.1931 156.038 68.1192C156.01 68.2118 155.995 68.3118 155.985 68.4258C155.98 68.5369 155.977 68.6399 155.977 68.7295C155.977 68.9443 155.998 69.1147 156.038 69.2451C155.427 69.2183 154.815 69.2047 154.203 69.2043H150.481C149.864 69.2043 149.244 69.2192 148.613 69.2451C148.656 68.4014 148.691 67.5606 148.726 66.7258C148.761 65.8725 148.779 65.0185 148.779 64.1644V60.7644C148.779 59.8918 148.761 59.0355 148.726 58.1918ZM159.855 55.9725H159.008V55.6606H161.236V55.9725H160.388V58.6792H159.856L159.855 55.9725ZM163.088 57.3814C163.062 56.9881 163.052 56.594 163.057 56.1999H163.037C162.973 56.5525 162.895 56.9025 162.804 57.2488L162.447 58.6636H162.228L161.886 57.3073C161.79 56.9416 161.707 56.5722 161.639 56.1999H161.63C161.637 56.551 161.612 56.9755 161.594 57.4058L161.536 58.6792H161.236L161.414 55.6606H161.779L162.115 57.0414C162.222 57.4384 162.294 57.7347 162.356 58.0858H162.37C162.421 57.7347 162.49 57.4466 162.585 57.0414L162.92 55.6606H163.294L163.464 58.6792H163.152L163.088 57.3814Z" fill="#2F2B24"/>
</g>
<defs>
<clipPath id="clip0_134_13984">
<rect width="129" height="40" fill="white" transform="translate(35 30)"/>
</clipPath>
</defs>
</svg>
