<svg width="160" height="67" viewBox="0 0 160 67" fill="none" xmlns="http://www.w3.org/2000/svg">
<g clip-path="url(#clip0_138_14265)">
<mask id="mask0_138_14265" style="mask-type:luminance" maskUnits="userSpaceOnUse" x="0" y="32" width="160" height="33">
<path d="M159.913 32H0V64.9404H159.913V32Z" fill="white"/>
</mask>
<g mask="url(#mask0_138_14265)">
<path d="M57.7403 39.9154V54.8433H55.2246V39.9154H57.7403Z" fill="#2F2B24"/>
<path d="M102.979 48.6741V54.8433H100.468V49.0729C100.486 48.7495 100.436 48.4259 100.319 48.1216C100.203 47.8172 100.023 47.5384 99.7902 47.3019C99.5579 47.0654 99.2774 46.876 98.9656 46.7453C98.6543 46.6145 98.3179 46.5451 97.9777 46.5411C97.637 46.537 97.2991 46.5985 96.9844 46.7219C96.6697 46.8452 96.384 47.0279 96.1454 47.2588C95.9069 47.4898 95.7194 47.7643 95.595 48.0658C95.4707 48.3673 95.4119 48.6896 95.422 49.0133V54.8433H92.9112V49.0729C92.9367 48.7469 92.8895 48.4195 92.7724 48.1121C92.6553 47.8048 92.4712 47.5244 92.2326 47.2894C91.9936 47.0544 91.7049 46.8701 91.3859 46.7485C91.0668 46.627 90.7247 46.571 90.3811 46.5841C90.0413 46.5869 89.7059 46.6546 89.3946 46.7831C89.0827 46.9116 88.8018 47.0983 88.5676 47.3321C88.3333 47.566 88.1512 47.8422 88.0312 48.1444C87.9112 48.4466 87.8567 48.7686 87.8702 49.0912V54.8433H85.3594V44.5766H87.8702V45.75C88.2673 45.3107 88.7608 44.9598 89.3165 44.7222C89.8721 44.4846 90.4755 44.366 91.0847 44.375C91.7902 44.3596 92.489 44.5116 93.1175 44.8172C93.7459 45.1229 94.2847 45.5726 94.6847 46.1258C95.1232 45.5753 95.6909 45.1301 96.343 44.826C96.995 44.522 97.7126 44.3675 98.4389 44.375C99.0399 44.3519 99.6394 44.4471 100.2 44.6547C100.76 44.8624 101.27 45.1779 101.696 45.5816C102.122 45.9852 102.456 46.4683 102.677 47.0005C102.898 47.5327 103 48.1025 102.979 48.6741Z" fill="#2F2B24"/>
<path d="M111.22 44.375V46.905C108.81 46.7446 107.581 47.9409 107.581 49.5129V54.8434H105.061V44.5767H107.571V46.0296C108.008 45.5088 108.563 45.0891 109.195 44.8025C109.827 44.5158 110.519 44.3697 111.22 44.375Z" fill="#2F2B24"/>
<path d="M122.608 50.5671H114.112C114.272 51.2561 114.683 51.8691 115.272 52.2983C115.861 52.7276 116.59 52.9455 117.331 52.9138C117.946 52.9364 118.556 52.7937 119.089 52.5018C119.623 52.2099 120.059 51.7808 120.348 51.2638L122.439 52.0979C121.989 52.9886 121.281 53.7388 120.399 54.2607C119.516 54.7827 118.495 55.0547 117.456 55.045C114.025 55.045 111.673 52.6754 111.673 49.71C111.657 49.0079 111.79 48.3098 112.064 47.6576C112.338 47.0055 112.747 46.4126 113.268 45.9145C113.788 45.4164 114.41 45.0233 115.093 44.7588C115.778 44.4943 116.511 44.3637 117.249 44.375C120.348 44.375 123.235 46.8225 122.608 50.5671ZM114.131 48.7567H120.348C120.178 48.1133 119.787 47.5424 119.237 47.1346C118.687 46.7269 118.009 46.5057 117.312 46.5063C116.593 46.4868 115.888 46.6983 115.311 47.1066C114.734 47.5149 114.318 48.0962 114.131 48.7567Z" fill="#2F2B24"/>
<path d="M135.329 44.5767V54.8433H132.814V53.4683C132.374 53.9724 131.819 54.3756 131.193 54.6478C130.566 54.92 129.883 55.0542 129.194 55.0404C126.182 55.0404 123.941 52.8496 123.941 49.7054C123.941 46.5612 126.182 44.375 129.194 44.375C129.883 44.3612 130.566 44.4953 131.193 44.7676C131.819 45.0398 132.374 45.443 132.814 45.9471V44.5721L135.329 44.5767ZM132.814 49.71C132.831 49.3018 132.762 48.8944 132.61 48.5123C132.459 48.1301 132.227 47.781 131.93 47.4858C131.633 47.1905 131.277 46.9553 130.882 46.7941C130.487 46.6329 130.062 46.549 129.633 46.5475C127.792 46.5475 126.496 47.9592 126.496 49.71C126.496 51.4608 127.792 52.8771 129.633 52.8771C130.063 52.875 130.488 52.7905 130.883 52.6288C131.277 52.4671 131.633 52.2314 131.93 51.9358C132.227 51.6402 132.459 51.2908 132.61 50.9084C132.762 50.526 132.831 50.1184 132.814 49.71Z" fill="#2F2B24"/>
<path d="M137.084 49.71C137.089 48.4755 137.543 47.2809 138.369 46.3282C139.194 45.3756 140.341 44.7235 141.614 44.4825C142.887 44.2414 144.208 44.4262 145.354 45.0055C146.5 45.5847 147.401 46.523 147.903 47.6612L145.58 48.4175C145.337 47.8833 144.937 47.4267 144.429 47.1018C143.921 46.7769 143.325 46.5973 142.713 46.5841C140.829 46.5841 139.595 47.9591 139.595 49.71C139.56 50.4205 139.792 51.1196 140.252 51.6809C140.711 52.2422 141.367 52.6287 142.1 52.7704C142.832 52.9121 143.595 52.7998 144.248 52.4537C144.901 52.1076 145.403 51.5505 145.662 50.8833L147.923 51.7083C147.509 52.7112 146.782 53.5691 145.839 54.1659C144.896 54.7627 143.783 55.0695 142.65 55.045C141.912 55.0582 141.178 54.929 140.494 54.6651C139.809 54.4011 139.188 54.0079 138.668 53.5093C138.148 53.0107 137.739 52.4169 137.467 51.7639C137.194 51.1109 137.064 50.4122 137.084 49.71Z" fill="#2F2B24"/>
<path d="M159.912 48.8942V54.8525H157.402V49.27C157.425 48.9166 157.37 48.5626 157.24 48.2307C157.11 47.8988 156.909 47.5965 156.649 47.3433C156.388 47.0902 156.075 46.8918 155.729 46.761C155.383 46.6303 155.012 46.57 154.64 46.5842C154.263 46.578 153.889 46.6456 153.541 46.7829C153.193 46.9203 152.879 47.1243 152.618 47.3823C152.356 47.6404 152.154 47.9469 152.022 48.2826C151.891 48.6185 151.834 48.9764 151.855 49.3342V54.8433H149.344V39.9154H151.855V45.9104C152.276 45.4283 152.804 45.0407 153.402 44.7753C153.999 44.5098 154.651 44.3732 155.31 44.375C157.802 44.375 159.912 46.0479 159.912 48.8942Z" fill="#2F2B24"/>
<path d="M44.4718 45.2917V39.9154H41.9609V54.8433H44.4718V54.1146C45.3918 54.6659 46.4591 54.9539 47.5465 54.9442C48.2699 54.9466 48.9874 54.8207 49.6621 54.5729C50.6443 54.1458 51.4766 53.4588 52.0593 52.594C52.6419 51.7291 52.9503 50.7229 52.9479 49.6957C52.9455 48.6686 52.6318 47.6638 52.0453 46.8015C51.4583 45.9392 50.6226 45.256 49.638 44.8333C48.9672 44.5897 48.2549 44.4654 47.5368 44.4667C46.4528 44.4545 45.3883 44.741 44.4718 45.2917ZM47.2525 52.8221C46.6816 52.8295 46.1197 52.6866 45.6289 52.4092C45.1381 52.1317 44.7377 51.7305 44.4718 51.25C44.2092 50.7734 44.072 50.2434 44.072 49.7054C44.072 49.1674 44.2092 48.6374 44.4718 48.1608C44.7363 47.6786 45.1363 47.2755 45.6271 46.9964C46.118 46.7172 46.6806 46.573 47.2525 46.5796C47.6789 46.5806 48.1007 46.6629 48.493 46.8217C48.8853 46.9804 49.2405 47.2123 49.5368 47.5037C49.8332 47.7951 50.0655 48.1401 50.2193 48.5182C50.3735 48.8964 50.4462 49.3001 50.4332 49.7054C50.4467 50.1111 50.3744 50.5153 50.2207 50.894C50.0674 51.2727 49.8352 51.6182 49.5388 51.9101C49.2419 52.202 48.8867 52.4343 48.4944 52.5933C48.1016 52.7523 47.6793 52.8348 47.2525 52.8358V52.8221Z" fill="#2F2B24"/>
<path d="M59.6003 49.71C59.5839 48.6363 59.9039 47.5822 60.5194 46.6818C61.1348 45.7815 62.0182 45.0756 63.0562 44.6539C64.0948 44.2322 65.2418 44.1139 66.3512 44.3139C67.4606 44.5138 68.4823 45.0231 69.2866 45.777C70.0909 46.5307 70.6408 47.495 70.8673 48.5471C71.0938 49.5992 70.9859 50.6915 70.5574 51.6852C70.1295 52.6788 69.3998 53.5288 68.4625 54.1271C67.5247 54.7254 66.421 55.0449 65.2919 55.045C64.5454 55.0668 63.8018 54.9443 63.1064 54.6849C62.4105 54.4255 61.7777 54.0346 61.2456 53.5359C60.7136 53.0371 60.2933 52.4409 60.0105 51.7833C59.728 51.1258 59.5883 50.4204 59.6003 49.71ZM65.2919 52.8358C65.7184 52.8348 66.1401 52.7525 66.5324 52.5938C66.9247 52.435 67.2798 52.2031 67.5762 51.9117C67.8726 51.6203 68.1049 51.2754 68.2586 50.8972C68.4129 50.519 68.4856 50.1154 68.4726 49.71C68.4726 49.3128 68.3902 48.9194 68.2307 48.5524C68.0707 48.1854 67.8365 47.8519 67.5411 47.571C67.2456 47.2901 66.8948 47.0673 66.5092 46.9153C66.1232 46.7632 65.7097 46.685 65.2919 46.685C64.8741 46.685 64.4606 46.7632 64.0745 46.9153C63.689 47.0673 63.3382 47.2901 63.0427 47.571C62.7473 47.8519 62.5131 48.1854 62.3531 48.5524C62.1936 48.9194 62.1112 49.3128 62.1112 49.71C62.0962 50.1158 62.1676 50.5203 62.3208 50.8993C62.4741 51.2784 62.7059 51.6241 63.0027 51.9159C63.2996 52.2077 63.6558 52.4396 64.049 52.5976C64.4423 52.7557 64.8649 52.8367 65.2919 52.8358Z" fill="#2F2B24"/>
<path d="M72.237 49.71C72.2196 48.6351 72.5392 47.5797 73.1546 46.678C73.77 45.7763 74.6534 45.0691 75.6929 44.6464C76.7319 44.2237 77.8799 44.1046 78.9907 44.3042C80.1011 44.5038 81.1242 45.0132 81.9295 45.7674C82.7348 46.5217 83.2862 47.4868 83.5131 48.5398C83.7401 49.5929 83.6327 50.6864 83.2037 51.6811C82.7753 52.6759 82.0457 53.5269 81.1069 54.1259C80.1686 54.7249 79.0635 55.0448 77.9334 55.045C77.1864 55.0667 76.4428 54.9442 75.7469 54.6849C75.051 54.4256 74.4177 54.0348 73.8857 53.5361C73.3531 53.0374 72.9324 52.4413 72.649 51.7837C72.3657 51.126 72.2254 50.4206 72.237 49.71ZM77.9334 52.8358C78.3599 52.8348 78.7816 52.7524 79.1739 52.5937C79.5662 52.435 79.9213 52.2031 80.2177 51.9117C80.5141 51.6203 80.7464 51.2753 80.9001 50.8971C81.0543 50.519 81.1271 50.1153 81.1141 49.71C81.1141 49.3127 81.0317 48.9193 80.8722 48.5524C80.7122 48.1853 80.478 47.8519 80.1825 47.571C79.8871 47.2901 79.5363 47.0673 79.1507 46.9152C78.7647 46.7632 78.3512 46.685 77.9334 46.685C77.5156 46.685 77.1021 46.7632 76.716 46.9152C76.3305 47.0673 75.9796 47.2901 75.6842 47.571C75.3888 47.8519 75.1546 48.1853 74.9946 48.5524C74.8351 48.9193 74.7527 49.3127 74.7527 49.71C74.7377 50.1158 74.809 50.5203 74.9623 50.8993C75.1156 51.2783 75.3474 51.6241 75.6442 51.9158C75.9416 52.2077 76.2972 52.4395 76.6905 52.5976C77.0837 52.7556 77.5064 52.8367 77.9334 52.8358Z" fill="#2F2B24"/>
<path fill-rule="evenodd" clip-rule="evenodd" d="M17.3205 64.945C26.8863 64.945 34.641 57.57 34.641 48.4725C34.641 39.375 26.8863 32 17.3205 32C7.75465 32 0 39.375 0 48.4725C0 57.57 7.75465 64.945 17.3205 64.945ZM20.8295 45.0487L19.9813 47.125C20.4327 47.4043 20.8021 47.7879 21.0549 48.2401C21.3078 48.6922 21.4359 49.198 21.4271 49.71C21.4271 50.4855 21.1031 51.2293 20.5265 51.7777C19.9499 52.3261 19.1679 52.6342 18.3524 52.6342C17.5369 52.6342 16.7548 52.3261 16.1783 51.7777C15.6016 51.2293 15.2777 50.4855 15.2777 49.71C15.2596 49.3253 15.3219 48.9409 15.4609 48.5792C15.5999 48.2175 15.8129 47.8855 16.0876 47.6025C16.3623 47.3196 16.6932 47.0912 17.0613 46.9305C17.4294 46.7699 17.8272 46.6802 18.2319 46.6667L19.0271 44.5583C18.2674 44.4405 17.4899 44.4815 16.7486 44.6783C16.0072 44.8751 15.3199 45.2231 14.7342 45.6981C14.1486 46.1731 13.6787 46.7636 13.3573 47.4288C13.0358 48.0939 12.8706 48.8176 12.8729 49.5496V54.8433H15.2825V54C16.2013 54.5544 17.2692 54.8441 18.3572 54.8342C19.5896 54.8503 20.7911 54.4669 21.7639 53.7471C22.7367 53.0274 23.4229 52.0141 23.7095 50.874C23.9961 49.734 23.8662 48.5351 23.341 47.4747C22.8158 46.4142 21.9266 45.5554 20.8199 45.0396L20.8295 45.0487ZM15.2717 43.2338C14.3684 43.5992 13.5496 44.1303 12.8621 44.7967V39.9154H15.2717V43.2338Z" fill="#2F2B24"/>
</g>
</g>
<defs>
<clipPath id="clip0_138_14265">
<rect width="160" height="33" fill="white" transform="translate(0 32)"/>
</clipPath>
</defs>
</svg>
