<svg width="200" height="100" viewBox="0 0 200 100" fill="none" xmlns="http://www.w3.org/2000/svg">
<g clip-path="url(#clip0_19_612)">
<mask id="mask0_19_612" style="mask-type:luminance" maskUnits="userSpaceOnUse" x="28" y="35" width="145" height="31">
<path d="M172.347 35.1863H28.6531V65.2114H172.347V35.1863Z" fill="white"/>
</mask>
<g mask="url(#mask0_19_612)">
<path d="M100.883 64.4297H103.475V36.0334H100.883V64.4297Z" fill="#2F2B24"/>
<path d="M136.594 36.0334H144.869V38.3999H142.055V64.4297H139.45V38.3999H136.594V36.0334Z" fill="#2F2B24"/>
<path d="M98.513 36.0334V64.4297H95.7976L91.9136 47.1811V64.4297H89.3669V36.0334H91.7101L95.9659 54.8392V36.0334H98.513Z" fill="#2F2B24"/>
<path d="M42.1253 36.0334V64.4297H39.578V40.0883L36.4338 64.4297H34.3111L31.2181 40.0883V64.4297H28.6531V36.0334H32.9915L35.4757 53.1507L37.819 36.0334H42.1253Z" fill="#2F2B24"/>
<path d="M73.7089 64.4363C75.7253 61.7091 76.9166 58.3423 76.9166 54.6938C76.9166 45.6184 69.5298 38.2595 60.419 38.2595C51.3067 38.2595 43.9192 45.6184 43.9192 54.6938C43.9192 58.3397 45.1096 61.7112 47.1242 64.4363H50.5559C48.0646 61.9338 46.5255 58.497 46.5255 54.6938C46.5255 47.0519 52.7454 40.8553 60.419 40.8553C68.0908 40.8553 74.3116 47.0519 74.3116 54.6938C74.3116 58.4918 72.7754 61.9338 70.2891 64.4363H73.7089Z" fill="#2F2B24"/>
<path d="M150.815 55.4661L149.09 39.8111L147.502 55.4661H150.815ZM154.256 64.4297H151.72L151.052 58.033H147.257L146.638 64.4297H144.054L146.975 36.0334H150.928L154.256 64.4297Z" fill="#2F2B24"/>
<path d="M123.277 60.8196C123.277 62.1008 122.523 62.7532 121.657 62.7532C120.793 62.7532 120.038 62.1008 120.038 60.8196V39.3735C120.038 38.0948 120.793 37.4412 121.657 37.4412C122.523 37.4412 123.277 38.0948 123.277 39.3735L123.272 40.3987V45.7523H125.879V41.6247L125.873 40.4327C125.855 36.8931 124.466 35.2073 121.567 35.2073C118.985 35.2073 117.304 37.0314 117.304 39.8314L117.307 40.874V58.649L117.304 59.7983C117.304 63.4353 118.724 65.211 121.63 65.211C124.528 65.211 125.879 63.4676 125.879 59.7233V49.3925H121.091V51.8793H123.272V59.8778L123.277 60.8196Z" fill="#2F2B24"/>
<path d="M133.966 60.1381V52.7556L128.023 48.3353V40.0857C128.023 36.8436 129.49 35.1843 132.359 35.1843C135.269 35.1843 136.594 36.8309 136.614 40.4745L136.62 41.6075V45.7912H133.966V40.1786L133.958 39.3736C133.958 38.0949 133.211 37.4413 132.356 37.4413C131.499 37.4413 130.752 38.0949 130.752 39.3736V47.1044L136.62 51.5173V60.0553C136.62 63.3953 135.129 65.1813 132.341 65.1813C129.518 65.1813 128.048 63.4948 128.031 60.2403L128.023 59.1164V53.5602H130.752V60.8197C130.752 62.101 131.499 62.7532 132.356 62.7532C133.211 62.7532 133.958 62.101 133.958 60.8197L133.966 60.1381Z" fill="#2F2B24"/>
<path d="M81.2509 38.2689V49.5134H82.1656C83.8442 49.5134 84.6341 48.7459 84.6341 47.1159V41.329C84.6341 38.9981 84.0928 38.2689 82.3604 38.2689H81.2509ZM87.7899 64.4297H85.1928C84.8367 63.4727 84.6809 62.5763 84.6644 61.3747L84.6438 59.921L84.6341 59.1866V53.6429C84.6341 52.479 83.9233 51.9496 83.1029 51.9496H81.2509V64.4297H78.7056V36.0334H82.0257C85.7553 36.0334 87.1911 37.3914 87.1911 41.0256V46.3567C87.1911 48.7453 86.7895 49.7481 84.9134 50.4374C84.9399 50.446 84.9659 50.4556 84.9927 50.4638C86.764 50.9793 87.1612 51.6497 87.1811 53.8879L87.1911 54.9194V60.1037C87.1911 61.9917 87.3331 63.0156 87.7899 64.4297Z" fill="#2F2B24"/>
<path d="M157.478 38.2689V49.5134H158.394C160.074 49.5134 160.863 48.7459 160.863 47.1159V41.329C160.863 38.9981 160.321 38.2689 158.586 38.2689H157.478ZM164.016 64.4297H161.419C161.063 63.4727 160.909 62.5763 160.89 61.3747L160.87 59.921L160.863 59.1866V53.6429C160.863 52.479 160.15 51.9496 159.328 51.9496H157.478V64.4297H154.933V36.0334H158.253C161.984 36.0334 163.417 37.3914 163.417 41.0256V46.3567C163.417 48.7453 163.017 49.7481 161.141 50.4374C161.166 50.446 161.195 50.4556 161.218 50.4638C162.99 50.9793 163.389 51.6497 163.408 53.8879L163.417 54.9194V60.1037C163.417 61.9917 163.561 63.0156 164.016 64.4297Z" fill="#2F2B24"/>
<path d="M114.953 36.0334V64.4297H112.236L108.356 47.1811V64.4297H105.808V36.0334H108.152L112.405 54.8392V36.0334H114.953Z" fill="#2F2B24"/>
<path d="M166.257 38.9018C166.257 37.3191 167.546 36.0319 169.135 36.0319C170.724 36.0319 172.015 37.3191 172.015 38.9018C172.015 40.4846 170.724 41.7721 169.135 41.7721C167.546 41.7721 166.257 40.4846 166.257 38.9018ZM165.925 38.9018C165.925 40.6656 167.365 42.1006 169.135 42.1006C170.905 42.1006 172.347 40.6656 172.347 38.9018C172.347 37.1384 170.905 35.7034 169.135 35.7034C167.365 35.7034 165.925 37.1384 165.925 38.9018Z" fill="#2F2B24"/>
<path d="M168.433 38.7963H169.38C169.771 38.7963 170.047 38.6713 170.047 38.2511C170.047 37.8337 169.771 37.7055 169.38 37.7055H168.433V38.7963ZM168.013 37.3413H169.445C169.944 37.3413 170.465 37.5316 170.465 38.2511C170.465 38.6544 170.282 39.0437 169.731 39.1331L170.604 40.4978H170.097L169.242 39.1592H168.433V40.4978H168.013V37.3413Z" fill="#2F2B24"/>
</g>
</g>
<defs>
<clipPath id="clip0_19_612">
<rect width="145" height="31.2308" fill="white" transform="translate(28 34.3845)"/>
</clipPath>
</defs>
</svg>
