<svg width="200" height="100" viewBox="0 0 200 100" fill="none" xmlns="http://www.w3.org/2000/svg">
<g clip-path="url(#clip0_19_632)">
<g clip-path="url(#clip1_19_632)">
<g clip-path="url(#clip2_19_632)">
<path d="M171.373 42.4571C171.373 42.279 171.276 42.1008 171.033 42.1008H170.596V43.2484H170.758V42.8296H170.904L171.195 43.2484H171.39L171.082 42.8111C171.292 42.7972 171.373 42.6191 171.373 42.4571ZM170.76 42.6677V42.2489H171.052C171.181 42.2489 171.23 42.3623 171.23 42.4594C171.23 42.5566 171.181 42.67 171.036 42.67L170.76 42.6677Z" fill="#2F2B24"/>
<path d="M170.951 41.6819C170.401 41.6819 169.966 42.1191 169.966 42.6675C169.966 43.2181 170.403 43.6531 170.951 43.6531C171.5 43.6531 171.937 43.2158 171.937 42.6675C171.939 42.1168 171.486 41.6819 170.951 41.6819ZM170.951 43.5073C170.482 43.5073 170.112 43.1348 170.112 42.6675C170.095 42.1978 170.484 41.8277 170.951 41.8277C171.419 41.8277 171.791 42.2001 171.791 42.6675C171.794 43.1371 171.421 43.5073 170.951 43.5073Z" fill="#2F2B24"/>
<path d="M152.33 38.919C153.798 38.919 154.989 37.7589 154.989 36.3278C154.989 34.8967 153.798 33.7366 152.33 33.7366C150.862 33.7366 149.672 34.8967 149.672 36.3278C149.672 37.7589 150.862 38.919 152.33 38.919Z" fill="#2F2B24"/>
<path d="M39.2799 58.4717L31.4739 50.6633L28.7809 53.3564C28.5102 53.627 28.4778 53.8283 28.5796 54.1639L29.859 59.145C29.9932 59.6841 30.2616 59.9524 30.8006 60.0867L35.7818 61.366C36.1173 61.4678 36.3208 61.4332 36.5892 61.1648L39.2799 58.4717ZM40.5594 58.4717L43.2524 61.1648C43.5231 61.4354 43.7244 61.4678 44.0598 61.366L49.041 60.0867C49.5801 59.9524 49.8484 59.6841 49.9827 59.145L51.262 54.1639C51.3638 53.8283 51.3292 53.6248 51.0607 53.3564L48.3677 50.6633L40.5594 58.4717ZM40.5594 41.5779L48.3677 49.3863L51.0607 46.6932C51.3314 46.4225 51.3638 46.2213 51.262 45.8858L49.9827 40.9046C49.8484 40.3656 49.5801 40.0972 49.041 39.963L44.0598 38.6836C43.7244 38.5818 43.5207 38.6165 43.2524 38.8849L40.5594 41.5779ZM39.2799 41.5779L36.5892 38.8849C36.3185 38.6142 36.1173 38.5818 35.7818 38.6836L30.8006 39.963C30.2616 40.0972 29.9932 40.3656 29.859 40.9046L28.5796 45.8835C28.4778 46.2189 28.5125 46.4225 28.7809 46.6909L31.4739 49.3839L39.2799 41.5779Z" fill="#2F2B24"/>
<path d="M128.169 45.043H124.028V57.2218C124.028 57.8557 123.514 58.3693 122.88 58.3693H119.653V45.043H115.886L110.889 59.2115C108.869 64.8983 106.884 66.379 103.351 66.379C102.678 66.379 101.602 66.2447 100.524 66.0434L101.477 62.9132H103.016C104.714 62.9132 105.609 62.3857 106.197 60.905C106.782 59.422 106.796 59.1929 106.803 59.1791L100.811 41.6791H104.608C105.112 41.6791 105.556 42.0076 105.704 42.4888L109.089 53.49L112.656 42.6207C112.892 41.9475 113.195 41.6791 113.869 41.6791H119.655V41.2071C119.655 36.2607 121.943 33.6694 126.286 33.6694C126.959 33.6694 128.481 33.7897 129.391 33.9933L128.43 37.1352H127.16C125.432 37.1352 124.03 38.5372 124.03 40.2655V41.6791H129.192L128.169 45.043Z" fill="#2F2B24"/>
<path d="M73.3394 53.3566L69.9755 42.4203C69.8066 41.8488 69.5729 41.6799 68.9992 41.6799H65.8017C65.2303 41.6799 64.9943 41.8488 64.8254 42.4203L61.4267 53.3566L58.3982 41.6799H53.5859L58.433 57.6321C58.6019 58.2036 58.8354 58.3725 59.4093 58.3725H62.7408C63.3123 58.3725 63.5482 58.2036 63.7171 57.6321L67.2501 46.3927L70.8175 57.6321C70.9864 58.2036 71.2201 58.3725 71.794 58.3725H74.7899C75.3614 58.3725 75.5975 58.2036 75.7664 57.6321L80.6133 41.6799H76.4025L73.3394 53.3566Z" fill="#2F2B24"/>
<path d="M154.517 41.6799H150.142V58.3725H154.517V41.6799Z" fill="#2F2B24"/>
<path d="M94.5175 42.6211L94.4156 44.5414C93.3723 42.0496 91.253 41.344 88.7612 41.344C84.185 41.344 81.323 45.483 81.323 50.0269C81.323 54.5708 84.1826 58.7097 88.7612 58.7097C91.253 58.7097 93.3723 58.0018 94.4156 55.5125L94.5175 57.4327C94.5175 58.0712 94.8205 58.3743 95.3595 58.3743H98.8601V41.6795H95.3595C94.8205 41.6795 94.5175 41.9802 94.5175 42.6211ZM90.0036 55.2163C87.2436 55.2163 85.6656 52.9166 85.6656 50.0245C85.6656 47.1326 87.2412 44.8329 90.0036 44.8329C92.766 44.8329 94.3416 47.1326 94.3416 50.0245C94.3416 52.9166 92.7638 55.2163 90.0036 55.2163Z" fill="#2F2B24"/>
<path d="M142.118 42.6218L142.016 44.5421C140.972 42.0504 138.853 41.3447 136.361 41.3447C131.785 41.3447 128.923 45.4837 128.923 50.0276C128.923 54.5715 131.783 58.7105 136.361 58.7105C138.853 58.7105 140.972 58.0025 142.016 55.5132L142.118 57.4334C142.118 58.0719 142.421 58.3751 142.96 58.3751H146.46V41.6802H142.96C142.423 41.6802 142.118 41.981 142.118 42.6218ZM137.606 55.217C134.846 55.217 133.268 52.9173 133.268 50.0253C133.268 47.1333 134.844 44.8336 137.606 44.8336C140.368 44.8336 141.944 47.1333 141.944 50.0253C141.944 52.9173 140.366 55.217 137.606 55.217Z" fill="#2F2B24"/>
<path d="M167.877 41.5112C165.286 41.5112 163.435 42.3071 162.628 45.4027L162.561 42.6218C162.561 41.9832 162.258 41.6801 161.719 41.6801H158.218V58.3727H162.593V50.0253C162.593 47.0985 164.275 45.213 167.169 45.213H167.959L169.02 41.7218C168.613 41.5482 168.181 41.5112 167.877 41.5112Z" fill="#2F2B24"/>
</g>
</g>
</g>
<defs>
<clipPath id="clip0_19_632">
<rect width="143.583" height="35.8958" fill="white" transform="translate(28.4167 32.1042)"/>
</clipPath>
<clipPath id="clip1_19_632">
<rect width="143.583" height="35.8958" fill="white" transform="translate(28.4167 32.1042)"/>
</clipPath>
<clipPath id="clip2_19_632">
<rect width="143.583" height="32.8913" fill="white" transform="translate(28.4167 33.606)"/>
</clipPath>
</defs>
</svg>
