<svg width="200" height="100" viewBox="0 0 200 100" fill="none" xmlns="http://www.w3.org/2000/svg">
<g clip-path="url(#clip0_134_14015)">
<mask id="mask0_134_14015" style="mask-type:luminance" maskUnits="userSpaceOnUse" x="9" y="-73" width="337" height="239">
<path d="M9.33252 -72.5606V165.213H345.825V-72.5606" fill="white"/>
</mask>
<g mask="url(#mask0_134_14015)">
<path d="M41.7286 42.0482C41.7286 40.8047 41.7286 39.959 39.2836 39.9093V39.2626L39.5893 39.1134L42.9511 39.2129C44.1736 39.2129 45.0905 39.0636 46.0074 39.0636C46.6186 39.0636 46.9243 39.0636 46.9243 39.3621V39.76C46.9243 39.9093 46.6186 39.9093 46.0074 39.9093C45.0905 39.9093 44.1736 40.0088 44.1736 41.2523V47.0226H54.8705V42.2472C54.8705 40.4565 54.8705 40.0585 53.0367 39.9093L52.7311 39.5113V39.0636C53.991 39.1511 55.3361 39.2016 56.7042 39.2129C58.538 39.2129 59.1492 39.1631 59.7605 39.0636V39.7103L59.4548 39.9093C57.9267 39.9093 57.3155 40.158 57.3155 41.6503V54.3846C57.3155 56.2251 58.2323 56.3744 59.7605 56.3744V57.021C59.7605 57.1205 59.7605 57.22 59.1492 57.22C57.9267 57.22 57.0098 57.021 56.093 57.021L53.0367 57.22C52.4255 57.22 52.4255 57.1703 52.4255 57.021V56.3246C54.8705 56.3246 54.8705 55.8272 54.8705 53.9867V48.0175H44.1736V54.5339C44.1736 56.0262 44.1736 56.3744 46.313 56.3744L46.6186 56.6728V57.021C46.6186 57.1703 46.6186 57.22 46.0074 57.22C44.7849 57.22 43.868 57.021 42.9511 57.021C41.423 57.0708 40.5061 57.22 39.5893 57.22C39.5893 57.22 38.978 57.22 38.978 57.0708V56.3744C41.1174 56.3744 42.0343 56.2749 42.0343 54.9318V41.9985M66.7898 51.798L64.3448 53.0415C63.5239 53.4425 63.111 53.8625 63.1223 54.2851C63.1223 54.9815 63.428 56.2749 64.3448 56.2749C65.2617 56.2749 66.1786 55.3795 66.7898 54.7826V51.798ZM66.7898 49.858C66.7898 48.4651 66.7898 47.3708 64.9561 47.3708C64.0392 47.3708 62.5111 47.5698 62.5111 48.3657V48.8631L61.5942 49.858V49.0621C61.5942 48.2662 62.5111 47.5698 62.8167 47.2713L65.2617 45.978C65.2617 45.779 65.5673 45.6795 65.8729 45.6795C68.0123 45.6795 68.9292 46.7241 68.9292 48.8134V54.2851C68.9292 54.7826 68.9292 55.9267 69.8461 55.9267C70.4573 55.9267 70.4573 55.6779 70.7629 55.1805L71.0686 55.3297C70.4573 56.5733 69.8461 57.5682 68.6236 57.5682C67.0954 57.5682 66.7898 55.9267 67.0954 55.3297C65.5673 56.3246 64.6505 57.5185 63.1223 57.5185C61.8998 57.5682 60.983 55.6282 60.983 54.5339C60.983 54.0862 61.5942 53.2903 63.7336 52.4446L66.7898 51.1513V49.858ZM75.3473 54.5339C75.3473 55.5287 75.3473 56.5236 77.4867 56.5236V56.822V57.22C75.9585 57.22 75.3473 57.021 74.1248 57.021L71.6798 57.22V56.7723C71.6798 56.5236 71.6798 56.5236 72.2911 56.5236C73.2079 56.4241 73.5135 56.0262 73.5135 54.6831V48.9626C73.5135 48.4651 73.5135 48.1667 72.5967 47.9677C72.5967 47.9677 71.9854 47.8185 71.9854 47.4703L72.2911 47.0723L74.1248 46.2267L75.3473 45.7293V48.6144C76.2642 47.6195 77.4867 45.6795 79.0148 45.6795C79.9317 45.6795 80.5429 46.1769 80.5429 47.0723C80.5429 47.6195 79.9317 48.0672 79.3204 48.0672C78.7092 48.0672 78.4035 47.6195 77.7923 47.6195C77.181 47.6195 76.2642 48.5646 75.9585 49.1118L75.3473 49.659V54.5339ZM84.516 54.6333C84.516 56.0262 86.0441 56.4241 87.2666 56.4241C89.7116 56.4241 91.2397 54.5836 91.2397 51.9472C91.2397 49.7087 89.7116 47.3708 86.961 47.3708C86.3498 47.3708 85.4329 47.5698 84.516 48.2164V54.6831V54.6333ZM82.6823 49.5595C82.6823 48.4154 82.6823 48.2164 82.071 47.9677L81.1542 47.5698V47.0723L84.2104 45.58L84.516 45.8785V47.3708C85.4329 46.9728 87.5723 45.6795 88.4891 45.6795C91.2397 45.6795 93.0735 48.5646 93.0735 51.1016C93.0735 56.0262 88.1835 57.5185 86.3498 57.5185C85.7385 57.5682 85.1273 57.3692 84.516 57.3195V61.299C84.516 63.0897 85.1273 63.1892 86.961 63.2887V63.6866V63.9851L83.5991 63.8856L80.5429 63.9851V63.4877C80.5021 63.4215 80.5021 63.3549 80.5429 63.2887C82.6823 63.0897 82.6823 63.0897 82.6823 61.0005V49.5595ZM101.02 49.6092L101.631 48.7139C101.631 47.4703 100.714 46.5252 99.4916 46.5252C97.9635 46.5749 97.0466 48.3159 96.4354 49.7585L101.02 49.6092ZM96.1297 50.3554V51.4498C96.1297 53.6882 97.9635 55.9267 100.103 55.9267C101.631 55.8769 102.242 55.5287 103.465 54.3846L103.77 54.7328C102.853 56.3744 101.325 57.5185 99.186 57.5185C96.741 57.5185 94.6016 55.0313 94.6016 52.1462C94.6016 49.1616 96.4354 45.6795 99.7972 45.6795C102.242 45.6795 103.77 47.3708 103.77 49.5595V50.3554H96.1297ZM108.66 54.5339C108.66 55.5287 108.66 56.5236 110.494 56.5236L111.105 56.822V57.22C109.272 57.22 108.66 57.021 107.438 57.021C107.132 57.0708 106.215 57.22 104.993 57.22V56.7723C104.993 56.5236 104.993 56.5236 105.298 56.5236C106.521 56.4241 106.827 56.0262 106.827 54.6831V48.9626C106.827 48.4651 106.521 48.1667 105.91 47.9677C105.91 47.9677 105.298 47.8185 105.298 47.4703V47.0723L107.438 46.2267L108.66 45.7293V48.6144C109.577 47.6195 110.8 45.6795 112.328 45.6795C113.245 45.6795 113.856 46.1769 113.856 47.0723C113.856 47.6195 113.245 48.0672 112.633 48.0672C112.022 48.0672 111.717 47.6195 111.411 47.6195C111.105 47.6195 109.577 48.5646 108.966 49.1118L108.66 54.5339Z" fill="#2F2B24"/>
<path d="M131.888 56.1753C130.054 57.0209 128.22 57.5681 125.775 57.5681C120.885 57.5681 115.384 54.0363 115.384 48.1169C115.384 42.4461 120.58 38.6656 125.775 38.6656C127.303 38.6656 130.36 39.3123 131.888 40.1579V43.1425L132.499 43.8389C132.193 43.9882 131.888 43.9881 131.582 43.9881L130.971 42.6948C130.36 40.9538 127.915 39.7102 125.775 39.7102C120.885 39.7102 118.135 43.7394 118.135 48.3656C118.135 52.5938 121.497 56.5732 125.775 56.5732C127.303 56.5732 129.137 56.0758 130.36 55.2302C130.971 54.5835 131.277 53.3897 131.582 52.4445H131.888C132.193 52.3948 132.805 52.3948 132.805 52.743L131.888 56.1753ZM139.528 46.5748C136.778 46.5748 135.861 48.9128 135.861 51.3999C135.861 53.7379 137.389 56.7225 139.834 56.7225C142.279 56.7225 143.501 54.484 143.501 52.2456C143.501 49.7584 142.585 46.5748 139.528 46.5748ZM139.834 45.6794C142.89 45.6794 145.946 48.3656 145.946 51.4497C145.641 55.1307 142.585 57.5681 138.917 57.5681C135.861 57.5681 133.416 54.9317 133.416 51.7979C133.416 48.3656 136.472 45.6794 139.528 45.6794M149.92 55.2799C149.92 55.8271 149.92 56.4738 151.753 56.4738V56.8717V57.2199C150.225 57.2199 149.308 57.0209 148.391 57.0209C148.086 57.0707 147.475 57.2199 146.558 57.2199V56.4738C147.78 56.5235 148.086 56.3245 148.086 55.1307V41.2523C148.086 39.6107 148.086 39.5112 146.863 39.1133L146.252 38.6159C146.252 38.4169 146.252 38.3671 147.475 37.9194L149.308 37.223L149.614 37.1236L149.92 37.5215V55.2799ZM156.643 55.2799C156.643 55.8271 156.643 56.4738 158.477 56.4738V56.8717V57.2199C157.255 57.2199 155.726 57.0209 155.115 57.0209C154.504 57.0209 154.198 57.2199 153.281 57.2199L152.67 57.0209V56.822L152.976 56.4738C154.198 56.5235 154.504 56.3245 154.504 55.1307V41.2523C154.504 39.6107 154.504 39.5112 153.587 39.1133L152.976 38.6159C152.976 38.4169 152.976 38.3671 154.198 37.9194L156.032 37.223L156.338 37.1236V37.5215L156.643 55.2799ZM162.45 38.0687C163.367 38.0687 163.978 38.7153 163.978 39.5112C163.978 40.3071 163.367 40.9538 162.45 40.9538C161.533 40.9538 160.922 40.3071 160.922 39.4615C160.922 38.7153 161.533 38.0687 162.45 38.0687ZM163.367 55.2799C163.367 55.8271 163.367 56.4738 165.201 56.4738V56.8717V57.2199L162.45 57.0209L159.7 57.2199V56.822L160.005 56.4738C161.228 56.4738 161.533 56.3245 161.533 55.1307V49.8579C161.533 48.2163 161.533 48.1169 160.616 47.7189C160.005 47.5697 159.7 47.4205 159.7 47.2215C159.7 47.0225 160.311 46.923 161.228 46.5251L163.061 45.8287V45.6794L163.367 46.1271V55.2799ZM168.563 48.5645C168.563 48.0671 168.257 47.8184 167.951 47.7687L167.035 47.5697V46.9728C168.257 46.6246 170.091 45.6794 170.091 45.6794V47.7687C171.619 46.8235 173.147 45.6794 174.675 45.6794C176.815 45.6794 177.731 46.9728 177.731 49.1615V55.3297C177.731 56.5235 178.648 56.5235 179.259 56.5235V57.1702L176.815 57.1204L174.064 57.2199V56.4738C174.675 56.4738 175.898 56.4738 175.898 55.7276V49.6589C175.898 48.0671 175.286 47.1717 173.453 47.1717C172.536 47.1717 171.008 47.8184 170.396 48.5645V55.2799C170.396 55.8271 170.396 56.4738 172.23 56.4738V56.8717V57.2199C171.008 57.2199 170.091 57.0209 169.174 57.0209C168.868 57.0707 167.951 57.2199 167.035 57.2199V56.4738C168.257 56.4738 168.868 56.3245 168.868 55.1307V48.6143M187.817 48.863H186.594C186.9 47.7687 185.983 46.5748 184.761 46.5748C183.538 46.5748 182.621 47.122 182.621 48.3158C182.621 49.3107 184.149 49.9574 185.372 50.7035C187.201 51.7545 188.026 52.845 187.817 53.9368C187.817 56.1753 185.983 57.5681 183.844 57.5681C182.316 57.5681 180.788 56.822 180.788 56.424L180.176 54.0363L180.788 53.9368L181.704 54.5338C181.399 55.5286 182.927 56.7225 183.844 56.7225C185.372 56.7225 185.983 55.9266 185.983 54.5835C185.904 53.8938 185.288 53.2085 184.149 52.544C182.927 51.7481 181.093 50.8527 181.093 48.9128C181.093 46.7738 182.927 45.6794 184.761 45.6794C185.678 45.6794 186.9 45.9779 187.817 46.4753V48.863ZM16.0562 48.1666C15.1394 49.1615 13.9169 49.6589 13 49.261V57.0209H31.0318V48.863C29.5037 50.7035 27.67 49.8579 27.9756 48.3656C24.9193 51.6486 23.3912 49.8081 24.0025 48.4651C21.2518 51.5492 19.7237 49.7086 20.335 48.1666C17.2787 52.0466 15.1394 50.6538 16.0562 48.1666Z" fill="#2F2B24"/>
<path d="M22.78 37.7703C22.78 37.0241 22.78 36.278 22.1687 36.0293C23.9843 37.165 24.7061 38.3396 24.3081 39.5113C24.3081 41.7498 22.1687 43.5903 22.1687 45.58C22.78 42.8939 26.7531 41.2523 26.1418 38.3672C27.4252 39.8669 28.0381 41.3798 27.9756 42.8939C28.2812 41.2026 30.7262 40.158 31.0318 38.8647V47.321H13V42.9934C13 40.4067 17.5844 40.5062 16.9731 38.019C18.5012 40.158 16.6675 41.9985 16.9731 43.3913C17.89 39.2626 21.8631 40.4067 22.78 37.7703Z" fill="#2F2B24"/>
</g>
</g>
<defs>
<clipPath id="clip0_134_14015">
<rect width="175" height="28" fill="white" transform="translate(13 36)"/>
</clipPath>
</defs>
</svg>
