<svg width="200" height="100" viewBox="0 0 200 100" fill="none" xmlns="http://www.w3.org/2000/svg">
<g clip-path="url(#clip0_134_14035)">
<path d="M167.775 59.6845C168.335 59.6845 168.664 59.5935 168.871 59.4097C169.032 59.2419 169.113 58.8521 169.113 58.2176V45.2165C169.113 44.5513 169.04 44.1098 168.902 43.8897C168.717 43.6106 168.327 43.471 167.736 43.471H167.285V42.5328L172.528 42.1276V58.2243C172.528 59.0507 172.749 59.5167 173.195 59.6163C173.371 59.6618 173.632 59.6845 173.969 59.6845V60.6947H167.775V59.6845ZM159.549 55.0051C160.032 54.5963 160.898 54.2716 162.149 54.0257V55.8769C162.149 56.9246 161.987 57.7196 161.674 58.2624C161.268 58.9892 160.739 59.3482 160.079 59.3482C159.688 59.3482 159.358 59.181 159.09 58.8367C158.821 58.4918 158.685 57.995 158.685 57.3378C158.684 56.2667 158.976 55.4945 159.549 55.0051ZM157.323 50.0564C157.427 49.7828 157.695 49.5209 158.132 49.2725C158.635 48.99 159.203 48.8426 159.781 48.8446C161.36 48.8446 162.149 49.5652 162.149 51.01V52.9977C159.811 53.4521 158.14 53.9765 157.121 54.5692C155.795 55.3334 155.128 56.4045 155.128 57.781C155.128 58.5914 155.377 59.3027 155.879 59.9065C156.535 60.6873 157.505 61.0759 158.793 61.0759C159.525 61.0759 160.226 60.8693 160.893 60.4488C161.515 60.0657 161.982 59.5769 162.296 58.9799V59.5917C162.314 60.1118 162.314 60.4863 162.296 60.6928H166.829V59.6833H166.657C165.929 59.6833 165.565 59.1853 165.565 58.1844V52.153C165.565 49.2424 163.912 47.7852 160.617 47.7852C159.283 47.7852 158.164 48.0662 157.256 48.6282C156.347 49.1883 155.895 49.9218 155.895 50.8342C155.895 51.4625 156.102 51.9599 156.524 52.3214C156.876 52.6222 157.326 52.7846 157.789 52.7782C158.322 52.7782 158.762 52.6116 159.115 52.279C159.471 51.9501 159.651 51.5781 159.651 51.1711C159.651 50.1622 159.11 49.6555 158.042 49.6555C157.635 49.6555 157.306 49.7853 157.06 50.0416L157.325 50.1443C157.327 50.0871 157.327 50.0564 157.323 50.0564ZM69.5715 52.9166C71.6377 52.9166 73.2891 52.5132 74.5311 51.7121C75.9341 50.8163 76.6318 49.4932 76.6318 47.7361C76.6318 45.9107 75.923 44.5513 74.5046 43.6549C73.2977 42.8882 71.6648 42.5039 69.6023 42.5039H62.7337V43.4962C63.5498 43.4962 64.0559 43.5553 64.2513 43.6684C64.5847 43.8559 64.753 44.3662 64.753 45.2036V58.1327C64.753 58.7666 64.6149 59.1957 64.3351 59.4171C64.1052 59.5929 63.6761 59.6772 63.0431 59.6772H62.733V60.6873H70.9054V59.6772H70.0548C69.3995 59.6772 68.9545 59.5776 68.7171 59.3636C68.4798 59.157 68.3609 58.7518 68.3609 58.1327V52.9166H69.5715ZM72.8828 47.7496C72.8828 50.4259 71.7869 51.7638 69.6017 51.7638H68.4521V43.5614H69.6017C71.7869 43.5614 72.8828 44.9589 72.8828 47.7496ZM81.8325 50.5729C82.3077 48.713 83.3156 47.7822 84.864 47.7822C85.4311 47.7822 85.8835 47.9353 86.225 48.2445C86.5659 48.5538 86.7385 48.9614 86.7385 49.4717C86.7413 49.907 86.5875 50.3289 86.3052 50.6608C85.9754 51.0432 85.5618 51.2375 85.0631 51.2375C84.5878 51.2375 84.2088 51.0905 83.9289 50.8003C83.6608 50.5458 83.5418 50.2329 83.5646 49.8615C83.5646 49.8271 83.5837 49.7392 83.6145 49.5996C83.1467 50.1867 82.7793 51.192 82.5031 52.6067C82.2806 53.7404 82.166 54.7801 82.166 55.7171V58.217C82.166 58.8053 82.235 59.1878 82.3651 59.3636C82.526 59.5776 82.963 59.6772 83.6682 59.6772H84.0935V60.6873H77.2181V59.6772H77.4751C77.9466 59.6772 78.2875 59.5929 78.4946 59.4251C78.7011 59.264 78.801 58.8514 78.801 58.217V52.7653C78.801 50.8864 78.7511 49.8406 78.6475 49.6322C78.502 49.294 78.2185 49.1256 77.7969 49.1256H77.4369V48.1185H81.745L81.8325 50.5729ZM96.1018 58.683C96.0481 58.7143 95.9945 58.7598 95.9255 58.7986L96.1018 58.6996C95.8873 59.288 95.4921 59.8155 94.9096 60.2668C94.2497 60.7932 93.4283 61.0771 92.5833 61.071C91.1267 61.071 90.0998 60.6732 89.5019 59.8702C89.0266 59.2425 88.785 58.2569 88.785 56.9184V51.6531C88.785 50.4677 88.7314 49.776 88.6278 49.5775C88.4823 49.3119 88.1408 49.1741 87.5972 49.1741H87.4899V48.1209H92.2504V57.3623C92.2504 58.5852 92.7602 59.1976 93.7797 59.1976C94.623 59.1976 95.1938 58.6166 95.4891 57.4312C95.6191 56.9572 95.6808 56.3073 95.6808 55.481V51.658C95.6808 50.3503 95.6197 49.6297 95.4928 49.4902C95.3091 49.2817 94.9257 49.1729 94.3388 49.1729H93.9789V48.1197H99.1764V57.5523C99.1764 58.5846 99.2381 59.1884 99.3644 59.3495C99.5253 59.5708 99.836 59.6778 100.292 59.6778H100.618V60.6873H96.0031L95.9261 58.6615L96.0031 58.7143L96.0259 58.7691L96.1018 58.683ZM106.324 47.8314C104.626 47.8314 103.255 48.5581 102.212 50.0048C101.292 51.2934 100.832 52.7653 100.832 54.4241C100.832 56.244 101.169 57.7196 101.859 58.8594C102.733 60.3344 104.086 61.0691 105.922 61.0691C106.865 61.0691 107.685 60.7783 108.383 60.1973C108.927 59.7313 109.284 59.2185 109.449 58.6602L109.361 58.7291L109.257 58.6301L109.345 60.6873H113.864V59.6919H113.638C113.121 59.6919 112.779 59.5542 112.615 59.2867C112.485 59.0955 112.422 58.7365 112.422 58.2237V42.1221L107.134 42.5254V43.4661H107.479C108.146 43.4661 108.575 43.6475 108.771 44.0072C108.887 44.2193 108.956 44.6988 108.979 45.4483C108.979 47.4705 109.013 48.6534 109.082 48.9903C108.592 48.2156 107.669 47.8314 106.324 47.8314ZM109.006 53.0635V55.6101C109.006 56.3055 108.953 56.8865 108.85 57.3451C108.535 58.7371 107.868 59.4398 106.857 59.4398C105.439 59.4398 104.726 57.7651 104.726 54.4241C104.726 52.9375 104.811 51.8419 104.971 51.1323C105.296 49.7619 105.943 49.0764 106.91 49.0764C108.306 49.0758 109.006 50.4062 109.006 53.0635ZM117.714 54.1149H125.384C125.372 52.2249 124.947 50.7333 124.112 49.6439C123.17 48.4031 121.774 47.7822 119.927 47.7822C118.228 47.7822 116.822 48.3921 115.702 49.6094C114.576 50.8637 114.016 52.4616 114.016 54.4014C114.016 56.3971 114.507 57.9796 115.495 59.1503C116.554 60.4352 118.059 61.0691 120.01 61.0691C121.524 61.0691 122.8 60.5115 123.835 59.4023C124.74 58.4309 125.21 57.3912 125.246 56.2753H123.97C123.957 57.1004 123.644 57.8739 123.027 58.5926C122.329 59.4183 121.498 59.8235 120.528 59.8235C119.144 59.8235 118.27 58.8373 117.91 56.8643C117.781 56.2059 117.714 55.2959 117.714 54.1149ZM119.889 48.7413C121.214 48.7413 121.881 50.1806 121.881 53.0592H117.714C117.727 52.6104 117.746 52.2372 117.769 51.9378C117.944 49.808 118.651 48.7413 119.889 48.7413ZM130.371 49.7545C130.659 49.1717 131.119 48.6995 131.746 48.3324C132.376 47.9654 133.072 47.7816 133.843 47.7816C136.369 47.7816 137.632 49.1502 137.632 51.8892V57.6132C137.632 58.2471 137.637 58.6289 137.648 58.7598C137.693 59.371 138.085 59.6765 138.809 59.6765H139.074V60.6861H134.168V51.4484C134.168 50.8096 134.092 50.3509 133.938 50.0718C133.716 49.6648 133.298 49.46 132.681 49.46C132.099 49.46 131.631 49.7428 131.278 50.3128C130.931 50.8846 130.753 51.725 130.753 52.8379V57.5745C130.753 58.6375 130.803 59.2333 130.91 59.3482C131.121 59.5702 131.496 59.6772 132.033 59.6772H132.244V60.6873H125.851V59.6772H126.192C126.845 59.6772 127.193 59.3722 127.243 58.7598C127.266 58.6154 127.277 58.2016 127.277 57.521V51.2338C127.277 50.2568 127.205 49.6623 127.059 49.4483C126.918 49.2325 126.61 49.1256 126.144 49.1256H125.853V48.1185H130.371V49.7545ZM143.829 61.0685C141.733 61.0685 140.679 59.8825 140.679 57.513V49.1717H138.425V48.164H138.771C140.005 48.164 141.047 47.4723 141.906 46.0803C142.641 44.9128 143.018 43.7176 143.041 42.5039H144.099V48.164H146.505V49.1717H144.099V57.9335C144.099 58.9664 144.418 59.4859 145.057 59.4859C145.62 59.4859 145.985 58.9959 146.149 58.0171C146.207 57.6655 146.237 56.9615 146.237 55.9144H147.418C147.418 57.6433 147.261 58.8269 146.95 59.4466C146.427 60.533 145.384 61.0685 143.829 61.0685ZM41.7991 35.9917C32.9204 35.9917 27.12 43.2706 27.12 50.0466C27.12 53.9384 28.0705 55.8763 29.1128 57.7337C30.4276 54.2101 33.0554 47.1999 33.0554 47.1999C33.0554 47.1999 34.2796 46.5691 34.2796 46.6614L36.0443 42.1867L37.1792 41.5995L38.5858 38.6158L41.6617 39.1132L47.9164 42.5918L54.9379 44.5365C53.1288 39.9278 48.0082 35.9917 41.7991 35.9917ZM41.7067 66C37.8566 66 33.146 64.6468 29.7465 60.4875H53.6268C50.8598 64.0584 46.1066 66 41.7067 66ZM46.4216 59.7688H44.2444L48.2844 54.7493L48.6906 55.5173L46.4216 59.7688ZM48.5525 43.8116L41.6228 39.7919L39.0839 39.3388V41.1913L41.0329 43.0013L38.3133 42.772C38.3133 42.772 38.4015 42.9097 40.6649 45.3044L50.9978 47.021L52.807 48.1966L48.1001 48.4222L46.1528 55.5173L39.7619 59.7688H35.5919L36.9985 57.0088L36.7705 56.9178L33.0085 59.77H32.1042L35.9543 54.3866C36.1362 52.852 36.0443 53.5295 36.2724 50.7708L35.6837 49.9593L34.1427 55.923L30.9251 59.7694H30.1083L32.0112 57.0998L34.6845 48.9214L34.004 49.235L32.8254 52.4899L32.0112 52.9405C32.0112 52.9405 30.1083 57.5511 29.1116 59.8063C27.6636 57.7355 26.0308 54.9326 26.0308 50.0472C26.0308 42.7259 32.3299 35 41.7991 35C50.906 35 55.7584 42.2309 56.5708 45.9795L48.5525 43.8116ZM53.0369 54.386L51.7184 55.5173L49.0968 59.7688H47.3721L49.0968 56.7328L50.4535 55.6089L52.4082 50.14L54.4855 50.9983L53.0369 54.386ZM54.2629 59.7688H50.7753L54.0793 54.5692L55.076 51.1785L57.1607 51.9027C56.977 54.5237 56.1183 57.1847 54.2629 59.7688ZM50.0011 53.5295L48.9587 53.714L49.2349 51.6316L48.9587 51.2246L49.2349 48.8735L51.9027 49.9593L50.0011 53.5295ZM148.255 59.6845H148.588C149.087 59.6845 149.4 59.5235 149.527 59.2185C149.607 58.9965 149.645 58.4457 149.645 57.5591V50.9872C149.645 50.0964 149.56 49.5744 149.376 49.4158C149.2 49.259 148.935 49.1809 148.587 49.1809H148.254V48.1732H153.064V57.5585C153.064 58.5914 153.125 59.1951 153.256 59.3704C153.417 59.5843 153.716 59.6839 154.168 59.6839H154.513V60.6941H148.255V59.6845ZM149.171 44.6527C149.171 44.0852 149.371 43.6051 149.774 43.2054C149.963 43.0124 150.19 42.8598 150.44 42.7569C150.69 42.6541 150.959 42.6031 151.23 42.6072C151.502 42.6033 151.771 42.6543 152.023 42.7571C152.275 42.8599 152.503 43.0124 152.694 43.2054C153.104 43.6051 153.308 44.0846 153.308 44.6527C153.308 45.2221 153.104 45.7096 152.694 46.1166C152.288 46.5292 151.801 46.7339 151.23 46.7339C150.659 46.7339 150.176 46.5292 149.774 46.1166C149.579 45.9262 149.425 45.6982 149.321 45.4465C149.218 45.1948 149.167 44.9248 149.171 44.6527Z" fill="#2F2B24"/>
</g>
<defs>
<clipPath id="clip0_134_14035">
<rect width="148" height="31" fill="white" transform="translate(26 35)"/>
</clipPath>
</defs>
</svg>
