<svg width="200" height="100" viewBox="0 0 200 100" fill="none" xmlns="http://www.w3.org/2000/svg">
<g clip-path="url(#clip0_19_698)">
<g clip-path="url(#clip1_19_698)">
<g clip-path="url(#clip2_19_698)">
<path d="M39.1179 37.9224C36.2815 37.9224 33.7029 39.469 32.2417 41.6171C30.7806 39.3831 28.202 37.9224 25.3656 37.9224C20.8102 37.9224 17.1143 41.6171 17.1143 46.171C17.1143 49.0924 18.9192 51.1545 20.8102 53.0448L28.288 60.0906C28.7177 60.4342 29.3194 60.1765 29.3194 59.6609V54.1618C29.3194 52.6153 30.6086 51.3263 32.1558 51.2404C33.7029 51.2404 34.9922 52.5293 34.9922 54.1618V59.6609C34.9922 60.1765 35.5938 60.4342 36.0236 60.0906L43.5014 53.0448C45.3923 51.1545 47.1973 49.0064 47.1973 46.171C47.2833 41.6171 43.5874 37.9224 39.1179 37.9224ZM24.764 52.4433C24.678 52.5293 24.5061 52.6153 24.3342 52.6153C24.1623 52.6153 24.0763 52.5293 23.9904 52.4433C21.4978 50.2953 20.2945 47.9754 20.2945 45.6554C20.2945 43.6792 21.4978 41.4452 23.1309 40.4141C23.3887 40.2423 23.7325 40.3282 23.9044 40.586C24.0763 40.8438 23.9904 41.1874 23.7325 41.3593C22.4433 42.1326 21.4978 44.0229 21.4978 45.6554C21.4978 47.6317 22.6152 49.6079 24.8499 51.5842C24.9359 51.8419 24.9359 52.2715 24.764 52.4433ZM28.3739 50.3812C28.288 50.553 28.1161 50.639 27.8582 50.639C27.7723 50.639 27.6863 50.639 27.6004 50.553C25.9673 49.6079 24.8499 47.8035 24.8499 45.9991C24.8499 44.2807 25.7954 42.7341 27.3425 41.9608C27.6004 41.7889 27.9442 41.9608 28.1161 42.2185C28.288 42.4763 28.1161 42.82 27.8582 42.9918C26.7409 43.5933 25.9673 44.7962 25.9673 46.0851C25.9673 47.4598 26.8268 48.9205 28.202 49.6938C28.4599 49.6938 28.5458 50.0375 28.3739 50.3812ZM32.2417 48.9205C30.8665 48.9205 29.7492 47.8035 29.7492 46.4288C29.7492 45.054 30.8665 43.937 32.2417 43.937C33.617 43.937 34.7344 45.054 34.7344 46.4288C34.6484 47.8035 33.531 48.9205 32.2417 48.9205ZM36.7972 50.553C36.7112 50.639 36.6253 50.639 36.5394 50.639C36.3674 50.639 36.1096 50.553 36.0236 50.3812C35.8517 50.1234 35.9376 49.7798 36.2815 49.6079C37.5708 48.8346 38.5162 47.4598 38.5162 45.9991C38.5162 44.7103 37.8287 43.5074 36.6253 42.9059C36.3674 42.7341 36.2815 42.3904 36.3674 42.1326C36.5394 41.8748 36.8831 41.7889 37.141 41.8748C38.6881 42.6481 39.6337 44.1947 39.6337 45.9132C39.5476 47.8035 38.4303 49.6079 36.7972 50.553ZM44.1891 45.7414C44.1891 48.0613 42.9857 50.2953 40.4931 52.5293C40.4071 52.6153 40.2353 52.7012 40.1492 52.7012C39.9774 52.7012 39.8055 52.6153 39.7196 52.5293C39.5476 52.2715 39.5476 51.9278 39.8055 51.756C42.0403 49.7798 43.1576 47.8035 43.1576 45.8273C43.1576 44.1947 42.1262 42.3904 40.9228 41.5311C40.665 41.3593 40.5791 41.0156 40.751 40.7578C40.9228 40.5001 41.2667 40.4141 41.5246 40.586C42.9857 41.5311 44.1891 43.7651 44.1891 45.7414Z" fill="#2F2B24"/>
<path d="M57.425 43.0774H61.6367V48.7483H66.9657V43.0774H71.1773V58.1999H66.9657V52.4431H61.6367V58.1999H57.425V43.0774Z" fill="#2F2B24"/>
<path d="M72.2952 52.3576C72.2952 48.9207 74.7018 46.2571 78.1399 46.2571C82.1795 46.2571 83.9845 49.1785 83.9845 52.6154C83.9845 52.8732 83.9845 53.2168 83.9845 53.4747H76.1629C76.5068 54.7635 77.4522 55.365 78.6556 55.365C79.601 55.365 80.3745 55.0212 81.2341 54.162L83.4688 56.0523C82.3515 57.513 80.7184 58.4582 78.3977 58.4582C74.9597 58.4582 72.2952 55.9664 72.2952 52.3576ZM80.2886 51.3265C80.2886 50.0377 79.3431 49.2644 78.2258 49.2644C77.1084 49.2644 76.3349 50.1236 76.1629 51.3265H80.2886Z" fill="#2F2B24"/>
<path d="M97.9082 46.5142H102.034V48.8341C102.721 47.2016 103.753 46.1705 105.73 46.2565V50.5527H105.386C103.237 50.5527 102.034 51.7556 102.034 54.5051V58.1139H97.9082V46.5142Z" fill="#2F2B24"/>
<path d="M108.222 54.5058V49.78H106.847V46.5149H108.222V43.5935H112.348V46.5149H115.098V49.78H112.348V53.7324C112.348 54.5917 112.692 54.9353 113.465 54.9353C113.981 54.9353 114.497 54.7635 115.013 54.5917V57.7708C114.239 58.2005 113.294 58.4582 112.176 58.4582C109.684 58.3723 108.222 57.3412 108.222 54.5058Z" fill="#2F2B24"/>
<path d="M53.3849 46.3425C54.5715 46.3425 55.5336 45.3808 55.5336 44.1945C55.5336 43.0081 54.5715 42.0464 53.3849 42.0464C52.1981 42.0464 51.2361 43.0081 51.2361 44.1945C51.2361 45.3808 52.1981 46.3425 53.3849 46.3425Z" fill="#2F2B24"/>
<path d="M96.2754 52.2717C96.2754 48.6629 93.6968 46.2571 90.0009 46.2571C87.6802 46.2571 86.0471 47.2022 84.9298 48.6629L87.1645 50.5533C88.0241 49.694 88.7977 49.3503 89.7431 49.3503C91.0323 49.3503 91.8918 49.9518 92.2357 51.2406V51.3265H89.5712C86.2191 51.4124 84.5 52.6154 84.5 55.0212C84.5 57.3412 86.1331 58.5441 88.8836 58.5441C90.4307 58.5441 91.5481 57.9426 92.3216 57.1694V58.2864H96.1895V52.4436C96.2754 52.4436 96.2754 52.3576 96.2754 52.2717ZM90.1729 55.7945C89.1414 55.8804 88.4538 55.193 88.4538 54.5057C88.4538 53.8183 89.0555 53.3888 90.087 53.3888H92.4075V53.4747C92.4075 54.0761 92.2357 55.7086 90.1729 55.7945Z" fill="#2F2B24"/>
<path d="M117.248 44.1085C117.248 43.6789 117.591 43.2493 118.107 43.2493H118.279C118.623 43.2493 118.881 43.4211 119.053 43.6789L124.382 51.6698L129.711 43.6789C129.882 43.4211 130.14 43.2493 130.484 43.2493H130.656C131.086 43.2493 131.516 43.593 131.516 44.1085V57.4266C131.516 57.8562 131.172 58.2859 130.656 58.2859C130.226 58.2859 129.797 57.8562 129.797 57.4266V46.3425L125.069 53.3022C124.897 53.5601 124.639 53.7319 124.382 53.7319C124.124 53.7319 123.866 53.5601 123.694 53.3022L118.967 46.3425V57.4266C118.967 57.8562 118.623 58.2859 118.107 58.2859C117.677 58.2859 117.334 57.9421 117.334 57.4266L117.248 44.1085Z" fill="#2F2B24"/>
<path d="M134.782 57.341V44.1947C134.782 43.7651 135.126 43.3354 135.642 43.3354H144.839C145.269 43.3354 145.612 43.6791 145.612 44.1088C145.612 44.5384 145.269 44.8821 144.839 44.8821H136.501V49.9515H143.893C144.322 49.9515 144.666 50.2952 144.666 50.7249C144.666 51.1544 144.322 51.4981 143.893 51.4981H136.501V56.6535H145.011C145.44 56.6535 145.784 56.9972 145.784 57.4269C145.784 57.8564 145.44 58.2002 145.011 58.2002H135.727C135.212 58.2002 134.782 57.7705 134.782 57.341Z" fill="#2F2B24"/>
<path d="M153.347 56.6535C157.129 56.6535 159.449 54.0758 159.449 50.8108C159.449 47.5457 157.043 44.968 153.347 44.968H149.909V56.6535H153.347ZM148.19 44.1947C148.19 43.7651 148.534 43.3354 149.05 43.3354H153.347C157.989 43.3354 161.255 46.5146 161.255 50.7249C161.255 54.9351 158.075 58.1142 153.347 58.1142H149.05C148.62 58.1142 148.19 57.7705 148.19 57.2551V44.1947Z" fill="#2F2B24"/>
<path d="M164.177 44.1085C164.177 43.6789 164.52 43.2493 165.036 43.2493C165.467 43.2493 165.895 43.593 165.895 44.1085V57.4266C165.895 57.8562 165.553 58.2859 165.036 58.2859C164.606 58.2859 164.177 57.9421 164.177 57.4266V44.1085Z" fill="#2F2B24"/>
<path d="M178.874 52.7016L175.436 45.1403L171.998 52.7016H178.874ZM168.387 57.0836L174.405 43.9374C174.577 43.5078 174.92 43.1641 175.436 43.1641H175.522C176.037 43.1641 176.381 43.4218 176.553 43.9374L182.569 57.0836C182.655 57.2555 182.655 57.3414 182.655 57.5133C182.655 57.9428 182.312 58.2866 181.882 58.2866C181.452 58.2866 181.194 58.0287 181.023 57.6851L179.476 54.2481H171.31L169.762 57.6851C169.592 58.0287 169.334 58.2866 168.989 58.2866C168.559 58.2866 168.216 57.9428 168.216 57.5133C168.302 57.3414 168.302 57.2555 168.387 57.0836Z" fill="#2F2B24"/>
<path d="M53.4715 47.3733H53.2997C52.0963 47.3733 51.1509 48.3184 51.1509 49.5214V58.1997H55.6204V49.5214C55.6204 48.3184 54.5889 47.3733 53.4715 47.3733Z" fill="#2F2B24"/>
</g>
</g>
</g>
<defs>
<clipPath id="clip0_19_698">
<rect width="165.887" height="41.4717" fill="white" transform="translate(17.1133 31.2783)"/>
</clipPath>
<clipPath id="clip1_19_698">
<rect width="165.887" height="41.4717" fill="white" transform="translate(17.1143 31.2783)"/>
</clipPath>
<clipPath id="clip2_19_698">
<rect width="165.887" height="28.3546" fill="white" transform="translate(17.1143 37.8364)"/>
</clipPath>
</defs>
</svg>
