<svg width="200" height="100" viewBox="0 0 200 100" fill="none" xmlns="http://www.w3.org/2000/svg">
<g clip-path="url(#clip0_19_712)">
<g clip-path="url(#clip1_19_712)">
<g clip-path="url(#clip2_19_712)">
<mask id="mask0_19_712" style="mask-type:luminance" maskUnits="userSpaceOnUse" x="53" y="31" width="94" height="38">
<path d="M146.881 31.0574H53.4966V68.821H146.881V31.0574Z" fill="white"/>
</mask>
<g mask="url(#mask0_19_712)">
<path d="M90.5614 58.4099C90.5614 57.6388 90.5373 57.1086 90.5132 56.5061C90.6819 56.5061 92.0314 56.5061 92.4411 56.5061C93.3328 56.5061 93.9353 56.8194 93.9353 57.5665C93.9353 58.3136 93.1882 58.6509 92.7303 58.6991C93.1882 58.7232 94.0558 59.0124 94.0558 59.8559C94.0558 60.844 93.2123 61.2296 92.3447 61.2296C91.935 61.2296 90.6819 61.2296 90.5132 61.2296C90.5373 60.603 90.5614 60.0969 90.5614 59.3257V58.4099ZM92.0314 56.8917C91.8145 56.8917 91.7904 56.8917 91.6699 56.9158C91.6699 57.2532 91.6458 57.6388 91.6458 57.8798C91.6458 58.1208 91.6458 58.3617 91.6458 58.5786H91.9832C92.417 58.5786 92.8267 58.2895 92.8267 57.7111C92.8267 57.2532 92.6339 56.8917 92.0314 56.8917ZM91.9832 58.9642C91.8627 58.9642 91.7663 58.9642 91.6699 58.9642C91.6699 59.157 91.6458 59.3498 91.6458 59.639C91.6458 60.0487 91.6699 60.603 91.6699 60.844C91.7904 60.844 91.9109 60.844 92.0796 60.844C92.5134 60.844 92.899 60.5307 92.899 59.9041C92.899 59.2775 92.5857 58.9642 91.9832 58.9642Z" fill="#2F2B24"/>
<path d="M101.406 58.4099C101.406 57.6388 101.382 57.1086 101.358 56.5061C101.816 56.5061 104.033 56.5061 104.226 56.5061C104.202 56.5784 104.202 56.9881 104.226 57.1086C103.672 57.0604 102.732 57.0604 102.515 57.0604C102.491 57.5665 102.515 58.0244 102.515 58.5063C103.166 58.5063 103.648 58.4822 104.202 58.4581C104.178 58.6268 104.178 58.8919 104.202 59.0606C103.648 59.0365 103.069 58.9883 102.515 58.9883C102.515 59.2775 102.515 59.5667 102.515 59.88C102.515 60.1692 102.515 60.4102 102.539 60.6753C103.093 60.6753 103.672 60.6994 104.226 60.6512C104.202 60.7476 104.202 61.1814 104.226 61.2778C103.961 61.2778 101.527 61.2778 101.358 61.2778C101.406 60.6512 101.406 60.1451 101.406 59.3739V58.4099Z" fill="#2F2B24"/>
<path d="M115.648 61.2537C115.407 61.2537 114.564 61.2537 114.371 61.2537C114.202 60.7958 114.034 60.3138 113.841 59.8559C113.527 59.8559 112.395 59.8559 112.13 59.8559C111.913 60.3138 111.768 60.7958 111.6 61.2778C111.503 61.2778 111.045 61.2778 110.901 61.2778C111.238 60.5066 112.347 58.0485 113.021 56.5061C113.118 56.5061 113.479 56.5061 113.576 56.5061C114.202 58.0244 115.07 60.1451 115.648 61.2537ZM113.672 59.4462C113.455 58.8919 113.262 58.3377 113.021 57.8075C112.756 58.3617 112.539 58.8919 112.322 59.4462H113.672Z" fill="#2F2B24"/>
<path d="M121.504 59.5426C121.504 58.7955 121.528 58.4099 121.528 57.928C121.528 57.1809 121.504 56.7471 121.504 56.5061C121.721 56.5061 121.914 56.5302 122.107 56.5302C122.299 56.5302 122.516 56.5302 122.709 56.5061C122.613 57.3978 122.613 58.1208 122.613 58.916C122.613 60.603 123.143 60.8681 124.083 60.8681C125.264 60.8681 125.36 59.6631 125.36 58.3858C125.36 57.7593 125.336 57.1327 125.288 56.5061C125.408 56.5302 125.553 56.5302 125.673 56.5302C125.818 56.5302 125.938 56.5302 126.035 56.5061C125.987 56.9158 125.938 57.9039 125.938 59.1088C125.938 60.6994 125.191 61.3501 123.745 61.3501C122.492 61.3501 121.504 60.844 121.504 59.5426Z" fill="#2F2B24"/>
<path d="M133.723 57.6151C133.723 57.3741 133.747 57.1331 133.723 57.0367C133.458 57.0367 132.807 57.0367 132.373 57.0849C132.397 56.9885 132.397 56.6029 132.373 56.4824C133.048 56.4824 135.53 56.4824 136.181 56.4824C136.157 56.6029 136.157 56.9885 136.181 57.0849C135.795 57.0608 135.121 57.0608 134.856 57.0608C134.856 57.1572 134.856 57.3741 134.856 57.6151V59.3261C134.856 60.0973 134.88 60.6034 134.904 61.23C134.735 61.23 133.843 61.23 133.699 61.23C133.747 60.6034 133.747 60.0973 133.747 59.3261C133.723 59.3502 133.723 57.6151 133.723 57.6151Z" fill="#2F2B24"/>
<path d="M145.05 58.5786C145.459 58.0485 145.845 57.1809 146.158 56.5061C146.279 56.5061 146.736 56.5061 146.881 56.5061C146.544 57.0363 145.797 58.3377 145.315 59.2052C145.315 59.4221 145.315 59.5908 145.315 59.8318C145.315 60.2897 145.315 60.7717 145.387 61.2778C145.17 61.2778 144.351 61.2778 144.134 61.2778C144.158 60.844 144.23 60.3861 144.23 59.9523C144.23 59.7354 144.23 59.5185 144.206 59.3257C143.676 58.4099 142.832 56.9158 142.615 56.5302C142.856 56.5302 143.724 56.5302 143.941 56.5302C144.278 57.1809 144.833 58.2654 145.05 58.5786Z" fill="#2F2B24"/>
<path d="M71.861 33.8045C71.7405 36.3831 71.7405 39.6606 71.7405 42.5766C71.7405 47.9989 71.8128 49.2039 72.8249 50.5535C73.8371 51.8789 75.7409 52.626 78.175 52.626C81.0187 52.626 83.2599 51.2042 84.0311 49.1316C84.3203 48.3845 84.489 47.3483 84.489 44.5528C84.489 40.1185 84.4408 35.6842 84.1757 31.2499C84.6577 31.3222 86.8748 31.3222 87.405 31.2499L87.2845 32.8646C87.1158 35.8047 87.0194 42.7935 86.9471 46.2397C86.8748 50.2643 85.6939 52.0958 83.3804 53.5177C81.7176 54.5299 79.3799 54.9877 77.4761 54.9877C73.2828 54.9636 68.222 53.6864 67.4749 48.4086C67.4026 47.9267 67.4026 46.9145 67.4026 46.6253V37.3471C67.4026 35.6119 67.3303 32.961 67.2339 31.2258C68.0533 31.3222 71.2585 31.3222 71.9573 31.2258L71.861 33.8045Z" fill="#2F2B24"/>
<path d="M92.6826 40.5769C92.6826 39.0827 92.6826 38.7453 92.5862 35.7329C92.538 35.01 92.4898 31.9493 92.4417 31.3228C93.3333 31.4914 96.4421 31.4673 97.3097 31.3228C97.0687 36.4318 96.9482 40.7215 96.9482 45.9269C96.9482 48.2887 97.0205 50.5058 97.0687 52.3614H97.6953C98.7075 52.3614 103.768 52.3614 105.841 52.0482C105.72 52.4096 105.696 54.1207 105.841 54.5545C104.058 54.5063 101.045 54.3617 99.1413 54.3617C96.8759 54.3617 94.9962 54.434 92.4417 54.5545C92.4417 54.0243 92.6826 46.1679 92.6826 45.3003V40.5769Z" fill="#2F2B24"/>
<path d="M115.649 49.9271C115.649 52.5057 115.794 53.6143 115.89 54.5542C114.878 54.4578 112.203 54.4337 110.926 54.5542C111.07 51.9756 111.263 49.3728 111.263 46.7942L111.239 37.3473C111.239 36.0941 111.215 34.9133 111.143 33.5878H109.408C109.094 33.5878 105.744 33.6601 103.937 33.8288C104.058 33.4432 104.13 31.5394 104.009 31.1297C106.781 31.2984 110.613 31.2984 113.312 31.2984C116.228 31.2984 119.361 31.2502 122.686 31.0574C122.59 31.6599 122.542 33.2986 122.662 33.8288C120.59 33.636 118.083 33.5878 115.673 33.5878C115.649 34.8169 115.625 36.0941 115.625 37.3714V49.9271H115.649Z" fill="#2F2B24"/>
<path d="M136.35 50.8671L134.88 47.2763C133.386 47.2281 127.602 47.2281 126.229 47.2763C125.096 49.879 123.987 52.6745 123.433 54.6024C122.975 54.5542 120.662 54.5542 120.156 54.6024L124.228 45.9026C127.771 38.2872 129.795 33.8771 130.615 31.2502H132.904C134.591 35.7327 136.664 40.4803 137.941 43.324C139.266 46.2641 141.58 51.349 143.146 54.6265C142.64 54.6024 138.471 54.6024 137.844 54.6265L136.35 50.8671ZM130.566 36.8654L127 45.1796C128.229 45.2278 129.41 45.276 130.639 45.276C131.338 45.276 132.398 45.276 133.868 45.1796L130.566 36.8654Z" fill="#2F2B24"/>
<path d="M62.1723 32.2627C56.7018 35.9981 53.4966 40.6252 53.4966 46.3367C53.4966 59.2539 69.0888 68.8213 91.3566 68.8213C101.334 68.8213 109.672 66.2427 115.817 63.0616H115.432C108.009 65.3028 100.466 66.2427 92.7061 66.2427C70.3661 66.2186 54.9666 55.7113 54.9425 46.0234C54.9425 40.6252 57.4248 35.9981 62.1723 32.6001V32.2627Z" fill="#2F2B24"/>
<path d="M140.374 31.2019C141.121 31.2019 141.772 31.8044 141.772 32.5997C141.772 33.3949 141.145 33.9974 140.374 33.9974C139.627 33.9974 138.952 33.3949 138.952 32.5997C138.952 31.8044 139.627 31.2019 140.374 31.2019ZM140.374 33.8046C141.025 33.8046 141.531 33.2985 141.531 32.5997C141.531 31.9249 141.025 31.4188 140.374 31.4188C139.699 31.4188 139.217 31.9249 139.217 32.5997C139.242 33.2744 139.724 33.8046 140.374 33.8046ZM139.82 31.7803H140.447C140.832 31.7803 141.025 31.949 141.025 32.2623C141.025 32.5515 140.832 32.672 140.591 32.6961L141.073 33.419H140.784L140.35 32.6961H140.061V33.419H139.82V31.7803ZM140.061 32.5033H140.326C140.543 32.5033 140.76 32.4792 140.76 32.2382C140.76 31.9972 140.543 31.9731 140.374 31.9731H140.061V32.5033Z" fill="#2F2B24"/>
</g>
</g>
</g>
</g>
<defs>
<clipPath id="clip0_19_712">
<rect width="93.5053" height="37.8396" fill="white" transform="translate(53.4946 31.0562)"/>
</clipPath>
<clipPath id="clip1_19_712">
<rect width="93.5053" height="37.8396" fill="white" transform="translate(53.4954 31.0562)"/>
</clipPath>
<clipPath id="clip2_19_712">
<rect width="93.5053" height="37.8359" fill="white" transform="translate(53.4951 31.0579)"/>
</clipPath>
</defs>
</svg>
