<svg width="200" height="100" viewBox="0 0 200 100" fill="none" xmlns="http://www.w3.org/2000/svg">
<path d="M67.9739 47.427L67.9393 47.3347L64.448 38.2276C64.3773 38.0487 64.2516 37.8971 64.089 37.7944C63.9676 37.7168 63.8298 37.6686 63.6865 37.6538C63.5432 37.639 63.3984 37.658 63.2638 37.7092C63.1291 37.7604 63.0083 37.8425 62.9111 37.9488C62.8139 38.0551 62.743 38.1828 62.7039 38.3214L60.3473 45.5364H50.8037L48.447 38.3214C48.4077 38.183 48.3366 38.0556 48.2393 37.9495C48.1421 37.8434 48.0214 37.7614 47.8868 37.7103C47.7523 37.6591 47.6076 37.64 47.4644 37.6546C47.3212 37.6693 47.1834 37.7171 47.062 37.7944C46.8994 37.8971 46.7737 38.0487 46.703 38.2276L43.2133 47.3364L43.1771 47.427C42.6746 48.74 42.6128 50.1808 43.0007 51.5321C43.3887 52.8834 44.2054 54.072 45.3279 54.9185L45.341 54.9284L45.3707 54.9515L50.6818 58.932L53.3168 60.923L54.9176 62.1335C55.1054 62.2753 55.3343 62.3521 55.5697 62.3521C55.8051 62.3521 56.0341 62.2753 56.2219 62.1335L57.8226 60.923L60.4576 58.932L65.8066 54.9284L65.8215 54.9169C66.9438 54.0706 67.7607 52.8825 68.1489 51.5315C68.5372 50.1805 68.4757 48.74 67.9739 47.427Z" fill="#2F2B24"/>
<path d="M88.876 46.9559H92.6275C92.0017 42.9672 88.5482 40.189 84.0539 40.189C78.7362 40.189 74.7458 44.0986 74.7458 50.6466C74.7458 57.0776 78.5567 61.0663 84.1626 61.0663C89.1938 61.0663 92.7955 57.8302 92.7955 52.5915V50.1509H84.5496V53.0279H89.2333C89.174 55.9264 87.239 57.761 84.1824 57.761C80.78 57.761 78.448 55.2117 78.448 50.607C78.448 46.032 80.8195 43.4926 84.1033 43.4926C86.5539 43.4926 88.2304 44.8018 88.876 46.9559Z" fill="#2F2B24"/>
<path d="M95.2756 60.7881H98.8674V45.5546H95.2756V60.7881ZM97.0872 43.1337C98.2285 43.1337 99.1606 42.2592 99.1606 41.1887C99.1606 40.1183 98.2285 39.2339 97.0872 39.2339C95.9459 39.2339 95.0039 40.1067 95.0039 41.1887C95.0039 42.2707 95.9294 43.1337 97.0806 43.1337H97.0872Z" fill="#2F2B24"/>
<path d="M109.623 45.5546H106.616V41.8953H103.024V45.5546H100.862V48.3329H103.024V56.8076C103.004 59.6748 105.089 61.0895 107.787 61.0055C108.505 60.9912 109.218 60.8708 109.901 60.6481L109.295 57.8386C108.952 57.9276 108.599 57.9746 108.245 57.9785C107.341 57.9785 106.616 57.6607 106.616 56.2115V48.3246H109.623V45.5546Z" fill="#2F2B24"/>
<path d="M112.403 60.7879H125.035V57.7017H116.085V40.4656H112.403V60.7879Z" fill="#2F2B24"/>
<path d="M131.915 61.096C134.306 61.096 135.734 59.9744 136.39 58.6948H136.508V60.788H139.967V50.5873C139.967 46.5591 136.683 45.3486 133.775 45.3486C130.57 45.3486 128.109 46.7765 127.316 49.5547L130.67 50.0323C131.026 48.9899 132.039 48.0973 133.799 48.0973C135.467 48.0973 136.38 48.9503 136.38 50.449V50.5083C136.38 51.5392 135.298 51.5902 132.609 51.8768C129.652 52.1946 126.825 53.0774 126.825 56.5111C126.815 59.5084 129.007 61.096 131.915 61.096ZM133.096 58.461C131.597 58.461 130.525 57.7759 130.525 56.4567C130.525 55.0767 131.726 54.5019 133.325 54.273C134.269 54.1445 136.154 53.9057 136.619 53.5303V55.3253C136.629 57.0167 135.258 58.456 133.096 58.456V58.461Z" fill="#2F2B24"/>
<path d="M142.611 60.7879H146.144V58.3868H146.351C146.918 59.4984 148.099 61.0563 150.719 61.0563C154.311 61.0563 157 58.2072 157 53.1876C157 48.107 154.232 45.3485 150.709 45.3485C148.02 45.3485 146.898 46.9657 146.351 48.0675H146.2V40.4656H142.611V60.7879ZM146.134 53.1678C146.134 50.2035 147.404 48.2948 149.716 48.2948C152.107 48.2948 153.339 50.3286 153.339 53.1678C153.339 56.007 152.089 58.1084 149.716 58.1084C147.423 58.1084 146.134 56.124 146.134 53.1678Z" fill="#2F2B24"/>
</svg>
