<svg width="200" height="100" viewBox="0 0 200 100" fill="none" xmlns="http://www.w3.org/2000/svg">
<path d="M3.83206 52.436L2.76574 54.8556C3.46551 54.8556 3.83206 54.8229 4.09863 54.8229C4.29857 54.8229 4.53182 55.0191 4.53182 55.346C4.53182 55.6403 4.29857 55.8365 4.09863 55.8365C3.79873 55.8365 3.66544 55.7057 2.23259 55.7057C0.866378 55.7057 0.699766 55.8365 0.433189 55.8365C0.199933 55.8365 0 55.673 0 55.346C0 55.0191 0.199933 54.8229 0.433189 54.8229C0.733089 54.8229 0.933022 54.8556 1.73276 54.8556L6.36454 44.3924C6.46451 44.1308 6.53116 44 6.83106 44C7.13096 44 7.16428 44.0981 7.29757 44.3924L11.7961 54.8556C12.7291 54.8556 12.7957 54.8229 13.0956 54.8229C13.2956 54.8229 13.5288 55.0191 13.5288 55.346C13.5288 55.6403 13.2956 55.8365 13.0956 55.8365C12.7957 55.8365 12.7291 55.7057 10.7631 55.7057H10.7298C8.89703 55.7057 8.73042 55.8365 8.43052 55.8365C8.23059 55.8365 7.99733 55.673 7.99733 55.346C7.99733 55.0191 8.23059 54.8229 8.43052 54.8229C8.73042 54.8229 8.79707 54.8556 9.63012 54.8556L8.59713 52.436H3.83206ZM8.16394 51.455L6.23126 46.9428L4.23192 51.455C4.26524 51.455 8.16394 51.455 8.16394 51.455ZM20.1599 54.8556C21.3262 54.8556 21.4928 54.8229 21.7594 54.8229C21.9927 54.8229 22.1926 55.0191 22.1926 55.346C22.1926 55.6403 21.9927 55.8365 21.7594 55.8365C21.4595 55.8365 21.3595 55.7057 19.6934 55.7057H19.6268C17.9607 55.7057 17.8274 55.8365 17.5275 55.8365C17.3276 55.8365 17.0943 55.673 17.0943 55.346C17.0943 55.0191 17.3276 54.8229 17.5275 54.8229C17.8274 54.8229 17.9607 54.8556 19.127 54.8556V45.1117C17.9607 45.1117 17.8274 45.1444 17.5275 45.1444C17.3276 45.1444 17.0943 44.9809 17.0943 44.654C17.0943 44.3597 17.3276 44.1635 17.5275 44.1635C17.8274 44.1635 17.9607 44.2943 19.6268 44.2943H19.8934C20.1933 44.2943 20.4932 44.2616 20.6931 44.2616C21.0263 44.2616 21.1929 44.3924 21.5928 44.9482L26.7911 52.2725V45.079C25.5915 45.079 25.4582 45.1117 25.1916 45.1117C24.9583 45.1117 24.7584 44.9482 24.7584 44.6213C24.7584 44.327 24.9583 44.1308 25.1916 44.1308C25.4915 44.1308 25.6248 44.2616 27.2576 44.2616H27.3242C28.9903 44.2616 29.1236 44.1308 29.4235 44.1308C29.6235 44.1308 29.8567 44.327 29.8567 44.6213C29.8567 44.9482 29.6235 45.1117 29.4235 45.1117C29.1236 45.1117 28.9903 45.079 27.8241 45.079V55.346C27.8241 55.8365 27.5575 56 27.3242 56C27.0243 56 26.9244 55.9019 26.6911 55.6076L20.1266 46.3542L20.1599 54.8556ZM43.8187 48.0218C43.5188 48.0218 43.3189 47.7929 43.3189 47.5967C43.3189 45.5695 42.8524 45.079 41.2196 45.079H40.02V54.8556C41.3862 54.8556 41.5528 54.8229 41.8527 54.8229C42.086 54.8229 42.2859 55.0191 42.2859 55.346C42.2859 55.6403 42.086 55.8365 41.8527 55.8365C41.5528 55.8365 41.3862 55.7057 39.087 55.7057H38.9537C36.6211 55.7057 36.4212 55.8365 36.1546 55.8365C35.9547 55.8365 35.7214 55.673 35.7214 55.346C35.7214 55.0191 35.9547 54.8229 36.1546 54.8229C36.4545 54.8229 36.6211 54.8556 37.9873 54.8556V45.079H36.8211C35.1549 45.079 34.6884 45.6022 34.6884 47.5967C34.6884 47.7929 34.5218 48.0218 34.2219 48.0218C33.922 48.0218 33.7554 47.7929 33.7554 47.5967C33.7554 47.3025 33.8554 46.5177 33.8554 45.3733V44.6213C33.8554 44.327 34.0553 44.1308 34.2886 44.1308C34.5551 44.1308 35.4215 44.2616 35.888 44.2616H42.086C42.5192 44.2616 43.3855 44.1308 43.6521 44.1308C43.8854 44.1308 44.0853 44.327 44.0853 44.6213V45.3733C44.0853 46.5177 44.2186 47.3025 44.2186 47.5967C44.2852 47.7929 44.1519 48.0218 43.8187 48.0218ZM53.2156 50.2125V54.8556C54.1153 54.8556 54.2819 54.8229 54.5485 54.8229C54.7817 54.8229 54.9817 55.0191 54.9817 55.346C54.9817 55.6403 54.7817 55.8365 54.5485 55.8365C54.2486 55.8365 53.9487 55.7057 52.2492 55.7057H52.116C49.7834 55.7057 49.6168 55.8365 49.3502 55.8365C49.117 55.8365 48.917 55.673 48.917 55.346C48.917 55.0191 49.117 54.8229 49.3502 54.8229C49.6501 54.8229 49.8167 54.8556 51.1829 54.8556V45.1117C49.8167 45.1117 49.6501 45.1444 49.3502 45.1444C49.117 45.1444 48.917 44.9809 48.917 44.654C48.917 44.3597 49.117 44.1635 49.3502 44.1635C49.6501 44.1635 49.8167 44.2943 52.116 44.2943H52.2492C54.1153 44.2943 54.2486 44.1635 54.5485 44.1635C54.7817 44.1635 54.9817 44.3597 54.9817 44.654C54.9817 44.9809 54.7817 45.1444 54.5485 45.1444C54.2486 45.1444 53.982 45.1117 53.2156 45.1117V49.2316H58.2806V45.1117C57.3809 45.1117 57.2143 45.1444 56.9477 45.1444C56.7144 45.1444 56.5145 44.9809 56.5145 44.654C56.5145 44.3597 56.7144 44.1635 56.9477 44.1635C57.2476 44.1635 57.3809 44.2943 59.2802 44.2943H59.3802C61.7128 44.2943 61.8794 44.1635 62.1459 44.1635C62.3792 44.1635 62.5791 44.3597 62.5791 44.654C62.5791 44.9809 62.3792 45.1444 62.1459 45.1444C61.846 45.1444 61.7128 45.1117 60.3132 45.1117V54.8556C61.7128 54.8556 61.846 54.8229 62.1459 54.8229C62.3792 54.8229 62.5791 55.0191 62.5791 55.346C62.5791 55.6403 62.3792 55.8365 62.1459 55.8365C61.846 55.8365 61.7128 55.7057 59.3802 55.7057H59.2802C57.4142 55.7057 57.2476 55.8365 56.9477 55.8365C56.7144 55.8365 56.5145 55.673 56.5145 55.346C56.5145 55.0191 56.7144 54.8229 56.9477 54.8229C57.2476 54.8229 57.4475 54.8556 58.2806 54.8556V50.2125H53.2156ZM77.9407 52.7302C77.9407 53.9074 77.8407 54.0382 77.8407 54.6267C77.8407 55.0845 78.0073 55.346 78.3739 55.346C78.7404 55.346 78.8071 55.0845 78.8071 54.7575C78.8071 54.4959 79.007 54.2997 79.2402 54.2997C79.5068 54.2997 79.7068 54.4959 79.7068 54.7248C79.7068 55.6076 78.8737 56 78.2739 56C76.8411 56 75.9414 55.346 75.9414 52.6975C75.9414 50.8338 75.6414 50.1144 73.5421 50.1144H72.4092V54.8229C73.7754 54.8229 73.942 54.7902 74.2419 54.7902C74.4752 54.7902 74.6751 54.9864 74.6751 55.3133C74.6751 55.6076 74.4752 55.8038 74.2419 55.8038C73.942 55.8038 73.7754 55.673 71.4762 55.673H71.3429C69.0103 55.673 68.8437 55.8038 68.5771 55.8038C68.3439 55.8038 68.1439 55.6403 68.1439 55.3133C68.1439 54.9864 68.3439 54.7902 68.5771 54.7902C68.877 54.7902 69.0436 54.8229 70.4099 54.8229V45.079C69.0436 45.079 68.877 45.1117 68.5771 45.1117C68.3439 45.1117 68.1439 44.9482 68.1439 44.6213C68.1439 44.327 68.3439 44.1308 68.5771 44.1308C68.877 44.1308 69.0436 44.2616 71.2096 44.2616C71.7761 44.2616 72.8424 44.1962 73.5421 44.1962C76.6078 44.1962 77.974 45.4714 77.974 46.9101C77.974 48.218 76.6411 49.2643 75.2416 49.5586C77.041 50.049 77.9407 51.3896 77.9407 52.7302ZM73.2089 45.079H72.4092V49.3297H73.0423C74.875 49.3297 75.8414 48.7738 75.8414 47.0409C75.8414 45.7003 75.1749 45.079 73.2089 45.079ZM89.1703 55.9673C86.2046 55.9673 83.6721 53.5804 83.6721 50.0163C83.6721 46.4523 86.2046 44.0327 89.1703 44.0327C92.1693 44.0327 94.6684 46.4523 94.6684 50.0163C94.6684 53.5477 92.1693 55.9673 89.1703 55.9673ZM89.1703 44.9482C87.071 44.9482 85.9713 46.1907 85.9713 50.0163C85.9713 53.842 87.1043 55.0845 89.1703 55.0845C91.2696 55.0845 92.3692 53.842 92.3692 50.0163C92.3692 46.158 91.2696 44.9482 89.1703 44.9482ZM104.299 54.8556C105.665 54.8556 105.831 54.8229 106.131 54.8229C106.365 54.8229 106.564 55.0191 106.564 55.346C106.564 55.6403 106.365 55.8365 106.131 55.8365C105.831 55.8365 105.665 55.7057 103.366 55.7057H103.232C100.9 55.7057 100.733 55.8365 100.467 55.8365C100.233 55.8365 100.033 55.673 100.033 55.346C100.033 55.0191 100.233 54.8229 100.467 54.8229C100.766 54.8229 100.933 54.8556 102.299 54.8556V45.1117C100.933 45.1117 100.766 45.1444 100.467 45.1444C100.233 45.1444 100.033 44.9809 100.033 44.654C100.033 44.327 100.233 44.1635 100.467 44.1635C100.766 44.1635 100.9 44.2943 102.966 44.2943C103.932 44.2943 104.399 44.2616 105.432 44.2616C108.564 44.2616 110.263 45.7003 110.263 47.6948C110.263 49.6894 108.564 51.1608 105.432 51.1608H104.332L104.299 54.8556ZM104.299 50.3433H105.398C107.464 50.3433 108.197 49.624 108.197 47.6621C108.197 45.7657 107.464 45.0463 105.398 45.0463H104.299V50.3433ZM120.06 55.9673C117.094 55.9673 114.562 53.5804 114.562 50.0163C114.562 46.4523 117.094 44.0327 120.06 44.0327C123.059 44.0327 125.558 46.4523 125.558 50.0163C125.558 53.5477 123.059 55.9673 120.06 55.9673ZM120.06 44.9482C117.961 44.9482 116.861 46.1907 116.861 50.0163C116.861 53.842 117.994 55.0845 120.06 55.0845C122.159 55.0845 123.259 53.842 123.259 50.0163C123.259 46.158 122.159 44.9482 120.06 44.9482ZM138.087 54.921C139.72 54.921 140.187 54.3978 140.187 52.4033C140.187 52.1744 140.353 51.9782 140.686 51.9782C140.986 51.9782 141.12 52.1744 141.12 52.4033C141.12 52.6975 141.02 53.4496 141.02 54.594V55.3787C141.02 55.673 140.82 55.8692 140.586 55.8692C140.32 55.8692 139.453 55.7711 138.987 55.7711L134.122 55.7057C131.789 55.7057 131.623 55.8365 131.356 55.8365C131.123 55.8365 130.923 55.673 130.923 55.346C130.923 55.0191 131.123 54.8229 131.356 54.8229C131.656 54.8229 131.823 54.8556 133.189 54.8556V45.1117C131.823 45.1117 131.656 45.1444 131.356 45.1444C131.123 45.1444 130.923 44.9809 130.923 44.654C130.923 44.327 131.123 44.1635 131.356 44.1635C131.656 44.1635 131.823 44.2943 134.122 44.2943H134.255C136.588 44.2943 136.754 44.1635 137.054 44.1635C137.288 44.1635 137.487 44.3597 137.487 44.654C137.487 44.9809 137.288 45.1444 137.054 45.1444C136.754 45.1444 136.588 45.1117 135.222 45.1117V54.921H138.087ZM150.75 55.9673C147.784 55.9673 145.252 53.5804 145.252 50.0163C145.252 46.4523 147.784 44.0327 150.75 44.0327C153.749 44.0327 156.248 46.4523 156.248 50.0163C156.248 53.5477 153.782 55.9673 150.75 55.9673ZM150.75 44.9482C148.65 44.9482 147.551 46.1907 147.551 50.0163C147.551 53.842 148.65 55.0845 150.75 55.0845C152.849 55.0845 153.949 53.842 153.949 50.0163C153.982 46.158 152.849 44.9482 150.75 44.9482ZM161.646 49.9837C161.646 46.4196 164.179 44 167.144 44C168.777 44 169.543 44.5232 170.243 45.1117C170.377 45.0136 170.51 44.8828 170.51 44.654C170.51 44.3924 170.543 44.1308 170.976 44.1308C171.376 44.1308 171.443 44.327 171.443 44.6213V48.1199C171.443 48.3488 171.41 48.643 170.976 48.643C170.543 48.643 170.51 48.3488 170.51 48.1199C170.51 46.3869 169.144 44.9482 167.344 44.9482C165.178 44.9482 163.979 46.2888 163.979 50.0163C163.979 53.7112 165.178 55.0845 167.344 55.0845C168.577 55.0845 169.81 54.6267 169.81 51.9128C168.877 51.9128 168.71 51.9455 168.444 51.9455C168.244 51.9455 168.011 51.7493 168.011 51.455C168.011 51.1608 168.244 50.9646 168.444 50.9646C168.744 50.9646 168.844 51.0954 170.743 51.0954H170.843C172.809 51.0954 172.876 50.9646 173.176 50.9646C173.409 50.9646 173.609 51.1608 173.609 51.455C173.609 51.7493 173.409 51.9455 173.176 51.9455C172.876 51.9455 172.742 51.9128 171.843 51.9128C171.843 52.7629 171.576 56 167.178 56C164.179 55.9673 161.646 53.5477 161.646 49.9837ZM184.005 54.8229C184.239 54.8229 184.439 55.0191 184.439 55.346C184.439 55.6403 184.239 55.8365 184.005 55.8365C183.705 55.8365 183.539 55.7057 181.206 55.7057H181.073C178.74 55.7057 178.574 55.8365 178.307 55.8365C178.074 55.8365 177.874 55.673 177.874 55.346C177.874 55.0191 178.074 54.8229 178.307 54.8229C178.607 54.8229 178.774 54.8556 180.14 54.8556V45.1117C178.774 45.1117 178.607 45.1444 178.307 45.1444C178.074 45.1444 177.874 44.9809 177.874 44.654C177.874 44.327 178.074 44.1635 178.307 44.1635C178.607 44.1635 178.774 44.2943 181.073 44.2943H181.206C183.539 44.2943 183.705 44.1635 184.005 44.1635C184.239 44.1635 184.439 44.3597 184.439 44.654C184.439 44.9809 184.239 45.1444 184.005 45.1444C183.705 45.1444 183.539 45.1117 182.173 45.1117V54.8556C183.539 54.8556 183.705 54.8229 184.005 54.8229ZM195.202 49.3297C195.901 49.3297 196.468 48.8065 196.468 47.9891C196.468 47.7275 196.534 47.4986 196.834 47.4986C197.134 47.4986 197.134 47.7275 197.134 47.9891C197.134 48.2834 197.068 48.643 197.068 49.624V49.9183C197.068 50.8992 197.134 51.2589 197.134 51.5531C197.134 51.8147 197.134 52.0436 196.834 52.0436C196.501 52.0436 196.468 51.8147 196.468 51.5531C196.468 50.7357 195.901 50.2125 195.202 50.2125H194.235V54.9537H196.934C198.6 54.9537 199.034 54.4305 199.034 52.436C199.034 52.2071 199.2 52.0109 199.533 52.0109C199.833 52.0109 200 52.2071 200 52.436C200 52.7302 199.9 53.4823 199.9 54.6267V55.4114C199.9 55.7057 199.667 55.9019 199.467 55.9019C199.2 55.9019 198.301 55.8038 197.867 55.8038L193.202 55.7384C190.87 55.7384 190.703 55.8692 190.403 55.8692C190.17 55.8692 189.97 55.7057 189.97 55.3787C189.97 55.0518 190.17 54.8556 190.403 54.8556C190.703 54.8556 190.87 54.8883 192.236 54.8883V45.1444C190.87 45.1444 190.703 45.1771 190.403 45.1771C190.17 45.1771 189.97 45.0136 189.97 44.6866C189.97 44.3924 190.17 44.1962 190.403 44.1962C190.703 44.1962 190.87 44.327 193.169 44.327L197.334 44.2943C197.801 44.2943 198.667 44.1635 198.934 44.1635C199.167 44.1635 199.367 44.3597 199.367 44.654V45.406C199.367 46.5504 199.467 47.3351 199.467 47.6294C199.467 47.8583 199.3 48.0545 199.067 48.0545C199.067 48.0545 199.067 48.0545 199.034 48.0545C198.734 48.0545 198.567 47.8256 198.567 47.6294C198.567 45.6022 198.101 45.1117 196.468 45.1117H194.269V49.3624H195.202V49.3297Z" fill="#2F2B24"/>
</svg>
