<svg width="128" height="128" viewBox="0 0 128 128" fill="none" xmlns="http://www.w3.org/2000/svg">
<g clip-path="url(#clip0_1128_983)">
<path d="M43.393 46.1948L35.1862 120.379L103.535 90.3944L111.743 16.2084L43.393 46.1948Z" fill="#E6FAE3" stroke="#2F2B24" stroke-width="2" stroke-linejoin="bevel"/>
<g filter="url(#filter0_f_1128_983)">
<path d="M48.1242 49.6532L41.7269 107.358L94.8886 84.0214L101.288 26.3138L48.1242 49.6532Z" fill="#00B261"/>
</g>
<path d="M28.2777 35.0864L20.0709 109.27L88.4196 79.286L96.628 5.10002L28.2777 35.0864Z" fill="#E6FAE3" stroke="#2F2B24" stroke-width="2" stroke-linejoin="bevel"/>
<path d="M20.3711 108.859L35.4055 119.908" stroke="#2F2B24" stroke-width="2" stroke-linejoin="bevel"/>
<path d="M88.4199 79.2861L103.454 90.3353" stroke="#2F2B24" stroke-width="2" stroke-linejoin="bevel"/>
<path d="M96.459 5.49561L111.496 16.5463" stroke="#2F2B24" stroke-width="2" stroke-linejoin="bevel"/>
<path d="M61.695 37.467L44.9461 44.8183C43.0911 45.619 41.4038 47.9151 41.1938 49.9246L37.8143 80.5582C37.6042 82.5677 38.9236 83.5373 40.7615 82.724L68.987 70.3483C70.842 69.5476 72.5293 67.2515 72.7394 65.242L73.7198 56.3308L65.8479 52.8947C65.3097 52.6576 64.4588 53.0614 63.8498 53.8542L41.1651 82.6775" stroke="#2F2B23" stroke-width="2" stroke-miterlimit="10"/>
<path d="M54.7977 51.5569C54.544 53.8773 52.5923 56.5333 50.441 57.4857C48.2898 58.4381 46.7602 57.2878 47.014 54.9674C47.2678 52.647 49.2195 49.991 51.3707 49.0386C53.5219 48.0862 55.0515 49.2366 54.7977 51.5569Z" stroke="#2F2B23" stroke-width="2" stroke-miterlimit="10"/>
<path d="M65.2803 38.7295L69.7777 41.9816L79.8087 28.2952" stroke="#2F2B23" stroke-width="2" stroke-miterlimit="10"/>
</g>
<defs>
<filter id="filter0_f_1128_983" x="31.5932" y="16.1806" width="79.8282" height="101.311" filterUnits="userSpaceOnUse" color-interpolation-filters="sRGB">
<feFlood flood-opacity="0" result="BackgroundImageFix"/>
<feBlend mode="normal" in="SourceGraphic" in2="BackgroundImageFix" result="shape"/>
<feGaussianBlur stdDeviation="5.06667" result="effect1_foregroundBlur_1128_983"/>
</filter>
<clipPath id="clip0_1128_983">
<rect width="128" height="128" fill="white"/>
</clipPath>
</defs>
</svg>
