<svg width="128" height="128" viewBox="0 0 128 128" fill="none" xmlns="http://www.w3.org/2000/svg">
<g clip-path="url(#clip0_1128_963)">
<path d="M88.4225 46.1948L96.6292 120.379L28.2806 90.3944L20.0722 16.2084L88.4225 46.1948Z" fill="#E6FAE3" stroke="#2F2B24" stroke-width="2" stroke-linejoin="bevel"/>
<g filter="url(#filter0_f_1128_963)">
<path d="M83.6912 49.6532L90.0885 107.358L36.9269 84.0214L30.5274 26.3138L83.6912 49.6532Z" fill="#00B261"/>
</g>
<path d="M103.538 35.0864L111.744 109.27L43.3958 79.286L35.1875 5.10002L103.538 35.0864Z" fill="#E6FAE3" stroke="#2F2B24" stroke-width="2" stroke-linejoin="bevel"/>
<path d="M111.444 108.859L96.4099 119.908" stroke="#2F2B24" stroke-width="2" stroke-linejoin="bevel"/>
<path d="M43.3955 79.2861L28.3611 90.3353" stroke="#2F2B24" stroke-width="2" stroke-linejoin="bevel"/>
<path d="M35.3564 5.49561L20.3199 16.5463" stroke="#2F2B24" stroke-width="2" stroke-linejoin="bevel"/>
<path d="M75.8541 38.2501L60.9633 31.7218C58.6894 30.7295 57.0638 31.9241 57.3489 34.3778L61.0158 67.6366C61.2835 70.103 63.355 72.9219 65.6288 73.9142L88.1872 83.8096C90.4611 84.8019 92.0867 83.6074 91.8016 81.1536L89.0578 56.2182L75.8541 38.2501Z" stroke="#2F2B23" stroke-width="2" stroke-linecap="round" stroke-linejoin="round"/>
<path d="M75.8545 38.2505L77.022 48.7911C77.1686 50.0416 78.2107 51.4597 79.3476 51.9558L89.0582 56.2186" stroke="#2F2B23" stroke-width="2" stroke-linecap="round" stroke-linejoin="round"/>
<path d="M67.7658 61.6374L73.5352 69.4887L82.3896 62.9822" stroke="#2F2B23" stroke-width="2" stroke-miterlimit="10"/>
</g>
<defs>
<filter id="filter0_f_1128_963" x="20.394" y="16.1806" width="79.8282" height="101.311" filterUnits="userSpaceOnUse" color-interpolation-filters="sRGB">
<feFlood flood-opacity="0" result="BackgroundImageFix"/>
<feBlend mode="normal" in="SourceGraphic" in2="BackgroundImageFix" result="shape"/>
<feGaussianBlur stdDeviation="5.06667" result="effect1_foregroundBlur_1128_963"/>
</filter>
<clipPath id="clip0_1128_963">
<rect width="128" height="128" fill="white"/>
</clipPath>
</defs>
</svg>
