<svg width="164" height="164" viewBox="0 0 164 164" fill="none" xmlns="http://www.w3.org/2000/svg">
<g clip-path="url(#clip0_1101_12991)">
<path d="M69.8617 49.2414L10.5396 121.205L102.523 136.598L161.848 64.6334L69.8617 49.2414Z" fill="#E6FAE3" stroke="#2F2B24" stroke-width="2" stroke-linejoin="bevel"/>
<g filter="url(#filter0_f_1101_12991)">
<path d="M72.5354 56.0599L26.3769 112.028L97.9317 123.986L144.094 68.0158L72.5354 56.0599Z" fill="#00B261"/>
</g>
<path d="M61.6527 27.2865L2.33061 99.2502L94.3139 114.643L153.639 42.6785L61.6527 27.2865Z" fill="#E6FAE3" stroke="#2F2B24" stroke-width="2" stroke-linejoin="bevel"/>
<path d="M2.92676 99.0254L11.0915 120.863" stroke="#2F2B24" stroke-width="2" stroke-linejoin="bevel"/>
<path d="M94.3135 114.643L102.478 136.481" stroke="#2F2B24" stroke-width="2" stroke-linejoin="bevel"/>
<path d="M153.191 42.9766L161.357 64.8173" stroke="#2F2B24" stroke-width="2" stroke-linejoin="bevel"/>
<path d="M80.2314 87.9421L81.3431 86.4202C84.1405 83.034 82.8844 79.6741 78.5515 78.9539L62.8246 76.3239C58.4917 75.6036 52.6866 77.774 49.8891 81.1602L48.6702 82.6797M88.0485 67.4249C85.2511 70.8111 79.446 72.9815 75.1131 72.2612C70.7803 71.541 69.5241 68.1811 72.3216 64.7949C75.1191 61.4087 80.9242 59.2383 85.257 59.9586C89.5898 60.6789 90.846 64.0387 88.0485 67.4249ZM50.9741 83.0948L77.7081 87.5665C79.9095 87.9348 81.0009 88.1225 82.1229 87.937C83.1003 87.763 84.0896 87.3931 84.9415 86.8832C85.91 86.287 86.6105 85.4294 88.0303 83.7072L105.273 62.7933C106.693 61.0711 107.393 60.2135 107.525 59.4836C107.628 58.8493 107.412 58.2706 106.917 57.8596C106.358 57.388 105.248 57.2073 103.047 56.8389L76.3245 52.3416C74.1231 51.9733 73.0317 51.7856 71.9096 51.9711C70.9322 52.1451 69.9429 52.515 69.0911 53.0249C68.1226 53.6211 67.422 54.4787 66.0023 56.2009L48.7409 77.1218C47.3211 78.844 46.6206 79.7016 46.4893 80.4315C46.386 81.0658 46.6024 81.6445 47.0964 82.0555C47.6557 82.5272 48.7658 82.7078 50.9672 83.0762L50.9741 83.0948Z" stroke="#2F2B24" stroke-width="2" stroke-linecap="round"/>
</g>
<defs>
<filter id="filter0_f_1101_12991" x="16.2436" y="45.9265" width="137.984" height="88.1924" filterUnits="userSpaceOnUse" color-interpolation-filters="sRGB">
<feFlood flood-opacity="0" result="BackgroundImageFix"/>
<feBlend mode="normal" in="SourceGraphic" in2="BackgroundImageFix" result="shape"/>
<feGaussianBlur stdDeviation="5.06667" result="effect1_foregroundBlur_1101_12991"/>
</filter>
<clipPath id="clip0_1101_12991">
<rect width="164" height="164" fill="white"/>
</clipPath>
</defs>
</svg>
