<svg width="128" height="128" viewBox="0 0 128 128" fill="none" xmlns="http://www.w3.org/2000/svg">
<g clip-path="url(#clip0_1080_550)">
<path d="M88.4225 46.1947L96.6292 120.379L28.2806 90.3943L20.0722 16.2084L88.4225 46.1947Z" fill="#E6FAE3" stroke="#2F2B24" stroke-width="2" stroke-linejoin="bevel"/>
<g filter="url(#filter0_f_1080_550)">
<path d="M83.6912 49.6533L90.0885 107.358L36.9269 84.0214L30.5274 26.3139L83.6912 49.6533Z" fill="#00B261"/>
</g>
<path d="M103.538 35.0863L111.744 109.27L43.3958 79.2859L35.1875 5.09996L103.538 35.0863Z" fill="#E6FAE3" stroke="#2F2B24" stroke-width="2" stroke-linejoin="bevel"/>
<path d="M111.444 108.859L96.4099 119.908" stroke="#2F2B24" stroke-width="2" stroke-linejoin="bevel"/>
<path d="M43.3955 79.286L28.3611 90.3351" stroke="#2F2B24" stroke-width="2" stroke-linejoin="bevel"/>
<path d="M35.3564 5.49548L20.3199 16.5462" stroke="#2F2B24" stroke-width="2" stroke-linejoin="bevel"/>
<path d="M76.9265 72.7654L74.7587 53.162M76.9265 72.7654L77.1214 72.6221C78.1559 71.8619 78.6657 71.4873 79.3148 71.3336C79.8558 71.1901 80.4959 71.1814 81.1682 71.3108C81.9336 71.4411 82.7672 71.8214 84.4384 72.556L88.107 74.1548C90.0153 74.9922 90.964 75.4034 91.6531 75.3357C92.2382 75.2521 92.714 74.9255 92.9575 74.3771C93.239 73.7547 93.119 72.7115 92.8899 70.6401L91.1288 54.7324C90.8997 52.6611 90.7907 51.6329 90.3126 50.6681C89.9076 49.8343 89.3237 49.0396 88.6489 48.4041C87.867 47.6857 86.9073 47.2595 84.9989 46.4221L84.3134 46.1177C80.4967 44.443 78.5884 43.6056 77.2061 43.767C75.999 43.9152 75.0844 44.5873 74.5973 45.6841C74.0194 46.94 74.2485 49.0114 74.7067 53.1541M76.9265 72.7654L76.6841 72.4355C75.362 70.6363 74.7119 69.7517 73.964 68.9852C73.3191 68.3277 72.6254 67.7292 71.9007 67.2458C71.1059 66.6984 70.2573 66.3291 68.5861 65.5945L64.9175 63.9957C63.0092 63.1583 62.0605 62.7471 61.2676 62.0137C60.5928 61.3782 60.0088 60.5836 59.6039 59.7497C59.1368 58.7999 59.0168 57.7567 58.7877 55.6854L57.0266 39.7777C56.7975 37.7063 56.6885 36.6781 56.9589 36.0407C57.2025 35.4923 57.6673 35.1507 58.2633 35.0821C58.9415 34.9995 59.9011 35.4256 61.8095 36.263L62.495 36.5674C66.3117 38.2421 68.22 39.0795 69.7689 40.5274C71.1185 41.7984 72.2864 43.3877 73.0963 45.0554C74.0154 46.966 74.2445 49.0374 74.7027 53.1801" stroke="#2F2B23" stroke-width="2" stroke-linecap="square" stroke-linejoin="bevel"/>
</g>
<defs>
<filter id="filter0_f_1080_550" x="20.394" y="16.1806" width="79.8282" height="101.311" filterUnits="userSpaceOnUse" color-interpolation-filters="sRGB">
<feFlood flood-opacity="0" result="BackgroundImageFix"/>
<feBlend mode="normal" in="SourceGraphic" in2="BackgroundImageFix" result="shape"/>
<feGaussianBlur stdDeviation="5.06667" result="effect1_foregroundBlur_1080_550"/>
</filter>
<clipPath id="clip0_1080_550">
<rect width="128" height="128" fill="white"/>
</clipPath>
</defs>
</svg>
