<svg width="200" height="100" viewBox="0 0 200 100" fill="none" xmlns="http://www.w3.org/2000/svg">
<g clip-path="url(#clip0_1018_8458)">
<path fill-rule="evenodd" clip-rule="evenodd" d="M153.289 58.0001C151.26 58.0001 149.622 57.2784 148.452 55.835V52.1463C149.778 53.8303 151.495 54.7926 153.523 54.7926C154.849 54.7926 155.708 54.0709 155.708 53.0284C155.708 52.2265 155.24 51.6652 154.225 51.2643L151.651 50.0614C149.7 49.1794 148.764 47.736 148.764 45.7312C148.764 42.8445 150.948 40.9199 153.991 40.9199C155.786 40.9199 157.268 41.4812 158.438 42.5237V46.052C157.346 44.769 155.474 43.9671 154.069 43.9671C152.821 43.9671 152.119 44.5284 152.119 45.4907C152.119 46.2124 152.509 46.6935 153.445 47.0944L156.176 48.2171C158.126 49.019 159.141 50.5426 159.141 52.6275C158.985 55.9954 156.722 58.0001 153.289 58.0001Z" fill="#2F2B24"/>
<path fill-rule="evenodd" clip-rule="evenodd" d="M161.247 57.5996V55.6751V43.2458V41.3213H171V44.3685H168.191H164.446V47.7364H167.645H169.83V50.7836H167.567H164.446V54.6326H167.879H171V57.6798H161.247V57.5996Z" fill="#2F2B24"/>
<path fill-rule="evenodd" clip-rule="evenodd" d="M44.2143 57.5996V55.6751V43.2458V41.3213H53.967V44.3685H51.1583H47.4132V47.7364H50.6121H52.7967V50.7836H50.5341H47.4132V54.6326H50.8462H53.967V57.6798H44.2143V57.5996Z" fill="#2F2B24"/>
<path fill-rule="evenodd" clip-rule="evenodd" d="M89.7791 57.5996V55.6751V41.3213H92.822L99.6099 51.9864V43.2458V41.3213H102.653V43.2458V57.5996H99.6099L92.7439 47.0147V55.6751V57.5996H89.7791Z" fill="#2F2B24"/>
<path fill-rule="evenodd" clip-rule="evenodd" d="M79.2461 54.0712H83.8494L84.2396 55.274C84.3176 55.5948 84.4736 55.9155 84.5516 56.2363C84.7077 56.7174 84.8637 57.1985 85.0198 57.6797H88.4527C88.2187 57.0382 87.9846 56.3165 87.7505 55.5948C87.6725 55.4344 87.5945 55.1938 87.5945 55.0334L82.6791 41.4014H79.4022L74.4868 54.9533C74.3308 55.4344 74.1747 55.8353 74.0187 56.3165C73.8626 56.7976 73.7066 57.1985 73.5505 57.6797H76.9835L77.6857 55.4344L78.0758 54.1514L79.0121 51.1844L81.0406 44.9297L83.0692 51.1844H82.133C81.0406 51.1844 80.0264 51.9863 79.7143 53.1089L79.2461 54.0712Z" fill="#2F2B24"/>
<path fill-rule="evenodd" clip-rule="evenodd" d="M138.387 54.0712H142.99L143.38 55.274C143.458 55.5948 143.614 55.9155 143.692 56.2363C143.848 56.7174 144.004 57.1985 144.16 57.6797H147.593C147.359 57.0382 147.125 56.3165 146.891 55.5948C146.813 55.4344 146.735 55.1938 146.735 55.0334L141.82 41.4014H138.543L133.549 54.8731C133.393 55.3542 133.237 55.7551 133.081 56.2363C132.925 56.7174 132.769 57.1183 132.613 57.5995H136.046L136.748 55.3542L137.138 54.0712L138.075 51.1042L140.103 44.8495L142.132 51.1042H141.196C140.103 51.1042 139.089 51.9061 138.777 53.0287L138.387 54.0712Z" fill="#2F2B24"/>
<path fill-rule="evenodd" clip-rule="evenodd" d="M56.3077 57.5996V55.6751V43.2458V41.3213H59.0384L64.1099 49.1798L69.1813 41.3213H71.9121V43.2458V55.6751V57.5996H68.9472V55.5147V46.9345L64.1099 54.793L59.2725 47.0147V55.7553V57.6798H56.3077V57.5996Z" fill="#2F2B24"/>
<path fill-rule="evenodd" clip-rule="evenodd" d="M111.469 41.3213H105.852V57.5996H111.469C115.76 57.5996 119.193 54.7128 119.193 49.5005C119.193 44.2081 115.76 41.3213 111.469 41.3213ZM111.313 54.6326H108.973V44.3685H111.313C113.732 44.3685 115.916 46.0524 115.916 49.5005C115.916 52.9486 113.732 54.6326 111.313 54.6326Z" fill="#2F2B24"/>
<path fill-rule="evenodd" clip-rule="evenodd" d="M128.712 48.9392C130.585 48.6986 131.599 47.0147 131.599 45.2505C131.599 42.7647 129.96 41.3213 127.074 41.3213H121.066V57.5996H126.996C130.194 57.5996 132.067 55.7553 132.067 52.7883C132.067 50.7836 130.819 49.1798 128.712 48.9392ZM124.265 43.8873H126.371C127.698 43.8873 128.4 44.6892 128.4 45.8119C128.4 46.9345 127.698 47.7364 126.371 47.7364H124.343V43.8873H124.265ZM126.527 54.8732H124.187V50.4628H126.449C127.854 50.4628 128.79 51.2647 128.79 52.7081C128.868 54.0713 127.932 54.8732 126.527 54.8732Z" fill="#2F2B24"/>
<path fill-rule="evenodd" clip-rule="evenodd" d="M29 41.3213H34.6176C38.8308 41.3213 42.2637 44.2081 42.2637 49.5005C42.2637 54.793 38.8308 57.5996 34.6176 57.5996H29V49.26C29 47.4156 30.4044 45.892 32.1209 45.892V54.6326H34.4615C36.8802 54.6326 38.9868 52.9486 38.9868 49.5005C38.9868 46.0524 36.8022 44.3685 34.4615 44.3685H31.7308C30.2484 44.3685 29 43.0053 29 41.3213Z" fill="#2F2B24"/>
</g>
<defs>
<clipPath id="clip0_1018_8458">
<rect width="142" height="17" fill="white" transform="translate(29 41)"/>
</clipPath>
</defs>
</svg>
