<svg width="212" height="212" viewBox="0 0 212 212" fill="none" xmlns="http://www.w3.org/2000/svg">
<path d="M106.091 62.9819L6 120.64L106.091 178.299L206.187 120.64L106.091 62.9819Z" fill="#E6FAE3" stroke="#2F2B24" stroke-width="2" stroke-linejoin="bevel"/>
<g filter="url(#filter0_f_1128_1154)">
<path d="M106.12 72.1348L28.25 116.968L106.12 161.801L183.995 116.968L106.12 72.1348Z" fill="#00B261"/>
</g>
<path d="M106.091 34L6 91.6584L106.091 149.317L206.187 91.6584L106.091 34Z" fill="#E6FAE3" stroke="#2F2B24" stroke-width="2" stroke-linejoin="bevel"/>
<path d="M6.78906 91.6562V120.483" stroke="#2F2B24" stroke-width="2" stroke-linejoin="bevel"/>
<path d="M106.091 149.317V178.144" stroke="#2F2B24" stroke-width="2" stroke-linejoin="bevel"/>
<path d="M205.538 91.8096V120.641" stroke="#2F2B24" stroke-width="2" stroke-linejoin="bevel"/>
<path d="M142.823 87.2727L154 93.8863L146.215 98.4827C143.114 100.335 141.531 101.227 139.754 101.591C138.171 101.889 136.459 101.889 134.876 101.591C133.067 101.227 131.517 100.301 128.383 98.4496L126.154 97.1269M109.26 67.4319L98.0829 60.8184L90.2978 65.4148C87.1966 67.2666 85.6138 68.1594 85.0646 69.2507C84.5478 70.1766 84.5801 71.2017 85.0646 72.1276C85.6461 73.1858 87.2289 74.1117 90.3624 75.9635L92.5913 77.2862M95.4663 95.4074C86.1952 89.9181 86.1629 81.089 95.3694 75.6328L114.816 64.1252L148.379 83.9659L128.933 95.4735C119.726 100.93 104.737 100.897 95.4663 95.4074ZM95.4663 95.4074L87.132 100.335M89.9747 115.182L92.2037 113.859C95.3048 112.007 96.8876 111.115 97.4368 110.023C97.9537 109.098 97.9213 108.072 97.4368 107.146C96.8553 106.088 95.2725 105.162 92.139 103.311L82.0604 97.3584C78.927 95.5066 77.3764 94.5807 75.5674 94.2169C73.9846 93.9193 72.2725 93.9193 70.6896 94.2169C68.8806 94.5476 67.3301 95.4735 64.2289 97.3253L62 98.648L89.9747 115.182Z" stroke="#2F2B23" stroke-width="2"/>
<defs>
<filter id="filter0_f_1128_1154" x="18.1167" y="62.0014" width="176.011" height="109.933" filterUnits="userSpaceOnUse" color-interpolation-filters="sRGB">
<feFlood flood-opacity="0" result="BackgroundImageFix"/>
<feBlend mode="normal" in="SourceGraphic" in2="BackgroundImageFix" result="shape"/>
<feGaussianBlur stdDeviation="5.06667" result="effect1_foregroundBlur_1128_1154"/>
</filter>
</defs>
</svg>
