<svg width="164" height="164" viewBox="0 0 164 164" fill="none" xmlns="http://www.w3.org/2000/svg">
<g clip-path="url(#clip0_1080_554)">
<path d="M69.8617 49.2412L10.5396 121.205L102.523 136.598L161.848 64.6332L69.8617 49.2412Z" fill="#E6FAE3" stroke="#2F2B24" stroke-width="2" stroke-linejoin="bevel"/>
<g filter="url(#filter0_f_1080_554)">
<path d="M72.5354 56.0599L26.3769 112.028L97.9317 123.986L144.094 68.0157L72.5354 56.0599Z" fill="#00B261"/>
</g>
<path d="M61.6527 27.2864L2.33061 99.2501L94.3139 114.643L153.639 42.6784L61.6527 27.2864Z" fill="#E6FAE3" stroke="#2F2B24" stroke-width="2" stroke-linejoin="bevel"/>
<path d="M2.92676 99.0253L11.0915 120.863" stroke="#2F2B24" stroke-width="2" stroke-linejoin="bevel"/>
<path d="M94.3135 114.643L102.478 136.481" stroke="#2F2B24" stroke-width="2" stroke-linejoin="bevel"/>
<path d="M153.191 42.9764L161.357 64.8171" stroke="#2F2B24" stroke-width="2" stroke-linejoin="bevel"/>
<path d="M87.3946 66.9606C89.2655 67.2714 91.7381 66.3469 92.9462 64.8849C94.1543 63.4229 93.6136 61.9767 91.7514 61.6892C89.8892 61.4018 87.4079 62.3029 86.1997 63.7649C84.9916 65.2269 85.5323 66.6731 87.3946 66.9606Z" fill="#2F2B23"/>
<path d="M73.8936 64.6972C75.7645 65.008 78.2371 64.0835 79.4452 62.6215C80.6533 61.1596 80.1126 59.7133 78.2504 59.4259C76.3882 59.1384 73.9069 60.0395 72.6988 61.5015C71.4907 62.9635 72.0314 64.4098 73.8936 64.6972Z" fill="#2F2B23"/>
<path d="M65.5638 70.1512L65.8948 71.4632C65.8948 71.4632 65.9035 71.4865 65.9122 71.5098C65.9209 71.5331 65.9384 71.5798 65.9645 71.6498C66.0082 71.7664 66.0605 71.9064 66.1303 72.093C66.3164 72.4487 66.5929 72.9037 67.0209 73.4084C67.9147 74.3769 69.508 75.5094 72.291 75.9843C75.0741 76.4592 77.9047 76.0656 79.992 75.6042C81.0474 75.3691 81.9279 75.0931 82.5664 74.8809C82.893 74.7588 83.1496 74.6629 83.3362 74.5931C83.4295 74.5582 83.4995 74.5321 83.5695 74.5059C83.5928 74.4972 83.6161 74.4885 83.6394 74.4797C83.6394 74.4797 83.6394 74.4797 83.6628 74.471L85.7972 73.5666" stroke="#2F2B23" stroke-width="2" stroke-linejoin="round"/>
<path d="M68.4239 53.035C69.1091 52.7788 69.8133 52.5734 70.5206 52.4535C71.1423 52.3368 71.9129 52.309 73.1781 52.4435C74.4687 52.5684 76.0382 52.8205 78.3242 53.2096L100.76 56.9704C103.046 57.3595 104.615 57.6115 105.766 57.9044C106.908 58.1719 107.44 58.4356 107.741 58.6991C108.457 59.2992 108.77 60.1367 108.624 61.0594C108.569 61.4557 108.315 62.0136 107.655 62.9548C106.978 63.9309 105.959 65.1508 104.489 66.9442L95.1736 78.2373C93.7036 80.0307 92.6845 81.2506 91.7924 82.1916C90.9258 83.1231 90.3165 83.5823 89.7802 83.9274C89.1678 84.301 88.5016 84.608 87.8163 84.8642C87.1311 85.1204 86.4269 85.3258 85.7196 85.4456C85.0979 85.5624 84.3273 85.5902 83.0621 85.4557C81.7716 85.3308 80.2021 85.0787 77.916 84.6896L66.6855 82.814L65.858 82.6895L64.9 82.9898L50.397 87.3709L54.1593 82.8112L55.6706 80.9734L53.3243 80.5779C50.7022 80.1409 49.8302 79.9751 49.3072 79.7368C47.7033 79.0058 47.153 77.5338 47.8839 75.9299C48.1223 75.4069 48.6716 74.7098 50.3638 72.6597L61.0507 59.6968C62.5207 57.9033 63.5399 56.6834 64.4319 55.7425C65.2986 54.811 65.9079 54.3517 66.4441 54.0066C67.0565 53.633 67.7228 53.3261 68.408 53.0699" stroke="#2F2B24" stroke-width="2" stroke-linecap="round" stroke-linejoin="round"/>
</g>
<defs>
<filter id="filter0_f_1080_554" x="16.2436" y="45.9265" width="137.984" height="88.1924" filterUnits="userSpaceOnUse" color-interpolation-filters="sRGB">
<feFlood flood-opacity="0" result="BackgroundImageFix"/>
<feBlend mode="normal" in="SourceGraphic" in2="BackgroundImageFix" result="shape"/>
<feGaussianBlur stdDeviation="5.06667" result="effect1_foregroundBlur_1080_554"/>
</filter>
<clipPath id="clip0_1080_554">
<rect width="164" height="164" fill="white"/>
</clipPath>
</defs>
</svg>
