<svg width="103" height="103" viewBox="0 0 103 103" fill="none" xmlns="http://www.w3.org/2000/svg">
<path d="M33.5146 51.2989L58.4126 8.1748L83.3105 51.2989L58.4126 94.4248L33.5146 51.2989Z" fill="#E6FAE3" stroke="#2F2B24" stroke-width="2" stroke-linejoin="bevel"/>
<g filter="url(#filter0_f_1128_1073)">
<path d="M37.4668 51.3615L56.8266 17.8115L76.1864 51.3615L56.8266 84.9138L37.4668 51.3615Z" fill="#00B261"/>
</g>
<path d="M21 51.2989L45.8979 8.1748L70.7958 51.2989L45.8979 94.4248L21 51.2989Z" fill="#E6FAE3" stroke="#2F2B24" stroke-width="2" stroke-linejoin="bevel"/>
<path d="M45.8965 8.51465L58.3446 8.51465" stroke="#2F2B24" stroke-width="2" stroke-linejoin="bevel"/>
<path d="M70.7959 51.2988L83.244 51.2988" stroke="#2F2B24" stroke-width="2" stroke-linejoin="bevel"/>
<path d="M45.9629 94.1455L58.4127 94.1455" stroke="#2F2B24" stroke-width="2" stroke-linejoin="bevel"/>
<path d="M46.2934 44.9231C46.8844 43.8967 46.8844 42.2484 46.2934 41.222C45.7025 40.1956 44.7384 40.1956 44.163 41.222C43.5876 42.2484 43.572 43.8967 44.163 44.9231C44.7539 45.9495 45.7181 45.9495 46.2934 44.9231Z" fill="#2F2B23"/>
<path d="M42.0171 52.325C42.608 51.2986 42.608 49.6502 42.0171 48.6239C41.4261 47.5975 40.462 47.5975 39.8866 48.6239C39.3112 49.6502 39.2957 51.2986 39.8866 52.325C40.4775 53.3513 41.4417 53.3513 42.0171 52.325Z" fill="#2F2B23"/>
<path d="M43.3857 58.3901L44.2255 58.4834C44.2255 58.4834 44.241 58.4834 44.2566 58.4834C44.2721 58.4834 44.3032 58.4834 44.3499 58.4834C44.4276 58.4834 44.521 58.4834 44.6454 58.4834C44.8942 58.4523 45.2207 58.3901 45.6095 58.2501C46.3715 57.9391 47.3823 57.2549 48.2687 55.7309C49.1551 54.2069 49.5439 52.4652 49.7305 51.1434C49.8238 50.4747 49.8549 49.8993 49.8704 49.4795C49.8704 49.2617 49.8704 49.0907 49.8704 48.9663C49.8704 48.9041 49.8704 48.8574 49.8704 48.8108C49.8704 48.7952 49.8704 48.7797 49.8704 48.7641C49.8704 48.7641 49.8704 48.7641 49.8704 48.7486L49.8082 47.3023" stroke="#2F2B23" stroke-width="2" stroke-linejoin="round"/>
<path d="M34 52.9739C34 52.5171 34.0338 52.0603 34.1184 51.6204C34.1861 51.2313 34.3384 50.7744 34.6937 50.0638C35.049 49.3363 35.5397 48.4734 36.2672 47.2214L43.3733 34.921C44.1008 33.669 44.5915 32.8061 45.0145 32.197C45.4205 31.5879 45.6912 31.3341 45.9112 31.2157C46.4188 30.9281 46.9771 30.9281 47.4847 31.2157C47.7046 31.3341 47.9754 31.6048 48.3814 32.197C48.8044 32.8061 49.2951 33.669 50.0226 34.921L54.5908 42.8393C55.3183 44.0913 55.809 44.9542 56.1643 45.6817C56.5196 46.3923 56.655 46.8492 56.7396 47.2383C56.8242 47.6782 56.858 48.135 56.858 48.5918C56.858 49.0487 56.8242 49.5055 56.7396 49.9454C56.6719 50.3345 56.5196 50.7914 56.1643 51.502C55.809 52.2295 55.3183 53.0924 54.5908 54.3444L51.0378 60.503L50.784 60.9599L50.7501 61.5859L50.141 71.0269L48.2968 67.8291L47.5524 66.5432L46.8079 67.8291C45.9789 69.2672 45.6912 69.741 45.4375 69.9948C44.6592 70.7731 43.6779 70.7731 42.8996 69.9948C42.6458 69.741 42.3581 69.2672 41.5291 67.8291L36.2841 58.7434C35.5566 57.4914 35.0659 56.6285 34.7106 55.901C34.3553 55.1904 34.22 54.7336 34.1354 54.3444C34.0508 53.9045 34.0169 53.4477 34.0169 52.9909" stroke="#2F2B24" stroke-width="2" stroke-linecap="round" stroke-linejoin="round"/>
<defs>
<filter id="filter0_f_1128_1073" x="27.3335" y="7.67819" width="58.9864" height="87.3687" filterUnits="userSpaceOnUse" color-interpolation-filters="sRGB">
<feFlood flood-opacity="0" result="BackgroundImageFix"/>
<feBlend mode="normal" in="SourceGraphic" in2="BackgroundImageFix" result="shape"/>
<feGaussianBlur stdDeviation="5.06667" result="effect1_foregroundBlur_1128_1073"/>
</filter>
</defs>
</svg>
