<svg width="24" height="24" viewBox="0 0 24 24" fill="none" xmlns="http://www.w3.org/2000/svg">
<path opacity="0.12" d="M7.35777 9.67889L11.6422 11.8211C11.7734 11.8867 11.839 11.9195 11.9078 11.9324C11.9687 11.9438 12.0313 11.9438 12.0922 11.9324C12.161 11.9195 12.2266 11.8867 12.3578 11.8211L16.6422 9.67889C16.7734 9.6133 16.839 9.5805 16.9078 9.5676C16.9687 9.55616 17.0313 9.55616 17.0922 9.5676C17.161 9.5805 17.2266 9.6133 17.3578 9.67889L22 12L17 14.5L22 17L12.3578 21.8211C12.2266 21.8867 12.161 21.9195 12.0922 21.9324C12.0313 21.9438 11.9687 21.9438 11.9078 21.9324C11.839 21.9195 11.7734 21.8867 11.6422 21.8211L2 17L7 14.5L2 12L6.64223 9.67889C6.77341 9.6133 6.839 9.5805 6.9078 9.5676C6.96874 9.55616 7.03126 9.55616 7.0922 9.5676C7.161 9.5805 7.2266 9.6133 7.35777 9.67889Z" fill="#2F2B23"/>
<path d="M7 9.5L2 12L12 17L22 12L17 9.5M7 14.5L2 17L12 22L22 17L17 14.5M12 2L2 7L12 12L22 7L12 2Z" stroke="#2F2B23" stroke-width="1.75" stroke-linecap="round" stroke-linejoin="round"/>
</svg>
