<svg width="24" height="24" viewBox="0 0 24 24" fill="none" xmlns="http://www.w3.org/2000/svg">
<path opacity="0.12" d="M7.13725 4.44325C9.69948 3.57578 11.6376 2 12 2V22C12 22 4 18 4 12V8.2C4 7.10806 4 6.56209 4.13775 6.21041C4.29178 5.81714 4.38884 5.6818 4.71194 5.40979C5.00088 5.16654 5.71301 4.92544 7.13725 4.44325Z" fill="#2F2B23"/>
<path d="M12 2.5V21.5M12 22C12 22 20 18 20 12V8.2C20 7.10806 20 6.56209 19.8623 6.21041C19.7082 5.81714 19.6112 5.6818 19.2881 5.40979C18.9991 5.16654 18.287 4.92544 16.8628 4.44325C14.3005 3.57578 12.3624 2 12 2C11.6376 2 9.69948 3.57578 7.13725 4.44325C5.71301 4.92544 5.00088 5.16654 4.71194 5.40979C4.38884 5.6818 4.29178 5.81714 4.13775 6.21041C4 6.56209 4 7.10806 4 8.2V12C4 18 12 22 12 22Z" stroke="#2F2B23" stroke-width="1.75" stroke-linecap="square"/>
</svg>
