<svg width="103" height="103" viewBox="0 0 103 103" fill="none" xmlns="http://www.w3.org/2000/svg">
<path d="M69.7959 51.1241L44.898 8L20.0001 51.1241L44.898 94.25L69.7959 51.1241Z" fill="#E6FAE3" stroke="#2F2B24" stroke-width="2" stroke-linejoin="bevel"/>
<g filter="url(#filter0_f_1080_556)">
<path d="M65.8438 51.1865L46.484 17.6365L27.1242 51.1865L46.484 84.7388L65.8438 51.1865Z" fill="#00B261"/>
</g>
<path d="M82.3105 51.1241L57.4126 8L32.5147 51.1241L57.4126 94.25L82.3105 51.1241Z" fill="#E6FAE3" stroke="#2F2B24" stroke-width="2" stroke-linejoin="bevel"/>
<path d="M57.4141 8.33994L44.966 8.33994" stroke="#2F2B24" stroke-width="2" stroke-linejoin="bevel"/>
<path d="M32.5146 51.1241L20.0666 51.1241" stroke="#2F2B24" stroke-width="2" stroke-linejoin="bevel"/>
<path d="M57.3477 93.9706L44.8978 93.9706" stroke="#2F2B24" stroke-width="2" stroke-linejoin="bevel"/>
<path d="M57.6955 65.0251L49.3079 50.4852C48.8548 49.6998 48.9052 48.3203 49.4388 47.4141L55.581 36.7509C56.1046 35.8446 56.9001 35.7439 57.3532 36.5293L65.7509 51.0692C66.204 51.8546 66.1536 53.2341 65.62 54.1403L59.4677 64.7935C58.9441 65.6997 58.1487 65.8004 57.6955 65.015V65.0251Z" stroke="#2F2B23" stroke-width="2" stroke-linecap="round" stroke-linejoin="round"/>
<path d="M55.0274 37.7277L56.5076 52.4992L65.0664 55.1172" stroke="#2F2B23" stroke-width="2" stroke-linecap="round" stroke-linejoin="round"/>
<defs>
<filter id="filter0_f_1080_556" x="16.9907" y="7.5032" width="58.9864" height="87.3689" filterUnits="userSpaceOnUse" color-interpolation-filters="sRGB">
<feFlood flood-opacity="0" result="BackgroundImageFix"/>
<feBlend mode="normal" in="SourceGraphic" in2="BackgroundImageFix" result="shape"/>
<feGaussianBlur stdDeviation="5.06667" result="effect1_foregroundBlur_1080_556"/>
</filter>
</defs>
</svg>
