<svg width="24" height="24" viewBox="0 0 24 24" fill="none" xmlns="http://www.w3.org/2000/svg">
<path opacity="0.12" d="M10 12C12.4853 12 14.5 9.98528 14.5 7.5C14.5 5.01472 12.4853 3 10 3C7.51472 3 5.5 5.01472 5.5 7.5C5.5 9.98528 7.51472 12 10 12Z" fill="#2F2B23"/>
<path d="M16 18L18 20L22 16M12 15.5H6.8C5.11984 15.5 4.27976 15.5 3.63803 15.827C3.07354 16.1146 2.6146 16.5735 2.32698 17.138C2 17.7798 2 18.6198 2 20.3V21M14.5 7.5C14.5 9.98528 12.4853 12 10 12C7.51472 12 5.5 9.98528 5.5 7.5C5.5 5.01472 7.51472 3 10 3C12.4853 3 14.5 5.01472 14.5 7.5Z" stroke="#2F2B23" stroke-width="1.75" stroke-linecap="square"/>
</svg>
