<svg width="24" height="24" viewBox="0 0 24 24" fill="none" xmlns="http://www.w3.org/2000/svg">
<path opacity="0.12" d="M3 7.8C3 6.11984 3 5.27976 3.32698 4.63803C3.6146 4.07354 4.07354 3.6146 4.63803 3.32698C5.27976 3 6.11984 3 7.8 3H16.2C17.8802 3 18.7202 3 19.362 3.32698C19.9265 3.6146 20.3854 4.07354 20.673 4.63803C21 5.27976 21 6.11984 21 7.8V13.5C21 14.8978 21 15.5967 20.7716 16.1481C20.4672 16.8831 19.8831 17.4672 19.1481 17.7716C18.5967 18 17.8978 18 16.5 18C16.0114 18 15.7671 18 15.5405 18.0535C15.2383 18.1248 14.9569 18.2656 14.7185 18.4645C14.5397 18.6137 14.3931 18.8091 14.1 19.2L12.64 21.1467C12.4229 21.4362 12.3143 21.5809 12.1812 21.6327C12.0647 21.678 11.9353 21.678 11.8188 21.6327C11.6857 21.5809 11.5771 21.4362 11.36 21.1467L9.9 19.2C9.60685 18.8091 9.46028 18.6137 9.2815 18.4645C9.04312 18.2656 8.76169 18.1248 8.45951 18.0535C8.23287 18 7.98858 18 7.5 18C6.10218 18 5.40326 18 4.85195 17.7716C4.11687 17.4672 3.53284 16.8831 3.22836 16.1481C3 15.5967 3 14.8978 3 13.5V7.8Z" fill="#2F2B23"/>
<path d="M12 22L11.3 22.525C11.4652 22.7453 11.7246 22.875 12 22.875C12.2754 22.875 12.5348 22.7453 12.7 22.525L12 22ZM15 18V17.125H14.5625L14.3 17.475L15 18ZM9 18L9.7 17.475L9.4375 17.125H9V18ZM20.673 16.362L21.4527 16.7592L20.673 16.362ZM19.362 17.673L19.7592 18.4527L19.362 17.673ZM19.362 3.32698L19.7592 2.54735V2.54735L19.362 3.32698ZM20.673 4.63803L21.4527 4.24079L20.673 4.63803ZM3.32698 16.362L2.54735 16.7592H2.54735L3.32698 16.362ZM4.63803 17.673L4.24079 18.4527L4.63803 17.673ZM4.63803 3.32698L4.24079 2.54735V2.54735L4.63803 3.32698ZM3.32698 4.63803L2.54735 4.24079H2.54735L3.32698 4.63803ZM7.5 9.625H6.625V11.375H7.5V9.625ZM7.51 11.375H8.385V9.625H7.51V11.375ZM12 9.625H11.125V11.375H12V9.625ZM12.01 11.375H12.885V9.625H12.01V11.375ZM16.5 9.625H15.625V11.375H16.5V9.625ZM16.51 11.375H17.385V9.625H16.51V11.375ZM7.8 3.875H16.2V2.125H7.8V3.875ZM20.125 7.8V13.2H21.875V7.8H20.125ZM16.2 17.125H15V18.875H16.2V17.125ZM14.3 17.475L11.3 21.475L12.7 22.525L15.7 18.525L14.3 17.475ZM3.875 13.2V7.8H2.125V13.2H3.875ZM12.7 21.475L9.7 17.475L8.3 18.525L11.3 22.525L12.7 21.475ZM9 17.125H7.8V18.875H9V17.125ZM20.125 13.2C20.125 14.0545 20.1243 14.6428 20.087 15.0991C20.0506 15.5453 19.9836 15.7878 19.8934 15.9647L21.4527 16.7592C21.6895 16.2944 21.7859 15.796 21.8312 15.2416C21.8757 14.6975 21.875 14.0256 21.875 13.2H20.125ZM16.2 18.875C17.0256 18.875 17.6975 18.8757 18.2416 18.8312C18.796 18.7859 19.2944 18.6895 19.7592 18.4527L18.9647 16.8934C18.7878 16.9836 18.5453 17.0506 18.0991 17.087C17.6428 17.1243 17.0545 17.125 16.2 17.125V18.875ZM19.8934 15.9647C19.6897 16.3646 19.3646 16.6897 18.9647 16.8934L19.7592 18.4527C20.4883 18.0811 21.0811 17.4883 21.4527 16.7592L19.8934 15.9647ZM16.2 3.875C17.0545 3.875 17.6428 3.87568 18.0991 3.91297C18.5453 3.94942 18.7878 4.01645 18.9647 4.10661L19.7592 2.54735C19.2944 2.31053 18.796 2.21407 18.2416 2.16878C17.6975 2.12432 17.0256 2.125 16.2 2.125V3.875ZM21.875 7.8C21.875 6.97436 21.8757 6.30251 21.8312 5.75835C21.7859 5.20399 21.6895 4.70556 21.4527 4.24079L19.8934 5.03527C19.9836 5.21223 20.0506 5.45471 20.087 5.90086C20.1243 6.35722 20.125 6.94548 20.125 7.8H21.875ZM18.9647 4.10661C19.3646 4.31034 19.6897 4.63543 19.8934 5.03527L21.4527 4.24079C21.0811 3.51166 20.4883 2.91886 19.7592 2.54735L18.9647 4.10661ZM2.125 13.2C2.125 14.0256 2.12432 14.6975 2.16878 15.2416C2.21407 15.796 2.31053 16.2944 2.54735 16.7592L4.10661 15.9647C4.01645 15.7878 3.94942 15.5453 3.91297 15.0991C3.87568 14.6428 3.875 14.0545 3.875 13.2H2.125ZM7.8 17.125C6.94548 17.125 6.35722 17.1243 5.90086 17.087C5.45471 17.0506 5.21223 16.9836 5.03527 16.8934L4.24079 18.4527C4.70556 18.6895 5.20399 18.7859 5.75835 18.8312C6.30251 18.8757 6.97436 18.875 7.8 18.875V17.125ZM2.54735 16.7592C2.91886 17.4883 3.51166 18.0811 4.24079 18.4527L5.03527 16.8934C4.63543 16.6897 4.31034 16.3646 4.10661 15.9647L2.54735 16.7592ZM7.8 2.125C6.97436 2.125 6.30251 2.12432 5.75835 2.16878C5.20399 2.21407 4.70556 2.31053 4.24079 2.54735L5.03527 4.10661C5.21223 4.01645 5.45471 3.94942 5.90086 3.91297C6.35722 3.87568 6.94548 3.875 7.8 3.875V2.125ZM3.875 7.8C3.875 6.94548 3.87568 6.35722 3.91297 5.90086C3.94942 5.45471 4.01645 5.21223 4.10661 5.03527L2.54735 4.24079C2.31053 4.70556 2.21407 5.20399 2.16878 5.75835C2.12432 6.30251 2.125 6.97436 2.125 7.8H3.875ZM4.24079 2.54735C3.51166 2.91886 2.91886 3.51166 2.54735 4.24079L4.10661 5.03527C4.31034 4.63543 4.63543 4.31034 5.03527 4.10661L4.24079 2.54735ZM7.5 11.375H7.51V9.625H7.5V11.375ZM7.125 10.5C7.125 10.2929 7.29289 10.125 7.5 10.125V11.875C8.25939 11.875 8.875 11.2594 8.875 10.5H7.125ZM7.5 10.125C7.70711 10.125 7.875 10.2929 7.875 10.5H6.125C6.125 11.2594 6.74061 11.875 7.5 11.875V10.125ZM7.875 10.5C7.875 10.7071 7.70711 10.875 7.5 10.875V9.125C6.74061 9.125 6.125 9.74061 6.125 10.5H7.875ZM7.5 10.875C7.29289 10.875 7.125 10.7071 7.125 10.5H8.875C8.875 9.74061 8.25939 9.125 7.5 9.125V10.875ZM12 11.375H12.01V9.625H12V11.375ZM11.625 10.5C11.625 10.2929 11.7929 10.125 12 10.125V11.875C12.7594 11.875 13.375 11.2594 13.375 10.5H11.625ZM12 10.125C12.2071 10.125 12.375 10.2929 12.375 10.5H10.625C10.625 11.2594 11.2406 11.875 12 11.875V10.125ZM12.375 10.5C12.375 10.7071 12.2071 10.875 12 10.875V9.125C11.2406 9.125 10.625 9.74061 10.625 10.5H12.375ZM12 10.875C11.7929 10.875 11.625 10.7071 11.625 10.5H13.375C13.375 9.74061 12.7594 9.125 12 9.125V10.875ZM16.5 11.375H16.51V9.625H16.5V11.375ZM16.125 10.5C16.125 10.2929 16.2929 10.125 16.5 10.125V11.875C17.2594 11.875 17.875 11.2594 17.875 10.5H16.125ZM16.5 10.125C16.7071 10.125 16.875 10.2929 16.875 10.5H15.125C15.125 11.2594 15.7406 11.875 16.5 11.875V10.125ZM16.875 10.5C16.875 10.7071 16.7071 10.875 16.5 10.875V9.125C15.7406 9.125 15.125 9.74061 15.125 10.5H16.875ZM16.5 10.875C16.2929 10.875 16.125 10.7071 16.125 10.5H17.875C17.875 9.74061 17.2594 9.125 16.5 9.125V10.875Z" fill="#2F2B23"/>
</svg>
