<svg width="164" height="164" viewBox="0 0 164 164" fill="none" xmlns="http://www.w3.org/2000/svg">
<g clip-path="url(#clip0_1128_930)">
<path d="M95.317 47.2414L154.639 119.205L62.6558 134.598L3.33063 62.6334L95.317 47.2414Z" fill="#E6FAE3" stroke="#2F2B24" stroke-width="2" stroke-linejoin="bevel"/>
<g filter="url(#filter0_f_1128_930)">
<path d="M92.5447 54.3246L138.761 110.139L67.2633 121.943L21.0432 66.1267L92.5447 54.3246Z" fill="#00B261"/>
</g>
<path d="M103.526 25.2865L162.848 97.2502L70.8648 112.643L11.5396 40.6785L103.526 25.2865Z" fill="#E6FAE3" stroke="#2F2B24" stroke-width="2" stroke-linejoin="bevel"/>
<path d="M162.249 97.0242L154.084 118.862" stroke="#2F2B24" stroke-width="2" stroke-linejoin="bevel"/>
<path d="M70.8652 112.643L62.7005 134.481" stroke="#2F2B24" stroke-width="2" stroke-linejoin="bevel"/>
<path d="M11.9834 40.9751L3.81752 62.8158" stroke="#2F2B24" stroke-width="2" stroke-linejoin="bevel"/>
<path d="M113.786 68.6901L113.784 68.6877L104.652 57.6494C104.652 57.6489 104.651 57.6483 104.651 57.6478C103.216 55.9019 102.195 54.6826 101.293 53.7329C100.411 52.7881 99.7507 52.2411 99.1053 51.8622C98.4415 51.4586 97.7317 51.1336 97.0186 50.8669C96.3028 50.5993 95.551 50.3783 94.7822 50.2476L94.7585 50.2439C94.0585 50.1421 93.2308 50.0878 91.9126 50.2258C90.6085 50.3506 89.0379 50.6013 86.8088 50.9775C86.8084 50.9775 86.8081 50.9776 86.8077 50.9777L64.8449 54.6271L64.8424 54.6275C64.5671 54.674 64.3013 54.7186 64.0447 54.7616C62.2439 55.0639 60.8953 55.2902 59.8652 55.5504C58.7656 55.8217 58.0147 56.1113 57.5255 56.534C56.5624 57.343 56.1278 58.5055 56.3239 59.7479C56.4158 60.3878 56.7926 61.099 57.4444 62.0251C58.0511 62.8973 58.9204 63.9529 60.0812 65.3624C60.2466 65.5633 60.4179 65.7713 60.5953 65.987L60.5971 65.9892L71.0755 78.6624L71.0759 78.6629L71.1345 78.7337C72.7135 80.6412 73.3344 81.3912 74.0134 81.9387L74.0193 81.9434C74.9795 82.7058 76.126 83.3479 77.3376 83.8009C78.5492 84.2539 79.8357 84.5214 81.0605 84.576L81.0795 84.5767C81.9278 84.5984 82.9114 84.448 85.4342 84.0313L85.436 84.031L87.164 83.7422L88.2786 85.0938L88.2797 85.095L91.9686 89.5528C92.1746 89.8017 92.4881 89.9358 92.8103 89.9128C93.1325 89.8897 93.4238 89.7125 93.5923 89.4368L98.1169 82.034L98.1169 82.0341L98.1223 82.0251L98.1828 81.9238L98.5245 81.8729L98.5405 81.8704L109.536 80.0501L109.539 80.0496C109.814 80.0032 110.08 79.9586 110.336 79.9155C112.137 79.6133 113.486 79.3869 114.516 79.1267C115.615 78.8554 116.366 78.5659 116.855 78.1433C117.819 77.3343 118.253 76.1717 118.057 74.9293C117.967 74.2975 117.624 73.6025 116.933 72.6467C116.326 71.7755 115.458 70.7213 114.3 69.3147C114.134 69.1138 113.963 68.9058 113.786 68.6901Z" stroke="#2F2B24" stroke-width="2" stroke-linejoin="round"/>
<path d="M91.649 62.8059C93.6419 62.4778 94.2163 60.9414 92.9183 59.4111C91.6202 57.8808 88.9942 56.8707 87.0013 57.1988C85.0084 57.527 84.434 59.0633 85.732 60.5936C87.0301 62.124 89.6561 63.134 91.649 62.8059Z" fill="#2F2B23"/>
<path d="M77.2672 65.1958C79.2601 64.8677 79.8345 63.3313 78.5364 61.801C77.2384 60.2706 74.6124 59.2606 72.6195 59.5887C70.6266 59.9169 70.0521 61.4532 71.3502 62.9835C72.6482 64.5139 75.2743 65.5239 77.2672 65.1958Z" fill="#2F2B23"/>
<path d="M78.9364 72.1747L81.2114 73.1383C81.2114 73.1383 81.2114 73.1383 81.2362 73.1476C81.2362 73.1476 81.286 73.1661 81.3108 73.1754C81.3606 73.194 81.46 73.2312 81.5594 73.2684C81.7583 73.3428 82.0318 73.445 82.3799 73.5751C83.0511 73.8261 83.9988 74.0957 85.1234 74.3467C87.3634 74.8735 90.3639 75.261 93.3283 74.7595C96.2928 74.258 97.9797 73.0811 98.9401 72.028C99.4204 71.5015 99.7144 71.0183 99.8875 70.6311C99.9616 70.4329 100.017 70.2842 100.063 70.1603C100.082 70.1107 100.101 70.0612 100.119 70.0116C100.119 70.0116 100.128 69.9868 100.138 69.962L100.489 68.5682" stroke="#2F2B23" stroke-width="2" stroke-linejoin="round"/>
</g>
<defs>
<filter id="filter0_f_1128_930" x="10.9096" y="44.1911" width="137.984" height="87.8851" filterUnits="userSpaceOnUse" color-interpolation-filters="sRGB">
<feFlood flood-opacity="0" result="BackgroundImageFix"/>
<feBlend mode="normal" in="SourceGraphic" in2="BackgroundImageFix" result="shape"/>
<feGaussianBlur stdDeviation="5.06667" result="effect1_foregroundBlur_1128_930"/>
</filter>
<clipPath id="clip0_1128_930">
<rect width="164" height="164" fill="white"/>
</clipPath>
</defs>
</svg>
