<svg width="164" height="164" viewBox="0 0 164 164" fill="none" xmlns="http://www.w3.org/2000/svg">
<g clip-path="url(#clip0_1128_998)">
<path d="M69.8617 49.2411L10.5396 121.205L102.523 136.598L161.848 64.6331L69.8617 49.2411Z" fill="#E6FAE3" stroke="#2F2B24" stroke-width="2" stroke-linejoin="bevel"/>
<g filter="url(#filter0_f_1128_998)">
<path d="M72.5354 56.0599L26.3769 112.028L97.9317 123.986L144.094 68.0158L72.5354 56.0599Z" fill="#00B261"/>
</g>
<path d="M61.6527 27.2865L2.33061 99.2502L94.3139 114.643L153.639 42.6785L61.6527 27.2865Z" fill="#E6FAE3" stroke="#2F2B24" stroke-width="2" stroke-linejoin="bevel"/>
<path d="M2.92676 99.0254L11.0915 120.863" stroke="#2F2B24" stroke-width="2" stroke-linejoin="bevel"/>
<path d="M94.3135 114.644L102.478 136.481" stroke="#2F2B24" stroke-width="2" stroke-linejoin="bevel"/>
<path d="M153.191 42.9766L161.357 64.8173" stroke="#2F2B24" stroke-width="2" stroke-linejoin="bevel"/>
<path d="M63 88L79.3401 68.5681M79.3401 68.5681C82.9256 64.2189 84.7123 62.1002 87.167 60.6183C89.3181 59.3305 91.8165 58.3964 94.2848 57.957C97.1096 57.465 99.8893 57.9301 105.449 58.8603L106.45 59.0233C109.229 59.4884 110.631 59.7165 111.337 60.3121C111.961 60.831 112.234 61.5617 112.104 62.3626C111.938 63.2842 111.054 64.3671 109.261 66.5418L95.4911 83.2414C93.6984 85.4161 92.7903 86.5078 91.5585 87.237C90.483 87.8809 89.2338 88.3479 87.9996 88.5676C86.5593 88.8106 85.1812 88.5737 82.4015 88.1086L77.066 87.2022C74.6308 86.7963 73.3971 86.586 72.0924 86.6171C70.9144 86.6277 69.6861 86.7915 68.4696 87.0583C67.0556 87.372 65.6651 87.8919 62.8368 88.9494L62.3183 89.1432L62.2037 88.8368C61.5957 87.2106 61.2961 86.4092 60.6753 85.7548C60.1693 85.1918 59.4512 84.7081 58.5945 84.3569C57.6319 83.9377 56.4069 83.751 53.9718 83.3451L48.6363 82.4387C45.8566 81.9736 44.4785 81.7367 43.7487 81.1499C43.1485 80.6222 42.8517 79.9003 42.9821 79.0994C43.1243 78.1866 44.0325 77.0949 45.8252 74.9202L59.5861 58.197C61.3788 56.0224 62.2634 54.9394 63.5187 54.2015C64.5943 53.5575 65.8434 53.0905 67.0776 52.8708C68.4944 52.6366 69.896 52.8648 72.6757 53.3298L73.6768 53.4928C79.2362 54.423 82.0158 54.8881 83.4607 56.094C84.7172 57.1555 85.2547 58.5932 84.994 60.195C84.7183 62.0442 82.9256 64.2189 79.3401 68.5681Z" stroke="#2F2B23" stroke-width="2" stroke-linecap="square" stroke-linejoin="bevel"/>
</g>
<defs>
<filter id="filter0_f_1128_998" x="16.2436" y="45.9267" width="137.984" height="88.1924" filterUnits="userSpaceOnUse" color-interpolation-filters="sRGB">
<feFlood flood-opacity="0" result="BackgroundImageFix"/>
<feBlend mode="normal" in="SourceGraphic" in2="BackgroundImageFix" result="shape"/>
<feGaussianBlur stdDeviation="5.06667" result="effect1_foregroundBlur_1128_998"/>
</filter>
<clipPath id="clip0_1128_998">
<rect width="164" height="164" fill="white"/>
</clipPath>
</defs>
</svg>
