<svg width="128" height="128" viewBox="0 0 128 128" fill="none" xmlns="http://www.w3.org/2000/svg">
<g clip-path="url(#clip0_1128_1089)">
<path d="M88.4225 46.1948L96.6292 120.379L28.2806 90.3944L20.0722 16.2084L88.4225 46.1948Z" fill="#E6FAE3" stroke="#2F2B24" stroke-width="2" stroke-linejoin="bevel"/>
<g filter="url(#filter0_f_1128_1089)">
<path d="M83.6912 49.6532L90.0885 107.358L36.9269 84.0214L30.5274 26.3138L83.6912 49.6532Z" fill="#00B261"/>
</g>
<path d="M103.538 35.0864L111.744 109.27L43.3958 79.286L35.1875 5.10002L103.538 35.0864Z" fill="#E6FAE3" stroke="#2F2B24" stroke-width="2" stroke-linejoin="bevel"/>
<path d="M111.444 108.859L96.4099 119.908" stroke="#2F2B24" stroke-width="2" stroke-linejoin="bevel"/>
<path d="M43.3955 79.2861L28.3611 90.3353" stroke="#2F2B24" stroke-width="2" stroke-linejoin="bevel"/>
<path d="M35.3564 5.49561L20.3199 16.5463" stroke="#2F2B24" stroke-width="2" stroke-linejoin="bevel"/>
<path d="M87.8143 45.2038C86.6576 44.5978 85.2098 43.952 83.144 43.0525C83.1435 43.0523 83.143 43.0521 83.1425 43.0519L62.8178 34.1408L62.8155 34.1398C62.5603 34.0287 62.3141 33.9212 62.0764 33.8174C60.4082 33.0893 59.1586 32.5439 58.1564 32.2003C57.0901 31.8281 56.3046 31.661 55.6648 31.7477C54.4186 31.899 53.4199 32.6328 52.9033 33.777C52.6294 34.3617 52.5543 35.1613 52.591 36.2901C52.6195 37.3492 52.7668 38.7046 52.9634 40.514C52.9914 40.7719 53.0204 41.0389 53.0503 41.3157L53.0506 41.3185L54.8529 57.6103L54.853 57.6109L54.8632 57.7029C55.136 60.1551 55.2434 61.1203 55.5103 61.948L55.5126 61.9551C55.8965 63.1155 56.5018 64.2768 57.2651 65.3155C58.0284 66.3543 58.956 67.2789 59.9486 67.9918L59.9642 68.0028C60.6608 68.4832 61.5644 68.8935 63.8975 69.919L63.8992 69.9197L65.4957 70.6179L65.6851 72.3501L65.6853 72.3518L66.3219 78.0841C66.3576 78.4056 66.5466 78.6899 66.8291 78.8473C67.1116 79.0047 67.4528 79.0158 67.7449 78.877L75.5747 75.1573L75.5748 75.1573L75.5841 75.1528L75.6901 75.101L76.0022 75.2442L76.017 75.2508L86.1883 79.7175L86.1912 79.7187C86.4465 79.8299 86.6927 79.9374 86.9305 80.0412C88.5985 80.7692 89.8479 81.3146 90.8501 81.6582C91.9164 82.0304 92.702 82.1976 93.3418 82.1108C94.5881 81.9596 95.5867 81.2257 96.1033 80.0815C96.3773 79.4968 96.4524 78.6972 96.4157 77.5682C96.3871 76.5092 96.2399 75.1539 96.0433 73.3447C96.0152 73.0868 95.9862 72.8197 95.9564 72.5429L95.9561 72.5398L94.382 58.347C94.382 58.3466 94.382 58.3462 94.3819 58.3458C94.1405 56.1054 93.9567 54.5307 93.7239 53.2457C93.5056 51.9762 93.254 51.1591 92.9226 50.4904C92.5896 49.7913 92.1751 49.133 91.7259 48.5217C91.275 47.9081 90.7684 47.3137 90.1981 46.7856L90.1803 46.7694C89.6514 46.3028 88.9901 45.8065 87.8143 45.2038Z" stroke="#2F2B24" stroke-width="2" stroke-linejoin="round"/>
<path d="M60.4054 47.0995L76.7472 54.249" stroke="#2F2B23" stroke-width="2" stroke-miterlimit="10"/>
<path d="M61.421 56.2938L85.0281 66.6337" stroke="#2F2B23" stroke-width="2" stroke-miterlimit="10"/>
<path d="M60.5 61L59 46H61L62.5 61H60.5Z" fill="#E6FAE3"/>
<path d="M76.5 59L75 44H77L78.5 59H76.5Z" fill="#E6FAE3"/>
<path d="M84.5 71L83 56H85L86.5 71H84.5Z" fill="#E6FAE3"/>
</g>
<defs>
<filter id="filter0_f_1128_1089" x="20.394" y="16.1806" width="79.8282" height="101.311" filterUnits="userSpaceOnUse" color-interpolation-filters="sRGB">
<feFlood flood-opacity="0" result="BackgroundImageFix"/>
<feBlend mode="normal" in="SourceGraphic" in2="BackgroundImageFix" result="shape"/>
<feGaussianBlur stdDeviation="5.06667" result="effect1_foregroundBlur_1128_1089"/>
</filter>
<clipPath id="clip0_1128_1089">
<rect width="128" height="128" fill="white"/>
</clipPath>
</defs>
</svg>
