<svg width="32" height="33" viewBox="0 0 32 33" fill="none" xmlns="http://www.w3.org/2000/svg">
<path d="M21.3333 14.0745L22.0404 13.3674C21.6499 12.9769 21.0168 12.9769 20.6262 13.3674L21.3333 14.0745ZM5.95956 28.0341C5.56904 28.4246 5.56904 29.0578 5.95956 29.4483C6.35008 29.8388 6.98325 29.8388 7.37377 29.4483L5.95956 28.0341ZM27.2929 21.4483C27.6834 21.8388 28.3166 21.8388 28.7071 21.4483C29.0976 21.0578 29.0976 20.4246 28.7071 20.0341L27.2929 21.4483ZM5.45603 28.4506L5.91002 27.5596L5.45603 28.4506ZM4.29065 27.2852L5.18166 26.8312L4.29065 27.2852ZM27.7094 27.2852L26.8183 26.8312L27.7094 27.2852ZM26.544 28.4506L26.09 27.5596L26.544 28.4506ZM26.544 5.03186L26.09 5.92287L26.544 5.03186ZM27.7094 6.19724L26.8183 6.65123L27.7094 6.19724ZM5.45603 5.03186L5.91002 5.92287L5.45603 5.03186ZM4.29065 6.19724L5.18166 6.65123L4.29065 6.19724ZM20.6262 13.3674L5.95956 28.0341L7.37377 29.4483L22.0404 14.7817L20.6262 13.3674ZM28.7071 20.0341L22.0404 13.3674L20.6262 14.7817L27.2929 21.4483L28.7071 20.0341ZM8.26667 5.74121H23.7333V3.74121H8.26667V5.74121ZM27 9.00788V24.4745H29V9.00788H27ZM23.7333 27.7412H8.26667V29.7412H23.7333V27.7412ZM5 24.4745V9.00788H3V24.4745H5ZM8.26667 27.7412C7.50343 27.7412 6.99114 27.7404 6.59664 27.7082C6.21381 27.6769 6.03076 27.6211 5.91002 27.5596L5.00203 29.3416C5.45172 29.5707 5.92726 29.6602 6.43377 29.7016C6.92861 29.742 7.53643 29.7412 8.26667 29.7412V27.7412ZM3 24.4745C3 25.2048 2.99922 25.8126 3.03965 26.3074C3.08104 26.814 3.17052 27.2895 3.39964 27.7392L5.18166 26.8312C5.12013 26.7104 5.06429 26.5274 5.03301 26.1446C5.00078 25.7501 5 25.2378 5 24.4745H3ZM5.91002 27.5596C5.59641 27.3998 5.34144 27.1448 5.18166 26.8312L3.39964 27.7392C3.75118 28.4291 4.31211 28.99 5.00203 29.3416L5.91002 27.5596ZM27 24.4745C27 25.2378 26.9992 25.7501 26.967 26.1446C26.9357 26.5274 26.8799 26.7104 26.8183 26.8312L28.6004 27.7392C28.8295 27.2895 28.919 26.814 28.9603 26.3074C29.0008 25.8126 29 25.2048 29 24.4745H27ZM23.7333 29.7412C24.4636 29.7412 25.0714 29.742 25.5662 29.7016C26.0727 29.6602 26.5483 29.5707 26.998 29.3416L26.09 27.5596C25.9692 27.6211 25.7862 27.6769 25.4034 27.7082C25.0089 27.7404 24.4966 27.7412 23.7333 27.7412V29.7412ZM26.8183 26.8312C26.6586 27.1448 26.4036 27.3998 26.09 27.5596L26.998 29.3416C27.6879 28.99 28.2488 28.4291 28.6004 27.7392L26.8183 26.8312ZM23.7333 5.74121C24.4966 5.74121 25.0089 5.74199 25.4034 5.77422C25.7862 5.8055 25.9692 5.86134 26.09 5.92287L26.998 4.14085C26.5483 3.91173 26.0727 3.82225 25.5662 3.78086C25.0714 3.74043 24.4636 3.74121 23.7333 3.74121V5.74121ZM29 9.00788C29 8.27764 29.0008 7.66982 28.9603 7.17498C28.919 6.66847 28.8295 6.19293 28.6004 5.74325L26.8183 6.65123C26.8799 6.77197 26.9357 6.95502 26.967 7.33785C26.9992 7.73235 27 8.24464 27 9.00788H29ZM26.09 5.92287C26.4036 6.08266 26.6586 6.33762 26.8183 6.65123L28.6004 5.74325C28.2488 5.05332 27.6879 4.49239 26.998 4.14085L26.09 5.92287ZM8.26667 3.74121C7.53643 3.74121 6.92861 3.74043 6.43377 3.78086C5.92726 3.82225 5.45172 3.91173 5.00203 4.14085L5.91002 5.92287C6.03076 5.86134 6.21381 5.8055 6.59664 5.77422C6.99114 5.74199 7.50343 5.74121 8.26667 5.74121V3.74121ZM5 9.00788C5 8.24464 5.00078 7.73235 5.03301 7.33785C5.06429 6.95502 5.12013 6.77197 5.18166 6.65123L3.39964 5.74325C3.17052 6.19293 3.08104 6.66847 3.03965 7.17498C2.99922 7.66982 3 8.27764 3 9.00788H5ZM5.00203 4.14085C4.31211 4.49239 3.75118 5.05332 3.39964 5.74325L5.18166 6.65123C5.34144 6.33762 5.59641 6.08266 5.91002 5.92287L5.00203 4.14085ZM13 12.0745C13 12.995 12.2538 13.7412 11.3333 13.7412V15.7412C13.3584 15.7412 15 14.0996 15 12.0745H13ZM11.3333 13.7412C10.4129 13.7412 9.66667 12.995 9.66667 12.0745H7.66667C7.66667 14.0996 9.30829 15.7412 11.3333 15.7412V13.7412ZM9.66667 12.0745C9.66667 11.1541 10.4129 10.4079 11.3333 10.4079V8.40788C9.30829 8.40788 7.66667 10.0495 7.66667 12.0745H9.66667ZM11.3333 10.4079C12.2538 10.4079 13 11.1541 13 12.0745H15C15 10.0495 13.3584 8.40788 11.3333 8.40788V10.4079Z" fill="#262627"/>
</svg>
