<svg width="32" height="33" viewBox="0 0 32 33" fill="none" xmlns="http://www.w3.org/2000/svg">
<path d="M16 16.7412H16.0133M20.714 12.0269C26.9624 18.2753 29.9172 25.4511 27.3137 28.0546C24.7102 30.6581 17.5343 27.7034 11.2859 21.455C5.03752 15.2066 2.08275 8.0307 4.68624 5.42721C7.28974 2.82371 14.4656 5.77848 20.714 12.0269ZM20.714 21.4552C14.4657 27.7036 7.28979 30.6584 4.68629 28.0549C2.0828 25.4514 5.03757 18.2755 11.286 12.0271C17.5343 5.77872 24.7102 2.82395 27.3137 5.42745C29.9172 8.03094 26.9624 15.2068 20.714 21.4552ZM16.6667 16.7412C16.6667 17.1093 16.3682 17.4078 16 17.4078C15.6318 17.4078 15.3333 17.1093 15.3333 16.7412C15.3333 16.373 15.6318 16.0745 16 16.0745C16.3682 16.0745 16.6667 16.373 16.6667 16.7412Z" stroke="#2F2B23" stroke-width="2" stroke-linecap="square"/>
</svg>
