<svg width="24" height="24" viewBox="0 0 24 24" fill="none" xmlns="http://www.w3.org/2000/svg">
<g clip-path="url(#clip0_3_12324)">
<g opacity="0.12">
<path d="M5.57453 20.2986L4.54192 16.1681C4.35907 15.4367 4.26764 15.071 4.36105 14.7935C4.44281 14.5506 4.6147 14.3484 4.84124 14.2286C5.10006 14.0917 5.47571 14.123 6.22702 14.1856L8.53276 14.3777C9.0503 14.4209 9.30908 14.4424 9.50494 14.557C9.67741 14.658 9.81569 14.8082 9.90194 14.9885C9.99989 15.1932 9.99989 15.4529 9.99989 15.9722V19.7538C9.99989 19.9824 9.99989 20.0968 9.99055 20.1931C9.89822 21.145 9.14488 21.8983 8.19296 21.9907C8.09665 22 7.98233 22 7.75368 22C7.57108 22 7.47979 22 7.39841 21.9933C6.6034 21.9283 5.92305 21.3971 5.66715 20.6416C5.64096 20.5643 5.61882 20.4757 5.57453 20.2986Z" fill="#2F2B23"/>
<path d="M18.4999 13.5C20.4329 13.5 21.9999 11.933 21.9999 10C21.9999 8.067 20.4329 6.5 18.4999 6.5V13.5Z" fill="#2F2B23"/>
</g>
<path d="M4.84888 13.7878C4.73167 13.319 4.2566 13.0339 3.78778 13.1511C3.31896 13.2683 3.03392 13.7434 3.15113 14.2122L4.84888 13.7878ZM5.57465 20.2986L4.72577 20.5108H4.72577L5.57465 20.2986ZM10.875 14.5C10.875 14.0168 10.4833 13.625 10 13.625C9.51675 13.625 9.125 14.0168 9.125 14.5H10.875ZM8.19308 21.9907L8.10861 21.1197H8.1086L8.19308 21.9907ZM9.99066 20.1931L9.11975 20.1086L9.11975 20.1086L9.99066 20.1931ZM5.66727 20.6416L4.83852 20.9223L5.66727 20.6416ZM7.39852 21.9933L7.46985 21.1213H7.46985L7.39852 21.9933ZM18.5 12.625H17.625V14.375H18.5V12.625ZM18.5 5.625H17.625V7.375H18.5V5.625ZM18.5 18L17.9882 18.7097C18.2547 18.9018 18.6062 18.9286 18.8986 18.7789C19.191 18.6293 19.375 18.3285 19.375 18H18.5ZM18.5 2H19.375C19.375 1.67153 19.191 1.37073 18.8986 1.22108C18.6062 1.07144 18.2547 1.09815 17.9882 1.29027L18.5 2ZM2 10L2.875 10L2 10ZM3.15113 14.2122L4.72577 20.5108L6.42352 20.0864L4.84888 13.7878L3.15113 14.2122ZM10.875 19.7538V14.5H9.125V19.7538H10.875ZM7.75379 22.875C7.96194 22.875 8.12848 22.876 8.27755 22.8616L8.1086 21.1197C8.06505 21.124 8.00294 21.125 7.75379 21.125V22.875ZM9.125 19.7538C9.125 20.0029 9.12397 20.0651 9.11975 20.1086L10.8616 20.2775C10.876 20.1285 10.875 19.9619 10.875 19.7538H9.125ZM8.27754 22.8616C9.64593 22.7289 10.7289 21.6459 10.8616 20.2775L9.11975 20.1086C9.06781 20.6441 8.64406 21.0678 8.10861 21.1197L8.27754 22.8616ZM4.72577 20.5108C4.76617 20.6724 4.79806 20.8029 4.83852 20.9223L6.49602 20.3609C6.48409 20.3257 6.47169 20.279 6.42352 20.0864L4.72577 20.5108ZM7.75379 21.125C7.55518 21.125 7.50693 21.1243 7.46985 21.1213L7.32719 22.8654C7.45288 22.8757 7.58722 22.875 7.75379 22.875V21.125ZM4.83852 20.9223C5.20637 22.0084 6.18438 22.772 7.32719 22.8654L7.46985 21.1213C7.02266 21.0847 6.63996 20.7859 6.49602 20.3609L4.83852 20.9223ZM21.125 10C21.125 11.4497 19.9497 12.625 18.5 12.625V14.375C20.9162 14.375 22.875 12.4162 22.875 10H21.125ZM18.5 7.375C19.9497 7.375 21.125 8.55025 21.125 10H22.875C22.875 7.58375 20.9162 5.625 18.5 5.625V7.375ZM6.5 6.375H10.25V4.625H6.5V6.375ZM18.5 18C19.0118 17.2903 19.0116 17.2902 19.0115 17.2901C19.0114 17.29 19.0112 17.2899 19.0111 17.2898C19.0108 17.2896 19.0104 17.2893 19.01 17.289C19.0091 17.2883 19.0079 17.2875 19.0064 17.2864C19.0034 17.2843 18.9993 17.2813 18.994 17.2775C18.9834 17.27 18.9682 17.2592 18.9487 17.2454C18.9096 17.2179 18.8529 17.1783 18.7801 17.1283C18.6347 17.0285 18.425 16.8871 18.1632 16.7181C17.6405 16.3805 16.9064 15.9299 16.0608 15.4782C14.4128 14.5978 12.1828 13.625 10.25 13.625V15.375C11.7133 15.375 13.6083 16.1522 15.2363 17.0218C16.0287 17.4451 16.7203 17.8695 17.2138 18.1882C17.4602 18.3473 17.6561 18.4793 17.7895 18.5709C17.8561 18.6167 17.907 18.6522 17.9407 18.676C17.9575 18.6878 17.97 18.6967 17.978 18.7024C17.982 18.7053 17.9849 18.7073 17.9866 18.7085C17.9874 18.7092 17.988 18.7096 17.9883 18.7098C17.9884 18.7099 17.9885 18.7099 17.9885 18.7099C17.9885 18.7099 17.9884 18.7099 17.9884 18.7099C17.9883 18.7098 17.9882 18.7097 18.5 18ZM17.625 2V18H19.375V2H17.625ZM10.25 6.375C12.1828 6.375 14.4128 5.40215 16.0608 4.52178C16.9063 4.07011 17.6405 3.61948 18.1632 3.28193C18.425 3.11289 18.6347 2.97153 18.7801 2.87168C18.8529 2.82174 18.9096 2.78213 18.9487 2.75457C18.9682 2.74079 18.9834 2.73003 18.994 2.72248C18.9993 2.71871 19.0034 2.71574 19.0064 2.71361C19.0079 2.71254 19.0091 2.71168 19.01 2.71104C19.0104 2.71071 19.0108 2.71044 19.0111 2.71022C19.0112 2.71012 19.0114 2.70999 19.0115 2.70994C19.0116 2.70983 19.0118 2.70973 18.5 2C17.9882 1.29027 17.9883 1.2902 17.9884 1.29014C17.9884 1.29014 17.9885 1.2901 17.9885 1.29009C17.9885 1.29009 17.9884 1.29014 17.9883 1.29024C17.988 1.29044 17.9874 1.29085 17.9866 1.29146C17.9849 1.29269 17.982 1.29475 17.978 1.2976C17.97 1.3033 17.9575 1.31218 17.9407 1.32404C17.907 1.34776 17.8561 1.38334 17.7895 1.4291C17.6561 1.52065 17.4602 1.65273 17.2138 1.81182C16.7203 2.13052 16.0287 2.55489 15.2363 2.97822C13.6083 3.84785 11.7133 4.625 10.25 4.625V6.375ZM10.25 13.625H6.5V15.375H10.25V13.625ZM1.125 10C1.125 12.9685 3.53147 15.375 6.5 15.375V13.625C4.49797 13.625 2.875 12.002 2.875 10L1.125 10ZM6.5 4.625C3.53147 4.625 1.125 7.03147 1.125 10L2.875 10C2.875 7.99797 4.49797 6.375 6.5 6.375V4.625Z" fill="#2F2B23"/>
</g>
<defs>
<clipPath id="clip0_3_12324">
<rect width="24" height="24" fill="white"/>
</clipPath>
</defs>
</svg>
