<svg width="24" height="24" viewBox="0 0 24 24" fill="none" xmlns="http://www.w3.org/2000/svg">
<g clip-path="url(#clip0_3_14709)">
<path opacity="0.12" d="M5 7.8C5 6.11984 5 5.27976 5.32698 4.63803C5.6146 4.07354 6.07354 3.6146 6.63803 3.32698C7.27976 3 8.11984 3 9.8 3H14.2C15.8802 3 16.7202 3 17.362 3.32698C17.9265 3.6146 18.3854 4.07354 18.673 4.63803C19 5.27976 19 6.11984 19 7.8V21L12 17L5 21V7.8Z" fill="#2F2B23"/>
<path d="M9 10.5L11 12.5L15.5 8M19 21V7.8C19 6.11984 19 5.27976 18.673 4.63803C18.3854 4.07354 17.9265 3.6146 17.362 3.32698C16.7202 3 15.8802 3 14.2 3H9.8C8.11984 3 7.27976 3 6.63803 3.32698C6.07354 3.6146 5.6146 4.07354 5.32698 4.63803C5 5.27976 5 6.11984 5 7.8V21L11.2062 17.4536C11.4955 17.2883 11.6402 17.2056 11.7938 17.1732C11.9298 17.1446 12.0702 17.1446 12.2062 17.1732C12.3598 17.2056 12.5045 17.2883 12.7938 17.4536L19 21Z" stroke="#2F2B23" stroke-width="1.75" stroke-linecap="square"/>
</g>
<defs>
<clipPath id="clip0_3_14709">
<rect width="24" height="24" fill="white"/>
</clipPath>
</defs>
</svg>
