<svg width="24" height="24" viewBox="0 0 24 24" fill="none" xmlns="http://www.w3.org/2000/svg">
<g clip-path="url(#clip0_3_24661)">
<path opacity="0.12" d="M8 3.6C8 3.03995 8 2.75992 8.10899 2.54601C8.20487 2.35785 8.35785 2.20487 8.54601 2.10899C8.75992 2 9.03995 2 9.6 2H14.4C14.9601 2 15.2401 2 15.454 2.10899C15.6422 2.20487 15.7951 2.35785 15.891 2.54601C16 2.75992 16 3.03995 16 3.6V4.4C16 4.96005 16 5.24008 15.891 5.45399C15.7951 5.64215 15.6422 5.79513 15.454 5.89101C15.2401 6 14.9601 6 14.4 6H9.6C9.03995 6 8.75992 6 8.54601 5.89101C8.35785 5.79513 8.20487 5.64215 8.10899 5.45399C8 5.24008 8 4.96005 8 4.4V3.6Z" fill="#2F2B23"/>
<path d="M8 4H7.2C6.0799 4 5.51984 4 5.09202 4.21799C4.71569 4.40973 4.40973 4.71569 4.21799 5.09202C4 5.51984 4 6.0799 4 7.2V18.8C4 19.9201 4 20.4802 4.21799 20.908C4.40973 21.2843 4.71569 21.5903 5.09202 21.782C5.51984 22 6.0799 22 7.2 22H16.8C17.9201 22 18.4802 22 18.908 21.782C19.2843 21.5903 19.5903 21.2843 19.782 20.908C20 20.4802 20 19.9201 20 18.8V7.2C20 6.07989 20 5.51984 19.782 5.09202C19.5903 4.71569 19.2843 4.40973 18.908 4.21799C18.4802 4 17.9201 4 16.8 4H16M8 2H16V6H8V2Z" stroke="#2F2B23" stroke-width="1.75" stroke-linecap="square" stroke-linejoin="round"/>
</g>
<defs>
<clipPath id="clip0_3_24661">
<rect width="24" height="24" fill="white"/>
</clipPath>
</defs>
</svg>
