<svg width="24" height="24" viewBox="0 0 24 24" fill="none" xmlns="http://www.w3.org/2000/svg">
<g clip-path="url(#clip0_3_24190)">
<path opacity="0.12" d="M19.1213 7.12139L14.8787 2.87875C14.6222 2.62223 14.324 2.41696 14 2.26953V6.40007C14 6.96012 14 7.24015 14.109 7.45406C14.2049 7.64222 14.3578 7.7952 14.546 7.89108C14.7599 8.00007 15.0399 8.00007 15.6 8.00007H19.7305C19.5831 7.67611 19.3778 7.37792 19.1213 7.12139Z" fill="#2F2B23"/>
<path d="M14.875 2.26953C14.875 1.78628 14.4832 1.39453 14 1.39453C13.5168 1.39453 13.125 1.78628 13.125 2.26953H14.875ZM19.7305 8.87507C20.2138 8.87507 20.6055 8.48332 20.6055 8.00007C20.6055 7.51682 20.2138 7.12507 19.7305 7.12507V8.87507ZM14.109 7.45406L14.8886 7.05682V7.05682L14.109 7.45406ZM14.546 7.89108L14.9433 7.11145L14.546 7.89108ZM14 2L14.6187 1.38128C14.4546 1.21719 14.2321 1.125 14 1.125V2ZM20 8H20.875C20.875 7.76794 20.7828 7.54538 20.6187 7.38128L20 8ZM5.09202 21.782L5.48926 21.0024L5.09202 21.782ZM4.21799 20.908L4.99762 20.5107L4.21799 20.908ZM18.908 21.782L18.5107 21.0024L18.908 21.782ZM19.782 20.908L19.0024 20.5107L19.782 20.908ZM4.21799 3.09202L4.99762 3.48926L4.21799 3.09202ZM5.09202 2.21799L5.48926 2.99762L5.09202 2.21799ZM9.61872 15.3813L9 14.7626L7.76256 16L8.38128 16.6187L9.61872 15.3813ZM11 18L10.3813 18.6187L11 19.2374L11.6187 18.6187L11 18ZM16.1187 14.1187L16.7374 13.5L15.5 12.2626L14.8813 12.8813L16.1187 14.1187ZM13.125 2.26953V6.40007H14.875V2.26953H13.125ZM15.6 8.87507H19.7305V7.12507H15.6V8.87507ZM13.125 6.40007C13.125 6.66566 13.1243 6.91747 13.1415 7.12812C13.1596 7.34899 13.2015 7.60044 13.3294 7.8513L14.8886 7.05682C14.9075 7.09377 14.8949 7.09826 14.8857 6.98562C14.8757 6.86276 14.875 6.69454 14.875 6.40007H13.125ZM15.6 7.12507C15.3055 7.12507 15.1373 7.12439 15.0145 7.11435C14.9018 7.10515 14.9063 7.09262 14.9433 7.11145L14.1488 8.67071C14.3996 8.79853 14.6511 8.8405 14.8719 8.85854C15.0826 8.87575 15.3344 8.87507 15.6 8.87507V7.12507ZM13.3294 7.8513C13.5091 8.20411 13.796 8.49095 14.1488 8.67071L14.9433 7.11145C14.9197 7.09946 14.9006 7.08034 14.8886 7.05682L13.3294 7.8513ZM16.8 21.125H7.2V22.875H16.8V21.125ZM4.875 18.8V5.2H3.125V18.8H4.875ZM7.2 2.875H14V1.125H7.2V2.875ZM19.125 8V18.8H20.875V8H19.125ZM13.3813 2.61872L19.3813 8.61872L20.6187 7.38128L14.6187 1.38128L13.3813 2.61872ZM7.2 21.125C6.62551 21.125 6.24726 21.1243 5.95766 21.1007C5.67826 21.0778 5.55926 21.038 5.48926 21.0024L4.69478 22.5616C5.0526 22.744 5.42754 22.8132 5.81515 22.8448C6.19255 22.8757 6.65439 22.875 7.2 22.875V21.125ZM3.125 18.8C3.125 19.3456 3.12432 19.8074 3.15515 20.1848C3.18682 20.5725 3.25604 20.9474 3.43836 21.3052L4.99762 20.5107C4.96195 20.4407 4.92217 20.3217 4.89934 20.0423C4.87568 19.7527 4.875 19.3745 4.875 18.8H3.125ZM5.48926 21.0024C5.27758 20.8945 5.10547 20.7224 4.99762 20.5107L3.43836 21.3052C3.71399 21.8462 4.15381 22.286 4.69478 22.5616L5.48926 21.0024ZM16.8 22.875C17.3456 22.875 17.8074 22.8757 18.1848 22.8448C18.5725 22.8132 18.9474 22.744 19.3052 22.5616L18.5107 21.0024C18.4407 21.038 18.3217 21.0778 18.0423 21.1007C17.7527 21.1243 17.3745 21.125 16.8 21.125V22.875ZM19.125 18.8C19.125 19.3745 19.1243 19.7527 19.1007 20.0423C19.0778 20.3217 19.038 20.4407 19.0024 20.5107L20.5616 21.3052C20.744 20.9474 20.8132 20.5725 20.8448 20.1848C20.8757 19.8074 20.875 19.3456 20.875 18.8H19.125ZM19.3052 22.5616C19.8462 22.286 20.286 21.8462 20.5616 21.3052L19.0024 20.5107C18.8945 20.7224 18.7224 20.8945 18.5107 21.0024L19.3052 22.5616ZM4.875 5.2C4.875 4.62551 4.87568 4.24727 4.89934 3.95766C4.92217 3.67826 4.96195 3.55926 4.99762 3.48926L3.43836 2.69478C3.25604 3.0526 3.18682 3.42754 3.15515 3.81515C3.12432 4.19255 3.125 4.65439 3.125 5.2H4.875ZM7.2 1.125C6.65439 1.125 6.19255 1.12432 5.81515 1.15515C5.42754 1.18682 5.0526 1.25604 4.69478 1.43836L5.48926 2.99762C5.55926 2.96195 5.67826 2.92217 5.95766 2.89934C6.24726 2.87568 6.62551 2.875 7.2 2.875V1.125ZM4.99762 3.48926C5.10548 3.27758 5.27758 3.10548 5.48926 2.99762L4.69478 1.43836C4.15381 1.71399 3.71399 2.15381 3.43836 2.69478L4.99762 3.48926ZM8.38128 16.6187L10.3813 18.6187L11.6187 17.3813L9.61872 15.3813L8.38128 16.6187ZM11.6187 18.6187L16.1187 14.1187L14.8813 12.8813L10.3813 17.3813L11.6187 18.6187Z" fill="#2F2B23"/>
</g>
<defs>
<clipPath id="clip0_3_24190">
<rect width="24" height="24" fill="white"/>
</clipPath>
</defs>
</svg>
