<svg width="24" height="24" viewBox="0 0 24 24" fill="none" xmlns="http://www.w3.org/2000/svg">
<g clip-path="url(#clip0_3_19041)">
<path opacity="0.12" d="M14.9167 15.0147C16.1784 14.0617 17 13.0066 17 11.25C17 8.35051 14.7614 6 12 6C9.23858 6 7 8.35051 7 11.25C7 13.0066 7.82161 14.0617 9.08333 15.0147V17.4C9.08333 17.9601 9.08333 18.2401 9.19233 18.454C9.2882 18.6422 9.44118 18.7951 9.62934 18.891C9.84325 19 10.1233 19 10.6833 19H13.3167C13.8767 19 14.1567 19 14.3707 18.891C14.5588 18.7951 14.7118 18.6422 14.8077 18.454C14.9167 18.2401 14.9167 17.9601 14.9167 17.4V15.0147Z" fill="#2F2B23"/>
<path d="M14.9167 15.0147L14.3893 14.3165C14.1704 14.4819 14.0417 14.7403 14.0417 15.0147H14.9167ZM9.08333 15.0147H9.95833C9.95833 14.7403 9.82964 14.4819 9.61072 14.3165L9.08333 15.0147ZM14.3707 18.891L13.9734 18.1114L14.3707 18.891ZM14.8077 18.454L14.028 18.0567L14.8077 18.454ZM9.19233 18.454L9.97196 18.0567L9.19233 18.454ZM9.62934 18.891L10.0266 18.1114L9.62934 18.891ZM12.875 2V1.125H11.125V2H12.875ZM11.125 3V3.875H12.875V3H11.125ZM4 11.875H4.875V10.125H4V11.875ZM3 10.125H2.125V11.875H3V10.125ZM5.38128 5.61872L6 6.23744L7.23744 5L6.61872 4.38128L5.38128 5.61872ZM5.61872 3.38128L5 2.76256L3.76256 4L4.38128 4.61872L5.61872 3.38128ZM17.3813 4.38128L16.7626 5L18 6.23744L18.6187 5.61872L17.3813 4.38128ZM19.6187 4.61872L20.2374 4L19 2.76256L18.3813 3.38128L19.6187 4.61872ZM21 11.875H21.875V10.125H21V11.875ZM20 10.125H19.125V11.875H20V10.125ZM10 21.125H9.125V22.875H10V21.125ZM14 22.875H14.875V21.125H14V22.875ZM15.444 15.7129C16.1213 15.2014 16.7378 14.6205 17.1809 13.8854C17.6319 13.1371 17.875 12.2761 17.875 11.25H16.125C16.125 11.9805 15.9573 12.5253 15.6821 12.982C15.3989 13.4518 14.9738 13.875 14.3893 14.3165L15.444 15.7129ZM17.875 11.25C17.875 7.90798 15.2844 5.125 12 5.125V6.875C14.2384 6.875 16.125 8.79303 16.125 11.25H17.875ZM12 5.125C8.71559 5.125 6.125 7.90798 6.125 11.25H7.875C7.875 8.79303 9.76156 6.875 12 6.875V5.125ZM6.125 11.25C6.125 12.2761 6.36813 13.1371 6.81911 13.8854C7.26218 14.6205 7.87873 15.2014 8.55595 15.7129L9.61072 14.3165C9.02622 13.875 8.60109 13.4518 8.31793 12.982C8.04267 12.5253 7.875 11.9805 7.875 11.25H6.125ZM9.95833 17.4V15.0147H8.20833V17.4H9.95833ZM13.3167 18.125H10.6833V19.875H13.3167V18.125ZM14.0417 15.0147V17.4H15.7917V15.0147H14.0417ZM13.3167 19.875C13.5823 19.875 13.8341 19.8757 14.0447 19.8585C14.2656 19.8404 14.517 19.7985 14.7679 19.6706L13.9734 18.1114C14.0104 18.0925 14.0149 18.1051 13.9022 18.1143C13.7794 18.1243 13.6111 18.125 13.3167 18.125V19.875ZM14.0417 17.4C14.0417 17.6945 14.041 17.8627 14.0309 17.9855C14.0217 18.0982 14.0092 18.0937 14.028 18.0567L15.5873 18.8512C15.7151 18.6004 15.7571 18.3489 15.7751 18.128C15.7923 17.9174 15.7917 17.6656 15.7917 17.4H14.0417ZM14.7679 19.6706C15.1207 19.4909 15.4075 19.204 15.5873 18.8512L14.028 18.0567C14.0161 18.0803 13.9969 18.0994 13.9734 18.1114L14.7679 19.6706ZM8.20833 17.4C8.20833 17.6656 8.20765 17.9174 8.22486 18.1281C8.24291 18.3489 8.28487 18.6004 8.4127 18.8512L9.97196 18.0567C9.99079 18.0937 9.97825 18.0982 9.96905 17.9855C9.95901 17.8627 9.95833 17.6945 9.95833 17.4H8.20833ZM10.6833 18.125C10.3889 18.125 10.2206 18.1243 10.0978 18.1143C9.98515 18.1051 9.98963 18.0925 10.0266 18.1114L9.2321 19.6706C9.48297 19.7985 9.73442 19.8404 9.95528 19.8585C10.1659 19.8757 10.4177 19.875 10.6833 19.875V18.125ZM8.4127 18.8512C8.59246 19.204 8.8793 19.4909 9.2321 19.6706L10.0266 18.1114C10.0031 18.0994 9.98394 18.0803 9.97196 18.0567L8.4127 18.8512ZM11.125 2V3H12.875V2H11.125ZM4 10.125H3V11.875H4V10.125ZM6.61872 4.38128L5.61872 3.38128L4.38128 4.61872L5.38128 5.61872L6.61872 4.38128ZM18.6187 5.61872L19.6187 4.61872L18.3813 3.38128L17.3813 4.38128L18.6187 5.61872ZM21 10.125H20V11.875H21V10.125ZM10 22.875H14V21.125H10V22.875Z" fill="#2F2B23"/>
</g>
<defs>
<clipPath id="clip0_3_19041">
<rect width="24" height="24" fill="white"/>
</clipPath>
</defs>
</svg>
