<svg width="24" height="24" viewBox="0 0 24 24" fill="none" xmlns="http://www.w3.org/2000/svg">
<g clip-path="url(#clip0_3_28335)">
<path opacity="0.12" d="M10.256 13.3663L2 7.99988L10.256 2.63346C10.8873 2.22315 11.2029 2.01799 11.543 1.93817C11.8436 1.86761 12.1564 1.86761 12.457 1.93817C12.7971 2.01799 13.1127 2.22315 13.744 2.63346L22 7.99988L13.744 13.3663C13.1127 13.7766 12.7971 13.9818 12.457 14.0616C12.1564 14.1321 11.8436 14.1321 11.543 14.0616C11.2029 13.9818 10.8873 13.7766 10.256 13.3663Z" fill="#2F2B23"/>
<path d="M12 1.5L21.272 7.52679C21.538 7.69969 21.671 7.78614 21.7674 7.90146C21.8527 8.00354 21.9167 8.12161 21.9558 8.24876C22 8.39241 22 8.55104 22 8.8683V17.8C22 18.9201 22 19.4802 21.782 19.908C21.5903 20.2843 21.2843 20.5903 20.908 20.782C20.4802 21 19.9201 21 18.8 21H5.2C4.0799 21 3.51984 21 3.09202 20.782C2.71569 20.5903 2.40973 20.2843 2.21799 19.908C2 19.4802 2 18.9201 2 17.8V8.8683C2 8.55104 2 8.39241 2.04417 8.24876C2.08327 8.12161 2.14735 8.00354 2.23265 7.90146C2.32901 7.78614 2.46201 7.69969 2.72802 7.52679L12 1.5ZM12 1.5L2 8L12 14.5L22 8L12 1.5Z" stroke="#2F2B23" stroke-width="1.75" stroke-linecap="square" stroke-linejoin="round"/>
</g>
<defs>
<clipPath id="clip0_3_28335">
<rect width="24" height="24" fill="white"/>
</clipPath>
</defs>
</svg>
