<svg width="24" height="24" viewBox="0 0 24 24" fill="none" xmlns="http://www.w3.org/2000/svg">
<g clip-path="url(#clip0_3_16212)">
<path opacity="0.12" d="M13.1028 3.64624C13.4147 2.91854 13.5706 2.55469 13.8226 2.38941C14.0429 2.24488 14.3114 2.19317 14.5697 2.24552C14.8651 2.3054 15.145 2.58531 15.7048 3.14514L20.8479 8.28827C21.4078 8.8481 21.6877 9.12801 21.7475 9.42335C21.7999 9.68163 21.7482 9.95013 21.6037 10.1705C21.4384 10.4225 21.0745 10.5784 20.3468 10.8903L17.8525 11.9593C17.7467 12.0046 17.6937 12.0273 17.6441 12.0557C17.6001 12.0808 17.558 12.1093 17.5182 12.1409C17.4735 12.1764 17.4328 12.2171 17.3514 12.2985L15.7905 13.8594C15.6632 13.9868 15.5995 14.0504 15.5489 14.123C15.504 14.1873 15.4668 14.2568 15.4382 14.3298C15.4059 14.4122 15.3882 14.5005 15.3529 14.677L14.62 18.3415C14.4296 19.2938 14.3343 19.7699 14.0833 19.9927C13.8646 20.1868 13.5719 20.2754 13.2823 20.2352C12.9498 20.1891 12.6065 19.8458 11.9197 19.1591L4.834 12.0733C4.14728 11.3866 3.80392 11.0433 3.75783 10.7108C3.71768 10.4212 3.8063 10.1285 4.00036 9.90977C4.22313 9.65872 4.69928 9.56349 5.65158 9.37303L9.31605 8.64014C9.49261 8.60482 9.5809 8.58717 9.66322 8.55488C9.73629 8.52622 9.80573 8.48905 9.87011 8.44415C9.94264 8.39357 10.0063 8.3299 10.1336 8.20258L11.6945 6.64169C11.7759 6.56029 11.8166 6.51958 11.8522 6.47484C11.8837 6.4351 11.9122 6.393 11.9374 6.34893C11.9658 6.29932 11.9884 6.24641 12.0338 6.14059L13.1028 3.64624Z" fill="#2F2B23"/>
<path d="M8.3767 15.6162L2.71985 21.273M11.6944 6.64169L10.1335 8.20258C10.0062 8.3299 9.94252 8.39357 9.86999 8.44415C9.80561 8.48905 9.73616 8.52622 9.66309 8.55488C9.58077 8.58717 9.49249 8.60482 9.31592 8.64014L5.65145 9.37303C4.69915 9.56349 4.223 9.65872 4.00024 9.90977C3.80617 10.1285 3.71755 10.4212 3.75771 10.7108C3.8038 11.0433 4.14715 11.3866 4.83387 12.0733L11.9196 19.1591C12.6063 19.8458 12.9497 20.1891 13.2821 20.2352C13.5718 20.2754 13.8645 20.1868 14.0832 19.9927C14.3342 19.7699 14.4294 19.2938 14.6199 18.3415L15.3528 14.677C15.3881 14.5005 15.4058 14.4122 15.4381 14.3298C15.4667 14.2568 15.5039 14.1873 15.5488 14.123C15.5994 14.0504 15.663 13.9868 15.7904 13.8594L17.3512 12.2985C17.4326 12.2171 17.4734 12.1764 17.5181 12.1409C17.5578 12.1093 17.5999 12.0808 17.644 12.0557C17.6936 12.0273 17.7465 12.0046 17.8523 11.9593L20.3467 10.8903C21.0744 10.5784 21.4383 10.4225 21.6035 10.1705C21.7481 9.95013 21.7998 9.68163 21.7474 9.42335C21.6875 9.12801 21.4076 8.8481 20.8478 8.28827L15.7047 3.14514C15.1448 2.58531 14.8649 2.3054 14.5696 2.24552C14.3113 2.19317 14.0428 2.24488 13.8225 2.38941C13.5705 2.55469 13.4145 2.91854 13.1027 3.64624L12.0337 6.14059C11.9883 6.24641 11.9656 6.29932 11.9373 6.34893C11.9121 6.393 11.8836 6.4351 11.852 6.47484C11.8165 6.51958 11.7758 6.56029 11.6944 6.64169Z" stroke="#2F2B23" stroke-width="1.75" stroke-linecap="square"/>
</g>
<defs>
<clipPath id="clip0_3_16212">
<rect width="24" height="24" fill="white"/>
</clipPath>
</defs>
</svg>
