<svg width="24" height="24" viewBox="0 0 24 24" fill="none" xmlns="http://www.w3.org/2000/svg">
<g clip-path="url(#clip0_3_16687)">
<g opacity="0.12">
<path d="M19 2L16 5V8H19L22 5L20 4L19 2Z" fill="#2F2B23"/>
<path d="M12 17C14.7614 17 17 14.7614 17 12C17 9.23858 14.7614 7 12 7C9.23858 7 7 9.23858 7 12C7 14.7614 9.23858 17 12 17Z" fill="#2F2B23"/>
</g>
<path d="M22 12C22 17.5228 17.5228 22 12 22C6.47715 22 2 17.5228 2 12C2 6.47715 6.47715 2 12 2M17 12C17 14.7614 14.7614 17 12 17C9.23858 17 7 14.7614 7 12C7 9.23858 9.23858 7 12 7M16 8V5L19 2L19.7614 3.52297C19.8499 3.69997 19.8942 3.78846 19.9533 3.86515C20.0058 3.9332 20.0668 3.9942 20.1348 4.04666C20.2115 4.10577 20.3 4.15002 20.477 4.23851L22 5L19 8H16ZM16 8L12 11.9999" stroke="#2F2B23" stroke-width="1.75" stroke-linecap="square"/>
</g>
<defs>
<clipPath id="clip0_3_16687">
<rect width="24" height="24" fill="white"/>
</clipPath>
</defs>
</svg>
