<svg width="24" height="24" viewBox="0 0 24 24" fill="none" xmlns="http://www.w3.org/2000/svg">
<g clip-path="url(#clip0_3_12555)">
<path opacity="0.12" d="M2 13V20C2 21.1046 2.89543 22 4 22H7V11H4C2.89543 11 2 11.8954 2 13Z" fill="#2F2B23"/>
<path d="M7 22V11M2 12.6V20.4C2 20.9601 2 21.2401 2.10899 21.454C2.20487 21.6422 2.35785 21.7951 2.54601 21.891C2.75992 22 3.03995 22 3.6 22H15.882C17.3435 22 18.0742 22 18.6644 21.7326C19.1846 21.4969 19.6267 21.1176 19.9388 20.6393C20.2928 20.0966 20.4039 19.3744 20.6262 17.9299L21.1493 14.5299C21.4424 12.6247 21.5889 11.6721 21.3062 10.9309C21.0581 10.2803 20.5914 9.73631 19.9861 9.39213C19.2965 9 18.3327 9 16.4051 9H15.6C15.0399 9 14.7599 9 14.546 8.89101C14.3578 8.79513 14.2049 8.64215 14.109 8.45399C14 8.24008 14 7.96005 14 7.4V4.46584C14 3.10399 12.896 2 11.5342 2C11.2093 2 10.915 2.1913 10.7831 2.48812L7.4223 10.0498C7.26944 10.3938 7.19301 10.5657 7.0722 10.6918C6.96542 10.8033 6.83427 10.8885 6.68905 10.9408C6.52476 11 6.33657 11 5.9602 11H3.6C3.03995 11 2.75992 11 2.54601 11.109C2.35785 11.2049 2.20487 11.3578 2.10899 11.546C2 11.7599 2 12.0399 2 12.6Z" stroke="#2F2B23" stroke-width="1.75" stroke-linecap="square"/>
</g>
<defs>
<clipPath id="clip0_3_12555">
<rect width="24" height="24" fill="white"/>
</clipPath>
</defs>
</svg>
