<svg width="24" height="24" viewBox="0 0 24 24" fill="none" xmlns="http://www.w3.org/2000/svg">
<g clip-path="url(#clip0_3_20206)">
<path opacity="0.12" d="M2 8.2C2 7.0799 2 6.51984 2.21799 6.09202C2.40973 5.71569 2.71569 5.40973 3.09202 5.21799C3.51984 5 4.07989 5 5.2 5H13.8C14.9201 5 15.4802 5 15.908 5.21799C16.2843 5.40973 16.5903 5.71569 16.782 6.09202C17 6.51984 17 7.0799 17 8.2V15.8C17 16.9201 17 17.4802 16.782 17.908C16.5903 18.2843 16.2843 18.5903 15.908 18.782C15.4802 19 14.9201 19 13.8 19H5.2C4.0799 19 3.51984 19 3.09202 18.782C2.71569 18.5903 2.40973 18.2843 2.21799 17.908C2 17.4802 2 16.9201 2 15.8V8.2Z" fill="#2F2B23"/>
<path d="M22 17L21.4534 17.6833C21.716 17.8934 22.0759 17.9343 22.379 17.7886C22.6822 17.6429 22.875 17.3364 22.875 17H22ZM22 7H22.875C22.875 6.66365 22.6822 6.35706 22.379 6.21136C22.0759 6.06565 21.716 6.10662 21.4534 6.31674L22 7ZM17.5466 12.3167C17.1693 12.0149 16.6186 12.076 16.3167 12.4534C16.0149 12.8307 16.076 13.3814 16.4534 13.6833L17.5466 12.3167ZM16.4534 10.3167C16.076 10.6186 16.0149 11.1693 16.3167 11.5466C16.6186 11.924 17.1693 11.9851 17.5466 11.6833L16.4534 10.3167ZM3.09202 18.782L3.48926 18.0024L3.09202 18.782ZM2.21799 17.908L2.99762 17.5107L2.21799 17.908ZM16.782 17.908L16.0024 17.5107L16.782 17.908ZM15.908 18.782L15.5107 18.0024L15.908 18.782ZM15.908 5.21799L15.5107 5.99762L15.908 5.21799ZM16.782 6.09202L16.0024 6.48926L16.782 6.09202ZM3.09202 5.21799L3.48926 5.99762L3.09202 5.21799ZM2.21799 6.09202L2.99762 6.48926L2.21799 6.09202ZM22.875 17V7H21.125V17H22.875ZM16.4534 13.6833L21.4534 17.6833L22.5466 16.3167L17.5466 12.3167L16.4534 13.6833ZM21.4534 6.31674L16.4534 10.3167L17.5466 11.6833L22.5466 7.68326L21.4534 6.31674ZM5.2 5.875H13.8V4.125H5.2V5.875ZM16.125 8.2V15.8H17.875V8.2H16.125ZM13.8 18.125H5.2V19.875H13.8V18.125ZM2.875 15.8V8.2H1.125V15.8H2.875ZM5.2 18.125C4.62551 18.125 4.24726 18.1243 3.95766 18.1007C3.67826 18.0778 3.55926 18.0381 3.48926 18.0024L2.69478 19.5616C3.0526 19.744 3.42754 19.8132 3.81515 19.8448C4.19255 19.8757 4.65439 19.875 5.2 19.875V18.125ZM1.125 15.8C1.125 16.3456 1.12432 16.8074 1.15515 17.1848C1.18682 17.5725 1.25604 17.9474 1.43836 18.3052L2.99762 17.5107C2.96195 17.4407 2.92217 17.3217 2.89934 17.0423C2.87568 16.7527 2.875 16.3745 2.875 15.8H1.125ZM3.48926 18.0024C3.27758 17.8945 3.10548 17.7224 2.99762 17.5107L1.43836 18.3052C1.71399 18.8462 2.15381 19.286 2.69478 19.5616L3.48926 18.0024ZM16.125 15.8C16.125 16.3745 16.1243 16.7527 16.1007 17.0423C16.0778 17.3217 16.0381 17.4407 16.0024 17.5107L17.5616 18.3052C17.744 17.9474 17.8132 17.5725 17.8448 17.1848C17.8757 16.8074 17.875 16.3456 17.875 15.8H16.125ZM13.8 19.875C14.3456 19.875 14.8074 19.8757 15.1848 19.8448C15.5725 19.8132 15.9474 19.744 16.3052 19.5616L15.5107 18.0024C15.4407 18.0381 15.3217 18.0778 15.0423 18.1007C14.7527 18.1243 14.3745 18.125 13.8 18.125V19.875ZM16.0024 17.5107C15.8945 17.7224 15.7224 17.8945 15.5107 18.0024L16.3052 19.5616C16.8462 19.286 17.286 18.8462 17.5616 18.3052L16.0024 17.5107ZM13.8 5.875C14.3745 5.875 14.7527 5.87568 15.0423 5.89934C15.3217 5.92217 15.4407 5.96195 15.5107 5.99762L16.3052 4.43836C15.9474 4.25604 15.5725 4.18682 15.1848 4.15515C14.8074 4.12432 14.3456 4.125 13.8 4.125V5.875ZM17.875 8.2C17.875 7.65439 17.8757 7.19255 17.8448 6.81515C17.8132 6.42754 17.744 6.0526 17.5616 5.69478L16.0024 6.48926C16.0381 6.55926 16.0778 6.67826 16.1007 6.95766C16.1243 7.24727 16.125 7.62551 16.125 8.2H17.875ZM15.5107 5.99762C15.7224 6.10548 15.8945 6.27758 16.0024 6.48926L17.5616 5.69478C17.286 5.15381 16.8462 4.71399 16.3052 4.43836L15.5107 5.99762ZM5.2 4.125C4.65439 4.125 4.19255 4.12432 3.81515 4.15515C3.42754 4.18682 3.0526 4.25604 2.69478 4.43836L3.48926 5.99762C3.55926 5.96195 3.67826 5.92217 3.95766 5.89934C4.24727 5.87568 4.62551 5.875 5.2 5.875V4.125ZM2.875 8.2C2.875 7.62551 2.87568 7.24726 2.89934 6.95766C2.92217 6.67826 2.96195 6.55926 2.99762 6.48926L1.43836 5.69478C1.25604 6.0526 1.18682 6.42754 1.15515 6.81515C1.12432 7.19255 1.125 7.65439 1.125 8.2H2.875ZM2.69478 4.43836C2.15381 4.71399 1.71399 5.15381 1.43836 5.69478L2.99762 6.48926C3.10548 6.27758 3.27758 6.10548 3.48926 5.99762L2.69478 4.43836Z" fill="#2F2B23"/>
</g>
<defs>
<clipPath id="clip0_3_20206">
<rect width="24" height="24" fill="white"/>
</clipPath>
</defs>
</svg>
